<svg width="72" height="100" viewBox="0 0 72 100" fill="none" xmlns="http://www.w3.org/2000/svg">
<path d="M3.78947 99.9999H68.2105C70.3025 99.9981 71.9979 98.5068 72 96.6666V93.3333C71.9979 91.4931 70.3025 90.0018 68.2105 89.9999H66.3158V86.6666C66.3137 84.8264 64.6183 83.3351 62.5263 83.3333H60.6316V64.9999C60.6295 63.1597 58.9341 61.6684 56.8421 61.6666H52.7049L50.8758 53.7939C50.6551 52.8339 50.2854 51.9051 49.7768 51.0338C58.9645 45.502 64.4471 36.3309 64.4211 26.5373V9.77693C64.4225 7.96276 62.7713 6.48206 60.7093 6.44843C51.4438 6.21893 43.6771 4.2166 38.2472 0.658262C36.9169 -0.223978 35.0831 -0.223978 33.7528 0.658262C28.3239 4.2166 20.5579 6.21893 11.2926 6.44843C9.22987 6.48125 7.57758 7.96216 7.57895 9.77693V26.5373C7.54731 36.3321 13.0303 45.5054 22.2215 51.0349C21.715 51.9026 21.3465 52.8274 21.1263 53.7833L19.2949 61.6666H15.1579C13.0659 61.6684 11.3705 63.1597 11.3684 64.9999V83.3333H9.47368C7.38168 83.3351 5.6863 84.8264 5.68421 86.6666V89.9999H3.78947C1.69747 90.0018 0.00208887 91.4931 0 93.3333V96.6666C0.00208887 98.5068 1.69747 99.9981 3.78947 99.9999ZM11.3684 26.5373L11.398 9.78026C21.4361 9.53193 29.942 7.30626 36 3.34226C42.0561 7.30543 50.563 9.53193 60.6316 9.77693V26.5373C60.6687 35.5241 55.4738 43.9024 46.8642 48.7409L46.1535 49.1719L46.1241 49.1838L46.1069 49.2004L36.0639 55.2891L25.8844 49.1921L25.8759 49.1841L25.8607 49.1779L25.0719 48.7054C16.4944 43.864 11.3253 35.5019 11.3684 26.5373ZM24.8415 54.4401C24.959 53.9184 25.1401 53.4093 25.3817 52.9218L33.9933 58.0801C34.5892 58.4067 35.2776 58.5794 35.9797 58.5783C36.7195 58.5765 37.4437 58.3917 38.0696 58.0449L46.6177 52.9211C46.8606 53.4125 47.0425 53.9254 47.1602 54.4511L48.8367 61.6666H23.163L24.8415 54.4401ZM15.1579 64.9999H56.8421V83.3333H15.1579V64.9999ZM9.47368 86.6666H62.5263V89.9999H9.47368V86.6666ZM3.78947 93.3333H68.2105L68.2134 96.6666H3.78947V93.3333Z" fill="#146EB4"/>
</svg>
