<svg width="74" height="100" viewBox="0 0 74 100" fill="none" xmlns="http://www.w3.org/2000/svg">
<path d="M65.1643 83.4327V0L8.83563 17.6027V83.4327H0.552002V100H73.448V83.4327H65.1643ZM12.1491 20.0381L61.8509 4.5063V83.4327H12.1491V20.0381ZM70.1345 96.6865H3.86545V86.7462H70.1345V96.6865Z" fill="#146EB4"/>
<path d="M45.2836 68.7294H28.7163V72.0428H45.2836V68.7294Z" fill="#146EB4"/>
<path d="M48.597 75.3561H25.4028V78.6695H48.597V75.3561Z" fill="#146EB4"/>
<path d="M22.2653 29.2599C18.3539 33.1713 16.1997 38.3718 16.1997 43.9034C16.1997 49.435 18.3539 54.6356 22.2653 58.5469C26.1766 62.4583 31.3772 64.6125 36.9088 64.6125C42.4404 64.6125 47.6409 62.4583 51.5523 58.5469C55.4637 54.6356 57.6179 49.435 57.6179 43.9034C57.6179 38.3718 55.4637 33.1713 51.5523 29.2599C47.6409 25.3486 42.4404 23.1943 36.9088 23.1943C31.3772 23.1943 26.1766 25.3485 22.2653 29.2599ZM56.3769 44.5186C56.2236 49.491 54.2161 54.1435 50.6823 57.6771C50.6708 57.6887 50.6587 57.6999 50.6471 57.7116C48.9213 55.9965 47.5488 54.0042 46.5644 51.7807C45.5466 49.4815 44.9939 47.0413 44.9166 44.5187L56.3769 44.5186ZM36.2937 44.5185L36.2936 55.604H37.5239V44.5185H43.6854C43.7632 47.214 44.3518 49.8217 45.4394 52.2787C46.4799 54.629 47.9284 56.7359 49.7477 58.5518C46.3471 61.5407 42.0695 63.2315 37.5238 63.3717V58.7104H36.2936V63.3717C31.7479 63.2316 27.4704 61.5408 24.0698 58.5518C25.8891 56.7358 27.3376 54.6289 28.378 52.2785C29.4657 49.8216 30.0542 47.214 30.132 44.5185H36.2937ZM28.901 44.5185C28.8237 47.0412 28.271 49.4814 27.2532 51.7805C26.2688 54.0042 24.8963 55.9965 23.1706 57.7115C23.1588 57.6999 23.1469 57.6886 23.1351 57.677C19.6016 54.1433 17.5938 49.4908 17.4406 44.5185L28.901 44.5185ZM17.4406 43.2883C17.5938 38.3159 19.6014 33.6634 23.1351 30.1298C23.1468 30.1181 23.1588 30.1069 23.1705 30.0952C24.8963 31.8103 26.2688 33.8026 27.2532 36.0262C28.271 38.3253 28.8237 40.7656 28.901 43.2882L17.4406 43.2883ZM36.2937 43.2883H30.1321C30.0544 40.5929 29.4658 37.9851 28.3782 35.5282C27.3376 33.1778 25.8892 31.0709 24.07 29.2551C27.4705 26.2662 31.7481 24.5753 36.2938 24.4352L36.2937 43.2883ZM50.6824 30.1299C54.2161 33.6634 56.2238 38.3159 56.377 43.2883H44.9165C44.9938 40.7657 45.5465 38.3254 46.5643 36.0264C47.5487 33.8027 48.9212 31.8104 50.6469 30.0953C50.6587 30.1069 50.6708 30.1181 50.6824 30.1299ZM45.4395 35.5283C44.3518 37.9852 43.7632 40.5929 43.6855 43.2883H37.524V24.4352C42.0696 24.5755 46.3472 26.2662 49.7478 29.2551C47.9283 31.0709 46.4799 33.1778 45.4395 35.5283Z" fill="#146EB4" stroke="#146EB4"/>
<path d="M60.8173 13.6415C60.7142 13.5318 60.5778 13.4614 60.4304 13.4415L55.6979 12.738L53.5937 8.34123C53.398 8.00823 52.9755 7.90051 52.6499 8.10056C52.5534 8.15992 52.4727 8.24251 52.4146 8.34123L50.3022 12.7212L45.5697 13.4247C45.2111 13.473 44.9585 13.8094 45.0057 14.1764C45.025 14.3271 45.094 14.4667 45.2013 14.5721L48.6237 17.9806L47.8049 22.7961C47.7463 23.166 47.9918 23.5144 48.3534 23.5744C48.4933 23.5976 48.6368 23.5744 48.7629 23.508L53.0041 21.2468L57.2372 23.5247C57.5629 23.6961 57.9627 23.5649 58.1303 23.2317C58.195 23.1027 58.2179 22.956 58.1951 22.8129L57.3764 17.9974L60.7988 14.5888C61.0597 14.3325 61.0679 13.9084 60.8173 13.6415ZM56.2137 17.2688C56.0601 17.4238 55.9899 17.6456 56.0254 17.8634L56.664 21.6823L53.3071 19.8817C53.1147 19.7789 52.8854 19.7789 52.693 19.8817L49.336 21.6823L49.9747 17.8634C50.0102 17.6456 49.94 17.4238 49.7864 17.2688L47.0762 14.5637L50.8262 14.011C51.0417 13.9795 51.2284 13.8417 51.3257 13.6425L52.9632 10.1669L54.6007 13.6425C54.698 13.8417 54.8846 13.9795 55.1002 14.011L58.8502 14.5637L56.2137 17.2688Z" fill="#146EB4"/>
</svg>
