<svg width="64" height="100" viewBox="0 0 64 100" fill="none" xmlns="http://www.w3.org/2000/svg">
<path d="M3.66683 81.6667V90.3068C1.37272 91.1149 -0.00423178 93.4595 0.407552 95.8569C0.82015 98.2544 2.90104 100.005 5.3335 100H58.6668C61.0993 100.005 63.1802 98.2544 63.5928 95.8569C64.0046 93.4595 62.6276 91.1149 60.3335 90.3068V81.6667C60.3278 77.0662 56.6006 73.339 52.0002 73.3333H36.1115C43.8337 65.4565 63.6668 42.5602 63.6668 15C63.6668 13.8631 63.6505 12.7352 63.6188 11.617C63.592 10.7153 62.8538 9.99756 61.9521 9.99837C55.5467 9.98128 50.3335 6.24349 50.3335 1.66667C50.3335 0.746256 49.5872 0 48.6668 0H15.3335C14.4131 0 13.6668 0.746256 13.6668 1.66667C13.6668 6.24349 8.45361 9.98128 2.04329 10C1.1416 10 0.402669 10.717 0.376628 11.6187C0.348145 12.7368 0.333496 13.8647 0.333496 15C0.333496 42.5602 20.1667 65.4565 27.8888 73.3333H12.0002C7.39974 73.339 3.67253 77.0662 3.66683 81.6667ZM3.67985 13.2601C10.4515 12.6685 15.8804 8.54818 16.8472 3.33333H47.1532C48.1199 8.54818 53.5488 12.6668 60.3205 13.2601C60.3294 13.8363 60.3335 14.4165 60.3335 15C60.3335 43.3919 37.3704 67.465 32.0002 72.7035C26.6266 67.4683 3.66683 43.4196 3.66683 15C3.66683 14.4165 3.6709 13.8363 3.67985 13.2601ZM58.6668 96.6667H5.3335C4.41309 96.6667 3.66683 95.9204 3.66683 95C3.66683 94.0796 4.41309 93.3333 5.3335 93.3333H58.6668C59.5872 93.3333 60.3335 94.0796 60.3335 95C60.3335 95.9204 59.5872 96.6667 58.6668 96.6667ZM57.0002 81.6667V90H7.00016V81.6667C7.00016 78.9054 9.23893 76.6667 12.0002 76.6667H52.0002C54.7614 76.6667 57.0002 78.9054 57.0002 81.6667Z" fill="#146EB4"/>
<path d="M33.1084 66.2453C34.0833 65.3786 57 44.6901 57 18.6371C57 17.7557 56.9878 16.8809 56.9634 16.0118C56.9373 15.1101 56.1984 14.3931 55.2967 14.3939C50.5181 14.3801 46.6281 11.6669 46.6281 8.33354C46.6281 7.41313 45.8818 6.66687 44.9614 6.66687H19.0386C18.1182 6.66687 17.3719 7.41313 17.3719 8.33354C17.3719 11.6669 13.4819 14.3801 8.70492 14.3939C7.80322 14.3931 7.06429 15.1101 7.03825 16.0118C7.01302 16.8809 7 17.7557 7 18.6371C7 44.6901 29.9167 65.3786 30.8916 66.2453C31.5231 66.8077 32.4769 66.8077 33.1084 66.2453ZM10.3333 18.6371C10.3333 18.3034 10.3333 17.9706 10.3333 17.6369C15.4749 17.0738 19.5936 13.9602 20.5002 10.0002H43.4868C44.3999 13.9602 48.5186 17.0738 53.6536 17.6369V18.6371C53.6667 40.0002 36.5671 58.2204 32 62.702C27.4329 58.2204 10.3333 40.0002 10.3333 18.6371Z" fill="#146EB4"/>
<path d="M22.1005 26.1005C19.4563 28.7447 18 32.2605 18 36C18 39.7395 19.4563 43.2553 22.1005 45.8995C24.7447 48.5437 28.2605 50 32 50C35.7395 50 39.2552 48.5437 41.8995 45.8995C44.5437 43.2553 46 39.7395 46 36C46 32.2605 44.5437 28.7447 41.8995 26.1005C39.2552 23.4563 35.7395 22 32 22C28.2605 22 24.7447 23.4563 22.1005 26.1005ZM45.1611 36.4159C45.0575 39.7774 43.7003 42.9226 41.3114 45.3115C41.3035 45.3193 41.2954 45.3269 41.2875 45.3348C40.1208 44.1753 39.193 42.8284 38.5275 41.3253C37.8394 39.771 37.4658 38.1213 37.4135 36.416H45.1611V36.4159ZM31.5842 36.4158V44.2611H32.4158V36.4158H36.5812C36.6338 38.2381 37.0317 40.0009 37.767 41.662C38.4704 43.2509 39.4496 44.6752 40.6795 45.9028C38.3806 47.9234 35.4888 49.0664 32.4158 49.1612V45.3703H31.5841V49.1612C28.5111 49.0665 25.6193 47.9235 23.3204 45.9028C24.5504 44.6751 25.5295 43.2508 26.2329 41.6619C26.9683 40.0009 27.3661 38.238 27.4187 36.4158H31.5842ZM26.5865 36.4158C26.5342 38.1212 26.1606 39.7709 25.4725 41.3251C24.807 42.8284 23.8792 44.1753 22.7125 45.3347C22.7046 45.3268 22.6965 45.3192 22.6886 45.3114C20.2998 42.9225 18.9425 39.7773 18.8389 36.4158H26.5865V36.4158ZM18.8389 35.5842C18.9425 32.2227 20.2997 29.0774 22.6886 26.6886C22.6965 26.6807 22.7046 26.6731 22.7125 26.6652C23.8792 27.8247 24.807 29.1716 25.4725 30.6747C26.1606 32.229 26.5342 33.8787 26.5865 35.5841H18.8389V35.5842ZM31.5842 35.5842H27.4188C27.3662 33.762 26.9683 31.9991 26.233 30.3381C25.5296 28.7491 24.5504 27.3248 23.3205 26.0973C25.6194 24.0766 28.5112 22.9336 31.5843 22.8389V35.5842H31.5842ZM41.3114 26.6886C43.7003 29.0774 45.0576 32.2227 45.1611 35.5842H37.4135C37.4657 33.8788 37.8394 32.2291 38.5274 30.6749C39.1929 29.1716 40.1208 27.8247 41.2874 26.6653C41.2954 26.6731 41.3035 26.6807 41.3114 26.6886ZM37.767 30.3381C37.0317 31.9991 36.6338 33.762 36.5813 35.5842H32.4159V22.8389C35.4889 22.9337 38.3807 24.0767 40.6796 26.0973C39.4495 27.3248 38.4704 28.7491 37.767 30.3381Z" fill="#146EB4" stroke="#146EB4" stroke-width="0.5"/>
<path d="M11.9543 85.4104C11.9285 85.383 11.8944 85.3653 11.8576 85.3604L10.6745 85.1845L10.1484 84.0853C10.0995 84.0021 9.99387 83.9751 9.91248 84.0251C9.88835 84.04 9.86816 84.0606 9.85366 84.0853L9.32555 85.1803L8.14242 85.3562C8.05277 85.3682 7.98962 85.4524 8.00142 85.5441C8.00625 85.5818 8.0235 85.6167 8.05031 85.643L8.90593 86.4952L8.70124 87.699C8.68657 87.7915 8.74796 87.8786 8.83835 87.8936C8.87333 87.8994 8.9092 87.8936 8.94073 87.877L10.001 87.3117L11.0593 87.8812C11.1407 87.924 11.2407 87.8912 11.2826 87.8079C11.2988 87.7757 11.3045 87.739 11.2988 87.7032L11.0941 86.4993L11.9497 85.6472C12.0149 85.5831 12.017 85.4771 11.9543 85.4104ZM10.8034 86.3172C10.765 86.356 10.7475 86.4114 10.7564 86.4658L10.916 87.4206L10.0768 86.9704C10.0287 86.9447 9.97135 86.9447 9.92325 86.9704L9.08401 87.4206L9.24367 86.4658C9.25255 86.4114 9.235 86.356 9.19659 86.3172L8.51906 85.6409L9.45655 85.5027C9.51044 85.4949 9.55711 85.4604 9.58141 85.4106L9.9908 84.5417L10.4002 85.4106C10.4245 85.4604 10.4712 85.4949 10.525 85.5027L11.4625 85.6409L10.8034 86.3172Z" fill="#146EB4"/>
<path d="M17.9543 85.4104C17.9285 85.383 17.8944 85.3653 17.8576 85.3604L16.6745 85.1845L16.1484 84.0853C16.0995 84.0021 15.9939 83.9751 15.9125 84.0251C15.8884 84.04 15.8682 84.0606 15.8537 84.0853L15.3255 85.1803L14.1424 85.3562C14.0528 85.3682 13.9896 85.4524 14.0014 85.5441C14.0063 85.5818 14.0235 85.6167 14.0503 85.643L14.9059 86.4952L14.7012 87.699C14.6866 87.7915 14.748 87.8786 14.8384 87.8936C14.8733 87.8994 14.9092 87.8936 14.9407 87.877L16.001 87.3117L17.0593 87.8812C17.1407 87.924 17.2407 87.8912 17.2826 87.8079C17.2988 87.7757 17.3045 87.739 17.2988 87.7032L17.0941 86.4993L17.9497 85.6472C18.0149 85.5831 18.017 85.4771 17.9543 85.4104ZM16.8034 86.3172C16.765 86.356 16.7475 86.4114 16.7564 86.4658L16.916 87.4206L16.0768 86.9704C16.0287 86.9447 15.9714 86.9447 15.9233 86.9704L15.084 87.4206L15.2437 86.4658C15.2525 86.4114 15.235 86.356 15.1966 86.3172L14.5191 85.6409L15.4566 85.5027C15.5104 85.4949 15.5571 85.4604 15.5814 85.4106L15.9908 84.5417L16.4002 85.4106C16.4245 85.4604 16.4712 85.4949 16.525 85.5027L17.4625 85.6409L16.8034 86.3172Z" fill="#146EB4"/>
<path d="M23.9543 85.4104C23.9285 85.383 23.8944 85.3653 23.8576 85.3604L22.6745 85.1845L22.1484 84.0853C22.0995 84.0021 21.9939 83.9751 21.9125 84.0251C21.8884 84.04 21.8682 84.0606 21.8537 84.0853L21.3255 85.1803L20.1424 85.3562C20.0528 85.3682 19.9896 85.4524 20.0014 85.5441C20.0063 85.5818 20.0235 85.6167 20.0503 85.643L20.9059 86.4952L20.7012 87.699C20.6866 87.7915 20.748 87.8786 20.8384 87.8936C20.8733 87.8994 20.9092 87.8936 20.9407 87.877L22.001 87.3117L23.0593 87.8812C23.1407 87.924 23.2407 87.8912 23.2826 87.8079C23.2988 87.7757 23.3045 87.739 23.2988 87.7032L23.0941 86.4993L23.9497 85.6472C24.0149 85.5831 24.017 85.4771 23.9543 85.4104ZM22.8034 86.3172C22.765 86.356 22.7475 86.4114 22.7564 86.4658L22.916 87.4206L22.0768 86.9704C22.0287 86.9447 21.9714 86.9447 21.9233 86.9704L21.084 87.4206L21.2437 86.4658C21.2525 86.4114 21.235 86.356 21.1966 86.3172L20.5191 85.6409L21.4566 85.5027C21.5104 85.4949 21.5571 85.4604 21.5814 85.4106L21.9908 84.5417L22.4002 85.4106C22.4245 85.4604 22.4712 85.4949 22.525 85.5027L23.4625 85.6409L22.8034 86.3172Z" fill="#146EB4"/>
<path d="M35.9086 14.8208C35.8571 14.7659 35.7889 14.7307 35.7152 14.7207L33.3489 14.369L32.2968 12.1706C32.199 12.0041 31.9877 11.9503 31.825 12.0503C31.7767 12.08 31.7363 12.1213 31.7073 12.1706L30.6511 14.3606L28.2848 14.7124C28.1055 14.7365 27.9792 14.9047 28.0028 15.0882C28.0125 15.1636 28.047 15.2333 28.1006 15.286L29.8119 16.9903L29.4025 19.3981C29.3731 19.583 29.4959 19.7572 29.6767 19.7872C29.7467 19.7988 29.8184 19.7872 29.8815 19.754L32.0021 18.6234L34.1186 19.7624C34.2815 19.8481 34.4814 19.7825 34.5651 19.6159C34.5975 19.5514 34.6089 19.478 34.5976 19.4064L34.1882 16.9987L35.8994 15.2944C36.0299 15.1662 36.034 14.9542 35.9086 14.8208ZM33.6069 16.6344C33.53 16.7119 33.4949 16.8228 33.5127 16.9317L33.832 18.8411L32.1535 17.9408C32.0573 17.8894 31.9427 17.8894 31.8465 17.9408L30.168 18.8411L30.4873 16.9317C30.5051 16.8228 30.47 16.7119 30.3932 16.6344L29.0381 15.2819L30.9131 15.0055C31.0209 14.9897 31.1142 14.9208 31.1628 14.8212L31.9816 13.0835L32.8004 14.8212C32.849 14.9208 32.9423 14.9897 33.0501 15.0055L34.9251 15.2819L33.6069 16.6344Z" fill="#146EB4"/>
</svg>
