<svg width="74" height="100" viewBox="0 0 74 100" fill="none" xmlns="http://www.w3.org/2000/svg">
<path d="M65.1643 83.4327V0L8.83563 17.6027V83.4327H0.552002V100H73.448V83.4327H65.1643ZM12.1491 20.0381L61.8509 4.5063V83.4327H12.1491V20.0381ZM70.1345 96.6865H3.86545V86.7462H70.1345V96.6865Z" fill="#146EB4"/>
<path d="M55.4516 33.1997H18.5484C16.5918 33.1997 15 34.7915 15 36.7481V60.8771C15 62.8337 16.5918 64.4255 18.5484 64.4255H27.2859C28.9955 68.4536 29.9032 72.8068 29.9032 77.1997L31.3226 77.1884C31.3226 75.9308 31.2403 74.6768 31.1012 73.4299L31.1146 73.4434L32.0323 72.5258L33.5126 74.0062L31.5305 75.9883L32.534 76.9918L34.5161 75.0096L36.4983 76.9918L37 76.49L37.5017 76.9918L39.4839 75.0096L41.466 76.9918L42.4695 75.9883L40.4874 74.0062L43.2068 71.2867C42.8634 73.2347 42.6774 75.2133 42.6774 77.1997L44.0968 77.1884C44.0968 72.8047 45.0044 68.4529 46.7141 64.4255H55.4516C57.4082 64.4255 59 62.8337 59 60.8771V36.7481C59 34.7915 57.4082 33.1997 55.4516 33.1997ZM46.9355 57.3287H27.0645V44.5545H46.9355V57.3287ZM48.3548 58.7481V60.1674H25.6452V58.7481H48.3548ZM40.9643 61.5868L39.4839 63.0672L38.0035 61.5868H40.9643ZM41.9677 62.5903L43.4481 64.0707L41.9677 65.5511L40.4874 64.0707L41.9677 62.5903ZM38.4804 64.0707L37 65.5511L35.5196 64.0707L37 62.5903L38.4804 64.0707ZM35.9965 61.5868L34.5161 63.0672L33.0357 61.5868H35.9965ZM31.0288 61.5868L29.5484 63.0672L28.068 61.5868H31.0288ZM31.0288 66.5545L29.938 67.6453C29.6073 66.5127 29.2234 65.3964 28.777 64.3034L31.0288 66.5545ZM30.5519 64.0707L32.0323 62.5903L33.5126 64.0707L32.0323 65.5511L30.5519 64.0707ZM34.5161 65.0742L35.9965 66.5545L34.5161 68.0349L33.0357 66.5545L34.5161 65.0742ZM37 67.558L38.4804 69.0384L37 70.5188L35.5196 69.0384L37 67.558ZM38.0035 66.5545L39.4839 65.0742L40.9643 66.5545L39.4839 68.0349L38.0035 66.5545ZM41.9677 67.558L43.4481 69.0384L41.9677 70.5188L40.4874 69.0384L41.9677 67.558ZM42.9712 66.5545L44.4516 65.0742L44.7944 65.4169C44.524 66.1514 44.2813 66.8945 44.062 67.6453L42.9712 66.5545ZM42.9712 61.5868H46.4785C46.0754 62.3696 45.7028 63.1673 45.3621 63.9777L42.9712 61.5868ZM30.8577 71.6933C30.7222 70.8651 30.5604 70.0419 30.3638 69.2265L32.0323 67.558L33.5126 69.0384L30.8577 71.6933ZM33.0357 71.5223L34.5161 70.0419L35.9965 71.5223L34.5161 73.0027L33.0357 71.5223ZM37 75.4865L35.5196 74.0062L37 72.5258L38.4804 74.0062L37 75.4865ZM38.0035 71.5223L39.4839 70.0419L40.9643 71.5223L39.4839 73.0027L38.0035 71.5223ZM57.5806 60.8771C57.5806 62.0509 56.6254 63.0062 55.4516 63.0062H47.3506C47.5806 62.5285 47.8141 62.0531 48.0674 61.5868H49.0645C49.457 61.5868 49.7742 61.2696 49.7742 60.8771V58.0384C49.7742 57.646 49.457 57.3287 49.0645 57.3287H48.3548V43.8449C48.3548 43.4524 48.0376 43.1352 47.6452 43.1352H26.3548C25.9624 43.1352 25.6452 43.4524 25.6452 43.8449V57.3287H24.9355C24.543 57.3287 24.2258 57.646 24.2258 58.0384V60.8771C24.2258 61.2696 24.543 61.5868 24.9355 61.5868H25.9326C26.1859 62.0531 26.4194 62.5285 26.6494 63.0062H18.5484C17.3746 63.0062 16.4194 62.0509 16.4194 60.8771V36.7481C16.4194 35.5743 17.3746 34.6191 18.5484 34.6191H55.4516C56.6254 34.6191 57.5806 35.5743 57.5806 36.7481V60.8771Z" fill="#146EB4"/>
<path d="M55.4766 36.0122H18.5234C18.1304 36.0122 17.8127 36.329 17.8127 36.721V60.8194C17.8127 61.2114 18.1304 61.5282 18.5234 61.5282H22.7872V60.1107H19.234V37.4298H54.7659V60.1107H51.2127V61.5282H55.4766C55.8695 61.5282 56.1872 61.2114 56.1872 60.8194V36.721C56.1872 36.329 55.8695 36.0122 55.4766 36.0122Z" fill="#146EB4"/>
<path d="M60.8173 15.6415C60.7142 15.5318 60.5778 15.4614 60.4304 15.4415L55.6979 14.738L53.5937 10.3412C53.398 10.0082 52.9755 9.90051 52.6499 10.1006C52.5534 10.1599 52.4727 10.2425 52.4146 10.3412L50.3022 14.7212L45.5697 15.4247C45.2111 15.473 44.9585 15.8094 45.0057 16.1764C45.025 16.3271 45.094 16.4667 45.2013 16.5721L48.6237 19.9806L47.8049 24.7961C47.7463 25.166 47.9918 25.5144 48.3534 25.5744C48.4933 25.5976 48.6368 25.5744 48.7629 25.508L53.0041 23.2468L57.2372 25.5247C57.5629 25.6961 57.9627 25.5649 58.1303 25.2317C58.195 25.1027 58.2179 24.956 58.1951 24.8129L57.3764 19.9974L60.7988 16.5888C61.0597 16.3325 61.0679 15.9084 60.8173 15.6415ZM56.2137 19.2688C56.0601 19.4238 55.9899 19.6456 56.0254 19.8634L56.664 23.6823L53.3071 21.8817C53.1147 21.7789 52.8854 21.7789 52.693 21.8817L49.336 23.6823L49.9747 19.8634C50.0102 19.6456 49.94 19.4238 49.7864 19.2688L47.0762 16.5637L50.8262 16.011C51.0417 15.9795 51.2284 15.8417 51.3257 15.6425L52.9632 12.1669L54.6007 15.6425C54.698 15.8417 54.8846 15.9795 55.1002 16.011L58.8502 16.5637L56.2137 19.2688Z" fill="#146EB4"/>
<path d="M8.95431 91.4104C8.92855 91.383 8.89444 91.3653 8.8576 91.3604L7.67447 91.1845L7.14841 90.0853C7.09949 90.0021 6.99387 89.9751 6.91248 90.0251C6.88835 90.04 6.86816 90.0606 6.85366 90.0853L6.32555 91.1803L5.14242 91.3562C5.05277 91.3682 4.98962 91.4524 5.00142 91.5441C5.00625 91.5818 5.0235 91.6167 5.05031 91.643L5.90593 92.4952L5.70124 93.699C5.68657 93.7915 5.74796 93.8786 5.83835 93.8936C5.87333 93.8994 5.9092 93.8936 5.94073 93.877L7.00103 93.3117L8.0593 93.8812C8.14074 93.924 8.24068 93.8912 8.28256 93.8079C8.29876 93.7757 8.30447 93.739 8.29879 93.7032L8.09409 92.4993L8.94971 91.6472C9.01493 91.5831 9.01698 91.4771 8.95431 91.4104ZM7.80343 92.3172C7.76502 92.356 7.74747 92.4114 7.75635 92.4658L7.91601 93.4206L7.07677 92.9704C7.02867 92.9447 6.97135 92.9447 6.92325 92.9704L6.08401 93.4206L6.24367 92.4658C6.25255 92.4114 6.235 92.356 6.19659 92.3172L5.51906 91.6409L6.45655 91.5027C6.51044 91.4949 6.55711 91.4604 6.58141 91.4106L6.9908 90.5417L7.40018 91.4106C7.42449 91.4604 7.47116 91.4949 7.52505 91.5027L8.46254 91.6409L7.80343 92.3172Z" fill="#146EB4"/>
<path d="M14.9543 91.4104C14.9285 91.383 14.8944 91.3653 14.8576 91.3604L13.6745 91.1845L13.1484 90.0853C13.0995 90.0021 12.9939 89.9751 12.9125 90.0251C12.8884 90.04 12.8682 90.0606 12.8537 90.0853L12.3255 91.1803L11.1424 91.3562C11.0528 91.3682 10.9896 91.4524 11.0014 91.5441C11.0063 91.5818 11.0235 91.6167 11.0503 91.643L11.9059 92.4952L11.7012 93.699C11.6866 93.7915 11.748 93.8786 11.8384 93.8936C11.8733 93.8994 11.9092 93.8936 11.9407 93.877L13.001 93.3117L14.0593 93.8812C14.1407 93.924 14.2407 93.8912 14.2826 93.8079C14.2988 93.7757 14.3045 93.739 14.2988 93.7032L14.0941 92.4993L14.9497 91.6472C15.0149 91.5831 15.017 91.4771 14.9543 91.4104ZM13.8034 92.3172C13.765 92.356 13.7475 92.4114 13.7564 92.4658L13.916 93.4206L13.0768 92.9704C13.0287 92.9447 12.9714 92.9447 12.9233 92.9704L12.084 93.4206L12.2437 92.4658C12.2525 92.4114 12.235 92.356 12.1966 92.3172L11.5191 91.6409L12.4566 91.5027C12.5104 91.4949 12.5571 91.4604 12.5814 91.4106L12.9908 90.5417L13.4002 91.4106C13.4245 91.4604 13.4712 91.4949 13.525 91.5027L14.4625 91.6409L13.8034 92.3172Z" fill="#146EB4"/>
<path d="M20.9543 91.4104C20.9285 91.383 20.8944 91.3653 20.8576 91.3604L19.6745 91.1845L19.1484 90.0853C19.0995 90.0021 18.9939 89.9751 18.9125 90.0251C18.8884 90.04 18.8682 90.0606 18.8537 90.0853L18.3255 91.1803L17.1424 91.3562C17.0528 91.3682 16.9896 91.4524 17.0014 91.5441C17.0063 91.5818 17.0235 91.6167 17.0503 91.643L17.9059 92.4952L17.7012 93.699C17.6866 93.7915 17.748 93.8786 17.8384 93.8936C17.8733 93.8994 17.9092 93.8936 17.9407 93.877L19.001 93.3117L20.0593 93.8812C20.1407 93.924 20.2407 93.8912 20.2826 93.8079C20.2988 93.7757 20.3045 93.739 20.2988 93.7032L20.0941 92.4993L20.9497 91.6472C21.0149 91.5831 21.017 91.4771 20.9543 91.4104ZM19.8034 92.3172C19.765 92.356 19.7475 92.4114 19.7564 92.4658L19.916 93.4206L19.0768 92.9704C19.0287 92.9447 18.9714 92.9447 18.9233 92.9704L18.084 93.4206L18.2437 92.4658C18.2525 92.4114 18.235 92.356 18.1966 92.3172L17.5191 91.6409L18.4566 91.5027C18.5104 91.4949 18.5571 91.4604 18.5814 91.4106L18.9908 90.5417L19.4002 91.4106C19.4245 91.4604 19.4712 91.4949 19.525 91.5027L20.4625 91.6409L19.8034 92.3172Z" fill="#146EB4"/>
<path d="M56.9086 16.8208C56.8571 16.7659 56.7889 16.7307 56.7152 16.7207L54.3489 16.369L53.2968 14.1706C53.199 14.0041 52.9877 13.9503 52.825 14.0503C52.7767 14.08 52.7363 14.1213 52.7073 14.1706L51.6511 16.3606L49.2848 16.7124C49.1055 16.7365 48.9792 16.9047 49.0028 17.0882C49.0125 17.1636 49.047 17.2333 49.1006 17.286L50.8119 18.9903L50.4025 21.3981C50.3731 21.583 50.4959 21.7572 50.6767 21.7872C50.7467 21.7988 50.8184 21.7872 50.8815 21.754L53.0021 20.6234L55.1186 21.7624C55.2815 21.8481 55.4814 21.7825 55.5651 21.6159C55.5975 21.5514 55.6089 21.478 55.5976 21.4064L55.1882 18.9987L56.8994 17.2944C57.0299 17.1662 57.034 16.9542 56.9086 16.8208ZM54.6069 18.6344C54.53 18.7119 54.4949 18.8228 54.5127 18.9317L54.832 20.8411L53.1535 19.9408C53.0573 19.8894 52.9427 19.8894 52.8465 19.9408L51.168 20.8411L51.4873 18.9317C51.5051 18.8228 51.47 18.7119 51.3932 18.6344L50.0381 17.2819L51.9131 17.0055C52.0209 16.9897 52.1142 16.9208 52.1628 16.8212L52.9816 15.0835L53.8004 16.8212C53.849 16.9208 53.9423 16.9897 54.0501 17.0055L55.9251 17.2819L54.6069 18.6344Z" fill="#146EB4"/>
</svg>
