<svg width="66" height="97" viewBox="0 0 66 97" fill="none" xmlns="http://www.w3.org/2000/svg">
<path d="M64.0625 87.5H59.375V76.5625C59.375 73.9781 57.2719 71.875 54.6875 71.875H44.5719C39.9516 65.2766 37.5 57.5453 37.5 49.4812V44.7156L47.7391 49.8344C47.9609 49.9453 48.2 50 48.4375 50C48.8125 50 49.1844 49.8656 49.4781 49.6047C49.9563 49.1797 50.125 48.5047 49.9062 47.9047L44.0656 31.8437L58.7078 21.5938C59.2453 21.2172 59.4906 20.5453 59.3219 19.9109C59.1531 19.2781 58.6063 18.8156 57.9531 18.7563L41.6719 17.2766L34.2344 0.917188C33.9813 0.357813 33.425 0 32.8125 0C32.2 0 31.6437 0.357812 31.3906 0.915625L23.9531 17.275L7.67188 18.7547C7.01875 18.8141 6.47188 19.275 6.30313 19.9094C6.13438 20.5437 6.37969 21.2156 6.91719 21.5922L21.5594 31.8422L15.7187 47.9031C15.5 48.5047 15.6703 49.1781 16.1469 49.6031C16.625 50.0281 17.3125 50.1203 17.8859 49.8344L28.125 44.7156V49.4812C28.125 57.5469 25.6734 65.2766 21.0531 71.875H10.9375C8.35312 71.875 6.25 73.9781 6.25 76.5625V87.5H1.5625C0.7 87.5 0 88.2 0 89.0625V95.3125C0 96.175 0.7 96.875 1.5625 96.875H64.0625C64.925 96.875 65.625 96.175 65.625 95.3125V89.0625C65.625 88.2 64.925 87.5 64.0625 87.5ZM24.9062 31.7844C25.1469 31.1203 24.9125 30.3766 24.3328 29.9703L12.2078 21.4828L25.1406 20.3078C25.7 20.2562 26.1891 19.9094 26.4219 19.3969L32.8125 5.33906L39.2031 19.3969C39.4344 19.9094 39.9234 20.2562 40.4844 20.3078L53.4172 21.4828L41.2922 29.9703C40.7125 30.3766 40.4781 31.1203 40.7188 31.7844L45.6297 45.2875L33.5125 39.2281C33.2922 39.1172 33.0516 39.0625 32.8125 39.0625C32.5734 39.0625 32.3328 39.1172 32.1141 39.2266L19.9969 45.2859L24.9062 31.7844ZM31.25 49.4812V43.1531L32.8125 42.3719L34.375 43.1531V49.4812C34.375 57.4719 36.6125 65.1547 40.8328 71.875H24.7922C29.0125 65.1562 31.25 57.4719 31.25 49.4812ZM9.375 76.5625C9.375 75.7016 10.0766 75 10.9375 75H54.6875C55.5484 75 56.25 75.7016 56.25 76.5625V87.5H46.875V79.6875C46.875 78.825 46.175 78.125 45.3125 78.125H20.3125C19.45 78.125 18.75 78.825 18.75 79.6875V87.5H9.375V76.5625ZM43.75 87.5H21.875V81.25H43.75V87.5ZM62.5 93.75H3.125V90.625H62.5V93.75Z" fill="#146EB4"/>
<path d="M27.1557 20.7807C25.6447 22.2916 24.8125 24.3006 24.8125 26.4375C24.8125 28.5744 25.6447 30.5834 27.1557 32.0943C28.6666 33.6053 30.6756 34.4375 32.8125 34.4375C34.9494 34.4375 36.9583 33.6053 38.4693 32.0943C39.9803 30.5834 40.8125 28.5744 40.8125 26.4375C40.8125 24.3006 39.9803 22.2916 38.4693 20.7807C36.9583 19.2697 34.9494 18.4375 32.8125 18.4375C30.6756 18.4375 28.6666 19.2697 27.1557 20.7807ZM40.3331 26.6752C40.2739 28.596 39.4984 30.3933 38.1333 31.7583C38.1288 31.7628 38.1242 31.7672 38.1197 31.7717C37.453 31.1091 36.9228 30.3395 36.5425 29.4805C36.1493 28.5923 35.9358 27.6497 35.9059 26.6752H40.3331V26.6752ZM32.5749 26.6751V31.1582H33.0501V26.6751H35.4303C35.4604 27.7164 35.6877 28.7238 36.1079 29.6729C36.5099 30.5808 37.0694 31.3948 37.7722 32.0962C36.4586 33.2508 34.8061 33.904 33.0501 33.9582V31.7919H32.5748V33.9582C30.8188 33.9041 29.1664 33.2509 27.8528 32.0962C28.5556 31.3947 29.1151 30.5808 29.517 29.6728C29.9372 28.7237 30.1646 27.7164 30.1946 26.6751H32.5749ZM29.7191 26.6751C29.6892 27.6496 29.4757 28.5923 29.0825 29.4804C28.7022 30.3395 28.172 31.1091 27.5054 31.7716C27.5008 31.7671 27.4962 31.7628 27.4917 31.7583C26.1267 30.3932 25.3511 28.5959 25.2919 26.6751H29.7191V26.6751ZM25.2918 26.1999C25.3511 24.279 26.1266 22.4818 27.4917 21.1167C27.4962 21.1122 27.5008 21.1078 27.5053 21.1033C28.172 21.7659 28.7022 22.5355 29.0825 23.3945C29.4757 24.2827 29.6892 25.2253 29.7191 26.1998H25.2918V26.1999ZM32.5749 26.1999H30.1947C30.1646 25.1586 29.9373 24.1512 29.5171 23.2021C29.1151 22.2942 28.5556 21.4802 27.8528 20.7788C29.1665 19.6242 30.8189 18.971 32.5749 18.9168V26.1999H32.5749ZM38.1333 21.1167C39.4984 22.4817 40.274 24.279 40.3332 26.1999H35.9059C35.9358 25.2254 36.1493 24.2827 36.5425 23.3946C36.9228 22.5356 37.4529 21.7659 38.1196 21.1034C38.1242 21.1078 38.1288 21.1122 38.1333 21.1167ZM36.1079 23.2022C35.6877 24.1513 35.4604 25.1586 35.4304 26.1999H33.0502V18.9168C34.8062 18.971 36.4586 19.6242 37.7723 20.7788C37.0694 21.4802 36.5099 22.2942 36.1079 23.2022Z" fill="#146EB4" stroke="#146EB4" stroke-width="0.5"/>
</svg>
