<svg width="64" height="100" viewBox="0 0 64 100" fill="none" xmlns="http://www.w3.org/2000/svg">
<path d="M3.6652 81.6665V90.3066C1.37109 91.1148 -0.00586307 93.4593 0.406734 95.8568C0.818518 98.2542 2.89941 100.005 5.33186 99.9998H58.6652C61.0976 100.005 63.1785 98.2542 63.5911 95.8568C64.0029 93.4593 62.626 91.1148 60.3319 90.3066V81.6665C60.327 77.0661 56.599 73.3389 51.9985 73.3332H50.6655L63.6367 1.96523C63.7458 1.36871 63.522 0.7608 63.0532 0.376685C62.5837 -0.0074292 61.9432 -0.105899 61.3809 0.117896C61.2156 0.184628 44.8485 6.66656 31.9985 6.66656C19.1486 6.66656 2.78222 0.184628 2.61702 0.117896C2.05387 -0.105899 1.41341 -0.0074292 0.944658 0.376685C0.475908 0.7608 0.252112 1.36871 0.360348 1.96523L13.3324 73.3332H11.9985C7.39892 73.3389 3.67089 77.0661 3.6652 81.6665ZM58.6652 96.6665H5.33186C4.41145 96.6665 3.6652 95.9202 3.6652 94.9998C3.6652 94.0794 4.41145 93.3332 5.33186 93.3332H58.6652C59.5856 93.3332 60.3319 94.0794 60.3319 94.9998C60.3319 95.9202 59.5856 96.6665 58.6652 96.6665ZM56.9985 81.6665V89.9998H6.99853V81.6665C6.99853 78.9053 9.2373 76.6665 11.9985 76.6665H51.9985C54.7606 76.6665 56.9985 78.9053 56.9985 81.6665ZM23.3869 73.3332L12.4502 13.9582C18.8418 15.6054 25.4002 16.5144 31.9985 16.6666C38.5968 16.5144 45.1561 15.6054 51.5469 13.9582L40.6102 73.3332H23.3869ZM4.16569 4.25201C9.52701 6.16688 21.6274 9.99989 31.9985 9.99989C42.3704 9.99989 54.47 6.16688 59.8322 4.25201L47.2736 73.3332H43.9989L55.3034 11.9685C55.4084 11.3988 55.2098 10.8161 54.7801 10.4288C54.3496 10.0414 53.749 9.90467 53.194 10.0682C46.2873 12.0132 39.1698 13.1094 31.9985 13.3332C24.8273 13.1094 17.7098 12.0132 10.8039 10.0682C10.248 9.90467 9.64827 10.0414 9.21777 10.4288C8.78727 10.8161 8.58951 11.3988 8.69368 11.9685L19.999 73.3332H16.7235L4.16569 4.25201Z" fill="#146EB4"/>
<path d="M23.5147 31.5147C21.2482 33.7812 20 36.7947 20 40C20 43.2053 21.2482 46.2188 23.5147 48.4853C25.7812 50.7518 28.7947 52 32 52C35.2053 52 38.2188 50.7518 40.4853 48.4853C42.7518 46.2188 44 43.2053 44 40C44 36.7947 42.7518 33.7812 40.4853 31.5147C38.2188 29.2483 35.2053 28 32 28C28.7947 28 25.7812 29.2482 23.5147 31.5147ZM43.2809 40.3565C43.1921 43.2378 42.0288 45.9337 39.9812 47.9813C39.9745 47.988 39.9675 47.9945 39.9607 48.0012C38.9607 47.0074 38.1654 45.853 37.595 44.5645C37.0052 43.2323 36.685 41.8183 36.6402 40.3565H43.2809V40.3565ZM31.6436 40.3564V47.081H32.3564V40.3564H35.9268C35.9718 41.9184 36.3129 43.4294 36.9431 44.8531C37.5461 46.215 38.3854 47.4359 39.4396 48.4881C37.4691 50.22 34.9904 51.1998 32.3564 51.281V48.0317H31.6435V51.281C29.0095 51.1998 26.5309 50.2201 24.5604 48.4881C25.6146 47.4358 26.4539 46.215 27.0568 44.853C27.6871 43.4293 28.0281 41.9183 28.0731 40.3564H31.6436ZM27.3598 40.3564C27.315 41.8182 26.9948 43.2322 26.405 44.5644C25.8346 45.853 25.0393 47.0074 24.0393 48.0012C24.0325 47.9944 24.0256 47.9879 24.0188 47.9812C21.9712 45.9336 20.8078 43.2377 20.7191 40.3564H27.3598V40.3564ZM20.719 39.6436C20.8078 36.7623 21.9711 34.0664 24.0188 32.0188C24.0255 32.012 24.0325 32.0055 24.0393 31.9988C25.0393 32.9926 25.8346 34.147 26.405 35.4355C26.9948 36.7677 27.315 38.1818 27.3598 39.6435H20.719V39.6436ZM31.6436 39.6436H28.0732C28.0282 38.0817 27.6871 36.5706 27.0569 35.1469C26.4539 33.785 25.6146 32.5641 24.5605 31.512C26.531 29.78 29.0096 28.8002 31.6437 28.719V39.6436H31.6436ZM39.9812 32.0188C42.0288 34.0664 43.1922 36.7623 43.281 39.6436H36.6401C36.6849 38.1818 37.0052 36.7678 37.595 35.4356C38.1654 34.1471 38.9607 32.9926 39.9606 31.9988C39.9675 32.0055 39.9745 32.012 39.9812 32.0188ZM36.9432 35.147C36.3129 36.5707 35.9719 38.0817 35.9268 39.6436H32.3565V28.719C34.9905 28.8003 37.4691 29.78 39.4396 31.512C38.3853 32.5641 37.5461 33.785 36.9432 35.147Z" fill="#146EB4" stroke="#146EB4" stroke-width="0.5"/>
<path d="M11.9543 85.4104C11.9285 85.383 11.8944 85.3653 11.8576 85.3604L10.6745 85.1845L10.1484 84.0853C10.0995 84.0021 9.99387 83.9751 9.91248 84.0251C9.88835 84.04 9.86816 84.0606 9.85366 84.0853L9.32555 85.1803L8.14242 85.3562C8.05277 85.3682 7.98962 85.4524 8.00142 85.5441C8.00625 85.5818 8.0235 85.6167 8.05031 85.643L8.90593 86.4952L8.70124 87.699C8.68657 87.7915 8.74796 87.8786 8.83835 87.8936C8.87333 87.8994 8.9092 87.8936 8.94073 87.877L10.001 87.3117L11.0593 87.8812C11.1407 87.924 11.2407 87.8912 11.2826 87.8079C11.2988 87.7757 11.3045 87.739 11.2988 87.7032L11.0941 86.4993L11.9497 85.6472C12.0149 85.5831 12.017 85.4771 11.9543 85.4104ZM10.8034 86.3172C10.765 86.356 10.7475 86.4114 10.7564 86.4658L10.916 87.4206L10.0768 86.9704C10.0287 86.9447 9.97135 86.9447 9.92325 86.9704L9.08401 87.4206L9.24367 86.4658C9.25255 86.4114 9.235 86.356 9.19659 86.3172L8.51906 85.6409L9.45655 85.5027C9.51044 85.4949 9.55711 85.4604 9.58141 85.4106L9.9908 84.5417L10.4002 85.4106C10.4245 85.4604 10.4712 85.4949 10.525 85.5027L11.4625 85.6409L10.8034 86.3172Z" fill="#146EB4"/>
<path d="M17.9543 85.4104C17.9285 85.383 17.8944 85.3653 17.8576 85.3604L16.6745 85.1845L16.1484 84.0853C16.0995 84.0021 15.9939 83.9751 15.9125 84.0251C15.8884 84.04 15.8682 84.0606 15.8537 84.0853L15.3255 85.1803L14.1424 85.3562C14.0528 85.3682 13.9896 85.4524 14.0014 85.5441C14.0063 85.5818 14.0235 85.6167 14.0503 85.643L14.9059 86.4952L14.7012 87.699C14.6866 87.7915 14.748 87.8786 14.8384 87.8936C14.8733 87.8994 14.9092 87.8936 14.9407 87.877L16.001 87.3117L17.0593 87.8812C17.1407 87.924 17.2407 87.8912 17.2826 87.8079C17.2988 87.7757 17.3045 87.739 17.2988 87.7032L17.0941 86.4993L17.9497 85.6472C18.0149 85.5831 18.017 85.4771 17.9543 85.4104ZM16.8034 86.3172C16.765 86.356 16.7475 86.4114 16.7564 86.4658L16.916 87.4206L16.0768 86.9704C16.0287 86.9447 15.9714 86.9447 15.9233 86.9704L15.084 87.4206L15.2437 86.4658C15.2525 86.4114 15.235 86.356 15.1966 86.3172L14.5191 85.6409L15.4566 85.5027C15.5104 85.4949 15.5571 85.4604 15.5814 85.4106L15.9908 84.5417L16.4002 85.4106C16.4245 85.4604 16.4712 85.4949 16.525 85.5027L17.4625 85.6409L16.8034 86.3172Z" fill="#146EB4"/>
<path d="M23.9543 85.4104C23.9285 85.383 23.8944 85.3653 23.8576 85.3604L22.6745 85.1845L22.1484 84.0853C22.0995 84.0021 21.9939 83.9751 21.9125 84.0251C21.8884 84.04 21.8682 84.0606 21.8537 84.0853L21.3255 85.1803L20.1424 85.3562C20.0528 85.3682 19.9896 85.4524 20.0014 85.5441C20.0063 85.5818 20.0235 85.6167 20.0503 85.643L20.9059 86.4952L20.7012 87.699C20.6866 87.7915 20.748 87.8786 20.8384 87.8936C20.8733 87.8994 20.9092 87.8936 20.9407 87.877L22.001 87.3117L23.0593 87.8812C23.1407 87.924 23.2407 87.8912 23.2826 87.8079C23.2988 87.7757 23.3045 87.739 23.2988 87.7032L23.0941 86.4993L23.9497 85.6472C24.0149 85.5831 24.017 85.4771 23.9543 85.4104ZM22.8034 86.3172C22.765 86.356 22.7475 86.4114 22.7564 86.4658L22.916 87.4206L22.0768 86.9704C22.0287 86.9447 21.9714 86.9447 21.9233 86.9704L21.084 87.4206L21.2437 86.4658C21.2525 86.4114 21.235 86.356 21.1966 86.3172L20.5191 85.6409L21.4566 85.5027C21.5104 85.4949 21.5571 85.4604 21.5814 85.4106L21.9908 84.5417L22.4002 85.4106C22.4245 85.4604 22.4712 85.4949 22.525 85.5027L23.4625 85.6409L22.8034 86.3172Z" fill="#146EB4"/>
<path d="M47.9086 20.8208C47.8571 20.7659 47.7889 20.7307 47.7152 20.7207L45.3489 20.369L44.2968 18.1706C44.199 18.0041 43.9877 17.9503 43.825 18.0503C43.7767 18.08 43.7363 18.1213 43.7073 18.1706L42.6511 20.3606L40.2848 20.7124C40.1055 20.7365 39.9792 20.9047 40.0028 21.0882C40.0125 21.1636 40.047 21.2333 40.1006 21.286L41.8119 22.9903L41.4025 25.3981C41.3731 25.583 41.4959 25.7572 41.6767 25.7872C41.7467 25.7988 41.8184 25.7872 41.8815 25.754L44.0021 24.6234L46.1186 25.7624C46.2815 25.8481 46.4814 25.7825 46.5651 25.6159C46.5975 25.5514 46.6089 25.478 46.5976 25.4064L46.1882 22.9987L47.8994 21.2944C48.0299 21.1662 48.034 20.9542 47.9086 20.8208ZM45.6069 22.6344C45.53 22.7119 45.4949 22.8228 45.5127 22.9317L45.832 24.8411L44.1535 23.9409C44.0573 23.8894 43.9427 23.8894 43.8465 23.9409L42.168 24.8411L42.4873 22.9317C42.5051 22.8228 42.47 22.7119 42.3932 22.6344L41.0381 21.2819L42.9131 21.0055C43.0209 20.9897 43.1142 20.9208 43.1628 20.8212L43.9816 19.0835L44.8004 20.8212C44.849 20.9208 44.9423 20.9897 45.0501 21.0055L46.9251 21.2819L45.6069 22.6344Z" fill="#146EB4"/>
</svg>
