<svg width="22" height="22" viewBox="0 0 22 22" fill="none" xmlns="http://www.w3.org/2000/svg">
<path d="M17.2026 13.8488C15.9824 13.8488 14.8943 14.397 14.1982 15.2442L8.37004 12.1753C8.50661 11.8056 8.5815 11.407 8.5815 10.9958C8.5815 10.5806 8.50661 10.186 8.36564 9.81229L14.1894 6.74751C14.8811 7.59884 15.9736 8.15116 17.1982 8.15116C19.2863 8.15116 20.9912 6.54817 20.9912 4.57558C20.9912 2.60299 19.2907 1 17.1982 1C15.1057 1 13.4053 2.60299 13.4053 4.57558C13.4053 4.99086 13.4802 5.38953 13.6211 5.75914L7.80176 8.82392C7.11013 7.96844 6.01762 7.42027 4.79295 7.42027C2.70485 7.42027 1 9.02326 1 10.9958C1 12.9684 2.70485 14.5714 4.79736 14.5714C6.02203 14.5714 7.11454 14.0191 7.81057 13.1636L13.6344 16.2326C13.4934 16.6063 13.4141 17.0091 13.4141 17.4244C13.4141 19.3929 15.1145 21 17.207 21C19.2996 21 21 19.397 21 17.4244C21 15.4518 19.2952 13.8488 17.2026 13.8488ZM17.2026 2.12542C18.6388 2.12542 19.8062 3.22591 19.8062 4.57973C19.8062 5.93355 18.6388 7.03405 17.2026 7.03405C15.7665 7.03405 14.5991 5.93355 14.5991 4.57973C14.5991 3.22591 15.7709 2.12542 17.2026 2.12542ZM4.79736 13.4502C3.36123 13.4502 2.19383 12.3497 2.19383 10.9958C2.19383 9.64203 3.36123 8.54153 4.79736 8.54153C6.23348 8.54153 7.40088 9.64203 7.40088 10.9958C7.40088 12.3497 6.22907 13.4502 4.79736 13.4502ZM17.2026 19.8746C15.7665 19.8746 14.5991 18.7741 14.5991 17.4203C14.5991 16.0664 15.7665 14.9659 17.2026 14.9659C18.6388 14.9659 19.8062 16.0664 19.8062 17.4203C19.8062 18.7741 18.6388 19.8746 17.2026 19.8746Z" fill="#146EB4" stroke="#146EB4"/>
</svg>
