<svg width="54" height="38" viewBox="0 0 54 38" fill="none" xmlns="http://www.w3.org/2000/svg">
<path d="M17.6508 6.55447C18.7223 7.96682 19.4322 9.57841 19.719 11.2926C19.7408 11.4187 19.756 11.5439 19.7728 11.67C17.3488 11.9407 14.9375 12.3325 12.548 12.8478C13.7221 10.3611 15.4825 8.20305 17.6508 6.55447ZM26.8882 3.13121V11.2236C25.3112 11.2455 23.7351 11.3178 22.1614 11.4414C22.1396 11.2598 22.1152 11.0782 22.0849 10.8958C21.7409 8.84954 20.915 6.92521 19.6651 5.23628C21.8275 4.03158 24.2792 3.28505 26.8882 3.13121ZM29.2878 3.15979C31.9363 3.37501 34.4141 4.19804 36.5807 5.49353C35.3696 7.15724 34.5865 9.06643 34.2905 11.1093C34.272 11.2371 34.2594 11.3649 34.2451 11.4926C32.5957 11.348 30.943 11.2623 29.2878 11.2304V3.15979ZM36.6648 11.4523C36.9054 9.78606 37.5496 8.22659 38.548 6.86721C40.5379 8.47543 42.1562 10.5217 43.258 12.8596C41.0653 12.3838 38.8541 12.0105 36.6303 11.7406C36.6421 11.6448 36.6505 11.549 36.6648 11.4523ZM10.9685 19.0344C11.0408 17.8306 11.2401 16.6612 11.5522 15.5372C14.2756 14.8848 17.0334 14.3972 19.809 14.0769C19.6752 15.3976 19.2917 16.6881 18.6996 17.9054C19.5995 17.8137 20.4995 17.7347 21.3994 17.67C21.8595 16.435 22.1446 15.1496 22.2304 13.8415C23.7805 13.7163 25.3339 13.6431 26.8882 13.6213V17.4363C27.6881 17.427 28.4879 17.427 29.2878 17.438V13.628C30.9279 13.6608 32.5671 13.7465 34.2013 13.8945C34.3014 15.1866 34.5941 16.4636 35.0584 17.6961C35.96 17.7658 36.8616 17.8516 37.7616 17.9483C37.1711 16.7326 36.7834 15.4531 36.632 14.1534C39.1931 14.4746 41.7365 14.9453 44.2521 15.5498C44.5566 16.6544 44.7551 17.8028 44.8308 18.9831C45.6382 19.1336 46.4448 19.2942 47.2497 19.4674C46.936 9.06643 38.3798 0.699951 27.9 0.699951C17.4018 0.699951 8.83384 9.0967 8.54956 19.5237C9.35446 19.348 10.161 19.1874 10.9685 19.0344Z" fill="#E94E0F"/>
<path d="M26.6846 20.3088C25.0756 20.3332 23.4675 20.3988 21.8619 20.5072C21.4935 20.8965 21.1243 21.2891 20.7559 21.6833V26.434C18.9871 26.5736 17.4925 26.7207 15.7322 26.962C16.077 26.5694 16.4227 26.1785 16.7675 25.7892C17.6843 25.6741 18.3311 25.6161 19.2487 25.5286C19.4119 25.5135 19.575 25.4984 19.7374 25.4832V21.3067C20.3017 20.6989 20.8661 20.0961 21.4321 19.4984C23.3237 19.3631 25.2178 19.2857 27.1127 19.2664C26.9706 19.6136 26.8267 19.9616 26.6846 20.3088ZM23.1336 29.5959V22.4341C23.8964 22.3937 24.6593 22.3626 25.423 22.3408V29.5017C24.6593 29.5236 23.8964 29.5547 23.1336 29.5959ZM26.9327 30.962C25.2556 30.983 23.5785 31.0486 21.9031 31.1604C22.1571 30.8006 22.4094 30.4424 22.6634 30.086C23.74 30.0229 24.8149 29.9792 25.8923 29.954V21.8649C26.2388 21.511 26.5862 21.1596 26.9327 20.809V30.962ZM21.4346 32.7333C20.8686 32.207 20.3026 31.6866 19.7374 31.1705V28.0414C20.0772 27.6749 20.4161 27.31 20.7559 26.9485V30.661C21.1251 30.9939 21.4944 31.3293 21.8636 31.6665C21.7206 32.0221 21.5776 32.3768 21.4346 32.7333ZM14.8751 32.3962C14.5379 32.7921 14.1998 33.1898 13.8625 33.5891V20.3542C14.8306 20.2012 15.7995 20.0642 16.7701 19.9415C16.4244 20.3282 16.0779 20.7166 15.7322 21.1075C15.4462 21.1462 15.1603 21.1865 14.8751 21.2285V32.3962ZM27.3331 18.7998C25.2951 18.8166 23.2589 18.8998 21.2252 19.0503C20.5658 19.754 19.9073 20.4652 19.2487 21.1831V25.0646C18.4884 25.1369 17.9989 25.1755 17.2394 25.2672V19.4202C15.9492 19.5766 14.6615 19.759 13.3772 19.9692V34.1313C14.6615 33.9212 15.9492 33.7379 17.2394 33.5824V28.7728C17.9989 28.6812 18.4884 28.6425 19.2487 28.5702V31.4143C19.9073 32.0069 20.5658 32.6063 21.2252 33.2133C23.2589 33.062 25.2951 32.9788 27.3331 32.9628C27.9916 32.3029 28.6535 31.6488 29.3146 31.0032V20.7712C28.6535 20.1071 27.9916 19.4505 27.3331 18.7998Z" fill="#202A25"/>
<path d="M8.68909 22.3098C7.79923 22.5032 6.91275 22.7091 6.02794 22.9277V22.9286C5.53339 23.0505 5.03969 23.1774 4.54682 23.3077C4.18684 23.7684 3.82686 24.2316 3.46773 24.6965C3.11868 27.9802 2.77132 31.2665 2.42312 34.5544C2.10183 34.6477 1.7797 34.7435 1.4601 34.8402V35.3429C1.1304 35.7885 0.801539 36.2357 0.474363 36.6855C0.472681 35.8297 0.470999 34.9756 0.470158 34.1189C0.812473 34.0113 1.15479 33.9062 1.4971 33.802V33.7961C1.8226 30.7007 2.14641 27.6086 2.4719 24.5166C3.0228 23.8003 3.57454 23.0891 4.12713 22.3821C6.2584 21.8062 8.40312 21.3086 10.5605 20.8882C10.2181 21.2976 9.87752 21.7096 9.53604 22.1232C9.2526 22.182 8.97084 22.2409 8.68909 22.3022V22.3098ZM5.03716 32.3451C5.28023 29.8911 5.52498 27.438 5.76805 24.9865C6.11962 24.9025 6.47119 24.8192 6.82191 24.7394C6.9506 24.7083 7.07844 24.6789 7.20628 24.6486V31.8095C6.48212 31.9794 5.7588 32.1567 5.03716 32.3451ZM8.68909 30.4813V32.9672C7.15077 33.3001 5.6175 33.6733 4.09264 34.0861C4.3416 33.6759 4.59056 33.2673 4.83951 32.8595C5.77983 32.6132 6.72267 32.3829 7.66719 32.1677V24.0685C8.00782 23.6482 8.34845 23.2304 8.68909 22.8142V30.4813ZM9.81528 32.736C10.0659 32.34 10.3174 31.944 10.5689 31.5489C11.0062 31.464 11.2787 31.4077 11.7169 31.3287L10.8532 32.5308C10.5066 32.5973 10.161 32.6662 9.81528 32.736ZM11.0365 30.989V29.7524C11.0357 29.7532 11.0348 29.7532 11.034 29.7532V20.3325C8.64955 20.7848 6.27774 21.3321 3.92527 21.9735C3.28269 22.8033 2.6418 23.6415 2.00174 24.4855C1.67541 27.4825 1.34992 30.4813 1.02274 33.4825C0.682107 33.5876 0.341474 33.6943 0 33.8045V37.3C0.87303 37.0201 1.74858 36.7528 2.6275 36.5006C2.68806 36.4829 2.74693 36.4652 2.80749 36.4484C2.9143 36.4173 3.02112 36.3871 3.12794 36.3576C3.64435 36.2114 4.16245 36.0701 4.68139 35.9331C6.24494 35.5212 7.8169 35.1504 9.39474 34.8209C9.77154 34.7435 10.1492 34.667 10.5268 34.593C11.0298 34.4947 11.3687 34.4266 11.8725 34.3366C11.9785 34.3181 12.0828 34.2996 12.1871 34.2811V30.7755C11.7481 30.852 11.4747 30.9058 11.0365 30.989Z" fill="#202A25"/>
<path d="M38.9719 25.7866C37.394 25.5857 35.3847 25.3781 33.8027 25.2587C34.06 24.9342 34.3182 24.6097 34.5756 24.2877C36.0466 24.4104 37.9441 24.6173 39.4101 24.8106C39.2637 25.1368 39.1165 25.4613 38.9719 25.7866ZM39.1317 31.6151C37.4731 31.399 35.3847 31.1813 33.7202 31.0552C33.9776 30.7341 34.2333 30.4138 34.4898 30.0943C35.558 30.1834 37.0525 30.3389 38.1182 30.4659C38.1342 29.3848 38.151 28.3037 38.1661 27.2234C38.5135 26.9199 38.8617 26.6189 39.209 26.3196C39.183 28.0859 39.1569 29.8505 39.1317 31.6151ZM31.5469 32.6197C31.6108 28.2322 31.5679 23.6748 31.6327 19.2882C34.5554 19.4412 37.8995 19.7791 40.8012 20.2096C40.4513 20.5021 40.1006 20.7963 39.749 21.0939C37.5261 20.7888 34.8674 20.5189 32.6327 20.3785C32.5772 24.0775 32.631 27.9464 32.5772 31.6462C32.2332 31.969 31.8901 32.2935 31.5469 32.6197ZM35.002 27.3537C35.7573 27.4209 36.9398 27.5445 37.6934 27.6303C37.6825 28.4029 37.6716 29.1771 37.659 29.9514C36.9054 29.8648 35.7068 29.7051 34.9516 29.6378L35.002 27.3537ZM39.6346 24.3777C38.2527 24.1919 36.4402 23.9901 35.0542 23.8657L35.0634 22.5601C37.0105 22.7341 39.2831 23.0082 41.22 23.3049C41.2377 22.1423 41.2545 20.9796 41.2713 19.8186C38.0526 19.3243 34.388 18.9536 31.1432 18.8022C31.0742 23.4975 31.1138 28.3617 31.0439 33.056C31.7017 33.0871 34.3241 33.1594 39.3873 33.7555C40.0484 33.1922 40.8197 32.5415 41.4799 31.9917C41.506 30.2002 41.5329 28.4096 41.559 26.6172C40.9173 25.864 40.2764 25.1175 39.6346 24.3777Z" fill="#202A25"/>
<path d="M51.7275 23.4968C51.4508 23.4177 51.1733 23.3404 50.8957 23.2647C50.8957 23.2681 50.8957 23.2698 50.8957 23.2732C50.0193 23.0344 49.5231 22.9041 48.6408 22.6914V22.6922C48.1496 22.5729 47.6568 22.4577 47.1639 22.3467C46.793 22.6283 46.4246 22.9142 46.0545 23.2009C45.3951 26.4173 44.7366 29.6397 44.0772 32.867C43.6785 33.1092 43.2782 33.3538 42.8787 33.601C43.6062 29.9045 44.3329 26.2147 45.0604 22.5334C45.6306 22.0903 46.1975 21.6532 46.7652 21.2194C47.3986 21.3589 48.0327 21.5052 48.6635 21.6582C48.9276 21.7213 49.1909 21.7868 49.4541 21.8524C50.6855 22.1626 51.5324 22.4005 52.7528 22.762C52.4113 23.005 52.069 23.2496 51.7275 23.4968ZM51.3415 34.4004L50.3103 35.1638L49.852 24.5283L50.8848 23.775L51.3415 34.4004ZM46.5726 20.7141C45.9124 21.2252 45.2505 21.7448 44.5885 22.2711C43.8207 26.1878 43.0519 30.1113 42.2815 34.0423C43.6499 34.2777 44.7055 34.4921 46.0638 34.7897C46.7198 31.3748 47.3742 27.9658 48.0268 24.5628L49.3868 24.8822L49.8435 35.5085L54.0001 36.5644L53.2272 22.4384C53.2272 22.4384 48.9343 21.2269 46.5726 20.7141Z" fill="#202A25"/>
</svg>
