<svg width="70" height="70" viewBox="0 0 70 70" fill="none" xmlns="http://www.w3.org/2000/svg">
<path d="M0 3C0 1.34315 1.34315 0 3 0H67C68.6569 0 70 1.34315 70 3V67C70 68.6569 68.6569 70 67 70H3C1.34315 70 0 68.6569 0 67V3Z" fill="white"/>
<circle cx="35" cy="35" r="25" fill="#1879BF"/>
<path d="M50 35L27.5 47.9904V22.0096L50 35Z" fill="white"/>
<path d="M3 1H67V-1H3V1ZM69 3V67H71V3H69ZM67 69H3V71H67V69ZM1 67V3H-1V67H1ZM3 69C1.89543 69 1 68.1046 1 67H-1C-1 69.2091 0.790864 71 3 71V69ZM69 67C69 68.1046 68.1046 69 67 69V71C69.2091 71 71 69.2091 71 67H69ZM67 1C68.1046 1 69 1.89543 69 3H71C71 0.79086 69.2091 -1 67 -1V1ZM3 -1C0.79086 -1 -1 0.790864 -1 3H1C1 1.89543 1.89543 1 3 1V-1Z" fill="#146EB4"/>
</svg>
