<svg width="60" height="38" viewBox="0 0 60 38" fill="none" xmlns="http://www.w3.org/2000/svg">
<path d="M28.3214 37.2734C38.2622 37.2734 46.3202 29.0937 46.3202 19.0029C46.3202 8.91356 38.2622 0.73291 28.3214 0.73291C18.3831 0.73291 10.325 8.91338 10.325 19.0029C10.325 29.0935 18.3831 37.2734 28.3214 37.2734Z" fill="#FDB827"/>
<path d="M36.5257 20.8722C34.8448 22.9117 33.8914 23.6102 32.1837 23.6102C31.6024 23.6102 31.2995 23.4792 31.4631 23.198L33.4885 19.1245H34.2607C35.1231 19.1245 35.004 19.8512 34.7693 20.8348C34.728 20.9723 34.832 20.9799 34.9343 20.8606L36.86 17.4766C36.954 17.2631 36.7107 17.2216 36.5921 17.3827C35.6277 18.6921 34.6121 18.5949 34.1845 18.5949H33.8351L35.9993 14.4664H36.8714C37.9694 14.5343 38.481 15.4669 38.1632 17.7154H38.6202L40.2103 14.5805C40.3389 14.3158 40.068 14.073 39.7682 14.073L28.9742 14.0762C28.3495 14.0762 28.3212 14.556 28.9211 14.556C29.4062 14.556 29.3806 15.2524 28.9444 15.5892L24.3623 19.2277L25.2881 23.5234C25.3555 23.8475 25.5646 24.002 25.9225 24.002H34.8477C35.2156 24.002 35.3677 23.8525 35.4865 23.6993L37.1022 20.9079C37.3258 20.5061 36.8072 20.532 36.5257 20.8722ZM30.3087 18.9108L29.5227 18.9064C29.5097 18.9063 29.4968 18.9088 29.4848 18.9137C29.4728 18.9186 29.4619 18.9259 29.4527 18.935C29.4435 18.9442 29.4362 18.955 29.4312 18.967C29.4262 18.979 29.4237 18.9919 29.4237 19.0048C29.4237 19.0595 29.4685 19.1042 29.5227 19.1042L30.3191 19.0966C30.5891 19.0966 30.836 19.131 30.7673 19.2507L28.7033 23.1918C28.4474 23.6614 27.9046 23.5412 27.8185 23.1658L26.7964 17.8841L30.3907 15.0969C30.7472 14.7904 31.4351 14.2904 31.7859 14.2959L32.5691 14.2915C33.0455 14.2883 33.216 14.5115 33.1025 14.8004L32.9644 15.0669C32.8745 15.2164 32.5932 15.2344 32.3532 15.2344L31.9015 15.2366C31.8883 15.2365 31.8752 15.239 31.8629 15.2439C31.8507 15.2489 31.8395 15.2562 31.8302 15.2656C31.8208 15.2749 31.8134 15.286 31.8084 15.2982C31.8033 15.3104 31.8008 15.3235 31.8009 15.3367C31.8009 15.3925 31.8455 15.4361 31.9015 15.4361H32.3471C32.54 15.4361 32.7814 15.441 32.6928 15.5855L31.0258 18.7641C30.9485 18.8884 30.6023 18.9108 30.3087 18.9108Z" fill="#552582"/>
<path d="M22.899 23.5225C22.7985 23.52 22.7011 23.4865 22.6203 23.4267C22.5394 23.3669 22.4789 23.2837 22.4471 23.1882C22.3703 22.959 22.3774 22.5512 22.4695 22.3712L26.6342 14.9864C26.7018 14.8498 26.8706 14.5652 27.0775 14.5652C27.4454 14.5659 27.6042 14.0818 26.9811 14.0818H23.6457C23.0224 14.0818 23.0162 14.5565 23.6134 14.5565C23.8569 14.5565 23.9539 14.7955 23.8846 14.9411L22.9638 16.6112C22.8485 16.7944 22.5932 16.8085 22.3244 16.8085L21.5299 16.8055C21.5032 16.8055 21.4776 16.8161 21.4587 16.835C21.4398 16.8539 21.4292 16.8795 21.4292 16.9062C21.4292 16.933 21.4398 16.9586 21.4587 16.9775C21.4776 16.9964 21.5032 17.007 21.5299 17.007H22.3175C22.5305 17.007 22.7005 17.0712 22.5777 17.3185L19.5039 22.9175C19.2826 23.2257 18.8416 23.2945 18.8666 22.704L19.9597 14.5034C20.0028 14.2474 19.9355 14.0737 19.6615 14.0737L18.0138 14.0767C17.8165 14.0767 17.6952 14.1724 17.6005 14.3L17.0116 15.0406C16.9339 15.1174 16.7688 15.1168 16.5856 15.1168L15.2012 15.1145C15.1881 15.1145 15.1752 15.1171 15.1631 15.1221C15.1511 15.127 15.1401 15.1344 15.1309 15.1436C15.1216 15.1528 15.1143 15.1638 15.1093 15.1758C15.1044 15.1879 15.1018 15.2008 15.1018 15.2139C15.1018 15.27 15.1459 15.3148 15.2012 15.3148H16.3311C16.5316 15.3148 16.7658 15.3611 16.6809 15.4555L15.0953 17.4503C15.0476 17.505 14.8941 17.52 14.7994 17.52L14.3516 17.5193C14.2957 17.5193 14.2511 17.564 14.2511 17.6187C14.2511 17.6734 14.2957 17.718 14.3516 17.718L14.7251 17.7194C14.841 17.7194 14.8419 17.7759 14.7956 17.8285L13.3045 19.7012C13.2277 19.7734 13.0791 19.7884 12.9342 19.7884L11.6178 19.787C11.6047 19.787 11.5917 19.7895 11.5796 19.7945C11.5675 19.7996 11.5565 19.8069 11.5473 19.8162C11.538 19.8254 11.5307 19.8364 11.5257 19.8485C11.5206 19.8606 11.5181 19.8736 11.5181 19.8867C11.5181 19.8998 11.5206 19.9127 11.5257 19.9248C11.5307 19.9369 11.538 19.9479 11.5473 19.9572C11.5565 19.9664 11.5675 19.9738 11.5796 19.9788C11.5917 19.9838 11.6047 19.9864 11.6178 19.9864H12.7472C12.9189 19.9864 13.0512 20.0171 12.9609 20.1325L10.8424 22.7903C10.4442 23.2975 8.52653 23.5555 8.15294 23.5555L15.3176 10.1497C15.3858 9.99566 15.6526 9.76042 15.9268 9.76042H17.4482C18.1664 9.76042 18.1452 9.28271 17.5219 9.28271H9.87353C9.25094 9.28271 9.22588 9.76042 9.94235 9.76042H11.3591C11.7609 9.76042 11.8902 10.0032 11.7874 10.2021L11.5839 10.571C11.5174 10.6906 11.4217 10.7386 11.0333 10.7386L8.53059 10.7372C8.50419 10.7372 8.47888 10.7477 8.46021 10.7663C8.44155 10.785 8.43106 10.8103 8.43106 10.8367C8.43106 10.8631 8.44155 10.8884 8.46021 10.9071C8.47888 10.9258 8.50419 10.9362 8.53059 10.9362L11.0271 10.9369C11.1625 10.9369 11.3654 10.9722 11.2378 11.2158L10.8866 11.8654C10.8275 11.9642 10.6745 12.0111 10.4984 12.0111L9.36441 12.0088C9.33798 12.0088 9.31261 12.0192 9.29386 12.0378C9.2751 12.0565 9.26449 12.0818 9.26435 12.1082C9.26435 12.1647 9.30812 12.2088 9.36441 12.2088L10.4929 12.2102C10.6544 12.2102 10.6588 12.3155 10.5653 12.4652L9.75918 13.9634C9.69035 14.091 9.55941 14.1081 9.30335 14.1081L8.85177 14.106C8.83857 14.1059 8.82548 14.1085 8.81327 14.1135C8.80106 14.1185 8.78996 14.1259 8.78061 14.1352C8.77126 14.1445 8.76384 14.1556 8.75879 14.1678C8.75374 14.18 8.75115 14.193 8.75118 14.2062C8.75118 14.261 8.79618 14.3054 8.85177 14.3054L9.29735 14.3063C9.46712 14.3063 9.51194 14.4011 9.43571 14.5632L8.77412 15.7932C8.67547 15.968 8.53518 16.0377 8.09506 16.0377L5.59253 16.0354C5.5667 16.0364 5.54228 16.0475 5.52439 16.0661C5.50649 16.0848 5.4965 16.1097 5.4965 16.1355C5.4965 16.1614 5.50649 16.1862 5.52439 16.2049C5.54228 16.2235 5.5667 16.2346 5.59253 16.2357L8.08835 16.2362C8.37018 16.2406 8.47412 16.364 8.364 16.5662L7.07135 18.9935C6.99494 19.1012 6.78424 19.1174 6.42477 19.1174L3.92241 19.1146C3.89597 19.1146 3.87061 19.1251 3.85191 19.1438C3.83321 19.1625 3.82271 19.1879 3.82271 19.2143C3.82271 19.2407 3.83321 19.2661 3.85191 19.2848C3.87061 19.3035 3.89597 19.314 3.92241 19.314L6.41894 19.3147C6.71753 19.3147 6.9 19.3274 6.80894 19.4847L6.066 20.8851C5.92871 21.0987 5.54524 21.0987 5.39559 21.0987L4.60147 21.0962C4.58838 21.0963 4.57543 21.0989 4.56335 21.104C4.55128 21.1091 4.54033 21.1165 4.53112 21.1258C4.52191 21.1351 4.51463 21.1461 4.50968 21.1582C4.50473 21.1704 4.50222 21.1833 4.50229 21.1964C4.50229 21.2517 4.54694 21.2958 4.60165 21.2958L5.38853 21.2965C5.66735 21.2965 5.81382 21.3445 5.74094 21.494L4.74635 23.3628C4.65688 23.5295 4.26812 23.5373 3.96882 23.5373L0.100235 23.5338C0.073644 23.5341 0.0482561 23.5449 0.0295175 23.5638C0.0107789 23.5827 0.000182123 23.6081 0 23.6347C0 23.6885 0.0462353 23.7342 0.100235 23.7342L3.96318 23.7351C4.21941 23.7351 4.54271 23.7664 4.42218 23.9712L3.78935 25.1642C3.72935 25.2625 3.51282 25.2711 3.20047 25.2711L2.40759 25.2694C2.38119 25.2694 2.35588 25.2799 2.33721 25.2985C2.31855 25.3172 2.30806 25.3425 2.30806 25.3689C2.30806 25.3953 2.31855 25.4206 2.33721 25.4393C2.35588 25.4579 2.38119 25.4684 2.40759 25.4684H3.19518C3.38629 25.4684 3.62118 25.4907 3.53894 25.6366L3.14188 26.3983C3.01412 26.588 2.88653 26.7563 2.57965 26.7563H0.638471C-0.0797647 26.7563 -0.0545295 27.2342 0.568765 27.2342L11.9686 27.2412C12.3021 27.2412 12.3125 27.1968 12.4696 26.9504L14.1605 24.003L22.8012 24.0037C23.4254 24.005 23.2648 23.5347 22.8992 23.5225H22.899ZM16.1209 22.6447C16.0364 23.1311 15.5472 23.4521 14.9315 23.6158L14.2973 23.7734L14.8188 22.8344C14.9559 22.5789 14.655 22.4285 14.3269 22.8083C12.1211 25.3795 11.4164 26.6091 8.01353 26.6183L7.09888 26.6201C6.82235 26.6201 6.51865 26.5121 6.70641 26.2477L7.90994 24.0048L12.4834 24.0053C13.1074 24.0053 12.9471 23.5348 12.5804 23.5227C12.3385 23.5145 12.0739 23.3758 11.8869 23.0799C11.8339 22.9982 11.7203 22.6722 11.8984 22.4215L13.6496 20.0937H16.5611L16.1211 22.6447H16.1209ZM16.7797 19.7017H13.9403L17.5325 14.9635L16.7797 19.7017ZM59.9921 21.167C59.9451 20.933 59.8611 21.0752 59.7067 21.3704C59.6594 21.4592 59.5096 21.4622 59.3596 21.4622L58.9038 21.4638C58.8905 21.4637 58.8774 21.4663 58.8651 21.4714C58.8529 21.4764 58.8418 21.4839 58.8324 21.4933C58.8231 21.5026 58.8157 21.5138 58.8106 21.5261C58.8056 21.5383 58.8031 21.5515 58.8032 21.5647C58.8032 21.6182 58.8482 21.6627 58.9038 21.6627H59.3534C59.523 21.6627 59.5267 21.7767 59.4464 21.948C59.1316 22.6179 58.8079 23.0668 58.3775 23.6051C58.3101 23.6892 58.1374 23.763 58.0006 23.763L57.5409 23.7658C57.5278 23.7658 57.5148 23.7684 57.5027 23.7735C57.4906 23.7785 57.4796 23.7859 57.4704 23.7952C57.4611 23.8045 57.4538 23.8155 57.4489 23.8277C57.4439 23.8398 57.4414 23.8528 57.4415 23.8659C57.4415 23.9202 57.4857 23.9652 57.5409 23.9652H57.9905C58.2168 23.9652 57.9874 24.104 57.9491 24.155C57.1519 25.2187 56.6026 25.6938 56.0174 26.1701C55.9484 26.2253 55.6181 26.2054 55.3864 26.2038L54.9337 26.2054C54.9069 26.2054 54.8813 26.216 54.8623 26.2349C54.8434 26.2539 54.8328 26.2795 54.8328 26.3063C54.8328 26.3331 54.8434 26.3588 54.8623 26.3777C54.8813 26.3966 54.9069 26.4072 54.9337 26.4072H55.3811C55.722 26.4072 55.4652 26.6031 55.4146 26.645C54.1712 27.6805 52.3218 28.0131 51.4747 27.9076C48.7271 27.5635 48.1602 25.4772 47.9569 24.6434C47.9155 24.4689 47.7833 24.1112 47.7394 23.8908C47.6547 23.4549 48.8944 23.331 49.2371 23.5604C49.7554 23.9075 50.9668 24.2642 51.9199 24.267C52.8009 24.2705 54.6049 23.63 55.1266 22.1165C55.6609 20.568 54.3199 18.8488 53.7247 18.2561C52.9692 17.499 52.2535 16.2944 52.5558 15.4103C52.7824 14.7429 53.1619 14.4406 53.9758 14.4406C55.0272 14.4406 55.7912 15.1168 55.7912 16.0756C55.7912 16.1621 55.74 16.263 55.6705 16.263L55.2992 16.2644C55.2725 16.2647 55.247 16.2755 55.2282 16.2944C55.2094 16.3133 55.1987 16.3389 55.1986 16.3655C55.1987 16.3921 55.2094 16.4176 55.2282 16.4363C55.2471 16.4551 55.2726 16.4656 55.2992 16.4656L55.6475 16.4647C55.7464 16.4647 55.8081 16.5394 55.782 16.6597C55.7149 16.9802 55.692 17.2057 55.6223 17.5278C55.5803 17.714 55.8542 17.8431 55.9489 17.7074L57.6016 14.7568C57.7216 14.5343 57.4553 14.4747 57.2598 14.5438C56.8069 14.6995 56.0712 14.8094 55.8102 14.6211C55.1924 14.1778 54.6286 13.8939 53.7676 13.8939C52.2976 13.8939 51.2693 14.2548 50.6095 15.464C50.5579 15.5587 50.4136 15.5573 50.2902 15.5573H50.0081C49.9817 15.5573 49.9564 15.5678 49.9378 15.5864C49.9192 15.605 49.9087 15.6303 49.9087 15.6567C49.9087 15.683 49.9192 15.7083 49.9378 15.7269C49.9564 15.7455 49.9817 15.756 50.0081 15.756L50.2482 15.7537C50.3509 15.7537 50.4194 15.7828 50.3682 15.9025C50.3232 16.0114 50.2818 16.125 50.2438 16.2438C50.0771 16.7677 50.1314 17.502 50.3935 18.1562C50.4102 18.2 50.3539 18.2202 50.2528 18.2202H49.8041C49.7908 18.2203 49.7778 18.2229 49.7655 18.228C49.7533 18.2331 49.7423 18.2405 49.7329 18.2499C49.7236 18.2593 49.7162 18.2704 49.7112 18.2826C49.7062 18.2949 49.7036 18.308 49.7037 18.3212C49.7037 18.3762 49.7481 18.4205 49.8042 18.4205H50.2528C50.4565 18.4214 50.5054 18.4426 50.5895 18.561C50.8221 18.8875 51.0589 19.1296 51.3572 19.5099C51.4521 19.6281 51.0508 19.6617 50.8373 19.6604L49.0572 19.6595C49.0008 19.6595 48.9575 19.7054 48.9575 19.7601C48.9574 19.7733 48.9599 19.7863 48.9649 19.7984C48.9699 19.8106 48.9772 19.8216 48.9865 19.8309C48.9958 19.8402 49.0068 19.8475 49.0189 19.8525C49.0311 19.8575 49.0441 19.86 49.0572 19.8598L50.8597 19.8575C51.1491 19.8575 51.6466 19.8538 51.7025 19.917C52.1377 20.421 52.665 21.1959 52.7555 21.8481C52.7808 22.037 52.7105 22.1158 52.4785 22.1158H52.2367C52.2236 22.1158 52.2107 22.1183 52.1986 22.1233C52.1865 22.1283 52.1756 22.1356 52.1664 22.1449C52.1571 22.1542 52.1498 22.1652 52.1449 22.1772C52.1399 22.1893 52.1374 22.2023 52.1375 22.2154C52.1375 22.2704 52.182 22.3147 52.2369 22.3147H52.4502C52.6343 22.3147 52.7344 22.3452 52.6911 22.4831C52.4569 23.2295 52.1068 23.7701 50.6799 23.7625C49.1838 23.754 48.8795 22.2872 49.317 20.7568C49.403 20.4533 49.3131 20.3215 49.1764 20.5618L48.1345 22.1974C48.1092 22.2362 48.0094 22.3297 47.8504 22.3297L47.7034 22.3288C47.6769 22.3288 47.6516 22.3393 47.6329 22.358C47.6142 22.3767 47.6037 22.4021 47.6037 22.4285C47.6037 22.455 47.6142 22.4803 47.6329 22.499C47.6516 22.5177 47.6769 22.5282 47.7034 22.5282C47.835 22.5282 47.8867 22.599 47.835 22.6724L47.4549 23.2673C46.8242 21.8282 45.7701 20.0554 45.2082 19.4104L45.2179 19.3793C46.6061 19.2946 48.6521 17.9954 48.9884 16.8332C49.5695 14.8179 47.6119 14.0728 46.5439 14.0728L41.8539 14.0737C41.2304 14.0737 41.1847 14.5467 41.7826 14.5467C42.1059 14.5467 42.3884 14.8292 42.246 15.1152L41.2075 16.9876C41.1217 17.1411 40.7982 17.1316 40.3798 17.1316H39.9249C39.8982 17.1316 39.8727 17.1422 39.8538 17.161C39.835 17.1799 39.8244 17.2054 39.8244 17.2321C39.8244 17.2588 39.835 17.2843 39.8538 17.3032C39.8727 17.322 39.8982 17.3326 39.9249 17.3326H40.3722C40.6715 17.3326 41.001 17.3497 40.8893 17.5641L39.6611 19.7813C39.6021 19.8844 39.4422 19.8928 39.0249 19.8928L38.5721 19.8935C38.5452 19.894 38.5196 19.9049 38.5007 19.9241C38.4819 19.9432 38.4713 19.969 38.4713 19.9959C38.4713 20.0488 38.5163 20.0954 38.5719 20.0954H39.0138C39.3443 20.0954 39.4666 20.139 39.372 20.309L37.7312 23.277C37.5353 23.4893 37.3024 23.5299 36.9016 23.5299C36.3034 23.5299 36.3095 24.0041 36.9337 24.0041H40.9502C41.5744 24.0041 41.4161 23.5214 41.0465 23.5214C40.8318 23.5214 40.6025 23.124 40.7471 22.886L42.7977 19.0018H43.0061C43.9177 19.0018 44.1387 20.4983 44.3093 22.1312C44.3222 22.2491 44.0998 22.2535 43.6447 22.2535L42.5051 22.2574C42.492 22.2573 42.479 22.2598 42.4668 22.2648C42.4547 22.2698 42.4437 22.2771 42.4344 22.2863C42.4251 22.2956 42.4178 22.3066 42.4127 22.3187C42.4077 22.3308 42.4052 22.3438 42.4052 22.3569C42.4053 22.3834 42.4159 22.4087 42.4346 22.4274C42.4533 22.4462 42.4786 22.4568 42.5051 22.457H43.6318C43.9324 22.457 44.3506 22.46 44.3617 22.5547C44.4395 23.2724 44.4983 23.903 44.6368 24.4782C44.6792 24.6572 44.3592 24.629 44.0176 24.629L42.5652 24.6304C42.5388 24.6305 42.5135 24.6409 42.4948 24.6595C42.476 24.6781 42.4653 24.7033 42.465 24.7297C42.465 24.7862 42.5095 24.8307 42.5654 24.8307L44.016 24.8322C44.4718 24.8322 44.7074 24.8322 44.7332 24.9254C45.3575 27.2169 48.0371 29.0208 50.6419 28.9213C52.878 28.8365 54.7673 27.62 55.7322 26.8449C57.0201 25.8125 58.9082 23.6513 59.6785 22.0804C59.817 21.7925 60.0447 21.423 59.9921 21.167ZM44.964 18.1172C44.6504 18.3731 44.1574 18.6702 44.0615 18.576C43.9278 18.4437 43.5124 18.1569 43.2898 18.0545L45.1521 14.6518C45.2287 14.5322 45.3173 14.4671 45.5222 14.4671C46.2466 14.4671 46.4836 15.2525 46.1434 16.2312C45.9046 16.9172 45.5176 17.6607 44.964 18.1172Z" fill="#552582"/>
<path d="M22.345 11.0501C21.967 11.5373 21.4678 11.6619 20.9077 11.6619H20.7497L21.7376 9.70552C21.7847 9.61552 21.889 9.54493 22.0186 9.54493C22.1421 9.54493 22.1262 9.29805 21.9647 9.29805H20.4065C20.2743 9.29805 20.2281 9.54493 20.3516 9.54493C20.4843 9.54493 20.5081 9.69211 20.445 9.8167L19.5601 11.5601C19.4998 11.6541 19.4019 11.679 19.294 11.7081C19.1624 11.7416 19.0724 11.9767 19.221 11.9767H21.7074C21.8998 11.9767 21.9448 11.9061 21.9956 11.8373L22.4961 11.0626C22.5677 10.9698 22.4167 10.9565 22.3448 11.0502L22.345 11.0501ZM29.8351 9.36723C29.7593 9.40976 29.5814 9.43076 29.5035 9.36564C29.3055 9.20134 28.9155 9.07446 28.7114 9.07446C28.1255 9.07446 27.7011 9.19023 27.4457 9.74329C27.2287 10.2155 27.4514 10.6103 27.9681 10.8489C28.192 10.953 28.4887 11.0885 28.375 11.3571C28.2921 11.5551 28.0627 11.5751 27.8558 11.5742C27.5786 11.5706 27.1605 11.3621 27.0965 10.9705C27.0744 10.8425 26.9257 10.8725 26.883 10.9405L26.5288 11.6458C26.4732 11.7393 26.6197 11.8431 26.6774 11.7821C26.7965 11.6541 27.0563 11.6227 27.1842 11.7086C27.3614 11.8262 27.8156 12.0323 28.0838 12.0295C28.6785 12.0249 29.0708 11.8729 29.3968 11.3626C29.6934 10.8979 29.511 10.4368 28.9685 10.1806C28.6817 10.047 28.4366 9.80787 28.5644 9.54493C28.6491 9.37429 28.9027 9.41082 29.0292 9.43199C29.2722 9.47364 29.5823 9.70164 29.6181 9.90193C29.6336 9.98717 29.7418 10.0043 29.7905 9.92787L29.9767 9.49252C30.0195 9.40835 29.8823 9.34252 29.8351 9.36723ZM47.0887 10.0682L47.3061 9.66987C47.401 9.49429 47.2461 9.2947 46.9979 9.2947H44.0947C43.8861 9.2947 43.9457 9.51229 44.0311 9.51229C44.2178 9.51229 44.2729 9.74029 44.1599 9.93299L43.2873 11.5382C43.1574 11.6926 43.0738 11.7586 42.8874 11.7586C42.7376 11.7586 42.6839 11.9769 42.8936 11.9769H45.8362C45.9552 11.9769 46.0092 11.9345 46.051 11.8745L46.4509 11.3433C46.5481 11.2159 46.3379 11.2159 46.2737 11.2793C45.7665 11.787 45.2228 11.7736 44.8282 11.7736H44.4854L44.887 10.8731H44.9742C45.2318 10.8731 45.5302 10.8695 45.6096 11.0672C45.6305 11.1139 45.7565 11.1519 45.8085 11.0672L46.1518 10.3795C46.2077 10.2778 46.0535 10.26 46.0106 10.3332C45.8761 10.5753 45.2786 10.5104 45.1233 10.5104H45.0361L45.5384 9.52076H46.0974C46.4447 9.52076 46.7435 9.76605 46.8425 10.0343C46.8659 10.0982 47.0518 10.1497 47.0887 10.0682ZM39.6607 9.2947H38.6276C38.4183 9.2947 38.4808 9.51229 38.565 9.51229C38.7868 9.51229 38.9872 9.7717 38.8664 10.0115L38.4379 10.7945L37.4943 9.41311C37.4315 9.3284 37.2834 9.28693 37.1548 9.28693H36.1383C35.9294 9.28693 35.9777 9.50417 36.0628 9.50417C36.2784 9.50417 36.2232 9.66564 36.1699 9.7807L35.3592 11.3403C35.3073 11.4649 35.0876 11.4822 35.0181 11.3239L34.3925 9.28093C34.3665 9.20029 33.9997 9.2047 33.9061 9.28093L32.3355 10.5768H31.5203C31.3597 10.5768 31.2952 10.6445 31.2952 10.7298C31.2952 10.8157 31.3567 10.8942 31.5264 10.8942L31.9515 10.8928L31.5263 11.2442C31.2907 11.4189 31.0491 11.6624 30.886 11.6624H30.7888C30.6344 11.6624 30.547 11.6876 30.547 11.8112C30.547 11.9351 30.6127 11.9772 30.7581 11.9772H32.0251C32.2646 11.9772 32.2173 11.6658 32.0978 11.6658C31.9662 11.6658 31.7491 11.499 31.951 11.2643L32.338 10.8944H33.1004C33.5527 10.8944 33.8691 11.4183 33.5991 11.5814L33.391 11.6965C33.2925 11.7475 33.2498 11.9776 33.391 11.9776H35.8665C36.0518 11.9776 36.0135 11.7356 35.9278 11.7356C35.6754 11.7356 35.7949 11.37 35.8438 11.2729L36.4939 10.0401L37.4085 11.8115C37.4673 11.9227 37.5218 11.9776 37.6288 11.9776H37.9792C38.0894 11.9776 38.1275 11.9133 38.1779 11.8281L39.2181 9.94799C39.3862 9.61182 39.5149 9.51564 39.7258 9.51564C39.811 9.51458 39.871 9.2947 39.6605 9.2947H39.6607ZM32.7342 10.5764L33.7028 9.78635L33.7072 10.5764H32.7342ZM24.9917 9.17735C24.1207 9.17735 23.224 9.60634 23.044 10.5203C22.8884 11.316 23.4388 12.1403 24.412 12.1403C25.3373 12.1403 26.1921 11.5343 26.3638 10.6571C26.5357 9.7754 25.8795 9.17735 24.9917 9.17735ZM25.2391 10.8528C24.9617 11.4028 24.4999 11.7316 24.2048 11.5835C23.911 11.4355 23.8969 10.8693 24.1734 10.3182C24.4484 9.76764 24.9111 9.4394 25.2061 9.58764C25.4998 9.73552 25.5139 10.3018 25.2391 10.8529V10.8528ZM42.6049 10.5108H41.4869C41.278 10.5108 41.3394 10.7294 41.4234 10.7294C41.5118 10.7294 41.5946 10.7756 41.5946 10.9172C41.5946 11.3691 41.4033 11.5431 41.0135 11.5431C40.5882 11.5431 40.4338 11.0261 40.7214 10.3925C40.9041 9.98734 41.389 9.60846 41.9631 9.60846C42.3165 9.60846 42.6132 9.68452 42.6568 10.0149C42.6677 10.0962 42.7905 10.0962 42.8313 10.0195L43.0981 9.54334C43.1281 9.49252 43.0814 9.43217 43.0002 9.42687C42.9322 9.42229 42.7782 9.51052 42.679 9.4364C42.4544 9.26982 41.9678 9.10782 41.5994 9.10782C40.9978 9.10782 40.1585 9.2437 39.5924 10.2281C39.0809 11.1176 39.8267 12.0581 40.5192 12.0588C40.9032 12.0602 41.3498 11.7755 41.6054 11.667L41.8914 11.8622C41.9324 11.9121 42.0227 11.9763 42.1079 11.9763H42.2138C42.3135 11.9763 42.3515 11.8428 42.3901 11.7573L42.8281 10.6939C42.8846 10.5875 42.8535 10.5106 42.6049 10.5106V10.5108ZM57.9345 9.36723C57.8595 9.40976 57.6808 9.43076 57.6042 9.36564C57.406 9.20134 57.0162 9.07446 56.8118 9.07446C56.2263 9.07446 55.8006 9.19023 55.5462 9.74329C55.3273 10.2155 55.5515 10.6103 56.0685 10.8489C56.2935 10.953 56.5909 11.0885 56.4769 11.3571C56.3927 11.5551 56.1619 11.5751 55.9552 11.5742C55.6791 11.5706 55.2608 11.3621 55.1959 10.9705C55.1747 10.8425 55.0259 10.8725 54.9841 10.9405L54.6291 11.6458C54.5733 11.7393 54.7194 11.8431 54.7773 11.7821C54.8973 11.6541 55.1572 11.6227 55.2861 11.7086C55.4616 11.8262 55.9138 12.0323 56.1861 12.0295C56.7781 12.0249 57.1713 11.8729 57.4955 11.3626C57.7937 10.8979 57.6102 10.4368 57.0688 10.1806C56.7811 10.047 56.5362 9.80787 56.665 9.54493C56.7474 9.37429 57.0042 9.41082 57.1314 9.43199C57.3716 9.47364 57.6836 9.70164 57.7187 9.90193C57.7339 9.98717 57.8419 10.0043 57.8899 9.92787L58.0764 9.49252C58.1179 9.40835 57.9815 9.34252 57.9345 9.36723ZM50.1538 11.0501C49.7782 11.5373 49.2772 11.6619 48.7159 11.6619H48.5583L49.5478 9.70552C49.5951 9.61552 49.6978 9.54493 49.8276 9.54493C49.9514 9.54493 49.9364 9.29805 49.7733 9.29805H48.2158C48.0834 9.29805 48.0365 9.54493 48.1602 9.54493C48.2932 9.54493 48.3181 9.69211 48.2537 9.8167L47.3689 11.5601C47.3085 11.6541 47.2118 11.679 47.1028 11.7081C46.9711 11.7416 46.8816 11.9767 47.0306 11.9767H49.5171C49.7089 11.9767 49.7553 11.9061 49.8058 11.8373L50.3045 11.0626C50.3786 10.9698 50.2265 10.9565 50.1538 11.0502V11.0501ZM53.9043 9.5204C54.2505 9.5204 54.5511 9.76552 54.649 10.0339C54.6714 10.0982 54.8572 10.1497 54.8964 10.0682L55.1128 9.66987C55.2058 9.49429 55.0513 9.2947 54.8036 9.2947H51.9006C51.6913 9.2947 51.7524 9.51229 51.8376 9.51229C52.0251 9.51229 52.0812 9.74029 51.967 9.93299L51.0947 11.5382C50.9648 11.6926 50.8796 11.7586 50.6939 11.7586C50.5443 11.7586 50.4914 11.9769 50.7015 11.9769H53.6428C53.7619 11.9769 53.8157 11.9345 53.8575 11.8745L54.2576 11.3433C54.3557 11.2159 54.1443 11.2159 54.0802 11.2793C53.5725 11.787 53.0279 11.7736 52.6346 11.7736H52.2914L52.6944 10.8731H52.78C53.0385 10.8731 53.3369 10.8695 53.4149 11.0672C53.4361 11.1139 53.5632 11.1519 53.6152 11.0672L53.9579 10.3795C54.0144 10.2778 53.8593 10.26 53.818 10.3332C53.6812 10.5753 53.086 10.5104 52.9286 10.5104H52.8435L53.3459 9.52076H53.9045V9.5204H53.9043Z" fill="#552582"/>
<path d="M36.5257 20.8722C34.8448 22.9117 33.8912 23.6101 32.1835 23.6101C31.6023 23.6101 31.2996 23.4792 31.463 23.1978L33.4884 19.1244H34.2607C35.1231 19.1244 35.0039 19.8511 34.7692 20.8348C34.7279 20.9722 34.8319 20.9798 34.9343 20.8606L36.8599 17.4765C36.9539 17.2629 36.7106 17.2215 36.592 17.3827C35.6276 18.692 34.6121 18.5948 34.1845 18.5948H33.8351L35.9993 14.4662H36.8714C37.9694 14.5342 38.481 15.4669 38.1631 17.7153H38.6202L40.2102 14.5805C40.3388 14.3159 40.068 14.073 39.7682 14.073L28.9742 14.0761C28.3493 14.0761 28.321 14.5559 28.9209 14.5559C29.4061 14.5559 29.3805 15.2523 28.9443 15.5892L24.3623 19.2276L25.288 23.5233C25.3554 23.8475 25.5645 24.0019 25.9223 24.0019H34.8477C35.2155 24.0019 35.3677 23.8524 35.4863 23.6992L37.1022 20.9079C37.3258 20.506 36.8071 20.532 36.5257 20.8722ZM30.3085 18.9108L29.5227 18.9063C29.5097 18.9062 29.4968 18.9087 29.4848 18.9136C29.4727 18.9185 29.4618 18.9258 29.4526 18.9349C29.4434 18.9441 29.4361 18.955 29.4311 18.9669C29.4261 18.9789 29.4235 18.9918 29.4235 19.0048C29.4235 19.0595 29.4684 19.1041 29.5227 19.1041L30.3189 19.0965C30.5891 19.0965 30.8359 19.131 30.7673 19.2506L28.7032 23.1917C28.4474 23.6613 27.9045 23.5411 27.8184 23.1657L26.7962 17.8839L30.3906 15.0968C30.747 14.7902 31.4349 14.2903 31.7858 14.2958L32.569 14.2913C33.0454 14.2883 33.216 14.5115 33.1025 14.8003L32.9643 15.0667C32.8745 15.2162 32.5931 15.2343 32.3531 15.2343L31.9013 15.2365C31.8881 15.2364 31.875 15.2389 31.8628 15.2439C31.8506 15.2488 31.8394 15.2562 31.8301 15.2655C31.8208 15.2749 31.8134 15.286 31.8084 15.2982C31.8034 15.3104 31.8008 15.3235 31.8009 15.3367C31.8009 15.3924 31.8454 15.436 31.9013 15.436H32.347C32.5399 15.436 32.7814 15.4409 32.6927 15.5855L31.0257 18.7641C30.9485 18.8883 30.6022 18.9108 30.3085 18.9108Z" fill="#552582"/>
<path d="M22.8992 23.5224C22.7986 23.5199 22.7013 23.4865 22.6204 23.4267C22.5395 23.3669 22.4791 23.2836 22.4472 23.1882C22.3704 22.959 22.3776 22.5512 22.4697 22.371L26.6345 14.9864C26.7019 14.8498 26.8708 14.5651 27.0777 14.5651C27.4455 14.5657 27.6045 14.0818 26.9812 14.0818H23.6457C23.0225 14.0818 23.0163 14.5563 23.6136 14.5563C23.8571 14.5563 23.9542 14.7953 23.8847 14.941L22.9639 16.6112C22.8486 16.7943 22.5934 16.8084 22.3245 16.8084L21.5301 16.8053C21.5033 16.8053 21.4777 16.8159 21.4588 16.8348C21.4399 16.8537 21.4293 16.8794 21.4293 16.9061C21.4293 16.9328 21.4399 16.9584 21.4588 16.9773C21.4777 16.9962 21.5033 17.0069 21.5301 17.0069H22.3177C22.5307 17.0069 22.7005 17.0712 22.5779 17.3184L19.5041 22.9174C19.2827 23.2257 18.8417 23.2945 18.8667 22.704L19.9598 14.5035C20.003 14.2473 19.9356 14.0736 19.6616 14.0736L18.0139 14.0767C17.8167 14.0767 17.6954 14.1723 17.6006 14.2999L17.0118 15.0405C16.9342 15.1173 16.7689 15.1167 16.5858 15.1167L15.2013 15.1144C15.1882 15.1144 15.1753 15.117 15.1632 15.1219C15.1512 15.1269 15.1402 15.1342 15.131 15.1435C15.1217 15.1527 15.1144 15.1637 15.1095 15.1757C15.1045 15.1878 15.1019 15.2007 15.1019 15.2138C15.1019 15.2699 15.1462 15.3147 15.2013 15.3147H16.3312C16.5317 15.3147 16.766 15.361 16.681 15.4554L15.0954 17.4503C15.0477 17.505 14.8943 17.5199 14.7994 17.5199L14.3517 17.5193C14.2958 17.5193 14.2512 17.5639 14.2512 17.6186C14.2512 17.6733 14.2958 17.718 14.3517 17.718L14.7253 17.7194C14.8412 17.7194 14.842 17.7759 14.7958 17.8283L13.3045 19.7011C13.2279 19.7732 13.0793 19.7884 12.9345 19.7884L11.618 19.7869C11.5915 19.7869 11.5661 19.7974 11.5474 19.8161C11.5287 19.8348 11.5182 19.8602 11.5182 19.8867C11.5182 19.9131 11.5287 19.9385 11.5474 19.9572C11.5661 19.9759 11.5915 19.9864 11.618 19.9864H12.7475C12.9191 19.9864 13.0514 20.0169 12.9611 20.1324L10.8423 22.7902C10.4442 23.2973 8.52658 23.5554 8.15301 23.5554L15.3178 10.1497C15.386 9.99565 15.6527 9.76033 15.9269 9.76033H17.4484C18.1665 9.76033 18.1454 9.28271 17.5222 9.28271H9.8736C9.25098 9.28271 9.22579 9.76033 9.94241 9.76033H11.3591C11.7609 9.76033 11.8901 10.0032 11.7873 10.2021L11.584 10.571C11.5174 10.6906 11.4217 10.7385 11.0334 10.7385L8.53067 10.7371C8.50427 10.7371 8.47896 10.7475 8.46029 10.7662C8.44162 10.7849 8.43114 10.8102 8.43114 10.8366C8.43114 10.863 8.44162 10.8883 8.46029 10.907C8.47896 10.9256 8.50427 10.9361 8.53067 10.9361L11.0271 10.937C11.1625 10.937 11.3654 10.9722 11.2378 11.2157L10.8868 11.8653C10.8276 11.9641 10.6746 12.011 10.4983 12.011L9.36445 12.0087C9.33794 12.0087 9.31252 12.0192 9.29377 12.038C9.27503 12.0567 9.2645 12.0822 9.2645 12.1087C9.2645 12.1352 9.27503 12.1606 9.29377 12.1793C9.31252 12.1981 9.33794 12.2086 9.36445 12.2086L10.4929 12.21C10.6543 12.21 10.6588 12.3155 10.5652 12.465L9.75911 13.9632C9.6903 14.091 9.55942 14.1082 9.30341 14.1082L8.85181 14.106C8.82646 14.1076 8.80268 14.1188 8.78531 14.1373C8.76793 14.1558 8.75826 14.1803 8.75826 14.2057C8.75826 14.2311 8.76793 14.2555 8.78531 14.2741C8.80268 14.2926 8.82646 14.3038 8.85181 14.3054L9.29727 14.3063C9.46705 14.3063 9.51191 14.4011 9.43572 14.5631L8.77419 15.7932C8.67547 15.9679 8.53518 16.0375 8.09505 16.0375L5.59249 16.0352C5.56704 16.0369 5.54316 16.0481 5.52571 16.0667C5.50826 16.0853 5.49855 16.1099 5.49855 16.1354C5.49855 16.1609 5.50826 16.1855 5.52571 16.2041C5.54316 16.2227 5.56704 16.2339 5.59249 16.2356L8.08829 16.2362C8.3701 16.2405 8.47414 16.364 8.36396 16.5661L7.07141 18.9935C6.99502 19.101 6.78427 19.1174 6.42483 19.1174L3.92249 19.1145C3.89684 19.1157 3.87263 19.1267 3.8549 19.1453C3.83716 19.1638 3.82726 19.1885 3.82726 19.2142C3.82726 19.2399 3.83716 19.2645 3.8549 19.2831C3.87263 19.3017 3.89684 19.3127 3.92249 19.3138L6.41889 19.3146C6.7175 19.3146 6.89999 19.3273 6.80885 19.4846L6.06601 20.8851C5.92879 21.0985 5.54518 21.0985 5.39567 21.0985L4.60163 21.0961C4.57515 21.0961 4.54976 21.1066 4.53103 21.1253C4.51231 21.144 4.50179 21.1694 4.50179 21.1959C4.50179 21.2224 4.51231 21.2478 4.53103 21.2665C4.54976 21.2852 4.57515 21.2958 4.60163 21.2958L5.3885 21.2964C5.66725 21.2964 5.81369 21.3445 5.74098 21.4938L4.74643 23.3627C4.65693 23.5294 4.2682 23.5372 3.96877 23.5372L0.100151 23.5337C0.0735645 23.5341 0.0481845 23.5449 0.0294597 23.5637C0.0107349 23.5826 0.000158181 23.6081 0 23.6347C0 23.6885 0.0462866 23.7342 0.100151 23.7342L3.96324 23.735C4.21946 23.735 4.54265 23.7664 4.42222 23.9712L3.78936 25.164C3.72935 25.2625 3.51287 25.2711 3.20054 25.2711L2.40752 25.2694C2.38112 25.2694 2.3558 25.2799 2.33714 25.2986C2.31847 25.3173 2.30798 25.3426 2.30798 25.369C2.30798 25.3954 2.31847 25.4207 2.33714 25.4394C2.3558 25.458 2.38112 25.4685 2.40752 25.4685H3.19521C3.3863 25.4685 3.62121 25.4906 3.53888 25.6365L3.14196 26.3981C3.01416 26.5878 2.88657 26.7561 2.57956 26.7561H0.638387C-0.0796704 26.7561 -0.054479 27.2342 0.568752 27.2342L11.9686 27.2411C12.302 27.2411 12.3125 27.1967 12.4695 26.9503L14.1604 24.0029L22.8013 24.0037C23.4254 24.005 23.2648 23.5345 22.8992 23.5224ZM16.1211 22.6446C16.0365 23.131 15.5472 23.452 14.9315 23.6158L14.2973 23.7733L14.8187 22.8343C14.9559 22.5789 14.6551 22.4283 14.327 22.8083C12.121 25.3794 11.4164 26.6091 8.01353 26.6183L7.09886 26.62C6.82237 26.62 6.51864 26.512 6.70645 26.2476L7.9101 24.0045L12.4833 24.0052C13.1073 24.0052 12.9472 23.5347 12.5806 23.5226C12.3385 23.5144 12.0739 23.3758 11.8869 23.0798C11.834 22.9981 11.7204 22.6723 11.8983 22.4214L13.6496 20.0935H16.561L16.1211 22.6446ZM16.7797 19.7017H13.9403L17.5326 14.9635L16.7797 19.7017Z" fill="#552582"/>
<path d="M59.9922 21.1669C59.9453 20.9329 59.8613 21.0752 59.7069 21.3703C59.6596 21.4592 59.5096 21.4621 59.3597 21.4621L58.9038 21.4637C58.8906 21.4637 58.8775 21.4663 58.8652 21.4714C58.853 21.4764 58.8419 21.4839 58.8325 21.4933C58.8232 21.5026 58.8158 21.5138 58.8107 21.526C58.8057 21.5383 58.8032 21.5514 58.8033 21.5647C58.8033 21.6181 58.8483 21.6626 58.9038 21.6626H59.3536C59.5232 21.6626 59.5268 21.7767 59.4466 21.9479C59.1318 22.6178 58.808 23.0667 58.3777 23.605C58.3103 23.6892 58.1374 23.7629 58.0006 23.7629L57.541 23.7658C57.5279 23.7658 57.5149 23.7684 57.5028 23.7734C57.4907 23.7784 57.4797 23.7858 57.4705 23.7951C57.4613 23.8045 57.454 23.8155 57.449 23.8276C57.4441 23.8398 57.4416 23.8528 57.4417 23.8659C57.4417 23.9202 57.4857 23.9652 57.541 23.9652H57.9906C58.2169 23.9652 57.9875 24.1039 57.9492 24.1549C57.1521 25.2187 56.6026 25.6936 56.0175 26.17C55.9484 26.2253 55.6181 26.2052 55.3864 26.2038L54.9338 26.2052C54.907 26.2052 54.8814 26.2159 54.8624 26.2348C54.8435 26.2537 54.8328 26.2794 54.8328 26.3062C54.8328 26.333 54.8435 26.3587 54.8624 26.3776C54.8814 26.3965 54.907 26.4072 54.9338 26.4072H55.3811C55.7221 26.4072 55.4653 26.603 55.4147 26.645C54.1713 27.6805 52.3219 28.0131 51.4748 27.9076C48.7271 27.5633 48.1604 25.4771 47.957 24.6434C47.9157 24.4689 47.7834 24.1111 47.7395 23.8907C47.6547 23.4549 48.8944 23.331 49.2371 23.5603C49.7555 23.9075 50.9669 24.2641 51.9201 24.2669C52.801 24.2704 54.6051 23.63 55.1267 22.1164C55.6611 20.5679 54.32 18.8487 53.7248 18.256C52.9693 17.4988 52.2535 16.2944 52.5558 15.4102C52.7825 14.7429 53.162 14.4406 53.9759 14.4406C55.0274 14.4406 55.7914 15.1167 55.7914 16.0756C55.7914 16.162 55.7402 16.263 55.6705 16.263L55.2992 16.2645C55.2725 16.2645 55.2469 16.275 55.2281 16.2939C55.2092 16.3128 55.1986 16.3383 55.1986 16.365C55.1986 16.3917 55.2092 16.4173 55.2281 16.4361C55.2469 16.455 55.2725 16.4656 55.2992 16.4656L55.6476 16.4648C55.7463 16.4648 55.8081 16.5393 55.7821 16.6597C55.715 16.9801 55.692 17.2058 55.6224 17.5277C55.5804 17.7139 55.8542 17.8431 55.9491 17.7073L57.6017 14.7569C57.7217 14.5342 57.4554 14.4746 57.2598 14.5439C56.807 14.6995 56.0713 14.8093 55.8104 14.6211C55.1925 14.1779 54.6287 13.8938 53.7676 13.8938C52.2977 13.8938 51.2694 14.2547 50.6095 15.4639C50.5581 15.5587 50.4137 15.5573 50.2904 15.5573H50.0082C49.9818 15.5573 49.9566 15.5677 49.9379 15.5863C49.9193 15.605 49.9089 15.6302 49.9089 15.6566C49.9089 15.6829 49.9193 15.7082 49.9379 15.7268C49.9566 15.7455 49.9818 15.7559 50.0082 15.7559L50.2484 15.7537C50.351 15.7537 50.4196 15.7827 50.3684 15.9024C50.3234 16.0113 50.282 16.125 50.2439 16.2438C50.0772 16.7677 50.1315 17.5021 50.3936 18.1561C50.4104 18.1999 50.3541 18.2202 50.2529 18.2202H49.8042C49.791 18.2202 49.7779 18.2228 49.7657 18.2279C49.7534 18.2329 49.7423 18.2404 49.733 18.2498C49.7237 18.2592 49.7163 18.2703 49.7113 18.2825C49.7063 18.2948 49.7038 18.3079 49.7038 18.3211C49.7038 18.3762 49.7483 18.4205 49.8042 18.4205H50.2529C50.4565 18.4213 50.5055 18.4426 50.5896 18.561C50.8223 18.8874 51.0591 19.1295 51.3573 19.5098C51.4523 19.628 51.0509 19.6616 50.8375 19.6604L49.0573 19.6596C49.0441 19.6596 49.0311 19.6622 49.019 19.6672C49.0069 19.6723 48.9958 19.6797 48.9866 19.689C48.9773 19.6983 48.97 19.7094 48.9651 19.7216C48.9601 19.7337 48.9576 19.7468 48.9577 19.7599C48.9577 19.8148 49.0007 19.8599 49.0573 19.8599L50.8598 19.8574C51.1494 19.8574 51.6467 19.8537 51.7026 19.917C52.1378 20.421 52.6652 21.1958 52.7557 21.8481C52.7809 22.037 52.7106 22.1158 52.4786 22.1158H52.2369C52.2238 22.1157 52.2109 22.1183 52.1988 22.1232C52.1866 22.1282 52.1757 22.1355 52.1664 22.1448C52.1572 22.1541 52.1499 22.1651 52.1449 22.1772C52.14 22.1893 52.1375 22.2023 52.1376 22.2154C52.1376 22.2705 52.182 22.3147 52.2369 22.3147H52.4503C52.6344 22.3147 52.7344 22.3452 52.6912 22.483C52.4571 23.2294 52.1069 23.7701 50.68 23.7625C49.1838 23.7539 48.8797 22.287 49.3172 20.7567C49.403 20.4534 49.3133 20.3215 49.1765 20.5617L48.1346 22.1973C48.1094 22.2363 48.0095 22.3296 47.8503 22.3296L47.7035 22.3288C47.677 22.3288 47.6517 22.3393 47.633 22.358C47.6143 22.3767 47.6037 22.4021 47.6037 22.4286C47.6037 22.455 47.6143 22.4804 47.633 22.4991C47.6517 22.5178 47.677 22.5283 47.7035 22.5283C47.8352 22.5283 47.8868 22.599 47.8352 22.6723L47.4551 23.2673C46.8242 21.8281 45.7703 20.0552 45.2083 19.4103L45.2181 19.3792C46.6061 19.2946 48.6522 17.9953 48.9885 16.8332C49.5697 14.8177 47.6119 14.0728 46.5441 14.0728L41.854 14.0736C41.2305 14.0736 41.1849 14.5467 41.7827 14.5467C42.1061 14.5467 42.3885 14.8292 42.2462 15.1153L41.2076 16.9874C41.1218 17.141 40.7984 17.1316 40.38 17.1316H39.9251C39.8984 17.1316 39.8729 17.1422 39.854 17.161C39.8352 17.1799 39.8246 17.2054 39.8246 17.2321C39.8246 17.2587 39.8352 17.2843 39.854 17.3031C39.8729 17.3219 39.8984 17.3325 39.9251 17.3325H40.3724C40.6716 17.3325 41.0011 17.3497 40.8893 17.5642L39.6611 19.7812C39.6023 19.8842 39.4423 19.8928 39.0249 19.8928L38.5721 19.8935C38.5452 19.8939 38.5196 19.9049 38.5008 19.924C38.4819 19.9432 38.4713 19.969 38.4713 19.9959C38.4713 20.0487 38.5164 20.0954 38.5721 20.0954H39.0139C39.3444 20.0954 39.4667 20.139 39.3721 20.3088L37.7314 23.2769C37.5356 23.4893 37.3025 23.5298 36.9017 23.5298C36.3035 23.5298 36.3096 24.004 36.9339 24.004H40.9503C41.5744 24.004 41.4161 23.5214 41.0466 23.5214C40.832 23.5214 40.6026 23.1239 40.7472 22.8859L42.7977 19.0017H43.0062C43.9178 19.0017 44.1388 20.4982 44.3094 22.1312C44.3223 22.249 44.0999 22.2535 43.6448 22.2535L42.5052 22.2573C42.4921 22.2573 42.4791 22.2598 42.467 22.2648C42.4549 22.2697 42.4438 22.277 42.4345 22.2863C42.4253 22.2955 42.4179 22.3066 42.4129 22.3187C42.4078 22.3308 42.4053 22.3438 42.4053 22.3569C42.4054 22.3834 42.416 22.4087 42.4347 22.4274C42.4534 22.4462 42.4788 22.4567 42.5052 22.4568H43.6319C43.9326 22.4568 44.3508 22.4599 44.3618 22.5547C44.4397 23.2724 44.4984 23.903 44.6369 24.4783C44.6793 24.6571 44.3594 24.6288 44.0178 24.6288L42.5655 24.6303C42.5391 24.6304 42.5137 24.6408 42.495 24.6594C42.4762 24.678 42.4655 24.7032 42.4651 24.7296C42.4651 24.7861 42.5096 24.8306 42.5655 24.8306L44.0161 24.8322C44.472 24.8322 44.7076 24.8322 44.7334 24.9254C45.3576 27.2168 48.0371 29.0207 50.6421 28.9212C52.8782 28.8364 54.7673 27.6198 55.7324 26.8448C57.0202 25.8126 58.9083 23.6513 59.6786 22.0804C59.8171 21.7924 60.0448 21.423 59.9922 21.1669ZM44.9642 18.1171C44.6506 18.373 44.1574 18.6701 44.0616 18.5759C43.9278 18.4436 43.5125 18.1569 43.2899 18.0545L45.1522 14.6518C45.2288 14.5322 45.3175 14.4671 45.5223 14.4671C46.2467 14.4671 46.4836 15.2525 46.1435 16.2313C45.9047 16.9172 45.5178 17.6606 44.9642 18.1171Z" fill="#552582"/>
<path d="M22.3449 11.05C21.9671 11.5373 21.4678 11.6618 20.9076 11.6618H20.7497L21.7377 9.70546C21.7848 9.61534 21.889 9.54489 22.0185 9.54489C22.142 9.54489 22.1262 9.2981 21.9648 9.2981H20.4066C20.2743 9.2981 20.228 9.54489 20.3515 9.54489C20.4843 9.54489 20.5082 9.69215 20.4449 9.81667L19.5602 11.56C19.4998 11.654 19.4019 11.679 19.2941 11.7081C19.1624 11.7417 19.0723 11.9766 19.221 11.9766H21.7076C21.8999 11.9766 21.9448 11.9061 21.9955 11.8373L22.4961 11.0625C22.5678 10.9697 22.4168 10.9564 22.3449 11.05Z" fill="#552582"/>
<path d="M29.8351 9.36734C29.7591 9.40973 29.5814 9.43083 29.5035 9.3657C29.3055 9.20124 28.9155 9.07446 28.7113 9.07446C28.1256 9.07446 27.701 9.19018 27.4456 9.74316C27.2287 10.2154 27.4514 10.6103 27.9679 10.8489C28.1919 10.953 28.4887 11.0885 28.375 11.357C28.2921 11.5551 28.0627 11.575 27.8559 11.5741C27.5785 11.5707 27.1605 11.362 27.0964 10.9704C27.0743 10.8426 26.9256 10.8725 26.8828 10.9405L26.5287 11.6458C26.4732 11.7392 26.6196 11.8431 26.6774 11.782C26.7964 11.654 27.0563 11.6227 27.1841 11.7087C27.3612 11.8261 27.8155 12.0323 28.0838 12.0294C28.6784 12.0249 29.0708 11.873 29.3966 11.3626C29.6934 10.8979 29.5109 10.4368 28.9684 10.1806C28.6816 10.0469 28.4365 9.80788 28.5643 9.54491C28.6489 9.3743 28.9026 9.41096 29.0292 9.43206C29.2721 9.47363 29.5822 9.70158 29.618 9.90189C29.6336 9.98709 29.7417 10.0043 29.7905 9.9279L29.9767 9.49248C30.0195 9.4083 29.8822 9.34256 29.8351 9.36734Z" fill="#552582"/>
<path d="M47.0886 10.068L47.3061 9.66964C47.4009 9.49412 47.2461 9.29443 46.9978 9.29443H44.0947C43.886 9.29443 43.9456 9.51214 44.0312 9.51214C44.2178 9.51214 44.2729 9.7401 44.1598 9.93282L43.2873 11.5379C43.1573 11.6923 43.0737 11.7583 42.8874 11.7583C42.7376 11.7583 42.684 11.9766 42.8935 11.9766H45.8362C45.9552 11.9766 46.009 11.9344 46.051 11.8742L46.4508 11.3431C46.5481 11.2157 46.3377 11.2157 46.2736 11.279C45.7665 11.7867 45.2228 11.7734 44.8281 11.7734H44.4853L44.8869 10.8729H44.9741C45.2318 10.8729 45.5302 10.8694 45.6096 11.067C45.6303 11.1137 45.7565 11.1516 45.8085 11.067L46.1518 10.3793C46.2077 10.2775 46.0535 10.2597 46.0105 10.333C45.8761 10.5751 45.2785 10.5102 45.1232 10.5102H45.036L45.5384 9.52054H46.0973C46.4446 9.52054 46.7435 9.7657 46.8424 10.034C46.8659 10.0979 47.0517 10.1495 47.0886 10.068Z" fill="#552582"/>
<path d="M39.6606 9.29449H38.6276C38.4183 9.29449 38.4807 9.5122 38.5649 9.5122C38.7867 9.5122 38.9872 9.77149 38.8664 10.0113L38.4379 10.7943L37.4944 9.41287C37.4315 9.32828 37.2834 9.28671 37.1548 9.28671H36.1384C35.9294 9.28671 35.9778 9.50401 36.0628 9.50401C36.2784 9.50401 36.2231 9.6654 36.1699 9.7805L35.3593 11.3401C35.3072 11.4649 35.0877 11.4821 35.018 11.3237L34.3926 9.28077C34.3666 9.20007 33.9997 9.20458 33.9061 9.28077L32.3355 10.5766H31.5203C31.3598 10.5766 31.2952 10.6444 31.2952 10.7296C31.2952 10.8156 31.3567 10.8941 31.5263 10.8941L31.9515 10.8926L31.5263 11.2441C31.2907 11.4188 31.0491 11.6623 30.886 11.6623H30.7888C30.6343 11.6623 30.5469 11.6875 30.5469 11.811C30.5469 11.9349 30.6126 11.9771 30.758 11.9771H32.0252C32.2646 11.9771 32.2173 11.6656 32.0979 11.6656C31.9662 11.6656 31.7491 11.4989 31.951 11.2641L32.3379 10.8943H33.1004C33.5526 10.8943 33.8691 11.4182 33.5991 11.5812L33.391 11.6963C33.2925 11.7473 33.2497 11.9775 33.391 11.9775H35.8666C36.0517 11.9775 36.0136 11.7354 35.9278 11.7354C35.6753 11.7354 35.7949 11.3698 35.8438 11.2727L36.4939 10.04L37.4086 11.8114C37.4674 11.9226 37.5218 11.9775 37.6287 11.9775H37.9792C38.0894 11.9775 38.1275 11.9132 38.178 11.828L39.2181 9.94783C39.3862 9.61174 39.5148 9.51548 39.7258 9.51548C39.811 9.51446 39.871 9.29449 39.6606 9.29449ZM32.7342 10.5762L33.7028 9.78624L33.7073 10.5762H32.7342Z" fill="#552582"/>
<path d="M24.9917 9.17725C24.1206 9.17725 23.224 9.60632 23.0439 10.5202C22.8883 11.3158 23.4388 12.1402 24.4121 12.1402C25.3372 12.1402 26.1921 11.5342 26.3637 10.657C26.5357 9.77529 25.8795 9.17725 24.9917 9.17725ZM25.2391 10.8528C24.9618 11.4027 24.4999 11.7316 24.2048 11.5835C23.9111 11.4355 23.897 10.8694 24.1735 10.3182C24.4483 9.76771 24.911 9.4394 25.2061 9.58748C25.4998 9.73555 25.5139 10.3018 25.2391 10.8528Z" fill="#552582"/>
<path d="M42.6047 10.5104H41.4866C41.2777 10.5104 41.3392 10.7291 41.4232 10.7291C41.5116 10.7291 41.5944 10.7754 41.5944 10.917C41.5944 11.369 41.4031 11.5429 41.0131 11.5429C40.5879 11.5429 40.4335 11.0259 40.7211 10.3922C40.9038 9.98712 41.3887 9.60822 41.9628 9.60822C42.3163 9.60822 42.6129 9.68441 42.6565 10.0148C42.6674 10.0961 42.7903 10.0961 42.831 10.0193L43.0979 9.54309C43.1278 9.4923 43.0811 9.43188 43 9.42656C42.932 9.42205 42.778 9.51032 42.6788 9.43618C42.4542 9.26967 41.9675 9.10767 41.5991 9.10767C40.9976 9.10767 40.1583 9.24345 39.5922 10.2278C39.0808 11.1175 39.8265 12.0578 40.5189 12.0586C40.9029 12.06 41.3496 11.7753 41.605 11.667L41.8911 11.862C41.9321 11.9119 42.0224 11.9762 42.1076 11.9762H42.2137C42.3133 11.9762 42.3513 11.8425 42.3899 11.7571L42.8279 10.6937C42.8845 10.5874 42.8533 10.5104 42.6047 10.5104Z" fill="#552582"/>
<path d="M57.9343 9.36734C57.8593 9.40973 57.6805 9.43083 57.6039 9.3657C57.4059 9.20124 57.0159 9.07446 56.8117 9.07446C56.2262 9.07446 55.8006 9.19018 55.546 9.74316C55.3271 10.2154 55.5511 10.6103 56.0683 10.8489C56.2934 10.953 56.5907 11.0885 56.4767 11.357C56.3925 11.5551 56.1617 11.575 55.955 11.5741C55.6789 11.5707 55.2607 11.362 55.1958 10.9704C55.1747 10.8426 55.0258 10.8725 54.9838 10.9405L54.6289 11.6458C54.5732 11.7392 54.7192 11.8431 54.7772 11.782C54.8972 11.654 55.1571 11.6227 55.2859 11.7087C55.4614 11.8261 55.9137 12.0323 56.1858 12.0294C56.7779 12.0249 57.1712 11.873 57.4952 11.3626C57.7936 10.8979 57.6101 10.4368 57.0686 10.1806C56.781 10.0469 56.5361 9.80788 56.6649 9.54491C56.7472 9.3743 57.0041 9.41096 57.1312 9.43206C57.3715 9.47363 57.6834 9.70158 57.7186 9.90189C57.7338 9.98709 57.8417 10.0043 57.8898 9.9279L58.0762 9.49248C58.1178 9.4083 57.9814 9.34256 57.9343 9.36734Z" fill="#552582"/>
<path d="M50.1537 11.05C49.7781 11.5373 49.2771 11.6618 48.7157 11.6618H48.5582L49.5477 9.70546C49.595 9.61534 49.6976 9.54489 49.8277 9.54489C49.9514 9.54489 49.9362 9.2981 49.7732 9.2981H48.2156C48.0833 9.2981 48.0364 9.54489 48.1601 9.54489C48.2932 9.54489 48.318 9.69215 48.2535 9.81667L47.3687 11.56C47.3085 11.654 47.2118 11.679 47.1027 11.7081C46.971 11.7417 46.8815 11.9766 47.0306 11.9766H49.517C49.7089 11.9766 49.7554 11.9061 49.8057 11.8373L50.3044 11.0625C50.3786 10.9697 50.2264 10.9564 50.1537 11.05Z" fill="#552582"/>
<path d="M53.9042 9.52013C54.2506 9.52013 54.551 9.76529 54.6491 10.0336C54.6715 10.0979 54.8572 10.1495 54.8963 10.068L55.1128 9.66964C55.2058 9.49412 55.0514 9.29443 54.8036 9.29443H51.9008C51.6913 9.29443 51.7523 9.51214 51.8377 9.51214C52.0251 9.51214 52.081 9.7401 51.967 9.93282L51.0947 11.5379C50.9648 11.6923 50.8796 11.7583 50.6939 11.7583C50.5444 11.7583 50.4913 11.9766 50.7014 11.9766H53.6427C53.7619 11.9766 53.8156 11.9344 53.8575 11.8742L54.2575 11.3431C54.3556 11.2157 54.1443 11.2157 54.0802 11.279C53.5725 11.7867 53.0279 11.7734 52.6346 11.7734H52.2914L52.6944 10.8729H52.78C53.0385 10.8729 53.3369 10.8694 53.415 11.067C53.4363 11.1137 53.5632 11.1516 53.6153 11.067L53.9579 10.3793C54.0144 10.2775 53.8594 10.2597 53.818 10.333C53.6812 10.5751 53.086 10.5102 52.9285 10.5102H52.8435L53.3459 9.52054H53.9044V9.52013H53.9042Z" fill="#552582"/>
<path d="M42.4693 7.17096C42.2461 6.91331 41.9378 6.36625 39.7243 4.4369C36.4672 1.5989 32.153 0.303955 28.1002 0.303955C25.1136 0.303955 22.498 0.974896 19.6021 2.5686C15.9128 4.59978 14.3846 6.93413 14.0071 7.40954C13.7272 7.75825 13.6873 7.96243 13.8682 8.0676C13.9974 8.14084 14.2459 7.86943 14.4781 7.56325C15.5756 6.11372 17.0186 4.67584 18.5378 3.83001C19.0102 3.89884 19.6713 4.55725 19.9279 4.90613C18.9573 5.4359 17.3454 6.6636 16.7355 7.13601C16.2089 7.54366 16.0268 7.77307 16.1692 7.93896C16.2883 8.0766 16.6909 7.8059 17.0284 7.52954C17.6115 7.05007 19.3455 5.82131 20.2035 5.35948C20.788 6.04313 20.5993 7.30596 20.3932 7.58037C20.282 7.72754 20.2654 7.8839 20.3932 7.95625C20.5121 8.02419 20.6438 7.8509 20.8139 7.60507C21.211 7.03031 21.0518 5.63884 20.7103 5.13749C21.7568 4.48754 23.2594 4.05307 24.17 3.84784C24.247 3.99343 25.3506 7.21613 25.5606 7.80166C25.6748 8.12196 25.7891 8.5056 26.0231 8.43378C26.1802 8.38684 26.0764 8.0346 25.9464 7.68272C25.7849 7.2456 24.9502 4.53819 24.6938 3.73649C24.9941 3.5736 26.8063 3.20584 27.2597 3.22437C27.0373 4.40284 27.872 4.88549 28.8133 5.5049C29.3152 5.83384 32.4991 7.66384 33.1656 8.07484C33.545 8.31043 33.8401 8.45954 33.9205 8.3489C34.0148 8.22184 33.757 7.9559 33.406 7.75048C33.1259 7.5869 30.1631 5.86807 28.9252 5.08578C28.0388 4.52601 27.5614 3.92584 27.7737 3.13825C28.066 3.05319 28.9587 3.04648 29.8866 3.05319C36.2032 3.10437 41.2688 6.72519 41.8347 7.3056C42.1222 7.60031 42.5215 7.85284 42.6759 7.7339C42.7735 7.65872 42.6048 7.32572 42.4693 7.17096ZM20.444 4.67584C20.2743 4.39137 19.4711 3.65848 19.0369 3.51431C20.0501 2.76254 22.4018 1.68837 23.2946 1.49866C23.4481 1.7549 23.8608 2.84866 23.9976 3.30996C23.2084 3.48043 21.1136 4.23148 20.444 4.67584ZM27.3445 2.6429C26.5217 2.69513 25.0275 3.0186 24.4954 3.17301C24.3578 2.81496 23.9812 1.70301 23.8608 1.34531C25.3758 0.915249 27.1384 0.765779 28.4958 0.883838C28.1175 1.1736 27.4834 2.31854 27.3445 2.64272V2.6429ZM31.448 2.5919C30.0775 2.49572 28.9587 2.45654 27.9797 2.55837C28.2638 1.84401 28.8292 1.17607 29.2688 0.883838C30.2012 0.921779 31.165 1.05801 31.9291 1.2089C34.3723 1.69066 38.1715 3.18078 39.8099 5.37696C37.6269 3.92107 34.0022 2.77419 31.448 2.5919ZM43.8369 28.7992C44.0711 28.3693 44.2614 28.1247 44.0602 28.013C43.8766 27.9121 43.6993 28.3097 43.4769 28.696C42.7386 29.9785 41.9328 31.0356 40.112 32.6935C38.0951 34.5311 35.7774 35.5983 34.9697 35.8711C34.2837 33.9405 31.6658 25.7198 31.5962 25.4849C31.4939 25.1337 31.406 25.0337 31.2874 25.0743C31.1542 25.1223 31.2362 25.3153 31.3051 25.6218C31.3739 25.9284 34.4902 35.6591 34.5927 36.0003C33.9733 36.3066 31.4635 37.0097 29.7084 37.0661C28.1452 37.1182 26.3088 37.0661 25.3817 36.8526C24.2946 35.9755 21.8233 32.4853 20.8843 30.6262C19.7793 28.4376 19.0471 26.4239 18.8584 25.5682C18.7677 25.1591 18.6518 24.8641 18.4459 24.9047C18.2249 24.9468 18.352 25.2694 18.4811 25.7085C18.8131 26.8338 19.3557 28.4293 20.507 30.7037C21.7271 33.1128 23.9055 35.9387 24.5406 36.7083C22.55 36.2893 20.1311 35.3595 17.8326 33.6431C15.8524 32.1687 14.152 30.2883 13.2954 28.9187C13.1498 28.6833 12.9765 28.3511 12.7642 28.492C12.6687 28.5548 12.7865 28.8227 12.9352 29.0893C14.1779 31.3215 17.2079 34.48 21.0904 36.2129C25.6151 38.2335 30.5489 38.1257 34.9612 36.4176C38.8206 34.9233 42.1779 31.8488 43.8369 28.7994" fill="#231F20"/>
</svg>
