<svg width="84" height="90" viewBox="0 0 84 90" fill="none" xmlns="http://www.w3.org/2000/svg">
<path d="M83.3347 8.7066C80.8323 8.51789 79.0883 7.86236 78.1443 6.75194C76.5741 4.97208 76.2146 1.98049 76.1356 0.355574C76.1356 0.154943 75.9756 0 75.7762 0H75.4838C75.3772 0 75.2844 0.0476745 75.2034 0.115214C75.1501 0.180767 75.1106 0.27413 75.1106 0.375439C75.1244 1.66663 74.5121 5.00585 72.9419 6.85325C71.9564 8.05703 70.2262 8.79997 67.9391 9.0006C67.8443 9.0006 67.7653 9.0145 67.6981 9.03437C67.6053 9.05423 67.5125 9.12773 67.4592 9.22904C67.4058 9.31446 67.4058 9.42172 67.4453 9.52303C67.4848 9.62236 67.4848 9.68394 67.5125 9.7773C67.5125 9.91635 67.6053 10.0375 67.7376 10.0773C67.7929 10.0971 67.9114 10.111 67.9391 10.111C74.0737 10.117 75.1244 15.7068 75.2034 19.0242C75.2034 19.2666 75.4167 19.493 75.8413 19.493C75.9085 19.493 76.0013 19.4871 76.0685 19.4732C76.2146 19.4334 76.3351 19.2983 76.3489 19.1315C76.4813 17.3318 76.7736 13.5913 78.3161 12.173C79.6354 10.8599 81.2313 10.1051 83.2261 9.87662C83.3861 9.85676 83.5204 9.73558 83.5599 9.56872C83.5599 9.49522 83.5737 9.44159 83.6132 9.36213C83.6665 9.24096 83.6665 9.1615 83.6665 9.08006C83.6665 8.88737 83.5204 8.73243 83.3347 8.7066Z" fill="#00AB96"/>
<path d="M35.7761 32.3018C37.2515 30.4544 38.636 28.6349 39.5268 26.4994C40.459 24.3243 41.1384 22.0816 41.4051 19.7614C41.7092 17.4253 41.6026 15.0893 41.2036 12.781C41.1246 12.2784 40.9785 12.0123 40.4333 12.052C38.3299 12.2268 36.2146 12.6817 34.1526 13.3094C32.1282 13.9192 30.1729 14.7953 28.2689 15.8401C26.4202 16.8771 24.4511 17.8405 22.7881 19.2648C22.3891 19.5925 22.7486 20.0554 23.1219 20.409C26.1003 23.4145 25.8889 23.623 28.8831 26.6266C31.8497 29.6241 31.2374 29.197 34.2178 32.2065C34.6306 32.6078 35.4028 32.7567 35.7761 32.3018Z" fill="#00AB96"/>
<path d="M43.0401 40.5911C43.439 41.0123 43.439 40.8394 43.8656 40.4243C46.3266 37.9611 56.0004 27.8977 58.4634 25.4008C60.9361 22.9197 64.1575 19.6123 63.7585 19.2726C62.0422 17.7808 60.2587 16.2214 58.3291 15.1706C56.3599 14.0999 53.978 13.8992 51.8489 13.2954C49.7079 12.6676 47.5373 12.1869 45.3153 12.0518C44.7031 11.9982 44.2646 12.326 44.3969 12.9358C44.7564 15.5122 44.6774 18.4899 44.3969 21.0981C43.998 24.7393 43.4529 25.7961 42.3883 28.2056C41.3376 30.5616 39.5264 32.7288 37.8101 34.7708C37.4506 35.2059 40.8438 38.3902 43.0401 40.5911Z" fill="#00AB96"/>
<path d="M54.0468 51.9876C57.0272 54.9732 56.6677 54.9653 59.6342 57.9569C62.6166 60.9405 63.0807 60.6207 66.0354 63.6183C66.4482 64.0334 67.0072 64.099 67.3666 63.6441C68.763 61.9993 69.6281 60.2453 70.6531 58.3919C71.6762 56.4909 72.8494 54.6057 73.4617 52.5696C74.072 50.5017 74.2458 47.7187 74.4196 45.5773C74.4453 45.0489 74.0996 44.9079 73.5802 44.7867C71.2654 44.4471 68.8697 44.3179 66.5549 44.6C64.2539 44.9019 62.1643 45.5495 60.0075 46.4812C56.5472 47.9531 55.7098 49.1231 53.873 50.6289C53.4069 50.9845 53.6478 51.5744 54.0468 51.9876Z" fill="#00AB96"/>
<path d="M50.6397 48.1733C51.011 48.5488 51.3704 47.9866 51.7971 47.6509C53.8195 45.9247 60.752 39.7289 74.1252 41.187C74.7513 41.2545 73.821 36.5308 73.2068 34.3755C72.5965 32.2341 71.9427 30.1741 70.8663 28.1976C69.8156 26.2509 68.5496 24.5048 67.0861 22.7786C66.7404 22.3773 66.3691 21.8747 66.0096 22.2502C63.5467 24.7253 61.9766 26.0642 59.5156 28.5532C56.7881 31.3441 48.3111 40.0488 45.8363 42.5259C45.8363 42.5259 48.4434 45.9783 50.6397 48.1733Z" fill="#00AB96"/>
<path d="M32.4913 34.8166C30.5735 32.7289 30.6012 32.6892 28.6715 30.5875C26.7419 28.5057 26.6353 28.5951 24.7194 26.5192C22.7898 24.4116 22.697 24.4792 20.7812 22.3835C20.3822 21.9564 19.8094 21.7279 19.4223 22.157C18.1583 23.5336 17.2004 25.1267 16.2168 26.6464C15.2312 28.2057 14.6466 29.9518 13.9534 31.6324C13.2621 33.3387 12.5965 35.0034 12.1975 36.7852C11.7986 38.579 11.3463 40.3708 11.2515 42.1983C11.1586 44.0238 11.3463 45.8653 11.5734 47.6789C11.7314 49.0297 12.2765 51.3856 12.636 52.6907C12.7426 53.1456 -0.0301186 67.74 0.341194 68.1274C0.83496 68.6359 16.203 52.1941 18.0654 50.4679C19.9023 48.7416 23.2697 44.9614 25.1322 43.2213C26.9947 41.4951 26.9019 41.3958 28.7506 39.6755C30.613 37.9493 30.4807 37.8162 32.3313 36.0761C32.756 35.6807 32.8765 35.2457 32.4913 34.8166Z" fill="#00AB96"/>
<path d="M48.4705 50.18C46.4342 48.1538 46.1162 47.987 44.08 45.9528C43.6928 45.5635 43.8666 45.6847 43.5072 45.3827C43.2682 45.1761 43.2149 45.2834 43.0154 45.4165C40.6453 47.1229 26.966 60.9684 26.3162 60.2453C25.6486 59.5223 41.6842 43.6962 41.2714 43.3029C41.0186 43.0486 40.5801 42.6196 40.193 42.2382C38.1706 40.1961 38.0382 40.3371 36.0158 38.305C35.6168 37.8879 35.3225 37.7488 34.9374 38.156C33.0216 40.0491 32.8497 39.8763 30.9596 41.7773C29.0418 43.6764 29.0418 43.6764 27.1655 45.5913C25.2497 47.4903 17.4798 55.013 15.5758 56.926C15.2163 57.2935 15.244 57.8358 15.483 58.3304C16.2019 59.5898 17.2269 61.0618 18.1177 62.2516C18.9828 63.4236 20.0612 64.4745 21.1119 65.5313C22.1626 66.5821 23.3872 67.3985 24.5307 68.2626C25.1312 68.7036 25.9567 69.3194 26.9937 69.8816C26.9937 69.8816 23.6262 74.1246 19.7412 78.6736C15.2045 84.0013 10.1207 89.756 10.3201 89.9825C11.0529 90.8267 38.8361 61.1492 40.7263 59.2422C42.6164 57.3292 42.6164 57.3133 44.5184 55.4143C46.4086 53.5133 46.2604 53.3722 48.1506 51.4593C48.5634 51.058 48.8557 50.5832 48.4705 50.18Z" fill="#00AB96"/>
<path d="M50.1732 53.8744C48.4312 55.7138 48.2574 55.5609 46.5411 57.4142C44.7853 59.2537 37.5447 66.3354 35.7888 68.1808C34.0606 70.0282 24.0668 80.7153 24.6791 81.3648C24.9576 81.6568 33.7525 73.4945 33.9658 73.5621C35.4965 74.0825 36.8672 74.6308 38.465 74.8592C40.2742 75.0996 42.111 75.3399 43.932 75.2744C45.757 75.1949 47.5128 74.5255 49.3082 74.1421C51.0778 73.7686 52.968 73.6137 54.6566 72.9264C56.3216 72.2351 57.9846 71.367 59.541 70.3897C61.0578 69.4183 62.549 68.3019 63.9197 67.0425C64.3443 66.6691 64.052 66.2142 63.6669 65.8526C61.603 63.8781 61.8301 64.0927 59.7405 62.138C57.6785 60.1635 57.6133 59.7821 55.5355 57.8095C53.4736 55.8548 53.5131 55.8012 51.4373 53.8465C51.0265 53.4334 50.5604 53.4453 50.1732 53.8744Z" fill="#00AB96"/>
</svg>
