<svg width="36" height="54" viewBox="0 0 36 54" fill="none" xmlns="http://www.w3.org/2000/svg">
<path d="M18.0329 9.12748C18.6885 8.78012 19.3407 8.41744 19.9827 8.03689C20.2977 7.85129 20.6084 7.66059 20.9174 7.46477C21.1186 7.33792 21.3437 7.21618 21.5448 7.0757C21.6843 6.98035 21.7323 6.76836 21.6604 6.61342C21.2649 5.73907 20.7933 4.89708 20.2635 4.09424C20.1702 3.95632 19.9733 3.9112 19.8252 3.98697C19.0369 4.40158 18.1835 4.73106 17.3284 4.94986C16.1421 5.25039 14.9061 5.31765 13.6889 5.27848C11.1921 5.19846 8.73385 4.70297 6.2302 4.97199C5.08666 5.09289 3.92257 5.35085 2.89201 5.87529C2.56589 8.05136 2.12508 11.2133 1.71851 14.8086C5.94517 14.0177 10.0631 12.75 14.0099 11.0413C15.3709 10.453 16.7198 9.82134 18.0329 9.12748Z" fill="#D24351"/>
<path d="M20.271 1.93769C20.3755 2.06625 20.5817 2.10201 20.7213 2.00836C21.4831 1.51286 22.3664 0.824967 22.9681 0.246043C21.531 0.108122 19.9826 0.0136217 18.3777 0C19.0582 0.593397 19.6933 1.24384 20.271 1.93769Z" fill="#D24351"/>
<path d="M10.6965 3.40284C12.4649 3.65825 14.2829 3.86768 16.0727 3.70337C17.022 3.61738 17.8959 3.37219 18.7612 3.02824C18.804 3.01206 18.9213 2.95928 19.0386 2.91501C19.1918 2.84946 19.2303 2.69025 19.1233 2.56255C18.3538 1.63712 17.467 0.777247 16.4973 0.0212402C9.95525 0.226418 4.59788 1.68224 4.3565 1.74865L3.51083 1.98277L3.36446 2.84775C3.35248 2.93629 3.30882 3.18574 3.24634 3.57226C5.58992 2.7856 8.30755 3.05804 10.6965 3.40284Z" fill="#D24351"/>
<path d="M14.5945 36.3361C14.9942 36.193 15.3948 36.0483 15.792 35.9019L15.7902 34.8232C15.3588 34.9799 15.0276 35.1016 14.5945 35.2574V34.3277C15.0781 34.1515 15.56 33.9795 16.0393 33.8058V32.7263C15.1098 33.0643 13.1548 33.7709 13.1548 33.7709L13.3439 34.8402V38.9549C14.2538 38.6262 15.1671 38.2959 16.0778 37.963V36.8869C15.5814 37.0657 15.0884 37.2453 14.5945 37.4233V36.3361Z" fill="#0C0802"/>
<path d="M26.8788 31.8893C27.276 31.7437 27.674 31.6015 28.0711 31.4551V30.3739C27.6406 30.5314 27.3102 30.6548 26.8788 30.8098V29.8801C27.3581 29.7047 27.8392 29.5327 28.3211 29.3591V28.2795C27.3915 28.6175 25.4365 29.3233 25.4365 29.3233L25.6274 30.3926V34.5089C26.5356 34.1769 27.4463 33.8483 28.357 33.5163V32.4393C27.8631 32.6189 27.3701 32.7969 26.8788 32.9748V31.8893Z" fill="#0C0802"/>
<path d="M23.2371 32.7612L23.9098 32.5185V34.074L23.2371 34.32V32.7612ZM24.6691 34.8461L25.163 33.9769V31.7106L24.6648 31.1887L23.2371 31.7063V30.1245L21.7939 30.6481L21.9814 31.7106V35.8244L24.6691 34.8461Z" fill="#0C0802"/>
<path d="M16.595 37.7747L17.8559 37.3184V34.1411L18.6459 37.0324L19.1355 36.8561L19.9444 33.3843V36.5658L21.1855 36.112V30.8643L19.5951 31.4415L18.8907 34.4561L18.2034 31.9446L16.4084 32.5934L16.595 33.6652V37.7747Z" fill="#0C0802"/>
<path d="M5.76973 37.5798V41.6961C6.18401 41.5454 6.60171 41.3931 7.0177 41.2441C7.0177 39.8734 7.01342 38.5052 7.0177 37.1312C7.24795 37.0486 7.48334 36.9651 7.71273 36.8817V40.9904C8.13043 40.8397 8.54728 40.6907 8.96413 40.5408V35.2871C7.86167 35.683 5.58057 36.5105 5.58057 36.5105L5.76973 37.5798Z" fill="#0C0802"/>
<path d="M30.1223 28.6798L30.7934 28.4388V30.3212L30.1223 30.5638V28.6798ZM28.8675 33.3291L30.1223 32.8761V31.6195L31.5509 31.1036L32.049 30.2207V27.6284L31.556 27.1133L28.6997 28.1451L28.8675 29.2204V33.3291Z" fill="#0C0802"/>
<path d="M10.9669 35.614L11.638 35.3714V37.2554L10.9669 37.4972V35.614ZM9.71379 40.2641L10.9669 39.8112V38.5546L12.3946 38.0378L12.8928 37.1567V34.5626L12.3998 34.0483L9.54346 35.0802L9.71379 36.1555V40.2641Z" fill="#0C0802"/>
<path d="M22.9546 12.9959C22.4804 13.3697 22.0002 13.7349 21.5543 14.1368C20.9585 14.6808 20.3979 15.264 19.8561 15.8608C18.3564 17.5099 17.0503 19.3207 15.2365 20.6624C13.9021 21.6492 12.352 22.3856 10.6889 22.5814C10.5211 22.6001 10.3559 22.6138 10.1907 22.6206C10.171 22.624 9.96559 22.6333 10.0418 22.6785C10.159 22.7525 10.3371 22.7687 10.468 22.8028C11.0193 22.9407 11.5825 23.0403 12.1457 23.1109C13.2764 23.248 14.4199 23.248 15.5455 23.1075C17.0169 22.9288 18.4566 22.5116 19.7936 21.8799C19.9451 21.8092 20.1651 21.6517 20.2806 21.53C22.3957 19.2866 23.2773 16.1485 23.2028 13.1143C23.1985 12.9432 23.0838 12.8955 22.9546 12.9959Z" fill="#D24351"/>
<path d="M22.4605 20.2214C24.0371 18.9588 25.3998 17.3455 26.26 15.527C26.73 14.5377 27.0415 13.4837 27.2957 12.4238C27.4301 11.8517 27.5209 11.2702 27.5739 10.6862C27.597 10.4026 27.6141 10.1217 27.6219 9.8399C27.6219 9.72156 27.6783 9.14179 27.4301 9.41167C26.6863 10.2145 25.4846 11.1902 24.5832 11.8687C24.4514 11.9683 24.3479 12.1828 24.3547 12.3489C24.4583 15.0672 23.8523 17.841 22.3886 20.1524C22.2996 20.2954 22.3304 20.3261 22.4605 20.2214Z" fill="#D24351"/>
<path d="M11.6063 42.7323L11.5079 46.451C11.5079 46.451 11.0988 46.5966 10.9524 46.6486L11.0602 47.9018C11.4934 47.7443 11.8871 47.6021 12.3185 47.4446C12.5239 47.0913 12.7276 46.7371 12.9322 46.3821L13.0563 42.2104C13.3242 42.1159 13.5254 42.041 13.7958 41.9431V46.9099C14.2974 46.7277 14.8059 46.5438 15.3083 46.3625V40.0139C13.985 40.4949 11.4026 41.4323 11.4026 41.4323L11.6063 42.7323Z" fill="#0C0802"/>
<path d="M17.6837 42.5942C17.6708 42.6368 17.6571 42.6828 17.6443 42.7271V39.165C17.1196 39.3531 15.9983 39.7584 15.9983 39.7584L16.1926 41.0661V46.0448C16.7318 45.8498 17.2659 45.6566 17.8035 45.4616C18.1741 44.1778 18.5473 42.8905 18.9214 41.605C18.9333 41.5598 18.9453 41.5147 18.9573 41.467V45.0445C19.4538 44.8631 19.9493 44.6843 20.4432 44.5055V38.1501C19.8937 38.3477 19.3459 38.5477 18.7947 38.7452C18.4232 40.0308 18.0526 41.3129 17.6837 42.5942Z" fill="#0C0802"/>
<path d="M24.3627 36.7319C23.3158 37.1091 21.1426 37.894 21.1426 37.894L21.342 39.2034V44.1822C21.8419 43.9983 22.346 43.8144 22.8442 43.6365V38.7309C23.2653 38.5785 23.6899 38.4261 24.1136 38.2712C24.1949 37.7595 24.2762 37.2453 24.3627 36.7319Z" fill="#0C0802"/>
<path d="M25.6276 40.0446C25.7474 39.1958 25.8621 38.3478 25.9828 37.5007C26.035 37.4828 26.0881 37.4632 26.1386 37.4445C26.2533 38.2065 26.3697 38.9702 26.4861 39.7321C26.2028 39.8351 25.9135 39.9398 25.6276 40.0446ZM24.9086 36.5438C24.5474 38.7914 24.1853 41.0415 23.8215 43.2908C24.2957 43.1154 24.7725 42.9477 25.2493 42.7749C25.3092 42.3254 25.3717 41.8767 25.4333 41.4297C25.8484 41.2773 26.2653 41.1258 26.6795 40.9785C26.742 41.3812 26.8019 41.7873 26.8644 42.1891C27.3489 42.0146 27.8274 41.8418 28.3076 41.6698C27.9498 39.6802 27.5928 37.6906 27.2333 35.7026C26.4621 35.9793 25.6849 36.2594 24.9086 36.5438Z" fill="#0C0802"/>
<path d="M33.6718 23.0097C33.6282 23.0319 33.5828 23.0506 33.5392 23.0693C33.2618 23.1885 32.9888 23.3128 32.7063 23.4226C32.4307 23.5333 32.1525 23.6465 31.8769 23.7487C31.5979 23.856 31.3257 23.9539 31.0526 24.0492C30.5091 24.2399 29.9767 24.4136 29.4708 24.5703C28.9633 24.7227 28.4822 24.8665 28.0311 24.9857C27.5826 25.1126 27.1683 25.2122 26.802 25.3075C26.4331 25.3952 26.1121 25.4685 25.8459 25.5306C25.3118 25.6506 25.0071 25.7145 25.0071 25.7145C25.0071 25.7145 25.3212 25.7051 25.8647 25.6907C26.1403 25.6779 26.4716 25.6651 26.8499 25.6455C27.2334 25.6225 27.6622 25.5996 28.1321 25.5595C28.6012 25.5238 29.1113 25.4753 29.6489 25.4165C30.1855 25.3552 30.7556 25.2829 31.3402 25.1935C31.6347 25.15 31.9317 25.1024 32.2338 25.0479C32.5351 24.9942 32.8398 24.9355 33.1488 24.8734C33.3628 24.8333 33.5725 24.7848 33.7865 24.738C34.0253 28.6628 34.0998 32.5109 33.8559 35.712L33.8319 36.027C33.6907 37.7348 33.4536 39.2486 33.0932 40.472C30.5091 49.3397 19.945 51.2553 18.1193 51.8121L17.9849 51.8461L17.8505 51.8121C16.4724 51.3932 10.1521 50.3903 5.99733 45.9113L5.78934 45.6806C4.78959 44.5576 3.93193 43.2559 3.30966 41.7396C0.31898 34.4179 8.58572 31.6536 17.8334 27.3133L17.8796 27.2904L19.4366 28.0957L19.1806 26.6731C24.229 24.2416 29.4229 21.0652 33.1223 16.8518C33.3286 18.844 33.5212 20.9247 33.6718 23.0097ZM33.1274 16.9089C33.1274 16.885 33.1257 16.8638 33.1223 16.8561C33.1274 16.8774 33.1274 16.8902 33.1274 16.9089ZM33.1634 17.2094C33.1702 17.2639 33.1702 17.2537 33.1634 17.2094V17.2094ZM32.4898 1.98286L31.6467 1.74874C31.4695 1.70191 28.5652 0.912702 24.473 0.4104C24.1571 0.711781 23.611 1.21749 23.4621 1.35626C23.1129 1.67467 22.7534 1.98541 22.3793 2.28339C22.1944 2.43323 22.0053 2.58137 21.8187 2.72695C21.6988 2.81464 21.5713 2.89552 21.4489 2.98576C21.3128 3.08367 21.2914 3.28629 21.3847 3.42677C21.6149 3.77497 21.8332 4.12999 22.0438 4.48841L22.0772 4.5446V4.54715C23.0974 6.37758 23.831 8.35273 24.1657 10.4198C24.1905 10.5841 24.3215 10.6403 24.4584 10.5416C25.1962 10.0044 25.9204 9.43481 26.5931 8.81757C26.7352 8.68221 26.879 8.54854 27.0126 8.40381C27.1709 8.23184 27.372 8.05816 27.4534 7.82829C27.5381 7.60949 27.4662 7.36175 27.4277 7.13529C27.3772 6.84242 27.3173 6.54955 27.2496 6.26349C26.879 4.70891 26.2413 3.24372 25.3589 1.9139C25.3691 1.91645 25.3785 1.91901 25.388 1.92156C28.5173 2.36597 30.7462 2.93638 31.1802 3.05046C31.282 3.67196 31.9051 7.51244 32.5283 12.6078C31.3976 16.7897 27.806 22.1975 20.0306 25.5996L18.7176 25.4123L18.0011 23.9658L17.2856 25.4123L15.6798 25.643L16.873 26.7872C12.8672 28.0719 7.96687 28.8628 2.00092 28.8628C2.03943 27.5875 2.10106 26.2815 2.18323 24.9687C2.41519 25.0215 2.64801 25.076 2.88083 25.1194C3.18726 25.1807 3.49112 25.2428 3.79327 25.2905C4.09028 25.3484 4.38987 25.3952 4.68174 25.4404C5.26464 25.5306 5.83214 25.6047 6.36625 25.6651C6.90293 25.7239 7.4105 25.7715 7.87785 25.809C8.34349 25.8507 8.77146 25.8694 9.15321 25.8967C9.53411 25.9146 9.8645 25.9299 10.1358 25.9401C10.6794 25.958 10.9909 25.9665 10.9909 25.9665C10.9909 25.9665 10.6888 25.9001 10.1572 25.7809C9.89104 25.7196 9.57263 25.643 9.20371 25.5553C8.83908 25.4625 8.4248 25.362 7.98142 25.236C7.53034 25.1143 7.05186 24.9738 6.546 24.8189C6.04013 24.6614 5.51116 24.4877 4.97105 24.297C4.69886 24.2016 4.42582 24.1037 4.15277 23.9948C3.87459 23.8943 3.60154 23.7819 3.32335 23.6704C3.04517 23.558 2.77041 23.4337 2.4948 23.3171C2.42975 23.2864 2.36213 23.2549 2.29793 23.2268C2.4229 21.5445 2.57098 19.8623 2.7319 18.2268C2.91164 18.4362 3.15045 18.684 3.46972 18.959C3.46972 18.959 4.20498 19.7184 5.35024 20.2811C6.30633 20.7485 7.33432 21.0627 8.3957 21.1316C10.5116 21.2772 12.5676 20.5791 14.2975 19.4C16.451 17.9356 17.978 15.7698 19.844 13.9947C20.3516 13.5128 20.8857 13.0624 21.4352 12.6257C21.7108 12.4095 21.9907 12.1975 22.2715 11.9872C22.4058 11.8876 22.5394 11.7897 22.6755 11.6943C22.7388 11.6483 22.8107 11.6058 22.8818 11.5615C22.9947 11.484 23.0452 11.261 23.0213 11.0958C22.8775 10.1917 22.6618 9.29689 22.3742 8.42765C22.3211 8.26759 22.1636 8.21226 22.019 8.30335C19.9279 9.65701 17.8 10.9434 15.5643 12.0527C12.0977 13.7682 8.44106 15.081 4.70828 16.0797C3.64434 16.3632 2.57355 16.6135 1.49505 16.8425C0.594595 25.4387 0.0116948 35.7818 1.56524 41.1122C2.69081 44.968 5.28861 48.1427 9.29444 50.5418C12.4306 52.4208 15.6319 53.3215 16.9971 53.7046C17.1863 53.7574 17.3429 53.8 17.467 53.8383L18.0011 54L18.5404 53.8357C18.6585 53.8 18.8134 53.7574 19.0035 53.7046C20.3713 53.3215 23.5725 52.4208 26.7061 50.5418C30.7128 48.1427 33.3115 44.968 34.4353 41.1122C37.3224 31.21 32.8279 4.00143 32.6387 2.84784L32.4898 1.98286Z" fill="#D24351"/>
</svg>
