<svg width="52" height="52" viewBox="0 0 52 52" fill="none" xmlns="http://www.w3.org/2000/svg">
<path fill-rule="evenodd" clip-rule="evenodd" d="M46.9152 20.1264C46.7614 17.0619 45.3825 14.2527 44.5654 12.6185L44.1056 11.699L44.1567 12.5164C44.2588 13.5887 44.514 17.3682 43.3906 19.5135C41.9606 22.4249 37.8745 22.1693 36.4959 22.0672H36.3932C34.1971 21.9141 26.9961 21.6588 24.7484 21.6588C21.8371 21.6588 18.6197 21.9141 16.0147 22.1186C14.7375 22.221 13.6652 22.272 12.8991 22.3228H12.6436C9.01725 22.6804 6.7188 21.6078 5.7996 19.1562C5.23776 17.6241 5.2888 14.6617 5.2888 13.2317V12.2101L4.98251 12.7209C4.31856 13.9977 3.04172 16.3469 2.63332 20.2288C2.37777 24.8765 4.77831 26.5113 6.56596 27.3284C8.45571 28.2476 10.4475 28.3497 11.0604 28.4007H11.1115C11.2136 28.4007 11.3667 28.4007 11.5199 28.4518C11.7244 28.4518 11.9283 28.4518 12.1328 28.5028C11.8265 28.5539 11.3667 28.656 10.9584 28.707C10.55 28.7581 10.1413 28.8602 9.93675 28.9112C9.477 28.9622 7.68966 29.422 6.66806 29.7283C5.85096 30.0346 4.93177 30.4433 4.93177 30.4433L4.77831 30.5454L4.88072 30.6992C4.88072 30.6992 5.18702 31.1076 5.49362 31.4142C6.15757 32.0781 7.94522 33.2015 10.0905 32.9463C11.8268 32.691 12.7463 32.3334 13.1037 32.1292C13.2571 32.4865 13.5124 33.355 13.7676 34.0186C14.5336 35.9591 16.3213 39.6878 16.9852 40.9644C17.5471 41.9863 18.0579 42.9055 18.4155 43.5184L18.5687 43.7226C18.4666 44.131 18.1603 44.3865 17.9558 44.5907C17.9047 44.6418 17.8537 44.6418 17.8026 44.6928L17.7516 44.7439V44.7949C17.7516 45.1523 17.6495 48.3702 19.8458 50.7194L19.8969 50.7704C21.0206 51.1788 22.3999 51.5875 24.698 51.5875C27.0475 51.5875 28.9883 51.0767 29.7033 50.7194V50.6683H29.7543C31.287 48.881 31.951 46.1739 32.002 45.1523V45.1012L31.951 45.0502C31.8999 44.9991 31.8489 44.9991 31.7978 44.9481C31.5936 44.6928 31.287 44.4373 31.1339 43.7736C31.287 43.4673 31.6447 42.7013 31.951 42.0884C32.1552 41.731 32.2573 41.4238 32.3594 41.2713C32.9723 39.9938 34.8617 35.9591 35.6278 34.0693C36.0875 32.8435 36.3434 32.2309 36.4965 32.0267C36.8028 32.1799 37.7223 32.5886 39.4076 32.7417C41.5525 32.997 43.6468 31.5159 44.2087 30.6992L44.5149 30.3922L44.617 30.2391L44.4639 30.137C44.4128 30.137 44.3618 30.137 44.0555 29.9839L41.6036 29.2178C41.2973 29.0647 39.8163 28.7581 38.7436 28.5539L37.9265 28.3497L38.1818 28.2986C40.6838 27.8896 47.3239 26.7152 46.9152 20.1264Z" fill="white"/>
<path fill-rule="evenodd" clip-rule="evenodd" d="M46.9152 20.1264C46.7614 17.0619 45.3825 14.2527 44.5654 12.6185L44.1056 11.699L44.1567 12.5164C44.2588 13.5887 44.514 17.3682 43.3906 19.5135C41.9606 22.4249 37.8745 22.1693 36.4959 22.0672H36.3932C34.1971 21.9141 26.9961 21.6588 24.7484 21.6588C21.8371 21.6588 18.6197 21.9141 16.0147 22.1186C14.7375 22.221 13.6652 22.272 12.8991 22.3228H12.6436C9.01725 22.6804 6.7188 21.6078 5.7996 19.1562C5.23776 17.6241 5.2888 14.6617 5.2888 13.2317V12.2101L4.98251 12.7209C4.31856 13.9977 3.04172 16.3469 2.63332 20.2288C2.37777 24.8765 4.77831 26.5113 6.56596 27.3284C8.45571 28.2476 10.4475 28.3497 11.0604 28.4007H11.1115C11.2136 28.4007 11.3667 28.4007 11.5199 28.4518C11.7244 28.4518 11.9283 28.4518 12.1328 28.5028C11.8265 28.5539 11.3667 28.656 10.9584 28.707C10.55 28.7581 10.1413 28.8602 9.93675 28.9112C9.477 28.9622 7.68966 29.422 6.66806 29.7283C5.85096 30.0346 4.93177 30.4433 4.93177 30.4433L4.77831 30.5454L4.88072 30.6992C4.88072 30.6992 5.18702 31.1076 5.49362 31.4142C6.15757 32.0781 7.94522 33.2015 10.0905 32.9463C11.8268 32.691 12.7463 32.3334 13.1037 32.1292C13.2571 32.4865 13.5124 33.355 13.7676 34.0186C14.5336 35.9591 16.3213 39.6878 16.9852 40.9644C17.5471 41.9863 18.0579 42.9055 18.4155 43.5184L18.5687 43.7226C18.4666 44.131 18.1603 44.3865 17.9558 44.5907C17.9047 44.6418 17.8537 44.6418 17.8026 44.6928L17.7516 44.7439V44.7949C17.7516 45.1523 17.6495 48.3702 19.8458 50.7194L19.8969 50.7704C21.0206 51.1788 22.3999 51.5875 24.698 51.5875C27.0475 51.5875 28.9883 51.0767 29.7033 50.7194V50.6683H29.7543C31.287 48.881 31.951 46.1739 32.002 45.1523V45.1012L31.951 45.0502C31.8999 44.9991 31.8489 44.9991 31.7978 44.9481C31.5936 44.6928 31.287 44.4373 31.1339 43.7736C31.287 43.4673 31.6447 42.7013 31.951 42.0884C32.1552 41.731 32.2573 41.4238 32.3594 41.2713C32.9723 39.9938 34.8617 35.9591 35.6278 34.0693C36.0875 32.8435 36.3434 32.2309 36.4965 32.0267C36.8028 32.1799 37.7223 32.5886 39.4076 32.7417C41.5525 32.997 43.6468 31.5159 44.2087 30.6992L44.5149 30.3922L44.617 30.2391L44.4639 30.137C44.4128 30.137 44.3618 30.137 44.0555 29.9839L41.6036 29.2178C41.2973 29.0647 39.8163 28.7581 38.7436 28.5539L37.9265 28.3497L38.1818 28.2986C40.6838 27.8896 47.3239 26.7152 46.9152 20.1264Z" fill="#1F2528"/>
<path fill-rule="evenodd" clip-rule="evenodd" d="M4.98296 13.4868C4.93191 15.2234 4.93191 17.0621 5.34061 18.6963C4.98296 18.39 4.57457 17.9813 4.21691 17.6747C3.85926 18.0323 3.55297 18.4407 3.19531 18.7984C3.55297 16.9597 4.16587 15.1723 4.98296 13.4868ZM46.2511 18.0326L46.3532 18.4924L45.485 17.8795C45.0766 18.033 44.719 18.2882 44.3106 18.4924C44.6169 16.8579 44.6679 15.1216 44.5658 13.385C45.3316 14.8657 45.7913 16.4492 46.2511 18.0326ZM24.7999 34.2229C25.7194 35.6529 27.456 36.062 28.9881 35.6529C29.601 35.5508 30.1625 35.2956 30.6733 35.0911C30.2136 36.5728 29.8563 38.258 29.9073 39.9432C29.9073 41.4243 30.1625 42.8549 30.5712 44.1825C30.3671 44.0804 30.1629 43.9272 29.9073 43.8251C26.741 42.242 22.3483 42.293 19.2331 43.9272C19.3862 43.4164 19.5394 42.9059 19.6415 42.3951C20.1523 39.9943 19.7949 37.4919 18.9775 35.3463C20.6631 36.062 23.0633 36.2145 24.4426 34.6313C24.5957 34.5292 24.6468 34.3761 24.7999 34.2229ZM17.8028 35.3974C17.7007 36.113 17.4965 36.828 16.7812 37.0832C16.2193 37.2364 15.6575 36.9301 15.3001 36.5214C15.1467 36.3172 14.9935 36.113 14.9425 35.8575C15.8109 36.4193 16.9854 35.9589 17.7514 35.3971H17.8028V35.3974ZM34.657 35.4995C34.4528 36.113 33.942 36.7256 33.2781 36.828C32.8183 36.9301 32.4099 36.6749 32.1037 36.2661C31.9505 36.062 31.8995 35.8064 31.8484 35.5505C32.6145 36.1641 33.8399 36.0103 34.657 35.4995Z" fill="#B73048"/>
<path fill-rule="evenodd" clip-rule="evenodd" d="M32.9207 37.2367C33.227 37.2878 33.5847 37.2367 33.891 37.1346C33.0228 39.3307 31.9505 41.476 30.8268 43.621C30.4688 42.5486 30.5205 41.3739 30.622 40.1988C30.7757 38.7688 31.1334 37.3902 31.5418 36.0623C31.7973 36.6238 32.3081 37.1343 32.9207 37.2367ZM18.9264 43.6207C17.5982 41.5781 16.5769 39.4325 15.5556 37.2364C16.0154 37.4406 16.7301 37.6448 17.1898 37.2875C17.6496 36.9812 17.9048 36.5214 18.058 36.01C19.1817 38.207 19.4369 41.1177 18.9264 43.6207ZM31.5421 45.357C31.2868 47.247 30.6223 48.9323 29.3965 50.4133C26.6389 51.5367 22.8591 51.6391 20.1012 50.4643C18.7222 48.9323 18.2114 47.0428 18.1093 44.9993C21.0717 42.8543 25.7194 42.3949 29.0902 43.927C29.9583 44.3357 30.776 44.7444 31.5421 45.357ZM42.9827 29.9837C40.6839 29.0645 37.6711 28.5537 35.1681 28.5027C34.9129 25.6427 34.6063 23.9061 34.0447 22.3227C32.7679 22.2206 26.9455 22.0164 24.7491 22.0164C22.5017 22.0164 16.8325 22.3737 15.5046 22.4251C14.9938 23.9572 14.3809 25.8469 14.1256 28.6562C11.5719 28.8093 8.09905 29.5243 5.8006 30.3924C5.44325 30.5456 5.28979 30.6483 5.28979 30.6483C5.64745 31.0567 6.92399 32.5888 9.32454 32.6398C10.0909 32.6398 11.5209 32.5377 12.4911 32.129C12.7464 31.9759 13.2572 31.7717 13.2572 31.7717C13.2572 31.7717 13.4103 32.078 13.5124 32.3335C13.7677 33.0485 14.0743 34.0698 14.2785 34.5296C14.6361 35.1935 15.1469 35.704 16.0661 35.7554C16.8322 35.7554 17.394 35.0914 17.4961 34.9893C15.2487 34.8362 14.3295 33.6614 14.1761 31.8231C13.6142 31.721 13.4611 31.6699 13.41 31.4147C13.359 31.1084 13.4611 30.8018 13.6653 30.4438C13.9205 30.1375 14.3292 29.7799 15.4019 30.1375C16.1169 30.3423 16.6787 30.8021 17.0361 31.1594C17.5469 31.5678 18.8748 32.9468 19.6919 33.4576C20.5603 33.9684 22.1945 34.4278 23.2672 33.3555C24.3398 32.3342 24.4419 31.466 24.5951 30.9552C22.7564 30.9042 21.0711 30.7 19.4877 30.4948C19.0279 30.4438 19.2324 29.984 19.5898 30.0865C19.5898 30.0865 22.5522 30.4948 24.6461 30.4948V29.3715C23.4203 29.3204 21.3774 29.2183 19.4366 28.8096C19.0282 28.7075 19.0793 28.2478 19.4877 28.3499C19.7429 28.452 22.9609 28.9117 24.6972 28.9117V27.4817C23.5734 27.5328 21.8882 27.3796 19.5387 27.022C19.1303 26.9709 19.1814 26.6136 19.5387 26.6136C19.5387 26.6136 22.5011 27.0733 24.6972 27.022V25.8983C24.6972 25.4899 25.0545 25.4385 25.0545 25.8983C25.0545 26.0517 25.1055 26.4604 25.1055 27.022C27.1998 26.9709 29.0892 26.7157 29.9574 26.5622C30.4682 26.4601 30.4171 26.8685 30.1616 26.9196C29.8553 26.9706 27.404 27.4304 25.0542 27.4814C25.0542 27.8898 25.1052 28.4516 25.1052 28.8603C26.6887 28.8093 28.4763 28.7582 30.0595 28.4006C30.6213 28.2985 30.6724 28.7579 30.1616 28.809C28.6295 29.0642 26.4334 29.3198 25.1052 29.3708C25.1052 29.7282 25.1052 30.1879 25.1563 30.4942C27.6592 30.4432 30.0081 30.0858 30.4168 30.0345C30.8258 29.9324 30.9276 30.3918 30.4679 30.4429C30.0595 30.4939 27.0974 30.9032 25.2073 30.9032C25.4115 31.5672 25.4115 32.4864 26.3313 33.2524C27.2505 34.0185 28.7316 33.9674 29.8039 33.3545C30.621 32.8948 31.8985 31.4651 32.3579 31.0564C32.7663 30.699 33.6858 29.8813 34.9113 29.8813C36.0858 29.8813 36.1371 30.5453 36.1882 30.699C36.2398 30.9032 36.2909 31.2609 36.035 31.414C35.8308 31.5672 35.6266 31.5161 35.4221 31.6182C35.269 32.5885 34.9624 33.7122 34.1453 34.3248C33.3282 34.9374 32.0003 35.0398 32.0003 35.0398L32.2555 35.295C32.3576 35.3971 32.8174 35.6524 33.43 35.6013C33.9408 35.5503 34.6044 35.1416 34.86 34.8353C35.2684 34.3245 35.626 33.2011 35.9323 32.4861C36.0344 32.2308 36.2903 31.7711 36.3413 31.5669C36.5966 31.669 36.6987 31.72 37.1584 31.9242C38.1287 32.2816 39.3545 32.435 40.1205 32.435C41.3463 32.384 42.7766 31.6179 43.6448 30.8519C43.7979 30.6987 44.0531 30.3411 44.0531 30.3411C44.0531 30.3411 43.2379 30.0348 42.9827 29.9837Z" fill="#B73048"/>
<path fill-rule="evenodd" clip-rule="evenodd" d="M29.5496 45.6124C29.7538 46.0721 29.6007 46.5826 29.3454 46.9409C28.8346 47.5027 28.1196 47.758 27.4049 47.5538C26.9965 47.4517 26.5878 47.1964 26.3326 46.7367C26.1791 47.094 26.4857 47.4006 26.4347 47.7069C26.3836 47.809 26.2815 47.809 26.2305 47.758C25.8218 47.1961 25.6683 46.3784 26.026 45.7658C26.486 44.9998 27.3031 44.6424 28.2223 44.7445C28.7325 44.8463 29.2944 45.1016 29.5496 45.6124ZM23.3699 45.9187C23.7272 46.4811 23.5741 47.2982 23.2164 47.8087C23.1654 47.9108 23.1143 48.0129 23.0122 47.9108C22.8591 47.7577 23.0633 47.6045 23.0633 47.4C23.1143 47.2469 23.1654 47.0937 23.1143 46.9403C22.6035 47.6042 21.8885 47.9105 21.1225 47.7574C20.5606 47.6553 20.0498 47.2466 19.8456 46.685C19.7432 46.3271 19.7946 45.9184 19.9988 45.6121C20.5096 44.9481 21.4801 44.7439 22.2972 45.0502C22.7059 45.1526 23.1654 45.5103 23.3699 45.9187ZM29.4986 49.8006C29.4475 49.9027 29.3965 49.9027 29.2944 50.0558C29.0391 49.9537 28.7325 49.8516 28.4262 49.7495C25.8725 48.7282 22.6035 49.0345 20.2033 50.0558C20.1522 49.9537 20.1012 49.9027 20.0501 49.8006C22.8591 48.5748 26.6899 48.4216 29.4986 49.8006ZM29.9583 36.2144C29.4986 38.2576 28.222 40.5557 26.1278 41.1176C24.4422 41.5779 22.5014 41.2197 21.378 39.8407C20.5609 38.8194 20.1522 37.5936 19.9988 36.266C20.1012 36.2144 20.203 36.2144 20.3054 36.2144C20.4585 38.1044 21.4801 40.2494 23.3699 40.8623C25.0041 41.3737 26.9962 40.8623 28.1707 39.4323C28.9367 38.4621 29.4475 37.2873 29.7028 36.1129C29.8052 36.1129 29.8562 36.1129 29.9583 36.2144ZM4.82975 0.973471C4.47241 0.616128 3.91056 0.411621 3.34871 0.411621C2.78686 0.46267 0.59082 1.17767 0.59082 4.44667C0.59082 7.66431 2.58266 8.73665 3.75741 8.73665C4.93216 8.73665 6.10691 7.81746 6.51562 6.234C6.56666 6.02981 6.51562 5.97876 6.31111 5.87666L5.54506 5.57037C5.34087 5.51932 5.34087 5.51932 5.23877 5.82561C5.13667 6.02981 4.83007 7.00036 4.01297 7.00036C3.24692 7.00036 2.88958 5.82561 2.88958 4.59982C2.88958 3.37402 3.09378 2.25032 4.06402 2.25032C5.08562 2.25032 5.23877 3.27192 5.34118 3.68031C5.34118 3.83346 5.39223 3.83346 5.54537 3.83346H6.26037C6.41352 3.83346 6.41352 3.83346 6.41352 3.47612V0.871373C6.41352 0.666866 6.41352 0.666866 6.10722 0.666866H5.49401C5.34087 0.666866 5.34087 0.717915 5.23877 0.871373C5.18741 1.02452 5.03395 1.12693 4.82975 0.973471ZM33.9934 2.25032L35.4744 6.94931C35.5254 7.15351 35.5254 7.15351 35.6275 7.15351H35.8828C36.138 7.15351 36.138 7.15351 36.138 7.35802V8.27721C36.138 8.53245 36.138 8.5835 35.9338 8.5835H33.0228C32.7676 8.5835 32.7676 8.53245 32.7676 8.37931V7.4598C32.7676 7.15351 32.8186 7.15351 32.9718 7.15351H33.278C33.4312 7.15351 33.4312 7.15351 33.3801 6.94931L33.1249 6.23432C33.0739 6.08117 33.0228 6.08117 32.8697 6.08117H31.0823L31.4397 5.00883H32.563C32.7162 5.00883 32.7672 5.00883 32.7162 4.85537L32.0522 2.81248C32.0012 2.65933 31.9502 2.65933 31.8991 2.81248L31.2352 4.85537C31.2352 5.00883 31.2352 5.00883 31.4394 5.00883L31.082 6.08117C30.8772 6.08117 30.8772 6.08117 30.8268 6.23432L30.5709 6.94931C30.5205 7.15351 30.5205 7.15351 30.673 7.15351H30.9799C31.1835 7.15351 31.1835 7.20456 31.1835 7.4598V8.37931C31.1835 8.53245 31.1835 8.5835 30.9282 8.5835H28.8857C28.7325 8.5835 28.7325 8.53245 28.7325 8.27721V7.35802C28.7325 7.15351 28.7325 7.15351 28.9878 7.15351H29.1919C29.294 7.15351 29.3451 7.10246 29.3961 7.00036L30.8772 2.25032C30.9282 2.14822 30.9282 2.09717 30.724 2.09717H30.4177C30.2136 2.09717 30.1625 2.09717 30.1625 1.89266V0.97316C30.1625 0.666866 30.2136 0.666866 30.5205 0.666866H34.4528C34.657 0.666866 34.657 0.717915 34.657 0.97316V1.84161C34.657 2.04581 34.657 2.04581 34.3507 2.04581H34.0444C33.9423 2.04612 33.9423 2.09717 33.9934 2.25032ZM41.0412 5.77456H41.552C41.8079 5.77456 41.8079 5.82561 41.8079 5.97876C41.8079 6.38746 41.4506 7.00036 40.6328 7.00036C39.8157 7.00036 39.5094 5.82561 39.5094 4.59982C39.5094 3.37402 39.7136 2.25032 40.6839 2.25032C41.5016 2.25032 41.8079 2.81217 41.91 3.22087C41.961 3.37402 41.961 3.37402 42.1652 3.37402H42.8802C43.0334 3.37402 43.0334 3.37402 43.0334 3.01667V0.871373C43.0334 0.666866 42.9823 0.666866 42.676 0.666866H42.0631C41.91 0.666866 41.91 0.717915 41.8589 0.871373C41.8079 1.02452 41.6031 1.12662 41.3986 0.973471C41.0412 0.616128 40.4794 0.411621 39.9686 0.411621C39.3557 0.46267 37.211 1.17767 37.211 4.44667C37.211 7.66431 39.1515 8.73665 40.3262 8.73665C42.1142 8.73665 43.4931 7.35771 43.4931 4.80401C43.4931 4.54877 43.4931 4.54877 43.1358 4.54877H40.9902C40.786 4.54877 40.786 4.54877 40.786 4.75327V5.62142C40.786 5.77456 40.786 5.77456 41.0412 5.77456ZM47.9369 0.667177C45.9958 0.667177 44.4126 2.45483 44.4126 4.70222C44.4126 6.94931 45.9958 8.73696 47.9369 8.73696C49.8263 8.73696 51.4095 6.94931 51.4095 4.70222C51.4095 2.45483 49.8263 0.667177 47.9369 0.667177L47.8858 2.09748C48.6008 2.09748 49.2137 3.27192 49.2137 4.70222C49.2137 6.13222 48.6008 7.30697 47.8858 7.30697C47.1708 7.30697 46.6084 6.13222 46.6084 4.70222C46.6084 3.27192 47.1708 2.09748 47.8858 2.09748L47.9369 0.667177ZM8.71134 7.00036V2.30168C8.71134 2.14853 8.6603 2.09748 8.50715 2.09748H8.30295C8.04771 2.09748 8.04771 2.09748 8.04771 1.94402V0.871373C8.04771 0.717915 8.04771 0.666866 8.30295 0.666866H11.0608C11.265 0.666866 11.3161 0.717915 11.3161 0.922111V1.84161C11.3161 2.04581 11.3161 2.04581 11.0608 2.04581H10.9077C10.8056 2.04581 10.8056 2.04581 10.8056 2.25001V3.5779C10.8056 3.93524 10.8056 3.93525 11.0608 3.93525H12.5419C12.8482 3.93525 12.8482 3.93524 12.8482 3.5779V2.25032C12.8482 2.04612 12.7971 2.04612 12.695 2.04612H12.5416C12.2863 2.04612 12.2863 2.04612 12.2863 1.84193V0.922422C12.2863 0.718226 12.3374 0.667177 12.5416 0.667177H15.2998C15.6061 0.667177 15.6061 0.718226 15.6061 0.871684V1.94402C15.6061 2.09748 15.555 2.09748 15.3505 2.09748H15.0953C14.9421 2.09748 14.9421 2.09748 14.9421 2.30168V7.00036C14.9421 7.15351 14.9421 7.15351 15.1463 7.15351H15.4016C15.6061 7.15351 15.6061 7.15351 15.6061 7.4598V8.37931C15.6061 8.53245 15.6061 8.5835 15.3505 8.5835H12.4392C12.235 8.5835 12.235 8.5835 12.235 8.27721V7.35802C12.235 7.15351 12.235 7.15351 12.4902 7.15351H12.6434C12.7965 7.15351 12.7965 7.15351 12.7965 6.94931V5.51932C12.7965 5.16198 12.7965 5.16198 12.5413 5.16198H11.0602C10.856 5.16198 10.805 5.21303 10.805 5.51932V6.94931C10.805 7.15351 10.805 7.15351 11.0092 7.15351H11.1113C11.3665 7.15351 11.3665 7.15351 11.3665 7.35802V8.27721C11.3665 8.53245 11.3665 8.5835 11.1623 8.5835H8.30233C8.04708 8.5835 8.04708 8.5835 8.04708 8.37931V7.4598C8.04708 7.15351 8.04709 7.15351 8.25128 7.15351H8.45548C8.71134 7.15351 8.71134 7.15351 8.71134 7.00036ZM17.6496 2.25032C17.6496 2.04612 17.6496 2.04612 17.5475 2.04612H17.2412C17.0367 2.04612 16.9856 2.04612 16.9856 1.84193V0.922422C16.9856 0.718226 17.0367 0.667177 17.2412 0.667177H19.9991C20.3057 0.667177 20.3057 0.718226 20.3057 0.871684V1.94402C20.3057 2.09748 20.3057 2.09748 20.0504 2.09748H19.948C19.7438 2.09748 19.7438 2.09748 19.7438 2.30168V7.00036C19.7438 7.15351 19.7438 7.15351 19.948 7.15351H20.1525C20.3567 7.15351 20.3567 7.15351 20.3567 7.4598V8.37931C20.3567 8.53245 20.3567 8.5835 20.1015 8.5835H17.1901C17.0367 8.5835 16.9856 8.5835 16.9856 8.27721V7.35802C16.9856 7.15351 16.9856 7.15351 17.2412 7.15351H17.4964C17.6496 7.15351 17.6496 7.15351 17.6496 6.94931V2.25032ZM25.617 0.973471C25.2596 0.616128 24.7485 0.411621 24.187 0.411621C23.6251 0.46267 21.4291 1.17767 21.4291 4.44667C21.4291 7.66431 23.3699 8.73665 24.5446 8.73665C25.7704 8.73665 26.9452 7.81746 27.3028 6.234C27.4049 6.02981 27.3539 5.97876 27.0986 5.87666L26.3326 5.57037C26.1791 5.51932 26.1791 5.51932 26.026 5.82561C25.9749 6.02981 25.6176 7.00036 24.8512 7.00036C24.0341 7.00036 23.7278 5.82561 23.7278 4.59982C23.7278 3.37402 23.932 2.25032 24.9023 2.25032C25.8728 2.25032 26.077 3.27192 26.1281 3.68031C26.1794 3.83346 26.1794 3.83346 26.3836 3.83346H27.0986C27.2518 3.83346 27.2518 3.83346 27.2518 3.47612V0.871373C27.2518 0.666866 27.2007 0.666866 26.9455 0.666866H26.2815C26.1791 0.666866 26.1791 0.717915 26.077 0.871373C26.0257 1.02452 25.8725 1.12693 25.617 0.973471ZM8.2519 12.2609V16.9085C8.2519 17.062 8.20085 17.1127 8.04771 17.1127H7.79246C7.639 17.1127 7.58796 17.1127 7.58796 17.3172V18.2878C7.58796 18.492 7.639 18.492 7.84351 18.492H12.1335L10.6525 17.0109C10.3972 17.0109 10.3462 17.0109 10.3462 16.7043V15.3768C10.3462 15.1215 10.3972 15.0701 10.6525 15.0701V13.8954C10.3462 13.8954 10.3462 13.8443 10.3462 13.5891V12.2609C10.3462 11.9543 10.3462 11.9543 10.6525 11.9543C10.9077 11.9543 12.0314 12.0057 12.0314 12.9759C12.0314 13.8951 11.0098 13.8951 10.6525 13.8951V15.0698C10.9587 15.0698 12.0314 15.1212 12.0314 16.0914C12.0314 17.062 11.0098 17.0109 10.6525 17.0109L12.1335 18.492C13.2061 18.492 13.9722 17.5214 13.9722 16.4491C13.9722 15.3254 13.3082 14.917 12.7464 14.5083C13.1037 14.151 13.819 13.7422 13.819 12.6186C13.819 11.3928 12.5932 10.6267 11.8782 10.6267H7.9453C7.63869 10.6267 7.58764 10.6267 7.58764 10.882V11.8525C7.58764 12.0057 7.58764 12.0567 7.8432 12.0567H8.09845C8.2519 12.0567 8.2519 12.0567 8.2519 12.2609ZM21.2759 12.2098V16.2446C21.2759 17.2662 20.7651 18.7472 18.7222 18.7472C16.7304 18.7472 15.7598 17.2662 15.7598 16.2446V12.2098C15.7598 12.0567 15.7085 12.0567 15.5556 12.0567H15.3004C15.0959 12.0567 15.0959 12.0057 15.0959 11.8015V10.933C15.0959 10.6267 15.0959 10.6267 15.4022 10.6267H18.1093C18.3135 10.6267 18.3646 10.6267 18.3646 10.882V11.8015C18.3646 12.0057 18.3646 12.0057 18.058 12.0057H17.8538C17.7006 12.0057 17.7006 12.0057 17.7006 12.1588V16.0914C17.7006 16.4998 18.058 17.2148 18.8754 17.2148C19.8967 17.2148 20.1012 16.4488 20.1012 16.0914V12.2098C20.1012 12.0057 20.0501 12.0057 19.8967 12.0057H19.6925C19.4372 12.0057 19.4372 12.0057 19.4372 11.8015V10.882C19.4372 10.6267 19.4372 10.6267 19.6414 10.6267H21.6843C22.0417 10.6267 22.0417 10.6267 22.0417 10.882V11.8015C22.0417 12.0057 22.0417 12.0567 21.7864 12.0567H21.4801C21.327 12.0567 21.2759 12.0567 21.2759 12.2098ZM30.8271 17.113H30.5712C30.367 17.113 30.367 17.113 30.367 17.3686V18.2881C30.367 18.4923 30.367 18.4923 30.5712 18.4923H35.6275C35.8317 18.4923 35.8828 18.4923 35.8828 18.186V15.9386C35.8828 15.7344 35.8828 15.6834 35.6275 15.6834H34.9125C34.6573 15.6834 34.6573 15.7344 34.6573 15.9896V16.8067C34.6573 17.113 34.6573 17.113 34.4021 17.113H33.3297C32.9724 17.113 32.9724 17.062 32.9724 16.8578V12.3119C32.9724 12.0057 32.9724 12.0057 33.1255 12.0057H33.4318C33.636 12.0057 33.636 11.9543 33.636 11.8015V10.882C33.636 10.6267 33.636 10.6267 33.3808 10.6267H30.6736C30.3673 10.6267 30.3673 10.6267 30.3673 10.882V11.8015C30.3673 12.0057 30.3673 12.0567 30.5715 12.0567H30.8274C30.9805 12.0567 31.0316 12.0567 31.0316 12.3119V16.8575C31.0313 17.062 30.9802 17.113 30.8271 17.113ZM42.5229 16.2959C42.5229 17.9815 40.9391 18.6965 40.2752 18.6965C39.7644 18.6965 39.2028 18.4923 38.8452 18.1857C38.5899 17.9815 38.3854 18.1857 38.3344 18.2878C38.1812 18.492 38.1812 18.492 38.0791 18.492H37.7729C37.4155 18.492 37.4155 18.492 37.4155 18.3388V16.1425C37.4155 15.8362 37.4666 15.8362 37.5687 15.8362H38.0795C38.2837 15.8362 38.2836 15.8362 38.3347 15.9893C38.4368 16.4491 38.9476 17.062 39.7136 17.062C40.122 17.062 40.4286 16.9596 40.4286 16.6022C40.4286 15.8872 40.0202 15.7341 39.2542 15.3254C38.4882 14.917 37.3137 14.4572 37.3137 12.7717C37.3137 11.1372 38.8458 10.4222 39.5098 10.4222C40.0206 10.4222 40.5311 10.6264 40.8887 10.933C41.144 11.1372 41.3485 10.933 41.3995 10.8309C41.5022 10.5757 41.5022 10.5757 41.6037 10.5757H41.9617C42.268 10.5757 42.268 10.5757 42.268 10.7799V12.9248C42.268 13.2825 42.268 13.2825 42.1148 13.2825H41.6551C41.4509 13.2825 41.4509 13.2825 41.3992 13.1294C41.246 12.6696 40.7352 12.0567 39.9182 12.0567C39.5608 12.0567 39.3563 12.2609 39.3563 12.5675C39.3563 13.0273 39.8671 13.436 40.7863 13.8443C41.6548 14.2527 42.5229 14.9167 42.5229 16.2959ZM23.8296 17.113H23.5741C23.3699 17.113 23.3699 17.113 23.3699 17.3686V18.2881C23.3699 18.4923 23.3699 18.4923 23.5741 18.4923H28.6304C28.8346 18.4923 28.8857 18.4923 28.8857 18.186V15.9386C28.8857 15.7344 28.8857 15.6834 28.6304 15.6834H27.9154C27.6602 15.6834 27.6602 15.7344 27.6602 15.9896V16.8067C27.6602 17.113 27.6602 17.113 27.4049 17.113H26.3326C25.9749 17.113 25.9749 17.062 25.9749 16.8578V12.3119C25.9749 12.0057 25.9749 12.0057 26.1281 12.0057H26.4347C26.6389 12.0057 26.6389 11.9543 26.6389 11.8015V10.882C26.6389 10.6267 26.6389 10.6267 26.3836 10.6267H23.6765C23.3702 10.6267 23.3702 10.6267 23.3702 10.882V11.8015C23.3702 12.0057 23.3702 12.0567 23.5744 12.0567H23.8299C23.9831 12.0567 24.0341 12.0567 24.0341 12.3119V16.8575C24.0338 17.062 23.9828 17.113 23.8296 17.113Z" fill="#1F2528"/>
<path fill-rule="evenodd" clip-rule="evenodd" d="M5.80023 20.0242C6.87288 22.1184 9.12028 22.8334 11.3674 22.7313C12.6442 22.7313 13.87 22.5782 15.0958 22.4761V22.5782C14.4829 24.3658 14.0232 26.2045 13.7679 28.0943C10.4992 28.1964 7.17917 27.9411 4.72789 25.7448C3.0937 24.1106 2.68499 21.8121 3.04234 19.5647C3.45073 19.105 3.85943 18.6966 4.21708 18.2368C4.77862 18.7987 5.64708 19.2581 5.80023 20.0242ZM46.4552 19.0539C46.5573 19.4113 46.5573 19.7179 46.6083 20.0242C46.7614 22.5782 45.6891 24.8763 43.4931 26.1535C41.1433 27.5835 38.4367 28.094 35.5761 28.145C35.5251 27.8898 35.474 27.5321 35.474 27.2769C35.2188 25.5913 34.9122 23.9058 34.4527 22.3223C37.5175 22.3223 41.2964 23.1394 43.3399 20.2794C43.5952 19.871 43.8507 19.5134 44.106 19.1046C44.5657 18.9005 45.0252 18.5938 45.4339 18.3897C45.7912 18.5431 46.0975 18.8497 46.4552 19.0539ZM34.7593 31.8227C34.7593 32.793 34.453 33.7632 33.5849 34.2229C33.1719 34.4262 32.7173 34.5311 32.257 34.5292C32.2319 34.4821 32.2187 34.4295 32.2187 34.3761C32.2187 34.3227 32.2319 34.2701 32.257 34.2229C32.9209 34.2229 33.6359 33.9677 33.9933 33.4059C34.2485 32.9975 34.3506 32.4867 34.3506 31.9759C34.4527 31.8738 34.6059 31.8227 34.7593 31.8227ZM17.3429 34.4271C17.1898 34.4271 17.1387 34.4782 16.8832 34.4271C15.7598 34.4271 14.585 33.508 14.6361 31.9759C14.7892 31.9248 14.9424 31.9248 15.0445 31.9759C15.0445 32.844 15.4018 34.0698 17.2915 34.0698C17.394 34.274 17.2919 34.274 17.3429 34.4271Z" fill="white"/>
</svg>
