<svg width="50" height="54" viewBox="0 0 50 54" fill="none" xmlns="http://www.w3.org/2000/svg">
<path d="M49.8007 5.22396C48.2993 5.11073 47.2529 4.71742 46.6865 4.05116C45.7444 2.98325 45.5287 1.18829 45.4813 0.213345C45.4813 0.0929659 45.3853 0 45.2656 0H45.0902C45.0262 0 44.9705 0.0286047 44.9219 0.0691284C44.8899 0.10846 44.8662 0.164478 44.8662 0.225263C44.8745 0.999978 44.5072 3.00351 43.5651 4.11195C42.9737 4.83422 41.9356 5.27998 40.5634 5.40036C40.5065 5.40036 40.4591 5.4087 40.4188 5.42062C40.3631 5.43254 40.3074 5.47664 40.2754 5.53742C40.2434 5.58867 40.2434 5.65303 40.2671 5.71382C40.2908 5.77341 40.2908 5.81036 40.3074 5.86638C40.3074 5.94981 40.3631 6.02251 40.4425 6.04635C40.4757 6.05827 40.5468 6.06661 40.5634 6.06661C44.2441 6.07019 44.8745 9.42411 44.9219 11.4145C44.9219 11.5599 45.0499 11.6958 45.3047 11.6958C45.345 11.6958 45.4007 11.6922 45.441 11.6839C45.5287 11.6601 45.601 11.579 45.6093 11.4789C45.6887 10.3991 45.864 8.15477 46.7896 7.30377C47.5812 6.51595 48.5387 6.06304 49.7356 5.92597C49.8316 5.91405 49.9121 5.84135 49.9358 5.74123C49.9358 5.69713 49.9441 5.66495 49.9678 5.61728C49.9998 5.54457 49.9998 5.4969 49.9998 5.44803C49.9998 5.33242 49.9121 5.23946 49.8007 5.22396Z" fill="#00AB96"/>
<path d="M21.2657 19.3813C22.151 18.2728 22.9817 17.1811 23.5161 15.8998C24.0755 14.5947 24.4831 13.2491 24.6431 11.857C24.8256 10.4553 24.7616 9.05371 24.5222 7.66875C24.4748 7.36721 24.3871 7.2075 24.0601 7.23134C22.798 7.33622 21.5288 7.60916 20.2916 7.98579C19.077 8.35169 17.9038 8.87731 16.7614 9.50423C15.6522 10.1264 14.4707 10.7044 13.4729 11.559C13.2335 11.7557 13.4492 12.0334 13.6732 12.2455C15.4602 14.0488 15.3334 14.174 17.1299 15.9761C18.9099 17.7746 18.5425 17.5184 20.3307 19.324C20.5784 19.5648 21.0418 19.6542 21.2657 19.3813Z" fill="#00AB96"/>
<path d="M25.624 24.3545C25.8634 24.6072 25.8634 24.5035 26.1194 24.2544C27.5959 22.7765 33.4003 16.7385 34.878 15.2403C36.3617 13.7517 38.2945 11.7672 38.0551 11.5634C37.0253 10.6683 35.9552 9.73269 34.7974 9.10219C33.6159 8.45977 32.1868 8.33939 30.9093 7.97706C29.6247 7.60043 28.3224 7.312 26.9892 7.23095C26.6218 7.19877 26.3588 7.39543 26.4382 7.76134C26.6538 9.30719 26.6064 11.0938 26.4382 12.6587C26.1988 14.8434 25.8717 15.4775 25.233 16.9232C24.6025 18.3368 23.5159 19.6371 22.4861 20.8624C22.2704 21.1234 24.3063 23.0339 25.624 24.3545Z" fill="#00AB96"/>
<path d="M32.2282 31.1927C34.0164 32.9841 33.8007 32.9793 35.5806 34.7743C37.3701 36.5645 37.6485 36.3726 39.4214 38.1711C39.669 38.4202 40.0044 38.4595 40.2201 38.1866C41.0579 37.1997 41.5769 36.1473 42.192 35.0353C42.8058 33.8947 43.5097 32.7636 43.8771 31.5419C44.2433 30.3012 44.3476 28.6314 44.4519 27.3466C44.4673 27.0295 44.2599 26.9449 43.9482 26.8722C42.5593 26.6684 41.1219 26.5909 39.733 26.7602C38.3525 26.9413 37.0987 27.3299 35.8046 27.8889C33.7284 28.772 33.226 29.474 32.1239 30.3775C31.8442 30.5908 31.9888 30.9448 32.2282 31.1927Z" fill="#00AB96"/>
<path d="M30.184 28.904C30.4068 29.1293 30.6225 28.792 30.8785 28.5905C32.0919 27.5548 36.2514 23.8374 44.2753 24.7122C44.651 24.7527 44.0928 21.9185 43.7243 20.6253C43.3581 19.3404 42.9659 18.1045 42.32 16.9186C41.6896 15.7505 40.93 14.7029 40.0518 13.6671C39.8445 13.4264 39.6217 13.1248 39.406 13.3501C37.9283 14.8352 36.9862 15.6385 35.5096 17.1319C33.8731 18.8065 28.7869 24.0293 27.302 25.5155C27.302 25.5155 28.8663 27.587 30.184 28.904Z" fill="#00AB96"/>
<path d="M19.2948 20.89C18.1442 19.6373 18.1608 19.6135 17.003 18.3525C15.8452 17.1034 15.7812 17.1571 14.6317 15.9115C13.4739 14.647 13.4182 14.6875 12.2687 13.4301C12.0294 13.1738 11.6857 13.0368 11.4534 13.2942C10.695 14.1202 10.1203 15.076 9.53012 15.9878C8.93878 16.9234 8.58801 17.9711 8.17206 18.9794C7.7573 20.0032 7.35794 21.002 7.11856 22.0711C6.87918 23.1474 6.60781 24.2225 6.55093 25.319C6.49523 26.4143 6.60781 27.5192 6.74409 28.6073C6.83889 29.4178 7.16596 30.8314 7.38164 31.6144C7.44563 31.8874 -0.218022 40.644 0.00476517 40.8764C0.301025 41.1816 9.52182 31.3165 10.6393 30.2807C11.7414 29.245 13.7619 26.9769 14.8794 25.9328C15.9969 24.897 15.9412 24.8375 17.0504 23.8053C18.1679 22.7696 18.0885 22.6897 19.1989 21.6456C19.4536 21.4084 19.5259 21.1474 19.2948 20.89Z" fill="#00AB96"/>
<path d="M28.8824 30.1078C27.6606 28.8921 27.4698 28.792 26.2481 27.5715C26.0158 27.3379 26.1201 27.4106 25.9044 27.2294C25.761 27.1055 25.729 27.1698 25.6093 27.2497C24.1873 28.2735 15.9797 36.5808 15.5898 36.147C15.1893 35.7132 24.8106 26.2175 24.5629 25.9816C24.4113 25.829 24.1482 25.5715 23.9159 25.3427C22.7024 24.1175 22.623 24.2021 21.4096 22.9828C21.1702 22.7325 20.9936 22.6491 20.7625 22.8934C19.613 24.0293 19.5099 23.9256 18.3758 25.0662C17.2252 26.2056 17.2252 26.2056 16.0994 27.3546C14.9499 28.494 10.288 33.0076 9.14557 34.1554C8.9299 34.3759 8.94649 34.7013 9.08988 34.998C9.52123 35.7537 10.1363 36.6369 10.6707 37.3508C11.1898 38.054 11.8368 38.6845 12.4672 39.3186C13.0977 39.9491 13.8324 40.4389 14.5185 40.9574C14.8788 41.222 15.3741 41.5915 15.9963 41.9288C15.9963 41.9288 13.9758 44.4746 11.6448 47.204C8.92279 50.4006 5.87249 53.8534 5.99218 53.9893C6.43183 54.4958 23.1018 36.6893 24.2359 35.5451C25.37 34.3973 25.37 34.3878 26.5112 33.2484C27.6452 32.1078 27.5564 32.0231 28.6904 30.8754C28.9381 30.6346 29.1135 30.3498 28.8824 30.1078Z" fill="#00AB96"/>
<path d="M29.904 32.3247C28.8588 33.4283 28.7545 33.3366 27.7247 34.4486C26.6712 35.5522 22.3268 39.8013 21.2733 40.9085C20.2364 42.0169 14.2401 48.4292 14.6075 48.8189C14.7746 48.9942 20.0516 44.0968 20.1796 44.1373C21.098 44.4496 21.9204 44.7785 22.8791 44.9156C23.9646 45.0598 25.0667 45.204 26.1593 45.1647C27.2542 45.117 28.3077 44.7153 29.3849 44.4853C30.4467 44.2612 31.5808 44.1683 32.594 43.7559C33.593 43.3411 34.5908 42.8203 35.5246 42.2339C36.4347 41.651 37.3295 40.9812 38.1519 40.2256C38.4067 40.0015 38.2313 39.7286 38.0002 39.5116C36.7618 38.3269 36.8981 38.4556 35.6443 37.2828C34.4071 36.0981 34.368 35.8693 33.1214 34.6858C31.8842 33.513 31.9079 33.4808 30.6624 32.308C30.4159 32.0601 30.1363 32.0672 29.904 32.3247Z" fill="#00AB96"/>
</svg>
