<svg width="31" height="30" viewBox="0 0 31 30" fill="none" xmlns="http://www.w3.org/2000/svg">
<path d="M25.1633 19.2733C23.3329 19.2733 21.7008 20.0955 20.6567 21.3663L11.9144 16.7629C12.1193 16.2085 12.2316 15.6105 12.2316 14.9938C12.2316 14.3708 12.1193 13.7791 11.9078 13.2184L20.6435 8.62126C21.681 9.89826 23.3197 10.7267 25.1567 10.7267C28.2889 10.7267 30.8462 8.32226 30.8462 5.36337C30.8462 2.40448 28.2955 0 25.1567 0C22.018 0 19.4673 2.40448 19.4673 5.36337C19.4673 5.9863 19.5796 6.5843 19.7911 7.1387L11.062 11.7359C10.0246 10.4527 8.38581 9.6304 6.5488 9.6304C3.41664 9.6304 0.859375 12.0349 0.859375 14.9938C0.859375 17.9527 3.41664 20.3571 6.55541 20.3571C8.39241 20.3571 10.0312 19.5287 11.0752 18.2454L19.8109 22.8488C19.5995 23.4095 19.4805 24.0137 19.4805 24.6366C19.4805 27.5893 22.0312 30 25.17 30C28.3087 30 30.8594 27.5955 30.8594 24.6366C30.8594 21.6777 28.3021 19.2733 25.1633 19.2733ZM25.1633 1.68812C27.3175 1.68812 29.0686 3.33887 29.0686 5.3696C29.0686 7.40033 27.3175 9.05108 25.1633 9.05108C23.0092 9.05108 21.2581 7.40033 21.2581 5.3696C21.2581 3.33887 23.0158 1.68812 25.1633 1.68812ZM6.55541 18.6752C4.40123 18.6752 2.65012 17.0245 2.65012 14.9938C2.65012 12.963 4.40123 11.3123 6.55541 11.3123C8.7096 11.3123 10.4607 12.963 10.4607 14.9938C10.4607 17.0245 8.70299 18.6752 6.55541 18.6752ZM25.1633 28.3119C23.0092 28.3119 21.2581 26.6611 21.2581 24.6304C21.2581 22.5997 23.0092 20.9489 25.1633 20.9489C27.3175 20.9489 29.0686 22.5997 29.0686 24.6304C29.0686 26.6611 27.3175 28.3119 25.1633 28.3119Z" fill="#86A5D9"/>
</svg>
