<svg width="31" height="30" viewBox="0 0 31 30" fill="none" xmlns="http://www.w3.org/2000/svg">
<path d="M25.1636 19.2733C23.3332 19.2733 21.701 20.0955 20.657 21.3663L11.9147 16.7629C12.1195 16.2085 12.2319 15.6105 12.2319 14.9938C12.2319 14.3708 12.1195 13.7791 11.9081 13.2184L20.6438 8.62126C21.6812 9.89826 23.32 10.7267 25.157 10.7267C28.2891 10.7267 30.8464 8.32226 30.8464 5.36337C30.8464 2.40448 28.2957 0 25.157 0C22.0182 0 19.4676 2.40448 19.4676 5.36337C19.4676 5.9863 19.5799 6.5843 19.7913 7.1387L11.0623 11.7359C10.0248 10.4527 8.38605 9.6304 6.54905 9.6304C3.41689 9.6304 0.859619 12.0349 0.859619 14.9938C0.859619 17.9527 3.41689 20.3571 6.55565 20.3571C8.39266 20.3571 10.0314 19.5287 11.0755 18.2454L19.8112 22.8488C19.5997 23.4095 19.4808 24.0137 19.4808 24.6366C19.4808 27.5893 22.0314 30 25.1702 30C28.309 30 30.8596 27.5955 30.8596 24.6366C30.8596 21.6777 28.3024 19.2733 25.1636 19.2733ZM25.1636 1.68812C27.3178 1.68812 29.0689 3.33887 29.0689 5.3696C29.0689 7.40033 27.3178 9.05108 25.1636 9.05108C23.0094 9.05108 21.2583 7.40033 21.2583 5.3696C21.2583 3.33887 23.016 1.68812 25.1636 1.68812ZM6.55565 18.6752C4.40147 18.6752 2.65037 17.0245 2.65037 14.9938C2.65037 12.963 4.40147 11.3123 6.55565 11.3123C8.70984 11.3123 10.4609 12.963 10.4609 14.9938C10.4609 17.0245 8.70323 18.6752 6.55565 18.6752ZM25.1636 28.3119C23.0094 28.3119 21.2583 26.6611 21.2583 24.6304C21.2583 22.5997 23.0094 20.9489 25.1636 20.9489C27.3178 20.9489 29.0689 22.5997 29.0689 24.6304C29.0689 26.6611 27.3178 28.3119 25.1636 28.3119Z" fill="#146EB4"/>
</svg>
