<svg width="50" height="50" viewBox="0 0 50 50" fill="none" xmlns="http://www.w3.org/2000/svg">
<path d="M0 47C0 48.6569 1.34315 50 3 50H47C48.6569 50 50 48.6569 50 47V3C50 1.34315 48.6569 0 47 0H3C1.34315 0 0 1.34315 0 3V47Z" fill="white"/>
<path d="M45.6677 6.8533C44.4165 6.75895 43.5445 6.43118 43.0725 5.87597C42.2874 4.98604 42.1077 3.49024 42.0682 2.67779C42.0682 2.57747 41.9882 2.5 41.8884 2.5H41.7423C41.689 2.5 41.6425 2.52384 41.6021 2.55761C41.5754 2.59038 41.5556 2.63707 41.5556 2.68772C41.5626 3.33332 41.2564 5.00292 40.4713 5.92662C39.9786 6.52852 39.1135 6.89998 37.9699 7.0003C37.9225 7.0003 37.883 7.00725 37.8494 7.01718C37.803 7.02712 37.7566 7.06387 37.7299 7.11452C37.7033 7.15723 37.7033 7.21086 37.723 7.26152C37.7428 7.31118 37.7428 7.34197 37.7566 7.38865C37.7566 7.45818 37.803 7.51876 37.8692 7.53863C37.8968 7.54856 37.9561 7.55551 37.9699 7.55551C41.0372 7.55849 41.5626 10.3534 41.6021 12.0121C41.6021 12.1333 41.7087 12.2465 41.921 12.2465C41.9546 12.2465 42.001 12.2435 42.0346 12.2366C42.1077 12.2167 42.1679 12.1492 42.1748 12.0657C42.241 11.1659 42.3872 9.29564 43.1584 8.58648C43.8181 7.92996 44.616 7.55253 45.6134 7.43831C45.6934 7.42838 45.7606 7.36779 45.7803 7.28436C45.7803 7.24761 45.7872 7.22079 45.807 7.18107C45.8336 7.12048 45.8336 7.08075 45.8336 7.04003C45.8336 6.94369 45.7606 6.86621 45.6677 6.8533Z" fill="#00AB96"/>
<path d="M21.8879 18.651C22.6256 17.7273 23.3179 16.8176 23.7633 15.7498C24.2294 14.6623 24.5691 13.5409 24.7024 12.3808C24.8545 11.2128 24.8012 10.0448 24.6017 8.89063C24.5622 8.63934 24.4891 8.50625 24.2165 8.52611C23.1648 8.61352 22.1072 8.84097 21.0762 9.15483C20.064 9.45975 19.0863 9.89776 18.1343 10.4202C17.21 10.9387 16.2254 11.4204 15.3939 12.1325C15.1944 12.2964 15.3742 12.5278 15.5608 12.7046C17.05 14.2074 16.9444 14.3116 18.4415 15.8134C19.9247 17.3122 19.6186 17.0986 21.1088 18.6034C21.3152 18.804 21.7013 18.8785 21.8879 18.651Z" fill="#00AB96"/>
<path d="M25.5208 22.7954C25.7202 23.006 25.7202 22.9196 25.9336 22.712C27.164 21.4804 32.001 16.4487 33.2324 15.2003C34.4688 13.9597 36.0795 12.306 35.88 12.1362C35.0218 11.3903 34.1301 10.6106 33.1653 10.0852C32.1807 9.54981 30.9897 9.44949 29.9252 9.14755C28.8547 8.83369 27.7694 8.59333 26.6584 8.5258C26.3523 8.49898 26.133 8.66286 26.1992 8.96778C26.3789 10.256 26.3394 11.7448 26.1992 13.0489C25.9997 14.8695 25.7272 15.3979 25.1949 16.6027C24.6695 17.7807 23.7639 18.8643 22.9058 19.8853C22.726 20.1028 24.4226 21.695 25.5208 22.7954Z" fill="#00AB96"/>
<path d="M31.0241 28.4939C32.5143 29.9867 32.3346 29.9828 33.8179 31.4786C35.309 32.9704 35.5411 32.8105 37.0184 34.3093C37.2248 34.5168 37.5043 34.5496 37.684 34.3222C38.3822 33.4998 38.8148 32.6228 39.3273 31.6961C39.8388 30.7456 40.4254 29.803 40.7316 28.7849C41.0367 27.751 41.1236 26.3595 41.2105 25.2888C41.2234 25.0246 41.0505 24.9541 40.7908 24.8935C39.6334 24.7236 38.4356 24.6591 37.2782 24.8001C36.1277 24.9511 35.0829 25.2749 34.0045 25.7407C32.2743 26.4767 31.8556 27.0617 30.9372 27.8146C30.7042 27.9923 30.8246 28.2873 31.0241 28.4939Z" fill="#00AB96"/>
<path d="M29.3197 26.5868C29.5053 26.7745 29.685 26.4934 29.8983 26.3256C30.9096 25.4625 34.3758 22.3646 41.0624 23.0936C41.3755 23.1274 40.9103 20.7655 40.6032 19.6879C40.2981 18.6172 39.9712 17.5872 39.433 16.5989C38.9076 15.6256 38.2746 14.7525 37.5428 13.8894C37.37 13.6888 37.1844 13.4375 37.0046 13.6252C35.7732 14.8628 34.9881 15.5322 33.7576 16.7767C32.3938 18.1722 28.1553 22.5245 26.918 23.7631C26.918 23.7631 28.2215 25.4893 29.3197 26.5868Z" fill="#00AB96"/>
<path d="M20.246 19.9082C19.2871 18.8643 19.301 18.8445 18.3361 17.7936C17.3713 16.7527 17.318 16.7974 16.3601 15.7595C15.3953 14.7057 15.3489 14.7395 14.3909 13.6916C14.1915 13.4781 13.9051 13.3638 13.7115 13.5784C13.0795 14.2667 12.6005 15.0633 12.1088 15.8231C11.616 16.6027 11.3237 17.4758 10.977 18.3161C10.6314 19.1692 10.2986 20.0016 10.0991 20.8925C9.89964 21.7894 9.6735 22.6853 9.6261 23.599C9.57968 24.5118 9.6735 25.4325 9.78706 26.3393C9.86607 27.0147 10.1386 28.1927 10.3184 28.8452C10.3717 29.0727 3.98531 36.3699 4.17096 36.5636C4.41785 36.8178 12.1018 28.5969 13.0331 27.7338C13.9515 26.8707 15.6352 24.9806 16.5665 24.1105C17.4977 23.2474 17.4513 23.1978 18.3756 22.3376C19.3069 21.4745 19.2407 21.408 20.166 20.5379C20.3784 20.3403 20.4386 20.1227 20.246 19.9082Z" fill="#00AB96"/>
<path d="M28.2353 27.59C27.2171 26.5769 27.0581 26.4935 26.04 25.4764C25.8464 25.2817 25.9333 25.3423 25.7536 25.1914C25.6341 25.0881 25.6074 25.1417 25.5077 25.2082C24.3227 26.0614 17.483 32.9842 17.1581 32.6227C16.8243 32.2611 24.8421 24.3481 24.6357 24.1515C24.5093 24.0243 24.2901 23.8098 24.0965 23.6191C23.0853 22.5981 23.0191 22.6686 22.0079 21.6525C21.8084 21.4439 21.6613 21.3744 21.4687 21.578C20.5108 22.5246 20.4249 22.4381 19.4798 23.3887C18.5209 24.3382 18.5209 24.3382 17.5827 25.2956C16.6248 26.2452 12.7399 30.0065 11.7879 30.963C11.6082 31.1467 11.622 31.4179 11.7415 31.6652C12.1009 32.2949 12.6135 33.0309 13.0589 33.6258C13.4914 34.2118 14.0306 34.7372 14.556 35.2656C15.0813 35.791 15.6936 36.1993 16.2654 36.6313C16.5656 36.8518 16.9784 37.1597 17.4968 37.4408C17.4968 37.4408 15.8131 39.5623 13.8706 41.8368C11.6022 44.5006 9.06033 47.378 9.16007 47.4912C9.52645 47.9134 23.4181 33.0746 24.3631 32.1211C25.3082 31.1646 25.3082 31.1567 26.2592 30.2071C27.2043 29.2566 27.1302 29.1861 28.0753 28.2296C28.2817 28.029 28.4278 27.7916 28.2353 27.59Z" fill="#00AB96"/>
<path d="M29.0867 29.4372C28.2157 30.3569 28.1288 30.2804 27.2707 31.2071C26.3928 32.1268 22.7725 35.6677 21.8945 36.5904C21.0304 37.5141 16.0335 42.8576 16.3397 43.1824C16.4789 43.3284 20.8764 39.2473 20.983 39.281C21.7484 39.5413 22.4337 39.8154 23.2326 39.9296C24.1372 40.0498 25.0556 40.17 25.9661 40.1372C26.8786 40.0975 27.7565 39.7627 28.6542 39.571C29.539 39.3843 30.4841 39.3069 31.3284 38.9632C32.1609 38.6176 32.9924 38.1835 33.7706 37.6948C34.529 37.2092 35.2746 36.651 35.96 36.0213C36.1723 35.8345 36.0261 35.6071 35.8336 35.4263C34.8016 34.4391 34.9152 34.5463 33.8704 33.569C32.8394 32.5817 32.8068 32.391 31.7679 31.4048C30.7369 30.4274 30.7567 30.4006 29.7188 29.4233C29.5134 29.2167 29.2803 29.2226 29.0867 29.4372Z" fill="#00AB96"/>
</svg>
