<svg width="60" height="60" viewBox="0 0 60 60" fill="none" xmlns="http://www.w3.org/2000/svg">
<path d="M46.3514 19.6629C46.3373 19.5891 46.3139 19.5152 46.2856 19.4437C46.2563 19.3734 46.2201 19.3055 46.1778 19.2422C46.1345 19.1777 46.0853 19.118 46.0313 19.0641C45.9774 19.009 45.9177 18.9609 45.8532 18.9176C45.7899 18.8754 45.722 18.8391 45.6515 18.8098C45.5802 18.7805 45.5062 18.7582 45.4324 18.743C45.2812 18.7125 45.1254 18.7125 44.9743 18.743C44.8992 18.7582 44.8254 18.7805 44.7552 18.8098C44.6837 18.8391 44.6156 18.8754 44.5524 18.9176C44.488 18.9609 44.4282 19.009 44.3743 19.0641C44.3204 19.118 44.2712 19.1777 44.229 19.2422C44.1868 19.3055 44.1505 19.3734 44.1212 19.4437C44.0919 19.5152 44.0696 19.5891 44.0544 19.6629C44.0392 19.7391 44.031 19.8164 44.031 19.8926C44.031 19.9687 44.0392 20.0461 44.0544 20.1211C44.0696 20.1961 44.0919 20.2699 44.1212 20.3402C44.1505 20.4117 44.1868 20.4797 44.229 20.543C44.2712 20.6074 44.3204 20.6672 44.3743 20.7211C44.4282 20.775 44.488 20.8242 44.5524 20.8664C44.6157 20.9086 44.6837 20.9449 44.7552 20.9742C44.8255 21.0035 44.8992 21.0258 44.9743 21.041C45.0493 21.0562 45.1267 21.0644 45.2027 21.0644C45.2789 21.0644 45.3562 21.0562 45.4324 21.041C45.5062 21.0258 45.5802 21.0035 45.6515 20.9742C45.722 20.9449 45.7899 20.9086 45.8532 20.8664C45.9177 20.8242 45.9774 20.775 46.0313 20.7211C46.0853 20.6672 46.1345 20.6074 46.1778 20.543C46.22 20.4797 46.2563 20.4117 46.2856 20.3402C46.3138 20.2699 46.3373 20.1961 46.3514 20.1211C46.3666 20.0461 46.3747 19.9687 46.3747 19.8926C46.3747 19.8164 46.3666 19.7391 46.3514 19.6629Z" fill="#146EB4"/>
<path d="M45.52 47.5841H39.2772L38.0948 38.059C38.3131 37.9621 38.5303 37.8627 38.745 37.7579C38.7479 37.7565 38.7507 37.755 38.7535 37.7536C38.9695 37.6481 39.1828 37.5373 39.3949 37.424C39.713 37.2539 40.0266 37.0751 40.3354 36.8878C40.5172 36.7775 40.6973 36.6645 40.8755 36.5483C42.4052 35.5518 43.8055 34.3407 45.0273 32.9341L45.0282 32.933C48.1676 29.3184 49.8956 24.6877 49.8938 19.8933C49.8916 14.5795 48.1572 9.91992 45.0102 6.77285C40.5815 2.3441 35.3913 0.00222656 30.0005 0C29.9981 0 29.9952 0 29.9927 0C29.4178 0 28.8459 0.0258984 28.2782 0.0747656C27.9805 0.10043 27.6839 0.132422 27.3888 0.171211C27.3441 0.17707 27.2994 0.18293 27.2548 0.189141C23.2388 0.744844 19.4867 2.5125 16.5047 5.26172C16.485 5.27988 16.465 5.29793 16.4454 5.31621C16.1577 5.58363 15.8779 5.86102 15.6051 6.1466C15.4771 6.28055 15.3509 6.4166 15.2265 6.55453C15.1415 6.64863 15.0563 6.7425 14.973 6.83836C11.8329 10.453 10.1045 15.0843 10.1064 19.8792C10.1084 24.6739 11.8402 29.3061 14.983 32.9229C16.9115 35.1423 19.2821 36.8779 21.9069 38.0473L20.7229 47.5842H14.4796C14.1689 47.5842 13.8707 47.7077 13.651 47.9275C13.4312 48.1473 13.3078 48.4453 13.3078 48.7561L13.308 53.8896L13.3078 53.8948L13.308 53.8999L13.3082 58.8282C13.3084 59.4754 13.833 60 14.4801 60H45.5204C45.8312 60 46.1293 59.8765 46.349 59.6568C46.5687 59.437 46.6923 59.1389 46.6923 58.8281L46.6918 48.756C46.6919 48.1087 46.1671 47.5841 45.52 47.5841ZM42.3499 32.3641C42.3239 32.3898 42.2984 32.4161 42.2723 32.4416C42.1682 32.5432 42.063 32.6434 41.9567 32.7422C41.9243 32.7724 41.8911 32.8017 41.8584 32.8316C41.7829 32.9006 41.7072 32.9694 41.6307 33.0371C41.5879 33.0749 41.5447 33.112 41.5016 33.1493C41.4337 33.208 41.3656 33.2665 41.2971 33.3241C41.2509 33.3629 41.2044 33.4014 41.1577 33.4397C41.0902 33.4952 41.0223 33.5502 40.9539 33.6047C40.9071 33.6421 40.8602 33.6793 40.8131 33.7163C40.7415 33.7722 40.6693 33.8271 40.5969 33.8818C40.5528 33.9152 40.5089 33.949 40.4644 33.9818C40.3757 34.0475 40.2863 34.112 40.1964 34.176C40.1678 34.1964 40.1396 34.2173 40.1109 34.2376C39.9939 34.3199 39.8759 34.4005 39.7571 34.4797C39.7163 34.5069 39.675 34.5333 39.6339 34.5601C39.5534 34.6129 39.4728 34.6654 39.3916 34.7167C39.342 34.748 39.2921 34.7786 39.2423 34.8094C39.1681 34.8552 39.0938 34.9007 39.0191 34.9453C38.9667 34.9766 38.9142 35.0075 38.8616 35.0382C38.7874 35.0815 38.7128 35.1241 38.638 35.1663C38.5856 35.1959 38.5331 35.2255 38.4803 35.2545C38.4015 35.2979 38.3219 35.3404 38.2423 35.3825C38.1937 35.4083 38.1452 35.4346 38.0963 35.4599C37.9939 35.513 37.8909 35.5647 37.7875 35.6156C37.7612 35.6286 37.7352 35.6422 37.7088 35.6551C37.5809 35.7175 37.4521 35.7779 37.3228 35.8371C37.276 35.8586 37.2288 35.8789 37.1818 35.8999C37.0965 35.938 37.0111 35.976 36.9252 36.0127C36.8707 36.036 36.8158 36.0586 36.761 36.0814C36.6812 36.1146 36.6012 36.1474 36.5209 36.1794C36.4643 36.2019 36.4075 36.2242 36.3507 36.2462C36.2703 36.2773 36.1896 36.3077 36.1087 36.3376C36.0527 36.3584 35.9968 36.3791 35.9407 36.3993C35.8539 36.4303 35.7669 36.4602 35.6797 36.49C35.6295 36.5071 35.5795 36.5247 35.5291 36.5413C35.4073 36.5815 35.285 36.6204 35.1623 36.6579C35.1378 36.6654 35.1134 36.673 35.0889 36.6804C34.9605 36.7191 34.8316 36.7563 34.7023 36.7921C34.652 36.806 34.6013 36.8189 34.5509 36.8324C34.4607 36.8565 34.3702 36.8803 34.2795 36.903C34.2223 36.9173 34.1648 36.9309 34.1074 36.9448C34.0223 36.9652 33.937 36.9851 33.8514 37.0042C33.7924 37.0174 33.7333 37.0303 33.6741 37.0429C33.5879 37.0611 33.5014 37.0787 33.4149 37.0958C33.4104 37.0968 33.4057 37.0976 33.4011 37.0985C33.3436 37.1096 33.2861 37.1213 33.2285 37.1318C33.1549 37.1455 33.0809 37.1582 33.007 37.1708C32.9102 37.1873 32.8134 37.2038 32.7164 37.2186C32.6704 37.2258 32.6245 37.2323 32.5784 37.2391C32.4563 37.257 32.3341 37.2739 32.2115 37.2893C32.1835 37.2928 32.1555 37.2961 32.1275 37.2995C31.9911 37.3159 31.8546 37.3309 31.7178 37.3441C31.6972 37.3461 31.6767 37.348 31.6561 37.35C31.5164 37.363 31.3764 37.3745 31.2364 37.3842C31.2173 37.3855 31.1981 37.3868 31.179 37.3881L31.1769 26.9227C35.4792 27.2126 39.5267 29.0769 42.5482 32.1643C42.4827 32.2318 42.4166 32.2983 42.3499 32.3641ZM47.5498 19.894C47.5512 23.6862 46.3255 27.3616 44.076 30.3791C40.6305 26.931 36.0427 24.8646 31.1763 24.5756L31.1756 21.0585L41.219 21.0625C41.866 21.0625 42.3911 20.538 42.3914 19.8911C42.3916 19.2438 41.8671 18.7191 41.22 18.7187L31.1751 18.7147L31.1744 15.1976C36.0853 14.9104 40.7103 12.8215 44.1687 9.33387C46.3551 12.0035 47.5482 15.7017 47.5498 19.894ZM31.6419 2.42707C31.6678 2.43035 31.6938 2.43387 31.72 2.43668C31.8604 2.45168 32.0001 2.4682 32.1389 2.48672C32.1932 2.49398 32.2471 2.50231 32.3013 2.51004C32.4119 2.52598 32.5222 2.5425 32.6316 2.56055C32.6908 2.57027 32.7496 2.58059 32.8084 2.5909C32.9137 2.60941 33.0186 2.62898 33.1229 2.64949C33.18 2.66074 33.2371 2.67188 33.294 2.68359C33.4051 2.70668 33.5152 2.73105 33.6252 2.75625C33.6724 2.76703 33.72 2.77734 33.767 2.78848C34.0796 2.86301 34.3871 2.94574 34.6892 3.03621C34.7336 3.04945 34.7775 3.06363 34.8216 3.07723C34.928 3.11004 35.034 3.14344 35.1391 3.17801C35.1916 3.19535 35.2437 3.21316 35.296 3.23098C35.3929 3.26402 35.4894 3.29766 35.5852 3.33211C35.6378 3.35109 35.6903 3.37008 35.7426 3.38941C35.8406 3.42574 35.9377 3.46301 36.0344 3.50086C36.0812 3.51914 36.1283 3.53707 36.1747 3.55582C36.2927 3.60316 36.4096 3.65168 36.5258 3.70113C36.549 3.71098 36.5725 3.72035 36.5956 3.73031C36.7355 3.79055 36.8741 3.85242 37.0114 3.91559C37.0456 3.93129 37.0791 3.9477 37.1131 3.96352C37.215 4.01121 37.3164 4.05926 37.4168 4.10836C37.4635 4.13121 37.5097 4.15453 37.5561 4.17773C37.6436 4.22145 37.7307 4.26563 37.8171 4.31039C37.8653 4.33547 37.9135 4.36066 37.9614 4.38609C38.0469 4.43133 38.1316 4.47715 38.2159 4.52344C38.2609 4.54805 38.3059 4.57266 38.3505 4.5975C38.4444 4.65 38.5373 4.70332 38.6298 4.75688C38.6625 4.77586 38.6957 4.79449 38.7283 4.81359C38.8528 4.88672 38.9758 4.96066 39.0975 5.03566C39.1198 5.04938 39.1415 5.06356 39.1638 5.07727C39.2626 5.13867 39.3607 5.20043 39.4576 5.26289C39.4985 5.28926 39.5387 5.31586 39.5792 5.34234C39.6571 5.39332 39.7347 5.44453 39.8115 5.49621C39.8551 5.52551 39.8983 5.55492 39.9413 5.58445C40.0152 5.63484 40.0883 5.68559 40.1608 5.73645C40.2027 5.76574 40.2445 5.79504 40.2859 5.82457C40.3626 5.87918 40.4383 5.93414 40.5137 5.98922C40.5485 6.01465 40.5837 6.03996 40.6182 6.06551C40.7267 6.14578 40.8342 6.22652 40.9399 6.30762C40.943 6.31008 40.9462 6.31254 40.9494 6.315C41.0523 6.3941 41.1536 6.47356 41.2537 6.55313C41.2877 6.5802 41.321 6.60727 41.3547 6.63445C41.4237 6.68988 41.4924 6.74543 41.56 6.80109C41.598 6.83238 41.6356 6.86367 41.6732 6.89508C41.7363 6.94758 41.7986 7.00008 41.8605 7.05258C41.8977 7.0841 41.9346 7.11563 41.9712 7.14727C42.0344 7.20164 42.0966 7.2559 42.1585 7.31027C42.1913 7.33922 42.2246 7.36805 42.2571 7.39688C42.333 7.46438 42.4079 7.53176 42.4818 7.59914C42.4982 7.61414 42.5152 7.62914 42.5316 7.64402C42.5342 7.64637 42.5366 7.64859 42.5391 7.65094C39.5157 10.7166 35.474 12.5651 31.1743 12.8498L31.1722 2.38688C31.3297 2.39836 31.4865 2.41125 31.6419 2.42707ZM28.9292 39.7427C28.9329 39.743 28.9366 39.743 28.9402 39.7432C29.102 39.7518 29.2638 39.7584 29.4256 39.763C29.4395 39.7634 29.4533 39.7643 29.4672 39.7646C29.4706 39.7648 29.4741 39.7646 29.4775 39.7648C29.6448 39.7691 29.812 39.7717 29.9793 39.7718C29.9885 39.7718 29.9975 39.7722 30.0066 39.7722C30.0095 39.7722 30.0125 39.7722 30.0152 39.7722C30.0978 39.7722 30.1801 39.7698 30.2626 39.7688C30.3282 39.7678 30.3939 39.7676 30.4596 39.7661C30.5779 39.7634 30.6961 39.759 30.8141 39.7542C30.852 39.7527 30.89 39.7514 30.928 39.7496C31.0566 39.7438 31.185 39.7364 31.3133 39.7281C31.3378 39.7264 31.3623 39.7248 31.3868 39.7232C31.5246 39.7137 31.662 39.703 31.7993 39.6907C31.8072 39.69 31.8152 39.6892 31.823 39.6885C32.2912 39.6459 32.7566 39.5885 33.2179 39.5135C33.2906 39.5017 33.3627 39.4877 33.4351 39.4752C33.517 39.461 33.5989 39.4471 33.6806 39.4318C33.7375 39.4212 33.7943 39.4098 33.8511 39.3987C33.9767 39.3743 34.102 39.3488 34.227 39.3219C34.2386 39.3195 34.2505 39.3173 34.2621 39.3148C34.2736 39.3123 34.2848 39.3094 34.2963 39.3068C34.8159 39.1935 35.3306 39.0608 35.8378 38.9067L36.915 47.5839H23.0847L24.1629 38.8986C25.5257 39.3163 26.9278 39.5843 28.3486 39.7021C28.3637 39.7034 28.3788 39.7051 28.3939 39.7064C28.4034 39.7072 28.4129 39.7076 28.4223 39.7083C28.4814 39.713 28.5404 39.7191 28.5996 39.7233C28.7025 39.7304 28.8056 39.7357 28.9086 39.7413C28.9155 39.7417 28.9224 39.7424 28.9292 39.7427ZM17.6565 7.40227C17.6802 7.37895 17.7034 7.35504 17.7271 7.33172C17.8318 7.22941 17.9377 7.12863 18.0448 7.02926C18.0753 7.0009 18.1065 6.97336 18.1372 6.94523C18.2147 6.87434 18.2923 6.80379 18.3709 6.73441C18.4126 6.6975 18.4549 6.66129 18.497 6.62484C18.5659 6.5652 18.635 6.50578 18.7048 6.4473C18.7503 6.4091 18.7961 6.37125 18.842 6.33363C18.9103 6.2775 18.9789 6.22195 19.048 6.16699C19.0944 6.12996 19.1408 6.09305 19.1875 6.05648C19.2593 6.00047 19.3317 5.94539 19.4042 5.89055C19.4484 5.85715 19.4925 5.8234 19.5369 5.79035C19.6248 5.7252 19.7136 5.66133 19.8025 5.59793C19.8321 5.57695 19.8611 5.55527 19.8908 5.53441C20.0075 5.45238 20.1252 5.37199 20.2436 5.29289C20.2858 5.26477 20.3286 5.23758 20.371 5.20981C20.4501 5.15801 20.5292 5.10656 20.609 5.05606C20.6598 5.02406 20.7109 4.99277 20.7618 4.96125C20.8347 4.91625 20.9077 4.8716 20.9812 4.82777C21.0348 4.79578 21.0886 4.76414 21.1425 4.73273C21.2152 4.69031 21.2882 4.64859 21.3616 4.60723C21.4155 4.57687 21.4693 4.54641 21.5236 4.51664C21.6005 4.47434 21.6781 4.43285 21.7558 4.39172C21.8063 4.36488 21.8566 4.3377 21.9073 4.31145C22.0053 4.2607 22.104 4.21137 22.2029 4.1625C22.2338 4.14727 22.2644 4.13133 22.2954 4.11621C22.4223 4.05434 22.5501 3.99434 22.6786 3.93563C22.728 3.91301 22.7779 3.89145 22.8276 3.86918C22.9102 3.83227 22.9931 3.79559 23.0763 3.75996C23.1325 3.73594 23.1891 3.7125 23.2456 3.68906C23.3236 3.65672 23.4017 3.62473 23.4801 3.59344C23.5384 3.57023 23.5967 3.54738 23.6552 3.52477C23.7338 3.49441 23.8127 3.46477 23.8918 3.43547C23.9493 3.41426 24.0068 3.39281 24.0645 3.37219C24.1495 3.34184 24.2349 3.31242 24.3204 3.28336C24.3721 3.26566 24.4238 3.2475 24.4759 3.23039C24.5943 3.19125 24.7133 3.15363 24.8326 3.11707C24.8639 3.10746 24.8952 3.09785 24.9264 3.08836C25.0511 3.05086 25.1763 3.01465 25.3019 2.97996C25.3525 2.9659 25.4035 2.95289 25.4544 2.9393C25.5445 2.91527 25.6347 2.89148 25.7253 2.86887C25.7824 2.85457 25.8397 2.84098 25.897 2.82727C25.9827 2.80676 26.0684 2.78684 26.1545 2.76762C26.2129 2.75461 26.2715 2.74172 26.3301 2.7293C26.4173 2.71078 26.5047 2.69309 26.5923 2.67586C26.6486 2.66473 26.705 2.65348 26.7615 2.64293C26.8578 2.625 26.9544 2.60824 27.0511 2.59184C27.0988 2.58375 27.1463 2.57508 27.1941 2.56746C27.3378 2.54438 27.4818 2.5227 27.6263 2.50313C27.6418 2.50102 27.6573 2.49938 27.6727 2.49738C27.8029 2.48016 27.9334 2.46422 28.0641 2.4498C28.1132 2.44441 28.1625 2.43996 28.2116 2.43492C28.3093 2.42496 28.4071 2.41547 28.5052 2.40715C28.5613 2.40246 28.6174 2.39824 28.6735 2.39402C28.725 2.39016 28.7765 2.38699 28.828 2.38359L28.8263 12.8493C24.5238 12.5598 20.4747 10.6949 17.4523 7.60746C17.5197 7.53856 17.5878 7.47 17.6565 7.40227ZM15.9241 9.39316C19.3716 12.8428 23.9622 14.9095 28.8308 15.1971L28.8315 18.7138L12.489 18.7072C12.7129 15.3335 13.907 12.0988 15.9241 9.39316ZM15.9336 30.3682C13.914 27.6607 12.7169 24.425 12.4899 21.0511L28.832 21.0577L28.8327 24.5746C23.9657 24.8591 19.3779 26.9222 15.9336 30.3682ZM21.7858 35.3834C21.7004 35.3381 21.6153 35.2925 21.5306 35.2459C21.4814 35.2188 21.4325 35.1912 21.3836 35.1635C21.305 35.1192 21.2267 35.0743 21.1487 35.0289C21.0989 34.9998 21.0492 34.9704 20.9996 34.9409C20.9214 34.8942 20.8438 34.8466 20.7663 34.7987C20.7193 34.7696 20.6723 34.7408 20.6255 34.7113C20.5404 34.6574 20.4557 34.6024 20.3715 34.5471C20.334 34.5225 20.2961 34.4985 20.2589 34.4735C20.1385 34.3932 20.0191 34.3116 19.9006 34.2282C19.8791 34.213 19.8579 34.1972 19.8363 34.182C19.7391 34.1129 19.6425 34.0432 19.5466 33.9721C19.5046 33.941 19.4633 33.9091 19.4217 33.8776C19.3466 33.8209 19.2716 33.7637 19.1973 33.7057C19.1519 33.6702 19.1068 33.6343 19.0618 33.5984C18.9915 33.5422 18.9214 33.4856 18.8519 33.4284C18.8068 33.3913 18.7617 33.354 18.7168 33.3164C18.6467 33.2575 18.5771 33.1978 18.5079 33.1378C18.4658 33.1014 18.4236 33.0652 18.3819 33.0282C18.3039 32.9595 18.227 32.8895 18.1502 32.8192C18.1186 32.7902 18.0866 32.7618 18.055 32.7326C17.9483 32.6333 17.8426 32.5328 17.738 32.4307C17.7132 32.4064 17.6891 32.3816 17.6643 32.3571C17.5963 32.2898 17.5286 32.2219 17.4616 32.1533C20.4815 29.0687 24.5284 27.2074 28.8308 26.9218L28.8348 37.3874C28.7855 37.3841 28.7362 37.3811 28.687 37.3773C28.6523 37.3747 28.6177 37.3719 28.583 37.3691C28.5213 37.3641 28.4595 37.3582 28.3978 37.3526C28.3406 37.3473 28.2834 37.3421 28.2263 37.3363C28.1764 37.3311 28.1264 37.3266 28.0766 37.3211C27.9571 37.3078 27.838 37.293 27.719 37.2773C27.6888 37.2734 27.6584 37.2698 27.6282 37.2657C27.4865 37.2464 27.3452 37.2252 27.2042 37.2023C27.1618 37.1954 27.1197 37.1877 27.0773 37.1805C26.975 37.1632 26.8729 37.1455 26.7711 37.1264C26.7179 37.1164 26.6649 37.1058 26.6118 37.0954C26.5205 37.0773 26.4293 37.0588 26.3383 37.0393C26.2829 37.0275 26.2276 37.0153 26.1723 37.003C26.0823 36.9829 25.9926 36.962 25.9031 36.9404C25.8495 36.9275 25.7959 36.9148 25.7425 36.9014C25.6467 36.8774 25.5513 36.8522 25.4559 36.8266C25.4102 36.8143 25.3644 36.8026 25.3189 36.79C25.186 36.7532 25.0537 36.715 24.9219 36.675C24.9145 36.6728 24.9069 36.6708 24.8995 36.6684C24.7604 36.6261 24.6219 36.5818 24.4839 36.5361C24.4405 36.5217 24.3972 36.5064 24.3537 36.4916C24.2593 36.4595 24.165 36.4269 24.071 36.3932C24.0194 36.3746 23.9682 36.3555 23.9169 36.3366C23.8309 36.3048 23.7451 36.2725 23.6596 36.2393C23.6068 36.2188 23.5541 36.198 23.5014 36.1771C23.4162 36.1431 23.3315 36.1083 23.2469 36.073C23.1964 36.0519 23.1458 36.0311 23.0955 36.0095C23.0041 35.9704 22.9133 35.93 22.8225 35.8894C22.7804 35.8705 22.7381 35.8522 22.6962 35.833C22.5646 35.7728 22.4336 35.7111 22.3036 35.6477C22.293 35.6426 22.2826 35.6371 22.272 35.6319C22.1527 35.5736 22.0337 35.5134 21.9153 35.452C21.872 35.4295 21.8289 35.4062 21.7858 35.3834ZM15.652 57.6563L15.6519 55.0665H37.28C37.9271 55.0665 38.4519 54.5419 38.4519 53.8947C38.4519 53.2474 37.9271 52.7228 37.28 52.7228H15.6518L15.6516 49.9277H44.348L44.3485 57.6563H15.652Z" fill="#146EB4"/>
<path d="M42.4794 53.666C42.4641 53.591 42.4419 53.5172 42.4126 53.4468C42.3833 53.3754 42.3469 53.3074 42.3048 53.2441C42.2626 53.1797 42.2134 53.1199 42.1595 53.066C42.1056 53.0121 42.0458 52.9629 41.9814 52.9207C41.9181 52.8785 41.8501 52.8422 41.7786 52.8129C41.7083 52.7836 41.6346 52.7613 41.5595 52.7461C41.4083 52.7156 41.2525 52.7156 41.1013 52.7461C41.0275 52.7613 40.9536 52.7836 40.8822 52.8129C40.8118 52.8422 40.7439 52.8785 40.6806 52.9207C40.6161 52.9629 40.5564 53.0121 40.5025 53.066C40.4486 53.1199 40.3993 53.1797 40.356 53.2441C40.3138 53.3074 40.2775 53.3754 40.2482 53.4468C40.2189 53.5172 40.1966 53.591 40.1814 53.666C40.1661 53.741 40.1591 53.8183 40.1591 53.8945C40.1591 53.9707 40.1661 54.048 40.1814 54.1242C40.1966 54.198 40.2189 54.2718 40.2482 54.3433C40.2775 54.4136 40.3138 54.4816 40.356 54.5449C40.3993 54.6093 40.4486 54.6691 40.5025 54.723C40.5564 54.7769 40.6161 54.8261 40.6806 54.8695C40.7439 54.9117 40.8118 54.948 40.8822 54.9773C40.9536 55.0066 41.0275 55.0289 41.1013 55.0441C41.1775 55.0593 41.2548 55.0664 41.331 55.0664C41.6392 55.0664 41.9415 54.941 42.1595 54.723C42.2134 54.6691 42.2626 54.6093 42.3048 54.5449C42.3469 54.4816 42.3833 54.4136 42.4126 54.3433C42.4419 54.2718 42.4641 54.198 42.4794 54.1242C42.4947 54.048 42.5027 53.9707 42.5027 53.8945C42.5027 53.8183 42.4947 53.741 42.4794 53.666Z" fill="#146EB4"/>
<path d="M27.5727 44.0462C27.5572 44.0298 27.5367 44.0192 27.5146 44.0162L26.8047 43.9107L26.4891 43.2512C26.4598 43.2012 26.3964 43.1851 26.3475 43.2151C26.3331 43.224 26.321 43.2364 26.3123 43.2512L25.9954 43.9082L25.2855 44.0137C25.2317 44.021 25.1938 44.0714 25.2009 44.1265C25.2038 44.1491 25.2142 44.17 25.2303 44.1858L25.7436 44.6971L25.6208 45.4194C25.612 45.4749 25.6488 45.5272 25.7031 45.5362C25.7241 45.5396 25.7456 45.5362 25.7645 45.5262L26.4007 45.187L27.0356 45.5287C27.0845 45.5544 27.1445 45.5347 27.1696 45.4848C27.1793 45.4654 27.1827 45.4434 27.1793 45.4219L27.0565 44.6996L27.5699 44.1883C27.609 44.1499 27.6102 44.0863 27.5727 44.0462ZM26.8821 44.5903C26.8591 44.6136 26.8485 44.6468 26.8539 44.6795L26.9497 45.2523L26.4461 44.9823C26.4173 44.9668 26.3829 44.9668 26.354 44.9823L25.8505 45.2523L25.9463 44.6795C25.9516 44.6468 25.9411 44.6136 25.918 44.5903L25.5115 44.1846L26.074 44.1016C26.1063 44.0969 26.1343 44.0763 26.1489 44.0464L26.3945 43.525L26.6402 44.0464C26.6548 44.0763 26.6828 44.0969 26.7151 44.1016L27.2776 44.1846L26.8821 44.5903Z" fill="#146EB4"/>
<path d="M31.1727 42.8462C31.1572 42.8298 31.1367 42.8192 31.1146 42.8162L30.4047 42.7107L30.0891 42.0512C30.0598 42.0012 29.9964 41.9851 29.9475 42.0151C29.9331 42.024 29.921 42.0364 29.9123 42.0512L29.5954 42.7082L28.8855 42.8137C28.8317 42.821 28.7938 42.8714 28.8009 42.9265C28.8038 42.9491 28.8142 42.97 28.8302 42.9858L29.3436 43.4971L29.2208 44.2194C29.212 44.2749 29.2488 44.3272 29.3031 44.3362C29.3241 44.3396 29.3456 44.3362 29.3645 44.3262L30.0007 43.987L30.6356 44.3287C30.6845 44.3544 30.7445 44.3347 30.7696 44.2848C30.7793 44.2654 30.7827 44.2434 30.7793 44.2219L30.6565 43.4996L31.1699 42.9883C31.209 42.9499 31.2102 42.8863 31.1727 42.8462ZM30.4821 43.3903C30.4591 43.4136 30.4485 43.4468 30.4539 43.4795L30.5497 44.0523L30.0461 43.7823C30.0173 43.7668 29.9829 43.7668 29.954 43.7823L29.4505 44.0523L29.5463 43.4795C29.5516 43.4468 29.5411 43.4136 29.518 43.3903L29.1115 42.9846L29.674 42.9016C29.7063 42.8969 29.7343 42.8763 29.7489 42.8464L29.9945 42.325L30.2402 42.8464C30.2548 42.8763 30.2828 42.8969 30.3151 42.9016L30.8776 42.9846L30.4821 43.3903Z" fill="#146EB4"/>
<path d="M34.7726 41.6462C34.7572 41.6298 34.7367 41.6192 34.7146 41.6162L34.0047 41.5107L33.6891 40.8512C33.6598 40.8012 33.5964 40.7851 33.5475 40.8151C33.5331 40.824 33.521 40.8364 33.5123 40.8512L33.1954 41.5082L32.4855 41.6137C32.4317 41.621 32.3938 41.6714 32.4009 41.7265C32.4038 41.7491 32.4142 41.77 32.4303 41.7858L32.9436 42.2971L32.8208 43.0194C32.812 43.0749 32.8488 43.1272 32.9031 43.1362C32.9241 43.1396 32.9456 43.1362 32.9645 43.1262L33.6007 42.787L34.2356 43.1287C34.2845 43.1544 34.3445 43.1347 34.3696 43.0848C34.3793 43.0654 34.3827 43.0434 34.3793 43.0219L34.2565 42.2996L34.7699 41.7883C34.809 41.7499 34.8102 41.6863 34.7726 41.6462ZM34.0821 42.1903C34.0591 42.2136 34.0485 42.2468 34.0539 42.2795L34.1497 42.8523L33.6461 42.5823C33.6173 42.5668 33.5829 42.5668 33.554 42.5823L33.0505 42.8523L33.1463 42.2795C33.1516 42.2468 33.1411 42.2136 33.118 42.1903L32.7115 41.7846L33.274 41.7016C33.3063 41.6969 33.3343 41.6763 33.3489 41.6464L33.5945 41.125L33.8402 41.6464C33.8548 41.6763 33.8828 41.6969 33.9151 41.7016L34.4776 41.7846L34.0821 42.1903Z" fill="#146EB4"/>
</svg>
