<svg width="100" height="100" viewBox="0 0 100 100" fill="none" xmlns="http://www.w3.org/2000/svg">
<path d="M50 0C22.3858 0 0 22.3858 0 50C0 77.6142 22.3858 100 50 100C77.6142 100 100 77.6142 100 50C99.9673 22.3993 77.6007 0.0327176 50 0ZM66.8062 35.7125C66.0199 25.8724 63.5109 16.2469 59.3938 7.275C66.5945 8.86961 73.2735 12.2639 78.8062 17.1406C75.5347 22.9577 73.5603 29.4137 73.0188 36.0656C70.9594 35.9375 68.8937 35.7937 66.8062 35.7125ZM83.3906 21.7969C87.5459 26.7146 90.5608 32.4914 92.2187 38.7125C88.0469 37.8531 83.7031 37.175 79.2344 36.6687C79.6638 31.4927 81.0743 26.4456 83.3906 21.7969ZM51.4156 6.32187C55.6344 11.4687 59.0125 22.3969 60.5188 35.5563C57.7917 35.5563 55.0615 35.6115 52.3281 35.7219C49.8943 24.8928 43.3789 15.4192 34.1375 9.27188C39.1898 7.28242 44.5701 6.25744 50 6.25C50.4781 6.25 50.9375 6.30625 51.4156 6.32187ZM27.625 12.4719C36.6867 17.5384 43.3116 26.0572 45.9906 36.0875C43.3656 36.2938 40.75 36.5531 38.1781 36.8781C27.3027 38.0725 16.6553 40.8236 6.5625 45.0469C8.12739 31.501 15.9144 19.4577 27.625 12.4719ZM6.35313 52.0594C16.6513 47.3004 27.6615 44.2662 38.9437 43.0781C41.5281 42.7656 44.1594 42.5062 46.8125 42.3094C46.8683 43.8183 46.8182 45.3293 46.6625 46.8312C45.1 61.35 34.0156 73.6219 17.575 79.2687C10.788 71.7774 6.82035 62.1572 6.35313 52.0594ZM22.6031 84.0594C39.7094 77.1844 51.15 63.5531 52.875 47.4969C53.07 45.6558 53.1316 43.8031 53.0594 41.9531C55.7281 41.8531 58.4 41.8135 61.075 41.8344C62.2031 58.0062 60.6469 79.1125 54.5344 92.2438C54.3094 92.7156 54.0688 93.1156 53.8375 93.5531C52.5719 93.6625 51.2969 93.7469 50 93.7469C40.0278 93.7533 30.356 90.3344 22.6031 84.0625V84.0594ZM61.3531 92.2063C66.9375 78.1438 68.4062 57.7031 67.3594 42.0125C69.1781 42.0906 70.9781 42.2219 72.7719 42.3594C73.025 56.275 78.3531 68.4344 86.475 74.1188C80.5755 83.0027 71.6412 89.4329 61.3438 92.2063H61.3531ZM89.5313 68.6375C83.5063 64.0594 79.4031 54.1594 79.0375 42.9594C83.9027 43.5087 88.7348 44.3203 93.5125 45.3906C93.6721 46.9219 93.7514 48.4604 93.75 50C93.7435 56.4495 92.2991 62.8165 89.5219 68.6375H89.5313Z" fill="#146EB4" fill-opacity="0.2"/>
</svg>
