<svg width="22" height="20" viewBox="0 0 22 20" fill="none" xmlns="http://www.w3.org/2000/svg">
<path d="M11 6.5C10.2044 6.5 9.44129 6.81607 8.87868 7.37868C8.31607 7.94129 8 8.70435 8 9.5C8 10.2956 8.31607 11.0587 8.87868 11.6213C9.44129 12.1839 10.2044 12.5 11 12.5C11.7956 12.5 12.5587 12.1839 13.1213 11.6213C13.6839 11.0587 14 10.2956 14 9.5C14 8.70435 13.6839 7.94129 13.1213 7.37868C12.5587 6.81607 11.7956 6.5 11 6.5ZM11 14.5C9.67392 14.5 8.40215 13.9732 7.46447 13.0355C6.52678 12.0979 6 10.8261 6 9.5C6 8.17392 6.52678 6.90215 7.46447 5.96447C8.40215 5.02678 9.67392 4.5 11 4.5C12.3261 4.5 13.5979 5.02678 14.5355 5.96447C15.4732 6.90215 16 8.17392 16 9.5C16 10.8261 15.4732 12.0979 14.5355 13.0355C13.5979 13.9732 12.3261 14.5 11 14.5ZM11 2C6 2 1.73 5.11 0 9.5C1.73 13.89 6 17 11 17C16 17 20.27 13.89 22 9.5C20.27 5.11 16 2 11 2Z" fill="#202A25"/>
</svg>
