<svg width="100" height="100" viewBox="0 0 100 100" fill="none" xmlns="http://www.w3.org/2000/svg">
<g clip-path="url(#clip0)">
<path d="M99.9966 19.0824C99.897 10.5951 95.5536 5.92073 87.7663 5.92073C84.7522 5.92073 81.8479 6.62229 79.9493 7.20764C80.1384 3.7385 80.1413 1.59709 80.1413 1.49065L80.1415 0.00549316H19.86V1.49045C19.86 1.54124 19.8651 3.71643 20.0563 7.2094C18.1579 6.62366 15.2509 5.92073 12.2339 5.92073C4.44677 5.92073 0.103211 10.5949 0.00360151 19.0824C-0.0944454 27.4321 1.80985 34.8645 5.66317 41.1737C9.44638 47.368 14.2819 51.1006 17.6724 53.1407C23.1026 56.4086 28.5298 57.0946 32.1267 57.0946C33.0134 57.0946 33.8677 57.0528 34.6667 56.9703C34.7196 56.9649 34.7686 56.9586 34.8204 56.953C36.5595 58.8258 38.4343 60.326 40.4376 61.4408C41.9143 62.2625 42.9415 63.6955 43.2934 65.3426C41.3022 65.9623 39.8524 67.8227 39.8524 70.0151C39.8524 72.2567 41.3686 74.1498 43.4286 74.726V80.9584H35.3931V87.4625H27.4634V99.9951H72.5378V87.4625H64.6081V80.9584H56.5725V74.726C58.6327 74.1496 60.1489 72.2567 60.1489 70.0151C60.1489 67.8225 58.6991 65.9623 56.7079 65.3426C57.0598 63.6955 58.0868 62.2627 59.5638 61.4408C61.5622 60.3289 63.4499 58.8205 65.1847 56.9537C65.7993 57.0219 66.721 57.0944 67.8733 57.0944C67.8727 57.0944 67.8737 57.0944 67.8733 57.0944C71.4698 57.0944 76.8975 56.408 82.3274 53.1405C85.7177 51.1002 90.5534 47.3678 94.3366 41.1735C98.1905 34.8645 100.095 27.4319 99.9966 19.0824ZM77.147 2.97542C77.1337 3.51858 77.1126 4.20139 77.0802 5.00061H22.9272C22.8936 4.20159 22.8712 3.5178 22.8567 2.97542H77.147ZM79.1669 16.6108C81.179 15.941 83.7868 15.2656 86.1229 15.2656C88.0817 15.2656 89.4921 15.7442 90.3149 16.6879C91.2606 17.7727 91.5655 19.5949 91.2206 22.1047C89.7845 32.559 85.2514 40.7196 78.4561 45.0826C76.0891 46.6026 73.5399 47.2305 71.4036 47.4535C75.9225 37.9553 78.1097 26.0381 79.1669 16.6108ZM22.3624 26.9551C23.8231 34.7901 25.8399 41.5182 28.3571 46.9524C28.435 47.1211 28.5143 47.2873 28.5933 47.4535C26.4577 47.2299 23.91 46.6022 21.544 45.083C14.7489 40.7198 10.2157 32.5594 8.77958 22.1051C8.43485 19.5951 8.73954 17.7727 9.68544 16.6883C10.5083 15.7446 11.9188 15.2662 13.8774 15.2662C16.2155 15.2662 18.8257 15.9426 20.8386 16.6127C21.1981 19.828 21.6897 23.3473 22.3624 26.9551ZM32.1267 54.1246C28.9063 54.1246 24.0499 53.5123 19.204 50.5961C14.2479 47.6137 2.74501 38.5758 2.97352 19.1174C3.05438 12.236 6.08348 8.89085 12.2339 8.89085C15.5231 8.89085 18.7718 9.88245 20.2567 10.4055C20.3307 11.4018 20.4138 12.401 20.5056 13.3961C18.487 12.8032 16.1087 12.2957 13.8774 12.2957C11.0224 12.2957 8.85887 13.1166 7.44676 14.7358C5.9118 16.4961 5.3702 19.1114 5.837 22.5088C6.63661 28.3293 8.3077 33.4739 10.804 37.7992C13.187 41.9285 16.2606 45.22 19.9391 47.5817C23.5321 49.8889 27.4183 50.4707 30.1903 50.5264C30.1997 50.5428 30.2093 50.5584 30.2186 50.5746C30.3706 50.8408 30.5241 51.1026 30.6792 51.361C30.7274 51.4416 30.7761 51.5217 30.8247 51.6016C30.9725 51.8446 31.1216 52.0852 31.2722 52.3209C31.3288 52.4096 31.3862 52.4961 31.4433 52.584C31.5458 52.7416 31.6489 52.8979 31.7528 53.0524C31.8532 53.2018 31.954 53.3496 32.0554 53.4959C32.1548 53.6391 32.2544 53.7815 32.3548 53.9219C32.4018 53.9879 32.4481 54.0565 32.4952 54.1217C32.3757 54.1237 32.2528 54.1246 32.1267 54.1246ZM69.568 90.4328V97.0252H30.4337V90.4328H69.568ZM61.6382 83.9287V87.4627H38.3634V83.9287H61.6382ZM46.3987 80.9586V74.9074H53.6028V80.9586H46.3987ZM57.1792 70.0151C57.1792 71.075 56.3167 71.9373 55.2569 71.9373H44.7448C43.6849 71.9373 42.8225 71.075 42.8225 70.0151C42.8225 68.9551 43.6849 68.0928 44.7448 68.0928H55.2569C56.3169 68.0928 57.1792 68.9551 57.1792 70.0151ZM64.6077 53.0377C64.5913 53.059 64.5749 53.0803 64.5585 53.1016C64.4124 53.2907 64.2651 53.475 64.1171 53.6569C64.0807 53.7012 64.045 53.7463 64.0085 53.7905C63.8458 53.9881 63.6817 54.1815 63.5169 54.3701C63.5089 54.3791 63.5014 54.3885 63.4934 54.3975C61.8374 56.2867 60.0296 57.783 58.12 58.8455C55.7663 60.1549 54.1659 62.4805 53.7257 65.1227H46.2761C45.8356 62.4803 44.2352 60.1549 41.8815 58.8455C40.0386 57.8203 38.3741 56.4498 36.8704 54.8121L36.5071 54.3977C35.0306 52.7137 33.6388 50.6735 32.3706 48.3342L31.9821 47.6172C25.596 35.278 23.6643 17.4438 23.0819 7.97053H76.9305C76.9057 8.38264 76.8786 8.80823 76.8485 9.25022C76.8472 9.27073 76.8456 9.29182 76.8442 9.31233C76.8114 9.79124 76.7763 10.2715 76.739 10.7522C76.738 10.7662 76.7368 10.7803 76.7358 10.7946C76.6171 12.318 76.4765 13.8471 76.3161 15.358L76.219 16.2717C75.1399 25.9451 72.8608 38.2688 68.0548 47.5516L67.6304 48.334C66.686 50.0754 65.6731 51.6508 64.6077 53.0377ZM80.7964 50.5961C75.9501 53.5125 71.0946 54.1246 67.8745 54.1246C67.8747 54.1246 67.8743 54.1246 67.8745 54.1246C67.7481 54.1246 67.6245 54.1237 67.5048 54.1217C67.5067 54.119 67.5087 54.116 67.5106 54.1133C67.7034 53.8473 67.8932 53.5774 68.0802 53.3037C68.103 53.2703 68.1255 53.2362 68.1483 53.2028C68.3063 52.9699 68.462 52.734 68.6159 52.4957C68.6555 52.4346 68.6952 52.3733 68.7345 52.3117C68.9048 52.0444 69.0733 51.7752 69.2386 51.5014C69.2645 51.4586 69.2897 51.4147 69.3155 51.3715C69.4509 51.1453 69.5847 50.917 69.7167 50.6866C69.7475 50.6326 69.7794 50.5811 69.8104 50.5268C72.5825 50.4711 76.4686 49.8893 80.0616 47.5821C83.7401 45.22 86.8138 41.9285 89.1968 37.7996C91.6929 33.4742 93.364 28.3297 94.1638 22.5092C94.6302 19.1115 94.0888 16.4963 92.554 14.7362C91.1421 13.1168 88.9784 12.2959 86.1233 12.2959C83.8923 12.2959 81.5136 12.803 79.4952 13.3961C79.5888 12.3815 79.669 11.4082 79.7378 10.4832C79.7397 10.4574 79.7419 10.4315 79.7438 10.4059C81.2292 9.88264 84.4776 8.89124 87.7667 8.89124C93.9171 8.89124 96.9462 12.2364 97.0272 19.1174C97.255 38.5758 85.7524 47.6135 80.7964 50.5961Z" fill="#146EB4"/>
<path d="M67.8566 11.7313C66.7756 11.6505 66.0222 11.3695 65.6143 10.8936C64.936 10.1308 64.7807 8.84876 64.7466 8.15239C64.7466 8.0664 64.6775 8 64.5913 8H64.465C64.419 8 64.3788 8.02043 64.3439 8.04938C64.3208 8.07747 64.3038 8.11748 64.3038 8.1609C64.3097 8.71426 64.0452 10.1453 63.3669 10.937C62.9411 11.4529 62.1937 11.7713 61.2057 11.8573C61.1647 11.8573 61.1306 11.8633 61.1016 11.8718C61.0615 11.8803 61.0214 11.9118 60.9983 11.9552C60.9753 11.9918 60.9753 12.0378 60.9924 12.0812C61.0094 12.1238 61.0094 12.1502 61.0214 12.1902C61.0214 12.2498 61.0615 12.3017 61.1186 12.3187C61.1425 12.3273 61.1937 12.3332 61.2057 12.3332C63.8558 12.3358 64.3097 14.7314 64.3439 16.1531C64.3439 16.2569 64.436 16.354 64.6195 16.354C64.6485 16.354 64.6886 16.3514 64.7176 16.3455C64.7807 16.3284 64.8328 16.2706 64.8387 16.199C64.8959 15.4278 65.0222 13.8247 65.6886 13.2169C66.2585 12.6542 66.9479 12.3307 67.8097 12.2328C67.8788 12.2242 67.9368 12.1723 67.9539 12.1008C67.9539 12.0693 67.9599 12.0463 67.977 12.0123C68 11.9603 68 11.9263 68 11.8914C68 11.8088 67.9369 11.7424 67.8566 11.7313Z" fill="#146EB4"/>
<path d="M47.3092 21.8429C47.9466 21.0511 48.5447 20.2713 48.9296 19.3562C49.3323 18.424 49.6258 17.4628 49.741 16.4685C49.8724 15.4674 49.8263 14.4662 49.654 13.477C49.6198 13.2616 49.5567 13.1475 49.3212 13.1645C48.4125 13.2395 47.4986 13.4344 46.6079 13.7034C45.7333 13.9648 44.8886 14.3402 44.066 14.788C43.2674 15.2324 42.4167 15.6453 41.6982 16.2557C41.5259 16.3961 41.6812 16.5945 41.8424 16.746C43.1291 18.0341 43.0378 18.1235 44.3314 19.4107C45.613 20.6953 45.3485 20.5123 46.636 21.802C46.8143 21.974 47.148 22.0378 47.3092 21.8429Z" fill="#146EB4"/>
<path d="M50.4463 25.3964C50.6187 25.5769 50.6187 25.5028 50.803 25.3249C51.866 24.2692 56.0449 19.9564 57.1088 18.8863C58.177 17.8229 59.5685 16.4055 59.3962 16.2599C58.6547 15.6206 57.8843 14.9523 57.0508 14.5019C56.2002 14.043 55.1712 13.9571 54.2515 13.6983C53.3267 13.4292 52.389 13.2232 51.4292 13.1653C51.1647 13.1423 50.9753 13.2828 51.0325 13.5442C51.1877 14.6483 51.1536 15.9245 51.0325 17.0423C50.8601 18.6028 50.6246 19.0557 50.1648 20.0883C49.7109 21.098 48.9285 22.0268 48.1871 22.902C48.0318 23.0884 49.4976 24.4531 50.4463 25.3964Z" fill="#146EB4"/>
<path d="M55.2032 30.2805C56.4906 31.5601 56.3354 31.5567 57.6168 32.8388C58.9051 34.1175 59.1056 33.9804 60.382 35.2651C60.5603 35.443 60.8018 35.4711 60.9571 35.2761C61.5602 34.5712 61.9339 33.8195 62.3767 33.0252C62.8187 32.2105 63.3255 31.4026 63.59 30.53C63.8536 29.6437 63.9287 28.451 64.0038 27.5333C64.0149 27.3068 63.8656 27.2464 63.6412 27.1944C62.6412 27.0489 61.6063 26.9935 60.6064 27.1144C59.6124 27.2438 58.7098 27.5213 57.7781 27.9206C56.2833 28.5515 55.9216 29.0529 55.1281 29.6982C54.9268 29.8506 55.0308 30.1034 55.2032 30.2805Z" fill="#146EB4"/>
<path d="M53.7337 28.6445C53.8941 28.8054 54.0494 28.5644 54.2337 28.4206C55.1074 27.6808 58.1021 25.0255 63.8791 25.6503C64.1496 25.6793 63.7477 23.6548 63.4824 22.7311C63.2188 21.8134 62.9364 20.9306 62.4714 20.0835C62.0175 19.2492 61.4706 18.5009 60.8383 17.7611C60.689 17.5891 60.5286 17.3737 60.3733 17.5346C59.3094 18.5954 58.6311 19.1692 57.568 20.2359C56.3897 21.432 52.7278 25.1625 51.6587 26.2241C51.6587 26.2241 52.785 27.7037 53.7337 28.6445Z" fill="#146EB4"/>
<path d="M45.8917 22.9196C45.0632 22.0248 45.0752 22.0078 44.2416 21.1071C43.408 20.2149 43.3619 20.2532 42.5343 19.3636C41.7008 18.4604 41.6607 18.4893 40.8331 17.5912C40.6607 17.4081 40.4133 17.3102 40.2461 17.4941C39.7 18.0841 39.2862 18.7668 38.8614 19.4181C38.4356 20.0864 38.1831 20.8347 37.8836 21.5549C37.585 22.2862 37.2975 22.9996 37.1251 23.7633C36.9528 24.532 36.7574 25.2999 36.7164 26.0831C36.6763 26.8655 36.7574 27.6547 36.8555 28.4319C36.9238 29.0108 37.1592 30.0205 37.3145 30.5798C37.3606 30.7748 31.843 37.0294 32.0034 37.1954C32.2167 37.4134 38.8554 30.367 39.6599 29.6272C40.4534 28.8874 41.9081 27.2673 42.7127 26.5215C43.5172 25.7817 43.4771 25.7392 44.2757 25.0019C45.0803 24.2621 45.0231 24.2051 45.8226 23.4593C46.006 23.2899 46.058 23.1035 45.8917 22.9196Z" fill="#146EB4"/>
<path d="M52.7945 29.5056C51.9149 28.6372 51.7775 28.5657 50.8978 27.6939C50.7306 27.5271 50.8057 27.579 50.6504 27.4496C50.5471 27.3611 50.5241 27.407 50.4379 27.4641C49.414 28.1954 43.5046 34.1291 43.2238 33.8192C42.9354 33.5093 49.8628 26.7268 49.6845 26.5583C49.5753 26.4493 49.3859 26.2654 49.2187 26.102C48.3449 25.2268 48.2878 25.2873 47.4141 24.4164C47.2417 24.2376 47.1146 24.178 46.9482 24.3525C46.1206 25.1638 46.0463 25.0897 45.2298 25.9045C44.4013 26.7183 44.4013 26.7183 43.5907 27.539C42.7631 28.3529 39.4065 31.5768 38.584 32.3966C38.4287 32.5541 38.4406 32.7865 38.5439 32.9985C38.8544 33.5383 39.2973 34.1691 39.6821 34.679C40.0558 35.1813 40.5217 35.6317 40.9756 36.0846C41.4295 36.5349 41.9585 36.8848 42.4525 37.2551C42.7119 37.4441 43.0686 37.708 43.5165 37.949C43.5165 37.949 42.0617 39.7674 40.3834 41.7169C38.4236 44.0002 36.2273 46.4664 36.3135 46.5635C36.6301 46.9253 48.6325 34.2066 49.449 33.3893C50.2656 32.5695 50.2656 32.5626 51.0872 31.7488C51.9038 30.9341 51.8398 30.8736 52.6563 30.0538C52.8347 29.8818 52.9609 29.6784 52.7945 29.5056Z" fill="#146EB4"/>
<path d="M53.531 31.0892C52.7785 31.8775 52.7034 31.8119 51.962 32.6062C51.2035 33.3946 48.0757 36.4295 47.3172 37.2204C46.5707 38.0122 42.2535 42.5923 42.518 42.8707C42.6383 42.9958 46.4376 39.4977 46.5297 39.5267C47.1909 39.7497 47.783 39.9847 48.4733 40.0826C49.2548 40.1856 50.0483 40.2886 50.8349 40.2605C51.6233 40.2265 52.3817 39.9396 53.1573 39.7752C53.9217 39.6152 54.7383 39.5488 55.4677 39.2542C56.187 38.958 56.9053 38.5859 57.5777 38.1671C58.2329 37.7508 58.8771 37.2724 59.4692 36.7326C59.6526 36.5726 59.5263 36.3776 59.36 36.2227C58.4684 35.3764 58.5665 35.4684 57.6638 34.6307C56.7731 33.7845 56.745 33.621 55.8474 32.7757C54.9567 31.9379 54.9737 31.915 54.077 31.0773C53.8996 30.9002 53.6982 30.9053 53.531 31.0892Z" fill="#146EB4"/>
<path d="M54.2373 60H45.0205V57.8516L49.2529 52.4697C49.79 51.7249 50.1839 51.0732 50.4345 50.5146C50.6923 49.9489 50.8213 49.4082 50.8213 48.8926C50.8213 48.1979 50.6995 47.6536 50.456 47.2598C50.2197 46.8659 49.8759 46.6689 49.4248 46.6689C48.9306 46.6689 48.5367 46.8981 48.2431 47.3564C47.9567 47.8148 47.8134 48.4593 47.8134 49.29H44.7627C44.7627 48.3304 44.9596 47.4531 45.3535 46.6582C45.7545 45.8633 46.3131 45.2474 47.0293 44.8105C47.7526 44.3665 48.569 44.1445 49.4785 44.1445C50.875 44.1445 51.9563 44.5312 52.7226 45.3047C53.4961 46.071 53.8828 47.1631 53.8828 48.5811C53.8828 49.4619 53.6679 50.3571 53.2382 51.2666C52.8157 52.1689 52.0459 53.2826 50.9287 54.6074L48.9199 57.4756H54.2373V60Z" fill="#146EB4"/>
<path d="M35.9543 93.3789C35.9285 93.3521 35.8944 93.3348 35.8576 93.33L34.6744 93.158L34.1484 92.0834C34.0994 92.002 33.9938 91.9757 33.9124 92.0246C33.8883 92.0391 33.8681 92.0593 33.8536 92.0834L33.3255 93.1539L32.1424 93.3259C32.0527 93.3377 31.9896 93.4199 32.0014 93.5096C32.0062 93.5464 32.0235 93.5806 32.0503 93.6063L32.9059 94.4394L32.7012 95.6164C32.6865 95.7068 32.7479 95.7919 32.8383 95.8066C32.8733 95.8123 32.9092 95.8066 32.9407 95.7904L34.001 95.2377L35.0593 95.7945C35.1407 95.8364 35.2406 95.8043 35.2825 95.7229C35.2987 95.6913 35.3044 95.6555 35.2987 95.6205L35.0941 94.4435L35.9497 93.6104C36.0149 93.5477 36.0169 93.4441 35.9543 93.3789ZM34.8034 94.2654C34.765 94.3033 34.7474 94.3575 34.7563 94.4108L34.916 95.3442L34.0767 94.9041C34.0286 94.8789 33.9713 94.8789 33.9232 94.9041L33.084 95.3442L33.2436 94.4108C33.2525 94.3575 33.235 94.3033 33.1966 94.2654L32.519 93.6043L33.4565 93.4692C33.5104 93.4615 33.5571 93.4278 33.5814 93.3791L33.9908 92.5296L34.4001 93.3791C34.4245 93.4278 34.4711 93.4615 34.525 93.4692L35.4625 93.6043L34.8034 94.2654Z" fill="#146EB4"/>
<path d="M41.9543 93.3789C41.9285 93.3521 41.8944 93.3348 41.8576 93.33L40.6744 93.158L40.1484 92.0834C40.0994 92.002 39.9938 91.9757 39.9124 92.0246C39.8883 92.0391 39.8681 92.0593 39.8536 92.0834L39.3255 93.1539L38.1424 93.3259C38.0527 93.3377 37.9896 93.4199 38.0014 93.5096C38.0062 93.5464 38.0235 93.5806 38.0503 93.6063L38.9059 94.4394L38.7012 95.6164C38.6865 95.7068 38.7479 95.7919 38.8383 95.8066C38.8733 95.8123 38.9092 95.8066 38.9407 95.7904L40.001 95.2377L41.0593 95.7945C41.1407 95.8364 41.2406 95.8043 41.2825 95.7229C41.2987 95.6913 41.3044 95.6555 41.2987 95.6205L41.0941 94.4435L41.9497 93.6104C42.0149 93.5477 42.0169 93.4441 41.9543 93.3789ZM40.8034 94.2654C40.765 94.3033 40.7474 94.3575 40.7563 94.4108L40.916 95.3442L40.0767 94.9041C40.0286 94.8789 39.9713 94.8789 39.9232 94.9041L39.084 95.3442L39.2436 94.4108C39.2525 94.3575 39.235 94.3033 39.1966 94.2654L38.519 93.6043L39.4565 93.4692C39.5104 93.4615 39.5571 93.4278 39.5814 93.3791L39.9908 92.5296L40.4001 93.3791C40.4245 93.4278 40.4711 93.4615 40.525 93.4692L41.4625 93.6043L40.8034 94.2654Z" fill="#146EB4"/>
<path d="M47.9543 93.3789C47.9285 93.3521 47.8944 93.3348 47.8576 93.33L46.6744 93.158L46.1484 92.0834C46.0994 92.002 45.9938 91.9757 45.9124 92.0246C45.8883 92.0391 45.8681 92.0593 45.8536 92.0834L45.3255 93.1539L44.1424 93.3259C44.0527 93.3377 43.9896 93.4199 44.0014 93.5096C44.0062 93.5464 44.0235 93.5806 44.0503 93.6063L44.9059 94.4394L44.7012 95.6164C44.6865 95.7068 44.7479 95.7919 44.8383 95.8066C44.8733 95.8123 44.9092 95.8066 44.9407 95.7904L46.001 95.2377L47.0593 95.7945C47.1407 95.8364 47.2406 95.8043 47.2825 95.7229C47.2987 95.6913 47.3044 95.6555 47.2987 95.6205L47.0941 94.4435L47.9497 93.6104C48.0149 93.5477 48.0169 93.4441 47.9543 93.3789ZM46.8034 94.2654C46.765 94.3033 46.7474 94.3575 46.7563 94.4108L46.916 95.3442L46.0767 94.9041C46.0286 94.8789 45.9713 94.8789 45.9232 94.9041L45.084 95.3442L45.2436 94.4108C45.2525 94.3575 45.235 94.3033 45.1966 94.2654L44.519 93.6043L45.4565 93.4692C45.5104 93.4615 45.5571 93.4278 45.5814 93.3791L45.9908 92.5296L46.4001 93.3791C46.4245 93.4278 46.4711 93.4615 46.525 93.4692L47.4625 93.6043L46.8034 94.2654Z" fill="#146EB4"/>
</g>
<defs>
<clipPath id="clip0">
<rect width="100" height="100" fill="white"/>
</clipPath>
</defs>
</svg>
