<svg width="40" height="8" viewBox="0 0 40 8" fill="none" xmlns="http://www.w3.org/2000/svg">
<g clip-path="url(#clip0)">
<path fill-rule="evenodd" clip-rule="evenodd" d="M3.63274 0.00393581L1.97985 -3.10986L-5.20654 8.02549L-3.55365 11.1393L3.63274 0.00393581ZM7.16499 -3.10986L8.81788 0.00393581L1.63149 11.1393L-0.0213995 8.02549L7.16499 -3.10986ZM12.3639 -3.10986L14.0168 0.00393581L6.8304 11.1393L5.1775 8.02549L12.3639 -3.10986ZM22.7617 -3.10986L24.4146 0.00393581L17.2282 11.1393L15.5753 8.02549L22.7617 -3.10986ZM34.8124 0.00393581L33.1595 -3.10986L25.9731 8.02549L27.626 11.1393L34.8124 0.00393581ZM27.9606 -3.10986L29.6135 0.00393581L22.4271 11.1393L20.7742 8.02549L27.9606 -3.10986ZM19.2157 0.00393581L17.5628 -3.10986L10.3764 8.02549L12.0293 11.1393L19.2157 0.00393581ZM38.3584 -3.10986L40.0113 0.00393581L32.8249 11.1393L31.172 8.02549L38.3584 -3.10986ZM45.203 0.00393581L43.5501 -3.10986L36.3637 8.02549L38.0166 11.1393L45.203 0.00393581Z" fill="#EEF0F2"/>
</g>
<defs>
<clipPath id="clip0">
<rect width="40" height="8" fill="white"/>
</clipPath>
</defs>
</svg>
