<svg width="40" height="8" viewBox="0 0 40 8" fill="none" xmlns="http://www.w3.org/2000/svg">
<g clip-path="url(#clip0)">
<path fill-rule="evenodd" clip-rule="evenodd" d="M3.63095 0.0368991L1.97837 -3.10986L-5.20667 8.14337L-3.55408 11.2901L3.63095 0.0368991ZM7.16253 -3.10986L8.81511 0.0368991L1.63008 11.2901L-0.022501 8.14337L7.16253 -3.10986ZM12.3605 -3.10986L14.013 0.0368991L6.828 11.2901L5.17542 8.14337L12.3605 -3.10986ZM22.7563 -3.10986L24.4089 0.0368991L17.2238 11.2901L15.5713 8.14337L22.7563 -3.10986ZM34.8047 0.0368991L33.1521 -3.10986L25.9671 8.14337L27.6197 11.2901L34.8047 0.0368991ZM27.9542 -3.10986L29.6068 0.0368991L22.4218 11.2901L20.7692 8.14337L27.9542 -3.10986ZM19.211 0.0368991L17.5584 -3.10986L10.3733 8.14337L12.0259 11.2901L19.211 0.0368991ZM38.3501 -3.10986L40.0026 0.0368991L32.8176 11.2901L31.165 8.14337L38.3501 -3.10986ZM45.1933 0.0368991L43.5408 -3.10986L36.3557 8.14337L38.0083 11.2901L45.1933 0.0368991Z" fill="#146EB4"/>
</g>
<defs>
<clipPath id="clip0">
<rect width="40" height="8" fill="white"/>
</clipPath>
</defs>
</svg>
