<svg width="54" height="37" viewBox="0 0 54 37" fill="none" xmlns="http://www.w3.org/2000/svg">
<path d="M17.6508 5.85452C18.7223 7.26687 19.4322 8.87846 19.719 10.5926C19.7408 10.7187 19.756 10.844 19.7728 10.9701C17.3488 11.2408 14.9375 11.6325 12.548 12.1479C13.7221 9.66114 15.4825 7.5031 17.6508 5.85452ZM26.8882 2.43126V10.5237C25.3112 10.5455 23.7351 10.6178 22.1614 10.7414C22.1396 10.5598 22.1152 10.3782 22.0849 10.1958C21.7409 8.14959 20.915 6.22526 19.6651 4.53633C21.8275 3.33163 24.2792 2.5851 26.8882 2.43126ZM29.2878 2.45984C31.9363 2.67506 34.4141 3.49808 36.5807 4.79358C35.3696 6.45729 34.5865 8.36648 34.2905 10.4093C34.272 10.5371 34.2594 10.6649 34.2451 10.7927C32.5957 10.6481 30.943 10.5623 29.2878 10.5304V2.45984ZM36.6648 10.7523C36.9054 9.08611 37.5496 7.52664 38.548 6.16725C40.5379 7.77548 42.1562 9.82171 43.258 12.1596C41.0653 11.6838 38.8541 11.3106 36.6303 11.0407C36.6421 10.9449 36.6505 10.849 36.6648 10.7523ZM10.9685 18.3345C11.0408 17.1306 11.2401 15.9612 11.5522 14.8372C14.2756 14.1849 17.0334 13.6973 19.809 13.377C19.6752 14.6977 19.2917 15.9881 18.6996 17.2054C19.5995 17.1138 20.4995 17.0348 21.3994 16.97C21.8595 15.7351 22.1446 14.4497 22.2304 13.1416C23.7805 13.0163 25.3339 12.9432 26.8882 12.9213V16.7363C27.6881 16.7271 28.4879 16.7271 29.2878 16.738V12.928C30.9279 12.9608 32.5671 13.0466 34.2013 13.1945C34.3014 14.4867 34.5941 15.7637 35.0584 16.9961C35.96 17.0659 36.8616 17.1516 37.7616 17.2483C37.1711 16.0327 36.7834 14.7532 36.632 13.4535C39.1931 13.7746 41.7365 14.2454 44.2521 14.8498C44.5566 15.9545 44.7551 17.1029 44.8308 18.2832C45.6382 18.4337 46.4448 18.5942 47.2497 18.7674C46.936 8.36648 38.3798 0 27.9 0C17.4018 0 8.83384 8.39675 8.54956 18.8237C9.35446 18.648 10.161 18.4875 10.9685 18.3345Z" fill="#E94E0F"/>
<path d="M26.6848 19.6089C25.0759 19.6333 23.4677 19.6988 21.8621 19.8073C21.4938 20.1965 21.1245 20.5891 20.7561 20.9834V25.7341C18.9874 25.8737 17.4928 26.0208 15.7324 26.262C16.0773 25.8694 16.423 25.4785 16.7678 25.0893C17.6846 24.9741 18.3313 24.9161 19.2489 24.8287C19.4121 24.8136 19.5753 24.7984 19.7376 24.7833V20.6068C20.302 19.999 20.8663 19.3962 21.4324 18.7985C23.3239 18.6631 25.218 18.5858 27.1129 18.5664C26.9708 18.9136 26.827 19.2617 26.6848 19.6089ZM23.1338 28.8959V21.7341C23.8967 21.6938 24.6595 21.6627 25.4232 21.6408V28.8018C24.6595 28.8236 23.8967 28.8547 23.1338 28.8959ZM26.933 30.262C25.2559 30.283 23.5788 30.3486 21.9034 30.4604C22.1574 30.1006 22.4097 29.7425 22.6637 29.386C23.7403 29.323 24.8151 29.2793 25.8925 29.254V21.165C26.2391 20.8111 26.5864 20.4597 26.933 20.1091V30.262ZM21.4349 32.0333C20.8688 31.5071 20.3028 30.9867 19.7376 30.4705V27.3415C20.0774 26.9749 20.4163 26.6101 20.7561 26.2486V29.9611C21.1254 30.294 21.4946 30.6294 21.8638 30.9665C21.7208 31.3221 21.5779 31.6769 21.4349 32.0333ZM14.8754 31.6962C14.5381 32.0922 14.2 32.4898 13.8627 32.8892V19.6543C14.8308 19.5013 15.7997 19.3642 16.7703 19.2415C16.4246 19.6282 16.0781 20.0166 15.7324 20.4075C15.4465 20.4462 15.1605 20.4866 14.8754 20.5286V31.6962ZM27.3333 18.0999C25.2954 18.1167 23.2592 18.1999 21.2255 18.3504C20.5661 19.054 19.9075 19.7652 19.2489 20.4832V24.3646C18.4886 24.4369 17.9991 24.4756 17.2396 24.5672V18.7203C15.9494 18.8766 14.6618 19.0591 13.3774 19.2692V33.4314C14.6618 33.2212 15.9494 33.038 17.2396 32.8824V28.0729C17.9991 27.9812 18.4886 27.9426 19.2489 27.8703V30.7143C19.9075 31.307 20.5661 31.9064 21.2255 32.5134C23.2592 32.362 25.2954 32.2788 27.3333 32.2628C27.9919 31.6029 28.6538 30.9489 29.3149 30.3032V20.0713C28.6538 19.4071 27.9919 18.7505 27.3333 18.0999Z" fill="#202A25"/>
<path d="M8.68909 21.6096C7.79923 21.803 6.91275 22.0089 6.02794 22.2275V22.2284C5.53339 22.3503 5.03969 22.4772 4.54682 22.6075C4.18684 23.0682 3.82686 23.5314 3.46773 23.9963C3.11868 27.28 2.77132 30.5663 2.42312 33.8542C2.10183 33.9475 1.7797 34.0433 1.4601 34.14V34.6427C1.1304 35.0883 0.801539 35.5355 0.474363 35.9853C0.472681 35.1295 0.470999 34.2754 0.470158 33.4187C0.812473 33.3111 1.15479 33.206 1.4971 33.1018V33.0959C1.8226 30.0005 2.14641 26.9084 2.4719 23.8164C3.0228 23.1001 3.57454 22.3889 4.12713 21.6819C6.2584 21.106 8.40312 20.6084 10.5605 20.188C10.2181 20.5974 9.87752 21.0094 9.53604 21.423C9.2526 21.4818 8.97084 21.5407 8.68909 21.602V21.6096ZM5.03716 31.6449C5.28023 29.1909 5.52498 26.7378 5.76805 24.2863C6.11962 24.2023 6.47119 24.1191 6.82191 24.0392C6.9506 24.0081 7.07844 23.9787 7.20628 23.9484V31.1093C6.48212 31.2792 5.7588 31.4565 5.03716 31.6449ZM8.68909 29.7811V32.267C7.15077 32.5999 5.6175 32.9731 4.09264 33.3859C4.3416 32.9757 4.59056 32.5671 4.83951 32.1594C5.77983 31.913 6.72267 31.6827 7.66719 31.4675V23.3683C8.00782 22.948 8.34845 22.5302 8.68909 22.114V29.7811ZM9.81528 32.0358C10.0659 31.6398 10.3174 31.2438 10.5689 30.8487C11.0062 30.7638 11.2787 30.7075 11.7169 30.6285L10.8532 31.8306C10.5066 31.8971 10.161 31.966 9.81528 32.0358ZM11.0365 30.2888V29.0522C11.0357 29.053 11.0348 29.053 11.034 29.053V19.6323C8.64955 20.0846 6.27774 20.6319 3.92527 21.2733C3.28269 22.1031 2.6418 22.9413 2.00174 23.7853C1.67541 26.7823 1.34992 29.7811 1.02274 32.7823C0.682107 32.8874 0.341474 32.9942 0 33.1043V36.5998C0.87303 36.3199 1.74858 36.0526 2.6275 35.8004C2.68806 35.7827 2.74693 35.765 2.80749 35.7482C2.9143 35.7171 3.02112 35.6869 3.12794 35.6574C3.64435 35.5112 4.16245 35.3699 4.68139 35.2329C6.24494 34.821 7.8169 34.4502 9.39474 34.1207C9.77154 34.0433 10.1492 33.9668 10.5268 33.8928C11.0298 33.7945 11.3687 33.7264 11.8725 33.6364C11.9785 33.6179 12.0828 33.5994 12.1871 33.5809V30.0753C11.7481 30.1518 11.4747 30.2056 11.0365 30.2888Z" fill="#202A25"/>
<path d="M38.9719 25.0869C37.394 24.886 35.3847 24.6784 33.8027 24.559C34.06 24.2345 34.3182 23.91 34.5756 23.588C36.0466 23.7107 37.9441 23.9175 39.4101 24.1109C39.2637 24.4371 39.1165 24.7616 38.9719 25.0869ZM39.1317 30.9154C37.4731 30.6993 35.3847 30.4816 33.7202 30.3555C33.9776 30.0344 34.2333 29.7141 34.4898 29.3946C35.558 29.4837 37.0525 29.6392 38.1182 29.7662C38.1342 28.6851 38.151 27.6039 38.1661 26.5237C38.5135 26.2202 38.8617 25.9192 39.209 25.6199C39.183 27.3862 39.1569 29.1508 39.1317 30.9154ZM31.5469 31.92C31.6108 27.5325 31.5679 22.9751 31.6327 18.5885C34.5554 18.7415 37.8995 19.0794 40.8012 19.5098C40.4513 19.8024 40.1006 20.0966 39.749 20.3942C37.5261 20.0891 34.8674 19.8192 32.6327 19.6788C32.5772 23.3778 32.631 27.2467 32.5772 30.9465C32.2332 31.2693 31.8901 31.5938 31.5469 31.92ZM35.002 26.654C35.7573 26.7212 36.9398 26.8448 37.6934 26.9306C37.6825 27.7031 37.6716 28.4774 37.659 29.2517C36.9054 29.1651 35.7068 29.0054 34.9516 28.9381L35.002 26.654ZM39.6346 23.678C38.2527 23.4922 36.4402 23.2904 35.0542 23.166L35.0634 21.8604C37.0105 22.0344 39.2831 22.3085 41.22 22.6052C41.2377 21.4426 41.2545 20.2799 41.2713 19.1189C38.0526 18.6246 34.388 18.2539 31.1432 18.1025C31.0742 22.7978 31.1138 27.662 31.0439 32.3563C31.7017 32.3874 34.3241 32.4597 39.3873 33.0558C40.0484 32.4925 40.8197 31.8418 41.4799 31.292C41.506 29.5005 41.5329 27.7099 41.559 25.9175C40.9173 25.1643 40.2764 24.4178 39.6346 23.678Z" fill="#202A25"/>
<path d="M51.7273 22.7968C51.4506 22.7178 51.173 22.6405 50.8955 22.5648C50.8955 22.5682 50.8955 22.5698 50.8955 22.5732C50.0191 22.3344 49.5229 22.2041 48.6406 21.9914V21.9923C48.1494 21.8729 47.6565 21.7577 47.1637 21.6468C46.7927 21.9284 46.4244 22.2142 46.0543 22.5009C45.3949 25.7174 44.7363 28.9397 44.0769 32.1671C43.6783 32.4092 43.2779 32.6538 42.8784 32.901C43.6059 29.2045 44.3326 25.5148 45.0601 21.8334C45.6304 21.3904 46.1973 20.9532 46.765 20.5194C47.3983 20.659 48.0325 20.8052 48.6633 20.9582C48.9274 21.0213 49.1906 21.0869 49.4539 21.1524C50.6852 21.4627 51.5322 21.7006 52.7526 22.0621C52.4111 22.305 52.0688 22.5497 51.7273 22.7968ZM51.3412 33.7005L50.3101 34.4638L49.8517 23.8283L50.8845 23.0751L51.3412 33.7005ZM46.5724 20.0142C45.9121 20.5253 45.2502 21.0448 44.5883 21.5711C43.8204 25.4879 43.0517 29.4113 42.2812 33.3424C43.6497 33.5778 44.7052 33.7921 46.0635 34.0897C46.7196 30.6749 47.3739 27.2659 48.0266 23.8628L49.3866 24.1823L49.8433 34.8085L53.9999 35.8644L53.2269 21.7384C53.2269 21.7384 48.9341 20.527 46.5724 20.0142Z" fill="#202A25"/>
</svg>
