<svg width="50" height="50" viewBox="0 0 50 50" fill="none" xmlns="http://www.w3.org/2000/svg">
<path d="M49.9207 23.9287C49.8101 23.4369 49.3837 23.3185 49.0559 23.2869C48.1476 23.1802 47.2887 23.0598 46.4733 22.9373C43.8946 22.4989 39.8015 21.5806 35.3372 19.7796C30.4523 17.8088 24.6651 14.5898 21.9502 11.3393C20.8938 10.0419 20.262 8.7543 20.2679 7.55164C20.2679 7.55164 19.5058 1.4416 30.2805 4.75335C30.3358 4.86394 34.0873 15.5792 46.9017 16.9951C47.6915 17.084 48.4636 17.007 48.5445 16.5982C45.0931 6.92365 35.8545 0 24.9968 0C18.1631 0 11.9711 2.743 7.45744 7.18828C7.34687 7.30874 7.2363 7.43118 7.12968 7.55164C6.52746 8.23887 4.89851 10.1722 4.89259 12.3998C4.88666 15.0756 8.00635 17.4256 11.8151 19.2978H11.8369C11.8369 19.2978 20.3607 23.4587 26.3375 24.7798C26.683 24.841 26.7047 24.9141 26.7047 25.0109C26.7027 25.1491 26.606 25.157 26.452 25.2064C20.8089 26.3972 11.8566 30.6845 11.8349 30.6943C11.829 30.6983 4.89456 33.7711 4.89456 37.6002C4.89456 39.8298 6.52943 41.7611 7.13165 42.4484C7.23828 42.5708 7.34687 42.6913 7.45942 42.8117C11.9711 47.257 18.1631 50 24.9968 50C35.8545 50 45.0931 43.0763 48.5445 33.4018C48.4636 32.993 47.6915 32.918 46.9017 33.0029C34.0873 34.4228 30.3358 45.1361 30.2805 45.2467C19.5058 48.5604 20.2679 42.4484 20.2679 42.4484C20.2442 38.0821 28.6022 32.4717 35.347 29.6536C36.2316 29.2843 41.9339 27.1022 49.3224 26.2352C49.7963 26.1957 49.9622 25.7909 49.9819 25.394C50.0135 24.8173 50.0076 24.4342 49.9207 23.9287Z" fill="#E9540D"/>
<path d="M14.4453 25.2066C14.4374 25.2066 14.7099 25.1513 14.7099 25.0111C14.7099 24.8709 14.3821 24.78 14.3821 24.78C12.7868 24.2192 10.5082 23.3009 8.57716 22.3767C5.08627 20.5638 2.33582 18.3382 2.33582 15.8243C2.33582 15.6051 2.12257 15.5715 2.01595 15.5715C1.83232 15.5715 1.72175 15.8658 1.72175 15.8658C0.610116 18.6937 0 21.7764 0 25.0012C0 28.2261 0.610116 31.3068 1.72175 34.1366C1.72175 34.1366 1.83232 34.4289 2.01595 34.4289C2.12257 34.4289 2.33582 34.3973 2.33582 34.1761C2.33582 31.6286 5.1613 29.3754 8.71932 27.5507C10.601 26.6403 12.5952 25.7497 14.4453 25.2066Z" fill="#E9540D"/>
</svg>
