<svg width="39" height="54" viewBox="0 0 39 54" fill="none" xmlns="http://www.w3.org/2000/svg">
<path d="M7.50963 8.33159C10.4239 6.46526 14.1407 7.29253 17.2373 8.16916C18.921 8.64609 20.6609 9.0864 22.4225 9.16204C23.3559 9.19866 24.2323 9.07605 25.1207 8.8547C25.1657 8.84514 25.2886 8.81011 25.4059 8.77985C25.5641 8.73606 25.6188 8.58797 25.5312 8.44783C23.3085 4.91344 19.5926 1.96108 15.2838 1.69992C15.1183 1.68878 14.8564 1.72699 14.703 1.7899C13.1278 2.3767 11.665 3.2605 10.4119 4.38077C9.74034 4.97395 9.12985 5.63561 8.59165 6.34822C8.32737 6.69776 8.08076 7.06322 7.85022 7.43664C7.73053 7.63251 7.61647 7.83395 7.50401 8.03619C7.45822 8.12377 7.24375 8.50277 7.50963 8.33159Z" fill="#95569E"/>
<path d="M26.7321 7.99317C26.8188 8.13012 27.0084 8.19381 27.1578 8.12056C28.0422 7.70096 29.109 7.07673 29.7693 6.56237C29.9163 6.45727 30.1082 6.34501 30.0673 6.1356C30.0311 5.93336 29.7829 5.72794 29.6528 5.57586C29.3395 5.21916 29.007 4.8752 28.6559 4.55512C28.3507 4.29953 27.6494 3.72307 27.6494 3.72307C26.1818 2.60758 24.4781 1.79942 22.6811 1.3623C21.7807 1.13857 20.8601 1.01276 19.9315 0.975342C19.472 0.960214 19.0077 0.963399 18.5418 0.994451C18.4157 1.00321 17.2927 1.05098 17.2871 1.16166C17.8711 1.27631 18.4342 1.43237 18.9716 1.61868C22.2176 2.74851 24.9223 5.12043 26.7321 7.99317Z" fill="#95569E"/>
<path d="M28.734 8.60086C28.534 8.72427 28.3324 8.84052 28.1299 8.95597C28.0046 9.02922 27.8705 9.09371 27.7404 9.16299C27.5942 9.23703 27.5452 9.4337 27.6175 9.58259C27.7958 9.94407 27.9605 10.3183 28.1187 10.6949L28.1412 10.7546H28.142C28.8963 12.6584 29.3461 14.6624 29.4007 16.7111C29.4023 16.8727 29.522 16.9428 29.6658 16.8664C30.4595 16.446 31.2354 15.9865 31.968 15.4762C32.1287 15.3647 32.2853 15.2516 32.4299 15.1282C32.609 14.9833 32.8283 14.8408 32.9336 14.6306C33.0452 14.4268 33.0091 14.1799 33.001 13.953C32.989 13.6632 32.9721 13.3758 32.94 13.0843C32.7657 11.3112 32.2331 9.59613 31.3688 8.03395C31.2418 7.80146 31.1206 7.51721 30.9462 7.31895C30.7904 7.1414 30.6522 7.28711 30.5197 7.39698C30.3245 7.55702 30.1148 7.69875 29.9108 7.84207C29.5285 8.1088 29.1332 8.36518 28.734 8.60086Z" fill="#95569E"/>
<path d="M27.8803 19.0486C27.3711 19.3479 26.8626 19.6378 26.3766 19.9722C25.7227 20.4204 25.101 20.9125 24.4985 21.4181C22.8245 22.821 21.3175 24.4047 19.3776 25.4708C17.951 26.2503 16.3461 26.7663 14.7058 26.7344C14.5427 26.7344 14.3788 26.7265 14.219 26.7089C14.1997 26.7097 13.839 26.6803 14.4616 26.9215C14.9861 27.1254 15.5131 27.3005 16.0545 27.4407C17.1301 27.7154 18.2442 27.865 19.3543 27.8786C20.8083 27.8945 22.2598 27.6811 23.6422 27.2408C23.7997 27.193 24.035 27.0672 24.1604 26.9629C26.5132 25.0671 27.7815 22.1419 28.1085 19.1927C28.1269 19.0311 28.0241 18.9682 27.8803 19.0486Z" fill="#95569E"/>
<path d="M30.763 21.9285C31.3486 21.0319 31.7904 20.051 32.1744 19.0557C32.3848 18.5231 32.5463 17.9673 32.6764 17.4108C32.7359 17.1432 32.7905 16.8709 32.8331 16.6002C32.8499 16.4848 32.9817 15.9314 32.7037 16.1583C31.8755 16.8439 30.5815 17.6265 29.6183 18.1664C29.4745 18.2476 29.3444 18.4435 29.3292 18.6051C29.0737 21.2469 28.1194 23.8561 26.3916 25.9048C26.2863 26.029 26.3136 26.064 26.4542 25.978C28.1499 24.9644 29.689 23.5774 30.763 21.9285Z" fill="#95569E"/>
<path d="M0.350175 17.0907C0.410421 17.3527 0.608831 17.4992 0.842586 17.6019C1.50288 17.8933 2.28126 17.9554 2.99136 18.0207C3.88219 18.0995 4.78026 18.1234 5.67511 18.1027C5.75705 18.1019 5.83898 18.0971 5.9177 18.0979C10.502 17.9498 15.0405 17.2396 19.4505 15.9959C20.8507 15.6018 22.2419 15.1671 23.6107 14.6631C24.2951 14.413 24.9755 14.1463 25.6462 13.8605C25.9804 13.7211 26.3089 13.577 26.6335 13.4289C26.8471 13.331 27.0801 13.245 27.2938 13.1343C27.4416 13.0627 27.5171 12.8572 27.4697 12.7012C27.1982 11.8047 26.8528 10.9256 26.4399 10.0816C26.3676 9.93355 26.1844 9.86508 26.0278 9.92081C25.2101 10.217 24.3345 10.428 23.4766 10.5283C22.2829 10.6653 21.074 10.5705 19.8972 10.3739C17.4849 9.97336 15.157 9.17396 12.6926 9.10867C11.2555 9.06886 9.75256 9.24005 8.46972 9.924C7.84557 10.2592 7.29372 10.7162 6.86878 11.2831C6.40529 11.9074 6.14182 12.6072 5.96831 13.3549C5.83737 14.1893 5.87192 15.0484 5.96349 15.8837C6.00044 16.2412 6.05185 16.5151 6.45831 16.562C6.73544 16.5979 7.01498 16.613 7.2897 16.6281C7.94518 16.66 8.60146 16.6719 9.25613 16.6727C9.53888 16.6759 9.82244 16.6767 10.106 16.6743C10.2209 16.6743 10.3398 16.6727 10.4619 16.6735C10.5004 16.6711 10.7197 16.7181 10.0779 16.816C9.79513 16.8606 9.51639 16.8956 9.23042 16.9259C8.685 16.9872 8.13877 17.0318 7.59334 17.0636C6.49124 17.1273 5.38352 17.1679 4.28223 17.1568C3.7368 17.1496 3.19218 17.1313 2.65237 17.0716C2.40496 17.0469 2.15836 17.0071 1.92219 16.9402C1.75832 16.8925 1.48762 16.8296 1.41372 16.6504C1.286 16.3407 1.91898 16.0182 2.12462 15.9075C2.34391 15.7897 2.56964 15.6878 2.80098 15.6026C3.01465 15.5246 3.01706 15.4211 2.91665 15.4322C2.83713 15.4433 2.67406 15.4848 2.59454 15.4991C2.36319 15.5564 2.13426 15.6241 1.91095 15.7037C1.53742 15.8383 1.16631 15.9959 0.842586 16.2292C0.575897 16.4275 0.269044 16.7284 0.350175 17.0907Z" fill="#95569E"/>
<path d="M27.5926 14.386C25.382 15.4203 23.1457 16.3933 20.8258 17.1768C17.2351 18.3854 13.5103 19.1864 9.7526 19.6681C8.48503 19.8282 7.22469 19.9452 5.95631 20.0328C5.37634 20.0726 4.79396 20.1148 4.21159 20.1419C3.91919 20.1586 3.62359 20.165 3.32878 20.1713C3.05486 20.1745 2.78255 20.1777 2.51185 20.1753C2.38573 20.1753 2.26283 20.1737 2.13993 20.1753C1.97204 20.1777 1.99213 20.2422 2.12788 20.2709C2.4516 20.3393 2.98257 20.4062 3.1625 20.4317C3.87742 20.5487 4.59636 20.6403 5.31529 20.7104C5.75388 20.7574 6.19327 20.7964 6.63267 20.8218C7.02628 20.8489 7.33554 20.8266 7.52672 21.2128C7.64159 21.4461 7.77332 21.669 7.92755 21.8816C7.99503 21.9756 8.20549 22.1595 8.16934 22.294C8.12757 22.4398 7.77413 22.3999 7.66247 22.4047C7.29698 22.4063 6.92908 22.4039 6.56118 22.3976C6.37 22.3912 6.1748 22.3864 5.98041 22.3792C5.73541 22.3713 5.73541 22.4326 5.97639 22.4732C6.70175 22.595 8.20308 22.7813 8.9437 22.8379C9.39113 22.8498 9.83855 22.857 10.2884 22.8498C10.5101 22.849 10.735 22.8474 10.9567 22.8434C11.0852 22.8387 11.2065 22.8355 11.331 22.8331C11.3463 22.8339 11.9303 22.9334 9.79919 23.107C9.69878 23.1149 9.13247 23.1094 9.22003 23.3076C9.261 23.4056 9.70441 23.7304 9.82169 23.818C10.6683 24.4263 11.6483 24.8308 12.6693 25.0386C14.7048 25.451 16.795 25.041 18.6321 24.1261C20.915 22.9875 22.6822 21.0926 24.733 19.6108C25.2872 19.2111 25.8672 18.8456 26.456 18.4945C26.75 18.3185 27.0528 18.1482 27.3524 17.9825C27.4962 17.9061 27.6408 17.8273 27.7822 17.7501C27.8489 17.7142 27.9292 17.6848 28.0023 17.6489C28.1228 17.5868 28.2007 17.3814 28.1975 17.2182C28.1782 16.3248 28.0858 15.4315 27.9204 14.5509C27.8882 14.3884 27.7436 14.316 27.5926 14.386Z" fill="#95569E"/>
<path d="M35.6664 0C35.5933 0 35.5194 0.103508 35.468 0.309727C35.19 1.26598 34.9916 1.70947 34.7555 2.04945C34.5193 2.38864 34.2454 2.62512 33.5473 3.07896C33.4204 3.15301 33.4204 3.2812 33.5473 3.35524C34.2213 3.79316 34.5081 4.05193 34.7442 4.37121C34.9956 4.71438 35.1804 5.13398 35.468 6.12447C35.5194 6.33149 35.5925 6.435 35.6656 6.435C35.7387 6.435 35.811 6.33308 35.8616 6.13084C36.15 5.14832 36.3395 4.73986 36.5958 4.3951C36.8303 4.07741 37.1123 3.8067 37.783 3.35922C37.9091 3.28279 37.9083 3.15141 37.783 3.07498C37.0946 2.61636 36.8191 2.35679 36.5837 2.02557C36.3387 1.6832 36.1427 1.26359 35.8616 0.304154C35.811 0.101915 35.7395 0 35.6664 0ZM35.6688 1.52236C35.807 1.86075 35.9475 2.11872 36.1154 2.3544C36.3363 2.66413 36.5894 2.91653 36.9934 3.2183C36.6094 3.50652 36.3564 3.75813 36.1331 4.0583C35.9572 4.29557 35.8134 4.55514 35.6696 4.90547C35.525 4.53603 35.3828 4.27487 35.2069 4.03601C34.9924 3.74459 34.7466 3.50493 34.3562 3.2183C34.7804 2.91255 35.0133 2.67926 35.227 2.37272C35.3893 2.13943 35.5298 1.87349 35.6688 1.52236Z" fill="#95569E"/>
<path d="M2.0219 6.56152C1.96888 6.56152 1.91587 6.63557 1.87892 6.78367C1.6781 7.4716 1.53592 7.79167 1.36642 8.03531C1.19613 8.27896 0.999326 8.44935 0.497277 8.77579C0.406507 8.82914 0.406507 8.9207 0.497277 8.97405C0.981654 9.28935 1.1881 9.47487 1.35759 9.70418C1.53913 9.9518 1.67087 10.2536 1.87892 10.9654C1.91506 11.1143 1.96808 11.1891 2.0211 11.1891C2.07331 11.1891 2.12552 11.1159 2.16247 10.9702C2.36892 10.2639 2.50547 9.96932 2.68942 9.72169C2.85811 9.49318 3.06054 9.2997 3.54331 8.97724C3.63488 8.9223 3.63408 8.82755 3.54331 8.77261C3.04849 8.44298 2.85008 8.25587 2.68059 8.01859C2.50467 7.77177 2.3641 7.47 2.16247 6.77969C2.12552 6.63398 2.07411 6.56152 2.0219 6.56152ZM2.02431 7.88165C2.10062 8.04248 2.18095 8.17863 2.27172 8.30523C2.41872 8.51145 2.58339 8.68343 2.83 8.87612C2.59624 9.06004 2.43157 9.22884 2.28538 9.42789C2.18898 9.55767 2.10464 9.69542 2.02592 9.86342C1.94479 9.68587 1.86124 9.54414 1.76244 9.41117C1.62106 9.21928 1.46282 9.05765 1.22826 8.87691C1.4829 8.68343 1.63633 8.52419 1.77931 8.31717C1.86847 8.19058 1.9472 8.04965 2.02431 7.88165Z" fill="#95569E"/>
<path d="M11.3633 27.7695C11.3295 27.7695 11.2958 27.8173 11.2725 27.9128C11.144 28.3532 11.0524 28.5578 10.944 28.713C10.8355 28.8699 10.7094 28.9774 10.3881 29.186C10.3303 29.221 10.3303 29.2799 10.3881 29.3142C10.6982 29.5156 10.8299 29.6343 10.9392 29.78C11.0548 29.9384 11.1392 30.1319 11.2725 30.5873C11.2958 30.6821 11.3295 30.7299 11.3625 30.7299C11.3962 30.7299 11.43 30.6829 11.4533 30.5897C11.585 30.1391 11.6725 29.9512 11.7906 29.7919C11.8983 29.6454 12.0284 29.5212 12.3361 29.315C12.3955 29.2807 12.3947 29.2202 12.3361 29.1844C12.0204 28.9742 11.8934 28.8532 11.785 28.7019C11.6725 28.545 11.5826 28.3516 11.4533 27.9097C11.43 27.8173 11.3962 27.7695 11.3633 27.7695Z" fill="#95569E"/>
<path d="M18.8435 52.2355V47.8237C18.829 47.8763 18.8138 47.9288 18.7969 47.983C18.335 49.4846 17.8747 50.9855 17.4112 52.4872C16.7437 52.6034 16.0794 52.7181 15.4119 52.8367V46.6947C15.3436 46.1373 15.2761 45.5848 15.207 45.0274C15.207 45.0274 16.563 44.7917 17.2136 44.6771V49.0762C17.2297 49.0244 17.2458 48.9703 17.2626 48.9185C17.7213 47.4216 18.1824 45.9224 18.6419 44.4271C19.3206 44.3076 20.0034 44.189 20.6822 44.0696V51.9123C20.0717 52.019 19.458 52.1257 18.8435 52.2355Z" fill="#202A25"/>
<path d="M28.4104 47.3628C28.2682 46.397 28.1244 45.4256 27.983 44.4582C27.9172 44.4677 27.8537 44.4805 27.7918 44.49C27.6456 45.51 27.5011 46.5283 27.3549 47.5427C27.7051 47.483 28.0577 47.4233 28.4104 47.3628ZM28.6473 48.9401C28.1413 49.0292 27.628 49.1184 27.1179 49.2076C27.0384 49.7466 26.9653 50.288 26.889 50.8239C26.3042 50.929 25.7178 51.0269 25.1338 51.132C25.578 48.4416 26.0262 45.748 26.4704 43.0576C27.4264 42.8904 28.3766 42.7264 29.3269 42.5608C29.7639 45.1007 30.2025 47.6375 30.6427 50.1774C30.0547 50.2793 29.4667 50.3812 28.8731 50.4807C28.7967 49.968 28.7212 49.4544 28.6473 48.9401Z" fill="#202A25"/>
<path d="M0 44.4206V35.1965L1.05471 33.9082L5.85751 33.0698L6.92828 33.9656V37.3463C6.02781 37.5047 5.12813 37.6624 4.23087 37.82V35.64C4.23087 35.64 2.50944 35.9338 2.13672 35.9927C1.65476 36.0692 1.65475 36.0692 2.38976 36.3518C2.61066 36.437 2.71107 36.527 2.71107 36.7459V42.7478L4.27264 42.4715V39.9499C5.18035 39.7899 6.08645 39.6306 6.99496 39.473V43.1929L5.92418 44.4636L1.05471 45.3164L0 44.4206Z" fill="#202A25"/>
<path d="M15.1531 31.436C14.6149 34.8335 13.4952 42.0639 13.4952 42.0639L12.4396 43.3211L8.99037 43.9246L8.66424 41.7271C8.66424 41.7271 10.4074 41.4253 11.1319 41.2995C11.1319 41.2995 11.2749 40.3162 11.3255 39.9834C10.8757 40.0622 9.70609 40.266 9.70609 40.266L8.74456 39.4467C8.74456 39.4467 7.94932 34.9083 7.57178 32.7585C8.45619 32.6049 9.41852 32.4361 10.3085 32.2816C10.5736 34.1057 10.8387 35.9323 11.1022 37.7588C11.2765 37.7277 11.4516 37.6951 11.6259 37.6656C11.8854 35.7483 12.1448 33.831 12.4051 31.9138C13.2951 31.7585 14.2599 31.5921 15.1531 31.436Z" fill="#202A25"/>
<path d="M15.7153 31.3382C15.8117 32.1472 15.9105 32.9514 16.0093 33.7579V42.697C16.9146 42.5386 17.8223 42.3825 18.7284 42.2233V35.4141H18.73V34.1369C18.73 33.9196 18.6304 33.8296 18.4079 33.7444C17.8665 33.5358 17.7243 33.4817 17.8802 33.4355C18.6071 33.3129 19.8434 33.0995 20.2555 33.0278V41.9573C21.1664 41.7981 22.0773 41.6373 22.9874 41.4804V30.0723C20.5776 30.4903 15.7129 31.3382 15.7153 31.3382Z" fill="#202A25"/>
<path d="M27.3692 38.3727V36.0151C28.2424 35.8591 29.7927 35.5828 29.7927 35.5828L29.7919 33.2443C29.7919 33.2443 28.3155 33.5055 27.3692 33.6687V32.4983C27.3692 32.2801 27.2688 32.1893 27.0471 32.1041C26.4719 31.8828 26.3466 31.835 26.5515 31.788C27.7307 31.5858 29.6224 31.2562 30.5341 31.0985V28.7537C28.489 29.112 24.3296 29.8389 24.3296 29.8389C24.4292 30.6431 24.528 31.452 24.6252 32.2562V41.1969C26.6189 40.8466 28.6143 40.5026 30.6136 40.1539V37.8074C29.5324 37.9985 28.4496 38.1856 27.3692 38.3727Z" fill="#202A25"/>
<path d="M36.2423 34.2826C36.2423 34.2826 35.1265 34.4816 34.7128 34.5517V32.4226H34.7144V31.1455C34.7144 30.9281 34.6148 30.8382 34.3931 30.753C33.8469 30.5428 33.7071 30.4886 33.8686 30.4432C34.7289 30.2951 36.2423 30.0348 36.2423 30.0348V34.2826ZM37.9147 27.4614C37.9147 27.4614 33.7561 28.19 31.7021 28.5467C31.7873 29.3548 31.8732 30.1654 31.9568 30.9759V39.911C32.8749 39.7518 33.7947 39.5901 34.7128 39.4309V36.8488C35.7563 36.6672 37.9051 36.2914 37.9051 36.2914L38.9999 34.9984V28.3564L37.9147 27.4614Z" fill="#202A25"/>
<path d="M23.2712 45.404C23.9724 45.2813 24.9854 45.1054 25.3774 45.0377C25.4778 44.4254 25.5782 43.8107 25.6834 43.1929C24.3966 43.4206 21.7554 43.8816 21.7554 43.8768C21.822 44.4334 21.8895 44.9899 21.957 45.5433V51.6845C22.5747 51.5802 23.1932 51.4679 23.8126 51.3636V46.2615C23.8126 46.2599 23.8126 46.2591 23.8126 46.2575V45.8777C23.8126 45.7328 23.7451 45.6715 23.5973 45.6157C23.2109 45.4669 23.1298 45.435 23.2712 45.404Z" fill="#202A25"/>
<path d="M9.22872 46.0794C9.31547 46.6327 9.39821 47.1821 9.48416 47.7379L9.41026 52.2269C9.22792 52.2604 8.82949 52.328 8.64795 52.3615C8.69856 52.9069 8.75077 53.4523 8.80138 54.0001C9.34198 53.9022 10.4216 53.7151 10.4216 53.7151L11.1823 52.7636L11.2739 47.9982C11.2739 47.8525 11.2064 47.792 11.0586 47.7355C10.6545 47.5802 10.5847 47.5532 10.7533 47.5189C10.7807 47.5141 12.0273 47.296 12.2129 47.2633V53.4013C12.8387 53.2923 13.4684 53.1792 14.0942 53.0701V45.229C12.4475 45.518 9.22872 46.0794 9.22872 46.0794Z" fill="#202A25"/>
</svg>
