<svg width="110" height="150" viewBox="0 0 110 150" fill="none" xmlns="http://www.w3.org/2000/svg">
<path d="M97.6456 33.8623C90.7606 32.3704 83.1517 24.8863 75.7837 17.6242C72.416 14.3002 69.2128 11.1734 66.3034 8.80174C63.5624 6.60358 60.1017 4.43604 55.9852 2.35835C55.3486 2.03629 55.1267 1.2928 55.4251 0.681804C55.7476 0.0746647 56.5029 -0.169956 57.1195 0.124476C61.3961 2.27673 65.013 4.5426 67.8822 6.85903C70.8795 9.27795 74.0713 12.4246 77.4721 15.7773L77.5549 15.8589L77.7503 16.0509C84.4023 22.5866 91.8268 29.8813 97.8954 31.3726C97.9747 30.2944 98.0145 29.229 98.0141 28.1793C98.0231 18.9059 94.9025 12.0093 89.2113 8.72645C88.6026 8.38447 88.4088 7.62104 88.7552 7.01777C89.1257 6.41835 89.8971 6.22515 90.4818 6.56327C96.958 10.3141 100.516 17.9889 100.506 28.165C100.506 29.3193 100.46 30.4902 100.37 31.6746C102.97 31.7322 105.37 31.1115 107.544 29.8594C108.143 29.5164 108.924 29.7151 109.269 30.3076C109.615 30.9001 109.413 31.6731 108.814 32.0161C106.19 33.5623 103.28 34.2809 100.117 34.1775C99.7424 37.1403 99.101 40.1718 98.2061 43.2253C101.428 45.5587 104.053 47.9712 105.92 50.3701C108.66 53.9106 109.62 57.3356 108.708 60.313C108.529 60.9433 107.926 61.3101 107.326 61.2135L107.158 61.1865C106.502 60.9833 106.124 60.288 106.307 59.6339C107.152 56.9142 105.477 53.9356 103.912 51.9266C102.314 49.8661 100.107 47.7903 97.4052 45.7645C96.392 48.7644 95.139 51.7731 93.6589 54.7464C99.1079 57.7864 101.187 63.378 99.6724 70.9638C99.6452 71.1279 99.5859 71.2779 99.5019 71.4092C106.715 76.3768 110.638 81.9743 109.763 87.2554C108.588 94.3427 99.0434 99.2448 85.3379 100.993C71.558 112.904 61.3631 129.032 57.0183 147.798C57.2128 145.584 57.4592 143.354 57.8296 141.119C60.2928 126.257 66.3906 112.875 75.0659 101.69C68.5986 101.78 61.5734 101.276 54.3006 100.107L54.0787 100.071C50.4211 106.97 47.792 114.547 46.4464 122.666C44.8939 132.032 45.1888 141.257 47.0422 150C40.4582 136.64 37.8402 121.208 40.4566 105.423C40.9013 102.739 41.4947 100.123 42.2169 97.5599C36.0597 95.9381 30.4207 93.9238 25.513 91.6485C24.1012 106.664 27.6934 121.124 34.9948 133.322C24.1981 120.911 17.9157 104.792 18.049 87.6379C14.1093 85.1692 10.982 82.5205 8.86622 79.8146C17.6061 85.223 29.979 89.6781 44.0461 91.9406C72.8285 96.5697 97.8524 90.2701 99.9092 77.8603C100.243 75.8494 99.9614 73.8139 99.127 71.7798C98.8769 71.9371 98.5677 72.0065 98.2511 71.9555L98.2031 71.9478C97.5109 71.8121 97.0774 71.1566 97.2117 70.4948C98.4921 64.0307 96.8935 59.4876 92.4998 56.9814C91.9997 57.908 91.4776 58.8301 90.9338 59.7463C86.2853 67.5756 77.301 76.2068 70.08 81.6071C79.4128 82.7401 88.0541 82.5929 95.1946 81.326C85.6422 86.9166 66.6763 88.0399 45.9844 83.3695C18.0457 77.0699 -2.4467 62.5711 0.236061 50.9942C1.47445 45.6041 7.55187 41.7978 16.5136 39.9197C14.5983 41.6619 13.3036 43.6747 12.7813 45.9338C9.93622 58.1924 30.382 73.2695 58.4648 79.5923C61.4042 80.2534 64.3105 80.7926 67.1618 81.2141C67.1815 80.8567 67.3524 80.5119 67.665 80.2891C74.8069 75.1163 84.0955 66.3592 88.7751 58.496C89.268 57.6641 89.7426 56.8272 90.1986 55.9865C83.9181 54.1237 72.8318 56.6236 62.909 58.8611L62.6267 58.9247C58.2182 59.9164 54.0646 60.8507 50.4894 61.3938C38.014 63.2271 22.7058 59.5959 21.9426 59.4148L21.9335 59.4127C21.2452 59.2532 20.8396 58.5777 21.0019 57.896C21.1642 57.2143 21.871 56.8154 22.5353 56.9711C22.5432 56.9724 22.5844 56.9817 22.6571 56.9981C24.1356 57.332 38.6267 60.6045 50.1152 58.8929C53.5773 58.3758 57.7223 57.456 62.103 56.452L62.353 56.3959C72.7775 54.0555 84.4382 51.4376 91.3745 53.7276C92.9419 50.5868 94.2486 47.4075 95.2765 44.2475C88.4863 39.6399 79.2224 35.386 68.9172 32.2885C52.5999 27.3942 36.5283 26.3715 27.946 29.6773C24.9175 30.8499 23.0498 32.4533 22.4468 34.4554C22.2366 35.1294 21.5336 35.5045 20.8812 35.2775C20.2008 35.0705 19.8471 34.3789 20.0295 33.7249C20.8864 30.9338 23.2367 28.7979 27.0283 27.3331C36.2419 23.787 52.5694 24.7534 69.639 29.8663C79.8431 32.9206 89.0733 37.124 96.0384 41.7268C96.7803 39.0689 97.3197 36.4357 97.6456 33.8623Z" fill="white"/>
</svg>
