<svg width="151" height="162" viewBox="0 0 151 162" fill="none" xmlns="http://www.w3.org/2000/svg">
<path d="M150.371 15.6719C145.867 15.3322 142.729 14.1523 141.03 12.1535C138.204 8.94974 137.557 3.56488 137.415 0.640034C137.415 0.278898 137.127 0 136.768 0H136.242C136.05 0 135.883 0.0858141 135.737 0.207385C135.641 0.32538 135.57 0.493434 135.57 0.67579C135.595 2.99993 134.493 9.01053 131.667 12.3358C129.893 14.5027 126.78 15.8399 122.664 16.2011C122.493 16.2011 122.351 16.2261 122.23 16.2619C122.063 16.2976 121.896 16.4299 121.8 16.6123C121.704 16.766 121.704 16.9591 121.775 17.1415C121.846 17.3202 121.846 17.4311 121.896 17.5991C121.896 17.8494 122.063 18.0675 122.301 18.1391C122.401 18.1748 122.614 18.1998 122.664 18.1998C133.704 18.2106 135.595 28.2723 135.737 34.2436C135.737 34.6798 136.121 35.0874 136.885 35.0874C137.006 35.0874 137.173 35.0767 137.294 35.0517C137.557 34.9802 137.774 34.737 137.799 34.4367C138.037 31.1972 138.563 24.4643 141.339 21.9113C143.713 19.5478 146.585 18.1891 150.175 17.7779C150.463 17.7422 150.705 17.524 150.776 17.2237C150.776 17.0914 150.801 16.9949 150.872 16.8518C150.968 16.6337 150.968 16.4907 150.968 16.3441C150.968 15.9973 150.705 15.7184 150.371 15.6719Z" fill="white"/>
<path d="M64.7813 58.1434C67.4365 54.8181 69.9282 51.5428 71.5312 47.699C73.2089 43.7838 74.4317 39.7469 74.9115 35.5706C75.4589 31.3657 75.267 27.1608 74.549 23.0059C74.4068 22.1013 74.1438 21.6221 73.1627 21.6936C69.3772 22.0083 65.5704 22.8271 61.8595 23.957C58.2162 25.0547 54.6972 26.6316 51.2707 28.5123C47.9437 30.3788 44.3999 32.113 41.4071 34.6767C40.6891 35.2667 41.336 36.0998 42.0078 36.7362C47.3679 42.1461 46.9876 42.5216 52.3762 47.9279C57.715 53.3235 56.6131 52.5547 61.9768 57.9718C62.7197 58.694 64.1095 58.9622 64.7813 58.1434Z" fill="white"/>
<path d="M77.8539 73.064C78.5719 73.822 78.5719 73.5109 79.3397 72.7636C83.7686 68.3299 101.178 50.2158 105.611 45.7213C110.061 41.2554 115.858 35.302 115.14 34.6906C112.052 32.0053 108.842 29.1984 105.369 27.3069C101.825 25.3797 97.5386 25.0185 93.7069 23.9316C89.8538 22.8017 85.9475 21.9364 81.9487 21.6932C80.8468 21.5967 80.0577 22.1867 80.2958 23.2844C80.9428 27.9219 80.8006 33.2818 80.2958 37.9765C79.5778 44.5306 78.5968 46.4329 76.6809 50.7701C74.79 55.0107 71.5305 58.9117 68.4417 62.5875C67.7948 63.3705 73.9013 69.1022 77.8539 73.064Z" fill="white"/>
<path d="M97.6621 93.5778C103.026 98.9519 102.379 98.9376 107.718 104.322C113.085 109.693 113.92 109.117 119.238 114.513C119.981 115.26 120.987 115.378 121.634 114.559C124.147 111.599 125.703 108.442 127.548 105.106C129.389 101.684 131.501 98.2904 132.603 94.6254C133.701 90.9032 134.014 85.8938 134.327 82.0393C134.373 81.0882 133.751 80.8343 132.816 80.6162C128.65 80.0048 124.338 79.7724 120.173 80.2801C116.032 80.8236 112.271 81.9892 108.39 83.6662C102.162 86.3157 100.655 88.4217 97.3493 91.1321C96.5105 91.7721 96.9441 92.834 97.6621 93.5778Z" fill="white"/>
<path d="M91.5307 86.712C92.199 87.3878 92.8459 86.3759 93.6136 85.7716C97.2534 82.6644 109.73 71.5121 133.797 74.1366C134.924 74.2582 133.25 65.7554 132.144 61.8758C131.046 58.0213 129.869 54.3134 127.932 50.7557C126.041 47.2516 123.763 44.1086 121.129 41.0014C120.507 40.2792 119.839 39.3745 119.192 40.0503C114.759 44.5055 111.933 46.9155 107.505 51.3957C102.596 56.4195 87.34 72.0878 82.8862 76.5465C82.8862 76.5465 87.5781 82.761 91.5307 86.712Z" fill="white"/>
<path d="M58.8695 62.6698C55.4181 58.9119 55.4679 58.8404 51.9952 55.0574C48.5224 51.3101 48.3305 51.471 44.8827 47.7345C41.4099 43.9408 41.2429 44.0624 37.795 40.2901C37.077 39.5214 36.0462 39.1102 35.3496 39.8825C33.0747 42.3604 31.3508 45.228 29.5806 47.9634C27.807 50.7702 26.7548 53.9132 25.5072 56.9381C24.2631 60.0096 23.0653 63.0059 22.3473 66.2133C21.6293 69.442 20.8153 72.6672 20.6447 75.9568C20.4776 79.2428 20.8153 82.5574 21.2241 85.8219C21.5084 88.2533 22.4895 92.494 23.1364 94.8432C23.3283 95.662 0.341535 121.932 1.00978 122.629C1.89839 123.545 29.5558 93.9492 32.9076 90.842C36.2133 87.7348 42.2737 80.9305 45.6255 77.7982C48.9774 74.691 48.8104 74.5122 52.1373 71.4158C55.4892 68.3086 55.2511 68.069 58.5816 64.9368C59.3458 64.2252 59.5626 63.4422 58.8695 62.6698Z" fill="white"/>
<path d="M87.6271 90.3238C83.9624 86.6767 83.3902 86.3763 79.7255 82.7149C79.0288 82.0141 79.3416 82.2322 78.6947 81.6887C78.2646 81.3168 78.1686 81.5099 77.8096 81.7495C73.5443 84.8209 48.926 109.743 47.7565 108.441C46.5551 107.14 75.4139 78.653 74.671 77.945C74.2161 77.4873 73.427 76.715 72.7303 76.0285C69.0905 72.3528 68.8524 72.6066 65.2126 68.9488C64.4946 68.1979 63.965 67.9476 63.2718 68.6806C59.824 72.0882 59.5148 71.7771 56.1131 75.199C52.6617 78.6172 52.6617 78.6172 49.285 82.0641C45.8371 85.4824 31.8538 99.0232 28.4273 102.467C27.7804 103.128 27.8302 104.104 28.2603 104.994C29.5541 107.261 31.3989 109.911 33.0019 112.053C34.5588 114.162 36.4995 116.054 38.3905 117.956C40.2815 119.848 42.4853 121.317 44.5433 122.873C45.6239 123.666 47.1096 124.775 48.9757 125.787C48.9757 125.787 42.9154 133.424 35.9237 141.612C27.7591 151.202 18.6099 161.561 18.9689 161.968C20.2876 163.488 70.2884 110.068 73.69 106.636C77.0916 103.192 77.0916 103.164 80.5146 99.7455C83.9162 96.3236 83.6496 96.0698 87.0513 92.6265C87.7942 91.9042 88.3202 91.0496 87.6271 90.3238Z" fill="white"/>
<path d="M90.6911 96.974C87.556 100.285 87.2432 100.01 84.1544 103.346C80.9945 106.657 67.9638 119.404 64.8038 122.726C61.6937 126.051 43.708 145.288 44.8099 146.457C45.3111 146.982 61.1392 132.29 61.523 132.412C64.2778 133.349 66.7446 134.336 69.6201 134.747C72.876 135.179 76.1817 135.612 79.4589 135.494C82.7433 135.351 85.9032 134.146 89.1342 133.456C92.319 132.784 95.7207 132.505 98.7597 131.268C101.756 130.023 104.749 128.461 107.55 126.702C110.28 124.953 112.963 122.944 115.43 120.677C116.194 120.004 115.668 119.186 114.975 118.535C111.261 114.981 111.67 115.367 107.909 111.849C104.198 108.294 104.081 107.608 100.341 104.057C96.6306 100.539 96.7017 100.442 92.9659 96.9239C92.2266 96.1802 91.3877 96.2017 90.6911 96.974Z" fill="white"/>
</svg>
