<svg width="40" height="40" viewBox="0 0 40 40" fill="none" xmlns="http://www.w3.org/2000/svg">
<path d="M10.9868 4V3.5H10.8514L10.7346 3.56825L10.9868 4ZM4.0942 11.7419L3.59742 11.7986C3.60988 11.9077 3.65789 12.0097 3.73405 12.0888L4.0942 11.7419ZM12.0471 20L12.4165 19.6627L12.4073 19.6532L12.0471 20ZM11.6226 23.1242C11.3527 23.0658 11.0866 23.2373 11.0282 23.5072C10.9698 23.7771 11.1413 24.0432 11.4112 24.1016L11.6226 23.1242ZM17.349 29.2903V28.7903C17.0729 28.7903 16.849 29.0142 16.849 29.2903H17.349ZM13.5184 32.3871V31.8871C13.4076 31.8871 13.3 31.9239 13.2124 31.9916L13.5184 32.3871ZM11.5169 33.9355L11.211 33.54C11.0886 33.6347 11.0169 33.7807 11.0169 33.9355H11.5169ZM11.5169 36H11.0169V36.5H11.5169V36ZM29.0133 4L29.2654 3.56825L29.1486 3.5H29.0133V4ZM35.9058 11.7419L36.2659 12.0888C36.3421 12.0097 36.3901 11.9077 36.4026 11.7986L35.9058 11.7419ZM27.9529 20L27.5926 19.653L27.5837 19.6629L27.9529 20ZM28.5888 24.1016C28.8587 24.0432 29.0302 23.7771 28.9718 23.5072C28.9134 23.2373 28.6473 23.0658 28.3774 23.1242L28.5888 24.1016ZM22.651 29.2903H23.151C23.151 29.0142 22.9271 28.7903 22.651 28.7903V29.2903ZM26.4816 32.3871L26.7876 31.9916C26.7 31.9239 26.5924 31.8871 26.4816 31.8871V32.3871ZM28.4831 33.9355H28.9831C28.9831 33.7807 28.9114 33.6347 28.789 33.54L28.4831 33.9355ZM28.4831 36V36.5H28.9831V36H28.4831ZM14 33.5C13.7239 33.5 13.5 33.7239 13.5 34C13.5 34.2761 13.7239 34.5 14 34.5V33.5ZM26 34.5C26.2761 34.5 26.5 34.2761 26.5 34C26.5 33.7239 26.2761 33.5 26 33.5V34.5ZM10.7346 3.56825C10.2528 3.84966 9.58538 4.40073 9.37845 5.14318C9.26807 5.53923 9.29476 5.97423 9.52909 6.40278C9.75584 6.81747 10.1575 7.19146 10.7346 7.52852L11.2389 6.66503C10.7556 6.38273 10.5166 6.12446 10.4065 5.92303C10.3039 5.73544 10.2975 5.57045 10.3417 5.41166C10.4441 5.04444 10.8371 4.66647 11.2389 4.43175L10.7346 3.56825ZM11.2389 6.66503C10.5446 6.25948 9.6871 5.87167 8.79804 5.64031C7.91448 5.41038 6.95828 5.32426 6.09152 5.57067C5.20074 5.82391 4.44293 6.41893 3.98305 7.46104C3.53358 8.47955 3.38027 9.89611 3.59742 11.7986L4.59097 11.6852C4.38397 9.87163 4.54878 8.65594 4.89793 7.86477C5.23666 7.0972 5.75794 6.70513 6.36497 6.53256C6.99601 6.35316 7.75632 6.40253 8.54619 6.60808C9.33057 6.8122 10.1034 7.15988 10.7346 7.52852L11.2389 6.66503ZM3.73405 12.0888L11.687 20.3468L12.4073 19.6532L4.45434 11.3951L3.73405 12.0888ZM11.6779 20.3371C12.1998 20.9088 12.7649 21.6468 13.0672 22.28L13.9696 21.8491C13.606 21.0877 12.9667 20.2655 12.4163 19.6629L11.6779 20.3371ZM13.0672 22.28C13.1573 22.4688 13.2179 22.6356 13.2494 22.7763L14.2252 22.5577C14.1724 22.322 14.0808 22.0821 13.9696 21.8491L13.0672 22.28ZM13.2494 22.7763C13.2849 22.9349 13.2768 23.0299 13.2619 23.0788C13.2521 23.1113 13.2369 23.1388 13.1806 23.1696C13.1095 23.2087 12.9648 23.2546 12.6982 23.2582C12.4351 23.2617 12.083 23.2238 11.6226 23.1242L11.4112 24.1016C11.9168 24.211 12.3485 24.263 12.7118 24.2581C13.0717 24.2532 13.3963 24.1921 13.662 24.0462C13.9426 23.8921 14.1318 23.6566 14.219 23.3686C14.3012 23.0971 14.2826 22.814 14.2252 22.5577L13.2494 22.7763ZM10.487 7.08137C10.4061 9.70423 10.8042 16.3818 13.0515 22.2435L13.9852 21.8855C11.8001 16.186 11.4083 9.65061 11.4865 7.11218L10.487 7.08137ZM13.0441 22.2229C13.109 22.4172 13.185 22.6272 13.2716 22.8489L14.203 22.485C14.1221 22.2778 14.0519 22.0836 13.9926 21.9062L13.0441 22.2229ZM13.2716 22.8489C13.7466 24.0649 14.5576 25.6749 15.6598 27.0383C16.7543 28.3922 18.1948 29.5743 19.9396 29.7867L20.0604 28.794C18.694 28.6277 17.4654 27.6812 16.4374 26.4096C15.4171 25.1475 14.6523 23.6351 14.203 22.485L13.2716 22.8489ZM20 28.7903H17.349V29.7903H20V28.7903ZM16.849 29.2903V32.3871H17.849V29.2903H16.849ZM17.349 31.8871H13.5184V32.8871H17.349V31.8871ZM13.2124 31.9916L11.211 33.54L11.8229 34.331L13.8243 32.7826L13.2124 31.9916ZM11.0169 33.9355V36H12.0169V33.9355H11.0169ZM28.7611 4.43175C29.1629 4.66647 29.5559 5.04444 29.6583 5.41166C29.7025 5.57045 29.6961 5.73544 29.5935 5.92303C29.4834 6.12446 29.2444 6.38273 28.7611 6.66503L29.2654 7.52852C29.8425 7.19146 30.2442 6.81747 30.4709 6.40278C30.7052 5.97423 30.7319 5.53923 30.6216 5.14318C30.4146 4.40073 29.7472 3.84966 29.2654 3.56825L28.7611 4.43175ZM29.2654 7.52852C29.8966 7.15988 30.6694 6.8122 31.4538 6.60808C32.2437 6.40253 33.004 6.35316 33.635 6.53256C34.2421 6.70513 34.7633 7.0972 35.1021 7.86477C35.4512 8.65594 35.616 9.87163 35.409 11.6852L36.4026 11.7986C36.6197 9.89611 36.4664 8.47955 36.017 7.46104C35.5571 6.41893 34.7993 5.82391 33.9085 5.57067C33.0417 5.32426 32.0855 5.41038 31.202 5.64031C30.3129 5.87167 29.4554 6.25948 28.7611 6.66503L29.2654 7.52852ZM35.5457 11.3951L27.5927 19.6532L28.313 20.3468L36.2659 12.0888L35.5457 11.3951ZM27.5837 19.6629C27.0333 20.2655 26.394 21.0877 26.0304 21.8491L26.9328 22.28C27.2352 21.6468 27.8002 20.9088 28.3221 20.3371L27.5837 19.6629ZM26.0304 21.8491C25.9192 22.0821 25.8276 22.322 25.7748 22.5577L26.7506 22.7763C26.7821 22.6356 26.8427 22.4688 26.9328 22.28L26.0304 21.8491ZM25.7748 22.5577C25.7174 22.814 25.6988 23.0971 25.781 23.3686C25.8682 23.6566 26.0574 23.8921 26.338 24.0462C26.6037 24.1921 26.9283 24.2532 27.2882 24.2581C27.6515 24.263 28.0832 24.211 28.5888 24.1016L28.3774 23.1242C27.917 23.2238 27.5649 23.2617 27.3018 23.2582C27.0352 23.2546 26.8905 23.2087 26.8194 23.1696C26.7631 23.1388 26.7479 23.1113 26.7381 23.0788C26.7232 23.0299 26.7151 22.9349 26.7506 22.7763L25.7748 22.5577ZM28.5135 7.11218C28.5917 9.65061 28.1999 16.186 26.0148 21.8855L26.9485 22.2435C29.1958 16.3818 29.5939 9.70423 29.513 7.08137L28.5135 7.11218ZM26.0074 21.9062C25.9481 22.0836 25.8779 22.2778 25.797 22.485L26.7284 22.8489C26.815 22.6272 26.891 22.4172 26.9559 22.2229L26.0074 21.9062ZM25.797 22.485C25.3477 23.6351 24.5829 25.1475 23.5626 26.4096C22.5346 27.6812 21.306 28.6277 19.9396 28.794L20.0604 29.7867C21.8052 29.5743 23.2457 28.3922 24.3403 27.0383C25.4425 25.6749 26.2534 24.0649 26.7284 22.8489L25.797 22.485ZM20 29.7903H22.651V28.7903H20V29.7903ZM22.151 29.2903V32.3871H23.151V29.2903H22.151ZM22.651 32.8871H26.4816V31.8871H22.651V32.8871ZM26.1757 32.7826L28.1771 34.331L28.789 33.54L26.7876 31.9916L26.1757 32.7826ZM27.9831 33.9355V36H28.9831V33.9355H27.9831ZM29.0133 3.5H10.9868V4.5H29.0133V3.5ZM10.9868 7.59677H29.0133V6.59677H10.9868V7.59677ZM17.349 32.8871H22.651V31.8871H17.349V32.8871ZM11.5169 36.5H28.4831V35.5H11.5169V36.5ZM14 34.5H26V33.5H14V34.5Z" fill="#FF0303"/>
<path d="M10.9868 4V3.5H10.8514L10.7346 3.56825L10.9868 4ZM4.0942 11.7419L3.59742 11.7986C3.60988 11.9077 3.65789 12.0097 3.73405 12.0888L4.0942 11.7419ZM12.0471 20L12.4165 19.6627L12.4073 19.6532L12.0471 20ZM11.6226 23.1242C11.3527 23.0658 11.0866 23.2373 11.0282 23.5072C10.9698 23.7771 11.1413 24.0432 11.4112 24.1016L11.6226 23.1242ZM17.349 29.2903V28.7903C17.0729 28.7903 16.849 29.0142 16.849 29.2903H17.349ZM13.5184 32.3871V31.8871C13.4076 31.8871 13.3 31.9239 13.2124 31.9916L13.5184 32.3871ZM11.5169 33.9355L11.211 33.54C11.0886 33.6347 11.0169 33.7807 11.0169 33.9355H11.5169ZM11.5169 36H11.0169V36.5H11.5169V36ZM29.0133 4L29.2654 3.56825L29.1486 3.5H29.0133V4ZM35.9058 11.7419L36.2659 12.0888C36.3421 12.0097 36.3901 11.9077 36.4026 11.7986L35.9058 11.7419ZM27.9529 20L27.5926 19.653L27.5837 19.6629L27.9529 20ZM28.5888 24.1016C28.8587 24.0432 29.0302 23.7771 28.9718 23.5072C28.9134 23.2373 28.6473 23.0658 28.3774 23.1242L28.5888 24.1016ZM22.651 29.2903H23.151C23.151 29.0142 22.9271 28.7903 22.651 28.7903V29.2903ZM26.4816 32.3871L26.7876 31.9916C26.7 31.9239 26.5924 31.8871 26.4816 31.8871V32.3871ZM28.4831 33.9355H28.9831C28.9831 33.7807 28.9114 33.6347 28.789 33.54L28.4831 33.9355ZM28.4831 36V36.5H28.9831V36H28.4831ZM14 33.5C13.7239 33.5 13.5 33.7239 13.5 34C13.5 34.2761 13.7239 34.5 14 34.5V33.5ZM26 34.5C26.2761 34.5 26.5 34.2761 26.5 34C26.5 33.7239 26.2761 33.5 26 33.5V34.5ZM10.7346 3.56825C10.2528 3.84966 9.58538 4.40073 9.37845 5.14318C9.26807 5.53923 9.29476 5.97423 9.52909 6.40278C9.75584 6.81747 10.1575 7.19146 10.7346 7.52852L11.2389 6.66503C10.7556 6.38273 10.5166 6.12446 10.4065 5.92303C10.3039 5.73544 10.2975 5.57045 10.3417 5.41166C10.4441 5.04444 10.8371 4.66647 11.2389 4.43175L10.7346 3.56825ZM11.2389 6.66503C10.5446 6.25948 9.6871 5.87167 8.79804 5.64031C7.91448 5.41038 6.95828 5.32426 6.09152 5.57067C5.20074 5.82391 4.44293 6.41893 3.98305 7.46104C3.53358 8.47955 3.38027 9.89611 3.59742 11.7986L4.59097 11.6852C4.38397 9.87163 4.54878 8.65594 4.89793 7.86477C5.23666 7.0972 5.75794 6.70513 6.36497 6.53256C6.99601 6.35316 7.75632 6.40253 8.54619 6.60808C9.33057 6.8122 10.1034 7.15988 10.7346 7.52852L11.2389 6.66503ZM3.73405 12.0888L11.687 20.3468L12.4073 19.6532L4.45434 11.3951L3.73405 12.0888ZM11.6779 20.3371C12.1998 20.9088 12.7649 21.6468 13.0672 22.28L13.9696 21.8491C13.606 21.0877 12.9667 20.2655 12.4163 19.6629L11.6779 20.3371ZM13.0672 22.28C13.1573 22.4688 13.2179 22.6356 13.2494 22.7763L14.2252 22.5577C14.1724 22.322 14.0808 22.0821 13.9696 21.8491L13.0672 22.28ZM13.2494 22.7763C13.2849 22.9349 13.2768 23.0299 13.2619 23.0788C13.2521 23.1113 13.2369 23.1388 13.1806 23.1696C13.1095 23.2087 12.9648 23.2546 12.6982 23.2582C12.4351 23.2617 12.083 23.2238 11.6226 23.1242L11.4112 24.1016C11.9168 24.211 12.3485 24.263 12.7118 24.2581C13.0717 24.2532 13.3963 24.1921 13.662 24.0462C13.9426 23.8921 14.1318 23.6566 14.219 23.3686C14.3012 23.0971 14.2826 22.814 14.2252 22.5577L13.2494 22.7763ZM10.487 7.08137C10.4061 9.70423 10.8042 16.3818 13.0515 22.2435L13.9852 21.8855C11.8001 16.186 11.4083 9.65061 11.4865 7.11218L10.487 7.08137ZM13.0441 22.2229C13.109 22.4172 13.185 22.6272 13.2716 22.8489L14.203 22.485C14.1221 22.2778 14.0519 22.0836 13.9926 21.9062L13.0441 22.2229ZM13.2716 22.8489C13.7466 24.0649 14.5576 25.6749 15.6598 27.0383C16.7543 28.3922 18.1948 29.5743 19.9396 29.7867L20.0604 28.794C18.694 28.6277 17.4654 27.6812 16.4374 26.4096C15.4171 25.1475 14.6523 23.6351 14.203 22.485L13.2716 22.8489ZM20 28.7903H17.349V29.7903H20V28.7903ZM16.849 29.2903V32.3871H17.849V29.2903H16.849ZM17.349 31.8871H13.5184V32.8871H17.349V31.8871ZM13.2124 31.9916L11.211 33.54L11.8229 34.331L13.8243 32.7826L13.2124 31.9916ZM11.0169 33.9355V36H12.0169V33.9355H11.0169ZM28.7611 4.43175C29.1629 4.66647 29.5559 5.04444 29.6583 5.41166C29.7025 5.57045 29.6961 5.73544 29.5935 5.92303C29.4834 6.12446 29.2444 6.38273 28.7611 6.66503L29.2654 7.52852C29.8425 7.19146 30.2442 6.81747 30.4709 6.40278C30.7052 5.97423 30.7319 5.53923 30.6216 5.14318C30.4146 4.40073 29.7472 3.84966 29.2654 3.56825L28.7611 4.43175ZM29.2654 7.52852C29.8966 7.15988 30.6694 6.8122 31.4538 6.60808C32.2437 6.40253 33.004 6.35316 33.635 6.53256C34.2421 6.70513 34.7633 7.0972 35.1021 7.86477C35.4512 8.65594 35.616 9.87163 35.409 11.6852L36.4026 11.7986C36.6197 9.89611 36.4664 8.47955 36.017 7.46104C35.5571 6.41893 34.7993 5.82391 33.9085 5.57067C33.0417 5.32426 32.0855 5.41038 31.202 5.64031C30.3129 5.87167 29.4554 6.25948 28.7611 6.66503L29.2654 7.52852ZM35.5457 11.3951L27.5927 19.6532L28.313 20.3468L36.2659 12.0888L35.5457 11.3951ZM27.5837 19.6629C27.0333 20.2655 26.394 21.0877 26.0304 21.8491L26.9328 22.28C27.2352 21.6468 27.8002 20.9088 28.3221 20.3371L27.5837 19.6629ZM26.0304 21.8491C25.9192 22.0821 25.8276 22.322 25.7748 22.5577L26.7506 22.7763C26.7821 22.6356 26.8427 22.4688 26.9328 22.28L26.0304 21.8491ZM25.7748 22.5577C25.7174 22.814 25.6988 23.0971 25.781 23.3686C25.8682 23.6566 26.0574 23.8921 26.338 24.0462C26.6037 24.1921 26.9283 24.2532 27.2882 24.2581C27.6515 24.263 28.0832 24.211 28.5888 24.1016L28.3774 23.1242C27.917 23.2238 27.5649 23.2617 27.3018 23.2582C27.0352 23.2546 26.8905 23.2087 26.8194 23.1696C26.7631 23.1388 26.7479 23.1113 26.7381 23.0788C26.7232 23.0299 26.7151 22.9349 26.7506 22.7763L25.7748 22.5577ZM28.5135 7.11218C28.5917 9.65061 28.1999 16.186 26.0148 21.8855L26.9485 22.2435C29.1958 16.3818 29.5939 9.70423 29.513 7.08137L28.5135 7.11218ZM26.0074 21.9062C25.9481 22.0836 25.8779 22.2778 25.797 22.485L26.7284 22.8489C26.815 22.6272 26.891 22.4172 26.9559 22.2229L26.0074 21.9062ZM25.797 22.485C25.3477 23.6351 24.5829 25.1475 23.5626 26.4096C22.5346 27.6812 21.306 28.6277 19.9396 28.794L20.0604 29.7867C21.8052 29.5743 23.2457 28.3922 24.3403 27.0383C25.4425 25.6749 26.2534 24.0649 26.7284 22.8489L25.797 22.485ZM20 29.7903H22.651V28.7903H20V29.7903ZM22.151 29.2903V32.3871H23.151V29.2903H22.151ZM22.651 32.8871H26.4816V31.8871H22.651V32.8871ZM26.1757 32.7826L28.1771 34.331L28.789 33.54L26.7876 31.9916L26.1757 32.7826ZM27.9831 33.9355V36H28.9831V33.9355H27.9831ZM29.0133 3.5H10.9868V4.5H29.0133V3.5ZM10.9868 7.59677H29.0133V6.59677H10.9868V7.59677ZM17.349 32.8871H22.651V31.8871H17.349V32.8871ZM11.5169 36.5H28.4831V35.5H11.5169V36.5ZM14 34.5H26V33.5H14V34.5Z" fill="black" fill-opacity="0.2"/>
<path d="M20.9834 25H19.1514V19.1348C19.1514 18.4967 19.1833 17.763 19.2471 16.9336C19.2152 16.9792 19.0967 17.1182 18.8916 17.3506C18.6911 17.583 18.2969 18 17.709 18.6016L16.6699 17.4668L19.3291 15.0059H20.9834V25Z" fill="#FF0303"/>
<path d="M20.9834 25H19.1514V19.1348C19.1514 18.4967 19.1833 17.763 19.2471 16.9336C19.2152 16.9792 19.0967 17.1182 18.8916 17.3506C18.6911 17.583 18.2969 18 17.709 18.6016L16.6699 17.4668L19.3291 15.0059H20.9834V25Z" fill="black" fill-opacity="0.2"/>
</svg>
