<svg width="100" height="100" viewBox="0 0 100 100" fill="none" xmlns="http://www.w3.org/2000/svg">
<path d="M78.1643 83.4327V0L21.8356 17.6027V83.4327H13.552V100H86.448V83.4327H78.1643ZM25.1491 20.0381L74.8509 4.5063V83.4327H25.1491V20.0381ZM83.1345 96.6865H16.8655V86.7462H83.1345V96.6865Z" fill="#146EB4"/>
<path d="M68.4516 33.1997H31.5484C29.5918 33.1997 28 34.7915 28 36.7481V60.8771C28 62.8337 29.5918 64.4255 31.5484 64.4255H40.2859C41.9955 68.4536 42.9032 72.8068 42.9032 77.1997L44.3226 77.1884C44.3226 75.9308 44.2403 74.6768 44.1012 73.4299L44.1146 73.4434L45.0323 72.5258L46.5126 74.0062L44.5305 75.9883L45.534 76.9918L47.5161 75.0096L49.4983 76.9918L50 76.49L50.5017 76.9918L52.4839 75.0096L54.466 76.9918L55.4695 75.9883L53.4874 74.0062L56.2068 71.2867C55.8634 73.2347 55.6774 75.2133 55.6774 77.1997L57.0968 77.1884C57.0968 72.8047 58.0044 68.4529 59.7141 64.4255H68.4516C70.4082 64.4255 72 62.8337 72 60.8771V36.7481C72 34.7915 70.4082 33.1997 68.4516 33.1997ZM59.9355 57.3287H40.0645V44.5545H59.9355V57.3287ZM61.3548 58.7481V60.1674H38.6452V58.7481H61.3548ZM53.9643 61.5868L52.4839 63.0672L51.0035 61.5868H53.9643ZM54.9677 62.5903L56.4481 64.0707L54.9677 65.5511L53.4874 64.0707L54.9677 62.5903ZM51.4804 64.0707L50 65.5511L48.5196 64.0707L50 62.5903L51.4804 64.0707ZM48.9965 61.5868L47.5161 63.0672L46.0357 61.5868H48.9965ZM44.0288 61.5868L42.5484 63.0672L41.068 61.5868H44.0288ZM44.0288 66.5545L42.938 67.6453C42.6073 66.5127 42.2234 65.3964 41.777 64.3034L44.0288 66.5545ZM43.5519 64.0707L45.0323 62.5903L46.5126 64.0707L45.0323 65.5511L43.5519 64.0707ZM47.5161 65.0742L48.9965 66.5545L47.5161 68.0349L46.0357 66.5545L47.5161 65.0742ZM50 67.558L51.4804 69.0384L50 70.5188L48.5196 69.0384L50 67.558ZM51.0035 66.5545L52.4839 65.0742L53.9643 66.5545L52.4839 68.0349L51.0035 66.5545ZM54.9677 67.558L56.4481 69.0384L54.9677 70.5188L53.4874 69.0384L54.9677 67.558ZM55.9712 66.5545L57.4516 65.0742L57.7944 65.4169C57.524 66.1514 57.2813 66.8945 57.062 67.6453L55.9712 66.5545ZM55.9712 61.5868H59.4785C59.0754 62.3696 58.7028 63.1673 58.3621 63.9777L55.9712 61.5868ZM43.8577 71.6933C43.7222 70.8651 43.5604 70.0419 43.3638 69.2265L45.0323 67.558L46.5126 69.0384L43.8577 71.6933ZM46.0357 71.5223L47.5161 70.0419L48.9965 71.5223L47.5161 73.0027L46.0357 71.5223ZM50 75.4865L48.5196 74.0062L50 72.5258L51.4804 74.0062L50 75.4865ZM51.0035 71.5223L52.4839 70.0419L53.9643 71.5223L52.4839 73.0027L51.0035 71.5223ZM70.5806 60.8771C70.5806 62.0509 69.6254 63.0062 68.4516 63.0062H60.3506C60.5806 62.5285 60.8141 62.0531 61.0674 61.5868H62.0645C62.457 61.5868 62.7742 61.2696 62.7742 60.8771V58.0384C62.7742 57.646 62.457 57.3287 62.0645 57.3287H61.3548V43.8449C61.3548 43.4524 61.0376 43.1352 60.6452 43.1352H39.3548C38.9624 43.1352 38.6452 43.4524 38.6452 43.8449V57.3287H37.9355C37.543 57.3287 37.2258 57.646 37.2258 58.0384V60.8771C37.2258 61.2696 37.543 61.5868 37.9355 61.5868H38.9326C39.1859 62.0531 39.4194 62.5285 39.6494 63.0062H31.5484C30.3746 63.0062 29.4194 62.0509 29.4194 60.8771V36.7481C29.4194 35.5743 30.3746 34.6191 31.5484 34.6191H68.4516C69.6254 34.6191 70.5806 35.5743 70.5806 36.7481V60.8771Z" fill="#146EB4"/>
<path d="M68.4766 36.0123H31.5234C31.1304 36.0123 30.8127 36.3291 30.8127 36.721V60.8195C30.8127 61.2115 31.1304 61.5283 31.5234 61.5283H35.7872V60.1107H32.234V37.4298H67.7659V60.1107H64.2127V61.5283H68.4766C68.8695 61.5283 69.1872 61.2115 69.1872 60.8195V36.721C69.1872 36.3291 68.8695 36.0123 68.4766 36.0123Z" fill="#146EB4"/>
<path d="M73.8173 15.6415C73.7142 15.5318 73.5778 15.4614 73.4304 15.4415L68.6979 14.738L66.5937 10.3412C66.398 10.0082 65.9755 9.90051 65.6499 10.1006C65.5534 10.1599 65.4727 10.2425 65.4146 10.3412L63.3022 14.7212L58.5697 15.4247C58.2111 15.473 57.9585 15.8094 58.0057 16.1764C58.025 16.3271 58.094 16.4667 58.2013 16.5721L61.6237 19.9806L60.8049 24.7961C60.7463 25.166 60.9918 25.5144 61.3534 25.5744C61.4933 25.5976 61.6368 25.5744 61.7629 25.508L66.0041 23.2468L70.2372 25.5247C70.5629 25.6961 70.9627 25.5649 71.1303 25.2317C71.195 25.1027 71.2179 24.956 71.1951 24.8129L70.3764 19.9974L73.7988 16.5888C74.0597 16.3325 74.0679 15.9084 73.8173 15.6415ZM69.2137 19.2688C69.0601 19.4238 68.9899 19.6456 69.0254 19.8634L69.664 23.6823L66.3071 21.8817C66.1147 21.7789 65.8854 21.7789 65.693 21.8817L62.336 23.6823L62.9747 19.8634C63.0102 19.6456 62.94 19.4238 62.7864 19.2688L60.0762 16.5637L63.8262 16.011C64.0417 15.9795 64.2284 15.8417 64.3257 15.6425L65.9632 12.1669L67.6007 15.6425C67.698 15.8417 67.8846 15.9795 68.1002 16.011L71.8502 16.5637L69.2137 19.2688Z" fill="#146EB4"/>
<path d="M21.9543 91.4104C21.9285 91.383 21.8944 91.3653 21.8576 91.3604L20.6745 91.1845L20.1484 90.0853C20.0995 90.0021 19.9939 89.9751 19.9125 90.0251C19.8884 90.04 19.8682 90.0606 19.8537 90.0853L19.3255 91.1803L18.1424 91.3562C18.0528 91.3682 17.9896 91.4524 18.0014 91.5441C18.0063 91.5818 18.0235 91.6167 18.0503 91.643L18.9059 92.4952L18.7012 93.699C18.6866 93.7915 18.748 93.8786 18.8384 93.8936C18.8733 93.8994 18.9092 93.8936 18.9407 93.877L20.001 93.3117L21.0593 93.8812C21.1407 93.924 21.2407 93.8912 21.2826 93.8079C21.2988 93.7757 21.3045 93.739 21.2988 93.7032L21.0941 92.4993L21.9497 91.6472C22.0149 91.5831 22.017 91.4771 21.9543 91.4104ZM20.8034 92.3172C20.765 92.356 20.7475 92.4114 20.7564 92.4658L20.916 93.4206L20.0768 92.9704C20.0287 92.9447 19.9714 92.9447 19.9233 92.9704L19.084 93.4206L19.2437 92.4658C19.2525 92.4114 19.235 92.356 19.1966 92.3172L18.5191 91.6409L19.4566 91.5027C19.5104 91.4949 19.5571 91.4604 19.5814 91.4106L19.9908 90.5417L20.4002 91.4106C20.4245 91.4604 20.4712 91.4949 20.525 91.5027L21.4625 91.6409L20.8034 92.3172Z" fill="#146EB4"/>
<path d="M27.9543 91.4104C27.9285 91.383 27.8944 91.3653 27.8576 91.3604L26.6745 91.1845L26.1484 90.0853C26.0995 90.0021 25.9939 89.9751 25.9125 90.0251C25.8884 90.04 25.8682 90.0606 25.8537 90.0853L25.3255 91.1803L24.1424 91.3562C24.0528 91.3682 23.9896 91.4524 24.0014 91.5441C24.0063 91.5818 24.0235 91.6167 24.0503 91.643L24.9059 92.4952L24.7012 93.699C24.6866 93.7915 24.748 93.8786 24.8384 93.8936C24.8733 93.8994 24.9092 93.8936 24.9407 93.877L26.001 93.3117L27.0593 93.8812C27.1407 93.924 27.2407 93.8912 27.2826 93.8079C27.2988 93.7757 27.3045 93.739 27.2988 93.7032L27.0941 92.4993L27.9497 91.6472C28.0149 91.5831 28.017 91.4771 27.9543 91.4104ZM26.8034 92.3172C26.765 92.356 26.7475 92.4114 26.7564 92.4658L26.916 93.4206L26.0768 92.9704C26.0287 92.9447 25.9714 92.9447 25.9233 92.9704L25.084 93.4206L25.2437 92.4658C25.2525 92.4114 25.235 92.356 25.1966 92.3172L24.5191 91.6409L25.4566 91.5027C25.5104 91.4949 25.5571 91.4604 25.5814 91.4106L25.9908 90.5417L26.4002 91.4106C26.4245 91.4604 26.4712 91.4949 26.525 91.5027L27.4625 91.6409L26.8034 92.3172Z" fill="#146EB4"/>
<path d="M33.9543 91.4104C33.9285 91.383 33.8944 91.3653 33.8576 91.3604L32.6745 91.1845L32.1484 90.0853C32.0995 90.0021 31.9939 89.9751 31.9125 90.0251C31.8884 90.04 31.8682 90.0606 31.8537 90.0853L31.3255 91.1803L30.1424 91.3562C30.0528 91.3682 29.9896 91.4524 30.0014 91.5441C30.0063 91.5818 30.0235 91.6167 30.0503 91.643L30.9059 92.4952L30.7012 93.699C30.6866 93.7915 30.748 93.8786 30.8384 93.8936C30.8733 93.8994 30.9092 93.8936 30.9407 93.877L32.001 93.3117L33.0593 93.8812C33.1407 93.924 33.2407 93.8912 33.2826 93.8079C33.2988 93.7757 33.3045 93.739 33.2988 93.7032L33.0941 92.4993L33.9497 91.6472C34.0149 91.5831 34.017 91.4771 33.9543 91.4104ZM32.8034 92.3172C32.765 92.356 32.7475 92.4114 32.7564 92.4658L32.916 93.4206L32.0768 92.9704C32.0287 92.9447 31.9714 92.9447 31.9233 92.9704L31.084 93.4206L31.2437 92.4658C31.2525 92.4114 31.235 92.356 31.1966 92.3172L30.5191 91.6409L31.4566 91.5027C31.5104 91.4949 31.5571 91.4604 31.5814 91.4106L31.9908 90.5417L32.4002 91.4106C32.4245 91.4604 32.4712 91.4949 32.525 91.5027L33.4625 91.6409L32.8034 92.3172Z" fill="#146EB4"/>
<path d="M69.9086 16.8208C69.8571 16.7659 69.7889 16.7307 69.7152 16.7207L67.3489 16.369L66.2968 14.1706C66.199 14.0041 65.9877 13.9503 65.825 14.0503C65.7767 14.08 65.7363 14.1213 65.7073 14.1706L64.6511 16.3606L62.2848 16.7124C62.1055 16.7365 61.9792 16.9047 62.0028 17.0882C62.0125 17.1636 62.047 17.2333 62.1006 17.286L63.8119 18.9903L63.4025 21.3981C63.3731 21.583 63.4959 21.7572 63.6767 21.7872C63.7467 21.7988 63.8184 21.7872 63.8815 21.754L66.0021 20.6234L68.1186 21.7624C68.2815 21.8481 68.4814 21.7825 68.5651 21.6159C68.5975 21.5514 68.6089 21.478 68.5976 21.4064L68.1882 18.9987L69.8994 17.2944C70.0299 17.1662 70.034 16.9542 69.9086 16.8208ZM67.6069 18.6344C67.53 18.7119 67.4949 18.8228 67.5127 18.9317L67.832 20.8411L66.1535 19.9408C66.0573 19.8894 65.9427 19.8894 65.8465 19.9408L64.168 20.8411L64.4873 18.9317C64.5051 18.8228 64.47 18.7119 64.3932 18.6344L63.0381 17.2819L64.9131 17.0055C65.0209 16.9897 65.1142 16.9208 65.1628 16.8212L65.9816 15.0835L66.8004 16.8212C66.849 16.9208 66.9423 16.9897 67.0501 17.0055L68.9251 17.2819L67.6069 18.6344Z" fill="#146EB4"/>
</svg>
