<svg width="28" height="36" viewBox="0 0 28 36" fill="none" xmlns="http://www.w3.org/2000/svg">
<path d="M18.2304 6.72191C17.1794 8.7009 14.9828 9.52692 13.3241 8.56687C11.6655 7.60682 11.1729 5.22426 12.2238 3.24526C13.2748 1.26627 15.4714 0.440249 17.13 1.4003C18.7887 2.36035 19.2813 4.74291 18.2304 6.72191Z" stroke="#FF0303" stroke-linecap="round" stroke-linejoin="round"/>
<path d="M18.2304 6.72191C17.1794 8.7009 14.9828 9.52692 13.3241 8.56687C11.6655 7.60682 11.1729 5.22426 12.2238 3.24526C13.2748 1.26627 15.4714 0.440249 17.13 1.4003C18.7887 2.36035 19.2813 4.74291 18.2304 6.72191Z" stroke="black" stroke-opacity="0.2" stroke-linecap="round" stroke-linejoin="round"/>
<path d="M27.0001 23.2207C27.0001 24.9178 25.6823 26.2935 24.0567 26.2935C22.4311 26.2935 21.1133 24.9178 21.1133 23.2207C21.1133 21.5236 22.4311 20.1478 24.0567 20.1478C25.6823 20.1478 27.0001 21.5236 27.0001 23.2207Z" stroke="#FF0303" stroke-linecap="round" stroke-linejoin="round"/>
<path d="M27.0001 23.2207C27.0001 24.9178 25.6823 26.2935 24.0567 26.2935C22.4311 26.2935 21.1133 24.9178 21.1133 23.2207C21.1133 21.5236 22.4311 20.1478 24.0567 20.1478C25.6823 20.1478 27.0001 21.5236 27.0001 23.2207Z" stroke="black" stroke-opacity="0.2" stroke-linecap="round" stroke-linejoin="round"/>
<path d="M19.1511 15.5385L15.7171 10.417L7.86805 9.90488L4.92465 11.4413L1.49069 16.0506L1.00012 17.5871V19.1235L1.98125 20.1478H2.96239L3.94352 19.1235L6.88691 14.002L10.3209 13.4899L6.88691 20.1478V25.7814L6.39635 26.8057L1.98125 30.9028L1.49069 31.415L1.00012 32.9514L1.49069 33.9757L2.47182 34.4879H3.45295L4.92465 33.9757L9.83031 29.3664L10.3209 27.83L10.8114 23.7328L11.302 24.2449L13.7548 27.83L14.2454 32.9514L15.2265 34.4879L16.2077 35H17.1888L18.1699 34.4879L19.1511 32.9514L18.1699 26.8057L17.1888 25.2692L12.7737 20.6599V20.1478L15.2265 15.5385L17.1888 17.5871L19.1511 19.1235H24.0567L24.5473 18.6114L25.0379 17.5871L24.5473 16.5628L24.0567 16.0506H20.1322L19.1511 15.5385Z" stroke="#FF0303" stroke-linecap="round" stroke-linejoin="round"/>
<path d="M19.1511 15.5385L15.7171 10.417L7.86805 9.90488L4.92465 11.4413L1.49069 16.0506L1.00012 17.5871V19.1235L1.98125 20.1478H2.96239L3.94352 19.1235L6.88691 14.002L10.3209 13.4899L6.88691 20.1478V25.7814L6.39635 26.8057L1.98125 30.9028L1.49069 31.415L1.00012 32.9514L1.49069 33.9757L2.47182 34.4879H3.45295L4.92465 33.9757L9.83031 29.3664L10.3209 27.83L10.8114 23.7328L11.302 24.2449L13.7548 27.83L14.2454 32.9514L15.2265 34.4879L16.2077 35H17.1888L18.1699 34.4879L19.1511 32.9514L18.1699 26.8057L17.1888 25.2692L12.7737 20.6599V20.1478L15.2265 15.5385L17.1888 17.5871L19.1511 19.1235H24.0567L24.5473 18.6114L25.0379 17.5871L24.5473 16.5628L24.0567 16.0506H20.1322L19.1511 15.5385Z" stroke="black" stroke-opacity="0.2" stroke-linecap="round" stroke-linejoin="round"/>
</svg>
