<svg width="34" height="35" viewBox="0 0 34 35" fill="none" xmlns="http://www.w3.org/2000/svg">
<path d="M17.4033 26.2957C17.5666 26.073 17.5185 25.7601 17.2958 25.5968C17.0731 25.4335 16.7602 25.4816 16.5969 25.7043L17.4033 26.2957ZM11.5001 33.5L11.0258 33.6581L11.3315 34.5754L11.9033 33.7957L11.5001 33.5ZM9.00012 26L9.34209 25.6352C9.17512 25.4787 8.92317 25.4555 8.73043 25.579C8.5377 25.7024 8.4534 25.941 8.52578 26.1581L9.00012 26ZM16.6582 33.8648C16.8596 34.0536 17.176 34.0434 17.3649 33.842C17.5538 33.6405 17.5435 33.3241 17.3421 33.1352L16.6582 33.8648ZM16.5969 25.7043L11.0969 33.2043L11.9033 33.7957L17.4033 26.2957L16.5969 25.7043ZM11.9745 33.3419L9.47446 25.8419L8.52578 26.1581L11.0258 33.6581L11.9745 33.3419ZM8.65815 26.3648L16.6582 33.8648L17.3421 33.1352L9.34209 25.6352L8.65815 26.3648Z" fill="#FF0303"/>
<path d="M17.4033 26.2957C17.5666 26.073 17.5185 25.7601 17.2958 25.5968C17.0731 25.4335 16.7602 25.4816 16.5969 25.7043L17.4033 26.2957ZM11.5001 33.5L11.0258 33.6581L11.3315 34.5754L11.9033 33.7957L11.5001 33.5ZM9.00012 26L9.34209 25.6352C9.17512 25.4787 8.92317 25.4555 8.73043 25.579C8.5377 25.7024 8.4534 25.941 8.52578 26.1581L9.00012 26ZM16.6582 33.8648C16.8596 34.0536 17.176 34.0434 17.3649 33.842C17.5538 33.6405 17.5435 33.3241 17.3421 33.1352L16.6582 33.8648ZM16.5969 25.7043L11.0969 33.2043L11.9033 33.7957L17.4033 26.2957L16.5969 25.7043ZM11.9745 33.3419L9.47446 25.8419L8.52578 26.1581L11.0258 33.6581L11.9745 33.3419ZM8.65815 26.3648L16.6582 33.8648L17.3421 33.1352L9.34209 25.6352L8.65815 26.3648Z" fill="black" fill-opacity="0.2"/>
<path d="M16.5969 26.2957C16.4336 26.073 16.4818 25.7601 16.7044 25.5968C16.9271 25.4335 17.24 25.4816 17.4033 25.7043L16.5969 26.2957ZM22.5001 33.5L22.9745 33.6581L22.6687 34.5754L22.0969 33.7957L22.5001 33.5ZM25.0001 26L24.6582 25.6352C24.8251 25.4787 25.0771 25.4555 25.2698 25.579C25.4625 25.7024 25.5468 25.941 25.4745 26.1581L25.0001 26ZM17.3421 33.8648C17.1406 34.0536 16.8242 34.0434 16.6354 33.842C16.4465 33.6405 16.4567 33.3241 16.6582 33.1352L17.3421 33.8648ZM17.4033 25.7043L22.9033 33.2043L22.0969 33.7957L16.5969 26.2957L17.4033 25.7043ZM22.0258 33.3419L24.5258 25.8419L25.4745 26.1581L22.9745 33.6581L22.0258 33.3419ZM25.3421 26.3648L17.3421 33.8648L16.6582 33.1352L24.6582 25.6352L25.3421 26.3648Z" fill="#FF0303"/>
<path d="M16.5969 26.2957C16.4336 26.073 16.4818 25.7601 16.7044 25.5968C16.9271 25.4335 17.24 25.4816 17.4033 25.7043L16.5969 26.2957ZM22.5001 33.5L22.9745 33.6581L22.6687 34.5754L22.0969 33.7957L22.5001 33.5ZM25.0001 26L24.6582 25.6352C24.8251 25.4787 25.0771 25.4555 25.2698 25.579C25.4625 25.7024 25.5468 25.941 25.4745 26.1581L25.0001 26ZM17.3421 33.8648C17.1406 34.0536 16.8242 34.0434 16.6354 33.842C16.4465 33.6405 16.4567 33.3241 16.6582 33.1352L17.3421 33.8648ZM17.4033 25.7043L22.9033 33.2043L22.0969 33.7957L16.5969 26.2957L17.4033 25.7043ZM22.0258 33.3419L24.5258 25.8419L25.4745 26.1581L22.9745 33.6581L22.0258 33.3419ZM25.3421 26.3648L17.3421 33.8648L16.6582 33.1352L24.6582 25.6352L25.3421 26.3648Z" fill="black" fill-opacity="0.2"/>
<path d="M17.0001 23H8.50012V9.5H17.0001" stroke="#FF0303"/>
<path d="M17.0001 23H8.50012V9.5H17.0001" stroke="black" stroke-opacity="0.2"/>
<path d="M17.0001 23H25.5001V9.5H17.0001" stroke="#FF0303"/>
<path d="M17.0001 23H25.5001V9.5H17.0001" stroke="black" stroke-opacity="0.2"/>
<path d="M1.00012 1V0.5C0.72398 0.5 0.500122 0.723858 0.500122 1H1.00012ZM1.00012 27.25H0.500122C0.500122 27.3725 0.545061 27.4907 0.626417 27.5822L1.00012 27.25ZM3.00012 29.5L2.62642 29.8322C2.7213 29.9389 2.8573 30 3.00012 30V29.5ZM5.00012 30C5.27626 30 5.50012 29.7761 5.50012 29.5C5.50012 29.2239 5.27626 29 5.00012 29V30ZM17.0001 0.5H1.00012V1.5H17.0001V0.5ZM0.500122 1V27.25H1.50012V1H0.500122ZM0.626417 27.5822L2.62642 29.8322L3.37383 29.1678L1.37383 26.9178L0.626417 27.5822ZM3.00012 30H5.00012V29H3.00012V30Z" fill="#FF0303"/>
<path d="M1.00012 1V0.5C0.72398 0.5 0.500122 0.723858 0.500122 1H1.00012ZM1.00012 27.25H0.500122C0.500122 27.3725 0.545061 27.4907 0.626417 27.5822L1.00012 27.25ZM3.00012 29.5L2.62642 29.8322C2.7213 29.9389 2.8573 30 3.00012 30V29.5ZM5.00012 30C5.27626 30 5.50012 29.7761 5.50012 29.5C5.50012 29.2239 5.27626 29 5.00012 29V30ZM17.0001 0.5H1.00012V1.5H17.0001V0.5ZM0.500122 1V27.25H1.50012V1H0.500122ZM0.626417 27.5822L2.62642 29.8322L3.37383 29.1678L1.37383 26.9178L0.626417 27.5822ZM3.00012 30H5.00012V29H3.00012V30Z" fill="black" fill-opacity="0.2"/>
<path d="M33.0001 1V0.5C33.2763 0.5 33.5001 0.723858 33.5001 1H33.0001ZM33.0001 27.25H33.5001C33.5001 27.3725 33.4552 27.4907 33.3738 27.5822L33.0001 27.25ZM31.0001 29.5L31.3738 29.8322C31.2789 29.9389 31.1429 30 31.0001 30V29.5ZM29.0001 30C28.724 30 28.5001 29.7761 28.5001 29.5C28.5001 29.2239 28.724 29 29.0001 29V30ZM17.0001 0.5H33.0001V1.5H17.0001V0.5ZM33.5001 1V27.25H32.5001V1H33.5001ZM33.3738 27.5822L31.3738 29.8322L30.6264 29.1678L32.6264 26.9178L33.3738 27.5822ZM31.0001 30H29.0001V29H31.0001V30Z" fill="#FF0303"/>
<path d="M33.0001 1V0.5C33.2763 0.5 33.5001 0.723858 33.5001 1H33.0001ZM33.0001 27.25H33.5001C33.5001 27.3725 33.4552 27.4907 33.3738 27.5822L33.0001 27.25ZM31.0001 29.5L31.3738 29.8322C31.2789 29.9389 31.1429 30 31.0001 30V29.5ZM29.0001 30C28.724 30 28.5001 29.7761 28.5001 29.5C28.5001 29.2239 28.724 29 29.0001 29V30ZM17.0001 0.5H33.0001V1.5H17.0001V0.5ZM33.5001 1V27.25H32.5001V1H33.5001ZM33.3738 27.5822L31.3738 29.8322L30.6264 29.1678L32.6264 26.9178L33.3738 27.5822ZM31.0001 30H29.0001V29H31.0001V30Z" fill="black" fill-opacity="0.2"/>
</svg>
