<svg width="50" height="50" viewBox="0 0 50 50" fill="none" xmlns="http://www.w3.org/2000/svg">
<path d="M39.082 41.7164V0L10.9177 8.80136V41.7164H6.77588V50H43.2239V41.7164H39.082ZM12.5744 10.0191L37.4253 2.25315V41.7164H12.5744V10.0191ZM41.5671 48.3433H8.43261V43.3731H41.5671V48.3433Z" fill="#146EB4"/>
<path d="M34.2258 16.5996H15.7742C14.7959 16.5996 14 17.3955 14 18.3738V30.4383C14 31.4166 14.7959 32.2125 15.7742 32.2125H20.143C20.9978 34.2266 21.4516 36.4032 21.4516 38.5996L22.1613 38.5939C22.1613 37.9652 22.1201 37.3382 22.0506 36.7147L22.0573 36.7214L22.5161 36.2626L23.2563 37.0028L22.2653 37.9939L22.767 38.4956L23.7581 37.5046L24.7491 38.4956L25 38.2448L25.2509 38.4956L26.2419 37.5046L27.233 38.4956L27.7347 37.9939L26.7437 37.0028L28.1034 35.6431C27.9317 36.6171 27.8387 37.6064 27.8387 38.5996L28.5484 38.5939C28.5484 36.4021 29.0022 34.2262 29.857 32.2125H34.2258C35.2041 32.2125 36 31.4166 36 30.4383V18.3738C36 17.3955 35.2041 16.5996 34.2258 16.5996ZM29.9677 28.6641H20.0323V22.277H29.9677V28.6641ZM30.6774 29.3738V30.0835H19.3226V29.3738H30.6774ZM26.9821 30.7932L26.2419 31.5333L25.5017 30.7932H26.9821ZM27.4839 31.2949L28.2241 32.0351L27.4839 32.7753L26.7437 32.0351L27.4839 31.2949ZM25.7402 32.0351L25 32.7753L24.2598 32.0351L25 31.2949L25.7402 32.0351ZM24.4983 30.7932L23.7581 31.5333L23.0179 30.7932H24.4983ZM22.0144 30.7932L21.2742 31.5333L20.534 30.7932H22.0144ZM22.0144 33.277L21.469 33.8224C21.3036 33.2561 21.1117 32.6979 20.8885 32.1515L22.0144 33.277ZM21.7759 32.0351L22.5161 31.2949L23.2563 32.0351L22.5161 32.7753L21.7759 32.0351ZM23.7581 32.5368L24.4983 33.277L23.7581 34.0172L23.0179 33.277L23.7581 32.5368ZM25 33.7788L25.7402 34.519L25 35.2592L24.2598 34.519L25 33.7788ZM25.5017 33.277L26.2419 32.5368L26.9821 33.277L26.2419 34.0172L25.5017 33.277ZM27.4839 33.7788L28.2241 34.519L27.4839 35.2592L26.7437 34.519L27.4839 33.7788ZM27.9856 33.277L28.7258 32.5368L28.8972 32.7082C28.762 33.0755 28.6406 33.447 28.531 33.8224L27.9856 33.277ZM27.9856 30.7932H29.7392C29.5377 31.1845 29.3514 31.5834 29.1811 31.9886L27.9856 30.7932ZM21.9289 35.8464C21.8611 35.4323 21.7802 35.0207 21.6819 34.613L22.5161 33.7788L23.2563 34.519L21.9289 35.8464ZM23.0179 35.7609L23.7581 35.0207L24.4983 35.7609L23.7581 36.5011L23.0179 35.7609ZM25 37.743L24.2598 37.0028L25 36.2626L25.7402 37.0028L25 37.743ZM25.5017 35.7609L26.2419 35.0207L26.9821 35.7609L26.2419 36.5011L25.5017 35.7609ZM35.2903 30.4383C35.2903 31.0252 34.8127 31.5028 34.2258 31.5028H30.1753C30.2903 31.264 30.407 31.0263 30.5337 30.7932H31.0323C31.2285 30.7932 31.3871 30.6345 31.3871 30.4383V29.019C31.3871 28.8227 31.2285 28.6641 31.0323 28.6641H30.6774V21.9222C30.6774 21.726 30.5188 21.5674 30.3226 21.5674H19.6774C19.4812 21.5674 19.3226 21.726 19.3226 21.9222V28.6641H18.9677C18.7715 28.6641 18.6129 28.8227 18.6129 29.019V30.4383C18.6129 30.6345 18.7715 30.7932 18.9677 30.7932H19.4663C19.593 31.0263 19.7097 31.264 19.8247 31.5028H15.7742C15.1873 31.5028 14.7097 31.0252 14.7097 30.4383V18.3738C14.7097 17.7869 15.1873 17.3093 15.7742 17.3093H34.2258C34.8127 17.3093 35.2903 17.7869 35.2903 18.3738V30.4383Z" fill="#146EB4"/>
<path d="M34.2382 18.0059H15.7616C15.5651 18.0059 15.4062 18.1643 15.4062 18.3602V30.4095C15.4062 30.6055 15.5651 30.7639 15.7616 30.7639H17.8935V30.0551H16.1169V18.7146H33.8828V30.0551H32.1062V30.7639H34.2382C34.4346 30.7639 34.5935 30.6055 34.5935 30.4095V18.3602C34.5935 18.1643 34.4346 18.0059 34.2382 18.0059Z" fill="#146EB4"/>
<path d="M36.9086 7.82077C36.8571 7.76591 36.7889 7.73069 36.7152 7.72074L34.3489 7.369L33.2968 5.17062C33.199 5.00411 32.9877 4.95025 32.825 5.05028C32.7767 5.07996 32.7363 5.12126 32.7073 5.17062L31.6511 7.36062L29.2848 7.71237C29.1055 7.7365 28.9792 7.90472 29.0028 8.08818C29.0125 8.16356 29.047 8.23333 29.1006 8.28604L30.8119 9.99031L30.4025 12.3981C30.3731 12.583 30.4959 12.7572 30.6767 12.7872C30.7467 12.7988 30.8184 12.7872 30.8815 12.754L33.0021 11.6234L35.1186 12.7624C35.2815 12.8481 35.4814 12.7825 35.5651 12.6159C35.5975 12.5514 35.6089 12.478 35.5976 12.4064L35.1882 9.99868L36.8994 8.29441C37.0299 8.16623 37.034 7.95419 36.9086 7.82077ZM34.6069 9.63438C34.53 9.7119 34.4949 9.82281 34.5127 9.93169L34.832 11.8411L33.1535 10.9408C33.0573 10.8894 32.9427 10.8894 32.8465 10.9408L31.168 11.8411L31.4873 9.93169C31.5051 9.82281 31.47 9.7119 31.3932 9.63438L30.0381 8.28185L31.9131 8.00548C32.0209 7.98973 32.1142 7.92085 32.1628 7.82124L32.9816 6.08347L33.8004 7.82124C33.849 7.92085 33.9423 7.98973 34.0501 8.00548L35.9251 8.28185L34.6069 9.63438Z" fill="#146EB4"/>
<path d="M10.9772 45.7052C10.9643 45.6915 10.9472 45.6827 10.9288 45.6802L10.3372 45.5922L10.0742 45.0427C10.0497 45.001 9.99693 44.9876 9.95624 45.0126C9.94418 45.02 9.93408 45.0303 9.92683 45.0427L9.66277 45.5902L9.07121 45.6781C9.02638 45.6841 8.99481 45.7262 9.00071 45.772C9.00313 45.7909 9.01175 45.8083 9.02516 45.8215L9.45296 46.2476L9.35062 46.8495C9.34329 46.8957 9.37398 46.9393 9.41918 46.9468C9.43667 46.9497 9.4546 46.9468 9.47036 46.9385L10.0005 46.6558L10.5296 46.9406C10.5704 46.962 10.6203 46.9456 10.6413 46.904C10.6494 46.8878 10.6522 46.8695 10.6494 46.8516L10.547 46.2497L10.9749 45.8236C11.0075 45.7916 11.0085 45.7385 10.9772 45.7052ZM10.4017 46.1586C10.3825 46.178 10.3737 46.2057 10.3782 46.2329L10.458 46.7103L10.0384 46.4852C10.0143 46.4724 9.98568 46.4724 9.96163 46.4852L9.54201 46.7103L9.62184 46.2329C9.62627 46.2057 9.6175 46.178 9.5983 46.1586L9.25953 45.8205L9.72828 45.7514C9.75522 45.7474 9.77855 45.7302 9.79071 45.7053L9.9954 45.2709L10.2001 45.7053C10.2122 45.7302 10.2356 45.7474 10.2625 45.7514L10.7313 45.8205L10.4017 46.1586Z" fill="#146EB4"/>
<path d="M13.9772 45.7052C13.9643 45.6915 13.9472 45.6827 13.9288 45.6802L13.3372 45.5922L13.0742 45.0427C13.0497 45.001 12.9969 44.9876 12.9562 45.0126C12.9442 45.02 12.9341 45.0303 12.9268 45.0427L12.6628 45.5902L12.0712 45.6781C12.0264 45.6841 11.9948 45.7262 12.0007 45.772C12.0031 45.7909 12.0117 45.8083 12.0252 45.8215L12.453 46.2476L12.3506 46.8495C12.3433 46.8957 12.374 46.9393 12.4192 46.9468C12.4367 46.9497 12.4546 46.9468 12.4704 46.9385L13.0005 46.6558L13.5296 46.9406C13.5704 46.962 13.6203 46.9456 13.6413 46.904C13.6494 46.8878 13.6522 46.8695 13.6494 46.8516L13.547 46.2497L13.9749 45.8236C14.0075 45.7916 14.0085 45.7385 13.9772 45.7052ZM13.4017 46.1586C13.3825 46.178 13.3737 46.2057 13.3782 46.2329L13.458 46.7103L13.0384 46.4852C13.0143 46.4724 12.9857 46.4724 12.9616 46.4852L12.542 46.7103L12.6218 46.2329C12.6263 46.2057 12.6175 46.178 12.5983 46.1586L12.2595 45.8205L12.7283 45.7514C12.7552 45.7474 12.7786 45.7302 12.7907 45.7053L12.9954 45.2709L13.2001 45.7053C13.2122 45.7302 13.2356 45.7474 13.2625 45.7514L13.7313 45.8205L13.4017 46.1586Z" fill="#146EB4"/>
<path d="M16.9772 45.7052C16.9643 45.6915 16.9472 45.6827 16.9288 45.6802L16.3372 45.5922L16.0742 45.0427C16.0497 45.001 15.9969 44.9876 15.9562 45.0126C15.9442 45.02 15.9341 45.0303 15.9268 45.0427L15.6628 45.5902L15.0712 45.6781C15.0264 45.6841 14.9948 45.7262 15.0007 45.772C15.0031 45.7909 15.0117 45.8083 15.0252 45.8215L15.453 46.2476L15.3506 46.8495C15.3433 46.8957 15.374 46.9393 15.4192 46.9468C15.4367 46.9497 15.4546 46.9468 15.4704 46.9385L16.0005 46.6558L16.5296 46.9406C16.5704 46.962 16.6203 46.9456 16.6413 46.904C16.6494 46.8878 16.6522 46.8695 16.6494 46.8516L16.547 46.2497L16.9749 45.8236C17.0075 45.7916 17.0085 45.7385 16.9772 45.7052ZM16.4017 46.1586C16.3825 46.178 16.3737 46.2057 16.3782 46.2329L16.458 46.7103L16.0384 46.4852C16.0143 46.4724 15.9857 46.4724 15.9616 46.4852L15.542 46.7103L15.6218 46.2329C15.6263 46.2057 15.6175 46.178 15.5983 46.1586L15.2595 45.8205L15.7283 45.7514C15.7552 45.7474 15.7786 45.7302 15.7907 45.7053L15.9954 45.2709L16.2001 45.7053C16.2122 45.7302 16.2356 45.7474 16.2625 45.7514L16.7313 45.8205L16.4017 46.1586Z" fill="#146EB4"/>
<path d="M34.9543 8.41038C34.9285 8.38296 34.8944 8.36534 34.8576 8.36037L33.6745 8.1845L33.1484 7.08531C33.0995 7.00206 32.9939 6.97513 32.9125 7.02514C32.8884 7.03998 32.8682 7.06063 32.8537 7.08531L32.3255 8.18031L31.1424 8.35618C31.0528 8.36825 30.9896 8.45236 31.0014 8.54409C31.0063 8.58178 31.0235 8.61667 31.0503 8.64302L31.9059 9.49516L31.7012 10.699C31.6866 10.7915 31.748 10.8786 31.8384 10.8936C31.8733 10.8994 31.9092 10.8936 31.9407 10.877L33.001 10.3117L34.0593 10.8812C34.1407 10.924 34.2407 10.8912 34.2826 10.8079C34.2988 10.7757 34.3045 10.739 34.2988 10.7032L34.0941 9.49934L34.9497 8.64721C35.0149 8.58311 35.017 8.47709 34.9543 8.41038ZM33.8034 9.31719C33.765 9.35595 33.7475 9.41141 33.7564 9.46584L33.916 10.4206L33.0768 9.97042C33.0287 9.94472 32.9714 9.94472 32.9233 9.97042L32.084 10.4206L32.2437 9.46584C32.2525 9.41141 32.235 9.35595 32.1966 9.31719L31.5191 8.64093L32.4566 8.50274C32.5104 8.49486 32.5571 8.46042 32.5814 8.41062L32.9908 7.54173L33.4002 8.41062C33.4245 8.46042 33.4712 8.49486 33.525 8.50274L34.4625 8.64093L33.8034 9.31719Z" fill="#146EB4"/>
</svg>
