<svg width="100" height="100" viewBox="0 0 100 100" fill="none" xmlns="http://www.w3.org/2000/svg">
<g clip-path="url(#clip0)">
<path d="M17.7895 99.9999H82.2105C84.3025 99.9981 85.9979 98.5068 86 96.6666V93.3333C85.9979 91.4931 84.3025 90.0018 82.2105 89.9999H80.3158V86.6666C80.3137 84.8264 78.6183 83.3351 76.5263 83.3333H74.6316V64.9999C74.6295 63.1597 72.9341 61.6684 70.8421 61.6666H66.7049L64.8758 53.7939C64.6551 52.8339 64.2854 51.9051 63.7768 51.0338C72.9645 45.502 78.4471 36.3309 78.4211 26.5373V9.77693C78.4225 7.96276 76.7713 6.48206 74.7093 6.44843C65.4438 6.21893 57.6771 4.2166 52.2472 0.658262C50.9169 -0.223978 49.0831 -0.223978 47.7528 0.658262C42.3239 4.2166 34.5579 6.21893 25.2926 6.44843C23.2299 6.48125 21.5776 7.96216 21.5789 9.77693V26.5373C21.5473 36.3321 27.0303 45.5054 36.2215 51.0349C35.715 51.9026 35.3465 52.8274 35.1263 53.7833L33.2949 61.6666H29.1579C27.0659 61.6684 25.3705 63.1597 25.3684 64.9999V83.3333H23.4737C21.3817 83.3351 19.6863 84.8264 19.6842 86.6666V89.9999H17.7895C15.6975 90.0018 14.0021 91.4931 14 93.3333V96.6666C14.0021 98.5068 15.6975 99.9981 17.7895 99.9999ZM25.3684 26.5373L25.398 9.78026C35.4361 9.53193 43.942 7.30626 50 3.34226C56.0561 7.30543 64.563 9.53193 74.6316 9.77693V26.5373C74.6687 35.5241 69.4738 43.9024 60.8642 48.7409L60.1535 49.1719L60.1241 49.1838L60.1069 49.2004L50.0639 55.2891L39.8844 49.1921L39.8759 49.1841L39.8607 49.1779L39.0719 48.7054C30.4944 43.864 25.3253 35.5019 25.3684 26.5373ZM38.8415 54.4401C38.959 53.9184 39.1401 53.4093 39.3817 52.9218L47.9933 58.0801C48.5892 58.4067 49.2776 58.5794 49.9797 58.5783C50.7195 58.5765 51.4437 58.3917 52.0696 58.0449L60.6177 52.9211C60.8606 53.4125 61.0425 53.9254 61.1602 54.4511L62.8367 61.6666H37.163L38.8415 54.4401ZM29.1579 64.9999H70.8421V83.3333H29.1579V64.9999ZM23.4737 86.6666H76.5263V89.9999H23.4737V86.6666ZM17.7895 93.3333H82.2105L82.2134 96.6666H17.7895V93.3333Z" fill="#146EB4"/>
<path d="M37.2721 17.2721C33.8724 20.6718 32 25.192 32 30C32 34.808 33.8724 39.3282 37.2721 42.7279C40.6718 46.1276 45.192 48 50 48C54.808 48 59.3281 46.1276 62.7279 42.7279C66.1277 39.3282 68 34.808 68 30C68 25.192 66.1277 20.6718 62.7279 17.2721C59.3281 13.8724 54.808 12 50 12C45.192 12 40.6718 13.8723 37.2721 17.2721ZM66.9214 30.5347C66.7882 34.8566 65.0432 38.9005 61.9718 41.9719C61.9617 41.982 61.9512 41.9917 61.9411 42.0019C60.4411 40.5111 59.2481 38.7794 58.3925 36.8468C57.5078 34.8484 57.0275 32.7274 56.9602 30.5348L66.9214 30.5348V30.5347ZM49.4653 30.5347V40.6215H50.5347V30.5347H55.8901C55.9577 32.8775 56.4693 35.1441 57.4147 37.2797C58.3191 39.3225 59.578 41.1538 61.1594 42.7321C58.2036 45.33 54.4856 46.7997 50.5346 46.9215V42.0475H49.4653V46.9215C45.5143 46.7998 41.7963 45.3302 38.8406 42.7321C40.4219 41.1537 41.6808 39.3225 42.5852 37.2795C43.5306 35.144 44.0421 32.8775 44.1097 30.5347H49.4653ZM43.0398 30.5347C42.9725 32.7273 42.4922 34.8483 41.6075 36.8466C40.7519 38.7794 39.5589 40.5112 38.059 42.0018C38.0488 41.9917 38.0384 41.9819 38.0282 41.9718C34.9569 38.9004 33.2118 34.8565 33.0786 30.5346H43.0398V30.5347ZM33.0785 29.4653C33.2118 25.1434 34.9567 21.0996 38.0282 18.0282C38.0383 18.018 38.0488 18.0083 38.0589 17.9981C39.5589 19.4888 40.7519 21.2206 41.6075 23.1532C42.4922 25.1516 42.9725 27.2726 43.0398 29.4653H33.0785V29.4653ZM49.4653 29.4653H44.1099C44.0423 27.1225 43.5307 24.8559 42.5853 22.7204C41.6809 20.6775 40.422 18.8462 38.8407 17.268C41.7964 14.67 45.5144 13.2003 49.4655 13.0785V29.4653H49.4653ZM61.9718 18.0282C65.0432 21.0996 66.7883 25.1434 66.9215 29.4653L56.9602 29.4653C57.0274 27.2727 57.5078 25.1517 58.3924 23.1534C59.2481 21.2206 60.441 19.4889 61.941 17.9982C61.9512 18.0083 61.9617 18.018 61.9718 18.0282ZM57.4147 22.7205C56.4693 24.856 55.9578 27.1225 55.8902 29.4653H50.5347V13.0785C54.4857 13.2004 58.2037 14.67 61.1594 17.268C59.578 18.8462 58.3191 20.6775 57.4147 22.7205Z" fill="#146EB4" stroke="#146EB4" stroke-width="0.5"/>
<path d="M33.9543 79.4104C33.9285 79.383 33.8944 79.3653 33.8576 79.3604L32.6745 79.1845L32.1484 78.0853C32.0995 78.0021 31.9939 77.9751 31.9125 78.0251C31.8884 78.04 31.8682 78.0606 31.8537 78.0853L31.3255 79.1803L30.1424 79.3562C30.0528 79.3682 29.9896 79.4524 30.0014 79.5441C30.0063 79.5818 30.0235 79.6167 30.0503 79.643L30.9059 80.4952L30.7012 81.699C30.6866 81.7915 30.748 81.8786 30.8384 81.8936C30.8733 81.8994 30.9092 81.8936 30.9407 81.877L32.001 81.3117L33.0593 81.8812C33.1407 81.924 33.2407 81.8912 33.2826 81.8079C33.2988 81.7757 33.3045 81.739 33.2988 81.7032L33.0941 80.4993L33.9497 79.6472C34.0149 79.5831 34.017 79.4771 33.9543 79.4104ZM32.8034 80.3172C32.765 80.356 32.7475 80.4114 32.7564 80.4658L32.916 81.4206L32.0768 80.9704C32.0287 80.9447 31.9714 80.9447 31.9233 80.9704L31.084 81.4206L31.2437 80.4658C31.2525 80.4114 31.235 80.356 31.1966 80.3172L30.5191 79.6409L31.4566 79.5027C31.5104 79.4949 31.5571 79.4604 31.5814 79.4106L31.9908 78.5417L32.4002 79.4106C32.4245 79.4604 32.4712 79.4949 32.525 79.5027L33.4625 79.6409L32.8034 80.3172Z" fill="#146EB4"/>
<path d="M39.9543 79.4104C39.9285 79.383 39.8944 79.3653 39.8576 79.3604L38.6745 79.1845L38.1484 78.0853C38.0995 78.0021 37.9939 77.9751 37.9125 78.0251C37.8884 78.04 37.8682 78.0606 37.8537 78.0853L37.3255 79.1803L36.1424 79.3562C36.0528 79.3682 35.9896 79.4524 36.0014 79.5441C36.0063 79.5818 36.0235 79.6167 36.0503 79.643L36.9059 80.4952L36.7012 81.699C36.6866 81.7915 36.748 81.8786 36.8384 81.8936C36.8733 81.8994 36.9092 81.8936 36.9407 81.877L38.001 81.3117L39.0593 81.8812C39.1407 81.924 39.2407 81.8912 39.2826 81.8079C39.2988 81.7757 39.3045 81.739 39.2988 81.7032L39.0941 80.4993L39.9497 79.6472C40.0149 79.5831 40.017 79.4771 39.9543 79.4104ZM38.8034 80.3172C38.765 80.356 38.7475 80.4114 38.7564 80.4658L38.916 81.4206L38.0768 80.9704C38.0287 80.9447 37.9714 80.9447 37.9233 80.9704L37.084 81.4206L37.2437 80.4658C37.2525 80.4114 37.235 80.356 37.1966 80.3172L36.5191 79.6409L37.4566 79.5027C37.5104 79.4949 37.5571 79.4604 37.5814 79.4106L37.9908 78.5417L38.4002 79.4106C38.4245 79.4604 38.4712 79.4949 38.525 79.5027L39.4625 79.6409L38.8034 80.3172Z" fill="#146EB4"/>
<path d="M45.9543 79.4104C45.9285 79.383 45.8944 79.3653 45.8576 79.3604L44.6745 79.1845L44.1484 78.0853C44.0995 78.0021 43.9939 77.9751 43.9125 78.0251C43.8884 78.04 43.8682 78.0606 43.8537 78.0853L43.3255 79.1803L42.1424 79.3562C42.0528 79.3682 41.9896 79.4524 42.0014 79.5441C42.0063 79.5818 42.0235 79.6167 42.0503 79.643L42.9059 80.4952L42.7012 81.699C42.6866 81.7915 42.748 81.8786 42.8384 81.8936C42.8733 81.8994 42.9092 81.8936 42.9407 81.877L44.001 81.3117L45.0593 81.8812C45.1407 81.924 45.2407 81.8912 45.2826 81.8079C45.2988 81.7757 45.3045 81.739 45.2988 81.7032L45.0941 80.4993L45.9497 79.6472C46.0149 79.5831 46.017 79.4771 45.9543 79.4104ZM44.8034 80.3172C44.765 80.356 44.7475 80.4114 44.7564 80.4658L44.916 81.4206L44.0768 80.9704C44.0287 80.9447 43.9714 80.9447 43.9233 80.9704L43.084 81.4206L43.2437 80.4658C43.2525 80.4114 43.235 80.356 43.1966 80.3172L42.5191 79.6409L43.4566 79.5027C43.5104 79.4949 43.5571 79.4604 43.5814 79.4106L43.9908 78.5417L44.4002 79.4106C44.4245 79.4604 44.4712 79.4949 44.525 79.5027L45.4625 79.6409L44.8034 80.3172Z" fill="#146EB4"/>
<path d="M73.9086 12.8208C73.8571 12.7659 73.7889 12.7307 73.7152 12.7207L71.3489 12.369L70.2968 10.1706C70.199 10.0041 69.9877 9.95025 69.825 10.0503C69.7767 10.08 69.7363 10.1213 69.7073 10.1706L68.6511 12.3606L66.2848 12.7124C66.1055 12.7365 65.9792 12.9047 66.0028 13.0882C66.0125 13.1636 66.047 13.2333 66.1006 13.286L67.8119 14.9903L67.4025 17.3981C67.3731 17.583 67.4959 17.7572 67.6767 17.7872C67.7467 17.7988 67.8184 17.7872 67.8815 17.754L70.0021 16.6234L72.1186 17.7624C72.2815 17.8481 72.4814 17.7825 72.5651 17.6159C72.5975 17.5514 72.6089 17.478 72.5976 17.4064L72.1882 14.9987L73.8994 13.2944C74.0299 13.1662 74.034 12.9542 73.9086 12.8208ZM71.6069 14.6344C71.53 14.7119 71.4949 14.8228 71.5127 14.9317L71.832 16.8411L70.1535 15.9409C70.0573 15.8894 69.9427 15.8894 69.8465 15.9409L68.168 16.8411L68.4873 14.9317C68.5051 14.8228 68.47 14.7119 68.3932 14.6344L67.0381 13.2819L68.9131 13.0055C69.0209 12.9897 69.1142 12.9208 69.1628 12.8212L69.9816 11.0835L70.8004 12.8212C70.849 12.9208 70.9423 12.9897 71.0501 13.0055L72.9251 13.2819L71.6069 14.6344Z" fill="#146EB4"/>
</g>
<defs>
<clipPath id="clip0">
<rect width="100" height="100" fill="white"/>
</clipPath>
</defs>
</svg>
