<svg width="33" height="32" viewBox="0 0 33 32" fill="none" xmlns="http://www.w3.org/2000/svg">
<path d="M25.8239 10.1799H26.3239C26.3239 10.0911 26.3003 10.0039 26.2554 9.92729L25.8239 10.1799ZM23.1889 5.67823L23.6204 5.42565C23.5684 5.33692 23.4904 5.26635 23.3969 5.22357L23.1889 5.67823ZM19.4998 3.99011L19.2643 4.43119L19.2778 4.4384L19.2917 4.44477L19.4998 3.99011ZM18.4458 3.42741L18.6812 2.98633C18.6088 2.94764 18.5279 2.92741 18.4458 2.92741V3.42741ZM12.1216 3.42741V2.92741C11.9834 2.92741 11.8512 2.98468 11.7567 3.08562L12.1216 3.42741ZM11.0676 4.55282L10.7027 4.21103C10.6159 4.30368 10.5676 4.42588 10.5676 4.55282H11.0676ZM11.0676 5.67823H10.5676C10.5676 5.80517 10.6159 5.92737 10.7027 6.02002L11.0676 5.67823ZM12.1216 6.80364L11.7567 7.14543C11.8512 7.24637 11.9834 7.30364 12.1216 7.30364V6.80364ZM17.3917 6.80364L17.5881 6.34382C17.5261 6.31731 17.4593 6.30364 17.3917 6.30364V6.80364ZM20.0268 7.92905L20.3168 8.3364C20.4641 8.23151 20.5433 8.05523 20.5239 7.87541C20.5045 7.6956 20.3895 7.54027 20.2232 7.46924L20.0268 7.92905ZM13.7027 12.4307L13.4127 12.0234C13.3425 12.0733 13.2864 12.1406 13.2499 12.2187L13.7027 12.4307ZM13.1757 13.5561L12.7229 13.3441C12.6918 13.4104 12.6757 13.4828 12.6757 13.5561H13.1757ZM13.1757 15.2442H12.6757C12.6757 15.3827 12.7331 15.515 12.8343 15.6096L13.1757 15.2442ZM17.3917 19.1832L17.7567 18.8414L17.7453 18.8292L17.7331 18.8178L17.3917 19.1832ZM17.9188 19.7459L18.0064 20.2381C18.1869 20.206 18.3354 20.0776 18.3932 19.9036C18.4511 19.7296 18.409 19.5379 18.2837 19.4041L17.9188 19.7459ZM11.5946 20.8713L11.507 20.379C11.347 20.4075 11.2108 20.512 11.1418 20.6592L11.5946 20.8713ZM11.0676 21.9967L10.6148 21.7847C10.5837 21.851 10.5676 21.9234 10.5676 21.9967H11.0676ZM11.0676 23.6848H10.5676C10.5676 23.8118 10.6159 23.934 10.7027 24.0266L11.0676 23.6848ZM11.5946 24.2475L11.2297 24.5893C11.3443 24.7116 11.5125 24.7684 11.6778 24.7406L11.5946 24.2475ZM21.6078 22.5594L21.691 23.0525C21.7989 23.0343 21.8979 22.9811 21.9728 22.9012L21.6078 22.5594ZM22.6618 21.434L23.0268 21.7758C23.1136 21.6831 23.1618 21.5609 23.1618 21.434H22.6618ZM22.6618 19.7459H23.1618C23.1618 19.6321 23.123 19.5216 23.0518 19.4329L22.6618 19.7459ZM19.4998 15.8069L19.1674 15.4334C18.9685 15.6104 18.9432 15.9123 19.1099 16.1199L19.4998 15.8069ZM25.8239 12.9934H25.3239C25.3239 13.2696 25.5478 13.4934 25.8239 13.4934V12.9934ZM30.04 12.9934L30.4049 12.6516C30.3104 12.5507 30.1783 12.4934 30.04 12.4934V12.9934ZM31.094 14.1188H31.594C31.594 13.9919 31.5457 13.8697 31.459 13.777L31.094 14.1188ZM31.094 15.2442L31.459 15.586C31.5457 15.4934 31.594 15.3712 31.594 15.2442H31.094ZM30.04 16.3696V16.8696C30.1783 16.8696 30.3104 16.8124 30.4049 16.7114L30.04 16.3696ZM24.7699 16.3696L24.5344 16.8107C24.6069 16.8494 24.6877 16.8696 24.7699 16.8696V16.3696ZM23.7159 15.8069H23.2159C23.2159 15.9915 23.3176 16.1611 23.4804 16.248L23.7159 15.8069ZM12.6487 28.1865L12.2395 27.8991C12.1804 27.9832 12.1487 28.0836 12.1487 28.1865H12.6487ZM12.6487 29.8746H12.1487C12.1487 30.0015 12.1969 30.1237 12.2837 30.2164L12.6487 29.8746ZM13.7027 31L13.3377 31.3418C13.4323 31.4427 13.5644 31.5 13.7027 31.5V31ZM14.7567 31V31.5C14.9236 31.5 15.0795 31.4167 15.1723 31.278L14.7567 31ZM20.0268 23.1221L19.6619 22.7803C19.6433 22.8002 19.6263 22.8215 19.6112 22.8441L20.0268 23.1221ZM29.8971 6.97296C28.3697 8.03288 26.5618 7.70263 25.7929 6.43936L24.9387 6.9593C26.0731 8.82295 28.578 9.10554 30.4672 7.79452L29.8971 6.97296ZM25.7929 6.43936C25.0064 5.14722 25.4834 3.19966 27.0209 2.13274L26.4508 1.31117C24.5717 2.61519 23.8219 5.12453 24.9387 6.9593L25.7929 6.43936ZM27.0209 2.13274C28.5483 1.07281 30.3562 1.40307 31.1251 2.66633L31.9793 2.14639C30.8449 0.282745 28.3401 0.000159144 26.4508 1.31117L27.0209 2.13274ZM31.1251 2.66633C31.9116 3.95848 31.4346 5.90603 29.8971 6.97296L30.4672 7.79452C32.3463 6.49051 33.0961 3.98117 31.9793 2.14639L31.1251 2.66633ZM26.2554 9.92729L23.6204 5.42565L22.7573 5.93082L25.3924 10.4325L26.2554 9.92729ZM23.3969 5.22357L19.7078 3.53545L19.2917 4.44477L22.9808 6.13289L23.3969 5.22357ZM19.7353 3.54903L18.6812 2.98633L18.2103 3.86849L19.2643 4.43119L19.7353 3.54903ZM18.4458 2.92741H12.1216V3.92741H18.4458V2.92741ZM11.7567 3.08562L10.7027 4.21103L11.4326 4.89461L12.4866 3.7692L11.7567 3.08562ZM10.5676 4.55282V5.67823H11.5676V4.55282H10.5676ZM10.7027 6.02002L11.7567 7.14543L12.4866 6.46185L11.4326 5.33644L10.7027 6.02002ZM12.1216 7.30364H17.3917V6.30364H12.1216V7.30364ZM17.1954 7.26346L19.8304 8.38887L20.2232 7.46924L17.5881 6.34382L17.1954 7.26346ZM19.7368 7.52171L13.4127 12.0234L13.9926 12.838L20.3168 8.3364L19.7368 7.52171ZM13.2499 12.2187L12.7229 13.3441L13.6285 13.7682L14.1555 12.6427L13.2499 12.2187ZM12.6757 13.5561V15.2442H13.6757V13.5561H12.6757ZM12.8343 15.6096L17.0504 19.5485L17.7331 18.8178L13.517 14.8789L12.8343 15.6096ZM17.0268 19.525L17.5538 20.0877L18.2837 19.4041L17.7567 18.8414L17.0268 19.525ZM17.8312 19.2536L11.507 20.379L11.6822 21.3636L18.0064 20.2381L17.8312 19.2536ZM11.1418 20.6592L10.6148 21.7847L11.5204 22.2087L12.0474 21.0833L11.1418 20.6592ZM10.5676 21.9967V23.6848H11.5676V21.9967H10.5676ZM10.7027 24.0266L11.2297 24.5893L11.9596 23.9057L11.4326 23.343L10.7027 24.0266ZM11.6778 24.7406L21.691 23.0525L21.5247 22.0664L11.5115 23.7545L11.6778 24.7406ZM21.9728 22.9012L23.0268 21.7758L22.2969 21.0922L21.2429 22.2176L21.9728 22.9012ZM23.1618 21.434V19.7459H22.1618V21.434H23.1618ZM23.0518 19.4329L19.8897 15.4939L19.1099 16.1199L22.2719 20.0589L23.0518 19.4329ZM19.8322 16.1805L26.1563 10.5534L25.4915 9.80634L19.1674 15.4334L19.8322 16.1805ZM25.3239 10.1799V12.9934H26.3239V10.1799H25.3239ZM25.8239 13.4934H30.04V12.4934H25.8239V13.4934ZM29.6751 13.3352L30.7291 14.4606L31.459 13.777L30.4049 12.6516L29.6751 13.3352ZM30.594 14.1188V15.2442H31.594V14.1188H30.594ZM30.7291 14.9024L29.6751 16.0279L30.4049 16.7114L31.459 15.586L30.7291 14.9024ZM30.04 15.8696H24.7699V16.8696H30.04V15.8696ZM25.0054 15.9286L23.9513 15.3659L23.4804 16.248L24.5344 16.8107L25.0054 15.9286ZM15.4016 23.3974L12.2395 27.8991L13.0578 28.4739L16.2199 23.9722L15.4016 23.3974ZM12.1487 28.1865V29.8746H13.1487V28.1865H12.1487ZM12.2837 30.2164L13.3377 31.3418L14.0676 30.6582L13.0136 29.5328L12.2837 30.2164ZM13.7027 31.5H14.7567V30.5H13.7027V31.5ZM15.1723 31.278L20.4424 23.4001L19.6112 22.8441L14.3411 30.722L15.1723 31.278ZM20.3917 23.4639L20.9187 22.9012L20.1889 22.2176L19.6619 22.7803L20.3917 23.4639ZM24.2159 15.8069V11.868H23.2159V15.8069H24.2159Z" fill="#146EB4"/>
<path d="M13.1757 9.05444H3.16255M13.1757 17.495H3.16255M10.0137 11.868H0.000488281M10.0137 14.6815H0.000488281" stroke="#146EB4" stroke-dasharray="1 1"/>
</svg>
