<svg width="34" height="34" viewBox="0 0 34 34" fill="none" xmlns="http://www.w3.org/2000/svg">
<path d="M30.936 1H31.436C31.436 0.723858 31.2121 0.5 30.936 0.5V1ZM24.7424 1V0.5C24.4663 0.5 24.2424 0.723858 24.2424 1H24.7424ZM23.194 9H23.694C23.694 8.72386 23.4702 8.5 23.194 8.5V9ZM17.5166 9V8.5C17.2405 8.5 17.0166 8.72386 17.0166 9H17.5166ZM15.9682 17.5714H16.4682C16.4682 17.2953 16.2444 17.0714 15.9682 17.0714V17.5714ZM10.2908 17.5714V17.0714C10.0147 17.0714 9.79081 17.2953 9.79081 17.5714H10.2908ZM8.22629 24.4286H8.72629C8.72629 24.1524 8.50244 23.9286 8.22629 23.9286V24.4286ZM3.065 24.4286V23.9286C2.78886 23.9286 2.565 24.1524 2.565 24.4286H3.065ZM1.00049 31.2857V30.7857C0.724346 30.7857 0.500488 31.0096 0.500488 31.2857H1.00049ZM1.00049 33H0.500488C0.500488 33.2761 0.724346 33.5 1.00049 33.5V33ZM33.0005 33V33.5C33.2766 33.5 33.5005 33.2761 33.5005 33H33.0005ZM33.0005 31.2857H33.5005C33.5005 31.0096 33.2766 30.7857 33.0005 30.7857V31.2857ZM21.6456 29.0714C21.3695 29.0714 21.1456 29.2953 21.1456 29.5714C21.1456 29.8476 21.3695 30.0714 21.6456 30.0714V29.0714ZM21.6456 25.6429C21.3695 25.6429 21.1456 25.8667 21.1456 26.1429C21.1456 26.419 21.3695 26.6429 21.6456 26.6429V25.6429ZM21.6456 22.2143C21.3695 22.2143 21.1456 22.4381 21.1456 22.7143C21.1456 22.9904 21.3695 23.2143 21.6456 23.2143V22.2143ZM21.6456 19.3571C21.3695 19.3571 21.1456 19.581 21.1456 19.8571C21.1456 20.1333 21.3695 20.3571 21.6456 20.3571V19.3571ZM21.6456 16.5C21.3695 16.5 21.1456 16.7239 21.1456 17C21.1456 17.2761 21.3695 17.5 21.6456 17.5V16.5ZM21.6456 13.6429C21.3695 13.6429 21.1456 13.8667 21.1456 14.1429C21.1456 14.419 21.3695 14.6429 21.6456 14.6429V13.6429ZM21.6456 11.0714C21.3695 11.0714 21.1456 11.2953 21.1456 11.5714C21.1456 11.8476 21.3695 12.0714 21.6456 12.0714V11.0714ZM19.5811 13.5C19.8573 13.5 20.0811 13.2761 20.0811 13C20.0811 12.7239 19.8573 12.5 19.5811 12.5V13.5ZM19.5811 16.3571C19.8573 16.3571 20.0811 16.1333 20.0811 15.8571C20.0811 15.581 19.8573 15.3571 19.5811 15.3571V16.3571ZM19.5811 19.2143C19.8573 19.2143 20.0811 18.9904 20.0811 18.7143C20.0811 18.4381 19.8573 18.2143 19.5811 18.2143V19.2143ZM19.5811 22.0714C19.8573 22.0714 20.0811 21.8476 20.0811 21.5714C20.0811 21.2953 19.8573 21.0714 19.5811 21.0714V22.0714ZM19.5811 24.9286C19.8573 24.9286 20.0811 24.7047 20.0811 24.4286C20.0811 24.1524 19.8573 23.9286 19.5811 23.9286V24.9286ZM19.5811 28.3571C19.8573 28.3571 20.0811 28.1333 20.0811 27.8571C20.0811 27.581 19.8573 27.3571 19.5811 27.3571V28.3571ZM6.67791 29.0714C6.40176 29.0714 6.17791 29.2953 6.17791 29.5714C6.17791 29.8476 6.40176 30.0714 6.67791 30.0714V29.0714ZM6.67791 26.5C6.40176 26.5 6.17791 26.7239 6.17791 27C6.17791 27.2761 6.40176 27.5 6.67791 27.5V26.5ZM2.69395 14.9506C2.50886 15.1555 2.52494 15.4717 2.72986 15.6568C2.93479 15.8419 3.25096 15.8258 3.43606 15.6209L2.69395 14.9506ZM15.9682 1L10.4745 2.77556L14.7591 6.64546L15.9682 1ZM31.436 31.2857V1H30.436V31.2857H31.436ZM30.936 0.5H24.7424V1.5H30.936V0.5ZM24.2424 1V31.2857H25.2424V1H24.2424ZM23.194 31.7857H24.7424V30.7857H23.194V31.7857ZM23.194 8.5H17.5166V9.5H23.194V8.5ZM17.5166 31.7857H23.194V30.7857H17.5166V31.7857ZM15.9682 31.7857H17.5166V30.7857H15.9682V31.7857ZM16.4682 31.2857V17.5714H15.4682V31.2857H16.4682ZM15.9682 17.0714H10.2908V18.0714H15.9682V17.0714ZM9.79081 17.5714V31.2857H10.7908V17.5714H9.79081ZM8.22629 31.7857H10.2908V30.7857H8.22629V31.7857ZM8.22629 23.9286H3.065V24.9286H8.22629V23.9286ZM3.065 31.7857H8.22629V30.7857H3.065V31.7857ZM1.00049 33.5H33.0005V32.5H1.00049V33.5ZM33.5005 33V31.2857H32.5005V33H33.5005ZM23.694 31.2857V29.5714H22.694V31.2857H23.694ZM23.194 29.0714H21.6456V30.0714H23.194V29.0714ZM23.694 29.5714V26.1429H22.694V29.5714H23.694ZM23.194 25.6429H21.6456V26.6429H23.194V25.6429ZM23.694 26.1429V22.7143H22.694V26.1429H23.694ZM23.194 22.2143H21.6456V23.2143H23.194V22.2143ZM23.694 22.7143V19.8571H22.694V22.7143H23.694ZM23.194 19.3571H21.6456V20.3571H23.194V19.3571ZM23.694 19.8571V17H22.694V19.8571H23.694ZM23.194 16.5H21.6456V17.5H23.194V16.5ZM23.694 17V14.1429H22.694V17H23.694ZM23.194 13.6429H21.6456V14.6429H23.194V13.6429ZM23.694 14.1429V11.5714H22.694V14.1429H23.694ZM23.694 11.5714V9H22.694V11.5714H23.694ZM23.194 11.0714H21.6456V12.0714H23.194V11.0714ZM17.0166 9V13H18.0166V9H17.0166ZM17.5166 13.5H19.5811V12.5H17.5166V13.5ZM17.0166 13V15.8571H18.0166V13H17.0166ZM17.5166 16.3571H19.5811V15.3571H17.5166V16.3571ZM17.0166 15.8571V18.7143H18.0166V15.8571H17.0166ZM17.5166 19.2143H19.5811V18.2143H17.5166V19.2143ZM17.0166 18.7143V21.5714H18.0166V18.7143H17.0166ZM17.5166 22.0714H19.5811V21.0714H17.5166V22.0714ZM17.0166 21.5714V24.4286H18.0166V21.5714H17.0166ZM17.5166 24.9286H19.5811V23.9286H17.5166V24.9286ZM17.0166 24.4286V27.8571H18.0166V24.4286H17.0166ZM17.0166 27.8571V31.2857H18.0166V27.8571H17.0166ZM17.5166 28.3571H19.5811V27.3571H17.5166V28.3571ZM8.72629 31.2857V29.5714H7.72629V31.2857H8.72629ZM8.22629 29.0714H6.67791V30.0714H8.22629V29.0714ZM8.72629 29.5714V27H7.72629V29.5714H8.72629ZM8.72629 27V24.4286H7.72629V27H8.72629ZM8.22629 26.5H6.67791V27.5H8.22629V26.5ZM2.565 24.4286V27.8571H3.565V24.4286H2.565ZM2.565 27.8571V31.2857H3.565V27.8571H2.565ZM15.9682 30.7857H13.1295V31.7857H15.9682V30.7857ZM13.1295 30.7857H10.2908V31.7857H13.1295V30.7857ZM24.7424 31.7857H27.8392V30.7857H24.7424V31.7857ZM27.8392 31.7857H30.936V30.7857H27.8392V31.7857ZM3.43606 15.6209L13.323 4.67461L12.5809 4.00432L2.69395 14.9506L3.43606 15.6209ZM30.936 31.7857H33.0005V30.7857H30.936V31.7857ZM1.00049 31.7857H3.065V30.7857H1.00049V31.7857ZM0.500488 31.2857V33H1.50049V31.2857H0.500488Z" fill="#146EB4"/>
</svg>
