<svg width="34" height="34" viewBox="0 0 34 34" fill="none" xmlns="http://www.w3.org/2000/svg">
<path d="M7.98687 1V0.5H7.85155L7.7347 0.568252L7.98687 1ZM1.09432 8.74194L0.597547 8.79864C0.609998 8.90773 0.658012 9.00969 0.734177 9.08877L1.09432 8.74194ZM9.04723 17L9.41659 16.6627L9.40738 16.6532L9.04723 17ZM8.62276 20.1242C8.35286 20.0658 8.08673 20.2373 8.02835 20.5072C7.96996 20.7771 8.14142 21.0432 8.41132 21.1016L8.62276 20.1242ZM14.3492 26.2903V25.7903C14.073 25.7903 13.8492 26.0142 13.8492 26.2903H14.3492ZM10.5185 29.3871V28.8871C10.4077 28.8871 10.3001 28.9239 10.2125 28.9916L10.5185 29.3871ZM8.51704 30.9355L8.21109 30.54C8.0887 30.6347 8.01704 30.7807 8.01704 30.9355H8.51704ZM8.51704 33H8.01704V33.5H8.51704V33ZM26.0134 1L26.2656 0.568252L26.1487 0.5H26.0134V1ZM32.9059 8.74194L33.2661 9.08877C33.3422 9.00969 33.3902 8.90773 33.4027 8.79864L32.9059 8.74194ZM24.953 17L24.5927 16.653L24.5838 16.6629L24.953 17ZM25.5889 21.1016C25.8588 21.0432 26.0303 20.7771 25.9719 20.5072C25.9135 20.2373 25.6474 20.0658 25.3775 20.1242L25.5889 21.1016ZM19.6511 26.2903H20.1511C20.1511 26.0142 19.9272 25.7903 19.6511 25.7903V26.2903ZM23.4818 29.3871L23.7877 28.9916C23.7001 28.9239 23.5925 28.8871 23.4818 28.8871V29.3871ZM25.4832 30.9355H25.9832C25.9832 30.7807 25.9115 30.6347 25.7892 30.54L25.4832 30.9355ZM25.4832 33V33.5H25.9832V33H25.4832ZM11.0001 30.5C10.724 30.5 10.5001 30.7239 10.5001 31C10.5001 31.2761 10.724 31.5 11.0001 31.5V30.5ZM23.0001 31.5C23.2763 31.5 23.5001 31.2761 23.5001 31C23.5001 30.7239 23.2763 30.5 23.0001 30.5V31.5ZM7.7347 0.568252C7.2529 0.849663 6.5855 1.40073 6.37857 2.14318C6.26819 2.53923 6.29489 2.97423 6.52921 3.40278C6.75596 3.81747 7.15762 4.19146 7.7347 4.52852L8.23905 3.66503C7.75575 3.38273 7.51676 3.12446 7.40661 2.92303C7.30405 2.73544 7.2976 2.57045 7.34186 2.41166C7.44421 2.04444 7.8372 1.66647 8.23905 1.43175L7.7347 0.568252ZM8.23905 3.66503C7.54472 3.25948 6.68722 2.87167 5.79816 2.64031C4.9146 2.41038 3.9584 2.32426 3.09164 2.57067C2.20086 2.82391 1.44305 3.41893 0.983171 4.46104C0.533703 5.47955 0.380395 6.89611 0.597547 8.79864L1.5911 8.68523C1.38409 6.87163 1.54891 5.65594 1.89805 4.86477C2.23678 4.0972 2.75806 3.70513 3.36509 3.53256C3.99614 3.35316 4.75644 3.40253 5.54631 3.60808C6.33069 3.8122 7.10354 4.15988 7.7347 4.52852L8.23905 3.66503ZM0.734177 9.08877L8.68709 17.3468L9.40738 16.6532L1.45447 8.3951L0.734177 9.08877ZM8.678 17.3371C9.19995 17.9088 9.76497 18.6468 10.0673 19.28L10.9697 18.8491C10.6061 18.0877 9.96677 17.2655 9.41646 16.6629L8.678 17.3371ZM10.0673 19.28C10.1575 19.4688 10.218 19.6356 10.2495 19.7763L11.2253 19.5577C11.1726 19.322 11.081 19.0821 10.9697 18.8491L10.0673 19.28ZM10.2495 19.7763C10.2851 19.9349 10.2769 20.0299 10.2621 20.0788C10.2522 20.1113 10.237 20.1388 10.1808 20.1696C10.1096 20.2087 9.96495 20.2546 9.69837 20.2582C9.43521 20.2617 9.08311 20.2238 8.62276 20.1242L8.41132 21.1016C8.91693 21.211 9.3486 21.263 9.71192 21.2581C10.0718 21.2532 10.3964 21.1921 10.6621 21.0462C10.9427 20.8921 11.132 20.6566 11.2192 20.3686C11.3014 20.0971 11.2828 19.814 11.2253 19.5577L10.2495 19.7763ZM7.48711 4.08137C7.40625 6.70423 7.8043 13.3818 10.0516 19.2435L10.9854 18.8855C8.80022 13.186 8.40838 6.65061 8.48664 4.11218L7.48711 4.08137ZM10.0442 19.2229C10.1091 19.4172 10.1851 19.6272 10.2717 19.8489L11.2032 19.485C11.1222 19.2778 11.052 19.0836 10.9928 18.9062L10.0442 19.2229ZM10.2717 19.8489C10.7467 21.0649 11.5577 22.6749 12.6599 24.0383C13.7544 25.3922 15.195 26.5743 16.9397 26.7867L17.0605 25.794C15.6941 25.6277 14.4655 24.6812 13.4375 23.4096C12.4173 22.1475 11.6524 20.6351 11.2032 19.485L10.2717 19.8489ZM17.0001 25.7903H14.3492V26.7903H17.0001V25.7903ZM13.8492 26.2903V29.3871H14.8492V26.2903H13.8492ZM14.3492 28.8871H10.5185V29.8871H14.3492V28.8871ZM10.2125 28.9916L8.21109 30.54L8.82299 31.331L10.8244 29.7826L10.2125 28.9916ZM8.01704 30.9355V33H9.01704V30.9355H8.01704ZM25.7612 1.43175C26.163 1.66647 26.556 2.04444 26.6584 2.41166C26.7026 2.57045 26.6962 2.73544 26.5936 2.92303C26.4835 3.12446 26.2445 3.38273 25.7612 3.66503L26.2656 4.52852C26.8426 4.19146 27.2443 3.81747 27.471 3.40278C27.7054 2.97423 27.7321 2.53923 27.6217 2.14318C27.4147 1.40073 26.7473 0.849663 26.2656 0.568252L25.7612 1.43175ZM26.2655 4.52852C26.8967 4.15988 27.6696 3.8122 28.4539 3.60808C29.2438 3.40253 30.0041 3.35316 30.6352 3.53256C31.2422 3.70513 31.7635 4.0972 32.1022 4.86477C32.4513 5.65594 32.6162 6.87163 32.4091 8.68523L33.4027 8.79864C33.6199 6.89611 33.4665 5.47955 33.0171 4.46104C32.5572 3.41893 31.7994 2.82391 30.9086 2.57067C30.0418 2.32426 29.0856 2.41038 28.2021 2.64031C27.313 2.87167 26.4555 3.25948 25.7612 3.66503L26.2655 4.52852ZM32.5458 8.3951L24.5929 16.6532L25.3132 17.3468L33.2661 9.08877L32.5458 8.3951ZM24.5838 16.6629C24.0335 17.2655 23.3941 18.0877 23.0306 18.8491L23.933 19.28C24.2353 18.6468 24.8003 17.9088 25.3222 17.3371L24.5838 16.6629ZM23.0306 18.8491C22.9193 19.0821 22.8277 19.322 22.7749 19.5577L23.7507 19.7763C23.7822 19.6356 23.8428 19.4688 23.933 19.28L23.0306 18.8491ZM22.7749 19.5577C22.7175 19.814 22.6989 20.0971 22.7811 20.3686C22.8683 20.6566 23.0576 20.8921 23.3382 21.0462C23.6039 21.1921 23.9284 21.2532 24.2883 21.2581C24.6516 21.263 25.0833 21.211 25.5889 21.1016L25.3775 20.1242C24.9171 20.2238 24.565 20.2617 24.3019 20.2582C24.0353 20.2546 23.8906 20.2087 23.8195 20.1696C23.7632 20.1388 23.748 20.1113 23.7382 20.0788C23.7234 20.0299 23.7152 19.9349 23.7507 19.7763L22.7749 19.5577ZM25.5136 4.11218C25.5919 6.65061 25.2 13.186 23.0149 18.8855L23.9486 19.2435C26.1959 13.3818 26.594 6.70423 26.5131 4.08137L25.5136 4.11218ZM23.0075 18.9062C22.9483 19.0836 22.8781 19.2778 22.7971 19.485L23.7285 19.8489C23.8152 19.6272 23.8911 19.4172 23.956 19.2229L23.0075 18.9062ZM22.7971 19.485C22.3478 20.6351 21.583 22.1475 20.5627 23.4096C19.5348 24.6812 18.3061 25.6277 16.9397 25.794L17.0605 26.7867C18.8053 26.5743 20.2459 25.3922 21.3404 24.0383C22.4426 22.6749 23.2535 21.0649 23.7285 19.8489L22.7971 19.485ZM17.0001 26.7903H19.6511V25.7903H17.0001V26.7903ZM19.1511 26.2903V29.3871H20.1511V26.2903H19.1511ZM19.6511 29.8871H23.4818V28.8871H19.6511V29.8871ZM23.1758 29.7826L25.1773 31.331L25.7892 30.54L23.7877 28.9916L23.1758 29.7826ZM24.9832 30.9355V33H25.9832V30.9355H24.9832ZM26.0134 0.5H7.98687V1.5H26.0134V0.5ZM7.98687 4.59677H26.0134V3.59677H7.98687V4.59677ZM14.3492 29.8871H19.6511V28.8871H14.3492V29.8871ZM8.51704 33.5H25.4832V32.5H8.51704V33.5ZM11.0001 31.5H23.0001V30.5H11.0001V31.5Z" fill="#FF0303"/>
<path d="M7.98687 1V0.5H7.85155L7.7347 0.568252L7.98687 1ZM1.09432 8.74194L0.597547 8.79864C0.609998 8.90773 0.658012 9.00969 0.734177 9.08877L1.09432 8.74194ZM9.04723 17L9.41659 16.6627L9.40738 16.6532L9.04723 17ZM8.62276 20.1242C8.35286 20.0658 8.08673 20.2373 8.02835 20.5072C7.96996 20.7771 8.14142 21.0432 8.41132 21.1016L8.62276 20.1242ZM14.3492 26.2903V25.7903C14.073 25.7903 13.8492 26.0142 13.8492 26.2903H14.3492ZM10.5185 29.3871V28.8871C10.4077 28.8871 10.3001 28.9239 10.2125 28.9916L10.5185 29.3871ZM8.51704 30.9355L8.21109 30.54C8.0887 30.6347 8.01704 30.7807 8.01704 30.9355H8.51704ZM8.51704 33H8.01704V33.5H8.51704V33ZM26.0134 1L26.2656 0.568252L26.1487 0.5H26.0134V1ZM32.9059 8.74194L33.2661 9.08877C33.3422 9.00969 33.3902 8.90773 33.4027 8.79864L32.9059 8.74194ZM24.953 17L24.5927 16.653L24.5838 16.6629L24.953 17ZM25.5889 21.1016C25.8588 21.0432 26.0303 20.7771 25.9719 20.5072C25.9135 20.2373 25.6474 20.0658 25.3775 20.1242L25.5889 21.1016ZM19.6511 26.2903H20.1511C20.1511 26.0142 19.9272 25.7903 19.6511 25.7903V26.2903ZM23.4818 29.3871L23.7877 28.9916C23.7001 28.9239 23.5925 28.8871 23.4818 28.8871V29.3871ZM25.4832 30.9355H25.9832C25.9832 30.7807 25.9115 30.6347 25.7892 30.54L25.4832 30.9355ZM25.4832 33V33.5H25.9832V33H25.4832ZM11.0001 30.5C10.724 30.5 10.5001 30.7239 10.5001 31C10.5001 31.2761 10.724 31.5 11.0001 31.5V30.5ZM23.0001 31.5C23.2763 31.5 23.5001 31.2761 23.5001 31C23.5001 30.7239 23.2763 30.5 23.0001 30.5V31.5ZM7.7347 0.568252C7.2529 0.849663 6.5855 1.40073 6.37857 2.14318C6.26819 2.53923 6.29489 2.97423 6.52921 3.40278C6.75596 3.81747 7.15762 4.19146 7.7347 4.52852L8.23905 3.66503C7.75575 3.38273 7.51676 3.12446 7.40661 2.92303C7.30405 2.73544 7.2976 2.57045 7.34186 2.41166C7.44421 2.04444 7.8372 1.66647 8.23905 1.43175L7.7347 0.568252ZM8.23905 3.66503C7.54472 3.25948 6.68722 2.87167 5.79816 2.64031C4.9146 2.41038 3.9584 2.32426 3.09164 2.57067C2.20086 2.82391 1.44305 3.41893 0.983171 4.46104C0.533703 5.47955 0.380395 6.89611 0.597547 8.79864L1.5911 8.68523C1.38409 6.87163 1.54891 5.65594 1.89805 4.86477C2.23678 4.0972 2.75806 3.70513 3.36509 3.53256C3.99614 3.35316 4.75644 3.40253 5.54631 3.60808C6.33069 3.8122 7.10354 4.15988 7.7347 4.52852L8.23905 3.66503ZM0.734177 9.08877L8.68709 17.3468L9.40738 16.6532L1.45447 8.3951L0.734177 9.08877ZM8.678 17.3371C9.19995 17.9088 9.76497 18.6468 10.0673 19.28L10.9697 18.8491C10.6061 18.0877 9.96677 17.2655 9.41646 16.6629L8.678 17.3371ZM10.0673 19.28C10.1575 19.4688 10.218 19.6356 10.2495 19.7763L11.2253 19.5577C11.1726 19.322 11.081 19.0821 10.9697 18.8491L10.0673 19.28ZM10.2495 19.7763C10.2851 19.9349 10.2769 20.0299 10.2621 20.0788C10.2522 20.1113 10.237 20.1388 10.1808 20.1696C10.1096 20.2087 9.96495 20.2546 9.69837 20.2582C9.43521 20.2617 9.08311 20.2238 8.62276 20.1242L8.41132 21.1016C8.91693 21.211 9.3486 21.263 9.71192 21.2581C10.0718 21.2532 10.3964 21.1921 10.6621 21.0462C10.9427 20.8921 11.132 20.6566 11.2192 20.3686C11.3014 20.0971 11.2828 19.814 11.2253 19.5577L10.2495 19.7763ZM7.48711 4.08137C7.40625 6.70423 7.8043 13.3818 10.0516 19.2435L10.9854 18.8855C8.80022 13.186 8.40838 6.65061 8.48664 4.11218L7.48711 4.08137ZM10.0442 19.2229C10.1091 19.4172 10.1851 19.6272 10.2717 19.8489L11.2032 19.485C11.1222 19.2778 11.052 19.0836 10.9928 18.9062L10.0442 19.2229ZM10.2717 19.8489C10.7467 21.0649 11.5577 22.6749 12.6599 24.0383C13.7544 25.3922 15.195 26.5743 16.9397 26.7867L17.0605 25.794C15.6941 25.6277 14.4655 24.6812 13.4375 23.4096C12.4173 22.1475 11.6524 20.6351 11.2032 19.485L10.2717 19.8489ZM17.0001 25.7903H14.3492V26.7903H17.0001V25.7903ZM13.8492 26.2903V29.3871H14.8492V26.2903H13.8492ZM14.3492 28.8871H10.5185V29.8871H14.3492V28.8871ZM10.2125 28.9916L8.21109 30.54L8.82299 31.331L10.8244 29.7826L10.2125 28.9916ZM8.01704 30.9355V33H9.01704V30.9355H8.01704ZM25.7612 1.43175C26.163 1.66647 26.556 2.04444 26.6584 2.41166C26.7026 2.57045 26.6962 2.73544 26.5936 2.92303C26.4835 3.12446 26.2445 3.38273 25.7612 3.66503L26.2656 4.52852C26.8426 4.19146 27.2443 3.81747 27.471 3.40278C27.7054 2.97423 27.7321 2.53923 27.6217 2.14318C27.4147 1.40073 26.7473 0.849663 26.2656 0.568252L25.7612 1.43175ZM26.2655 4.52852C26.8967 4.15988 27.6696 3.8122 28.4539 3.60808C29.2438 3.40253 30.0041 3.35316 30.6352 3.53256C31.2422 3.70513 31.7635 4.0972 32.1022 4.86477C32.4513 5.65594 32.6162 6.87163 32.4091 8.68523L33.4027 8.79864C33.6199 6.89611 33.4665 5.47955 33.0171 4.46104C32.5572 3.41893 31.7994 2.82391 30.9086 2.57067C30.0418 2.32426 29.0856 2.41038 28.2021 2.64031C27.313 2.87167 26.4555 3.25948 25.7612 3.66503L26.2655 4.52852ZM32.5458 8.3951L24.5929 16.6532L25.3132 17.3468L33.2661 9.08877L32.5458 8.3951ZM24.5838 16.6629C24.0335 17.2655 23.3941 18.0877 23.0306 18.8491L23.933 19.28C24.2353 18.6468 24.8003 17.9088 25.3222 17.3371L24.5838 16.6629ZM23.0306 18.8491C22.9193 19.0821 22.8277 19.322 22.7749 19.5577L23.7507 19.7763C23.7822 19.6356 23.8428 19.4688 23.933 19.28L23.0306 18.8491ZM22.7749 19.5577C22.7175 19.814 22.6989 20.0971 22.7811 20.3686C22.8683 20.6566 23.0576 20.8921 23.3382 21.0462C23.6039 21.1921 23.9284 21.2532 24.2883 21.2581C24.6516 21.263 25.0833 21.211 25.5889 21.1016L25.3775 20.1242C24.9171 20.2238 24.565 20.2617 24.3019 20.2582C24.0353 20.2546 23.8906 20.2087 23.8195 20.1696C23.7632 20.1388 23.748 20.1113 23.7382 20.0788C23.7234 20.0299 23.7152 19.9349 23.7507 19.7763L22.7749 19.5577ZM25.5136 4.11218C25.5919 6.65061 25.2 13.186 23.0149 18.8855L23.9486 19.2435C26.1959 13.3818 26.594 6.70423 26.5131 4.08137L25.5136 4.11218ZM23.0075 18.9062C22.9483 19.0836 22.8781 19.2778 22.7971 19.485L23.7285 19.8489C23.8152 19.6272 23.8911 19.4172 23.956 19.2229L23.0075 18.9062ZM22.7971 19.485C22.3478 20.6351 21.583 22.1475 20.5627 23.4096C19.5348 24.6812 18.3061 25.6277 16.9397 25.794L17.0605 26.7867C18.8053 26.5743 20.2459 25.3922 21.3404 24.0383C22.4426 22.6749 23.2535 21.0649 23.7285 19.8489L22.7971 19.485ZM17.0001 26.7903H19.6511V25.7903H17.0001V26.7903ZM19.1511 26.2903V29.3871H20.1511V26.2903H19.1511ZM19.6511 29.8871H23.4818V28.8871H19.6511V29.8871ZM23.1758 29.7826L25.1773 31.331L25.7892 30.54L23.7877 28.9916L23.1758 29.7826ZM24.9832 30.9355V33H25.9832V30.9355H24.9832ZM26.0134 0.5H7.98687V1.5H26.0134V0.5ZM7.98687 4.59677H26.0134V3.59677H7.98687V4.59677ZM14.3492 29.8871H19.6511V28.8871H14.3492V29.8871ZM8.51704 33.5H25.4832V32.5H8.51704V33.5ZM11.0001 31.5H23.0001V30.5H11.0001V31.5Z" fill="black" fill-opacity="0.2"/>
<path d="M17.9835 22H16.1515V16.1348C16.1515 15.4967 16.1834 14.763 16.2472 13.9336C16.2153 13.9792 16.0968 14.1182 15.8917 14.3506C15.6912 14.583 15.297 15 14.7091 15.6016L13.67 14.4668L16.3292 12.0059H17.9835V22Z" fill="#FF0303"/>
<path d="M17.9835 22H16.1515V16.1348C16.1515 15.4967 16.1834 14.763 16.2472 13.9336C16.2153 13.9792 16.0968 14.1182 15.8917 14.3506C15.6912 14.583 15.297 15 14.7091 15.6016L13.67 14.4668L16.3292 12.0059H17.9835V22Z" fill="black" fill-opacity="0.2"/>
</svg>
