<svg width="34" height="30" viewBox="0 0 34 30" fill="none" xmlns="http://www.w3.org/2000/svg">
<path d="M18.9174 18.0196C18.9174 18.9627 18.1649 19.7157 17.2507 19.7157C16.3365 19.7157 15.584 18.9627 15.584 18.0196C15.584 17.0765 16.3365 16.3235 17.2507 16.3235C18.1649 16.3235 18.9174 17.0765 18.9174 18.0196Z" stroke="#146EB4"/>
<path d="M11.2925 24.1078C11.0163 24.1078 10.7925 24.3316 10.7925 24.6078C10.7925 24.8839 11.0163 25.1078 11.2925 25.1078V24.1078ZM22.126 25.1078C22.4022 25.1078 22.626 24.8839 22.626 24.6078C22.626 24.3316 22.4022 24.1078 22.126 24.1078V25.1078ZM17.2509 24.1078H11.2925V25.1078H17.2509V24.1078ZM17.2509 25.1078H22.126V24.1078H17.2509V25.1078ZM22.126 24.1078H11.2925V25.1078H22.126V24.1078Z" fill="#146EB4"/>
<path d="M2.08398 28.5C1.80784 28.5 1.58398 28.7239 1.58398 29C1.58398 29.2761 1.80784 29.5 2.08398 29.5V28.5ZM31.8763 29.5C32.1524 29.5 32.3763 29.2761 32.3763 29C32.3763 28.7239 32.1524 28.5 31.8763 28.5V29.5ZM2.08398 29.5H31.8763V28.5H2.08398V29.5Z" fill="#146EB4"/>
<path d="M25.376 12.5294L19.6059 12.7262L22.6614 17.6249L25.376 12.5294ZM18.5988 17.3458L21.8225 15.3352L21.2933 14.4867L18.0696 16.4973L18.5988 17.3458Z" fill="#146EB4"/>
<path d="M17.0005 1L17.0131 0.50016L17.0005 0.499839L16.9878 0.50016L17.0005 1ZM2.37517 26.8039L1.89354 26.9382C1.95381 27.1544 2.15074 27.3039 2.37517 27.3039V26.8039ZM5.94788 24.4408C6.15884 24.2626 6.18541 23.9472 6.00723 23.7362C5.82905 23.5252 5.51358 23.4987 5.30262 23.6768L5.94788 24.4408ZM1.29181 17.5196C1.01567 17.5196 0.791809 17.7435 0.791809 18.0196C0.791809 18.2957 1.01567 18.5196 1.29181 18.5196V17.5196ZM4.54188 18.5196C4.81802 18.5196 5.04188 18.2957 5.04188 18.0196C5.04188 17.7435 4.81802 17.5196 4.54188 17.5196V18.5196ZM3.23175 9.39594C3.01726 9.22202 2.70239 9.25491 2.52847 9.46941C2.35455 9.6839 2.38744 9.99877 2.60193 10.1727L3.23175 9.39594ZM5.31033 12.3688C5.52482 12.5427 5.83969 12.5098 6.01361 12.2953C6.18752 12.0808 6.15463 11.7659 5.94014 11.592L5.31033 12.3688ZM31.6258 26.8039V27.3039C31.8502 27.3039 32.0472 27.1544 32.1074 26.9382L31.6258 26.8039ZM28.6984 23.6768C28.4874 23.4987 28.1719 23.5252 27.9937 23.7362C27.8156 23.9472 27.8421 24.2626 28.0531 24.4408L28.6984 23.6768ZM32.7092 18.5196C32.9853 18.5196 33.2092 18.2957 33.2092 18.0196C33.2092 17.7435 32.9853 17.5196 32.7092 17.5196V18.5196ZM29.4591 17.5196C29.183 17.5196 28.9591 17.7435 28.9591 18.0196C28.9591 18.2957 29.183 18.5196 29.4591 18.5196V17.5196ZM31.399 10.1727C31.6135 9.99877 31.6464 9.6839 31.4725 9.46941C31.2986 9.25491 30.9837 9.22202 30.7692 9.39594L31.399 10.1727ZM28.0608 11.592C27.8463 11.7659 27.8135 12.0808 27.9874 12.2953C28.1613 12.5098 28.4762 12.5427 28.6907 12.3688L28.0608 11.592ZM17.0422 4.84314C17.0422 5.11928 17.266 5.34314 17.5422 5.34314C17.8183 5.34314 18.0422 5.11928 18.0422 4.84314H17.0422ZM16.9878 0.50016C13.284 0.594011 8.06896 2.02606 4.49264 6.06254C0.891218 10.1274 -0.954502 16.7239 1.89354 26.9382L2.85679 26.6696C0.071381 16.68 1.92713 10.4661 5.24113 6.72569C8.58023 2.95695 13.4946 1.589 17.0131 1.49984L16.9878 0.50016ZM2.6978 27.1859L5.94788 24.4408L5.30262 23.6768L2.05253 26.4219L2.6978 27.1859ZM7.90336 3.9998L9.5284 6.7449L10.3889 6.23549L8.76389 3.49039L7.90336 3.9998ZM1.29181 18.5196H4.54188V17.5196H1.29181V18.5196ZM2.60193 10.1727L5.31033 12.3688L5.94014 11.592L3.23175 9.39594L2.60193 10.1727ZM16.9878 1.49984C20.5064 1.589 25.4207 2.95695 28.7598 6.7257C32.0738 10.4661 33.9296 16.68 31.1442 26.6696L32.1074 26.9382C34.9555 16.7239 33.1098 10.1274 29.5083 6.06254C25.932 2.02606 20.7169 0.594011 17.0131 0.50016L16.9878 1.49984ZM31.9484 26.4219L28.6984 23.6768L28.0531 24.4408L31.3032 27.1859L31.9484 26.4219ZM25.2371 3.49039L23.6121 6.23549L24.4726 6.7449L26.0976 3.9998L25.2371 3.49039ZM32.7092 17.5196H29.4591V18.5196H32.7092V17.5196ZM30.7692 9.39594L28.0608 11.592L28.6907 12.3688L31.399 10.1727L30.7692 9.39594ZM2.37517 27.3039H31.6258V26.3039H2.37517V27.3039ZM18.0422 4.84314V1H17.0422V4.84314H18.0422Z" fill="#146EB4"/>
</svg>
