<svg width="40" height="40" viewBox="0 0 40 40" fill="none" xmlns="http://www.w3.org/2000/svg">
<path d="M14.5 28.5L14.1464 28.8536C14.2402 28.9473 14.3674 29 14.5 29V28.5ZM13 27H12.5C12.5 27.1326 12.5527 27.2598 12.6464 27.3536L13 27ZM13 18H13.5V17.5H13V18ZM8 18H7.5C7.5 18.2761 7.72386 18.5 8 18.5V18ZM8 16L7.64645 15.6464C7.55268 15.7402 7.5 15.8674 7.5 16H8ZM20 4L20.3536 3.64645L20 3.29289L19.6464 3.64645L20 4ZM25.5 28.5V29C25.6326 29 25.7598 28.9473 25.8536 28.8536L25.5 28.5ZM27 27L27.3536 27.3536C27.4473 27.2598 27.5 27.1326 27.5 27H27ZM27 18V17.5H26.5V18H27ZM32 18V18.5C32.2761 18.5 32.5 18.2761 32.5 18H32ZM32 16H32.5C32.5 15.8674 32.4473 15.7402 32.3536 15.6464L32 16ZM15 26.5C14.7239 26.5 14.5 26.7239 14.5 27C14.5 27.2761 14.7239 27.5 15 27.5V26.5ZM25 27.5C25.2761 27.5 25.5 27.2761 25.5 27C25.5 26.7239 25.2761 26.5 25 26.5V27.5ZM14.5 30V29.5C14.3674 29.5 14.2402 29.5527 14.1464 29.6464L14.5 30ZM13.5 31L13.1464 30.6464C13.0527 30.7402 13 30.8674 13 31H13.5ZM13.5 36H13C13 36.2761 13.2239 36.5 13.5 36.5V36ZM26.5 36V36.5C26.7761 36.5 27 36.2761 27 36H26.5ZM26.5 31H27C27 30.8674 26.9473 30.7402 26.8536 30.6464L26.5 31ZM25.5 30L25.8536 29.6464C25.7598 29.5527 25.6326 29.5 25.5 29.5V30ZM15 32.5H15.5C15.5 32.2239 15.2761 32 15 32V32.5ZM15 34V34.5C15.2761 34.5 15.5 34.2761 15.5 34H15ZM25 34H24.5C24.5 34.2761 24.7239 34.5 25 34.5V34ZM25 32.5V32C24.7239 32 24.5 32.2239 24.5 32.5H25ZM17 32.5V32C16.7239 32 16.5 32.2239 16.5 32.5H17ZM17 34H16.5C16.5 34.2761 16.7239 34.5 17 34.5V34ZM18.5 34V34.5C18.7761 34.5 19 34.2761 19 34H18.5ZM18.5 32.5H19C19 32.2239 18.7761 32 18.5 32V32.5ZM23 32.5H23.5C23.5 32.2239 23.2761 32 23 32V32.5ZM23 34V34.5C23.2761 34.5 23.5 34.2761 23.5 34H23ZM21.5 34H21C21 34.2761 21.2239 34.5 21.5 34.5V34ZM21.5 32.5V32C21.2239 32 21 32.2239 21 32.5H21.5ZM20 6L20.3536 5.64645L20 5.29289L19.6464 5.64645L20 6ZM16.6464 8.64645C16.4512 8.84171 16.4512 9.15829 16.6464 9.35355C16.8417 9.54882 17.1583 9.54882 17.3536 9.35355L16.6464 8.64645ZM22.6464 9.35355C22.8417 9.54882 23.1583 9.54882 23.3536 9.35355C23.5488 9.15829 23.5488 8.84171 23.3536 8.64645L22.6464 9.35355ZM14.8536 28.1464L13.3536 26.6464L12.6464 27.3536L14.1464 28.8536L14.8536 28.1464ZM13.5 27V18H12.5V27H13.5ZM13 17.5H8V18.5H13V17.5ZM8.5 18V16H7.5V18H8.5ZM8.35355 16.3536L20.3536 4.35355L19.6464 3.64645L7.64645 15.6464L8.35355 16.3536ZM25.8536 28.8536L27.3536 27.3536L26.6464 26.6464L25.1464 28.1464L25.8536 28.8536ZM27.5 27V18H26.5V27H27.5ZM27 18.5H32V17.5H27V18.5ZM32.5 18V16H31.5V18H32.5ZM32.3536 15.6464L20.3536 3.64645L19.6464 4.35355L31.6464 16.3536L32.3536 15.6464ZM25.5 28H14.5V29H25.5V28ZM15 27.5H25V26.5H15V27.5ZM14.1464 29.6464L13.1464 30.6464L13.8536 31.3536L14.8536 30.3536L14.1464 29.6464ZM13.5 36.5H26.5V35.5H13.5V36.5ZM26.8536 30.6464L25.8536 29.6464L25.1464 30.3536L26.1464 31.3536L26.8536 30.6464ZM13 31V32.5H14V31H13ZM13.5 33H15V32H13.5V33ZM14.5 32.5V34H15.5V32.5H14.5ZM13 32.5V34H14V32.5H13ZM13 34V36H14V34H13ZM15 33.5H13.5V34.5H15V33.5ZM27 36V34H26V36H27ZM26.5 33.5H25V34.5H26.5V33.5ZM25.5 34V32.5H24.5V34H25.5ZM27 34V32.5H26V34H27ZM27 32.5V31H26V32.5H27ZM25 33H26.5V32H25V33ZM16.5 32.5V34H17.5V32.5H16.5ZM17 34.5H18.5V33.5H17V34.5ZM19 34V32.5H18V34H19ZM18.5 32H17V33H18.5V32ZM22.5 32.5V34H23.5V32.5H22.5ZM23 33.5H21.5V34.5H23V33.5ZM22 34V32.5H21V34H22ZM21.5 33H23V32H21.5V33ZM19.6464 5.64645L16.6464 8.64645L17.3536 9.35355L20.3536 6.35355L19.6464 5.64645ZM19.6464 6.35355L22.6464 9.35355L23.3536 8.64645L20.3536 5.64645L19.6464 6.35355ZM25.5 29.5H14.5V30.5H25.5V29.5Z" fill="#FF0303"/>
<path d="M14.5 28.5L14.1464 28.8536C14.2402 28.9473 14.3674 29 14.5 29V28.5ZM13 27H12.5C12.5 27.1326 12.5527 27.2598 12.6464 27.3536L13 27ZM13 18H13.5V17.5H13V18ZM8 18H7.5C7.5 18.2761 7.72386 18.5 8 18.5V18ZM8 16L7.64645 15.6464C7.55268 15.7402 7.5 15.8674 7.5 16H8ZM20 4L20.3536 3.64645L20 3.29289L19.6464 3.64645L20 4ZM25.5 28.5V29C25.6326 29 25.7598 28.9473 25.8536 28.8536L25.5 28.5ZM27 27L27.3536 27.3536C27.4473 27.2598 27.5 27.1326 27.5 27H27ZM27 18V17.5H26.5V18H27ZM32 18V18.5C32.2761 18.5 32.5 18.2761 32.5 18H32ZM32 16H32.5C32.5 15.8674 32.4473 15.7402 32.3536 15.6464L32 16ZM15 26.5C14.7239 26.5 14.5 26.7239 14.5 27C14.5 27.2761 14.7239 27.5 15 27.5V26.5ZM25 27.5C25.2761 27.5 25.5 27.2761 25.5 27C25.5 26.7239 25.2761 26.5 25 26.5V27.5ZM14.5 30V29.5C14.3674 29.5 14.2402 29.5527 14.1464 29.6464L14.5 30ZM13.5 31L13.1464 30.6464C13.0527 30.7402 13 30.8674 13 31H13.5ZM13.5 36H13C13 36.2761 13.2239 36.5 13.5 36.5V36ZM26.5 36V36.5C26.7761 36.5 27 36.2761 27 36H26.5ZM26.5 31H27C27 30.8674 26.9473 30.7402 26.8536 30.6464L26.5 31ZM25.5 30L25.8536 29.6464C25.7598 29.5527 25.6326 29.5 25.5 29.5V30ZM15 32.5H15.5C15.5 32.2239 15.2761 32 15 32V32.5ZM15 34V34.5C15.2761 34.5 15.5 34.2761 15.5 34H15ZM25 34H24.5C24.5 34.2761 24.7239 34.5 25 34.5V34ZM25 32.5V32C24.7239 32 24.5 32.2239 24.5 32.5H25ZM17 32.5V32C16.7239 32 16.5 32.2239 16.5 32.5H17ZM17 34H16.5C16.5 34.2761 16.7239 34.5 17 34.5V34ZM18.5 34V34.5C18.7761 34.5 19 34.2761 19 34H18.5ZM18.5 32.5H19C19 32.2239 18.7761 32 18.5 32V32.5ZM23 32.5H23.5C23.5 32.2239 23.2761 32 23 32V32.5ZM23 34V34.5C23.2761 34.5 23.5 34.2761 23.5 34H23ZM21.5 34H21C21 34.2761 21.2239 34.5 21.5 34.5V34ZM21.5 32.5V32C21.2239 32 21 32.2239 21 32.5H21.5ZM20 6L20.3536 5.64645L20 5.29289L19.6464 5.64645L20 6ZM16.6464 8.64645C16.4512 8.84171 16.4512 9.15829 16.6464 9.35355C16.8417 9.54882 17.1583 9.54882 17.3536 9.35355L16.6464 8.64645ZM22.6464 9.35355C22.8417 9.54882 23.1583 9.54882 23.3536 9.35355C23.5488 9.15829 23.5488 8.84171 23.3536 8.64645L22.6464 9.35355ZM14.8536 28.1464L13.3536 26.6464L12.6464 27.3536L14.1464 28.8536L14.8536 28.1464ZM13.5 27V18H12.5V27H13.5ZM13 17.5H8V18.5H13V17.5ZM8.5 18V16H7.5V18H8.5ZM8.35355 16.3536L20.3536 4.35355L19.6464 3.64645L7.64645 15.6464L8.35355 16.3536ZM25.8536 28.8536L27.3536 27.3536L26.6464 26.6464L25.1464 28.1464L25.8536 28.8536ZM27.5 27V18H26.5V27H27.5ZM27 18.5H32V17.5H27V18.5ZM32.5 18V16H31.5V18H32.5ZM32.3536 15.6464L20.3536 3.64645L19.6464 4.35355L31.6464 16.3536L32.3536 15.6464ZM25.5 28H14.5V29H25.5V28ZM15 27.5H25V26.5H15V27.5ZM14.1464 29.6464L13.1464 30.6464L13.8536 31.3536L14.8536 30.3536L14.1464 29.6464ZM13.5 36.5H26.5V35.5H13.5V36.5ZM26.8536 30.6464L25.8536 29.6464L25.1464 30.3536L26.1464 31.3536L26.8536 30.6464ZM13 31V32.5H14V31H13ZM13.5 33H15V32H13.5V33ZM14.5 32.5V34H15.5V32.5H14.5ZM13 32.5V34H14V32.5H13ZM13 34V36H14V34H13ZM15 33.5H13.5V34.5H15V33.5ZM27 36V34H26V36H27ZM26.5 33.5H25V34.5H26.5V33.5ZM25.5 34V32.5H24.5V34H25.5ZM27 34V32.5H26V34H27ZM27 32.5V31H26V32.5H27ZM25 33H26.5V32H25V33ZM16.5 32.5V34H17.5V32.5H16.5ZM17 34.5H18.5V33.5H17V34.5ZM19 34V32.5H18V34H19ZM18.5 32H17V33H18.5V32ZM22.5 32.5V34H23.5V32.5H22.5ZM23 33.5H21.5V34.5H23V33.5ZM22 34V32.5H21V34H22ZM21.5 33H23V32H21.5V33ZM19.6464 5.64645L16.6464 8.64645L17.3536 9.35355L20.3536 6.35355L19.6464 5.64645ZM19.6464 6.35355L22.6464 9.35355L23.3536 8.64645L20.3536 5.64645L19.6464 6.35355ZM25.5 29.5H14.5V30.5H25.5V29.5Z" fill="black" fill-opacity="0.2"/>
</svg>
