<svg width="50" height="50" viewBox="0 0 50 50" fill="none" xmlns="http://www.w3.org/2000/svg">
<path d="M38.6261 16.3857C38.6144 16.3242 38.5948 16.2627 38.5713 16.2031C38.5469 16.1445 38.5167 16.0879 38.4814 16.0352C38.4453 15.9814 38.4043 15.9316 38.3594 15.8867C38.3145 15.8408 38.2646 15.8008 38.2109 15.7646C38.1582 15.7295 38.1016 15.6992 38.0429 15.6748C37.9834 15.6504 37.9218 15.6318 37.8603 15.6191C37.7343 15.5938 37.6044 15.5938 37.4785 15.6191C37.4159 15.6318 37.3544 15.6504 37.2959 15.6748C37.2363 15.6992 37.1796 15.7295 37.127 15.7646C37.0732 15.8008 37.0234 15.8408 36.9785 15.8867C36.9336 15.9316 36.8926 15.9814 36.8574 16.0352C36.8223 16.0879 36.792 16.1445 36.7676 16.2031C36.7432 16.2627 36.7246 16.3242 36.7119 16.3857C36.6992 16.4492 36.6924 16.5137 36.6924 16.5771C36.6924 16.6406 36.6992 16.7051 36.7119 16.7676C36.7246 16.8301 36.7432 16.8916 36.7676 16.9502C36.792 17.0098 36.8223 17.0664 36.8574 17.1191C36.8926 17.1728 36.9336 17.2227 36.9785 17.2676C37.0234 17.3125 37.0732 17.3535 37.127 17.3887C37.1797 17.4238 37.2363 17.4541 37.2959 17.4785C37.3545 17.5029 37.4159 17.5215 37.4785 17.5342C37.541 17.5469 37.6055 17.5537 37.6688 17.5537C37.7323 17.5537 37.7968 17.5469 37.8603 17.5342C37.9218 17.5215 37.9834 17.5029 38.0429 17.4785C38.1016 17.4541 38.1582 17.4238 38.2109 17.3887C38.2646 17.3535 38.3145 17.3125 38.3594 17.2676C38.4043 17.2227 38.4453 17.1728 38.4814 17.1191C38.5166 17.0664 38.5469 17.0098 38.5713 16.9502C38.5947 16.8916 38.6144 16.8301 38.6261 16.7676C38.6388 16.7051 38.6455 16.6406 38.6455 16.5771C38.6455 16.5137 38.6388 16.4492 38.6261 16.3857Z" fill="#146EB4"/>
<path d="M37.9333 39.6534H32.731L31.7456 31.7158C31.9276 31.6351 32.1085 31.5522 32.2874 31.4649C32.2899 31.4638 32.2922 31.4625 32.2946 31.4613C32.4745 31.3734 32.6523 31.2811 32.829 31.1866C33.0942 31.0449 33.3555 30.8959 33.6128 30.7398C33.7643 30.6479 33.9144 30.5537 34.0629 30.4569C35.3376 29.6265 36.5045 28.6173 37.5227 27.4451L37.5235 27.4441C40.1397 24.432 41.5796 20.573 41.5781 16.5777C41.5763 12.1496 40.131 8.2666 37.5084 5.64404C33.8179 1.95342 29.4927 0.00185547 25.0004 0C24.9984 0 24.9959 0 24.9939 0C24.5148 0 24.0382 0.021582 23.5652 0.0623047C23.317 0.0836914 23.0698 0.110352 22.824 0.142676C22.7867 0.147559 22.7494 0.152441 22.7123 0.157617C19.3657 0.620703 16.2389 2.09375 13.7538 4.38477C13.7374 4.3999 13.7208 4.41494 13.7044 4.43018C13.4647 4.65303 13.2316 4.88418 13.0042 5.12217C12.8976 5.23379 12.7924 5.34717 12.6887 5.46211C12.6179 5.54053 12.5469 5.61875 12.4775 5.69863C9.86067 8.71084 8.42034 12.5702 8.422 16.566C8.42366 20.5616 9.86682 24.4218 12.4858 27.4357C14.0929 29.2853 16.0684 30.7315 18.2557 31.7061L17.2691 39.6535H12.0663C11.8073 39.6535 11.5589 39.7564 11.3758 39.9395C11.1926 40.1228 11.0898 40.3711 11.0898 40.6301L11.09 44.908L11.0898 44.9123L11.09 44.9166L11.0902 49.0235C11.0903 49.5628 11.5275 50 12.0667 50H37.9336C38.1926 50 38.441 49.8971 38.6241 49.714C38.8072 49.5309 38.9102 49.2824 38.9102 49.0234L38.9098 40.63C38.9099 40.0906 38.4726 39.6534 37.9333 39.6534ZM35.2915 26.9701C35.2698 26.9915 35.2487 27.0134 35.2269 27.0347C35.1402 27.1193 35.0525 27.2028 34.9639 27.2852C34.9368 27.3104 34.9092 27.3348 34.882 27.3597C34.8191 27.4172 34.756 27.4745 34.6922 27.531C34.6566 27.5624 34.6205 27.5934 34.5846 27.6244C34.528 27.6733 34.4713 27.7221 34.4142 27.7701C34.3757 27.8024 34.3369 27.8345 34.2981 27.8664C34.2418 27.9127 34.1852 27.9585 34.1282 28.0039C34.0892 28.0351 34.0501 28.0661 34.0109 28.0969C33.9512 28.1435 33.891 28.1893 33.8307 28.2349C33.794 28.2627 33.7573 28.2908 33.7203 28.3182C33.6464 28.3729 33.5719 28.4267 33.497 28.48C33.4732 28.497 33.4496 28.5145 33.4257 28.5313C33.3282 28.5999 33.2299 28.6671 33.1309 28.7331C33.0969 28.7558 33.0624 28.7777 33.0282 28.8001C32.9612 28.844 32.894 28.8878 32.8263 28.9306C32.785 28.9566 32.7434 28.9821 32.7019 29.0078C32.6401 29.046 32.5781 29.0839 32.5158 29.1211C32.4722 29.1472 32.4284 29.173 32.3846 29.1985C32.3228 29.2346 32.2607 29.2701 32.1983 29.3053C32.1546 29.3299 32.1109 29.3546 32.0669 29.3787C32.0012 29.4149 31.9349 29.4503 31.8686 29.4854C31.8281 29.5069 31.7876 29.5288 31.7469 29.5499C31.6615 29.5941 31.5757 29.6372 31.4896 29.6797C31.4676 29.6905 31.4459 29.7019 31.424 29.7126C31.3174 29.7645 31.2101 29.8149 31.1023 29.8643C31.0633 29.8821 31.0239 29.8991 30.9848 29.9166C30.9137 29.9483 30.8425 29.98 30.7709 30.0105C30.7255 30.03 30.6798 30.0488 30.6341 30.0679C30.5676 30.0955 30.501 30.1229 30.434 30.1495C30.3868 30.1683 30.3396 30.1868 30.2922 30.2052C30.2252 30.2311 30.1579 30.2564 30.0906 30.2813C30.0439 30.2986 29.9973 30.3159 29.9505 30.3327C29.8782 30.3586 29.8057 30.3835 29.733 30.4083C29.6912 30.4226 29.6495 30.4372 29.6075 30.4511C29.5061 30.4846 29.4041 30.517 29.3019 30.5482C29.2815 30.5545 29.2612 30.5608 29.2407 30.567C29.1337 30.5992 29.0263 30.6303 28.9186 30.6601C28.8766 30.6717 28.8344 30.6824 28.7924 30.6937C28.7172 30.7138 28.6418 30.7336 28.5662 30.7525C28.5186 30.7645 28.4706 30.7758 28.4228 30.7873C28.3519 30.8043 28.2808 30.8209 28.2095 30.8368C28.1603 30.8479 28.1111 30.8586 28.0617 30.869C27.9899 30.8843 27.9178 30.8989 27.8457 30.9132C27.8419 30.914 27.838 30.9146 27.8342 30.9154C27.7863 30.9247 27.7384 30.9344 27.6904 30.9432C27.629 30.9546 27.5674 30.9651 27.5058 30.9757C27.4251 30.9895 27.3445 31.0031 27.2636 31.0155C27.2253 31.0215 27.187 31.027 27.1487 31.0326C27.0469 31.0475 26.945 31.0616 26.8429 31.0744C26.8196 31.0773 26.7962 31.0801 26.7729 31.0829C26.6592 31.0966 26.5454 31.1091 26.4315 31.1201C26.4143 31.1218 26.3972 31.1233 26.38 31.125C26.2636 31.1358 26.147 31.1454 26.0303 31.1535C26.0144 31.1546 25.9984 31.1557 25.9824 31.1567L25.9807 22.4355C29.5659 22.6771 32.9389 24.2308 35.4568 26.8036C35.4022 26.8599 35.3471 26.9152 35.2915 26.9701ZM39.6248 16.5783C39.626 19.7385 38.6045 22.8014 36.73 25.3159C33.8587 22.4425 30.0356 20.7205 25.9802 20.4797L25.9796 17.5487L34.3491 17.5521C34.8883 17.5521 35.3259 17.115 35.3261 16.5759C35.3263 16.0365 34.8892 15.5992 34.3499 15.5989L25.9792 15.5956L25.9786 12.6646C30.071 12.4253 33.9252 10.6846 36.8072 7.77822C38.6292 10.0029 39.6235 13.0848 39.6248 16.5783ZM26.3682 2.02256C26.3898 2.02529 26.4114 2.02822 26.4333 2.03057C26.5503 2.04307 26.6667 2.05684 26.7824 2.07227C26.8277 2.07832 26.8726 2.08525 26.9177 2.0917C27.0099 2.10498 27.1018 2.11875 27.193 2.13379C27.2423 2.14189 27.2913 2.15049 27.3403 2.15908C27.4281 2.17451 27.5155 2.19082 27.6024 2.20791C27.6499 2.21729 27.6976 2.22656 27.7449 2.23633C27.8375 2.25557 27.9293 2.27588 28.0209 2.29688C28.0603 2.30586 28.0999 2.31445 28.1391 2.32373C28.3996 2.38584 28.6559 2.45479 28.9076 2.53018C28.9447 2.54121 28.9812 2.55303 29.018 2.56436C29.1067 2.5917 29.1949 2.61953 29.2825 2.64834C29.3263 2.66279 29.3698 2.67764 29.4133 2.69248C29.4941 2.72002 29.5744 2.74805 29.6543 2.77676C29.6982 2.79258 29.7419 2.8084 29.7855 2.82451C29.8671 2.85479 29.9481 2.88584 30.0286 2.91738C30.0676 2.93262 30.1069 2.94756 30.1455 2.96318C30.2439 3.00264 30.3413 3.04307 30.4381 3.08428C30.4574 3.09248 30.4771 3.10029 30.4963 3.10859C30.6129 3.15879 30.7283 3.21035 30.8428 3.26299C30.8713 3.27607 30.8992 3.28975 30.9276 3.30293C31.0124 3.34268 31.097 3.38271 31.1806 3.42363C31.2196 3.44268 31.258 3.46211 31.2967 3.48145C31.3697 3.51787 31.4422 3.55469 31.5142 3.59199C31.5544 3.61289 31.5946 3.63389 31.6345 3.65508C31.7057 3.69277 31.7763 3.73096 31.8465 3.76953C31.884 3.79004 31.9215 3.81055 31.9587 3.83125C32.0369 3.875 32.1144 3.91943 32.1914 3.96406C32.2187 3.97988 32.2464 3.99541 32.2736 4.01133C32.3773 4.07227 32.4798 4.13389 32.5812 4.19639C32.5998 4.20781 32.6179 4.21963 32.6364 4.23105C32.7188 4.28223 32.8005 4.33369 32.8813 4.38574C32.9154 4.40771 32.9489 4.42988 32.9826 4.45195C33.0476 4.49443 33.1122 4.53711 33.1762 4.58018C33.2125 4.60459 33.2486 4.6291 33.2844 4.65371C33.3459 4.6957 33.4069 4.73799 33.4673 4.78037C33.5022 4.80479 33.537 4.8292 33.5715 4.85381C33.6355 4.89932 33.6986 4.94512 33.7614 4.99102C33.7904 5.01221 33.8197 5.0333 33.8485 5.05459C33.9389 5.12148 34.0284 5.18877 34.1165 5.25635C34.1192 5.2584 34.1218 5.26045 34.1244 5.2625C34.2102 5.32842 34.2947 5.39463 34.378 5.46094C34.4064 5.4835 34.4341 5.50605 34.4622 5.52871C34.5198 5.5749 34.577 5.62119 34.6333 5.66758C34.665 5.69365 34.6963 5.71973 34.7277 5.7459C34.7802 5.78965 34.8322 5.8334 34.8837 5.87715C34.9147 5.90342 34.9454 5.92969 34.976 5.95605C35.0286 6.00137 35.0805 6.04658 35.1321 6.09189C35.1594 6.11602 35.1871 6.14004 35.2142 6.16406C35.2775 6.22031 35.3399 6.27646 35.4015 6.33262C35.4152 6.34512 35.4293 6.35762 35.443 6.37002C35.4451 6.37197 35.4471 6.37383 35.4492 6.37578C32.9297 8.93047 29.5616 10.4709 25.9785 10.7082L25.9768 1.98906C26.108 1.99863 26.2387 2.00938 26.3682 2.02256ZM24.1076 33.1189C24.1107 33.1191 24.1138 33.1191 24.1168 33.1193C24.2516 33.1265 24.3865 33.132 24.5213 33.1358C24.5328 33.1361 24.5444 33.1369 24.556 33.1372C24.5588 33.1373 24.5617 33.1372 24.5646 33.1373C24.7039 33.1409 24.8433 33.1431 24.9827 33.1432C24.9904 33.1432 24.9979 33.1435 25.0055 33.1435C25.0078 33.1435 25.0104 33.1435 25.0126 33.1435C25.0815 33.1435 25.15 33.1415 25.2188 33.1406C25.2735 33.1398 25.3282 33.1396 25.3829 33.1384C25.4816 33.1361 25.58 33.1325 25.6783 33.1285C25.71 33.1272 25.7416 33.1262 25.7733 33.1247C25.8805 33.1198 25.9874 33.1137 26.0944 33.1067C26.1148 33.1054 26.1352 33.104 26.1556 33.1026C26.2704 33.0947 26.385 33.0858 26.4993 33.0756C26.506 33.075 26.5126 33.0743 26.5192 33.0737C26.9093 33.0383 27.2971 32.9904 27.6816 32.9279C27.7421 32.9181 27.8022 32.9064 27.8625 32.896C27.9308 32.8842 27.9991 32.8726 28.0671 32.8599C28.1146 32.851 28.1618 32.8415 28.2092 32.8322C28.3139 32.8119 28.4183 32.7906 28.5225 32.7683C28.5322 32.7662 28.542 32.7645 28.5517 32.7623C28.5613 32.7603 28.5706 32.7578 28.5802 32.7557C29.0132 32.6612 29.4421 32.5507 29.8648 32.4223L30.7624 39.6532H19.2372L20.1357 32.4155C21.2714 32.7636 22.4398 32.9869 23.6238 33.0851C23.6364 33.0861 23.649 33.0876 23.6615 33.0887C23.6695 33.0894 23.6774 33.0896 23.6852 33.0902C23.7345 33.0941 23.7836 33.0992 23.8329 33.1027C23.9187 33.1087 24.0046 33.1131 24.0905 33.1178C24.0962 33.1181 24.102 33.1187 24.1076 33.1189ZM14.7137 6.16855C14.7334 6.14912 14.7528 6.1292 14.7726 6.10977C14.8598 6.02451 14.9481 5.94053 15.0373 5.85772C15.0627 5.83408 15.0887 5.81113 15.1143 5.7877C15.1788 5.72861 15.2436 5.66982 15.309 5.61201C15.3438 5.58125 15.379 5.55107 15.4141 5.5207C15.4715 5.471 15.5291 5.42148 15.5873 5.37275C15.6252 5.34092 15.6634 5.30938 15.7016 5.27803C15.7585 5.23125 15.8157 5.18496 15.8733 5.13916C15.9119 5.1083 15.9506 5.07754 15.9896 5.04707C16.0493 5.00039 16.1097 4.95449 16.1701 4.90879C16.207 4.88096 16.2437 4.85283 16.2807 4.82529C16.3539 4.771 16.428 4.71777 16.5021 4.66494C16.5267 4.64746 16.5509 4.62939 16.5756 4.61201C16.6729 4.54365 16.7709 4.47666 16.8697 4.41074C16.9048 4.3873 16.9405 4.36465 16.9758 4.3415C17.0417 4.29834 17.1076 4.25547 17.1741 4.21338C17.2164 4.18672 17.259 4.16064 17.3015 4.13437C17.3622 4.09687 17.4231 4.05967 17.4843 4.02314C17.5289 3.99648 17.5738 3.97012 17.6187 3.94395C17.6793 3.90859 17.7402 3.87383 17.8013 3.83936C17.8462 3.81406 17.891 3.78867 17.9363 3.76387C18.0004 3.72861 18.0651 3.69404 18.1298 3.65977C18.1719 3.6374 18.2138 3.61475 18.2561 3.59287C18.3377 3.55059 18.4199 3.50947 18.5024 3.46875C18.5282 3.45605 18.5536 3.44277 18.5794 3.43018C18.6852 3.37861 18.7917 3.32861 18.8988 3.27969C18.94 3.26084 18.9816 3.24287 19.023 3.22432C19.0918 3.19355 19.1609 3.16299 19.2302 3.1333C19.2771 3.11328 19.3242 3.09375 19.3713 3.07422C19.4363 3.04727 19.5014 3.02061 19.5667 2.99453C19.6153 2.9752 19.6639 2.95615 19.7126 2.9373C19.7781 2.91201 19.8439 2.8873 19.9098 2.86289C19.9577 2.84521 20.0056 2.82734 20.0537 2.81016C20.1245 2.78486 20.1957 2.76035 20.2669 2.73613C20.3101 2.72139 20.3532 2.70625 20.3965 2.69199C20.4952 2.65938 20.5944 2.62803 20.6938 2.59756C20.7199 2.58955 20.7459 2.58154 20.772 2.57363C20.8759 2.54238 20.9802 2.51221 21.0849 2.4833C21.1271 2.47158 21.1696 2.46074 21.2119 2.44941C21.287 2.42939 21.3622 2.40957 21.4377 2.39072C21.4853 2.37881 21.533 2.36748 21.5808 2.35605C21.6522 2.33896 21.7237 2.32236 21.7953 2.30635C21.8441 2.29551 21.8929 2.28477 21.9417 2.27441C22.0144 2.25898 22.0872 2.24424 22.1602 2.22988C22.2072 2.22061 22.2541 2.21123 22.3012 2.20244C22.3815 2.1875 22.4619 2.17354 22.5425 2.15986C22.5823 2.15313 22.6219 2.1459 22.6617 2.13955C22.7815 2.12031 22.9015 2.10225 23.0219 2.08594C23.0348 2.08418 23.0477 2.08281 23.0606 2.08115C23.1691 2.0668 23.2778 2.05352 23.3867 2.0415C23.4277 2.03701 23.4687 2.0333 23.5096 2.0291C23.591 2.0208 23.6726 2.01289 23.7543 2.00596C23.801 2.00205 23.8478 1.99854 23.8946 1.99502C23.9374 1.9918 23.9804 1.98916 24.0233 1.98633L24.0226 6.32266L24.0219 10.7077C20.4365 10.4665 17.0622 8.9124 14.5436 6.33955C14.5997 6.28213 14.6565 6.225 14.7137 6.16855ZM13.27 7.82764C16.143 10.7023 19.9685 12.4246 24.0256 12.6643L24.0262 15.5948L10.4074 15.5894C10.5941 12.7779 11.5891 10.0823 13.27 7.82764ZM13.278 25.3068C11.5949 23.0506 10.5974 20.3542 10.4082 17.5426L24.0266 17.548L24.0272 20.4788C19.9714 20.7159 16.1482 22.4352 13.278 25.3068ZM18.1548 29.4861C18.0836 29.4484 18.0127 29.4105 17.9421 29.3716C17.9011 29.349 17.8604 29.326 17.8197 29.3029C17.7541 29.266 17.6889 29.2286 17.6239 29.1907C17.5823 29.1665 17.5409 29.142 17.4996 29.1174C17.4345 29.0785 17.3698 29.0389 17.3052 28.9989C17.266 28.9747 17.2269 28.9507 17.1879 28.9261C17.1169 28.8812 17.0464 28.8354 16.9762 28.7893C16.9449 28.7687 16.9134 28.7487 16.8823 28.7279C16.7821 28.661 16.6825 28.593 16.5838 28.5235C16.5658 28.5108 16.5482 28.4977 16.5302 28.485C16.4492 28.4274 16.3687 28.3693 16.2888 28.3101C16.2538 28.2842 16.2194 28.2576 16.1847 28.2313C16.1221 28.1841 16.0596 28.1364 15.9977 28.0881C15.9599 28.0585 15.9223 28.0286 15.8848 27.9986C15.8262 27.9519 15.7678 27.9047 15.7099 27.857C15.6723 27.8261 15.6347 27.795 15.5973 27.7637C15.5389 27.7145 15.4809 27.6648 15.4232 27.6148C15.3881 27.5845 15.353 27.5543 15.3182 27.5235C15.2532 27.4662 15.1891 27.4079 15.1251 27.3493C15.0988 27.3252 15.0721 27.3015 15.0458 27.2771C14.9569 27.1944 14.8688 27.1106 14.7817 27.0256C14.761 27.0054 14.7408 26.9847 14.7202 26.9643C14.6635 26.9082 14.6072 26.8516 14.5513 26.7944C17.0679 24.2239 20.4403 22.6729 24.0256 22.4349L24.0272 26.4519L24.0289 31.1562C23.9879 31.1534 23.9468 31.1509 23.9058 31.1478C23.8769 31.1456 23.8481 31.1433 23.8192 31.1409C23.7677 31.1367 23.7162 31.1318 23.6648 31.1271C23.6171 31.1228 23.5695 31.1185 23.5219 31.1136C23.4803 31.1093 23.4386 31.1055 23.3971 31.1009C23.2976 31.0898 23.1983 31.0775 23.0991 31.0645C23.074 31.0611 23.0487 31.0582 23.0235 31.0548C22.9054 31.0387 22.7876 31.021 22.6701 31.002C22.6348 30.9962 22.5997 30.9897 22.5644 30.9838C22.4791 30.9693 22.3941 30.9546 22.3092 30.9387C22.2649 30.9304 22.2207 30.9215 22.1765 30.9128C22.1004 30.8978 22.0243 30.8823 21.9486 30.8661C21.9024 30.8563 21.8563 30.8461 21.8102 30.8358C21.7352 30.819 21.6605 30.8017 21.5859 30.7837C21.5412 30.7729 21.4965 30.7623 21.4521 30.7512C21.3722 30.7312 21.2927 30.7102 21.2132 30.6889C21.1751 30.6786 21.1369 30.6688 21.099 30.6583C20.9883 30.6276 20.8781 30.5958 20.7682 30.5625C20.762 30.5606 20.7557 30.559 20.7495 30.557C20.6336 30.5218 20.5182 30.4849 20.4032 30.4468C20.367 30.4348 20.331 30.422 20.2948 30.4097C20.216 30.3829 20.1374 30.3558 20.0591 30.3276C20.0161 30.3122 19.9735 30.2963 19.9307 30.2805C19.859 30.254 19.7875 30.2271 19.7163 30.1994C19.6723 30.1823 19.6283 30.165 19.5845 30.1476C19.5135 30.1192 19.4429 30.0902 19.3724 30.0608C19.3303 30.0433 19.2881 30.0259 19.2462 30.0079C19.17 29.9753 19.0944 29.9417 19.0187 29.9078C18.9836 29.8921 18.9484 29.8769 18.9135 29.8608C18.8038 29.8106 18.6947 29.7593 18.5863 29.7064C18.5775 29.7021 18.5688 29.6976 18.56 29.6933C18.4606 29.6446 18.3614 29.5945 18.2627 29.5434C18.2266 29.5246 18.1907 29.5052 18.1548 29.4861ZM13.0433 48.0469L13.0432 45.8888H31.0666C31.6059 45.8888 32.0432 45.4516 32.0432 44.9122C32.0432 44.3729 31.6059 43.9356 31.0666 43.9356H13.0431L13.043 41.6064H18.132H31.8681H36.9567L36.9571 48.0469H13.0433Z" fill="#146EB4"/>
<path d="M35.3994 44.7217C35.3866 44.6592 35.3682 44.5977 35.3438 44.5391C35.3193 44.4795 35.289 44.4228 35.2539 44.3701C35.2188 44.3164 35.1777 44.2666 35.1328 44.2217C35.0879 44.1768 35.0381 44.1357 34.9844 44.1006C34.9316 44.0654 34.875 44.0352 34.8154 44.0107C34.7568 43.9863 34.6954 43.9678 34.6328 43.9551C34.5068 43.9297 34.377 43.9297 34.251 43.9551C34.1895 43.9678 34.1279 43.9863 34.0684 44.0107C34.0098 44.0352 33.9531 44.0654 33.9004 44.1006C33.8467 44.1357 33.7969 44.1768 33.752 44.2217C33.707 44.2666 33.666 44.3164 33.6299 44.3701C33.5947 44.4228 33.5645 44.4795 33.54 44.5391C33.5156 44.5977 33.4971 44.6592 33.4844 44.7217C33.4717 44.7842 33.4658 44.8486 33.4658 44.9121C33.4658 44.9756 33.4717 45.04 33.4844 45.1035C33.4971 45.165 33.5156 45.2266 33.54 45.2861C33.5645 45.3447 33.5947 45.4014 33.6299 45.4541C33.666 45.5078 33.707 45.5576 33.752 45.6025C33.7969 45.6475 33.8467 45.6885 33.9004 45.7246C33.9531 45.7598 34.0098 45.79 34.0684 45.8144C34.1279 45.8389 34.1895 45.8574 34.251 45.8701C34.3145 45.8828 34.3789 45.8887 34.4424 45.8887C34.6992 45.8887 34.9512 45.7842 35.1328 45.6025C35.1777 45.5576 35.2188 45.5078 35.2539 45.4541C35.289 45.4014 35.3193 45.3447 35.3438 45.2861C35.3682 45.2266 35.3866 45.165 35.3994 45.1035C35.4121 45.04 35.4188 44.9756 35.4188 44.9121C35.4188 44.8486 35.4121 44.7842 35.3994 44.7217Z" fill="#146EB4"/>
<path d="M22.9772 36.7052C22.9643 36.6915 22.9472 36.6827 22.9288 36.6802L22.3372 36.5922L22.0742 36.0427C22.0497 36.001 21.9969 35.9876 21.9562 36.0126C21.9442 36.02 21.9341 36.0303 21.9268 36.0427L21.6628 36.5902L21.0712 36.6781C21.0264 36.6841 20.9948 36.7262 21.0007 36.772C21.0031 36.7909 21.0117 36.8083 21.0252 36.8215L21.453 37.2476L21.3506 37.8495C21.3433 37.8957 21.374 37.9393 21.4192 37.9468C21.4367 37.9497 21.4546 37.9468 21.4704 37.9385L22.0005 37.6558L22.5296 37.9406C22.5704 37.962 22.6203 37.9456 22.6413 37.904C22.6494 37.8878 22.6522 37.8695 22.6494 37.8516L22.547 37.2497L22.9749 36.8236C23.0075 36.7916 23.0085 36.7385 22.9772 36.7052ZM22.4017 37.1586C22.3825 37.178 22.3737 37.2057 22.3782 37.2329L22.458 37.7103L22.0384 37.4852C22.0143 37.4724 21.9857 37.4724 21.9616 37.4852L21.542 37.7103L21.6218 37.2329C21.6263 37.2057 21.6175 37.178 21.5983 37.1586L21.2595 36.8205L21.7283 36.7514C21.7552 36.7474 21.7786 36.7302 21.7907 36.7053L21.9954 36.2709L22.2001 36.7053C22.2122 36.7302 22.2356 36.7474 22.2625 36.7514L22.7313 36.8205L22.4017 37.1586Z" fill="#146EB4"/>
<path d="M25.9772 35.7052C25.9643 35.6915 25.9472 35.6827 25.9288 35.6802L25.3372 35.5922L25.0742 35.0427C25.0497 35.001 24.9969 34.9876 24.9562 35.0126C24.9442 35.02 24.9341 35.0303 24.9268 35.0427L24.6628 35.5902L24.0712 35.6781C24.0264 35.6841 23.9948 35.7262 24.0007 35.772C24.0031 35.7909 24.0117 35.8083 24.0252 35.8215L24.453 36.2476L24.3506 36.8495C24.3433 36.8957 24.374 36.9393 24.4192 36.9468C24.4367 36.9497 24.4546 36.9468 24.4704 36.9385L25.0005 36.6558L25.5296 36.9406C25.5704 36.962 25.6203 36.9456 25.6413 36.904C25.6494 36.8878 25.6522 36.8695 25.6494 36.8516L25.547 36.2497L25.9749 35.8236C26.0075 35.7916 26.0085 35.7385 25.9772 35.7052ZM25.4017 36.1586C25.3825 36.178 25.3737 36.2057 25.3782 36.2329L25.458 36.7103L25.0384 36.4852C25.0143 36.4724 24.9857 36.4724 24.9616 36.4852L24.542 36.7103L24.6218 36.2329C24.6263 36.2057 24.6175 36.178 24.5983 36.1586L24.2595 35.8205L24.7283 35.7514C24.7552 35.7474 24.7786 35.7302 24.7907 35.7053L24.9954 35.2709L25.2001 35.7053C25.2122 35.7302 25.2356 35.7474 25.2625 35.7514L25.7313 35.8205L25.4017 36.1586Z" fill="#146EB4"/>
<path d="M28.9772 34.7052C28.9643 34.6915 28.9472 34.6827 28.9288 34.6802L28.3372 34.5922L28.0742 34.0427C28.0497 34.001 27.9969 33.9876 27.9562 34.0126C27.9442 34.02 27.9341 34.0303 27.9268 34.0427L27.6628 34.5902L27.0712 34.6781C27.0264 34.6841 26.9948 34.7262 27.0007 34.772C27.0031 34.7909 27.0117 34.8083 27.0252 34.8215L27.453 35.2476L27.3506 35.8495C27.3433 35.8957 27.374 35.9393 27.4192 35.9468C27.4367 35.9497 27.4546 35.9468 27.4704 35.9385L28.0005 35.6558L28.5296 35.9406C28.5704 35.962 28.6203 35.9456 28.6413 35.904C28.6494 35.8878 28.6522 35.8695 28.6494 35.8516L28.547 35.2497L28.9749 34.8236C29.0075 34.7916 29.0085 34.7385 28.9772 34.7052ZM28.4017 35.1586C28.3825 35.178 28.3737 35.2057 28.3782 35.2329L28.458 35.7103L28.0384 35.4852C28.0143 35.4724 27.9857 35.4724 27.9616 35.4852L27.542 35.7103L27.6218 35.2329C27.6263 35.2057 27.6175 35.178 27.5983 35.1586L27.2595 34.8205L27.7283 34.7514C27.7552 34.7474 27.7786 34.7302 27.7907 34.7053L27.9954 34.2709L28.2001 34.7053C28.2122 34.7302 28.2356 34.7474 28.2625 34.7514L28.7313 34.8205L28.4017 35.1586Z" fill="#146EB4"/>
</svg>
