<svg width="26" height="34" viewBox="0 0 26 34" fill="none" xmlns="http://www.w3.org/2000/svg">
<path d="M17.6961 18.6232L16.6527 17.6957L15.6092 17.2319L13.5222 17.4272M17.6961 18.6232V19.5507V20.942L16.1309 21.8696L11.6419 22.4835M17.6961 18.6232L18.7396 17.6957M10.9135 25.1159L8.82658 23.7246L9.34831 22.7971L11.6419 22.4835M11.6419 22.4835L14.044 24.6522L14.5657 25.5797V26.971M4.98719 18.6996L2.04397 20.942V23.7246L4.13092 30.2174L7.26136 33H22.3918L24.4787 30.2174L25.0005 28.8261V22.3333V18.1594L23.4353 16.7681M4.98719 18.6996L5.69614 18.1594L13.5222 17.4272M4.98719 18.6996L1.00049 5.17391L1.52223 3.78261L2.56571 2.85507H4.13092L5.69614 3.78261L9.87005 15.3768L11.957 2.3913L12.4787 1.46377L13.5222 1H15.0874L16.1309 1.92754L16.6527 2.85507L15.6092 9.81159M15.6092 9.81159L14.044 10.2754L13.5222 11.2029V17.4272M15.6092 9.81159H17.1744L18.7396 10.7391V11.6667M18.7396 17.6957V11.6667M18.7396 17.6957V19.5507L19.2614 20.4783L20.3048 20.942H21.8701L22.3918 20.4783L23.4353 19.5507V16.7681M18.7396 11.6667L19.7831 11.2029H21.3483L22.9135 11.6667L23.4353 12.5942V16.7681" stroke="#146EB4"/>
</svg>
