<svg width="33" height="35" viewBox="0 0 33 35" fill="none" xmlns="http://www.w3.org/2000/svg">
<path fill-rule="evenodd" clip-rule="evenodd" d="M10.3852 3.62529C13.0579 2.61469 15.1254 1.15902 16.1571 0.143677L16.4929 0L16.8439 0.143677C17.8756 1.15902 19.9431 2.61469 22.6157 3.62529C25.2831 4.63388 28.5206 5.18704 31.9078 4.4463C32.1134 4.40134 32.3172 4.44725 32.4822 4.56919C32.6284 4.67727 32.7178 4.8247 32.7749 4.95092C32.8884 5.2022 32.9467 5.53618 32.9759 5.89771C33.0356 6.63757 32.9862 7.6907 32.832 8.94547C32.5224 11.4637 31.7786 14.8843 30.547 18.4239C29.3158 21.962 27.5891 25.6426 25.3022 28.6652C23.0161 31.6867 20.1436 34.0845 16.6166 34.9844L16.4929 35L16.3843 34.9844C12.8574 34.0845 9.98492 31.6867 7.69882 28.6652C5.41189 25.6426 3.68513 21.962 2.45401 18.4239C1.22235 14.8843 0.478601 11.4637 0.168997 8.94547C0.0147306 7.6907 -0.0346094 6.63757 0.0250835 5.89771C0.0542524 5.53618 0.112575 5.2022 0.226102 4.95092C0.283128 4.8247 0.372567 4.67727 0.518814 4.56919C0.683825 4.44725 0.887566 4.40134 1.09318 4.4463C4.48039 5.18704 7.7179 4.63388 10.3852 3.62529ZM16.5005 33.9812C19.6748 33.1305 22.3295 30.9363 24.5042 28.0621C26.7079 25.1494 28.3922 21.5722 29.602 18.0954C30.8113 14.6201 31.5384 11.2687 31.839 8.8235C31.9898 7.59654 32.0305 6.62005 31.9787 5.9781C31.9599 5.74505 31.9304 5.57929 31.9002 5.46994C28.359 6.19091 25.0033 5.59726 22.2617 4.5606C19.7381 3.60635 17.7081 2.26682 16.5005 1.19121C15.2929 2.26682 13.2629 3.60635 10.7392 4.5606C7.99765 5.59726 4.64202 6.19091 1.10074 5.46994C1.07053 5.57929 1.04111 5.74505 1.02231 5.9781C0.970512 6.62005 1.01114 7.59654 1.16199 8.8235C1.46261 11.2687 2.18968 14.6201 3.39895 18.0954C4.60875 21.5722 6.29303 25.1494 8.49679 28.0621C10.6715 30.9363 13.3261 33.1305 16.5005 33.9812Z" fill="#146EB4"/>
<path fill-rule="evenodd" clip-rule="evenodd" d="M11.1824 5.90026C13.2882 5.09178 14.9171 3.92725 15.7299 3.11497L15.9945 3.00003L16.271 3.11497C17.0839 3.92725 18.7128 5.09178 20.8186 5.90026C22.9201 6.70713 25.4709 7.14966 28.1396 6.55707C28.3016 6.5211 28.4621 6.55783 28.5921 6.65538C28.7073 6.74185 28.7778 6.85979 28.8227 6.96077C28.9122 7.16178 28.9581 7.42897 28.9811 7.7182C29.0281 8.31008 28.9893 9.15259 28.8677 10.1564C28.6238 12.171 28.0378 14.9074 27.0674 17.7391C26.0974 20.5696 24.737 23.5141 22.9351 25.9322C21.134 28.3494 18.8708 30.2677 16.092 30.9876L15.9945 31L15.909 30.9876C13.1301 30.2677 10.867 28.3494 9.06584 25.9322C7.26402 23.5141 5.90354 20.5696 4.93356 17.7391C3.96317 14.9074 3.37718 12.171 3.13325 10.1564C3.01171 9.15259 2.97284 8.31008 3.01987 7.7182C3.04285 7.42898 3.0888 7.16178 3.17824 6.96077C3.22317 6.85979 3.29364 6.74185 3.40887 6.65538C3.53888 6.55783 3.6994 6.5211 3.86139 6.55707C6.53011 7.14966 9.08087 6.70713 11.1824 5.90026ZM16.0005 30.185C18.5015 29.5044 20.5931 27.7491 22.3064 25.4497C24.0427 23.1195 25.3697 20.2578 26.3229 17.4763C27.2757 14.6961 27.8485 12.015 28.0854 10.0588C28.2042 9.07726 28.2362 8.29607 28.1954 7.78251C28.1806 7.59606 28.1574 7.46346 28.1336 7.37598C25.3435 7.95275 22.6997 7.47783 20.5397 6.64851C18.5513 5.88511 16.9519 4.81349 16.0005 3.95299C15.049 4.81349 13.4497 5.88511 11.4613 6.64851C9.30129 7.47783 6.65745 7.95275 3.86735 7.37598C3.84355 7.46346 3.82037 7.59607 3.80556 7.78251C3.76475 8.29607 3.79676 9.07726 3.91561 10.0588C4.15247 12.015 4.72531 14.6961 5.67806 17.4763C6.63124 20.2578 7.95825 23.1195 9.69454 25.4497C11.4079 27.7491 13.4995 29.5044 16.0005 30.185Z" fill="#146EB4"/>
<path d="M20.0005 16.9043C20.0005 18.555 19.6292 19.8181 18.8865 20.6936C18.1489 21.5646 17.0851 22 15.6951 22H13.0005V12H15.9435C17.2231 12 18.2191 12.4309 18.9317 13.2928C19.6442 14.1501 20.0005 15.3539 20.0005 16.9043ZM17.9005 16.959C17.9005 14.7246 17.2231 13.6074 15.8682 13.6074H15.0478V20.3721H15.7102C16.4578 20.3721 17.0098 20.0894 17.3661 19.524C17.7224 18.954 17.9005 18.099 17.9005 16.959Z" fill="#146EB4"/>
</svg>
