<svg width="50" height="50" viewBox="0 0 50 50" fill="none" xmlns="http://www.w3.org/2000/svg">
<path d="M50.0001 26.5097V24.7581H48.7267C47.7179 24.7581 46.7195 25.0049 45.8146 25.4444C46.4292 24.5952 46.7743 23.5662 46.7743 22.4855C46.7743 21.1355 46.2493 19.867 45.2945 18.9121L43.5485 17.1662L41.8025 18.9121C40.8477 19.867 40.3227 21.1355 40.3227 22.4855C40.3227 22.7799 40.3566 23.0678 40.4066 23.3517C39.938 23.2194 39.4534 23.1452 38.9598 23.1452H37.0969V24.8968C37.0969 25.5573 37.2074 26.2113 37.4098 26.8355L37.3195 26.7904L36.7227 29.7758C36.5759 30.5105 36.5388 31.2557 36.5993 31.992L36.2904 31.6823L34.6679 33.3049C33.7808 34.192 33.2388 35.3299 33.1017 36.5589L32.2582 35.7146L30.7219 37.2508C29.6485 38.3242 29.0324 39.8105 29.0324 41.3291C29.0324 42.2194 29.2429 43.1105 29.6413 43.9081L30.4114 45.4484C28.6743 46.2686 26.8622 46.9057 25.0001 47.3533C23.138 46.9057 21.3267 46.2686 19.5888 45.4484L20.359 43.9081C20.7574 43.1105 20.9679 42.2186 20.9679 41.3291C20.9679 39.8105 20.3517 38.3242 19.2783 37.2508L17.7421 35.7146L16.8985 36.5581C16.7614 35.3291 16.2195 34.1912 15.3324 33.3041L13.7098 31.6823L13.4009 31.9912C13.4622 31.2549 13.4243 30.5105 13.2775 29.775L12.6808 26.7896L12.5904 26.8347C12.7929 26.2113 12.9033 25.5573 12.9033 24.8968V23.1452H11.0404C10.5469 23.1452 10.0614 23.2194 9.59367 23.3517C9.64367 23.0678 9.67754 22.7791 9.67754 22.4855C9.67754 21.1355 9.15254 19.867 8.1977 18.9121L6.45174 17.1662L4.70577 18.9121C3.75093 19.867 3.22593 21.1355 3.22593 22.4855C3.22593 23.5662 3.57109 24.5952 4.18561 25.4444C3.28077 25.0049 2.28238 24.7581 1.27351 24.7581H0.00012207V26.5097C0.00012207 28.171 0.674316 29.7984 1.84932 30.9734C1.93238 31.0565 2.0227 31.1315 2.11061 31.2097H1.61303V33.5315C1.61303 34.85 2.12673 36.0896 3.05899 37.0218C3.60657 37.5694 4.26222 37.9678 4.97593 38.2073L2.86141 38.7355L3.58319 40.1799C3.97593 40.9662 4.49125 41.6799 5.11222 42.3017C6.25577 43.4452 7.6977 44.217 9.28399 44.5347L9.48803 44.5759C9.45174 44.6259 9.41061 44.671 9.37673 44.7226L8.55819 45.95L9.97109 46.892C11.2025 47.7113 12.634 48.1452 14.113 48.1452C15.5921 48.1452 17.0235 47.7113 18.2542 46.8912L18.5122 46.7186C19.463 47.1847 20.43 47.6097 21.4219 47.9702C20.4372 48.0758 19.4469 48.1452 18.4501 48.1452H15.3227V49.7581H18.4501C20.6663 49.7581 22.8606 49.4984 25.0001 49.0137C27.1396 49.4984 29.334 49.7581 31.5501 49.7581H34.6775V48.1452H31.5501C30.5533 48.1452 29.563 48.0758 28.5783 47.971C29.5695 47.6105 30.5372 47.1855 31.4872 46.7194L31.7453 46.892C32.9767 47.7113 34.4082 48.1452 35.8872 48.1452C37.3663 48.1452 38.7977 47.7113 40.0283 46.8912L41.4413 45.9492L40.6227 44.7218C40.588 44.6702 40.5469 44.625 40.5114 44.575L40.7154 44.5339C42.3017 44.2162 43.7437 43.4444 44.8872 42.3008C45.509 41.6791 46.0235 40.9654 46.4163 40.1791L47.1388 38.7347L45.0243 38.2065C45.738 37.967 46.3929 37.5686 46.9413 37.021C47.8735 36.0896 48.3872 34.85 48.3872 33.5315V31.2097H47.8896C47.9775 31.1315 48.0679 31.0565 48.1509 30.9734C49.3259 29.7984 50.0001 28.171 50.0001 26.5097ZM13.2275 34.4444L13.7098 33.9629L14.1921 34.4452C14.9211 35.1742 15.3227 36.1436 15.3227 37.175C15.3227 37.8734 15.1332 38.5605 14.7727 39.1605L13.7098 40.9331L12.6469 39.1621C12.2864 38.5605 12.0969 37.8742 12.0969 37.175C12.0969 36.1436 12.4985 35.1742 13.2275 34.4444ZM11.6961 30.092C11.938 31.3008 11.8235 32.5444 11.3654 33.6888C10.9775 34.6589 10.3558 35.4976 9.56544 36.1646C9.35012 35.7549 9.15415 35.3379 8.96786 34.917C8.90899 34.7613 8.83641 34.6121 8.76383 34.4629C8.7598 34.4541 8.75738 34.4444 8.75415 34.4355H8.87109V33.5242C8.87109 33.1259 8.91948 32.7267 9.01706 32.3363C9.35899 30.9718 10.2671 29.8242 11.5138 29.1783L11.6961 30.092ZM10.5259 37.7887C10.4783 37.7154 10.4259 37.6436 10.3792 37.5694C10.4211 37.5363 10.463 37.5049 10.5042 37.4718C10.5098 37.5783 10.5138 37.6839 10.5259 37.7887ZM8.99125 25.3791C9.59932 24.9726 10.3082 24.7581 11.0404 24.7581H11.2904V24.8968C11.2904 26.1339 10.7888 27.3452 9.91383 28.2202C9.28964 28.8444 8.49286 29.2742 7.63883 29.4718C7.55819 29.2097 7.46706 28.9525 7.35577 28.7041C7.33319 28.4629 7.31786 28.2202 7.30415 27.9775L7.5348 27.2855C7.79367 26.5089 8.31061 25.8315 8.99125 25.3791ZM7.7348 31.0992C7.73319 31.1033 7.73077 31.1065 7.72996 31.1097C7.72915 31.1065 7.72835 31.1033 7.72835 31.1C7.73077 31.1 7.73238 31.0992 7.7348 31.0992ZM5.84609 20.0525L6.45174 19.4468L7.05738 20.0525C7.6977 20.6928 8.06464 21.5799 8.06464 22.4855C8.06464 23.6388 7.49206 24.7089 6.53319 25.3484L6.45174 25.4025L6.37028 25.3484C5.41141 24.7081 4.83883 23.6379 4.83883 22.4855C4.83883 21.5799 5.20577 20.6928 5.84609 20.0525ZM2.98964 29.8331C2.11464 28.9581 1.61303 27.7468 1.61303 26.5097V26.3831C2.58157 26.4492 3.52593 26.7984 4.30415 27.3815C4.94044 27.8581 5.44044 28.4863 5.79044 29.1928C5.86383 29.8686 5.96867 30.5371 6.10415 31.1992C4.94044 31.146 3.81544 30.6589 2.98964 29.8331ZM4.19932 35.8815C3.58077 35.2621 3.22593 34.4065 3.22593 33.5315V32.8226H3.59448C4.70174 32.8226 5.74206 33.2533 6.52512 34.0363C6.82673 34.3379 7.0719 34.6863 7.26706 35.0621C7.33157 35.2194 7.40738 35.3726 7.47512 35.5291C7.52754 35.671 7.57835 35.8138 7.61464 35.9613L7.83803 36.8549H6.54932C5.67432 36.8549 4.81786 36.5 4.19932 35.8815ZM9.60174 42.9525C8.32835 42.6984 7.17109 42.0791 6.25335 41.1613C5.84851 40.7565 5.50012 40.3041 5.21544 39.8097L5.92351 39.6323C6.7977 39.4146 7.71948 39.4146 8.59367 39.6323C9.32432 39.8146 10.0074 40.146 10.6017 40.6008C11.184 41.3121 11.7977 41.9936 12.4614 42.6218C11.9267 42.7388 11.4203 42.9436 10.9566 43.2234L9.60174 42.9525ZM10.8671 45.5492L10.7985 45.5033C11.4324 44.6307 12.4429 44.1129 13.5283 44.1129C13.8001 44.1129 14.0719 44.1484 14.3356 44.2138C14.8751 44.6194 15.4324 45.0041 16.0122 45.3605C16.2856 45.5291 16.5695 45.6767 16.8477 45.8355C14.9816 46.8121 12.6324 46.7258 10.8671 45.5492ZM18.9163 43.1871L18.1493 44.7218C17.9453 44.6105 17.7445 44.4928 17.5429 44.3767L16.7493 43.1863C16.3437 42.5775 16.1292 41.8694 16.1292 41.1379C16.1292 40.1517 16.5138 39.225 17.2106 38.5275L17.7421 37.9952L18.138 38.3912C18.9114 39.1646 19.355 40.2347 19.355 41.3291C19.355 41.9702 19.2025 42.6129 18.9163 43.1871ZM42.9429 20.0525L43.5485 19.4468L44.1542 20.0525C44.7945 20.6928 45.1614 21.5799 45.1614 22.4855C45.1614 23.6388 44.5888 24.7089 43.63 25.3484L43.5485 25.4025L43.4671 25.3484C42.5082 24.7081 41.9356 23.6379 41.9356 22.4855C41.9356 21.5799 42.3025 20.6928 42.9429 20.0525ZM38.7098 24.7581H38.9598C39.6921 24.7581 40.4009 24.9726 41.0098 25.3791C41.6904 25.8323 42.2066 26.5089 42.4663 27.2855L42.6969 27.9775C42.6832 28.2202 42.6679 28.4629 42.6453 28.7041C42.534 28.9525 42.4421 29.2105 42.3622 29.4718C41.5082 29.2742 40.7114 28.8444 40.0872 28.2202C39.2114 27.3452 38.7098 26.1339 38.7098 24.8968V24.7581ZM42.2727 31.1008C42.2719 31.1041 42.2711 31.1073 42.2711 31.1113C42.2695 31.1073 42.2679 31.1041 42.2663 31.1C42.2663 31.1 42.2703 31.1 42.2727 31.1008ZM38.3042 30.092L38.4864 29.1783C39.7332 29.8242 40.6413 30.9718 40.9824 32.3355C41.08 32.7267 41.1292 33.1259 41.1292 33.5242V34.4355H41.2461C41.2421 34.4444 41.2396 34.4541 41.2364 34.4629C41.1638 34.6121 41.0913 34.7613 41.0324 34.917C40.8469 35.3388 40.6501 35.7557 40.4348 36.1646C39.6445 35.4976 39.0227 34.6589 38.6348 33.6879C38.1767 32.5444 38.0622 31.3008 38.3042 30.092ZM39.6211 37.5702C39.5743 37.6444 39.5227 37.7154 39.4743 37.7896C39.4864 37.6847 39.4896 37.5791 39.4961 37.4726C39.5372 37.5057 39.58 37.5371 39.6211 37.5702ZM35.8082 34.4452L36.2904 33.9629L36.7727 34.4452C37.5017 35.1742 37.9033 36.1436 37.9033 37.175C37.9033 37.8734 37.7138 38.5605 37.3533 39.1605L36.2904 40.9331L35.2275 39.1621C34.8671 38.5605 34.6775 37.8742 34.6775 37.175C34.6775 36.1436 35.0792 35.1742 35.8082 34.4452ZM31.8509 44.7218L31.084 43.1871C30.7969 42.6129 30.6453 41.9702 30.6453 41.3291C30.6453 40.2347 31.0888 39.1646 31.8622 38.3912L32.2582 37.9952L32.7896 38.5267C33.4864 39.2242 33.8711 40.1517 33.8711 41.1379C33.8711 41.8694 33.6566 42.5775 33.2509 43.1863L32.4574 44.3767C32.2558 44.4928 32.055 44.6105 31.8509 44.7218ZM39.1332 45.5492C37.3671 46.7258 35.0179 46.8121 33.1517 45.8355C33.43 45.6767 33.7138 45.5291 33.9872 45.3605C34.5671 45.0041 35.1243 44.6186 35.6638 44.2138C35.9283 44.1484 36.2001 44.1129 36.4719 44.1129C37.5582 44.1129 38.5687 44.6307 39.2025 45.5041L39.1332 45.5492ZM43.7469 41.1613C42.8292 42.0791 41.6719 42.6984 40.3993 42.9533L39.0445 43.2242C38.5808 42.9444 38.0743 42.7396 37.5396 42.6226C38.2033 41.9944 38.8162 41.3129 39.3993 40.6017C39.9937 40.1468 40.6767 39.8154 41.4074 39.6331C42.2816 39.4154 43.2033 39.4154 44.0775 39.6331L44.7856 39.8105C44.5001 40.3033 44.1517 40.7565 43.7469 41.1613ZM46.7743 33.5315C46.7743 34.4065 46.4195 35.2621 45.8009 35.8815C45.1816 36.5 44.3259 36.8549 43.4509 36.8549H42.1622L42.3848 35.9613C42.4219 35.8138 42.4719 35.671 42.5243 35.5291C42.5929 35.3726 42.6679 35.2202 42.7324 35.0621C42.9275 34.6871 43.1727 34.3379 43.4743 34.0363C44.2582 33.2533 45.2985 32.8226 46.4058 32.8226H46.7743V33.5315ZM47.0106 29.8331C46.1848 30.6589 45.0598 31.146 43.8961 31.1992C44.0316 30.5379 44.1364 29.8686 44.2098 29.1928C44.559 28.4863 45.0598 27.8581 45.6969 27.3815C46.4743 26.7976 47.4187 26.4492 48.3872 26.3831V26.5097C48.3872 27.7468 47.8856 28.9581 47.0106 29.8331Z" fill="#146EB4"/>
<path d="M12.288 18.3065L14.6961 16.9605C17.8405 15.2024 21.4042 14.2742 25.0001 14.2742C28.5961 14.2742 32.1598 15.2024 35.3034 16.9605L37.7122 18.3065H39.355L42.2009 6.85403L35.98 7.74758L33.388 2.53306L29.259 5.85645L25.0001 0L20.7413 5.85726L16.6122 2.53387L14.0203 7.74839L7.79933 6.85484L10.6453 18.3065H12.288ZM14.9445 9.51048L17.163 5.04758L21.0493 8.17581L25.0001 2.74194L28.9501 8.175L32.8364 5.04677L35.055 9.50968L40.0566 8.79032L38.0969 16.6734L36.0905 15.5508C32.7066 13.6605 28.8711 12.6613 25.0001 12.6613C21.1292 12.6613 17.2937 13.6605 13.909 15.5524L11.9026 16.675L9.94288 8.79194L14.9445 9.51048Z" fill="#146EB4"/>
<path d="M22.2541 28H19.9532V24.448H19.8924L19.1741 28H17.0436L16.3375 24.448H16.2767V28H14.0001L14.2923 20.548H17.5306L18.1028 23.92H18.2123L18.7723 20.548H21.9741L22.2541 28Z" fill="#146EB4"/>
<path d="M29.5817 20.548L28.1209 28H24.3834L22.8373 20.548H25.6495L26.2339 25.12H26.38L26.9035 20.548H29.5817Z" fill="#146EB4"/>
<path d="M33.2731 25.672H32.7497V28H30.1931V20.548H33.1392C34.1375 20.548 34.8639 20.748 35.3184 21.148C35.7729 21.548 36.0001 22.208 36.0001 23.128C36.0001 24.048 35.781 24.704 35.3427 25.096C34.9045 25.48 34.2146 25.672 33.2731 25.672ZM33.3949 23.932C33.4679 23.804 33.5044 23.588 33.5044 23.284C33.5044 22.98 33.4639 22.764 33.3827 22.636C33.3097 22.508 33.1676 22.444 32.9566 22.444H32.701V24.124H33.0175C33.2042 24.124 33.3299 24.06 33.3949 23.932Z" fill="#146EB4"/>
<path d="M27.9316 8.11558C27.8929 8.07443 27.8418 8.04801 27.7865 8.04056L26.0118 7.77675L25.2227 6.12796C25.1494 6.00309 24.9909 5.96269 24.8688 6.03771C24.8326 6.05997 24.8024 6.09094 24.7806 6.12796L23.9884 7.77047L22.2138 8.03428C22.0793 8.05237 21.9846 8.17854 22.0022 8.31614C22.0095 8.37267 22.0354 8.425 22.0756 8.46453L23.359 9.74273L23.052 11.5485C23.03 11.6872 23.1221 11.8179 23.2577 11.8404C23.3101 11.8491 23.3639 11.8404 23.4112 11.8155L25.0017 10.9675L26.5891 11.8218C26.7112 11.886 26.8611 11.8369 26.924 11.7119C26.9483 11.6635 26.9568 11.6085 26.9483 11.5548L26.6413 9.74901L27.9247 8.47081C28.0225 8.37467 28.0256 8.21564 27.9316 8.11558ZM26.2053 9.47579C26.1477 9.53393 26.1213 9.61711 26.1346 9.69876L26.3741 11.1309L25.1153 10.4556C25.0431 10.4171 24.9572 10.4171 24.885 10.4556L23.6261 11.1309L23.8656 9.69876C23.8789 9.61711 23.8526 9.53393 23.795 9.47579L22.7787 8.46139L24.1849 8.25411C24.2658 8.2423 24.3358 8.19063 24.3722 8.11593L24.9863 6.8126L25.6004 8.11593C25.6369 8.19063 25.7069 8.2423 25.7877 8.25411L27.1939 8.46139L26.2053 9.47579Z" fill="#146EB4"/>
<path d="M21.4646 31.4645C20.5202 32.4088 20.0001 33.6645 20.0001 35C20.0001 36.3355 20.5202 37.5912 21.4646 38.5355C22.4089 39.4799 23.6646 40 25.0001 40C26.3357 40 27.5913 39.4799 28.5356 38.5355C29.48 37.5912 30.0001 36.3355 30.0001 35C30.0001 33.6645 29.48 32.4088 28.5356 31.4645C27.5913 30.5201 26.3357 30 25.0001 30C23.6646 30 22.4089 30.5201 21.4646 31.4645ZM29.7005 35.1485C29.6635 36.3491 29.1788 37.4724 28.3256 38.3255C28.3228 38.3283 28.3199 38.331 28.3171 38.3338C27.9004 37.9197 27.569 37.4387 27.3314 36.9019C27.0856 36.3468 26.9522 35.7576 26.9335 35.1486L29.7005 35.1485ZM24.8516 35.1485V37.9504H25.1486V35.1485H26.6363C26.655 35.7993 26.7972 36.4289 27.0598 37.0221C27.311 37.5896 27.6607 38.0983 28.0999 38.5367C27.2789 39.2583 26.2461 39.6666 25.1486 39.7004V38.3465H24.8516V39.7004C23.7541 39.6666 22.7213 39.2584 21.9003 38.5367C22.3395 38.0983 22.6892 37.5896 22.9405 37.0221C23.2031 36.4289 23.3452 35.7993 23.3639 35.1485H24.8516ZM23.0667 35.1485C23.0481 35.7576 22.9146 36.3468 22.6689 36.9018C22.4312 37.4387 22.0998 37.9198 21.6832 38.3338C21.6803 38.331 21.6774 38.3283 21.6746 38.3255C20.8215 37.4723 20.3367 36.349 20.2997 35.1485L23.0667 35.1485ZM20.2997 34.8515C20.3367 33.651 20.8214 32.5277 21.6746 31.6745C21.6774 31.6717 21.6803 31.669 21.6831 31.6662C22.0998 32.0802 22.4312 32.5613 22.6689 33.0981C22.9146 33.6532 23.0481 34.2424 23.0667 34.8515L20.2997 34.8515ZM24.8516 34.8515H23.364C23.3452 34.2007 23.2031 33.5711 22.9405 32.9779C22.6893 32.4104 22.3396 31.9017 21.9003 31.4633C22.7214 30.7417 23.7541 30.3334 24.8516 30.2996L24.8516 34.8515ZM28.3256 31.6745C29.1788 32.5277 29.6635 33.651 29.7005 34.8515H26.9335C26.9522 34.2424 27.0856 33.6532 27.3314 33.0982C27.569 32.5613 27.9004 32.0803 28.3171 31.6662C28.3199 31.669 28.3228 31.6717 28.3256 31.6745ZM27.0598 32.9779C26.7972 33.5711 26.6551 34.2007 26.6363 34.8515H25.1487V30.2996C26.2462 30.3335 27.2789 30.7417 28.1 31.4633C27.6607 31.9017 27.311 32.4104 27.0598 32.9779Z" fill="#146EB4"/>
<path d="M32.9773 11.7233C32.9644 11.7092 32.9473 11.7002 32.9289 11.6976L32.3374 11.6074L32.0743 11.0437C32.0499 11.0011 31.9971 10.9872 31.9564 11.0129C31.9443 11.0205 31.9342 11.0311 31.927 11.0437L31.6629 11.6053L31.0713 11.6955C31.0265 11.7017 30.9949 11.7448 31.0008 11.7918C31.0032 11.8112 31.0119 11.8291 31.0253 11.8426L31.4531 12.2796L31.3507 12.8969C31.3434 12.9444 31.3741 12.989 31.4193 12.9967C31.4368 12.9997 31.4547 12.9967 31.4705 12.9882L32.0006 12.6983L32.5298 12.9904C32.5705 13.0123 32.6205 12.9955 32.6414 12.9528C32.6495 12.9362 32.6524 12.9174 32.6495 12.8991L32.5472 12.2817L32.975 11.8447C33.0076 11.8119 33.0086 11.7575 32.9773 11.7233ZM32.4018 12.1883C32.3826 12.2082 32.3739 12.2366 32.3783 12.2645L32.4581 12.7541L32.0385 12.5233C32.0145 12.5101 31.9858 12.5101 31.9617 12.5233L31.5421 12.7541L31.622 12.2645C31.6264 12.2366 31.6176 12.2082 31.5984 12.1883L31.2597 11.8415L31.7284 11.7706C31.7553 11.7666 31.7787 11.7489 31.7908 11.7234L31.9955 11.2778L32.2002 11.7234C32.2124 11.7489 32.2357 11.7666 32.2626 11.7706L32.7314 11.8415L32.4018 12.1883Z" fill="#146EB4"/>
<path d="M17.023 11.7233C17.0358 11.7092 17.0529 11.7002 17.0713 11.6976L17.6629 11.6074L17.9259 11.0437C17.9504 11.0011 18.0032 10.9872 18.0439 11.0129C18.0559 11.0205 18.066 11.0311 18.0733 11.0437L18.3373 11.6053L18.9289 11.6955C18.9737 11.7017 19.0053 11.7448 18.9994 11.7918C18.997 11.8112 18.9884 11.8291 18.975 11.8426L18.5472 12.2796L18.6495 12.8969C18.6568 12.9444 18.6261 12.989 18.5809 12.9967C18.5635 12.9997 18.5455 12.9967 18.5298 12.9882L17.9996 12.6983L17.4705 12.9904C17.4298 13.0123 17.3798 12.9955 17.3588 12.9528C17.3507 12.9362 17.3479 12.9174 17.3507 12.8991L17.4531 12.2817L17.0253 11.8447C16.9927 11.8119 16.9916 11.7575 17.023 11.7233ZM17.5984 12.1883C17.6176 12.2082 17.6264 12.2366 17.6219 12.2645L17.5421 12.7541L17.9617 12.5233C17.9858 12.5101 18.0144 12.5101 18.0385 12.5233L18.4581 12.7541L18.3783 12.2645C18.3738 12.2366 18.3826 12.2082 18.4018 12.1883L18.7406 11.8415L18.2718 11.7706C18.2449 11.7666 18.2216 11.7489 18.2094 11.7234L18.0047 11.2778L17.8 11.7234C17.7879 11.7489 17.7645 11.7666 17.7376 11.7706L17.2689 11.8415L17.5984 12.1883Z" fill="#146EB4"/>
<path d="M37.9773 13.7233C37.9644 13.7092 37.9473 13.7002 37.9289 13.6976L37.3374 13.6074L37.0743 13.0437C37.0499 13.0011 36.9971 12.9872 36.9564 13.0129C36.9443 13.0205 36.9342 13.0311 36.9269 13.0437L36.6629 13.6053L36.0713 13.6955C36.0265 13.7017 35.9949 13.7448 36.0008 13.7918C36.0033 13.8112 36.0119 13.8291 36.0253 13.8426L36.4531 14.2796L36.3507 14.8969C36.3434 14.9444 36.3741 14.989 36.4193 14.9967C36.4368 14.9997 36.4547 14.9967 36.4705 14.9882L37.0006 14.6983L37.5298 14.9904C37.5705 15.0123 37.6205 14.9955 37.6414 14.9528C37.6495 14.9362 37.6524 14.9174 37.6495 14.8991L37.5472 14.2817L37.975 13.8447C38.0076 13.8119 38.0086 13.7575 37.9773 13.7233ZM37.4018 14.1883C37.3826 14.2082 37.3739 14.2366 37.3783 14.2645L37.4581 14.7541L37.0385 14.5233C37.0145 14.5101 36.9858 14.5101 36.9617 14.5233L36.5421 14.7541L36.622 14.2645C36.6264 14.2366 36.6176 14.2082 36.5984 14.1883L36.2597 13.8415L36.7284 13.7706C36.7553 13.7666 36.7787 13.7489 36.7908 13.7234L36.9955 13.2778L37.2002 13.7234C37.2124 13.7489 37.2357 13.7666 37.2626 13.7706L37.7314 13.8415L37.4018 14.1883Z" fill="#146EB4"/>
<path d="M12.023 13.7233C12.0358 13.7092 12.0529 13.7002 12.0713 13.6976L12.6629 13.6074L12.9259 13.0437C12.9504 13.0011 13.0032 12.9872 13.0439 13.0129C13.0559 13.0205 13.066 13.0311 13.0733 13.0437L13.3373 13.6053L13.9289 13.6955C13.9737 13.7017 14.0053 13.7448 13.9994 13.7918C13.997 13.8112 13.9884 13.8291 13.975 13.8426L13.5472 14.2796L13.6495 14.8969C13.6568 14.9444 13.6261 14.989 13.5809 14.9967C13.5635 14.9997 13.5455 14.9967 13.5298 14.9882L12.9996 14.6983L12.4705 14.9904C12.4298 15.0123 12.3798 14.9955 12.3588 14.9528C12.3507 14.9362 12.3479 14.9174 12.3507 14.8991L12.4531 14.2817L12.0253 13.8447C11.9927 13.8119 11.9916 13.7575 12.023 13.7233ZM12.5984 14.1883C12.6176 14.2082 12.6264 14.2366 12.6219 14.2645L12.5421 14.7541L12.9617 14.5233C12.9858 14.5101 13.0144 14.5101 13.0385 14.5233L13.4581 14.7541L13.3783 14.2645C13.3738 14.2366 13.3826 14.2082 13.4018 14.1883L13.7406 13.8415L13.2718 13.7706C13.2449 13.7666 13.2216 13.7489 13.2094 13.7234L13.0047 13.2778L12.8 13.7234C12.7879 13.7489 12.7645 13.7666 12.7376 13.7706L12.2689 13.8415L12.5984 14.1883Z" fill="#146EB4"/>
</svg>
