<svg width="34" height="50" viewBox="0 0 34 50" fill="none" xmlns="http://www.w3.org/2000/svg">
<path d="M29.9334 39.6534H24.7311L23.7458 31.7158C23.9277 31.6351 24.1086 31.5522 24.2875 31.4649C24.29 31.4638 24.2923 31.4625 24.2947 31.4613C24.4747 31.3734 24.6524 31.2811 24.8292 31.1866C25.0943 31.0449 25.3556 30.8959 25.6129 30.7398C25.7644 30.6479 25.9145 30.5537 26.063 30.4569C27.3377 29.6265 28.5046 28.6173 29.5228 27.4451L29.5236 27.4441C32.1398 24.432 33.5797 20.573 33.5783 16.5777C33.5764 12.1496 32.1311 8.2666 29.5085 5.64404C25.818 1.95342 21.4928 0.00185547 17.0005 0C16.9985 0 16.996 0 16.994 0C16.5149 0 16.0383 0.021582 15.5653 0.0623047C15.3171 0.0836914 15.07 0.110352 14.8241 0.142676C14.7869 0.147559 14.7496 0.152441 14.7125 0.157617C11.3658 0.620703 8.23902 2.09375 5.75396 4.38477C5.73755 4.3999 5.72095 4.41494 5.70454 4.43018C5.4648 4.65303 5.23169 4.88418 5.00435 5.12217C4.89771 5.23379 4.79253 5.34717 4.68882 5.46211C4.61802 5.54053 4.54702 5.61875 4.47759 5.69863C1.86079 8.71084 0.42046 12.5702 0.422121 16.566C0.423781 20.5616 1.86694 24.4218 4.48589 27.4357C6.09302 29.2853 8.06851 30.7315 10.2558 31.7061L9.26919 39.6535H4.06646C3.80747 39.6535 3.55903 39.7564 3.37593 39.9395C3.19273 40.1228 3.08989 40.3711 3.08989 40.6301L3.09009 44.908L3.08989 44.9123L3.09009 44.9166L3.09029 49.0235C3.09038 49.5628 3.52759 50 4.06685 50H29.9337C30.1927 50 30.4412 49.8971 30.6243 49.714C30.8074 49.5309 30.9103 49.2824 30.9103 49.0234L30.9099 40.63C30.91 40.0906 30.4727 39.6534 29.9334 39.6534ZM27.2916 26.9701C27.27 26.9915 27.2488 27.0134 27.227 27.0347C27.1403 27.1193 27.0526 27.2028 26.964 27.2852C26.937 27.3104 26.9093 27.3348 26.8821 27.3597C26.8192 27.4172 26.7561 27.4745 26.6923 27.531C26.6567 27.5624 26.6207 27.5934 26.5847 27.6244C26.5282 27.6733 26.4714 27.7221 26.4143 27.7701C26.3758 27.8024 26.3371 27.8345 26.2982 27.8664C26.2419 27.9127 26.1853 27.9585 26.1284 28.0039C26.0893 28.0351 26.0502 28.0661 26.011 28.0969C25.9513 28.1435 25.8912 28.1893 25.8308 28.2349C25.7941 28.2627 25.7575 28.2908 25.7205 28.3182C25.6465 28.3729 25.572 28.4267 25.4971 28.48C25.4733 28.497 25.4498 28.5145 25.4258 28.5313C25.3284 28.5999 25.23 28.6671 25.131 28.7331C25.097 28.7558 25.0625 28.7777 25.0284 28.8001C24.9613 28.844 24.8941 28.8878 24.8264 28.9306C24.7851 28.9566 24.7435 28.9821 24.702 29.0078C24.6402 29.046 24.5783 29.0839 24.516 29.1211C24.4723 29.1472 24.4286 29.173 24.3847 29.1985C24.3229 29.2346 24.2608 29.2701 24.1984 29.3053C24.1547 29.3299 24.111 29.3546 24.067 29.3787C24.0013 29.4149 23.935 29.4503 23.8687 29.4854C23.8282 29.5069 23.7877 29.5288 23.747 29.5499C23.6617 29.5941 23.5758 29.6372 23.4897 29.6797C23.4677 29.6905 23.446 29.7019 23.4241 29.7126C23.3175 29.7645 23.2102 29.8149 23.1024 29.8643C23.0634 29.8821 23.0241 29.8991 22.9849 29.9166C22.9138 29.9483 22.8426 29.98 22.771 30.0105C22.7256 30.03 22.6799 30.0488 22.6342 30.0679C22.5677 30.0955 22.5011 30.1229 22.4341 30.1495C22.387 30.1683 22.3397 30.1868 22.2923 30.2052C22.2253 30.2311 22.1581 30.2564 22.0907 30.2813C22.044 30.2986 21.9974 30.3159 21.9506 30.3327C21.8784 30.3586 21.8058 30.3835 21.7332 30.4083C21.6914 30.4226 21.6497 30.4372 21.6077 30.4511C21.5062 30.4846 21.4042 30.517 21.302 30.5482C21.2816 30.5545 21.2613 30.5608 21.2409 30.567C21.1338 30.5992 21.0264 30.6303 20.9187 30.6601C20.8767 30.6717 20.8345 30.6824 20.7925 30.6937C20.7173 30.7138 20.6419 30.7336 20.5664 30.7525C20.5187 30.7645 20.4708 30.7758 20.4229 30.7873C20.352 30.8043 20.2809 30.8209 20.2096 30.8368C20.1604 30.8479 20.1112 30.8586 20.0619 30.869C19.99 30.8843 19.9179 30.8989 19.8459 30.9132C19.842 30.914 19.8381 30.9146 19.8343 30.9154C19.7864 30.9247 19.7385 30.9344 19.6905 30.9432C19.6292 30.9546 19.5675 30.9651 19.5059 30.9757C19.4252 30.9895 19.3446 31.0031 19.2637 31.0155C19.2254 31.0215 19.1872 31.027 19.1488 31.0326C19.047 31.0475 18.9452 31.0616 18.843 31.0744C18.8197 31.0773 18.7963 31.0801 18.773 31.0829C18.6593 31.0966 18.5456 31.1091 18.4316 31.1201C18.4144 31.1218 18.3973 31.1233 18.3801 31.125C18.2637 31.1358 18.1471 31.1454 18.0304 31.1535C18.0145 31.1546 17.9985 31.1557 17.9826 31.1567L17.9808 22.4355C21.5661 22.6771 24.939 24.2308 27.4569 26.8036C27.4023 26.8599 27.3472 26.9152 27.2916 26.9701ZM31.6249 16.5783C31.6261 19.7385 30.6046 22.8014 28.7301 25.3159C25.8588 22.4425 22.0357 20.7205 17.9803 20.4797L17.9797 17.5487L26.3493 17.5521C26.8884 17.5521 27.326 17.115 27.3262 16.5759C27.3264 16.0365 26.8893 15.5992 26.35 15.5989L17.9793 15.5956L17.9788 12.6646C22.0711 12.4253 25.9253 10.6846 28.8074 7.77822C30.6293 10.0029 31.6236 13.0848 31.6249 16.5783ZM18.3683 2.02256C18.3899 2.02529 18.4116 2.02822 18.4334 2.03057C18.5504 2.04307 18.6668 2.05684 18.7825 2.07227C18.8278 2.07832 18.8727 2.08525 18.9178 2.0917C19.01 2.10498 19.1019 2.11875 19.1931 2.13379C19.2424 2.14189 19.2915 2.15049 19.3404 2.15908C19.4282 2.17451 19.5156 2.19082 19.6025 2.20791C19.65 2.21729 19.6977 2.22656 19.7451 2.23633C19.8376 2.25557 19.9294 2.27588 20.021 2.29688C20.0604 2.30586 20.1 2.31445 20.1392 2.32373C20.3998 2.38584 20.656 2.45479 20.9078 2.53018C20.9448 2.54121 20.9813 2.55303 21.0181 2.56436C21.1068 2.5917 21.1951 2.61953 21.2827 2.64834C21.3264 2.66279 21.3699 2.67764 21.4134 2.69248C21.4942 2.72002 21.5746 2.74805 21.6544 2.77676C21.6983 2.79258 21.742 2.8084 21.7856 2.82451C21.8672 2.85479 21.9482 2.88584 22.0288 2.91738C22.0677 2.93262 22.107 2.94756 22.1457 2.96318C22.244 3.00264 22.3415 3.04307 22.4382 3.08428C22.4576 3.09248 22.4772 3.10029 22.4964 3.10859C22.613 3.15879 22.7285 3.21035 22.8429 3.26299C22.8714 3.27607 22.8994 3.28975 22.9277 3.30293C23.0125 3.34268 23.0971 3.38271 23.1807 3.42363C23.2197 3.44268 23.2582 3.46211 23.2968 3.48145C23.3698 3.51787 23.4423 3.55469 23.5143 3.59199C23.5545 3.61289 23.5947 3.63389 23.6346 3.65508C23.7058 3.69277 23.7764 3.73096 23.8466 3.76953C23.8841 3.79004 23.9216 3.81055 23.9588 3.83125C24.0371 3.875 24.1145 3.91943 24.1916 3.96406C24.2188 3.97988 24.2465 3.99541 24.2737 4.01133C24.3774 4.07227 24.4799 4.13389 24.5813 4.19639C24.6 4.20781 24.618 4.21963 24.6366 4.23105C24.7189 4.28223 24.8006 4.33369 24.8814 4.38574C24.9155 4.40771 24.949 4.42988 24.9828 4.45195C25.0477 4.49443 25.1124 4.53711 25.1763 4.58018C25.2126 4.60459 25.2487 4.6291 25.2845 4.65371C25.346 4.6957 25.407 4.73799 25.4674 4.78037C25.5023 4.80479 25.5372 4.8292 25.5716 4.85381C25.6356 4.89932 25.6987 4.94512 25.7615 4.99102C25.7905 5.01221 25.8199 5.0333 25.8486 5.05459C25.939 5.12148 26.0286 5.18877 26.1166 5.25635C26.1193 5.2584 26.1219 5.26045 26.1246 5.2625C26.2103 5.32842 26.2948 5.39463 26.3782 5.46094C26.4065 5.4835 26.4342 5.50605 26.4624 5.52871C26.5199 5.5749 26.5771 5.62119 26.6334 5.66758C26.6651 5.69365 26.6964 5.71973 26.7278 5.7459C26.7803 5.78965 26.8323 5.8334 26.8838 5.87715C26.9148 5.90342 26.9456 5.92969 26.9761 5.95605C27.0288 6.00137 27.0806 6.04658 27.1322 6.09189C27.1595 6.11602 27.1873 6.14004 27.2143 6.16406C27.2776 6.22031 27.34 6.27646 27.4016 6.33262C27.4153 6.34512 27.4294 6.35762 27.4431 6.37002C27.4453 6.37197 27.4472 6.37383 27.4494 6.37578C24.9298 8.93047 21.5618 10.4709 17.9787 10.7082L17.9769 1.98906C18.1082 1.99863 18.2388 2.00938 18.3683 2.02256ZM16.1078 33.1189C16.1108 33.1191 16.1139 33.1191 16.1169 33.1193C16.2517 33.1265 16.3866 33.132 16.5214 33.1358C16.533 33.1361 16.5445 33.1369 16.5561 33.1372C16.5589 33.1373 16.5619 33.1372 16.5647 33.1373C16.7041 33.1409 16.8434 33.1431 16.9829 33.1432C16.9905 33.1432 16.998 33.1435 17.0056 33.1435C17.008 33.1435 17.0105 33.1435 17.0127 33.1435C17.0816 33.1435 17.1501 33.1415 17.2189 33.1406C17.2736 33.1398 17.3284 33.1396 17.3831 33.1384C17.4817 33.1361 17.5801 33.1325 17.6785 33.1285C17.7101 33.1272 17.7417 33.1262 17.7734 33.1247C17.8806 33.1198 17.9875 33.1137 18.0945 33.1067C18.1149 33.1054 18.1353 33.104 18.1557 33.1026C18.2706 33.0947 18.3851 33.0858 18.4995 33.0756C18.5061 33.075 18.5127 33.0743 18.5193 33.0737C18.9094 33.0383 19.2972 32.9904 19.6817 32.9279C19.7422 32.9181 19.8023 32.9064 19.8626 32.896C19.9309 32.8842 19.9992 32.8726 20.0672 32.8599C20.1147 32.851 20.162 32.8415 20.2093 32.8322C20.314 32.8119 20.4184 32.7906 20.5226 32.7683C20.5323 32.7662 20.5421 32.7645 20.5518 32.7623C20.5614 32.7603 20.5708 32.7578 20.5803 32.7557C21.0133 32.6612 21.4422 32.5507 21.8649 32.4223L22.7625 39.6532H11.2374L12.1358 32.4155C13.2715 32.7636 14.4399 32.9869 15.6239 33.0851C15.6365 33.0861 15.6491 33.0876 15.6617 33.0887C15.6696 33.0894 15.6775 33.0896 15.6853 33.0902C15.7346 33.0941 15.7837 33.0992 15.8331 33.1027C15.9188 33.1087 16.0047 33.1131 16.0906 33.1178C16.0963 33.1181 16.1021 33.1187 16.1078 33.1189ZM6.71382 6.16855C6.73355 6.14912 6.75288 6.1292 6.77271 6.10977C6.85991 6.02451 6.94819 5.94053 7.03745 5.85772C7.06284 5.83408 7.08882 5.81113 7.11441 5.7877C7.17896 5.72861 7.2437 5.66982 7.30913 5.61201C7.3439 5.58125 7.37915 5.55107 7.41421 5.5207C7.47163 5.471 7.52925 5.42148 7.58745 5.37275C7.62534 5.34092 7.66353 5.30938 7.70171 5.27803C7.75864 5.23125 7.81587 5.18496 7.87339 5.13916C7.91206 5.1083 7.95073 5.07754 7.9897 5.04707C8.04946 5.00039 8.10982 4.95449 8.17026 4.90879C8.20708 4.88096 8.2438 4.85283 8.28081 4.82529C8.35405 4.771 8.42808 4.71777 8.5022 4.66494C8.52681 4.64746 8.55103 4.62939 8.57573 4.61201C8.673 4.54365 8.77105 4.47666 8.86978 4.41074C8.90493 4.3873 8.94058 4.36465 8.97593 4.3415C9.04185 4.29834 9.10777 4.25547 9.17427 4.21338C9.21655 4.18672 9.25913 4.16064 9.30161 4.13437C9.36236 4.09687 9.42319 4.05967 9.48442 4.02314C9.52905 3.99648 9.57388 3.97012 9.6188 3.94395C9.67944 3.90859 9.74028 3.87383 9.80142 3.83936C9.84634 3.81406 9.89116 3.78867 9.93638 3.76387C10.0005 3.72861 10.0652 3.69404 10.1299 3.65977C10.172 3.6374 10.2139 3.61475 10.2562 3.59287C10.3378 3.55059 10.4201 3.50947 10.5025 3.46875C10.5283 3.45605 10.5538 3.44277 10.5795 3.43018C10.6853 3.37861 10.7918 3.32861 10.8989 3.27969C10.9401 3.26084 10.9817 3.24287 11.0231 3.22432C11.0919 3.19355 11.161 3.16299 11.2303 3.1333C11.2772 3.11328 11.3244 3.09375 11.3714 3.07422C11.4364 3.04727 11.5015 3.02061 11.5668 2.99453C11.6154 2.9752 11.664 2.95615 11.7127 2.9373C11.7783 2.91201 11.844 2.8873 11.9099 2.86289C11.9579 2.84521 12.0057 2.82734 12.0539 2.81016C12.1247 2.78486 12.1959 2.76035 12.267 2.73613C12.3102 2.72139 12.3533 2.70625 12.3966 2.69199C12.4954 2.65938 12.5945 2.62803 12.6939 2.59756C12.72 2.58955 12.746 2.58154 12.7721 2.57363C12.876 2.54238 12.9803 2.51221 13.085 2.4833C13.1272 2.47158 13.1697 2.46074 13.2121 2.44941C13.2872 2.42939 13.3624 2.40957 13.4378 2.39072C13.4854 2.37881 13.5332 2.36748 13.5809 2.35605C13.6523 2.33896 13.7238 2.32236 13.7955 2.30635C13.8442 2.29551 13.893 2.28477 13.9418 2.27441C14.0145 2.25898 14.0874 2.24424 14.1603 2.22988C14.2073 2.22061 14.2542 2.21123 14.3013 2.20244C14.3816 2.1875 14.4621 2.17354 14.5426 2.15986C14.5824 2.15313 14.622 2.1459 14.6619 2.13955C14.7816 2.12031 14.9016 2.10225 15.022 2.08594C15.0349 2.08418 15.0478 2.08281 15.0607 2.08115C15.1692 2.0668 15.2779 2.05352 15.3869 2.0415C15.4278 2.03701 15.4688 2.0333 15.5097 2.0291C15.5912 2.0208 15.6727 2.01289 15.7544 2.00596C15.8011 2.00205 15.8479 1.99854 15.8947 1.99502C15.9375 1.9918 15.9805 1.98916 16.0234 1.98633L16.0227 6.32266L16.022 10.7077C12.4366 10.4665 9.06235 8.9124 6.5437 6.33955C6.59985 6.28213 6.65659 6.225 6.71382 6.16855ZM5.27017 7.82764C8.14312 10.7023 11.9686 12.4246 16.0257 12.6643L16.0263 15.5948L2.40757 15.5894C2.59419 12.7779 3.58921 10.0823 5.27017 7.82764ZM5.27808 25.3068C3.59507 23.0506 2.59751 20.3542 2.40835 17.5426L16.0267 17.548L16.0273 20.4788C11.9715 20.7159 8.14829 22.4352 5.27808 25.3068ZM10.1549 29.4861C10.0837 29.4484 10.0128 29.4105 9.94224 29.3716C9.90122 29.349 9.8605 29.326 9.81978 29.3029C9.75425 29.266 9.68901 29.2286 9.62398 29.1907C9.58247 29.1665 9.54107 29.142 9.49976 29.1174C9.43462 29.0785 9.36987 29.0389 9.30532 28.9989C9.26616 28.9747 9.227 28.9507 9.18804 28.9261C9.11704 28.8812 9.04653 28.8354 8.97632 28.7893C8.94507 28.7687 8.91353 28.7487 8.88247 28.7279C8.78218 28.661 8.68267 28.593 8.58394 28.5235C8.56597 28.5108 8.54829 28.4977 8.53032 28.485C8.44937 28.4274 8.3688 28.3693 8.28892 28.3101C8.25396 28.2842 8.21948 28.2576 8.18482 28.2313C8.12222 28.1841 8.05972 28.1364 7.9978 28.0881C7.96001 28.0585 7.92241 28.0286 7.88491 27.9986C7.82632 27.9519 7.76792 27.9047 7.71001 27.857C7.67241 27.8261 7.63482 27.795 7.59741 27.7637C7.53902 27.7145 7.48101 27.6648 7.42329 27.6148C7.38823 27.5845 7.35308 27.5543 7.31831 27.5235C7.25337 27.4662 7.18921 27.4079 7.12525 27.3493C7.09888 27.3252 7.07222 27.3015 7.04595 27.2771C6.95698 27.1944 6.8689 27.1106 6.78179 27.0256C6.76109 27.0054 6.74097 26.9847 6.72036 26.9643C6.66362 26.9082 6.60728 26.8516 6.55142 26.7944C9.06802 24.2239 12.4404 22.6729 16.0257 22.4349L16.0273 26.4519L16.0291 31.1562C15.988 31.1534 15.9469 31.1509 15.9059 31.1478C15.877 31.1456 15.8482 31.1433 15.8193 31.1409C15.7678 31.1367 15.7164 31.1318 15.6649 31.1271C15.6172 31.1228 15.5696 31.1185 15.522 31.1136C15.4804 31.1093 15.4387 31.1055 15.3972 31.1009C15.2977 31.0898 15.1984 31.0775 15.0993 31.0645C15.0741 31.0611 15.0488 31.0582 15.0236 31.0548C14.9055 31.0387 14.7877 31.021 14.6703 31.002C14.6349 30.9962 14.5999 30.9897 14.5645 30.9838C14.4792 30.9693 14.3942 30.9546 14.3093 30.9387C14.265 30.9304 14.2209 30.9215 14.1766 30.9128C14.1005 30.8978 14.0245 30.8823 13.9487 30.8661C13.9025 30.8563 13.8564 30.8461 13.8103 30.8358C13.7353 30.819 13.6606 30.8017 13.586 30.7837C13.5414 30.7729 13.4966 30.7623 13.4522 30.7512C13.3723 30.7312 13.2928 30.7102 13.2133 30.6889C13.1752 30.6786 13.1371 30.6688 13.0992 30.6583C12.9884 30.6276 12.8782 30.5958 12.7683 30.5625C12.7622 30.5606 12.7558 30.559 12.7497 30.557C12.6337 30.5218 12.5183 30.4849 12.4034 30.4468C12.3671 30.4348 12.3311 30.422 12.2949 30.4097C12.2162 30.3829 12.1375 30.3558 12.0592 30.3276C12.0163 30.3122 11.9736 30.2963 11.9308 30.2805C11.8591 30.254 11.7876 30.2271 11.7165 30.1994C11.6724 30.1823 11.6285 30.165 11.5846 30.1476C11.5136 30.1192 11.443 30.0902 11.3725 30.0608C11.3304 30.0433 11.2882 30.0259 11.2463 30.0079C11.1702 29.9753 11.0945 29.9417 11.0188 29.9078C10.9837 29.8921 10.9485 29.8769 10.9136 29.8608C10.804 29.8106 10.6948 29.7593 10.5864 29.7064C10.5776 29.7021 10.5689 29.6976 10.5601 29.6933C10.4607 29.6446 10.3615 29.5945 10.2628 29.5434C10.2267 29.5246 10.1909 29.5052 10.1549 29.4861ZM5.04341 48.0469L5.04331 45.8888H23.0667C23.606 45.8888 24.0433 45.4516 24.0433 44.9122C24.0433 44.3729 23.606 43.9356 23.0667 43.9356H5.04321L5.04312 41.6064H10.1321H23.8682H28.9568L28.9572 48.0469H5.04341Z" fill="#146EB4"/>
</svg>
