<svg width="34" height="34" viewBox="0 0 34 34" fill="none" xmlns="http://www.w3.org/2000/svg">
<path d="M1.00049 33H0.500488C0.500488 33.2761 0.724346 33.5 1.00049 33.5V33ZM1.00049 27.0923L0.654877 26.731C0.556264 26.8253 0.500488 26.9558 0.500488 27.0923H1.00049ZM12.3236 16.2615L12.6692 16.6229C12.838 16.4614 12.8725 16.2046 12.7523 16.0043L12.3236 16.2615ZM7.8928 8.87692L7.62327 8.45579C7.39542 8.60161 7.32487 8.9022 7.46405 9.13417L7.8928 8.87692ZM20.2005 1L20.554 0.646447C20.388 0.480394 20.1288 0.452277 19.931 0.578864L20.2005 1ZM33.0005 13.8L33.4165 14.0774C33.5487 13.879 33.5226 13.615 33.354 13.4464L33.0005 13.8ZM25.1236 25.6154L24.8755 26.0495C25.1037 26.1799 25.3938 26.1114 25.5396 25.8927L25.1236 25.6154ZM18.2313 21.6769L18.4793 21.2428C18.292 21.1358 18.0571 21.1609 17.8968 21.3053L18.2313 21.6769ZM13.3082 26.1077V26.6077C13.4317 26.6077 13.5509 26.562 13.6427 26.4793L13.3082 26.1077ZM9.86203 26.1077V25.6077H9.36203V26.1077H9.86203ZM9.86203 29.5538V30.0538H10.362V29.5538H9.86203ZM6.90818 29.5538V29.0538H6.40818V29.5538H6.90818ZM6.90818 33V33.5H7.40818V33H6.90818ZM7.73963 24.9982C7.94254 24.8109 7.95519 24.4945 7.76789 24.2916C7.58059 24.0887 7.26426 24.0761 7.06135 24.2634L7.73963 24.9982ZM8.52386 22.8003C8.3286 22.9956 8.3286 23.3121 8.52386 23.5074C8.71912 23.7027 9.0357 23.7027 9.23096 23.5074L8.52386 22.8003ZM11.2002 21.5382C11.3955 21.3429 11.3955 21.0263 11.2002 20.8311C11.0049 20.6358 10.6884 20.6358 10.4931 20.8311L11.2002 21.5382ZM13.6845 9.03993C13.5026 8.83211 13.1867 8.81105 12.9789 8.99289C12.7711 9.17473 12.75 9.49062 12.9319 9.69843L13.6845 9.03993ZM23.2703 21.5138C23.4522 21.7216 23.7681 21.7427 23.9759 21.5609C24.1837 21.379 24.2048 21.0631 24.0229 20.8553L23.2703 21.5138ZM20.9886 6.01075L21.3403 5.6553C21.2414 5.55752 21.1064 5.5053 20.9674 5.5112L20.9886 6.01075ZM27.675 12.6256L28.1746 12.6044C28.1692 12.4783 28.1164 12.3589 28.0267 12.2701L27.675 12.6256ZM27.7168 13.6093L28.085 13.9476C28.1747 13.8499 28.2219 13.7206 28.2163 13.5881L27.7168 13.6093ZM26.3038 15.1475L26.325 15.6471C26.4574 15.6414 26.5823 15.5834 26.672 15.4858L26.3038 15.1475ZM25.32 15.1893L25.0732 15.6241C25.1547 15.6704 25.2476 15.6928 25.3412 15.6888L25.32 15.1893ZM21.2808 12.8969L20.8434 13.1392C20.888 13.2197 20.954 13.2863 21.034 13.3317L21.2808 12.8969ZM18.6128 8.08254L18.1132 8.10374C18.1165 8.18129 18.1378 8.25701 18.1754 8.32491L18.6128 8.08254ZM18.571 7.09881L18.2763 6.69492C18.1413 6.79346 18.0644 6.95298 18.0715 7.12001L18.571 7.09881ZM20.0049 6.05248L19.9837 5.55293C19.8851 5.55712 19.7899 5.5904 19.7102 5.64859L20.0049 6.05248ZM1.50049 33V27.0923H0.500488V33H1.50049ZM1.3461 27.4536L12.6692 16.6229L11.978 15.9002L0.654877 26.731L1.3461 27.4536ZM12.7523 16.0043L8.32154 8.61968L7.46405 9.13417L11.8948 16.5188L12.7523 16.0043ZM8.16232 9.29806L20.47 1.42114L19.931 0.578864L7.62327 8.45579L8.16232 9.29806ZM19.8469 1.35355L32.6469 14.1536L33.354 13.4464L20.554 0.646447L19.8469 1.35355ZM32.5845 13.5226L24.7075 25.338L25.5396 25.8927L33.4165 14.0774L32.5845 13.5226ZM25.3716 25.1813L18.4793 21.2428L17.9832 22.111L24.8755 26.0495L25.3716 25.1813ZM17.8968 21.3053L12.9737 25.736L13.6427 26.4793L18.5657 22.0486L17.8968 21.3053ZM13.3082 25.6077H9.86203V26.6077H13.3082V25.6077ZM9.36203 26.1077V29.5538H10.362V26.1077H9.36203ZM9.86203 29.0538H6.90818V30.0538H9.86203V29.0538ZM6.40818 29.5538V33H7.40818V29.5538H6.40818ZM6.90818 32.5H1.00049V33.5H6.90818V32.5ZM1.33963 30.9059L7.73963 24.9982L7.06135 24.2634L0.661348 30.1711L1.33963 30.9059ZM9.23096 23.5074L11.2002 21.5382L10.4931 20.8311L8.52386 22.8003L9.23096 23.5074ZM12.9319 9.69843L23.2703 21.5138L24.0229 20.8553L13.6845 9.03993L12.9319 9.69843ZM20.637 6.3662L27.3234 12.981L28.0267 12.2701L21.3403 5.6553L20.637 6.3662ZM27.1755 12.6468L27.2172 13.6305L28.2163 13.5881L28.1746 12.6044L27.1755 12.6468ZM27.3485 13.2711L25.9355 14.8093L26.672 15.4858L28.085 13.9476L27.3485 13.2711ZM26.2826 14.648L25.2988 14.6897L25.3412 15.6888L26.325 15.6471L26.2826 14.648ZM25.5668 14.7544L21.5276 12.462L21.034 13.3317L25.0732 15.6241L25.5668 14.7544ZM21.7181 12.6545L19.0501 7.84018L18.1754 8.32491L20.8434 13.1392L21.7181 12.6545ZM19.1123 8.06135L19.0706 7.07762L18.0715 7.12001L18.1132 8.10374L19.1123 8.06135ZM18.8658 7.50271L20.2996 6.45638L19.7102 5.64859L18.2763 6.69492L18.8658 7.50271ZM20.0261 6.55203L21.0098 6.5103L20.9674 5.5112L19.9837 5.55293L20.0261 6.55203Z" fill="#146EB4"/>
</svg>
