<svg width="40" height="40" viewBox="0 0 40 40" fill="none" xmlns="http://www.w3.org/2000/svg">
<path d="M33.9907 11.5869C26.2272 7.08997 22.994 14.4581 22.994 18.1738C16.9958 14.931 14.4965 20.5383 13.9967 23.7473L7.99849 14.627L7.49864 12.6002L7.99849 11.0802H8.99819V12.6002L10.4977 13.1069L11.9973 12.6002L13.4968 11.0802L13.9967 9.56015V8.0401L12.997 6.52005L11.4974 5.50668L9.99789 5L7.99849 5.50668L5.9991 6.52005L3.49985 9.56015L3 11.0802V15.6403L3.9997 22.2272L6.49894 28.8141L11.9973 33.8809C13.9967 35.9077 20.4947 34.7254 23.4938 33.8809C30.2918 32.2595 31.3248 26.7873 30.9916 24.2539C33.9907 24.2539 40.9885 15.6404 33.9907 11.5869Z" stroke="#FF0303" stroke-linejoin="round"/>
<path d="M33.9907 11.5869C26.2272 7.08997 22.994 14.4581 22.994 18.1738C16.9958 14.931 14.4965 20.5383 13.9967 23.7473L7.99849 14.627L7.49864 12.6002L7.99849 11.0802H8.99819V12.6002L10.4977 13.1069L11.9973 12.6002L13.4968 11.0802L13.9967 9.56015V8.0401L12.997 6.52005L11.4974 5.50668L9.99789 5L7.99849 5.50668L5.9991 6.52005L3.49985 9.56015L3 11.0802V15.6403L3.9997 22.2272L6.49894 28.8141L11.9973 33.8809C13.9967 35.9077 20.4947 34.7254 23.4938 33.8809C30.2918 32.2595 31.3248 26.7873 30.9916 24.2539C33.9907 24.2539 40.9885 15.6404 33.9907 11.5869Z" stroke="black" stroke-opacity="0.2" stroke-linejoin="round"/>
</svg>
