<svg width="36" height="50" viewBox="0 0 36 50" fill="none" xmlns="http://www.w3.org/2000/svg">
<path d="M9.37081 0.647705C9.37081 2.87931 13.2385 6.55516 18.0092 6.55516C22.7799 6.55516 26.6476 2.87931 26.6476 0.647705L29.4026 8.13254L22.2016 21.5973L9.39942 18.6195L7.26318 2.69468L9.37081 0.647705Z" fill="#EEF0F2"/>
<path d="M34.9486 26.3882V47.3412C34.9486 47.3412 27.6576 49.1574 18.0094 49.1574C15.8904 49.1574 13.8846 49.0701 12.0455 48.9327H12.0425C5.50826 48.4471 1.06909 47.3412 1.06909 47.3412V26.3882C6.65268 22.4617 5.78063 4.77752 5.78063 0.647339H9.37103C9.37103 0.647339 7.91267 14.8903 18.0094 14.8903C28.1054 14.8903 26.6471 0.647339 26.6471 0.647339H30.2375C30.2375 4.77752 29.3654 22.4617 34.9486 26.3882Z" fill="white"/>
<path d="M12.0425 48.9327C5.50826 48.4471 1.06909 47.3412 1.06909 47.3412V26.3882C6.65267 22.4617 5.78063 4.77752 5.78063 0.647339H7.78145C7.78145 4.50706 8.55736 18.8782 6.22772 23.6691C3.89693 28.4596 3.48533 48.0447 12.0425 48.9327Z" fill="#EEF0F2"/>
<path d="M6.54333 2.17667C6.53914 1.89591 6.53494 1.63308 6.53189 1.39275H8.57504C8.53919 2.21024 8.52469 3.56408 8.68949 5.12544C9.04959 8.54151 10.0578 11.1878 11.6852 12.9906C13.2698 14.7457 15.3976 15.6353 18.0096 15.6353C20.6211 15.6353 22.7486 14.7457 24.3328 12.991C27.4945 9.48908 27.5452 3.56637 27.4445 1.39275H29.4865C29.4834 1.63269 29.4792 1.89591 29.475 2.17629C29.4487 3.88299 29.4125 6.22026 29.488 8.86614C29.4998 9.27736 29.8455 9.60238 30.254 9.58979C30.6656 9.57796 30.9895 9.23502 30.9777 8.82379C30.9029 6.21034 30.9388 3.89253 30.9651 2.19956C30.9746 1.58272 30.983 1.04981 30.983 0.647356C30.983 0.23613 30.6492 -0.0976562 30.2376 -0.0976562H26.6472C26.4366 -0.0976562 26.2356 -0.0083922 26.0945 0.148011C25.9697 0.285722 25.9022 0.464631 25.9026 0.648881C25.9011 2.37084 22.4892 5.8098 18.0092 5.8098C13.53 5.8098 10.1185 2.37198 10.1162 0.649645C10.1166 0.465394 10.049 0.286485 9.92431 0.148392C9.78278 -0.0083922 9.58213 -0.0976562 9.37117 -0.0976562H5.78077C5.36917 -0.0976562 5.03538 0.23613 5.03538 0.647356C5.03538 1.04981 5.04377 1.58272 5.05331 2.19956C5.09947 5.20784 5.17729 10.2429 4.62034 15.0688C3.96078 20.7821 2.62182 24.3855 0.640839 25.7786C0.442093 25.9183 0.324219 26.1456 0.324219 26.3882V47.3413C0.324219 47.6834 0.557297 47.9817 0.889177 48.0641C0.95746 48.0813 2.59359 48.4857 5.34857 48.916C5.38748 48.9221 5.42639 48.9251 5.46453 48.9251C5.82502 48.9251 6.14241 48.6623 6.19963 48.2949C6.26333 47.8883 5.98524 47.5072 5.57859 47.4435C3.81734 47.1684 2.50966 46.9007 1.81424 46.7477V26.7571C6.85843 22.633 6.63832 8.34772 6.54333 2.17667ZM11.4475 5.02969C13.3583 6.49377 15.6887 7.3002 18.0092 7.3002C20.3297 7.3002 22.6601 6.49377 24.5705 5.02969C25.0885 4.63258 25.5478 4.20495 25.9377 3.76435C25.8049 6.27557 25.2304 9.77556 23.2243 11.995C21.9349 13.4217 20.1801 14.1453 18.0096 14.1453C15.8386 14.1453 14.0839 13.4217 12.7941 11.9946C10.788 9.77518 10.2135 6.27519 10.0807 3.76435C10.4706 4.20495 10.9299 4.63258 11.4475 5.02969Z" fill="#FF0303"/>
<path d="M6.54333 2.17667C6.53914 1.89591 6.53494 1.63308 6.53189 1.39275H8.57504C8.53919 2.21024 8.52469 3.56408 8.68949 5.12544C9.04959 8.54151 10.0578 11.1878 11.6852 12.9906C13.2698 14.7457 15.3976 15.6353 18.0096 15.6353C20.6211 15.6353 22.7486 14.7457 24.3328 12.991C27.4945 9.48908 27.5452 3.56637 27.4445 1.39275H29.4865C29.4834 1.63269 29.4792 1.89591 29.475 2.17629C29.4487 3.88299 29.4125 6.22026 29.488 8.86614C29.4998 9.27736 29.8455 9.60238 30.254 9.58979C30.6656 9.57796 30.9895 9.23502 30.9777 8.82379C30.9029 6.21034 30.9388 3.89253 30.9651 2.19956C30.9746 1.58272 30.983 1.04981 30.983 0.647356C30.983 0.23613 30.6492 -0.0976562 30.2376 -0.0976562H26.6472C26.4366 -0.0976562 26.2356 -0.0083922 26.0945 0.148011C25.9697 0.285722 25.9022 0.464631 25.9026 0.648881C25.9011 2.37084 22.4892 5.8098 18.0092 5.8098C13.53 5.8098 10.1185 2.37198 10.1162 0.649645C10.1166 0.465394 10.049 0.286485 9.92431 0.148392C9.78278 -0.0083922 9.58213 -0.0976562 9.37117 -0.0976562H5.78077C5.36917 -0.0976562 5.03538 0.23613 5.03538 0.647356C5.03538 1.04981 5.04377 1.58272 5.05331 2.19956C5.09947 5.20784 5.17729 10.2429 4.62034 15.0688C3.96078 20.7821 2.62182 24.3855 0.640839 25.7786C0.442093 25.9183 0.324219 26.1456 0.324219 26.3882V47.3413C0.324219 47.6834 0.557297 47.9817 0.889177 48.0641C0.95746 48.0813 2.59359 48.4857 5.34857 48.916C5.38748 48.9221 5.42639 48.9251 5.46453 48.9251C5.82502 48.9251 6.14241 48.6623 6.19963 48.2949C6.26333 47.8883 5.98524 47.5072 5.57859 47.4435C3.81734 47.1684 2.50966 46.9007 1.81424 46.7477V26.7571C6.85843 22.633 6.63832 8.34772 6.54333 2.17667ZM11.4475 5.02969C13.3583 6.49377 15.6887 7.3002 18.0092 7.3002C20.3297 7.3002 22.6601 6.49377 24.5705 5.02969C25.0885 4.63258 25.5478 4.20495 25.9377 3.76435C25.8049 6.27557 25.2304 9.77556 23.2243 11.995C21.9349 13.4217 20.1801 14.1453 18.0096 14.1453C15.8386 14.1453 14.0839 13.4217 12.7941 11.9946C10.788 9.77518 10.2135 6.27519 10.0807 3.76435C10.4706 4.20495 10.9299 4.63258 11.4475 5.02969Z" fill="black" fill-opacity="0.2"/>
<path d="M35.3776 25.7786C32.4467 23.7179 31.4393 17.0269 31.1104 11.7767C31.0849 11.3659 30.7312 11.0546 30.3204 11.0798C29.9096 11.1054 29.5975 11.4594 29.6231 11.8698C30.1186 19.7773 31.6182 24.6559 34.2038 26.7579V46.7469C32.3216 47.1585 25.9358 48.412 18.0096 48.412C14.896 48.412 11.6978 48.2209 8.50373 47.844C8.09555 47.7963 7.72476 48.0882 7.67632 48.4967C7.62825 48.9053 7.92046 49.2757 8.32901 49.3237C11.5807 49.7079 14.8377 49.9024 18.0096 49.9024C27.6375 49.9024 35.0552 48.0824 35.1292 48.0641C35.4611 47.9813 35.6942 47.6834 35.6942 47.3412V26.3882C35.6942 26.1456 35.5759 25.9182 35.3776 25.7786Z" fill="#146EB4"/>
<rect x="1.80615" y="29.8435" width="32.4853" height="15.4599" rx="2" fill="white"/>
<mask id="mask0" mask-type="alpha" maskUnits="userSpaceOnUse" x="1" y="29" width="34" height="17">
<rect x="2.05615" y="30.0935" width="31.9853" height="14.9599" rx="1.75" fill="white" stroke="white" stroke-width="0.5"/>
</mask>
<g mask="url(#mask0)">
<path fill-rule="evenodd" clip-rule="evenodd" d="M1.80615 40.1501H34.2915V34.9968H1.80615V40.1501Z" fill="#146EB4"/>
<path fill-rule="evenodd" clip-rule="evenodd" d="M1.80615 45.3034H34.2915V40.1501H1.80615V45.3034Z" fill="#FF0303"/>
<path fill-rule="evenodd" clip-rule="evenodd" d="M1.80615 45.3034H34.2915V40.1501H1.80615V45.3034Z" fill="black" fill-opacity="0.2"/>
</g>
<path d="M6.69577 30.6832H6.0438V32.7003H4.83936V26.9864H6.80558C7.39808 26.9864 7.86133 27.1369 8.19532 27.4377C8.52932 27.7386 8.69631 28.1638 8.69631 28.7132C8.69631 29.1108 8.6254 29.4405 8.48356 29.7021C8.34402 29.9637 8.1244 30.1756 7.82472 30.3379L8.86789 32.6414V32.7003H7.57766L6.69577 30.6832ZM6.0438 29.6197H6.80558C7.03434 29.6197 7.20592 29.5517 7.3203 29.4156C7.43697 29.277 7.4953 29.0847 7.4953 28.8387C7.4953 28.5928 7.43697 28.4005 7.3203 28.2619C7.20363 28.1206 7.03206 28.0499 6.80558 28.0499H6.0438V29.6197Z" fill="#202A25"/>
<path d="M13.6939 26.9864V30.7264C13.6939 31.1502 13.615 31.5178 13.4571 31.8291C13.2993 32.1378 13.0728 32.3733 12.7777 32.5355C12.4826 32.6977 12.1337 32.7788 11.7311 32.7788C11.1226 32.7788 10.6433 32.5983 10.2933 32.2372C9.9433 31.8762 9.76487 31.3817 9.75801 30.7538V26.9864H10.9693V30.7813C10.983 31.4066 11.237 31.7192 11.7311 31.7192C11.9804 31.7192 12.1692 31.6407 12.2973 31.4838C12.4254 31.3268 12.4894 31.0717 12.4894 30.7185V26.9864H13.6939Z" fill="#202A25"/>
<path d="M17.3772 31.1816C17.3772 30.9801 17.3143 30.8232 17.1885 30.7107C17.0649 30.5982 16.8465 30.4817 16.5331 30.3614C16.2197 30.241 15.9635 30.1246 15.7644 30.0121C15.117 29.6485 14.7933 29.1488 14.7933 28.513C14.7933 28.1965 14.8734 27.9178 15.0335 27.6771C15.1959 27.4338 15.4247 27.2455 15.7198 27.112C16.0149 26.976 16.3466 26.908 16.7149 26.908C17.0741 26.908 17.3955 26.9812 17.6792 27.1277C17.9651 27.2742 18.187 27.4835 18.3449 27.7556C18.5027 28.0251 18.5817 28.3338 18.5817 28.6818H17.3806C17.3806 28.4489 17.3177 28.2684 17.1919 28.1402C17.0684 28.012 16.9002 27.9479 16.6875 27.9479C16.4725 27.9479 16.302 28.0029 16.1762 28.1127C16.0527 28.22 15.9909 28.3574 15.9909 28.5248C15.9909 28.6713 16.0595 28.8047 16.1968 28.9251C16.334 29.0428 16.5754 29.1658 16.9208 29.294C17.2663 29.4195 17.5499 29.5556 17.7718 29.7021C18.3117 30.0579 18.5817 30.5485 18.5817 31.1737C18.5817 31.6734 18.4169 32.0659 18.0875 32.351C17.7581 32.6362 17.3063 32.7788 16.7321 32.7788C16.3272 32.7788 15.96 32.6964 15.6306 32.5316C15.3035 32.3641 15.0564 32.1365 14.8894 31.8487C14.7247 31.5583 14.6423 31.2248 14.6423 30.848H15.8502C15.8502 31.1541 15.9188 31.3804 16.0561 31.5269C16.1956 31.6708 16.421 31.7428 16.7321 31.7428C16.9311 31.7428 17.0878 31.6944 17.2022 31.5976C17.3189 31.4982 17.3772 31.3595 17.3772 31.1816Z" fill="#202A25"/>
<path d="M22.1277 31.1816C22.1277 30.9801 22.0648 30.8232 21.939 30.7107C21.8155 30.5982 21.597 30.4817 21.2836 30.3614C20.9702 30.241 20.714 30.1246 20.5149 30.0121C19.8675 29.6485 19.5438 29.1488 19.5438 28.513C19.5438 28.1965 19.6239 27.9178 19.784 27.6771C19.9465 27.4338 20.1752 27.2455 20.4703 27.112C20.7654 26.976 21.0971 26.908 21.4655 26.908C21.8246 26.908 22.146 26.9812 22.4297 27.1277C22.7156 27.2742 22.9375 27.4835 23.0954 27.7556C23.2532 28.0251 23.3322 28.3338 23.3322 28.6818H22.1312C22.1312 28.4489 22.0682 28.2684 21.9424 28.1402C21.8189 28.012 21.6507 27.9479 21.438 27.9479C21.223 27.9479 21.0525 28.0029 20.9267 28.1127C20.8032 28.22 20.7414 28.3574 20.7414 28.5248C20.7414 28.6713 20.81 28.8047 20.9473 28.9251C21.0846 29.0428 21.3259 29.1658 21.6713 29.294C22.0168 29.4195 22.3004 29.5556 22.5223 29.7021C23.0622 30.0579 23.3322 30.5485 23.3322 31.1737C23.3322 31.6734 23.1675 32.0659 22.838 32.351C22.5086 32.6362 22.0568 32.7788 21.4826 32.7788C21.0777 32.7788 20.7105 32.6964 20.3811 32.5316C20.054 32.3641 19.8069 32.1365 19.6399 31.8487C19.4752 31.5583 19.3928 31.2248 19.3928 30.848H20.6007C20.6007 31.1541 20.6694 31.3804 20.8066 31.5269C20.9462 31.6708 21.1715 31.7428 21.4826 31.7428C21.6816 31.7428 21.8383 31.6944 21.9527 31.5976C22.0694 31.4982 22.1277 31.3595 22.1277 31.1816Z" fill="#202A25"/>
<path d="M25.5846 32.7003H24.3836V26.9864H25.5846V32.7003Z" fill="#202A25"/>
<path d="M29.6728 31.6329H28.0223L27.734 32.7003H26.4472L28.2796 26.9864H29.412L31.2581 32.7003H29.9645L29.6728 31.6329ZM28.3105 30.5694H29.3846L28.8458 28.5876L28.3105 30.5694Z" fill="#202A25"/>
<path d="M14.7017 37.6941V40.8813C14.7017 41.2425 14.6248 41.5558 14.471 41.8211C14.3171 42.0842 14.0964 42.2848 13.8088 42.4231C13.5212 42.5613 13.1812 42.6304 12.7887 42.6304C12.1957 42.6304 11.7286 42.4766 11.3874 42.1689C11.0463 41.8612 10.8724 41.4398 10.8657 40.9047V37.6941H12.0463V40.9281C12.0597 41.461 12.3072 41.7274 12.7887 41.7274C13.0318 41.7274 13.2157 41.6605 13.3406 41.5268C13.4654 41.393 13.5279 41.1756 13.5279 40.8746V37.6941H14.7017Z" fill="white"/>
<path d="M16.1267 39.6108C16.3051 39.6108 16.4534 39.6643 16.5715 39.7713C16.6897 39.8761 16.7488 40.011 16.7488 40.176C16.7488 40.341 16.6897 40.477 16.5715 40.584C16.4534 40.6888 16.3051 40.7412 16.1267 40.7412C15.9461 40.7412 15.7968 40.6877 15.6786 40.5807C15.5627 40.4737 15.5047 40.3388 15.5047 40.176C15.5047 40.0133 15.5627 39.8784 15.6786 39.7713C15.7968 39.6643 15.9461 39.6108 16.1267 39.6108Z" fill="white"/>
<path d="M20.0619 42.5635H18.9315V38.965L17.8212 39.2894V38.4332L19.9583 37.6941H20.0619V42.5635Z" fill="white"/>
<path d="M25.2571 38.2961L23.4378 42.5635H22.2472L24.0699 38.5636H21.7489V37.6941H25.2571V38.2961Z" fill="white"/>
</svg>
