<svg width="40" height="40" viewBox="0 0 40 40" fill="none" xmlns="http://www.w3.org/2000/svg">
<path d="M24.2302 8.72191C23.1793 10.7009 20.9827 11.5269 19.324 10.5669C17.6654 9.60682 17.1727 7.22426 18.2237 5.24526C19.2747 3.26627 21.4713 2.44025 23.1299 3.4003C24.7886 4.36035 25.2812 6.74291 24.2302 8.72191Z" stroke="#FF0303" stroke-linecap="round" stroke-linejoin="round"/>
<path d="M24.2302 8.72191C23.1793 10.7009 20.9827 11.5269 19.324 10.5669C17.6654 9.60682 17.1727 7.22426 18.2237 5.24526C19.2747 3.26627 21.4713 2.44025 23.1299 3.4003C24.7886 4.36035 25.2812 6.74291 24.2302 8.72191Z" stroke="black" stroke-opacity="0.2" stroke-linecap="round" stroke-linejoin="round"/>
<path d="M33 25.2207C33 26.9178 31.6822 28.2935 30.0566 28.2935C28.431 28.2935 27.1132 26.9178 27.1132 25.2207C27.1132 23.5236 28.431 22.1478 30.0566 22.1478C31.6822 22.1478 33 23.5236 33 25.2207Z" stroke="#FF0303" stroke-linecap="round" stroke-linejoin="round"/>
<path d="M33 25.2207C33 26.9178 31.6822 28.2935 30.0566 28.2935C28.431 28.2935 27.1132 26.9178 27.1132 25.2207C27.1132 23.5236 28.431 22.1478 30.0566 22.1478C31.6822 22.1478 33 23.5236 33 25.2207Z" stroke="black" stroke-opacity="0.2" stroke-linecap="round" stroke-linejoin="round"/>
<path d="M25.1509 17.5385L21.717 12.417L13.8679 11.9049L10.9245 13.4413L7.49057 18.0506L7 19.5871V21.1235L7.98113 22.1478H8.96226L9.9434 21.1235L12.8868 16.002L16.3208 15.4899L12.8868 22.1478V27.7814L12.3962 28.8057L7.98113 32.9028L7.49057 33.415L7 34.9514L7.49057 35.9757L8.4717 36.4879H9.45283L10.9245 35.9757L15.8302 31.3664L16.3208 29.83L16.8113 25.7328L17.3019 26.2449L19.7547 29.83L20.2453 34.9514L21.2264 36.4879L22.2075 37H23.1887L24.1698 36.4879L25.1509 34.9514L24.1698 28.8057L23.1887 27.2692L18.7736 22.6599V22.1478L21.2264 17.5385L23.1887 19.5871L25.1509 21.1235H30.0566L30.5472 20.6114L31.0377 19.5871L30.5472 18.5628L30.0566 18.0506H26.1321L25.1509 17.5385Z" stroke="#FF0303" stroke-linecap="round" stroke-linejoin="round"/>
<path d="M25.1509 17.5385L21.717 12.417L13.8679 11.9049L10.9245 13.4413L7.49057 18.0506L7 19.5871V21.1235L7.98113 22.1478H8.96226L9.9434 21.1235L12.8868 16.002L16.3208 15.4899L12.8868 22.1478V27.7814L12.3962 28.8057L7.98113 32.9028L7.49057 33.415L7 34.9514L7.49057 35.9757L8.4717 36.4879H9.45283L10.9245 35.9757L15.8302 31.3664L16.3208 29.83L16.8113 25.7328L17.3019 26.2449L19.7547 29.83L20.2453 34.9514L21.2264 36.4879L22.2075 37H23.1887L24.1698 36.4879L25.1509 34.9514L24.1698 28.8057L23.1887 27.2692L18.7736 22.6599V22.1478L21.2264 17.5385L23.1887 19.5871L25.1509 21.1235H30.0566L30.5472 20.6114L31.0377 19.5871L30.5472 18.5628L30.0566 18.0506H26.1321L25.1509 17.5385Z" stroke="black" stroke-opacity="0.2" stroke-linecap="round" stroke-linejoin="round"/>
</svg>
