<svg width="50" height="50" viewBox="0 0 50 50" fill="none" xmlns="http://www.w3.org/2000/svg">
<g clip-path="url(#clip0)">
<path d="M45.9232 21.5119C41.206 14.2296 47.2601 7.50163 47.5209 7.21904C47.9212 6.79922 47.9212 6.13892 47.5209 5.7191L42.2494 0.371508C41.8685 -0.0151599 41.2607 -0.0614895 40.8256 0.262817C37.8692 2.43664 35.0432 3.52355 32.4455 3.52355C29.9044 3.53849 27.4892 2.41857 25.8588 0.46933C25.6605 0.183337 25.3372 0.00956722 24.9893 0.00195886C24.639 -0.0215456 24.303 0.144344 24.1089 0.436723C22.4807 2.39003 20.0652 3.51403 17.5222 3.50181C14.9245 3.50181 12.0877 2.4149 9.14216 0.241079C8.70699 -0.0832277 8.09927 -0.0368981 7.71831 0.34977L2.46853 5.69736C2.06828 6.11718 2.06828 6.77748 2.46853 7.1973C2.53375 7.26251 8.81608 14.1753 4.07716 21.4467C1.32728 25.6639 1.27293 31.881 3.92499 37.2938C7.46832 44.5652 15.1202 49.1629 24.9023 49.9998H25.0762C34.8584 49.2063 42.4668 44.5652 46.0753 37.359C48.7274 31.9245 48.673 25.7291 45.9232 21.5119ZM44.1189 36.3591C40.9234 42.8805 33.9454 47.0325 24.9893 47.7825C16.0223 47.0325 9.0552 42.8697 5.85969 36.3591C3.53371 31.6201 3.54457 26.2508 5.85969 22.6531C10.4791 15.5665 6.38141 8.82766 4.67496 6.55602L8.5987 2.56707C11.1774 4.49823 14.2815 5.60104 17.5005 5.72997C20.2896 5.74084 22.9742 4.66928 24.9893 2.74097C26.9963 4.66154 29.6676 5.73242 32.4455 5.72997C35.6645 5.60117 38.7686 4.49823 41.3473 2.56707L45.271 6.52341C43.5754 8.80592 39.4778 15.5448 44.0863 22.6205C46.434 26.24 46.4449 31.6201 44.1189 36.3591Z" fill="#146EB4"/>
<path d="M26.9544 7.37888C26.9287 7.35206 26.8946 7.33484 26.8577 7.32998L25.6746 7.15804L25.1485 6.0834C25.0996 6.00201 24.994 5.97568 24.9126 6.02458C24.8885 6.03909 24.8683 6.05927 24.8538 6.0834L24.3257 7.15394L23.1425 7.32589C23.0529 7.33768 22.9897 7.41992 23.0015 7.5096C23.0064 7.54644 23.0236 7.58055 23.0504 7.60631L23.9061 8.43941L23.7014 9.61639C23.6867 9.70679 23.7481 9.79194 23.8385 9.8066C23.8735 9.81228 23.9093 9.8066 23.9408 9.79038L25.0012 9.23771L26.0594 9.79448C26.1409 9.83636 26.2408 9.8043 26.2827 9.72286C26.2989 9.69134 26.3046 9.65546 26.2989 9.62049L26.0942 8.44351L26.9498 7.61041C27.0151 7.54775 27.0171 7.4441 26.9544 7.37888ZM25.8036 8.26542C25.7651 8.30332 25.7476 8.35754 25.7565 8.41076L25.9161 9.34415L25.0769 8.90406C25.0288 8.87894 24.9715 8.87894 24.9234 8.90406L24.0841 9.34415L24.2438 8.41076C24.2527 8.35754 24.2351 8.30332 24.1967 8.26542L23.5192 7.60427L24.4567 7.46917C24.5106 7.46147 24.5572 7.4278 24.5815 7.37911L24.9909 6.52963L25.4003 7.37911C25.4246 7.4278 25.4713 7.46147 25.5252 7.46917L26.4627 7.60427L25.8036 8.26542Z" fill="#146EB4"/>
<path d="M24.9893 40.4896H24.9897C32.6166 40.4834 38.7977 34.3023 38.804 26.6754V26.675C38.804 19.0454 32.6189 12.8603 24.9893 12.8603C17.3597 12.8603 11.1747 19.0454 11.1747 26.675C11.1747 34.3046 17.3597 40.4896 24.9893 40.4896ZM10.0009 26.675C10.0009 18.3973 16.7113 11.6867 24.989 11.6865C33.2623 11.6983 39.9662 18.4023 39.9778 26.6757C39.9774 34.9532 33.2669 41.6634 24.9893 41.6634C16.7115 41.6634 10.0009 34.9528 10.0009 26.675Z" fill="#146EB4" stroke="#146EB4"/>
<g clip-path="url(#clip1)">
<path d="M35.9773 11.7233C35.9644 11.7092 35.9473 11.7002 35.9289 11.6976L35.3374 11.6074L35.0743 11.0437C35.0499 11.0011 34.9971 10.9872 34.9564 11.0129C34.9443 11.0205 34.9342 11.0311 34.9269 11.0437L34.6629 11.6053L34.0713 11.6955C34.0265 11.7017 33.9949 11.7448 34.0008 11.7918C34.0032 11.8112 34.0119 11.8291 34.0253 11.8426L34.4531 12.2796L34.3507 12.8969C34.3434 12.9444 34.3741 12.989 34.4193 12.9967C34.4368 12.9997 34.4547 12.9967 34.4705 12.9882L35.0006 12.6983L35.5298 12.9904C35.5705 13.0123 35.6205 12.9955 35.6414 12.9528C35.6495 12.9362 35.6524 12.9174 35.6495 12.8991L35.5472 12.2817L35.975 11.8447C36.0076 11.8119 36.0086 11.7575 35.9773 11.7233ZM35.4018 12.1883C35.3826 12.2082 35.3739 12.2366 35.3783 12.2645L35.4581 12.7541L35.0385 12.5233C35.0145 12.5101 34.9858 12.5101 34.9617 12.5233L34.5421 12.7541L34.622 12.2645C34.6264 12.2366 34.6176 12.2082 34.5984 12.1883L34.2597 11.8415L34.7284 11.7706C34.7553 11.7666 34.7787 11.7489 34.7908 11.7234L34.9955 11.2778L35.2002 11.7234C35.2124 11.7489 35.2357 11.7666 35.2626 11.7706L35.7314 11.8415L35.4018 12.1883Z" fill="#146EB4"/>
<path d="M14.023 11.7233C14.0358 11.7092 14.0529 11.7002 14.0713 11.6976L14.6629 11.6074L14.9259 11.0437C14.9504 11.0011 15.0032 10.9872 15.0439 11.0129C15.0559 11.0205 15.066 11.0311 15.0733 11.0437L15.3373 11.6053L15.9289 11.6955C15.9737 11.7017 16.0053 11.7448 15.9994 11.7918C15.997 11.8112 15.9884 11.8291 15.975 11.8426L15.5472 12.2796L15.6495 12.8969C15.6568 12.9444 15.6261 12.989 15.5809 12.9967C15.5635 12.9997 15.5455 12.9967 15.5298 12.9882L14.9996 12.6983L14.4705 12.9904C14.4298 13.0123 14.3798 12.9955 14.3588 12.9528C14.3507 12.9362 14.3479 12.9174 14.3507 12.8991L14.4531 12.2817L14.0253 11.8447C13.9927 11.8119 13.9916 11.7575 14.023 11.7233ZM14.5984 12.1883C14.6176 12.2082 14.6264 12.2366 14.6219 12.2645L14.5421 12.7541L14.9617 12.5233C14.9858 12.5101 15.0144 12.5101 15.0385 12.5233L15.4581 12.7541L15.3783 12.2645C15.3738 12.2366 15.3826 12.2082 15.4018 12.1883L15.7406 11.8415L15.2718 11.7706C15.2449 11.7666 15.2216 11.7489 15.2094 11.7234L15.0047 11.2778L14.8 11.7234C14.7879 11.7489 14.7645 11.7666 14.7376 11.7706L14.2689 11.8415L14.5984 12.1883Z" fill="#146EB4"/>
<path d="M38.9773 14.7233C38.9644 14.7092 38.9473 14.7002 38.9289 14.6976L38.3374 14.6074L38.0743 14.0437C38.0499 14.0011 37.9971 13.9872 37.9564 14.0129C37.9443 14.0205 37.9342 14.0311 37.9269 14.0437L37.6629 14.6053L37.0713 14.6955C37.0265 14.7017 36.9949 14.7448 37.0008 14.7918C37.0032 14.8112 37.0119 14.8291 37.0253 14.8426L37.4531 15.2796L37.3507 15.8969C37.3434 15.9444 37.3741 15.989 37.4193 15.9967C37.4368 15.9997 37.4547 15.9967 37.4705 15.9882L38.0006 15.6983L38.5298 15.9904C38.5705 16.0123 38.6205 15.9955 38.6414 15.9528C38.6495 15.9362 38.6524 15.9174 38.6495 15.8991L38.5472 15.2817L38.975 14.8447C39.0076 14.8119 39.0086 14.7575 38.9773 14.7233ZM38.4018 15.1883C38.3826 15.2082 38.3739 15.2366 38.3783 15.2645L38.4581 15.7541L38.0385 15.5233C38.0145 15.5101 37.9858 15.5101 37.9617 15.5233L37.5421 15.7541L37.622 15.2645C37.6264 15.2366 37.6176 15.2082 37.5984 15.1883L37.2597 14.8415L37.7284 14.7706C37.7553 14.7666 37.7787 14.7489 37.7908 14.7234L37.9955 14.2778L38.2002 14.7234C38.2124 14.7489 38.2357 14.7666 38.2626 14.7706L38.7314 14.8415L38.4018 15.1883Z" fill="#146EB4"/>
<path d="M11.023 14.7233C11.0358 14.7092 11.0529 14.7002 11.0713 14.6976L11.6629 14.6074L11.9259 14.0437C11.9504 14.0011 12.0032 13.9872 12.0439 14.0129C12.0559 14.0205 12.066 14.0311 12.0733 14.0437L12.3373 14.6053L12.9289 14.6955C12.9737 14.7017 13.0053 14.7448 12.9994 14.7918C12.997 14.8112 12.9884 14.8291 12.975 14.8426L12.5472 15.2796L12.6495 15.8969C12.6568 15.9444 12.6261 15.989 12.5809 15.9967C12.5635 15.9997 12.5455 15.9967 12.5298 15.9882L11.9996 15.6983L11.4705 15.9904C11.4298 16.0123 11.3798 15.9955 11.3588 15.9528C11.3507 15.9362 11.3479 15.9174 11.3507 15.8991L11.4531 15.2817L11.0253 14.8447C10.9927 14.8119 10.9916 14.7575 11.023 14.7233ZM11.5984 15.1883C11.6176 15.2082 11.6264 15.2366 11.6219 15.2645L11.5421 15.7541L11.9617 15.5233C11.9858 15.5101 12.0144 15.5101 12.0385 15.5233L12.4581 15.7541L12.3783 15.2645C12.3738 15.2366 12.3826 15.2082 12.4018 15.1883L12.7406 14.8415L12.2718 14.7706C12.2449 14.7666 12.2216 14.7489 12.2094 14.7234L12.0047 14.2778L11.8 14.7234C11.7879 14.7489 11.7645 14.7666 11.7376 14.7706L11.2689 14.8415L11.5984 15.1883Z" fill="#146EB4"/>
<path d="M23.2863 22.042C23.2863 22.8506 23.087 23.5303 22.6886 24.0811C22.2902 24.626 21.7277 25.0039 21.0011 25.2148V25.2852C21.8097 25.4141 22.4337 25.7305 22.8732 26.2344C23.3185 26.7383 23.5411 27.4238 23.5411 28.291C23.5411 29.4746 23.172 30.418 22.4337 31.1211C21.7013 31.8242 20.6964 32.1758 19.4191 32.1758C18.2823 32.1758 17.3273 31.9736 16.5538 31.5693V29.4248C16.9406 29.6592 17.3595 29.8438 17.8107 29.9785C18.2618 30.1133 18.6954 30.1807 19.1115 30.1807C19.7911 30.1807 20.3038 30.0254 20.6495 29.7148C20.9952 29.3984 21.1681 28.9004 21.1681 28.2207C21.1681 26.9375 20.38 26.2959 18.8038 26.2959H18.0743V24.5117H18.7687C19.4659 24.5117 19.9991 24.3477 20.3683 24.0195C20.7433 23.6914 20.9308 23.2021 20.9308 22.5518C20.9308 22.042 20.8107 21.6582 20.5704 21.4004C20.3361 21.1367 20.0021 21.0049 19.5685 21.0049C18.9064 21.0049 18.2618 21.2861 17.6349 21.8486L16.5538 20.2666C17.421 19.3994 18.5138 18.9658 19.8322 18.9658C20.9161 18.9658 21.7628 19.2412 22.3722 19.792C22.9816 20.3369 23.2863 21.0869 23.2863 22.042Z" fill="#146EB4"/>
<path d="M25.6314 22.6312C25.2243 23.0383 25.0001 23.5795 25.0001 24.1552C25.0001 24.7308 25.2243 25.2721 25.6314 25.6791C26.0384 26.0862 26.5796 26.3103 27.1553 26.3103C27.731 26.3103 28.2722 26.0862 28.6792 25.6791C29.0863 25.2721 29.3105 24.7308 29.3105 24.1552C29.3105 23.5795 29.0863 23.0383 28.6792 22.6312C28.2722 22.2242 27.731 22 27.1553 22C26.5796 22 26.0384 22.2242 25.6314 22.6312ZM29.1813 24.2192C29.1654 24.7367 28.9564 25.2208 28.5887 25.5886C28.5875 25.5898 28.5862 25.591 28.585 25.5922C28.4054 25.4137 28.2626 25.2063 28.1601 24.975C28.0542 24.7357 27.9967 24.4817 27.9887 24.2192L29.1813 24.2192ZM27.0913 24.2192V25.4269H27.2193V24.2192H27.8605C27.8686 24.4997 27.9299 24.7711 28.0431 25.0268C28.1514 25.2714 28.3021 25.4906 28.4914 25.6796C28.1375 25.9907 27.6924 26.1666 27.2193 26.1812V25.5976H27.0913V26.1812C26.6182 26.1666 26.173 25.9907 25.8192 25.6796C26.0085 25.4906 26.1592 25.2714 26.2675 25.0268C26.3807 24.7711 26.4419 24.4997 26.45 24.2192H27.0913ZM26.3219 24.2192C26.3139 24.4817 26.2564 24.7357 26.1504 24.9749C26.048 25.2063 25.9052 25.4137 25.7256 25.5922C25.7244 25.591 25.7231 25.5898 25.7219 25.5886C25.3542 25.2208 25.1452 24.7366 25.1293 24.2192L26.3219 24.2192ZM25.1293 24.0912C25.1452 23.5737 25.3541 23.0895 25.7219 22.7218C25.7231 22.7206 25.7244 22.7194 25.7256 22.7182C25.9052 22.8967 26.048 23.104 26.1504 23.3354C26.2564 23.5747 26.3139 23.8286 26.3219 24.0911L25.1293 24.0912ZM27.0913 24.0912H26.4501C26.442 23.8106 26.3807 23.5393 26.2675 23.2836C26.1592 23.039 26.0085 22.8197 25.8192 22.6307C26.1731 22.3197 26.6182 22.1437 27.0913 22.1291L27.0913 24.0912ZM28.5887 22.7218C28.9564 23.0895 29.1654 23.5737 29.1813 24.0912H27.9886C27.9967 23.8286 28.0542 23.5747 28.1601 23.3354C28.2626 23.104 28.4054 22.8967 28.585 22.7182C28.5862 22.7194 28.5875 22.7206 28.5887 22.7218ZM28.0431 23.2836C27.9299 23.5393 27.8686 23.8106 27.8605 24.0912H27.2193V22.1291C27.6924 22.1437 28.1375 22.3197 28.4914 22.6307C28.3021 22.8197 28.1514 23.039 28.0431 23.2836Z" fill="#146EB4" stroke="#146EB4" stroke-width="0.3"/>
<path d="M31.3211 28.3209C30.914 28.728 30.6898 29.2692 30.6898 29.8449C30.6898 30.4205 30.914 30.9618 31.3211 31.3688C31.7281 31.7759 32.2693 32 32.845 32C33.4207 32 33.9619 31.7759 34.3689 31.3688C34.776 30.9618 35.0002 30.4205 35.0002 29.8449C35.0002 29.2692 34.776 28.728 34.3689 28.3209C33.9619 27.9139 33.4207 27.6897 32.845 27.6897C32.2693 27.6897 31.7281 27.9139 31.3211 28.3209ZM34.871 29.9089C34.8551 30.4264 34.6461 30.9105 34.2784 31.2783C34.2772 31.2795 34.2759 31.2807 34.2747 31.2819C34.0951 31.1034 33.9523 30.896 33.8498 30.6647C33.7439 30.4254 33.6864 30.1714 33.6784 29.9089L34.871 29.9089ZM32.781 29.9089V31.1166H32.909V29.9089H33.5502C33.5583 30.1894 33.6196 30.4608 33.7328 30.7165C33.8411 30.9611 33.9918 31.1803 34.1811 31.3693C33.8272 31.6804 33.3821 31.8563 32.909 31.8709V31.2873H32.781V31.8709C32.3079 31.8563 31.8627 31.6804 31.5089 31.3693C31.6982 31.1803 31.8489 30.9611 31.9572 30.7165C32.0704 30.4608 32.1316 30.1894 32.1397 29.9089H32.781ZM32.0116 29.9089C32.0036 30.1714 31.9461 30.4254 31.8401 30.6646C31.7377 30.896 31.5949 31.1034 31.4153 31.2819C31.414 31.2807 31.4128 31.2795 31.4116 31.2783C31.0438 30.9105 30.8349 30.4263 30.819 29.9089L32.0116 29.9089ZM30.819 29.7809C30.8349 29.2634 31.0438 28.7792 31.4116 28.4115C31.4128 28.4102 31.414 28.4091 31.4153 28.4079C31.5949 28.5864 31.7377 28.7937 31.8401 29.0251C31.9461 29.2644 32.0036 29.5183 32.0116 29.7808L30.819 29.7809ZM32.781 29.7809H32.1398C32.1317 29.5003 32.0704 29.229 31.9572 28.9733C31.8489 28.7287 31.6982 28.5094 31.5089 28.3204C31.8628 28.0094 32.3079 27.8334 32.781 27.8188L32.781 29.7809ZM34.2784 28.4115C34.6461 28.7792 34.8551 29.2634 34.871 29.7809H33.6783C33.6864 29.5183 33.7439 29.2644 33.8498 29.0251C33.9523 28.7937 34.0951 28.5864 34.2747 28.4079C34.2759 28.4091 34.2772 28.4102 34.2784 28.4115ZM33.7328 28.9733C33.6196 29.229 33.5583 29.5003 33.5502 29.7809H32.909V27.8188C33.3821 27.8334 33.8272 28.0094 34.1811 28.3204C33.9918 28.5094 33.8411 28.7287 33.7328 28.9733Z" fill="#146EB4" stroke="#146EB4" stroke-width="0.3"/>
<rect x="31.8967" y="22" width="1.89655" height="10.3448" rx="0.948276" transform="rotate(30 31.8967 22)" fill="#146EB4"/>
</g>
<path d="M31.9773 9.72327C31.9644 9.70921 31.9473 9.70018 31.9289 9.69763L31.3374 9.60744L31.0743 9.04375C31.0499 9.00105 30.9971 8.98724 30.9564 9.01289C30.9443 9.0205 30.9342 9.03109 30.9269 9.04375L30.6629 9.60529L30.0713 9.69548C30.0265 9.70167 29.9949 9.7448 30.0008 9.79184C30.0032 9.81117 30.0119 9.82906 30.0253 9.84257L30.4531 10.2796L30.3507 10.8969C30.3434 10.9444 30.3741 10.989 30.4193 10.9967C30.4368 10.9997 30.4547 10.9967 30.4705 10.9882L31.0006 10.6983L31.5298 10.9904C31.5705 11.0123 31.6205 10.9955 31.6414 10.9528C31.6495 10.9362 31.6524 10.9174 31.6495 10.8991L31.5472 10.2817L31.975 9.84472C32.0076 9.81185 32.0086 9.75748 31.9773 9.72327ZM31.4018 10.1883C31.3826 10.2082 31.3739 10.2366 31.3783 10.2645L31.4581 10.7541L31.0385 10.5233C31.0145 10.5101 30.9858 10.5101 30.9617 10.5233L30.5421 10.7541L30.622 10.2645C30.6264 10.2366 30.6176 10.2082 30.5984 10.1883L30.2597 9.8415L30.7284 9.77064C30.7553 9.7666 30.7787 9.74893 30.7908 9.72339L30.9955 9.27781L31.2002 9.72339C31.2124 9.74893 31.2357 9.7666 31.2626 9.77064L31.7314 9.8415L31.4018 10.1883Z" fill="#146EB4"/>
<path d="M18.023 9.72327C18.0358 9.70921 18.0529 9.70018 18.0713 9.69763L18.6629 9.60744L18.9259 9.04375C18.9504 9.00105 19.0032 8.98724 19.0439 9.01289C19.0559 9.0205 19.066 9.03109 19.0733 9.04375L19.3373 9.60529L19.9289 9.69548C19.9737 9.70167 20.0053 9.7448 19.9994 9.79184C19.997 9.81117 19.9884 9.82906 19.975 9.84257L19.5472 10.2796L19.6495 10.8969C19.6568 10.9444 19.6261 10.989 19.5809 10.9967C19.5635 10.9997 19.5455 10.9967 19.5298 10.9882L18.9996 10.6983L18.4705 10.9904C18.4298 11.0123 18.3798 10.9955 18.3588 10.9528C18.3507 10.9362 18.3479 10.9174 18.3507 10.8991L18.4531 10.2817L18.0253 9.84472C17.9927 9.81185 17.9916 9.75748 18.023 9.72327ZM18.5984 10.1883C18.6176 10.2082 18.6264 10.2366 18.6219 10.2645L18.5421 10.7541L18.9617 10.5233C18.9858 10.5101 19.0144 10.5101 19.0385 10.5233L19.4581 10.7541L19.3783 10.2645C19.3738 10.2366 19.3826 10.2082 19.4018 10.1883L19.7406 9.8415L19.2718 9.77064C19.2449 9.7666 19.2216 9.74893 19.2094 9.72339L19.0047 9.27781L18.8 9.72339C18.7879 9.74893 18.7645 9.7666 18.7376 9.77064L18.2689 9.8415L18.5984 10.1883Z" fill="#146EB4"/>
</g>
<defs>
<clipPath id="clip0">
<rect width="50" height="50" fill="white" transform="translate(0.00012207)"/>
</clipPath>
<clipPath id="clip1">
<rect width="30.9769" height="30.9769" fill="white" transform="translate(9.51062 42.1176) rotate(-90)"/>
</clipPath>
</defs>
</svg>
