<svg width="40" height="40" viewBox="0 0 40 40" fill="none" xmlns="http://www.w3.org/2000/svg">
<path d="M11.5 4L11.993 3.9168C11.9631 3.73963 11.8405 3.59212 11.6717 3.53041C11.503 3.4687 11.3141 3.50229 11.1769 3.61838L11.5 4ZM12 6.96296L11.507 7.04616C11.5235 7.1442 11.5689 7.23508 11.6374 7.30719L12 6.96296ZM20.5 10.5185V10.0185C20.4519 10.0185 20.4041 10.0255 20.358 10.0391L20.5 10.5185ZM26 15.2593L25.5028 15.3117C25.5075 15.357 25.5185 15.4014 25.5353 15.4438L26 15.2593ZM30 25.3333L29.5353 25.5179C29.5621 25.5853 29.6033 25.6462 29.656 25.6962L30 25.3333ZM32.5 27.7037L32.156 28.0665C32.2246 28.1316 32.3103 28.1759 32.4031 28.1942L32.5 27.7037ZM35.5 28.2963L35.8821 27.9739C35.8089 27.8871 35.7083 27.8278 35.5969 27.8058L35.5 28.2963ZM37 30.0741H37.5C37.5 29.9561 37.4583 29.8418 37.3821 29.7516L37 30.0741ZM37 32.4444L37.4225 32.7118C37.4731 32.6318 37.5 32.5391 37.5 32.4444H37ZM35.5 34.8148L35.81 35.2071C35.8543 35.1721 35.8923 35.1299 35.9225 35.0822L35.5 34.8148ZM34 36V36.5C34.1125 36.5 34.2217 36.4621 34.31 36.3923L34 36ZM26 36L25.7969 36.4569C25.8609 36.4853 25.93 36.5 26 36.5V36ZM22 34.2222L21.7182 34.6352C21.743 34.6522 21.7694 34.6669 21.7969 34.6791L22 34.2222ZM5.5 22.963L5.11785 23.2854C5.14704 23.32 5.18079 23.3505 5.21817 23.376L5.5 22.963ZM3 20L2.50276 19.9476C2.48848 20.083 2.53004 20.2184 2.61785 20.3224L3 20ZM3.5 15.2593L3.01867 15.1239C3.01104 15.151 3.00572 15.1788 3.00276 15.2068L3.5 15.2593ZM4.5 11.7037L4.09775 11.4067C4.06184 11.4554 4.03504 11.5101 4.01867 11.5683L4.5 11.7037ZM8 6.96296L7.67694 6.58135C7.64735 6.6064 7.62077 6.6348 7.59775 6.66599L8 6.96296ZM9 10.5185L8.51867 10.6539C8.54215 10.7374 8.58695 10.8133 8.64865 10.8743L9 10.5185ZM12 13.4815L11.6486 13.8372C11.7896 13.9764 11.9995 14.0193 12.1837 13.9465L12 13.4815ZM19 8.74074L18.7102 8.33326C18.6079 8.40604 18.5367 8.51467 18.5108 8.63754L19 8.74074ZM21.5 6.96296L21.3727 6.47945C21.3144 6.4948 21.2594 6.52056 21.2102 6.55549L21.5 6.96296ZM26 5.77778L26.4972 5.83022C26.5145 5.6668 26.4503 5.50534 26.3256 5.39833C26.2009 5.29132 26.0316 5.25241 25.8727 5.29427L26 5.77778ZM27 32.4444L26.6335 32.7846C26.7281 32.8865 26.8609 32.9444 27 32.9444V32.4444ZM21.5 26.5185L21.8665 26.1784C21.7719 26.0764 21.6391 26.0185 21.5 26.0185V26.5185ZM17.5 26.5185L17.1989 26.9177C17.2857 26.9831 17.3914 27.0185 17.5 27.0185V26.5185ZM12 22.3704L11.5108 22.4736C11.5357 22.5917 11.6025 22.6969 11.6989 22.7696L12 22.3704ZM11 17.6296L11.4892 17.5264C11.4678 17.4248 11.4153 17.3324 11.3389 17.262L11 17.6296ZM6.5 13.4815L6.83894 13.1138L6.83218 13.1078L6.5 13.4815ZM24.4031 15.3613C24.1322 15.4148 23.956 15.6778 24.0095 15.9487C24.063 16.2197 24.326 16.3959 24.5969 16.3424L24.4031 15.3613ZM27.5 15.2593L27.9282 15.5174C28.0304 15.3479 28.023 15.1341 27.9093 14.9721C27.7957 14.8101 27.5972 14.7304 27.4031 14.7687L27.5 15.2593ZM25 19.4074L24.5718 19.1493C24.4634 19.3291 24.4789 19.5573 24.6104 19.7208C24.742 19.8843 24.9616 19.9483 25.1604 19.881L25 19.4074ZM28.5 18.2222L28.9504 18.4394C29.0378 18.258 29.008 18.0419 28.8746 17.891C28.7412 17.7402 28.5303 17.6841 28.3396 17.7486L28.5 18.2222ZM26.5 22.3704L26.0496 22.1532C25.9602 22.3387 25.9936 22.56 26.1338 22.7108C26.274 22.8616 26.4922 22.911 26.6837 22.8354L26.5 22.3704ZM29.5 21.1852L29.9504 21.4023C30.0398 21.2169 30.0064 20.9956 29.8662 20.8448C29.726 20.694 29.5078 20.6445 29.3163 20.7202L29.5 21.1852ZM27.5 25.3333L27.0496 25.1162C26.9539 25.3148 26.9995 25.5526 27.1619 25.7017C27.3243 25.8508 27.5652 25.8759 27.7549 25.7635L27.5 25.3333ZM30.7549 23.9857C30.9925 23.8449 31.0709 23.5382 30.9301 23.3007C30.7894 23.0631 30.4827 22.9846 30.2451 23.1254L30.7549 23.9857ZM11.007 4.0832L11.507 7.04616L12.493 6.87976L11.993 3.9168L11.007 4.0832ZM11.6374 7.30719L16.1374 12.0479L16.8626 11.3595L12.3626 6.61874L11.6374 7.30719ZM20.5 11.0185H25.5V10.0185H20.5V11.0185ZM25.0028 10.571L25.5028 15.3117L26.4972 15.2068L25.9972 10.4661L25.0028 10.571ZM25.5353 15.4438L29.5353 25.5179L30.4647 25.1488L26.4647 15.0747L25.5353 15.4438ZM29.656 25.6962L32.156 28.0665L32.844 27.3409L30.344 24.9705L29.656 25.6962ZM32.4031 28.1942L35.4031 28.7868L35.5969 27.8058L32.5969 27.2132L32.4031 28.1942ZM35.1179 28.6187L36.6179 30.3965L37.3821 29.7516L35.8821 27.9739L35.1179 28.6187ZM36.5775 32.1771L35.0775 34.5474L35.9225 35.0822L37.4225 32.7118L36.5775 32.1771ZM35.19 34.4225L33.69 35.6077L34.31 36.3923L35.81 35.2071L35.19 34.4225ZM34 35.5H26V36.5H34V35.5ZM26.2031 35.5431L22.2031 33.7653L21.7969 34.6791L25.7969 36.4569L26.2031 35.5431ZM22.2818 33.8092L5.78183 22.55L5.21817 23.376L21.7182 34.6352L22.2818 33.8092ZM5.88215 22.6405L3.38215 19.6776L2.61785 20.3224L5.11785 23.2854L5.88215 22.6405ZM3.49724 20.0524L3.99724 15.3117L3.00276 15.2068L2.50276 19.9476L3.49724 20.0524ZM3.98133 15.3946L4.98133 11.8391L4.01867 11.5683L3.01867 15.1239L3.98133 15.3946ZM4.90225 12.0007L8.40225 7.25994L7.59775 6.66599L4.09775 11.4067L4.90225 12.0007ZM8.32306 7.34458L11.8231 4.38162L11.1769 3.61838L7.67694 6.58135L8.32306 7.34458ZM7.51867 7.09834L8.51867 10.6539L9.48133 10.3831L8.48133 6.82759L7.51867 7.09834ZM8.64865 10.8743L11.6486 13.8372L12.3514 13.1257L9.35135 10.1628L8.64865 10.8743ZM12.1837 13.9465L16.6837 12.1687L16.3163 11.2387L11.8163 13.0165L12.1837 13.9465ZM16.642 12.1831L18.642 11.5905L18.358 10.6317L16.358 11.2243L16.642 12.1831ZM18.642 11.5905L20.642 10.9979L20.358 10.0391L18.358 10.6317L18.642 11.5905ZM18.9892 11.2143L19.4892 8.84394L18.5108 8.63754L18.0108 11.0079L18.9892 11.2143ZM19.2898 9.14822L21.7898 7.37044L21.2102 6.55549L18.7102 8.33326L19.2898 9.14822ZM21.6273 7.44647L26.1273 6.26129L25.8727 5.29427L21.3727 6.47945L21.6273 7.44647ZM25.5028 5.72533L25.0028 10.4661L25.9972 10.571L26.4972 5.83022L25.5028 5.72533ZM37 31.9444H27V32.9444H37V31.9444ZM27.3665 32.1043L21.8665 26.1784L21.1335 26.8587L26.6335 32.7846L27.3665 32.1043ZM21.5 26.0185H17.5V27.0185H21.5V26.0185ZM17.8011 26.1193L12.3011 21.9712L11.6989 22.7696L17.1989 26.9177L17.8011 26.1193ZM12.4892 22.2672L11.4892 17.5264L10.5108 17.7328L11.5108 22.4736L12.4892 22.2672ZM11.3389 17.262L6.83889 13.1138L6.16111 13.8491L10.6611 17.9973L11.3389 17.262ZM6.83218 13.1078L4.83218 11.33L4.16782 12.0774L6.16782 13.8552L6.83218 13.1078ZM24.5969 16.3424L27.5969 15.7498L27.4031 14.7687L24.4031 15.3613L24.5969 16.3424ZM27.0718 15.0012L24.5718 19.1493L25.4282 19.6655L27.9282 15.5174L27.0718 15.0012ZM25.1604 19.881L28.6604 18.6958L28.3396 17.7486L24.8396 18.9338L25.1604 19.881ZM28.0496 18.0051L26.0496 22.1532L26.9504 22.5875L28.9504 18.4394L28.0496 18.0051ZM26.6837 22.8354L29.6837 21.6502L29.3163 20.7202L26.3163 21.9053L26.6837 22.8354ZM29.0496 20.968L27.0496 25.1162L27.9504 25.5505L29.9504 21.4023L29.0496 20.968ZM27.7549 25.7635L30.7549 23.9857L30.2451 23.1254L27.2451 24.9032L27.7549 25.7635ZM36.5 30.0741V32.4444H37.5V30.0741H36.5Z" fill="#FF0303"/>
<path d="M11.5 4L11.993 3.9168C11.9631 3.73963 11.8405 3.59212 11.6717 3.53041C11.503 3.4687 11.3141 3.50229 11.1769 3.61838L11.5 4ZM12 6.96296L11.507 7.04616C11.5235 7.1442 11.5689 7.23508 11.6374 7.30719L12 6.96296ZM20.5 10.5185V10.0185C20.4519 10.0185 20.4041 10.0255 20.358 10.0391L20.5 10.5185ZM26 15.2593L25.5028 15.3117C25.5075 15.357 25.5185 15.4014 25.5353 15.4438L26 15.2593ZM30 25.3333L29.5353 25.5179C29.5621 25.5853 29.6033 25.6462 29.656 25.6962L30 25.3333ZM32.5 27.7037L32.156 28.0665C32.2246 28.1316 32.3103 28.1759 32.4031 28.1942L32.5 27.7037ZM35.5 28.2963L35.8821 27.9739C35.8089 27.8871 35.7083 27.8278 35.5969 27.8058L35.5 28.2963ZM37 30.0741H37.5C37.5 29.9561 37.4583 29.8418 37.3821 29.7516L37 30.0741ZM37 32.4444L37.4225 32.7118C37.4731 32.6318 37.5 32.5391 37.5 32.4444H37ZM35.5 34.8148L35.81 35.2071C35.8543 35.1721 35.8923 35.1299 35.9225 35.0822L35.5 34.8148ZM34 36V36.5C34.1125 36.5 34.2217 36.4621 34.31 36.3923L34 36ZM26 36L25.7969 36.4569C25.8609 36.4853 25.93 36.5 26 36.5V36ZM22 34.2222L21.7182 34.6352C21.743 34.6522 21.7694 34.6669 21.7969 34.6791L22 34.2222ZM5.5 22.963L5.11785 23.2854C5.14704 23.32 5.18079 23.3505 5.21817 23.376L5.5 22.963ZM3 20L2.50276 19.9476C2.48848 20.083 2.53004 20.2184 2.61785 20.3224L3 20ZM3.5 15.2593L3.01867 15.1239C3.01104 15.151 3.00572 15.1788 3.00276 15.2068L3.5 15.2593ZM4.5 11.7037L4.09775 11.4067C4.06184 11.4554 4.03504 11.5101 4.01867 11.5683L4.5 11.7037ZM8 6.96296L7.67694 6.58135C7.64735 6.6064 7.62077 6.6348 7.59775 6.66599L8 6.96296ZM9 10.5185L8.51867 10.6539C8.54215 10.7374 8.58695 10.8133 8.64865 10.8743L9 10.5185ZM12 13.4815L11.6486 13.8372C11.7896 13.9764 11.9995 14.0193 12.1837 13.9465L12 13.4815ZM19 8.74074L18.7102 8.33326C18.6079 8.40604 18.5367 8.51467 18.5108 8.63754L19 8.74074ZM21.5 6.96296L21.3727 6.47945C21.3144 6.4948 21.2594 6.52056 21.2102 6.55549L21.5 6.96296ZM26 5.77778L26.4972 5.83022C26.5145 5.6668 26.4503 5.50534 26.3256 5.39833C26.2009 5.29132 26.0316 5.25241 25.8727 5.29427L26 5.77778ZM27 32.4444L26.6335 32.7846C26.7281 32.8865 26.8609 32.9444 27 32.9444V32.4444ZM21.5 26.5185L21.8665 26.1784C21.7719 26.0764 21.6391 26.0185 21.5 26.0185V26.5185ZM17.5 26.5185L17.1989 26.9177C17.2857 26.9831 17.3914 27.0185 17.5 27.0185V26.5185ZM12 22.3704L11.5108 22.4736C11.5357 22.5917 11.6025 22.6969 11.6989 22.7696L12 22.3704ZM11 17.6296L11.4892 17.5264C11.4678 17.4248 11.4153 17.3324 11.3389 17.262L11 17.6296ZM6.5 13.4815L6.83894 13.1138L6.83218 13.1078L6.5 13.4815ZM24.4031 15.3613C24.1322 15.4148 23.956 15.6778 24.0095 15.9487C24.063 16.2197 24.326 16.3959 24.5969 16.3424L24.4031 15.3613ZM27.5 15.2593L27.9282 15.5174C28.0304 15.3479 28.023 15.1341 27.9093 14.9721C27.7957 14.8101 27.5972 14.7304 27.4031 14.7687L27.5 15.2593ZM25 19.4074L24.5718 19.1493C24.4634 19.3291 24.4789 19.5573 24.6104 19.7208C24.742 19.8843 24.9616 19.9483 25.1604 19.881L25 19.4074ZM28.5 18.2222L28.9504 18.4394C29.0378 18.258 29.008 18.0419 28.8746 17.891C28.7412 17.7402 28.5303 17.6841 28.3396 17.7486L28.5 18.2222ZM26.5 22.3704L26.0496 22.1532C25.9602 22.3387 25.9936 22.56 26.1338 22.7108C26.274 22.8616 26.4922 22.911 26.6837 22.8354L26.5 22.3704ZM29.5 21.1852L29.9504 21.4023C30.0398 21.2169 30.0064 20.9956 29.8662 20.8448C29.726 20.694 29.5078 20.6445 29.3163 20.7202L29.5 21.1852ZM27.5 25.3333L27.0496 25.1162C26.9539 25.3148 26.9995 25.5526 27.1619 25.7017C27.3243 25.8508 27.5652 25.8759 27.7549 25.7635L27.5 25.3333ZM30.7549 23.9857C30.9925 23.8449 31.0709 23.5382 30.9301 23.3007C30.7894 23.0631 30.4827 22.9846 30.2451 23.1254L30.7549 23.9857ZM11.007 4.0832L11.507 7.04616L12.493 6.87976L11.993 3.9168L11.007 4.0832ZM11.6374 7.30719L16.1374 12.0479L16.8626 11.3595L12.3626 6.61874L11.6374 7.30719ZM20.5 11.0185H25.5V10.0185H20.5V11.0185ZM25.0028 10.571L25.5028 15.3117L26.4972 15.2068L25.9972 10.4661L25.0028 10.571ZM25.5353 15.4438L29.5353 25.5179L30.4647 25.1488L26.4647 15.0747L25.5353 15.4438ZM29.656 25.6962L32.156 28.0665L32.844 27.3409L30.344 24.9705L29.656 25.6962ZM32.4031 28.1942L35.4031 28.7868L35.5969 27.8058L32.5969 27.2132L32.4031 28.1942ZM35.1179 28.6187L36.6179 30.3965L37.3821 29.7516L35.8821 27.9739L35.1179 28.6187ZM36.5775 32.1771L35.0775 34.5474L35.9225 35.0822L37.4225 32.7118L36.5775 32.1771ZM35.19 34.4225L33.69 35.6077L34.31 36.3923L35.81 35.2071L35.19 34.4225ZM34 35.5H26V36.5H34V35.5ZM26.2031 35.5431L22.2031 33.7653L21.7969 34.6791L25.7969 36.4569L26.2031 35.5431ZM22.2818 33.8092L5.78183 22.55L5.21817 23.376L21.7182 34.6352L22.2818 33.8092ZM5.88215 22.6405L3.38215 19.6776L2.61785 20.3224L5.11785 23.2854L5.88215 22.6405ZM3.49724 20.0524L3.99724 15.3117L3.00276 15.2068L2.50276 19.9476L3.49724 20.0524ZM3.98133 15.3946L4.98133 11.8391L4.01867 11.5683L3.01867 15.1239L3.98133 15.3946ZM4.90225 12.0007L8.40225 7.25994L7.59775 6.66599L4.09775 11.4067L4.90225 12.0007ZM8.32306 7.34458L11.8231 4.38162L11.1769 3.61838L7.67694 6.58135L8.32306 7.34458ZM7.51867 7.09834L8.51867 10.6539L9.48133 10.3831L8.48133 6.82759L7.51867 7.09834ZM8.64865 10.8743L11.6486 13.8372L12.3514 13.1257L9.35135 10.1628L8.64865 10.8743ZM12.1837 13.9465L16.6837 12.1687L16.3163 11.2387L11.8163 13.0165L12.1837 13.9465ZM16.642 12.1831L18.642 11.5905L18.358 10.6317L16.358 11.2243L16.642 12.1831ZM18.642 11.5905L20.642 10.9979L20.358 10.0391L18.358 10.6317L18.642 11.5905ZM18.9892 11.2143L19.4892 8.84394L18.5108 8.63754L18.0108 11.0079L18.9892 11.2143ZM19.2898 9.14822L21.7898 7.37044L21.2102 6.55549L18.7102 8.33326L19.2898 9.14822ZM21.6273 7.44647L26.1273 6.26129L25.8727 5.29427L21.3727 6.47945L21.6273 7.44647ZM25.5028 5.72533L25.0028 10.4661L25.9972 10.571L26.4972 5.83022L25.5028 5.72533ZM37 31.9444H27V32.9444H37V31.9444ZM27.3665 32.1043L21.8665 26.1784L21.1335 26.8587L26.6335 32.7846L27.3665 32.1043ZM21.5 26.0185H17.5V27.0185H21.5V26.0185ZM17.8011 26.1193L12.3011 21.9712L11.6989 22.7696L17.1989 26.9177L17.8011 26.1193ZM12.4892 22.2672L11.4892 17.5264L10.5108 17.7328L11.5108 22.4736L12.4892 22.2672ZM11.3389 17.262L6.83889 13.1138L6.16111 13.8491L10.6611 17.9973L11.3389 17.262ZM6.83218 13.1078L4.83218 11.33L4.16782 12.0774L6.16782 13.8552L6.83218 13.1078ZM24.5969 16.3424L27.5969 15.7498L27.4031 14.7687L24.4031 15.3613L24.5969 16.3424ZM27.0718 15.0012L24.5718 19.1493L25.4282 19.6655L27.9282 15.5174L27.0718 15.0012ZM25.1604 19.881L28.6604 18.6958L28.3396 17.7486L24.8396 18.9338L25.1604 19.881ZM28.0496 18.0051L26.0496 22.1532L26.9504 22.5875L28.9504 18.4394L28.0496 18.0051ZM26.6837 22.8354L29.6837 21.6502L29.3163 20.7202L26.3163 21.9053L26.6837 22.8354ZM29.0496 20.968L27.0496 25.1162L27.9504 25.5505L29.9504 21.4023L29.0496 20.968ZM27.7549 25.7635L30.7549 23.9857L30.2451 23.1254L27.2451 24.9032L27.7549 25.7635ZM36.5 30.0741V32.4444H37.5V30.0741H36.5Z" fill="black" fill-opacity="0.2"/>
</svg>
