<svg width="36" height="34" viewBox="0 0 36 34" fill="none" xmlns="http://www.w3.org/2000/svg">
<path d="M9.50012 1L9.99315 0.916801C9.96325 0.739626 9.84059 0.592117 9.67184 0.53041C9.50308 0.468703 9.3142 0.502288 9.17706 0.618383L9.50012 1ZM10.0001 3.96296L9.50709 4.04616C9.52364 4.1442 9.56903 4.23508 9.63748 4.30719L10.0001 3.96296ZM18.5001 7.51852V7.01852C18.452 7.01852 18.4042 7.02546 18.3581 7.03912L18.5001 7.51852ZM24.0001 12.2593L23.5029 12.3117C23.5077 12.357 23.5186 12.4014 23.5354 12.4438L24.0001 12.2593ZM28.0001 22.3333L27.5354 22.5179C27.5622 22.5853 27.6034 22.6462 27.6561 22.6962L28.0001 22.3333ZM30.5001 24.7037L30.1561 25.0665C30.2247 25.1316 30.3104 25.1759 30.4032 25.1942L30.5001 24.7037ZM33.5001 25.2963L33.8823 24.9739C33.809 24.8871 33.7084 24.8278 33.597 24.8058L33.5001 25.2963ZM35.0001 27.0741H35.5001C35.5001 26.9561 35.4584 26.8418 35.3823 26.7516L35.0001 27.0741ZM35.0001 29.4444L35.4226 29.7118C35.4733 29.6318 35.5001 29.5391 35.5001 29.4444H35.0001ZM33.5001 31.8148L33.8101 32.2071C33.8544 32.1721 33.8924 32.1299 33.9226 32.0822L33.5001 31.8148ZM32.0001 33V33.5C32.1126 33.5 32.2218 33.4621 32.3101 33.3923L32.0001 33ZM24.0001 33L23.7971 33.4569C23.861 33.4853 23.9302 33.5 24.0001 33.5V33ZM20.0001 31.2222L19.7183 31.6352C19.7432 31.6522 19.7695 31.6669 19.7971 31.6791L20.0001 31.2222ZM3.50012 19.963L3.11798 20.2854C3.14716 20.32 3.18091 20.3505 3.2183 20.376L3.50012 19.963ZM1.00012 17L0.50288 16.9476C0.488598 17.083 0.530164 17.2184 0.617976 17.3224L1.00012 17ZM1.50012 12.2593L1.0188 12.1239C1.01116 12.151 1.00584 12.1788 1.00288 12.2068L1.50012 12.2593ZM2.50012 8.7037L2.09787 8.40673C2.06196 8.45537 2.03517 8.51013 2.0188 8.56833L2.50012 8.7037ZM6.00012 3.96296L5.67706 3.58135C5.64747 3.6064 5.6209 3.6348 5.59787 3.66599L6.00012 3.96296ZM7.00012 7.51852L6.5188 7.65389C6.54228 7.73738 6.58707 7.81332 6.64877 7.87426L7.00012 7.51852ZM10.0001 10.4815L9.64877 10.8372C9.78973 10.9764 9.99958 11.0193 10.1838 10.9465L10.0001 10.4815ZM17.0001 5.74074L16.7104 5.33326C16.608 5.40604 16.5368 5.51467 16.5109 5.63754L17.0001 5.74074ZM19.5001 3.96296L19.3728 3.47945C19.3145 3.4948 19.2595 3.52056 19.2104 3.55549L19.5001 3.96296ZM24.0001 2.77778L24.4974 2.83022C24.5146 2.6668 24.4504 2.50534 24.3257 2.39833C24.201 2.29132 24.0317 2.25241 23.8728 2.29427L24.0001 2.77778ZM25.0001 29.4444L24.6336 29.7846C24.7283 29.8865 24.861 29.9444 25.0001 29.9444V29.4444ZM19.5001 23.5185L19.8666 23.1784C19.772 23.0764 19.6392 23.0185 19.5001 23.0185V23.5185ZM15.5001 23.5185L15.199 23.9177C15.2858 23.9831 15.3915 24.0185 15.5001 24.0185V23.5185ZM10.0001 19.3704L9.51089 19.4736C9.53581 19.5917 9.60264 19.6969 9.69905 19.7696L10.0001 19.3704ZM9.00012 14.6296L9.48936 14.5264C9.46792 14.4248 9.41537 14.3324 9.33901 14.262L9.00012 14.6296ZM4.50012 10.4815L4.83907 10.1138L4.8323 10.1078L4.50012 10.4815ZM22.4032 12.3613C22.1323 12.4148 21.9561 12.6778 22.0096 12.9487C22.0631 13.2197 22.3261 13.3959 22.597 13.3424L22.4032 12.3613ZM25.5001 12.2593L25.9284 12.5174C26.0305 12.3479 26.0231 12.1341 25.9095 11.9721C25.7958 11.8101 25.5973 11.7304 25.4032 11.7687L25.5001 12.2593ZM23.0001 16.4074L22.5719 16.1493C22.4636 16.3291 22.479 16.5573 22.6105 16.7208C22.7421 16.8843 22.9617 16.9483 23.1605 16.881L23.0001 16.4074ZM26.5001 15.2222L26.9505 15.4394C27.038 15.258 27.0081 15.0419 26.8747 14.891C26.7413 14.7402 26.5305 14.6841 26.3398 14.7486L26.5001 15.2222ZM24.5001 19.3704L24.0497 19.1532C23.9603 19.3387 23.9937 19.56 24.1339 19.7108C24.2741 19.8616 24.4924 19.911 24.6838 19.8354L24.5001 19.3704ZM27.5001 18.1852L27.9505 18.4023C28.0399 18.2169 28.0065 17.9956 27.8663 17.8448C27.7262 17.694 27.5079 17.6445 27.3164 17.7202L27.5001 18.1852ZM25.5001 22.3333L25.0497 22.1162C24.954 22.3148 24.9996 22.5526 25.162 22.7017C25.3245 22.8508 25.5654 22.8759 25.755 22.7635L25.5001 22.3333ZM28.755 20.9857C28.9926 20.8449 29.071 20.5382 28.9303 20.3007C28.7895 20.0631 28.4828 19.9846 28.2452 20.1254L28.755 20.9857ZM9.00709 1.0832L9.50709 4.04616L10.4932 3.87976L9.99315 0.916801L9.00709 1.0832ZM9.63748 4.30719L14.1375 9.04793L14.8628 8.35948L10.3628 3.61874L9.63748 4.30719ZM18.5001 8.01852H23.5001V7.01852H18.5001V8.01852ZM23.0029 7.57096L23.5029 12.3117L24.4974 12.2068L23.9974 7.46607L23.0029 7.57096ZM23.5354 12.4438L27.5354 22.5179L28.4648 22.1488L24.4648 12.0747L23.5354 12.4438ZM27.6561 22.6962L30.1561 25.0665L30.8441 24.3409L28.3441 21.9705L27.6561 22.6962ZM30.4032 25.1942L33.4032 25.7868L33.597 24.8058L30.597 24.2132L30.4032 25.1942ZM33.118 25.6187L34.618 27.3965L35.3823 26.7516L33.8823 24.9739L33.118 25.6187ZM34.5776 29.1771L33.0776 31.5474L33.9226 32.0822L35.4226 29.7118L34.5776 29.1771ZM33.1901 31.4225L31.6901 32.6077L32.3101 33.3923L33.8101 32.2071L33.1901 31.4225ZM32.0001 32.5H24.0001V33.5H32.0001V32.5ZM24.2032 32.5431L20.2032 30.7653L19.7971 31.6791L23.7971 33.4569L24.2032 32.5431ZM20.2819 30.8092L3.78195 19.55L3.2183 20.376L19.7183 31.6352L20.2819 30.8092ZM3.88227 19.6405L1.38227 16.6776L0.617976 17.3224L3.11798 20.2854L3.88227 19.6405ZM1.49736 17.0524L1.99736 12.3117L1.00288 12.2068L0.50288 16.9476L1.49736 17.0524ZM1.98145 12.3946L2.98145 8.83908L2.0188 8.56833L1.0188 12.1239L1.98145 12.3946ZM2.90237 9.00068L6.40237 4.25994L5.59787 3.66599L2.09787 8.40673L2.90237 9.00068ZM6.32318 4.34458L9.82318 1.38162L9.17706 0.618383L5.67706 3.58135L6.32318 4.34458ZM5.5188 4.09834L6.5188 7.65389L7.48145 7.38315L6.48145 3.82759L5.5188 4.09834ZM6.64877 7.87426L9.64877 10.8372L10.3515 10.1257L7.35147 7.16278L6.64877 7.87426ZM10.1838 10.9465L14.6838 9.16873L14.3164 8.23868L9.81641 10.0165L10.1838 10.9465ZM14.6422 9.1831L16.6422 8.59051L16.3581 7.63171L14.3581 8.2243L14.6422 9.1831ZM16.6422 8.59051L18.6422 7.99792L18.3581 7.03912L16.3581 7.63171L16.6422 8.59051ZM16.9894 8.21431L17.4894 5.84394L16.5109 5.63754L16.0109 8.00791L16.9894 8.21431ZM17.2899 6.14822L19.7899 4.37044L19.2104 3.55549L16.7104 5.33326L17.2899 6.14822ZM19.6275 4.44647L24.1275 3.26129L23.8728 2.29427L19.3728 3.47945L19.6275 4.44647ZM23.5029 2.72533L23.0029 7.46607L23.9974 7.57096L24.4974 2.83022L23.5029 2.72533ZM35.0001 28.9444H25.0001V29.9444H35.0001V28.9444ZM25.3666 29.1043L19.8666 23.1784L19.1336 23.8587L24.6336 29.7846L25.3666 29.1043ZM19.5001 23.0185H15.5001V24.0185H19.5001V23.0185ZM15.8012 23.1193L10.3012 18.9712L9.69905 19.7696L15.199 23.9177L15.8012 23.1193ZM10.4894 19.2672L9.48936 14.5264L8.51089 14.7328L9.51089 19.4736L10.4894 19.2672ZM9.33901 14.262L4.83901 10.1138L4.16123 10.8491L8.66123 14.9973L9.33901 14.262ZM4.8323 10.1078L2.8323 8.33L2.16794 9.07741L4.16794 10.8552L4.8323 10.1078ZM22.597 13.3424L25.597 12.7498L25.4032 11.7687L22.4032 12.3613L22.597 13.3424ZM25.0719 12.0012L22.5719 16.1493L23.4284 16.6655L25.9284 12.5174L25.0719 12.0012ZM23.1605 16.881L26.6605 15.6958L26.3398 14.7486L22.8398 15.9338L23.1605 16.881ZM26.0497 15.0051L24.0497 19.1532L24.9505 19.5875L26.9505 15.4394L26.0497 15.0051ZM24.6838 19.8354L27.6838 18.6502L27.3164 17.7202L24.3164 18.9053L24.6838 19.8354ZM27.0497 17.968L25.0497 22.1162L25.9505 22.5505L27.9505 18.4023L27.0497 17.968ZM25.755 22.7635L28.755 20.9857L28.2452 20.1254L25.2452 21.9032L25.755 22.7635ZM34.5001 27.0741V29.4444H35.5001V27.0741H34.5001Z" fill="#FF0303"/>
<path d="M9.50012 1L9.99315 0.916801C9.96325 0.739626 9.84059 0.592117 9.67184 0.53041C9.50308 0.468703 9.3142 0.502288 9.17706 0.618383L9.50012 1ZM10.0001 3.96296L9.50709 4.04616C9.52364 4.1442 9.56903 4.23508 9.63748 4.30719L10.0001 3.96296ZM18.5001 7.51852V7.01852C18.452 7.01852 18.4042 7.02546 18.3581 7.03912L18.5001 7.51852ZM24.0001 12.2593L23.5029 12.3117C23.5077 12.357 23.5186 12.4014 23.5354 12.4438L24.0001 12.2593ZM28.0001 22.3333L27.5354 22.5179C27.5622 22.5853 27.6034 22.6462 27.6561 22.6962L28.0001 22.3333ZM30.5001 24.7037L30.1561 25.0665C30.2247 25.1316 30.3104 25.1759 30.4032 25.1942L30.5001 24.7037ZM33.5001 25.2963L33.8823 24.9739C33.809 24.8871 33.7084 24.8278 33.597 24.8058L33.5001 25.2963ZM35.0001 27.0741H35.5001C35.5001 26.9561 35.4584 26.8418 35.3823 26.7516L35.0001 27.0741ZM35.0001 29.4444L35.4226 29.7118C35.4733 29.6318 35.5001 29.5391 35.5001 29.4444H35.0001ZM33.5001 31.8148L33.8101 32.2071C33.8544 32.1721 33.8924 32.1299 33.9226 32.0822L33.5001 31.8148ZM32.0001 33V33.5C32.1126 33.5 32.2218 33.4621 32.3101 33.3923L32.0001 33ZM24.0001 33L23.7971 33.4569C23.861 33.4853 23.9302 33.5 24.0001 33.5V33ZM20.0001 31.2222L19.7183 31.6352C19.7432 31.6522 19.7695 31.6669 19.7971 31.6791L20.0001 31.2222ZM3.50012 19.963L3.11798 20.2854C3.14716 20.32 3.18091 20.3505 3.2183 20.376L3.50012 19.963ZM1.00012 17L0.50288 16.9476C0.488598 17.083 0.530164 17.2184 0.617976 17.3224L1.00012 17ZM1.50012 12.2593L1.0188 12.1239C1.01116 12.151 1.00584 12.1788 1.00288 12.2068L1.50012 12.2593ZM2.50012 8.7037L2.09787 8.40673C2.06196 8.45537 2.03517 8.51013 2.0188 8.56833L2.50012 8.7037ZM6.00012 3.96296L5.67706 3.58135C5.64747 3.6064 5.6209 3.6348 5.59787 3.66599L6.00012 3.96296ZM7.00012 7.51852L6.5188 7.65389C6.54228 7.73738 6.58707 7.81332 6.64877 7.87426L7.00012 7.51852ZM10.0001 10.4815L9.64877 10.8372C9.78973 10.9764 9.99958 11.0193 10.1838 10.9465L10.0001 10.4815ZM17.0001 5.74074L16.7104 5.33326C16.608 5.40604 16.5368 5.51467 16.5109 5.63754L17.0001 5.74074ZM19.5001 3.96296L19.3728 3.47945C19.3145 3.4948 19.2595 3.52056 19.2104 3.55549L19.5001 3.96296ZM24.0001 2.77778L24.4974 2.83022C24.5146 2.6668 24.4504 2.50534 24.3257 2.39833C24.201 2.29132 24.0317 2.25241 23.8728 2.29427L24.0001 2.77778ZM25.0001 29.4444L24.6336 29.7846C24.7283 29.8865 24.861 29.9444 25.0001 29.9444V29.4444ZM19.5001 23.5185L19.8666 23.1784C19.772 23.0764 19.6392 23.0185 19.5001 23.0185V23.5185ZM15.5001 23.5185L15.199 23.9177C15.2858 23.9831 15.3915 24.0185 15.5001 24.0185V23.5185ZM10.0001 19.3704L9.51089 19.4736C9.53581 19.5917 9.60264 19.6969 9.69905 19.7696L10.0001 19.3704ZM9.00012 14.6296L9.48936 14.5264C9.46792 14.4248 9.41537 14.3324 9.33901 14.262L9.00012 14.6296ZM4.50012 10.4815L4.83907 10.1138L4.8323 10.1078L4.50012 10.4815ZM22.4032 12.3613C22.1323 12.4148 21.9561 12.6778 22.0096 12.9487C22.0631 13.2197 22.3261 13.3959 22.597 13.3424L22.4032 12.3613ZM25.5001 12.2593L25.9284 12.5174C26.0305 12.3479 26.0231 12.1341 25.9095 11.9721C25.7958 11.8101 25.5973 11.7304 25.4032 11.7687L25.5001 12.2593ZM23.0001 16.4074L22.5719 16.1493C22.4636 16.3291 22.479 16.5573 22.6105 16.7208C22.7421 16.8843 22.9617 16.9483 23.1605 16.881L23.0001 16.4074ZM26.5001 15.2222L26.9505 15.4394C27.038 15.258 27.0081 15.0419 26.8747 14.891C26.7413 14.7402 26.5305 14.6841 26.3398 14.7486L26.5001 15.2222ZM24.5001 19.3704L24.0497 19.1532C23.9603 19.3387 23.9937 19.56 24.1339 19.7108C24.2741 19.8616 24.4924 19.911 24.6838 19.8354L24.5001 19.3704ZM27.5001 18.1852L27.9505 18.4023C28.0399 18.2169 28.0065 17.9956 27.8663 17.8448C27.7262 17.694 27.5079 17.6445 27.3164 17.7202L27.5001 18.1852ZM25.5001 22.3333L25.0497 22.1162C24.954 22.3148 24.9996 22.5526 25.162 22.7017C25.3245 22.8508 25.5654 22.8759 25.755 22.7635L25.5001 22.3333ZM28.755 20.9857C28.9926 20.8449 29.071 20.5382 28.9303 20.3007C28.7895 20.0631 28.4828 19.9846 28.2452 20.1254L28.755 20.9857ZM9.00709 1.0832L9.50709 4.04616L10.4932 3.87976L9.99315 0.916801L9.00709 1.0832ZM9.63748 4.30719L14.1375 9.04793L14.8628 8.35948L10.3628 3.61874L9.63748 4.30719ZM18.5001 8.01852H23.5001V7.01852H18.5001V8.01852ZM23.0029 7.57096L23.5029 12.3117L24.4974 12.2068L23.9974 7.46607L23.0029 7.57096ZM23.5354 12.4438L27.5354 22.5179L28.4648 22.1488L24.4648 12.0747L23.5354 12.4438ZM27.6561 22.6962L30.1561 25.0665L30.8441 24.3409L28.3441 21.9705L27.6561 22.6962ZM30.4032 25.1942L33.4032 25.7868L33.597 24.8058L30.597 24.2132L30.4032 25.1942ZM33.118 25.6187L34.618 27.3965L35.3823 26.7516L33.8823 24.9739L33.118 25.6187ZM34.5776 29.1771L33.0776 31.5474L33.9226 32.0822L35.4226 29.7118L34.5776 29.1771ZM33.1901 31.4225L31.6901 32.6077L32.3101 33.3923L33.8101 32.2071L33.1901 31.4225ZM32.0001 32.5H24.0001V33.5H32.0001V32.5ZM24.2032 32.5431L20.2032 30.7653L19.7971 31.6791L23.7971 33.4569L24.2032 32.5431ZM20.2819 30.8092L3.78195 19.55L3.2183 20.376L19.7183 31.6352L20.2819 30.8092ZM3.88227 19.6405L1.38227 16.6776L0.617976 17.3224L3.11798 20.2854L3.88227 19.6405ZM1.49736 17.0524L1.99736 12.3117L1.00288 12.2068L0.50288 16.9476L1.49736 17.0524ZM1.98145 12.3946L2.98145 8.83908L2.0188 8.56833L1.0188 12.1239L1.98145 12.3946ZM2.90237 9.00068L6.40237 4.25994L5.59787 3.66599L2.09787 8.40673L2.90237 9.00068ZM6.32318 4.34458L9.82318 1.38162L9.17706 0.618383L5.67706 3.58135L6.32318 4.34458ZM5.5188 4.09834L6.5188 7.65389L7.48145 7.38315L6.48145 3.82759L5.5188 4.09834ZM6.64877 7.87426L9.64877 10.8372L10.3515 10.1257L7.35147 7.16278L6.64877 7.87426ZM10.1838 10.9465L14.6838 9.16873L14.3164 8.23868L9.81641 10.0165L10.1838 10.9465ZM14.6422 9.1831L16.6422 8.59051L16.3581 7.63171L14.3581 8.2243L14.6422 9.1831ZM16.6422 8.59051L18.6422 7.99792L18.3581 7.03912L16.3581 7.63171L16.6422 8.59051ZM16.9894 8.21431L17.4894 5.84394L16.5109 5.63754L16.0109 8.00791L16.9894 8.21431ZM17.2899 6.14822L19.7899 4.37044L19.2104 3.55549L16.7104 5.33326L17.2899 6.14822ZM19.6275 4.44647L24.1275 3.26129L23.8728 2.29427L19.3728 3.47945L19.6275 4.44647ZM23.5029 2.72533L23.0029 7.46607L23.9974 7.57096L24.4974 2.83022L23.5029 2.72533ZM35.0001 28.9444H25.0001V29.9444H35.0001V28.9444ZM25.3666 29.1043L19.8666 23.1784L19.1336 23.8587L24.6336 29.7846L25.3666 29.1043ZM19.5001 23.0185H15.5001V24.0185H19.5001V23.0185ZM15.8012 23.1193L10.3012 18.9712L9.69905 19.7696L15.199 23.9177L15.8012 23.1193ZM10.4894 19.2672L9.48936 14.5264L8.51089 14.7328L9.51089 19.4736L10.4894 19.2672ZM9.33901 14.262L4.83901 10.1138L4.16123 10.8491L8.66123 14.9973L9.33901 14.262ZM4.8323 10.1078L2.8323 8.33L2.16794 9.07741L4.16794 10.8552L4.8323 10.1078ZM22.597 13.3424L25.597 12.7498L25.4032 11.7687L22.4032 12.3613L22.597 13.3424ZM25.0719 12.0012L22.5719 16.1493L23.4284 16.6655L25.9284 12.5174L25.0719 12.0012ZM23.1605 16.881L26.6605 15.6958L26.3398 14.7486L22.8398 15.9338L23.1605 16.881ZM26.0497 15.0051L24.0497 19.1532L24.9505 19.5875L26.9505 15.4394L26.0497 15.0051ZM24.6838 19.8354L27.6838 18.6502L27.3164 17.7202L24.3164 18.9053L24.6838 19.8354ZM27.0497 17.968L25.0497 22.1162L25.9505 22.5505L27.9505 18.4023L27.0497 17.968ZM25.755 22.7635L28.755 20.9857L28.2452 20.1254L25.2452 21.9032L25.755 22.7635ZM34.5001 27.0741V29.4444H35.5001V27.0741H34.5001Z" fill="black" fill-opacity="0.2"/>
</svg>
