<svg width="22" height="22" viewBox="0 0 22 22" fill="none" xmlns="http://www.w3.org/2000/svg">
<path d="M17.2026 13.8488C15.9824 13.8488 14.8943 14.3969 14.1982 15.2441L8.37004 12.1752C8.50661 11.8056 8.5815 11.4069 8.5815 10.9958C8.5815 10.5805 8.50661 10.186 8.36564 9.81223L14.1894 6.74745C14.8811 7.59878 15.9736 8.1511 17.1982 8.1511C19.2863 8.1511 20.9912 6.54811 20.9912 4.57552C20.9912 2.60293 19.2907 0.999939 17.1982 0.999939C15.1057 0.999939 13.4053 2.60293 13.4053 4.57552C13.4053 4.9908 13.4802 5.38947 13.6211 5.75908L7.80176 8.82386C7.11013 7.96838 6.01762 7.42021 4.79295 7.42021C2.70485 7.42021 1 9.02319 1 10.9958C1 12.9684 2.70485 14.5714 4.79736 14.5714C6.02203 14.5714 7.11454 14.019 7.81057 13.1636L13.6344 16.2325C13.4934 16.6063 13.4141 17.0091 13.4141 17.4244C13.4141 19.3928 15.1145 20.9999 17.207 20.9999C19.2996 20.9999 21 19.3969 21 17.4244C21 15.4518 19.2952 13.8488 17.2026 13.8488ZM17.2026 2.12535C18.6388 2.12535 19.8062 3.22585 19.8062 4.57967C19.8062 5.93349 18.6388 7.03399 17.2026 7.03399C15.7665 7.03399 14.5991 5.93349 14.5991 4.57967C14.5991 3.22585 15.7709 2.12535 17.2026 2.12535ZM4.79736 13.4501C3.36123 13.4501 2.19383 12.3496 2.19383 10.9958C2.19383 9.64197 3.36123 8.54147 4.79736 8.54147C6.23348 8.54147 7.40088 9.64197 7.40088 10.9958C7.40088 12.3496 6.22907 13.4501 4.79736 13.4501ZM17.2026 19.8745C15.7665 19.8745 14.5991 18.774 14.5991 17.4202C14.5991 16.0664 15.7665 14.9659 17.2026 14.9659C18.6388 14.9659 19.8062 16.0664 19.8062 17.4202C19.8062 18.774 18.6388 19.8745 17.2026 19.8745Z" fill="white" stroke="white"/>
</svg>
