<svg width="50" height="50" viewBox="0 0 50 50" fill="none" xmlns="http://www.w3.org/2000/svg">
<g clip-path="url(#clip0)">
<path d="M10.8332 40.8333V45.1534C9.68612 45.5575 8.99764 46.7297 9.20353 47.9285C9.40983 49.1272 10.4503 50.0024 11.6665 50H38.3332C39.5494 50.0024 40.5898 49.1272 40.7961 47.9285C41.002 46.7297 40.3136 45.5575 39.1665 45.1534V40.8333C39.1637 38.5331 37.3 36.6695 34.9998 36.6667H27.0555C30.9166 32.7283 40.8332 21.2801 40.8332 7.5C40.8332 6.93156 40.825 6.36759 40.8092 5.80851C40.7957 5.35767 40.4267 4.99878 39.9758 4.99919C36.7731 4.99064 34.1665 3.12174 34.1665 0.833333C34.1665 0.373128 33.7934 0 33.3332 0H16.6665C16.2063 0 15.8332 0.373128 15.8332 0.833333C15.8332 3.12174 13.2266 4.99064 10.0214 5C9.57056 5 9.20109 5.35848 9.18807 5.80933C9.17383 6.36841 9.1665 6.93237 9.1665 7.5C9.1665 21.2801 19.0831 32.7283 22.9442 36.6667H14.9998C12.6996 36.6695 10.836 38.5331 10.8332 40.8333ZM10.8397 6.63005C14.2255 6.33423 16.9399 4.27409 17.4233 1.66667H32.5763C33.0597 4.27409 35.7742 6.33342 39.16 6.63005C39.1645 6.91813 39.1665 7.20825 39.1665 7.5C39.1665 21.696 27.685 33.7325 24.9998 36.3517C22.3131 33.7341 10.8332 21.7098 10.8332 7.5C10.8332 7.20825 10.8352 6.91813 10.8397 6.63005ZM38.3332 48.3333H11.6665C11.2063 48.3333 10.8332 47.9602 10.8332 47.5C10.8332 47.0398 11.2063 46.6667 11.6665 46.6667H38.3332C38.7934 46.6667 39.1665 47.0398 39.1665 47.5C39.1665 47.9602 38.7934 48.3333 38.3332 48.3333ZM37.4998 40.8333V45H12.4998V40.8333C12.4998 39.4527 13.6192 38.3333 14.9998 38.3333H34.9998C36.3804 38.3333 37.4998 39.4527 37.4998 40.8333Z" fill="#146EB4"/>
<path d="M25.5542 33.1227C26.0417 32.6894 37.5 22.3451 37.5 9.3186C37.5 8.87793 37.4939 8.44051 37.4817 8.00594C37.4687 7.55509 37.0992 7.19661 36.6484 7.19702C34.259 7.1901 32.314 5.8335 32.314 4.16683C32.314 3.70662 31.9409 3.3335 31.4807 3.3335H18.5193C18.0591 3.3335 17.686 3.70662 17.686 4.16683C17.686 5.8335 15.741 7.1901 13.3525 7.19702C12.9016 7.19661 12.5321 7.55509 12.5191 8.00594C12.5065 8.44051 12.5 8.87793 12.5 9.3186C12.5 22.3451 23.9583 32.6894 24.4458 33.1227C24.7616 33.4039 25.2384 33.4039 25.5542 33.1227ZM14.1667 9.3186C14.1667 9.15177 14.1667 8.98535 14.1667 8.81852C16.7375 8.53695 18.7968 6.98014 19.2501 5.00016H30.7434C31.2 6.98014 33.2593 8.53695 35.8268 8.81852V9.3186C35.8333 20.0002 27.2835 29.1103 25 31.3511C22.7165 29.1103 14.1667 20.0002 14.1667 9.3186Z" fill="#146EB4"/>
<path d="M20.0503 13.0503C18.7281 14.3724 18 16.1302 18 18C18 19.8698 18.7281 21.6276 20.0503 22.9497C21.3724 24.2719 23.1302 25 25 25C26.8698 25 28.6276 24.2719 29.9497 22.9497C31.2719 21.6276 32 19.8698 32 18C32 16.1302 31.2719 14.3724 29.9497 13.0503C28.6276 11.7282 26.8698 11 25 11C23.1302 11 21.3724 11.7281 20.0503 13.0503ZM31.5805 18.2079C31.5287 19.8887 30.8501 21.4613 29.6557 22.6557C29.6518 22.6596 29.6477 22.6634 29.6438 22.6674C29.0604 22.0876 28.5965 21.4142 28.2638 20.6627C27.9197 19.8855 27.7329 19.0607 27.7068 18.208H31.5805V18.2079ZM24.7921 18.2079V22.1306H25.2079V18.2079H27.2906C27.3169 19.119 27.5158 20.0005 27.8835 20.831C28.2352 21.6254 28.7248 22.3376 29.3398 22.9514C28.1903 23.9617 26.7444 24.5332 25.2079 24.5806V22.6851H24.7921V24.5806C23.2556 24.5332 21.8097 23.9617 20.6602 22.9514C21.2752 22.3376 21.7648 21.6254 22.1165 20.8309C22.4841 20.0004 22.6831 19.119 22.7093 18.2079H24.7921ZM22.2932 18.2079C22.2671 19.0606 22.0803 19.8855 21.7362 20.6626C21.4035 21.4142 20.9396 22.0877 20.3563 22.6674C20.3523 22.6634 20.3483 22.6596 20.3443 22.6557C19.1499 21.4613 18.4712 19.8886 18.4195 18.2079H22.2932V18.2079ZM18.4194 17.7921C18.4712 16.1113 19.1498 14.5387 20.3443 13.3443C20.3482 13.3404 20.3523 13.3366 20.3562 13.3326C20.9396 13.9123 21.4035 14.5858 21.7362 15.3374C22.0803 16.1145 22.2671 16.9394 22.2932 17.7921H18.4194V17.7921ZM24.7921 17.7921H22.7094C22.6831 16.881 22.4842 15.9995 22.1165 15.169C21.7648 14.3746 21.2752 13.6624 20.6603 13.0486C21.8097 12.0383 23.2556 11.4668 24.7921 11.4194V17.7921H24.7921ZM29.6557 13.3443C30.8501 14.5387 31.5288 16.1113 31.5806 17.7921H27.7067C27.7329 16.9394 27.9197 16.1145 28.2637 15.3374C28.5965 14.5858 29.0604 13.9124 29.6437 13.3326C29.6477 13.3366 29.6518 13.3404 29.6557 13.3443ZM27.8835 15.1691C27.5158 15.9996 27.3169 16.881 27.2906 17.7921H25.2079V11.4194C26.7444 11.4668 28.1903 12.0384 29.3398 13.0486C28.7248 13.6624 28.2352 14.3746 27.8835 15.1691Z" fill="#146EB4" stroke="#146EB4" stroke-width="0.5"/>
<path d="M14.9772 42.7052C14.9643 42.6915 14.9472 42.6827 14.9288 42.6802L14.3372 42.5922L14.0742 42.0427C14.0497 42.001 13.9969 41.9876 13.9562 42.0126C13.9442 42.02 13.9341 42.0303 13.9268 42.0427L13.6628 42.5902L13.0712 42.6781C13.0264 42.6841 12.9948 42.7262 13.0007 42.772C13.0031 42.7909 13.0117 42.8083 13.0252 42.8215L13.453 43.2476L13.3506 43.8495C13.3433 43.8957 13.374 43.9393 13.4192 43.9468C13.4367 43.9497 13.4546 43.9468 13.4704 43.9385L14.0005 43.6558L14.5296 43.9406C14.5704 43.962 14.6203 43.9456 14.6413 43.904C14.6494 43.8878 14.6522 43.8695 14.6494 43.8516L14.547 43.2497L14.9749 42.8236C15.0075 42.7916 15.0085 42.7385 14.9772 42.7052ZM14.4017 43.1586C14.3825 43.178 14.3737 43.2057 14.3782 43.2329L14.458 43.7103L14.0384 43.4852C14.0143 43.4724 13.9857 43.4724 13.9616 43.4852L13.542 43.7103L13.6218 43.2329C13.6263 43.2057 13.6175 43.178 13.5983 43.1586L13.2595 42.8205L13.7283 42.7514C13.7552 42.7474 13.7786 42.7302 13.7907 42.7053L13.9954 42.2709L14.2001 42.7053C14.2122 42.7302 14.2356 42.7474 14.2625 42.7514L14.7313 42.8205L14.4017 43.1586Z" fill="#146EB4"/>
<path d="M17.9772 42.7052C17.9643 42.6915 17.9472 42.6827 17.9288 42.6802L17.3372 42.5922L17.0742 42.0427C17.0497 42.001 16.9969 41.9876 16.9562 42.0126C16.9442 42.02 16.9341 42.0303 16.9268 42.0427L16.6628 42.5902L16.0712 42.6781C16.0264 42.6841 15.9948 42.7262 16.0007 42.772C16.0031 42.7909 16.0117 42.8083 16.0252 42.8215L16.453 43.2476L16.3506 43.8495C16.3433 43.8957 16.374 43.9393 16.4192 43.9468C16.4367 43.9497 16.4546 43.9468 16.4704 43.9385L17.0005 43.6558L17.5296 43.9406C17.5704 43.962 17.6203 43.9456 17.6413 43.904C17.6494 43.8878 17.6522 43.8695 17.6494 43.8516L17.547 43.2497L17.9749 42.8236C18.0075 42.7916 18.0085 42.7385 17.9772 42.7052ZM17.4017 43.1586C17.3825 43.178 17.3737 43.2057 17.3782 43.2329L17.458 43.7103L17.0384 43.4852C17.0143 43.4724 16.9857 43.4724 16.9616 43.4852L16.542 43.7103L16.6218 43.2329C16.6263 43.2057 16.6175 43.178 16.5983 43.1586L16.2595 42.8205L16.7283 42.7514C16.7552 42.7474 16.7786 42.7302 16.7907 42.7053L16.9954 42.2709L17.2001 42.7053C17.2122 42.7302 17.2356 42.7474 17.2625 42.7514L17.7313 42.8205L17.4017 43.1586Z" fill="#146EB4"/>
<path d="M20.9772 42.7052C20.9643 42.6915 20.9472 42.6827 20.9288 42.6802L20.3372 42.5922L20.0742 42.0427C20.0497 42.001 19.9969 41.9876 19.9562 42.0126C19.9442 42.02 19.9341 42.0303 19.9268 42.0427L19.6628 42.5902L19.0712 42.6781C19.0264 42.6841 18.9948 42.7262 19.0007 42.772C19.0031 42.7909 19.0117 42.8083 19.0252 42.8215L19.453 43.2476L19.3506 43.8495C19.3433 43.8957 19.374 43.9393 19.4192 43.9468C19.4367 43.9497 19.4546 43.9468 19.4704 43.9385L20.0005 43.6558L20.5296 43.9406C20.5704 43.962 20.6203 43.9456 20.6413 43.904C20.6494 43.8878 20.6522 43.8695 20.6494 43.8516L20.547 43.2497L20.9749 42.8236C21.0075 42.7916 21.0085 42.7385 20.9772 42.7052ZM20.4017 43.1586C20.3825 43.178 20.3737 43.2057 20.3782 43.2329L20.458 43.7103L20.0384 43.4852C20.0143 43.4724 19.9857 43.4724 19.9616 43.4852L19.542 43.7103L19.6218 43.2329C19.6263 43.2057 19.6175 43.178 19.5983 43.1586L19.2595 42.8205L19.7283 42.7514C19.7552 42.7474 19.7786 42.7302 19.7907 42.7053L19.9954 42.2709L20.2001 42.7053C20.2122 42.7302 20.2356 42.7474 20.2625 42.7514L20.7313 42.8205L20.4017 43.1586Z" fill="#146EB4"/>
<path d="M26.9543 7.41038C26.9285 7.38296 26.8944 7.36534 26.8576 7.36037L25.6745 7.1845L25.1484 6.08531C25.0995 6.00206 24.9939 5.97513 24.9125 6.02514C24.8884 6.03998 24.8682 6.06063 24.8537 6.08531L24.3255 7.18031L23.1424 7.35618C23.0528 7.36825 22.9896 7.45236 23.0014 7.54409C23.0063 7.58178 23.0235 7.61667 23.0503 7.64302L23.9059 8.49516L23.7012 9.69903C23.6866 9.79149 23.748 9.87859 23.8384 9.89359C23.8733 9.8994 23.9092 9.89359 23.9407 9.877L25.001 9.3117L26.0593 9.88118C26.1407 9.92403 26.2407 9.89123 26.2826 9.80793C26.2988 9.77569 26.3045 9.739 26.2988 9.70322L26.0941 8.49934L26.9497 7.64721C27.0149 7.58311 27.017 7.47709 26.9543 7.41038ZM25.8034 8.31719C25.765 8.35595 25.7475 8.41141 25.7564 8.46584L25.916 9.42057L25.0768 8.97042C25.0287 8.94472 24.9714 8.94472 24.9233 8.97042L24.084 9.42057L24.2437 8.46584C24.2525 8.41141 24.235 8.35595 24.1966 8.31719L23.5191 7.64093L24.4566 7.50274C24.5104 7.49486 24.5571 7.46042 24.5814 7.41062L24.9908 6.54173L25.4002 7.41062C25.4245 7.46042 25.4712 7.49486 25.525 7.50274L26.4625 7.64093L25.8034 8.31719Z" fill="#146EB4"/>
</g>
<defs>
<clipPath id="clip0">
<rect width="50" height="50" fill="white"/>
</clipPath>
</defs>
</svg>
