<svg width="40" height="40" viewBox="0 0 40 40" fill="none" xmlns="http://www.w3.org/2000/svg">
<path d="M20.4032 29.2957C20.5665 29.073 20.5184 28.7601 20.2957 28.5968C20.073 28.4335 19.7601 28.4816 19.5968 28.7043L20.4032 29.2957ZM14.5 36.5L14.0257 36.6581L14.3314 37.5754L14.9032 36.7957L14.5 36.5ZM12 29L12.342 28.6352C12.175 28.4787 11.923 28.4555 11.7303 28.579C11.5376 28.7024 11.4533 28.941 11.5257 29.1581L12 29ZM19.658 36.8648C19.8595 37.0536 20.1759 37.0434 20.3648 36.842C20.5536 36.6405 20.5434 36.3241 20.342 36.1352L19.658 36.8648ZM19.5968 28.7043L14.0968 36.2043L14.9032 36.7957L20.4032 29.2957L19.5968 28.7043ZM14.9743 36.3419L12.4743 28.8419L11.5257 29.1581L14.0257 36.6581L14.9743 36.3419ZM11.658 29.3648L19.658 36.8648L20.342 36.1352L12.342 28.6352L11.658 29.3648Z" fill="#FF0303"/>
<path d="M20.4032 29.2957C20.5665 29.073 20.5184 28.7601 20.2957 28.5968C20.073 28.4335 19.7601 28.4816 19.5968 28.7043L20.4032 29.2957ZM14.5 36.5L14.0257 36.6581L14.3314 37.5754L14.9032 36.7957L14.5 36.5ZM12 29L12.342 28.6352C12.175 28.4787 11.923 28.4555 11.7303 28.579C11.5376 28.7024 11.4533 28.941 11.5257 29.1581L12 29ZM19.658 36.8648C19.8595 37.0536 20.1759 37.0434 20.3648 36.842C20.5536 36.6405 20.5434 36.3241 20.342 36.1352L19.658 36.8648ZM19.5968 28.7043L14.0968 36.2043L14.9032 36.7957L20.4032 29.2957L19.5968 28.7043ZM14.9743 36.3419L12.4743 28.8419L11.5257 29.1581L14.0257 36.6581L14.9743 36.3419ZM11.658 29.3648L19.658 36.8648L20.342 36.1352L12.342 28.6352L11.658 29.3648Z" fill="black" fill-opacity="0.2"/>
<path d="M19.5968 29.2957C19.4335 29.073 19.4816 28.7601 19.7043 28.5968C19.927 28.4335 20.2399 28.4816 20.4032 28.7043L19.5968 29.2957ZM25.5 36.5L25.9743 36.6581L25.6686 37.5754L25.0968 36.7957L25.5 36.5ZM28 29L27.658 28.6352C27.825 28.4787 28.077 28.4555 28.2697 28.579C28.4624 28.7024 28.5467 28.941 28.4743 29.1581L28 29ZM20.342 36.8648C20.1405 37.0536 19.8241 37.0434 19.6352 36.842C19.4464 36.6405 19.4566 36.3241 19.658 36.1352L20.342 36.8648ZM20.4032 28.7043L25.9032 36.2043L25.0968 36.7957L19.5968 29.2957L20.4032 28.7043ZM25.0257 36.3419L27.5257 28.8419L28.4743 29.1581L25.9743 36.6581L25.0257 36.3419ZM28.342 29.3648L20.342 36.8648L19.658 36.1352L27.658 28.6352L28.342 29.3648Z" fill="#FF0303"/>
<path d="M19.5968 29.2957C19.4335 29.073 19.4816 28.7601 19.7043 28.5968C19.927 28.4335 20.2399 28.4816 20.4032 28.7043L19.5968 29.2957ZM25.5 36.5L25.9743 36.6581L25.6686 37.5754L25.0968 36.7957L25.5 36.5ZM28 29L27.658 28.6352C27.825 28.4787 28.077 28.4555 28.2697 28.579C28.4624 28.7024 28.5467 28.941 28.4743 29.1581L28 29ZM20.342 36.8648C20.1405 37.0536 19.8241 37.0434 19.6352 36.842C19.4464 36.6405 19.4566 36.3241 19.658 36.1352L20.342 36.8648ZM20.4032 28.7043L25.9032 36.2043L25.0968 36.7957L19.5968 29.2957L20.4032 28.7043ZM25.0257 36.3419L27.5257 28.8419L28.4743 29.1581L25.9743 36.6581L25.0257 36.3419ZM28.342 29.3648L20.342 36.8648L19.658 36.1352L27.658 28.6352L28.342 29.3648Z" fill="black" fill-opacity="0.2"/>
<path d="M20 26H11.5V12.5H20" stroke="#FF0303"/>
<path d="M20 26H11.5V12.5H20" stroke="black" stroke-opacity="0.2"/>
<path d="M20 26H28.5V12.5H20" stroke="#FF0303"/>
<path d="M20 26H28.5V12.5H20" stroke="black" stroke-opacity="0.2"/>
<path d="M4 4V3.5C3.72386 3.5 3.5 3.72386 3.5 4H4ZM4 30.25H3.5C3.5 30.3725 3.54494 30.4907 3.6263 30.5822L4 30.25ZM6 32.5L5.6263 32.8322C5.72118 32.9389 5.85718 33 6 33V32.5ZM8 33C8.27614 33 8.5 32.7761 8.5 32.5C8.5 32.2239 8.27614 32 8 32V33ZM20 3.5H4V4.5H20V3.5ZM3.5 4V30.25H4.5V4H3.5ZM3.6263 30.5822L5.6263 32.8322L6.3737 32.1678L4.3737 29.9178L3.6263 30.5822ZM6 33H8V32H6V33Z" fill="#FF0303"/>
<path d="M4 4V3.5C3.72386 3.5 3.5 3.72386 3.5 4H4ZM4 30.25H3.5C3.5 30.3725 3.54494 30.4907 3.6263 30.5822L4 30.25ZM6 32.5L5.6263 32.8322C5.72118 32.9389 5.85718 33 6 33V32.5ZM8 33C8.27614 33 8.5 32.7761 8.5 32.5C8.5 32.2239 8.27614 32 8 32V33ZM20 3.5H4V4.5H20V3.5ZM3.5 4V30.25H4.5V4H3.5ZM3.6263 30.5822L5.6263 32.8322L6.3737 32.1678L4.3737 29.9178L3.6263 30.5822ZM6 33H8V32H6V33Z" fill="black" fill-opacity="0.2"/>
<path d="M36 4V3.5C36.2761 3.5 36.5 3.72386 36.5 4H36ZM36 30.25H36.5C36.5 30.3725 36.4551 30.4907 36.3737 30.5822L36 30.25ZM34 32.5L34.3737 32.8322C34.2788 32.9389 34.1428 33 34 33V32.5ZM32 33C31.7239 33 31.5 32.7761 31.5 32.5C31.5 32.2239 31.7239 32 32 32V33ZM20 3.5H36V4.5H20V3.5ZM36.5 4V30.25H35.5V4H36.5ZM36.3737 30.5822L34.3737 32.8322L33.6263 32.1678L35.6263 29.9178L36.3737 30.5822ZM34 33H32V32H34V33Z" fill="#FF0303"/>
<path d="M36 4V3.5C36.2761 3.5 36.5 3.72386 36.5 4H36ZM36 30.25H36.5C36.5 30.3725 36.4551 30.4907 36.3737 30.5822L36 30.25ZM34 32.5L34.3737 32.8322C34.2788 32.9389 34.1428 33 34 33V32.5ZM32 33C31.7239 33 31.5 32.7761 31.5 32.5C31.5 32.2239 31.7239 32 32 32V33ZM20 3.5H36V4.5H20V3.5ZM36.5 4V30.25H35.5V4H36.5ZM36.3737 30.5822L34.3737 32.8322L33.6263 32.1678L35.6263 29.9178L36.3737 30.5822ZM34 33H32V32H34V33Z" fill="black" fill-opacity="0.2"/>
</svg>
