<svg width="32" height="34" viewBox="0 0 32 34" fill="none" xmlns="http://www.w3.org/2000/svg">
<path d="M15.0005 22.8413L14.7741 22.3955C14.6062 22.4807 14.5005 22.653 14.5005 22.8413H15.0005ZM16.0005 22.3333L16.2269 21.8875C16.0846 21.8153 15.9164 21.8153 15.7741 21.8875L16.0005 22.3333ZM17.0005 22.8413H17.5005C17.5005 22.653 17.3948 22.4807 17.2269 22.3955L17.0005 22.8413ZM15.0205 11.4983C15.2964 11.4873 15.5111 11.2546 15.5001 10.9787C15.4891 10.7028 15.2564 10.4881 14.9805 10.4991L15.0205 11.4983ZM11.0005 11.1587L10.9805 10.6591C10.8535 10.6642 10.7333 10.7174 10.6442 10.808L11.0005 11.1587ZM9.00049 13.1905L8.64416 12.8397C8.55209 12.9333 8.50049 13.0592 8.50049 13.1905H9.00049ZM9.00049 23.3492H8.50049C8.50049 23.4805 8.55209 23.6064 8.64416 23.7L9.00049 23.3492ZM10.0005 24.3651L9.64416 24.7158C9.73815 24.8113 9.86652 24.8651 10.0005 24.8651V24.3651ZM12.5005 16.746C12.5005 16.4699 12.2766 16.246 12.0005 16.246C11.7243 16.246 11.5005 16.4699 11.5005 16.746H12.5005ZM12.0005 31.9841H11.5005C11.5005 32.1154 11.5521 32.2414 11.6442 32.3349L12.0005 31.9841ZM13.0005 33L12.6442 33.3508C12.7381 33.4462 12.8665 33.5 13.0005 33.5V33ZM14.5005 33V33.5C14.6345 33.5 14.7628 33.4462 14.8568 33.3508L14.5005 33ZM15.0005 32.4921L15.3568 32.8428C15.4489 32.7493 15.5005 32.6233 15.5005 32.4921H15.0005ZM16.8554 10.5463C16.5794 10.5389 16.3495 10.7566 16.3421 11.0326C16.3346 11.3087 16.5523 11.5385 16.8283 11.546L16.8554 10.5463ZM21.0005 11.1587L21.3568 10.808C21.2661 10.7158 21.1433 10.6624 21.014 10.6589L21.0005 11.1587ZM23.0005 13.1905H23.5005C23.5005 13.0592 23.4489 12.9333 23.3568 12.8397L23.0005 13.1905ZM23.0005 23.3492L23.3568 23.7C23.4489 23.6064 23.5005 23.4805 23.5005 23.3492H23.0005ZM22.0005 24.3651V24.8651C22.1345 24.8651 22.2628 24.8113 22.3568 24.7158L22.0005 24.3651ZM20.5005 16.746C20.5005 16.4699 20.2766 16.246 20.0005 16.246C19.7243 16.246 19.5005 16.4699 19.5005 16.746H20.5005ZM20.0005 31.9841L20.3568 32.3349C20.4489 32.2414 20.5005 32.1154 20.5005 31.9841H20.0005ZM19.0005 33V33.5C19.1345 33.5 19.2628 33.4462 19.3568 33.3508L19.0005 33ZM17.5005 33L17.1442 33.3508C17.2381 33.4462 17.3665 33.5 17.5005 33.5V33ZM17.0005 32.4921H16.5005C16.5005 32.6233 16.5521 32.7493 16.6442 32.8428L17.0005 32.4921ZM19.5005 6.07937C19.5005 8.72637 17.8288 10.6587 16.0005 10.6587V11.6587C18.5905 11.6587 20.5005 9.04287 20.5005 6.07937H19.5005ZM16.0005 10.6587C14.1722 10.6587 12.5005 8.72637 12.5005 6.07937H11.5005C11.5005 9.04287 13.4105 11.6587 16.0005 11.6587V10.6587ZM12.5005 6.07937C12.5005 3.43236 14.1722 1.5 16.0005 1.5V0.5C13.4105 0.5 11.5005 3.11586 11.5005 6.07937H12.5005ZM16.0005 1.5C17.8288 1.5 19.5005 3.43236 19.5005 6.07937H20.5005C20.5005 3.11586 18.5905 0.5 16.0005 0.5V1.5ZM15.2269 23.2871L16.2269 22.7791L15.7741 21.8875L14.7741 22.3955L15.2269 23.2871ZM15.7741 22.7791L16.7741 23.2871L17.2269 22.3955L16.2269 21.8875L15.7741 22.7791ZM14.9805 10.4991L10.9805 10.6591L11.0205 11.6583L15.0205 11.4983L14.9805 10.4991ZM10.6442 10.808L8.64416 12.8397L9.35681 13.5412L11.3568 11.5095L10.6442 10.808ZM8.50049 13.1905V23.3492H9.50049V13.1905H8.50049ZM8.64416 23.7L9.64416 24.7158L10.3568 24.0143L9.35681 22.9984L8.64416 23.7ZM10.0005 24.8651H12.0005V23.8651H10.0005V24.8651ZM12.5005 24.3651V16.746H11.5005V24.3651H12.5005ZM11.5005 24.3651V31.9841H12.5005V24.3651H11.5005ZM11.6442 32.3349L12.6442 33.3508L13.3568 32.6492L12.3568 31.6334L11.6442 32.3349ZM13.0005 33.5H14.5005V32.5H13.0005V33.5ZM14.8568 33.3508L15.3568 32.8428L14.6442 32.1413L14.1442 32.6492L14.8568 33.3508ZM15.5005 32.4921V22.8413H14.5005V32.4921H15.5005ZM16.8283 11.546L20.987 11.6585L21.014 10.6589L16.8554 10.5463L16.8283 11.546ZM20.6442 11.5095L22.6442 13.5412L23.3568 12.8397L21.3568 10.808L20.6442 11.5095ZM22.5005 13.1905V23.3492H23.5005V13.1905H22.5005ZM22.6442 22.9984L21.6442 24.0143L22.3568 24.7158L23.3568 23.7L22.6442 22.9984ZM22.0005 23.8651H20.0005V24.8651H22.0005V23.8651ZM20.5005 24.3651V16.746H19.5005V24.3651H20.5005ZM19.5005 24.3651V31.9841H20.5005V24.3651H19.5005ZM19.6442 31.6334L18.6442 32.6492L19.3568 33.3508L20.3568 32.3349L19.6442 31.6334ZM19.0005 32.5H17.5005V33.5H19.0005V32.5ZM17.8568 32.6492L17.3568 32.1413L16.6442 32.8428L17.1442 33.3508L17.8568 32.6492ZM17.5005 32.4921V22.8413H16.5005V32.4921H17.5005Z" fill="#146EB4"/>
<path d="M24.6442 9.28415C24.4504 9.48095 24.4529 9.79752 24.6497 9.99124C24.8465 10.185 25.1631 10.1825 25.3568 9.98567L24.6442 9.28415ZM31.5005 3.53574C31.4983 3.2596 31.2727 3.03751 30.9966 3.03969L26.4967 3.07512C26.2206 3.07729 25.9985 3.30291 26.0006 3.57904C26.0028 3.85518 26.2284 4.07726 26.5046 4.07509L30.5044 4.04359L30.5359 8.04347C30.5381 8.3196 30.7637 8.54169 31.0399 8.53952C31.316 8.53734 31.5381 8.31173 31.5359 8.0356L31.5005 3.53574ZM25.3568 9.98567L31.3568 3.89043L30.6442 3.18891L24.6442 9.28415L25.3568 9.98567Z" fill="#146EB4"/>
<path d="M24.6442 26.7476C24.4504 26.5508 24.4529 26.2342 24.6497 26.0405C24.8465 25.8468 25.1631 25.8493 25.3568 26.0461L24.6442 26.7476ZM31.5005 32.496C31.4983 32.7721 31.2727 32.9942 30.9966 32.992L26.4967 32.9566C26.2206 32.9544 25.9985 32.7288 26.0006 32.4527C26.0028 32.1766 26.2284 31.9545 26.5046 31.9566L30.5044 31.9881L30.5359 27.9883C30.5381 27.7121 30.7637 27.49 31.0399 27.4922C31.316 27.4944 31.5381 27.72 31.5359 27.9961L31.5005 32.496ZM25.3568 26.0461L31.3568 32.1413L30.6442 32.8428L24.6442 26.7476L25.3568 26.0461Z" fill="#146EB4"/>
<path d="M7.35681 9.28415C7.55053 9.48095 7.54804 9.79752 7.35125 9.99124C7.15445 10.185 6.83788 10.1825 6.64416 9.98567L7.35681 9.28415ZM0.500504 3.53574C0.502678 3.2596 0.728292 3.03751 1.00443 3.03969L5.50429 3.07512C5.78042 3.07729 6.00251 3.30291 6.00033 3.57904C5.99816 3.85518 5.77255 4.07726 5.49641 4.07509L1.49654 4.04359L1.46504 8.04347C1.46287 8.3196 1.23725 8.54169 0.961119 8.53952C0.684986 8.53734 0.462897 8.31173 0.465072 8.0356L0.500504 3.53574ZM6.64416 9.98567L0.644162 3.89043L1.35681 3.18891L7.35681 9.28415L6.64416 9.98567Z" fill="#146EB4"/>
<path d="M7.35681 26.7476C7.55053 26.5508 7.54804 26.2342 7.35125 26.0405C7.15445 25.8468 6.83788 25.8493 6.64416 26.0461L7.35681 26.7476ZM0.500504 32.496C0.502678 32.7721 0.728292 32.9942 1.00443 32.992L5.50429 32.9566C5.78042 32.9544 6.00251 32.7288 6.00033 32.4527C5.99816 32.1766 5.77255 31.9545 5.49641 31.9566L1.49654 31.9881L1.46504 27.9883C1.46287 27.7121 1.23725 27.49 0.961119 27.4922C0.684986 27.4944 0.462897 27.72 0.465072 27.9961L0.500504 32.496ZM6.64416 26.0461L0.644162 32.1413L1.35681 32.8428L7.35681 26.7476L6.64416 26.0461Z" fill="#146EB4"/>
</svg>
