<svg width="18" height="22" viewBox="0 0 18 22" fill="none" xmlns="http://www.w3.org/2000/svg">
<path d="M16 20H2V4H4V7H14V4H16V20ZM9 2C9.26522 2 9.51957 2.10536 9.70711 2.29289C9.89464 2.48043 10 2.73478 10 3C10 3.26522 9.89464 3.51957 9.70711 3.70711C9.51957 3.89464 9.26522 4 9 4C8.73478 4 8.48043 3.89464 8.29289 3.70711C8.10536 3.51957 8 3.26522 8 3C8 2.73478 8.10536 2.48043 8.29289 2.29289C8.48043 2.10536 8.73478 2 9 2ZM16 2H11.82C11.4 0.84 10.3 0 9 0C7.7 0 6.6 0.84 6.18 2H2C1.46957 2 0.960859 2.21071 0.585786 2.58579C0.210714 2.96086 0 3.46957 0 4V20C0 20.5304 0.210714 21.0391 0.585786 21.4142C0.960859 21.7893 1.46957 22 2 22H16C16.5304 22 17.0391 21.7893 17.4142 21.4142C17.7893 21.0391 18 20.5304 18 20V4C18 3.46957 17.7893 2.96086 17.4142 2.58579C17.0391 2.21071 16.5304 2 16 2Z" fill="#146EB4"/>
</svg>
