<svg width="50" height="50" viewBox="0 0 50 50" fill="none" xmlns="http://www.w3.org/2000/svg">
<path d="M39.0823 41.7164V0L10.9179 8.80136V41.7164H6.77612V50H43.2241V41.7164H39.0823ZM12.5747 10.0191L37.4256 2.25315V41.7164H12.5747V10.0191ZM41.5674 48.3433H8.43285V43.3731H41.5674V48.3433Z" fill="#146EB4"/>
<path d="M34.2259 16.5999H15.7743C14.796 16.5999 14.0001 17.3958 14.0001 18.374V30.4386C14.0001 31.4169 14.796 32.2128 15.7743 32.2128H20.1431C20.9979 34.2268 21.4517 36.4034 21.4517 38.5999L22.1614 38.5942C22.1614 37.9654 22.1203 37.3384 22.0507 36.7149L22.0574 36.7217L22.5163 36.2629L23.2564 37.0031L22.2654 37.9941L22.7671 38.4959L23.7582 37.5048L24.7493 38.4959L25.0001 38.245L25.251 38.4959L26.2421 37.5048L27.2331 38.4959L27.7349 37.9941L26.7438 37.0031L28.1035 35.6433C27.9318 36.6174 27.8388 37.6067 27.8388 38.5999L28.5485 38.5942C28.5485 36.4023 29.0023 34.2265 29.8572 32.2128H34.2259C35.2042 32.2128 36.0001 31.4169 36.0001 30.4386V18.374C36.0001 17.3958 35.2042 16.5999 34.2259 16.5999ZM29.9679 28.6644H20.0324V22.2773H29.9679V28.6644ZM30.6775 29.374V30.0837H19.3227V29.374H30.6775ZM26.9823 30.7934L26.2421 31.5336L25.5019 30.7934H26.9823ZM27.484 31.2951L28.2242 32.0353L27.484 32.7755L26.7438 32.0353L27.484 31.2951ZM25.7403 32.0353L25.0001 32.7755L24.2599 32.0353L25.0001 31.2951L25.7403 32.0353ZM24.4984 30.7934L23.7582 31.5336L23.018 30.7934H24.4984ZM22.0145 30.7934L21.2743 31.5336L20.5341 30.7934H22.0145ZM22.0145 33.2773L21.4691 33.8227C21.3038 33.2563 21.1118 32.6982 20.8886 32.1517L22.0145 33.2773ZM21.7761 32.0353L22.5163 31.2951L23.2564 32.0353L22.5163 32.7755L21.7761 32.0353ZM23.7582 32.5371L24.4984 33.2773L23.7582 34.0175L23.018 33.2773L23.7582 32.5371ZM25.0001 33.779L25.7403 34.5192L25.0001 35.2594L24.2599 34.5192L25.0001 33.779ZM25.5019 33.2773L26.2421 32.5371L26.9823 33.2773L26.2421 34.0175L25.5019 33.2773ZM27.484 33.779L28.2242 34.5192L27.484 35.2594L26.7438 34.5192L27.484 33.779ZM27.9857 33.2773L28.7259 32.5371L28.8973 32.7085C28.7621 33.0757 28.6408 33.4472 28.5311 33.8227L27.9857 33.2773ZM27.9857 30.7934H29.7393C29.5378 31.1848 29.3515 31.5836 29.1812 31.9889L27.9857 30.7934ZM21.929 35.8467C21.8612 35.4326 21.7803 35.021 21.682 34.6132L22.5163 33.779L23.2564 34.5192L21.929 35.8467ZM23.018 35.7611L23.7582 35.021L24.4984 35.7611L23.7582 36.5013L23.018 35.7611ZM25.0001 37.7433L24.2599 37.0031L25.0001 36.2629L25.7403 37.0031L25.0001 37.7433ZM25.5019 35.7611L26.2421 35.021L26.9823 35.7611L26.2421 36.5013L25.5019 35.7611ZM35.2904 30.4386C35.2904 31.0255 34.8128 31.5031 34.2259 31.5031H30.1754C30.2904 31.2643 30.4072 31.0265 30.5338 30.7934H31.0324C31.2286 30.7934 31.3872 30.6348 31.3872 30.4386V29.0192C31.3872 28.823 31.2286 28.6644 31.0324 28.6644H30.6775V21.9224C30.6775 21.7262 30.5189 21.5676 30.3227 21.5676H19.6775C19.4813 21.5676 19.3227 21.7262 19.3227 21.9224V28.6644H18.9679C18.7716 28.6644 18.613 28.823 18.613 29.0192V30.4386C18.613 30.6348 18.7716 30.7934 18.9679 30.7934H19.4664C19.5931 31.0265 19.7098 31.2643 19.8248 31.5031H15.7743C15.1874 31.5031 14.7098 31.0255 14.7098 30.4386V18.374C14.7098 17.7871 15.1874 17.3095 15.7743 17.3095H34.2259C34.8128 17.3095 35.2904 17.7871 35.2904 18.374V30.4386Z" fill="#146EB4"/>
<path d="M34.2384 18.0061H15.7618C15.5653 18.0061 15.4065 18.1645 15.4065 18.3605V30.4097C15.4065 30.6057 15.5653 30.7641 15.7618 30.7641H17.8937V30.0553H16.1171V18.7149H33.8831V30.0553H32.1065V30.7641H34.2384C34.4349 30.7641 34.5937 30.6057 34.5937 30.4097V18.3605C34.5937 18.1645 34.4349 18.0061 34.2384 18.0061Z" fill="#146EB4"/>
<path d="M36.9088 7.82077C36.8572 7.76591 36.789 7.73069 36.7153 7.72074L34.3491 7.369L33.2969 5.17062C33.1991 5.00411 32.9879 4.95025 32.8251 5.05028C32.7768 5.07996 32.7364 5.12126 32.7074 5.17062L31.6512 7.36062L29.285 7.71237C29.1057 7.7365 28.9794 7.90472 29.003 8.08818C29.0126 8.16356 29.0471 8.23333 29.1007 8.28604L30.812 9.99031L30.4026 12.3981C30.3733 12.583 30.496 12.7572 30.6768 12.7872C30.7468 12.7988 30.8185 12.7872 30.8816 12.754L33.0022 11.6234L35.1187 12.7624C35.2816 12.8481 35.4815 12.7825 35.5653 12.6159C35.5976 12.5514 35.6091 12.478 35.5977 12.4064L35.1883 9.99868L36.8995 8.29441C37.03 8.16623 37.0341 7.95419 36.9088 7.82077ZM34.607 9.63438C34.5302 9.7119 34.4951 9.82281 34.5128 9.93169L34.8321 11.8411L33.1537 10.9408C33.0575 10.8894 32.9428 10.8894 32.8466 10.9408L31.1681 11.8411L31.4875 9.93169C31.5052 9.82281 31.4701 9.7119 31.3933 9.63438L30.0382 8.28185L31.9132 8.00548C32.021 7.98973 32.1143 7.92085 32.163 7.82124L32.9817 6.08347L33.8005 7.82124C33.8491 7.92085 33.9424 7.98973 34.0502 8.00548L35.9252 8.28185L34.607 9.63438Z" fill="#146EB4"/>
<path d="M10.9773 45.7052C10.9644 45.6915 10.9473 45.6827 10.9289 45.6802L10.3374 45.5922L10.0743 45.0427C10.0499 45.001 9.99706 44.9876 9.95636 45.0126C9.9443 45.02 9.9342 45.0303 9.92695 45.0427L9.6629 45.5902L9.07133 45.6781C9.02651 45.6841 8.99493 45.7262 9.00083 45.772C9.00325 45.7909 9.01187 45.8083 9.02528 45.8215L9.45309 46.2476L9.35074 46.8495C9.34341 46.8957 9.3741 46.9393 9.4193 46.9468C9.43679 46.9497 9.45472 46.9468 9.47049 46.9385L10.0006 46.6558L10.5298 46.9406C10.5705 46.962 10.6205 46.9456 10.6414 46.904C10.6495 46.8878 10.6524 46.8695 10.6495 46.8516L10.5472 46.2497L10.975 45.8236C11.0076 45.7916 11.0086 45.7385 10.9773 45.7052ZM10.4018 46.1586C10.3826 46.178 10.3739 46.2057 10.3783 46.2329L10.4581 46.7103L10.0385 46.4852C10.0145 46.4724 9.9858 46.4724 9.96175 46.4852L9.54213 46.7103L9.62196 46.2329C9.6264 46.2057 9.61762 46.178 9.59842 46.1586L9.25965 45.8205L9.7284 45.7514C9.75534 45.7474 9.77868 45.7302 9.79083 45.7053L9.99552 45.2709L10.2002 45.7053C10.2124 45.7302 10.2357 45.7474 10.2626 45.7514L10.7314 45.8205L10.4018 46.1586Z" fill="#146EB4"/>
<path d="M13.9773 45.7052C13.9644 45.6915 13.9473 45.6827 13.9289 45.6802L13.3374 45.5922L13.0743 45.0427C13.0499 45.001 12.9971 44.9876 12.9564 45.0126C12.9443 45.02 12.9342 45.0303 12.9269 45.0427L12.6629 45.5902L12.0713 45.6781C12.0265 45.6841 11.9949 45.7262 12.0008 45.772C12.0032 45.7909 12.0119 45.8083 12.0253 45.8215L12.4531 46.2476L12.3507 46.8495C12.3434 46.8957 12.3741 46.9393 12.4193 46.9468C12.4368 46.9497 12.4547 46.9468 12.4705 46.9385L13.0006 46.6558L13.5298 46.9406C13.5705 46.962 13.6205 46.9456 13.6414 46.904C13.6495 46.8878 13.6524 46.8695 13.6495 46.8516L13.5472 46.2497L13.975 45.8236C14.0076 45.7916 14.0086 45.7385 13.9773 45.7052ZM13.4018 46.1586C13.3826 46.178 13.3739 46.2057 13.3783 46.2329L13.4581 46.7103L13.0385 46.4852C13.0145 46.4724 12.9858 46.4724 12.9617 46.4852L12.5421 46.7103L12.622 46.2329C12.6264 46.2057 12.6176 46.178 12.5984 46.1586L12.2597 45.8205L12.7284 45.7514C12.7553 45.7474 12.7787 45.7302 12.7908 45.7053L12.9955 45.2709L13.2002 45.7053C13.2124 45.7302 13.2357 45.7474 13.2626 45.7514L13.7314 45.8205L13.4018 46.1586Z" fill="#146EB4"/>
<path d="M16.9773 45.7052C16.9644 45.6915 16.9473 45.6827 16.9289 45.6802L16.3374 45.5922L16.0743 45.0427C16.0499 45.001 15.9971 44.9876 15.9564 45.0126C15.9443 45.02 15.9342 45.0303 15.9269 45.0427L15.6629 45.5902L15.0713 45.6781C15.0265 45.6841 14.9949 45.7262 15.0008 45.772C15.0032 45.7909 15.0119 45.8083 15.0253 45.8215L15.4531 46.2476L15.3507 46.8495C15.3434 46.8957 15.3741 46.9393 15.4193 46.9468C15.4368 46.9497 15.4547 46.9468 15.4705 46.9385L16.0006 46.6558L16.5298 46.9406C16.5705 46.962 16.6205 46.9456 16.6414 46.904C16.6495 46.8878 16.6524 46.8695 16.6495 46.8516L16.5472 46.2497L16.975 45.8236C17.0076 45.7916 17.0086 45.7385 16.9773 45.7052ZM16.4018 46.1586C16.3826 46.178 16.3739 46.2057 16.3783 46.2329L16.4581 46.7103L16.0385 46.4852C16.0145 46.4724 15.9858 46.4724 15.9617 46.4852L15.5421 46.7103L15.622 46.2329C15.6264 46.2057 15.6176 46.178 15.5984 46.1586L15.2597 45.8205L15.7284 45.7514C15.7553 45.7474 15.7787 45.7302 15.7908 45.7053L15.9955 45.2709L16.2002 45.7053C16.2124 45.7302 16.2357 45.7474 16.2626 45.7514L16.7314 45.8205L16.4018 46.1586Z" fill="#146EB4"/>
<path d="M34.9544 8.41038C34.9287 8.38296 34.8946 8.36534 34.8577 8.36037L33.6746 8.1845L33.1485 7.08531C33.0996 7.00206 32.994 6.97513 32.9126 7.02514C32.8885 7.03998 32.8683 7.06063 32.8538 7.08531L32.3257 8.18031L31.1425 8.35618C31.0529 8.36825 30.9897 8.45236 31.0015 8.54409C31.0064 8.58178 31.0236 8.61667 31.0504 8.64302L31.9061 9.49516L31.7014 10.699C31.6867 10.7915 31.7481 10.8786 31.8385 10.8936C31.8735 10.8994 31.9093 10.8936 31.9408 10.877L33.0012 10.3117L34.0594 10.8812C34.1409 10.924 34.2408 10.8912 34.2827 10.8079C34.2989 10.7757 34.3046 10.739 34.2989 10.7032L34.0942 9.49934L34.9498 8.64721C35.0151 8.58311 35.0171 8.47709 34.9544 8.41038ZM33.8036 9.31719C33.7651 9.35595 33.7476 9.41141 33.7565 9.46584L33.9161 10.4206L33.0769 9.97042C33.0288 9.94472 32.9715 9.94472 32.9234 9.97042L32.0841 10.4206L32.2438 9.46584C32.2527 9.41141 32.2351 9.35595 32.1967 9.31719L31.5192 8.64093L32.4567 8.50274C32.5106 8.49486 32.5572 8.46042 32.5815 8.41062L32.9909 7.54173L33.4003 8.41062C33.4246 8.46042 33.4713 8.49486 33.5252 8.50274L34.4627 8.64093L33.8036 9.31719Z" fill="#146EB4"/>
</svg>
