<svg width="100" height="100" viewBox="0 0 100 100" fill="none" xmlns="http://www.w3.org/2000/svg">
<g clip-path="url(#clip0)">
<path d="M31.753 66.002C31.9136 65.4277 31.7553 64.8113 31.3378 64.3854C30.0371 63.0624 28.9179 61.5726 28.0095 59.955C27.5587 59.1523 26.5425 58.867 25.7397 59.3178C24.937 59.7686 24.6517 60.7848 25.1025 61.5875C25.6686 62.5942 26.3056 63.5593 27.0085 64.4757C26.0493 64.6101 25.083 64.6863 24.1146 64.7037C23.5192 64.7089 22.9718 65.0314 22.6785 65.5497C22.3853 66.0679 22.3909 66.7033 22.6931 67.2163C22.9954 67.7294 23.5484 68.0422 24.1438 68.037H24.1731C26.329 67.9957 28.4729 67.7041 30.5615 67.1679C31.1384 67.02 31.5926 66.5756 31.753 66.002Z" fill="#146EB4"/>
<path d="M22.7979 60.1167C22.1436 58.356 21.6771 56.5311 21.4064 54.6723C21.3331 54.0721 20.9406 53.5587 20.3806 53.3307C19.8206 53.1026 19.181 53.1958 18.7093 53.574C18.2376 53.9523 18.0078 54.5563 18.1087 55.1525C18.2717 56.2745 18.4984 57.3864 18.7876 58.4827C18.0087 58.2628 17.243 57.9986 16.4942 57.6915C15.941 57.4546 15.3031 57.5343 14.8252 57.9C14.3473 58.2658 14.1037 58.8607 14.1878 59.4566C14.2719 60.0525 14.6708 60.5567 15.2312 60.7758C17.0831 61.5387 19.023 62.0672 21.0059 62.349C21.0825 62.3598 21.1597 62.3653 21.2371 62.3657C21.7829 62.3653 22.294 62.0978 22.6052 61.6494C22.9165 61.201 22.9884 60.6287 22.7979 60.1172V60.1167Z" fill="#146EB4"/>
<path d="M15.0683 54.4966C15.5187 54.4968 15.9501 54.3146 16.2641 53.9916C16.5781 53.6686 16.7479 53.2322 16.7349 52.7819C16.6776 50.8755 16.7926 48.9677 17.0784 47.0819C17.1989 46.1818 16.5765 45.3508 15.6788 45.2133C14.7811 45.0759 13.9385 45.6825 13.7841 46.5774C13.6279 47.5979 13.5174 48.6348 13.4538 49.6804C12.8711 49.2158 12.3014 48.7169 11.7448 48.1838C11.0771 47.5672 10.0385 47.5991 9.41007 48.2557C8.7816 48.9122 8.79496 49.9511 9.44011 50.5913C10.8886 51.9896 12.4899 53.2205 14.2138 54.2606C14.472 54.4152 14.7673 54.4968 15.0683 54.4966Z" fill="#146EB4"/>
<path d="M11.6406 44.7114C12.4014 44.7103 13.0653 44.195 13.2551 43.4583C13.7113 41.6566 14.3263 39.899 15.0928 38.2059C15.3593 37.6616 15.3094 37.0155 14.9624 36.5186C14.6154 36.0217 14.026 35.7524 13.4232 35.8152C12.8204 35.878 12.2992 36.2632 12.0621 36.8209C11.6894 37.6354 11.3454 38.4811 11.0318 39.3509C10.6021 38.677 10.192 37.977 9.80145 37.2509C9.52859 36.7106 8.98423 36.3607 8.37938 36.3368C7.77454 36.313 7.20431 36.6189 6.88975 37.1361C6.57519 37.6533 6.56576 38.3003 6.86511 38.8264C7.85598 40.6894 9.02173 42.454 10.3466 44.0963C10.6636 44.4853 11.1388 44.7112 11.6406 44.7114Z" fill="#146EB4"/>
<path d="M7.4592 26.7455C7.92816 28.905 8.58161 31.0202 9.41236 33.0679C9.65177 33.6552 10.2038 34.0558 10.8365 34.1012C10.8772 34.1037 10.9162 34.1054 10.9552 34.1054C11.5471 34.1052 12.0945 33.7915 12.394 33.281C13.266 31.7765 14.2862 30.3629 15.4394 29.0614C16.0529 28.3746 15.9935 27.3205 15.3067 26.707C14.6199 26.0935 13.5659 26.1529 12.9524 26.8397C12.4217 27.4354 11.9085 28.065 11.4127 28.7285C11.149 27.848 10.9162 26.9472 10.7144 26.0317C10.5969 25.4398 10.1686 24.9577 9.59474 24.7712C9.02085 24.5846 8.39098 24.7229 7.94796 25.1326C7.50495 25.5423 7.318 26.1595 7.4592 26.7462V26.7455Z" fill="#146EB4"/>
<path d="M12.9523 13.9766C12.035 13.9234 11.2463 14.6199 11.1857 15.5368C11.0454 17.7895 11.1021 20.0501 11.355 22.2929C11.4253 22.9093 11.832 23.4356 12.4107 23.6589C12.9894 23.8823 13.6443 23.7658 14.1105 23.3566C15.3163 22.2862 16.6434 21.3609 18.0647 20.5996C18.5958 20.3237 18.9383 19.7842 18.9618 19.1861C18.9854 18.5881 18.6865 18.0233 18.1787 17.7065C17.6708 17.3897 17.0321 17.3695 16.5053 17.6536C15.8011 18.0274 15.1171 18.4381 14.4562 18.8841C14.4302 17.8399 14.448 16.7901 14.5132 15.7436C14.5406 15.3023 14.3916 14.8681 14.0988 14.5367C13.8061 14.2053 13.3937 14.0038 12.9523 13.9766Z" fill="#146EB4"/>
<path d="M24.5084 11.89C24.4767 11.4472 24.267 11.0361 23.9273 10.7504C23.5875 10.4647 23.1466 10.3287 22.7049 10.3733C21.8214 10.4501 20.9436 10.5817 20.0764 10.7673C20.379 9.70394 20.743 8.65902 21.1666 7.6378C21.3948 7.0877 21.3122 6.45763 20.95 5.98492C20.5877 5.51222 20.0007 5.26869 19.4102 5.34609C18.8197 5.42348 18.3153 5.81004 18.0871 6.36014C17.2244 8.44627 16.582 10.6168 16.1704 12.8365C16.0611 13.4229 16.2735 14.0231 16.7275 14.4101C17.1814 14.7972 17.8076 14.9121 18.3694 14.7115C19.8603 14.1758 21.4138 13.8336 22.9917 13.6933C23.9084 13.6139 24.5873 12.8067 24.5084 11.89Z" fill="#146EB4"/>
<path d="M30.3923 9.25014C30.9616 9.42515 31.581 9.28315 32.0172 8.87764C32.4534 8.47214 32.6401 7.86473 32.507 7.28423C32.374 6.70372 31.9413 6.23831 31.372 6.06331C30.3686 5.75489 29.3473 5.50783 28.3138 5.32348C29.0022 4.45581 29.7523 3.63897 30.5583 2.87931C31.228 2.24736 31.2585 1.19221 30.6266 0.522561C29.9946 -0.147085 28.9395 -0.177641 28.2698 0.454311C26.5999 2.02971 25.1419 3.81551 23.9323 5.76681C23.6238 6.26535 23.5999 6.88935 23.8694 7.41005C24.1389 7.93074 24.6621 8.27153 25.2473 8.30748C26.9936 8.41722 28.7206 8.73365 30.3923 9.25014Z" fill="#146EB4"/>
<path d="M75.8853 64.7036C74.917 64.6862 73.9506 64.6101 72.9915 64.4756C73.6944 63.5592 74.3313 62.5941 74.8975 61.5875C75.3483 60.7847 75.063 59.7685 74.2602 59.3177C73.4575 58.8669 72.4413 59.1522 71.9905 59.955C71.082 61.5726 69.9628 63.0624 68.6621 64.3853C68.2444 64.8107 68.0857 65.4267 68.246 66.001C68.4062 66.5752 68.8609 67.0201 69.4385 67.1678C71.5271 67.704 73.6709 67.9957 75.8268 68.037H75.8561C76.7766 68.045 77.5293 67.3054 77.5374 66.3849C77.5454 65.4644 76.8058 64.7117 75.8853 64.7036Z" fill="#146EB4"/>
<path d="M83.5058 57.6909C82.757 57.998 81.9913 58.2622 81.2125 58.482C81.5017 57.3857 81.7283 56.2739 81.8913 55.1519C81.9922 54.5557 81.7624 53.9516 81.2907 53.5734C80.819 53.1951 80.1794 53.102 79.6194 53.33C79.0595 53.5581 78.6669 54.0715 78.5936 54.6717C78.3229 56.5304 77.8565 58.3554 77.2021 60.116C77.0116 60.6275 77.0836 61.1999 77.3948 61.6483C77.7061 62.0967 78.2171 62.3642 78.763 62.3645C78.8403 62.3642 78.9175 62.3587 78.9941 62.3479C80.977 62.0661 82.917 61.5376 84.7688 60.7747C85.3293 60.5556 85.7281 60.0513 85.8122 59.4555C85.8964 58.8596 85.6527 58.2646 85.1748 57.8989C84.6969 57.5332 84.059 57.4535 83.5058 57.6904V57.6909Z" fill="#146EB4"/>
<path d="M88.2551 48.1838C87.6984 48.7161 87.1288 49.215 86.5461 49.6804C86.4826 48.6348 86.3719 47.5979 86.2158 46.5774C86.0614 45.6824 85.2188 45.0758 84.3211 45.2133C83.4233 45.3508 82.8009 46.1817 82.9214 47.0819C83.2073 48.9677 83.3223 50.8755 83.2649 52.7819C83.2474 53.3903 83.5628 53.9598 84.0877 54.2677C84.6127 54.5756 85.2637 54.5729 85.7861 54.2606C87.5099 53.2205 89.1113 51.9896 90.5598 50.5913C91.2028 49.9508 91.2151 48.9135 90.5875 48.2579C89.9598 47.6023 88.923 47.5694 88.2551 48.1839V48.1838Z" fill="#146EB4"/>
<path d="M92.4545 36.5698C92.0651 36.3606 91.6085 36.3149 91.1853 36.4426C90.7621 36.5704 90.4071 36.8612 90.1985 37.251C89.8079 37.9768 89.3978 38.6768 88.9682 39.351C88.654 38.4812 88.3105 37.6355 87.9378 36.821C87.7008 36.2632 87.1796 35.8781 86.5768 35.8153C85.974 35.7524 85.3846 36.0218 85.0375 36.5187C84.6905 37.0156 84.6406 37.6617 84.9072 38.206C85.6737 39.8991 86.2886 41.6567 86.7448 43.4583C86.9008 44.0685 87.3873 44.5387 88.0025 44.6736C88.6176 44.8085 89.2563 44.5852 89.6533 44.0963C90.9782 42.4539 92.144 40.6893 93.1348 38.8262C93.5699 38.0152 93.2653 37.0051 92.4545 36.5698Z" fill="#146EB4"/>
<path d="M87.6058 33.2806C87.9052 33.7911 88.4527 34.1047 89.0446 34.1049C89.0836 34.1049 89.1226 34.1032 89.1633 34.1007C89.7959 34.0553 90.348 33.6548 90.5874 33.0674C91.4182 31.0197 92.0716 28.9045 92.5406 26.7451C92.6818 26.1584 92.4948 25.5412 92.0518 25.1315C91.6088 24.7218 90.9789 24.5835 90.4051 24.77C89.8312 24.9565 89.4029 25.4387 89.2854 26.0305C89.0836 26.9461 88.8508 27.8472 88.5871 28.7274C88.0924 28.0651 87.5792 27.4354 87.0474 26.8385C86.4339 26.1518 85.3799 26.0924 84.6931 26.7059C84.0063 27.3194 83.9469 28.3735 84.5604 29.0602C85.7137 30.362 86.7338 31.7758 87.6058 33.2806Z" fill="#146EB4"/>
<path d="M81.9351 20.6C83.3562 21.3614 84.6831 22.2867 85.8886 23.3572C86.3545 23.7674 87.0098 23.8845 87.5889 23.6609C88.168 23.4374 88.5747 22.9103 88.6441 22.2935C88.897 20.0506 88.9537 17.79 88.8134 15.5373C88.7807 14.9399 88.4302 14.4059 87.8951 14.1382C87.36 13.8704 86.7225 13.91 86.2247 14.2419C85.7269 14.5738 85.4452 15.1471 85.4866 15.744C85.5518 16.7905 85.5699 17.8403 85.5436 18.8845C84.8824 18.4385 84.1981 18.0277 83.4936 17.654C82.6812 17.2321 81.6806 17.5443 81.2524 18.3534C80.8241 19.1624 81.1286 20.1655 81.9343 20.6H81.9351Z" fill="#146EB4"/>
<path d="M77.0085 13.6926C78.5865 13.8329 80.1399 14.1751 81.6308 14.7108C82.1925 14.9105 82.8182 14.7953 83.2719 14.4084C83.7255 14.0216 83.9382 13.422 83.8298 12.8358C83.4182 10.6161 82.7758 8.44558 81.9131 6.35945C81.6849 5.80929 81.1805 5.42268 80.5899 5.34526C79.9994 5.26783 79.4123 5.51136 79.05 5.98409C78.6877 6.45683 78.6051 7.08696 78.8333 7.63712C79.2569 8.65823 79.6209 9.70304 79.9235 10.7663C79.0563 10.5806 78.1784 10.4491 77.295 10.3723C76.8531 10.3267 76.4117 10.4624 76.0717 10.7483C75.7317 11.0342 75.5224 11.4458 75.4915 11.8889C75.4124 12.8059 76.0915 13.6134 77.0085 13.6926Z" fill="#146EB4"/>
<path d="M67.5242 8.14631C67.6538 8.56915 67.9462 8.92309 68.337 9.13009C68.7279 9.3371 69.1849 9.38017 69.6075 9.24981C71.2793 8.73343 73.0063 8.41711 74.7525 8.30748C75.3377 8.27153 75.861 7.93074 76.1305 7.41005C76.4 6.88935 76.3761 6.26535 76.0675 5.76681C74.858 3.81551 73.4 2.02971 71.73 0.454311C71.0604 -0.177641 70.0052 -0.147085 69.3733 0.522561C68.7413 1.19221 68.7719 2.24736 69.4415 2.87931C70.2475 3.63886 70.9976 4.45559 71.686 5.32314C70.6526 5.50749 69.6313 5.75456 68.6279 6.06298C68.2052 6.19279 67.8514 6.48525 67.6444 6.87599C67.4374 7.26672 67.3942 7.72369 67.5242 8.14631Z" fill="#146EB4"/>
<path d="M71.6665 78.3328H58.3332V64.9995C60.1733 64.9973 61.6644 63.5062 61.6665 61.6661V58.3328C61.6644 56.4927 60.1733 55.0016 58.3332 54.9995H54.9999V47.2828L62.713 51.3101C63.7636 51.8637 65.038 51.7683 65.9944 51.0645C66.9501 50.3733 67.4273 49.1971 67.2232 48.0355L64.7964 33.9941L75.073 24.0461C75.9238 23.223 76.2312 21.987 75.8651 20.8612C75.4989 19.7355 74.5233 18.9168 73.351 18.7516L59.1422 16.7016L52.788 3.91829C52.2603 2.86182 51.1808 2.19437 49.9999 2.19437C48.8189 2.19437 47.7394 2.86182 47.2117 3.91829L40.8575 16.7016L26.6487 18.7516C25.4764 18.9169 24.5006 19.7358 24.1345 20.8617C23.7684 21.9876 24.0758 23.2237 24.9267 24.047L35.2034 33.9941L32.7765 48.0358C32.5793 49.2014 33.0599 50.378 34.0168 51.0722C34.9737 51.7664 36.2414 51.8581 37.2882 51.3088L44.9999 47.2828V54.9995H41.6665C39.8265 55.0016 38.3353 56.4927 38.3332 58.3328V61.6661C38.3353 63.5062 39.8265 64.9973 41.6665 64.9995V78.3328H28.3332C26.4931 78.3349 25.002 79.826 24.9999 81.6661V84.9995C25.002 86.8395 26.4931 88.3307 28.3332 88.3328V96.6661C28.3353 98.5062 29.8265 99.9973 31.6665 99.9995H68.3332C70.1733 99.9973 71.6644 98.5062 71.6665 96.6661V88.3328C73.5066 88.3307 74.9978 86.8395 74.9999 84.9995V81.6661C74.9978 79.826 73.5066 78.3349 71.6665 78.3328ZM36.1392 48.1495L38.509 34.4328C38.6829 33.4236 38.3459 32.3939 37.609 31.6828L27.5879 21.9828L41.4485 19.9828C42.4602 19.8383 43.3361 19.2053 43.7907 18.2901L49.9999 5.79695L56.2075 18.288C56.6624 19.2042 57.5388 19.8379 58.5514 19.9828L72.412 21.9828L62.3924 31.681C61.6543 32.3929 61.3166 33.4242 61.4907 34.4348L63.8605 48.1481L51.4419 41.6645C50.5375 41.1935 49.4601 41.1942 48.5562 41.6661L36.1392 48.1495ZM48.3332 45.5418L49.9999 44.6715L51.6665 45.5418V54.9995H48.3332V45.5418ZM41.6665 58.3328H58.3332L58.3349 61.6661H41.6665V58.3328ZM44.9999 64.9995H54.9999V78.3328H44.9999V64.9995ZM68.3349 96.6661H31.6665V88.3328H68.3332L68.3349 96.6661ZM69.9999 84.9995H28.3332V81.6661H71.6665L71.6682 84.9995H69.9999Z" fill="#146EB4"/>
<path d="M35.9543 93.4104C35.9285 93.383 35.8944 93.3653 35.8576 93.3604L34.6745 93.1845L34.1484 92.0853C34.0995 92.0021 33.9939 91.9751 33.9125 92.0251C33.8884 92.04 33.8682 92.0606 33.8537 92.0853L33.3255 93.1803L32.1424 93.3562C32.0528 93.3682 31.9896 93.4524 32.0014 93.5441C32.0063 93.5818 32.0235 93.6167 32.0503 93.643L32.9059 94.4952L32.7012 95.699C32.6866 95.7915 32.748 95.8786 32.8384 95.8936C32.8733 95.8994 32.9092 95.8936 32.9407 95.877L34.001 95.3117L35.0593 95.8812C35.1407 95.924 35.2407 95.8912 35.2826 95.8079C35.2988 95.7757 35.3045 95.739 35.2988 95.7032L35.0941 94.4993L35.9497 93.6472C36.0149 93.5831 36.017 93.4771 35.9543 93.4104ZM34.8034 94.3172C34.765 94.356 34.7475 94.4114 34.7564 94.4658L34.916 95.4206L34.0768 94.9704C34.0287 94.9447 33.9714 94.9447 33.9233 94.9704L33.084 95.4206L33.2437 94.4658C33.2525 94.4114 33.235 94.356 33.1966 94.3172L32.5191 93.6409L33.4566 93.5027C33.5104 93.4949 33.5571 93.4604 33.5814 93.4106L33.9908 92.5417L34.4002 93.4106C34.4245 93.4604 34.4712 93.4949 34.525 93.5027L35.4625 93.6409L34.8034 94.3172Z" fill="#146EB4"/>
<path d="M41.9543 93.4104C41.9285 93.383 41.8944 93.3653 41.8576 93.3604L40.6745 93.1845L40.1484 92.0853C40.0995 92.0021 39.9939 91.9751 39.9125 92.0251C39.8884 92.04 39.8682 92.0606 39.8537 92.0853L39.3255 93.1803L38.1424 93.3562C38.0528 93.3682 37.9896 93.4524 38.0014 93.5441C38.0063 93.5818 38.0235 93.6167 38.0503 93.643L38.9059 94.4952L38.7012 95.699C38.6866 95.7915 38.748 95.8786 38.8384 95.8936C38.8733 95.8994 38.9092 95.8936 38.9407 95.877L40.001 95.3117L41.0593 95.8812C41.1407 95.924 41.2407 95.8912 41.2826 95.8079C41.2988 95.7757 41.3045 95.739 41.2988 95.7032L41.0941 94.4993L41.9497 93.6472C42.0149 93.5831 42.017 93.4771 41.9543 93.4104ZM40.8034 94.3172C40.765 94.356 40.7475 94.4114 40.7564 94.4658L40.916 95.4206L40.0768 94.9704C40.0287 94.9447 39.9714 94.9447 39.9233 94.9704L39.084 95.4206L39.2437 94.4658C39.2525 94.4114 39.235 94.356 39.1966 94.3172L38.5191 93.6409L39.4566 93.5027C39.5104 93.4949 39.5571 93.4604 39.5814 93.4106L39.9908 92.5417L40.4002 93.4106C40.4245 93.4604 40.4712 93.4949 40.525 93.5027L41.4625 93.6409L40.8034 94.3172Z" fill="#146EB4"/>
<path d="M47.9543 93.4104C47.9285 93.383 47.8944 93.3653 47.8576 93.3604L46.6745 93.1845L46.1484 92.0853C46.0995 92.0021 45.9939 91.9751 45.9125 92.0251C45.8884 92.04 45.8682 92.0606 45.8537 92.0853L45.3255 93.1803L44.1424 93.3562C44.0528 93.3682 43.9896 93.4524 44.0014 93.5441C44.0063 93.5818 44.0235 93.6167 44.0503 93.643L44.9059 94.4952L44.7012 95.699C44.6866 95.7915 44.748 95.8786 44.8384 95.8936C44.8733 95.8994 44.9092 95.8936 44.9407 95.877L46.001 95.3117L47.0593 95.8812C47.1407 95.924 47.2407 95.8912 47.2826 95.8079C47.2988 95.7757 47.3045 95.739 47.2988 95.7032L47.0941 94.4993L47.9497 93.6472C48.0149 93.5831 48.017 93.4771 47.9543 93.4104ZM46.8034 94.3172C46.765 94.356 46.7475 94.4114 46.7564 94.4658L46.916 95.4206L46.0768 94.9704C46.0287 94.9447 45.9714 94.9447 45.9233 94.9704L45.084 95.4206L45.2437 94.4658C45.2525 94.4114 45.235 94.356 45.1966 94.3172L44.5191 93.6409L45.4566 93.5027C45.5104 93.4949 45.5571 93.4604 45.5814 93.4106L45.9908 92.5417L46.4002 93.4106C46.4245 93.4604 46.4712 93.4949 46.525 93.5027L47.4625 93.6409L46.8034 94.3172Z" fill="#146EB4"/>
<path d="M42.9289 22.9289C41.0402 24.8177 40 27.3289 40 30C40 32.6711 41.0402 35.1823 42.9289 37.0711C44.8177 38.9598 47.3289 40 50 40C52.6711 40 55.1823 38.9598 57.0711 37.0711C58.9598 35.1823 60 32.6711 60 30C60 27.3289 58.9598 24.8177 57.0711 22.9289C55.1823 21.0402 52.6711 20 50 20C47.3289 20 44.8177 21.0402 42.9289 22.9289ZM59.4008 30.2971C59.3268 32.6981 58.3573 34.9447 56.651 36.6511C56.6454 36.6566 56.6396 36.6621 56.6339 36.6677C55.8006 35.8395 55.1379 34.8775 54.6625 33.8038C54.171 32.6936 53.9041 31.5152 53.8668 30.2971H59.4008V30.2971ZM49.703 30.297V35.9008H50.297V30.297H53.2723C53.3098 31.5986 53.5941 32.8578 54.1193 34.0443C54.6217 35.1792 55.3211 36.1966 56.1996 37.0734C54.5576 38.5167 52.492 39.3332 50.297 39.4009V36.693H49.7029V39.4009C47.5079 39.3332 45.4424 38.5168 43.8003 37.0734C44.6788 36.1965 45.3782 35.1791 45.8807 34.0442C46.4059 32.8578 46.6901 31.5986 46.7276 30.297H49.703ZM46.1332 30.297C46.0959 31.5152 45.829 32.6935 45.3375 33.8037C44.8621 34.8775 44.1994 35.8395 43.3661 36.6677C43.3604 36.662 43.3546 36.6566 43.349 36.651C41.6427 34.9446 40.6732 32.698 40.5992 30.297H46.1332V30.297ZM40.5992 29.703C40.6732 27.3019 41.6426 25.0553 43.349 23.349C43.3546 23.3434 43.3604 23.3379 43.3661 23.3323C44.1994 24.1605 44.8621 25.1225 45.3375 26.1962C45.829 27.3064 46.0959 28.4848 46.1332 29.7029H40.5992V29.703ZM49.703 29.703H46.7277C46.6902 28.4014 46.4059 27.1422 45.8807 25.9558C45.3783 24.8208 44.6789 23.8034 43.8004 22.9266C45.4425 21.4833 47.508 20.6668 49.703 20.5992V29.703H49.703ZM56.651 23.349C58.3573 25.0553 59.3268 27.3019 59.4008 29.703H53.8668C53.9041 28.4848 54.171 27.3065 54.6625 26.1963C55.1378 25.1226 55.8005 24.1605 56.6339 23.3323C56.6396 23.3379 56.6454 23.3434 56.651 23.349ZM54.1193 25.9558C53.5941 27.1422 53.3099 28.4014 53.2723 29.703H50.2971V20.5992C52.4921 20.6669 54.5576 21.4834 56.1997 22.9266C55.3211 23.8034 54.6217 24.8208 54.1193 25.9558Z" fill="#146EB4" stroke="#146EB4" stroke-width="0.5"/>
</g>
<defs>
<clipPath id="clip0">
<rect width="100" height="100" fill="white"/>
</clipPath>
</defs>
</svg>
