<svg width="34" height="34" viewBox="0 0 34 34" fill="none" xmlns="http://www.w3.org/2000/svg">
<path d="M30.9356 1H31.4356C31.4356 0.723858 31.2117 0.5 30.9356 0.5V1ZM24.7421 1V0.5C24.4659 0.5 24.2421 0.723858 24.2421 1H24.7421ZM23.1937 9H23.6937C23.6937 8.72386 23.4698 8.5 23.1937 8.5V9ZM17.5163 9V8.5C17.2401 8.5 17.0163 8.72386 17.0163 9H17.5163ZM15.9679 17.5714H16.4679C16.4679 17.2953 16.244 17.0714 15.9679 17.0714V17.5714ZM10.2904 17.5714V17.0714C10.0143 17.0714 9.79044 17.2953 9.79044 17.5714H10.2904ZM8.22593 24.4286H8.72593C8.72593 24.1524 8.50207 23.9286 8.22593 23.9286V24.4286ZM3.06464 24.4286V23.9286C2.7885 23.9286 2.56464 24.1524 2.56464 24.4286H3.06464ZM1.00012 31.2857V30.7857C0.72398 30.7857 0.500122 31.0096 0.500122 31.2857H1.00012ZM1.00012 33H0.500122C0.500122 33.2761 0.72398 33.5 1.00012 33.5V33ZM33.0001 33V33.5C33.2763 33.5 33.5001 33.2761 33.5001 33H33.0001ZM33.0001 31.2857H33.5001C33.5001 31.0096 33.2763 30.7857 33.0001 30.7857V31.2857ZM21.6453 29.0714C21.3691 29.0714 21.1453 29.2953 21.1453 29.5714C21.1453 29.8476 21.3691 30.0714 21.6453 30.0714V29.0714ZM21.6453 25.6429C21.3691 25.6429 21.1453 25.8667 21.1453 26.1429C21.1453 26.419 21.3691 26.6429 21.6453 26.6429V25.6429ZM21.6453 22.2143C21.3691 22.2143 21.1453 22.4381 21.1453 22.7143C21.1453 22.9904 21.3691 23.2143 21.6453 23.2143V22.2143ZM21.6453 19.3571C21.3691 19.3571 21.1453 19.581 21.1453 19.8571C21.1453 20.1333 21.3691 20.3571 21.6453 20.3571V19.3571ZM21.6453 16.5C21.3691 16.5 21.1453 16.7239 21.1453 17C21.1453 17.2761 21.3691 17.5 21.6453 17.5V16.5ZM21.6453 13.6429C21.3691 13.6429 21.1453 13.8667 21.1453 14.1429C21.1453 14.419 21.3691 14.6429 21.6453 14.6429V13.6429ZM21.6453 11.0714C21.3691 11.0714 21.1453 11.2953 21.1453 11.5714C21.1453 11.8476 21.3691 12.0714 21.6453 12.0714V11.0714ZM19.5808 13.5C19.8569 13.5 20.0808 13.2761 20.0808 13C20.0808 12.7239 19.8569 12.5 19.5808 12.5V13.5ZM19.5808 16.3571C19.8569 16.3571 20.0808 16.1333 20.0808 15.8571C20.0808 15.581 19.8569 15.3571 19.5808 15.3571V16.3571ZM19.5808 19.2143C19.8569 19.2143 20.0808 18.9904 20.0808 18.7143C20.0808 18.4381 19.8569 18.2143 19.5808 18.2143V19.2143ZM19.5808 22.0714C19.8569 22.0714 20.0808 21.8476 20.0808 21.5714C20.0808 21.2953 19.8569 21.0714 19.5808 21.0714V22.0714ZM19.5808 24.9286C19.8569 24.9286 20.0808 24.7047 20.0808 24.4286C20.0808 24.1524 19.8569 23.9286 19.5808 23.9286V24.9286ZM19.5808 28.3571C19.8569 28.3571 20.0808 28.1333 20.0808 27.8571C20.0808 27.581 19.8569 27.3571 19.5808 27.3571V28.3571ZM6.67754 29.0714C6.4014 29.0714 6.17754 29.2953 6.17754 29.5714C6.17754 29.8476 6.4014 30.0714 6.67754 30.0714V29.0714ZM6.67754 26.5C6.4014 26.5 6.17754 26.7239 6.17754 27C6.17754 27.2761 6.4014 27.5 6.67754 27.5V26.5ZM2.69359 14.9506C2.50849 15.1555 2.52457 15.4717 2.7295 15.6568C2.93442 15.8419 3.2506 15.8258 3.43569 15.6209L2.69359 14.9506ZM15.9679 1L10.4742 2.77556L14.7587 6.64546L15.9679 1ZM31.4356 31.2857V1H30.4356V31.2857H31.4356ZM30.9356 0.5H24.7421V1.5H30.9356V0.5ZM24.2421 1V31.2857H25.2421V1H24.2421ZM23.1937 31.7857H24.7421V30.7857H23.1937V31.7857ZM23.1937 8.5H17.5163V9.5H23.1937V8.5ZM17.5163 31.7857H23.1937V30.7857H17.5163V31.7857ZM15.9679 31.7857H17.5163V30.7857H15.9679V31.7857ZM16.4679 31.2857V17.5714H15.4679V31.2857H16.4679ZM15.9679 17.0714H10.2904V18.0714H15.9679V17.0714ZM9.79044 17.5714V31.2857H10.7904V17.5714H9.79044ZM8.22593 31.7857H10.2904V30.7857H8.22593V31.7857ZM8.22593 23.9286H3.06464V24.9286H8.22593V23.9286ZM3.06464 31.7857H8.22593V30.7857H3.06464V31.7857ZM1.00012 33.5H33.0001V32.5H1.00012V33.5ZM33.5001 33V31.2857H32.5001V33H33.5001ZM23.6937 31.2857V29.5714H22.6937V31.2857H23.6937ZM23.1937 29.0714H21.6453V30.0714H23.1937V29.0714ZM23.6937 29.5714V26.1429H22.6937V29.5714H23.6937ZM23.1937 25.6429H21.6453V26.6429H23.1937V25.6429ZM23.6937 26.1429V22.7143H22.6937V26.1429H23.6937ZM23.1937 22.2143H21.6453V23.2143H23.1937V22.2143ZM23.6937 22.7143V19.8571H22.6937V22.7143H23.6937ZM23.1937 19.3571H21.6453V20.3571H23.1937V19.3571ZM23.6937 19.8571V17H22.6937V19.8571H23.6937ZM23.1937 16.5H21.6453V17.5H23.1937V16.5ZM23.6937 17V14.1429H22.6937V17H23.6937ZM23.1937 13.6429H21.6453V14.6429H23.1937V13.6429ZM23.6937 14.1429V11.5714H22.6937V14.1429H23.6937ZM23.6937 11.5714V9H22.6937V11.5714H23.6937ZM23.1937 11.0714H21.6453V12.0714H23.1937V11.0714ZM17.0163 9V13H18.0163V9H17.0163ZM17.5163 13.5H19.5808V12.5H17.5163V13.5ZM17.0163 13V15.8571H18.0163V13H17.0163ZM17.5163 16.3571H19.5808V15.3571H17.5163V16.3571ZM17.0163 15.8571V18.7143H18.0163V15.8571H17.0163ZM17.5163 19.2143H19.5808V18.2143H17.5163V19.2143ZM17.0163 18.7143V21.5714H18.0163V18.7143H17.0163ZM17.5163 22.0714H19.5808V21.0714H17.5163V22.0714ZM17.0163 21.5714V24.4286H18.0163V21.5714H17.0163ZM17.5163 24.9286H19.5808V23.9286H17.5163V24.9286ZM17.0163 24.4286V27.8571H18.0163V24.4286H17.0163ZM17.0163 27.8571V31.2857H18.0163V27.8571H17.0163ZM17.5163 28.3571H19.5808V27.3571H17.5163V28.3571ZM8.72593 31.2857V29.5714H7.72593V31.2857H8.72593ZM8.22593 29.0714H6.67754V30.0714H8.22593V29.0714ZM8.72593 29.5714V27H7.72593V29.5714H8.72593ZM8.72593 27V24.4286H7.72593V27H8.72593ZM8.22593 26.5H6.67754V27.5H8.22593V26.5ZM2.56464 24.4286V27.8571H3.56464V24.4286H2.56464ZM2.56464 27.8571V31.2857H3.56464V27.8571H2.56464ZM15.9679 30.7857H13.1292V31.7857H15.9679V30.7857ZM13.1292 30.7857H10.2904V31.7857H13.1292V30.7857ZM24.7421 31.7857H27.8388V30.7857H24.7421V31.7857ZM27.8388 31.7857H30.9356V30.7857H27.8388V31.7857ZM3.43569 15.6209L13.3226 4.67461L12.5805 4.00432L2.69359 14.9506L3.43569 15.6209ZM30.9356 31.7857H33.0001V30.7857H30.9356V31.7857ZM1.00012 31.7857H3.06464V30.7857H1.00012V31.7857ZM0.500122 31.2857V33H1.50012V31.2857H0.500122Z" fill="#FF0303"/>
<path d="M30.9356 1H31.4356C31.4356 0.723858 31.2117 0.5 30.9356 0.5V1ZM24.7421 1V0.5C24.4659 0.5 24.2421 0.723858 24.2421 1H24.7421ZM23.1937 9H23.6937C23.6937 8.72386 23.4698 8.5 23.1937 8.5V9ZM17.5163 9V8.5C17.2401 8.5 17.0163 8.72386 17.0163 9H17.5163ZM15.9679 17.5714H16.4679C16.4679 17.2953 16.244 17.0714 15.9679 17.0714V17.5714ZM10.2904 17.5714V17.0714C10.0143 17.0714 9.79044 17.2953 9.79044 17.5714H10.2904ZM8.22593 24.4286H8.72593C8.72593 24.1524 8.50207 23.9286 8.22593 23.9286V24.4286ZM3.06464 24.4286V23.9286C2.7885 23.9286 2.56464 24.1524 2.56464 24.4286H3.06464ZM1.00012 31.2857V30.7857C0.72398 30.7857 0.500122 31.0096 0.500122 31.2857H1.00012ZM1.00012 33H0.500122C0.500122 33.2761 0.72398 33.5 1.00012 33.5V33ZM33.0001 33V33.5C33.2763 33.5 33.5001 33.2761 33.5001 33H33.0001ZM33.0001 31.2857H33.5001C33.5001 31.0096 33.2763 30.7857 33.0001 30.7857V31.2857ZM21.6453 29.0714C21.3691 29.0714 21.1453 29.2953 21.1453 29.5714C21.1453 29.8476 21.3691 30.0714 21.6453 30.0714V29.0714ZM21.6453 25.6429C21.3691 25.6429 21.1453 25.8667 21.1453 26.1429C21.1453 26.419 21.3691 26.6429 21.6453 26.6429V25.6429ZM21.6453 22.2143C21.3691 22.2143 21.1453 22.4381 21.1453 22.7143C21.1453 22.9904 21.3691 23.2143 21.6453 23.2143V22.2143ZM21.6453 19.3571C21.3691 19.3571 21.1453 19.581 21.1453 19.8571C21.1453 20.1333 21.3691 20.3571 21.6453 20.3571V19.3571ZM21.6453 16.5C21.3691 16.5 21.1453 16.7239 21.1453 17C21.1453 17.2761 21.3691 17.5 21.6453 17.5V16.5ZM21.6453 13.6429C21.3691 13.6429 21.1453 13.8667 21.1453 14.1429C21.1453 14.419 21.3691 14.6429 21.6453 14.6429V13.6429ZM21.6453 11.0714C21.3691 11.0714 21.1453 11.2953 21.1453 11.5714C21.1453 11.8476 21.3691 12.0714 21.6453 12.0714V11.0714ZM19.5808 13.5C19.8569 13.5 20.0808 13.2761 20.0808 13C20.0808 12.7239 19.8569 12.5 19.5808 12.5V13.5ZM19.5808 16.3571C19.8569 16.3571 20.0808 16.1333 20.0808 15.8571C20.0808 15.581 19.8569 15.3571 19.5808 15.3571V16.3571ZM19.5808 19.2143C19.8569 19.2143 20.0808 18.9904 20.0808 18.7143C20.0808 18.4381 19.8569 18.2143 19.5808 18.2143V19.2143ZM19.5808 22.0714C19.8569 22.0714 20.0808 21.8476 20.0808 21.5714C20.0808 21.2953 19.8569 21.0714 19.5808 21.0714V22.0714ZM19.5808 24.9286C19.8569 24.9286 20.0808 24.7047 20.0808 24.4286C20.0808 24.1524 19.8569 23.9286 19.5808 23.9286V24.9286ZM19.5808 28.3571C19.8569 28.3571 20.0808 28.1333 20.0808 27.8571C20.0808 27.581 19.8569 27.3571 19.5808 27.3571V28.3571ZM6.67754 29.0714C6.4014 29.0714 6.17754 29.2953 6.17754 29.5714C6.17754 29.8476 6.4014 30.0714 6.67754 30.0714V29.0714ZM6.67754 26.5C6.4014 26.5 6.17754 26.7239 6.17754 27C6.17754 27.2761 6.4014 27.5 6.67754 27.5V26.5ZM2.69359 14.9506C2.50849 15.1555 2.52457 15.4717 2.7295 15.6568C2.93442 15.8419 3.2506 15.8258 3.43569 15.6209L2.69359 14.9506ZM15.9679 1L10.4742 2.77556L14.7587 6.64546L15.9679 1ZM31.4356 31.2857V1H30.4356V31.2857H31.4356ZM30.9356 0.5H24.7421V1.5H30.9356V0.5ZM24.2421 1V31.2857H25.2421V1H24.2421ZM23.1937 31.7857H24.7421V30.7857H23.1937V31.7857ZM23.1937 8.5H17.5163V9.5H23.1937V8.5ZM17.5163 31.7857H23.1937V30.7857H17.5163V31.7857ZM15.9679 31.7857H17.5163V30.7857H15.9679V31.7857ZM16.4679 31.2857V17.5714H15.4679V31.2857H16.4679ZM15.9679 17.0714H10.2904V18.0714H15.9679V17.0714ZM9.79044 17.5714V31.2857H10.7904V17.5714H9.79044ZM8.22593 31.7857H10.2904V30.7857H8.22593V31.7857ZM8.22593 23.9286H3.06464V24.9286H8.22593V23.9286ZM3.06464 31.7857H8.22593V30.7857H3.06464V31.7857ZM1.00012 33.5H33.0001V32.5H1.00012V33.5ZM33.5001 33V31.2857H32.5001V33H33.5001ZM23.6937 31.2857V29.5714H22.6937V31.2857H23.6937ZM23.1937 29.0714H21.6453V30.0714H23.1937V29.0714ZM23.6937 29.5714V26.1429H22.6937V29.5714H23.6937ZM23.1937 25.6429H21.6453V26.6429H23.1937V25.6429ZM23.6937 26.1429V22.7143H22.6937V26.1429H23.6937ZM23.1937 22.2143H21.6453V23.2143H23.1937V22.2143ZM23.6937 22.7143V19.8571H22.6937V22.7143H23.6937ZM23.1937 19.3571H21.6453V20.3571H23.1937V19.3571ZM23.6937 19.8571V17H22.6937V19.8571H23.6937ZM23.1937 16.5H21.6453V17.5H23.1937V16.5ZM23.6937 17V14.1429H22.6937V17H23.6937ZM23.1937 13.6429H21.6453V14.6429H23.1937V13.6429ZM23.6937 14.1429V11.5714H22.6937V14.1429H23.6937ZM23.6937 11.5714V9H22.6937V11.5714H23.6937ZM23.1937 11.0714H21.6453V12.0714H23.1937V11.0714ZM17.0163 9V13H18.0163V9H17.0163ZM17.5163 13.5H19.5808V12.5H17.5163V13.5ZM17.0163 13V15.8571H18.0163V13H17.0163ZM17.5163 16.3571H19.5808V15.3571H17.5163V16.3571ZM17.0163 15.8571V18.7143H18.0163V15.8571H17.0163ZM17.5163 19.2143H19.5808V18.2143H17.5163V19.2143ZM17.0163 18.7143V21.5714H18.0163V18.7143H17.0163ZM17.5163 22.0714H19.5808V21.0714H17.5163V22.0714ZM17.0163 21.5714V24.4286H18.0163V21.5714H17.0163ZM17.5163 24.9286H19.5808V23.9286H17.5163V24.9286ZM17.0163 24.4286V27.8571H18.0163V24.4286H17.0163ZM17.0163 27.8571V31.2857H18.0163V27.8571H17.0163ZM17.5163 28.3571H19.5808V27.3571H17.5163V28.3571ZM8.72593 31.2857V29.5714H7.72593V31.2857H8.72593ZM8.22593 29.0714H6.67754V30.0714H8.22593V29.0714ZM8.72593 29.5714V27H7.72593V29.5714H8.72593ZM8.72593 27V24.4286H7.72593V27H8.72593ZM8.22593 26.5H6.67754V27.5H8.22593V26.5ZM2.56464 24.4286V27.8571H3.56464V24.4286H2.56464ZM2.56464 27.8571V31.2857H3.56464V27.8571H2.56464ZM15.9679 30.7857H13.1292V31.7857H15.9679V30.7857ZM13.1292 30.7857H10.2904V31.7857H13.1292V30.7857ZM24.7421 31.7857H27.8388V30.7857H24.7421V31.7857ZM27.8388 31.7857H30.9356V30.7857H27.8388V31.7857ZM3.43569 15.6209L13.3226 4.67461L12.5805 4.00432L2.69359 14.9506L3.43569 15.6209ZM30.9356 31.7857H33.0001V30.7857H30.9356V31.7857ZM1.00012 31.7857H3.06464V30.7857H1.00012V31.7857ZM0.500122 31.2857V33H1.50012V31.2857H0.500122Z" fill="black" fill-opacity="0.2"/>
</svg>
