<svg width="50" height="50" viewBox="0 0 50 50" fill="none" xmlns="http://www.w3.org/2000/svg">
<path d="M15.3335 15.8099L14.9795 15.4568C14.886 15.5505 14.8335 15.6775 14.8335 15.8099H15.3335ZM15.5351 14.8998L14.9795 15.4568L15.6875 16.163L16.2431 15.606L15.5351 14.8998ZM14.8335 15.8099V21.9365H15.8335V15.8099H14.8335ZM17.0557 16.9238V20.2656H18.0557V16.9238H17.0557Z" fill="#146EB4"/>
<path d="M31.4443 17.1465V20.2655" stroke="#146EB4" stroke-linecap="round"/>
<path d="M41.9999 3L32.5555 14.6962H29.2222L24.2222 8.56962L28.6666 3H41.9999Z" stroke="#146EB4" stroke-linejoin="round"/>
<path d="M29.2222 14.6963H33.1111L34.2222 15.8102V23.0507" stroke="#146EB4" stroke-linejoin="round"/>
<path d="M38.1667 32.5191C38.1667 40.2418 31.9224 46.5001 24.2223 46.5001C16.5222 46.5001 10.2778 40.2418 10.2778 32.5191C10.2778 24.7964 16.5222 18.5381 24.2223 18.5381C31.9224 18.5381 38.1667 24.7964 38.1667 32.5191Z" stroke="#146EB4"/>
<path d="M33.8883 28.1976C33.7217 27.8503 33.2997 27.7136 32.9654 27.9036C32.6628 28.0756 32.5458 28.4532 32.6967 28.7673C33.3067 30.0365 33.6268 31.4393 33.6268 32.8599C33.6268 38.1822 29.205 42.4887 23.8507 42.2808C18.9699 42.0913 15.0143 38.1257 14.8253 33.2325C14.6179 27.8649 18.9135 23.4317 24.2224 23.4317C26.8163 23.4317 29.2682 24.4942 31.0415 26.367C31.2817 26.6207 31.6758 26.6462 31.9439 26.4224C32.2362 26.1785 32.2643 25.7364 32.0026 25.4597C29.9801 23.3215 27.1824 22.1084 24.2225 22.1084C18.1682 22.1084 13.2697 27.1639 13.5063 33.2851C13.7219 38.8651 18.2327 43.3873 23.7987 43.6034C29.9044 43.8404 34.9469 38.9294 34.9469 32.86C34.947 31.2422 34.5827 29.6444 33.8883 28.1976Z" fill="#146EB4"/>
<path d="M26.0745 29.461C26.0745 30.1616 25.9023 30.7505 25.558 31.2277C25.2137 31.6998 24.7276 32.0272 24.0997 32.21V32.2709C24.7984 32.3826 25.3377 32.6567 25.7175 33.0933C26.1023 33.5298 26.2948 34.1238 26.2948 34.8751C26.2948 35.9006 25.9757 36.7179 25.3377 37.327C24.7048 37.9362 23.8364 38.2408 22.7325 38.2408C21.7501 38.2408 20.9248 38.0657 20.2563 37.7154V35.8574C20.5905 36.0605 20.9526 36.2204 21.3425 36.3371C21.7324 36.4539 22.1071 36.5123 22.4666 36.5123C23.054 36.5123 23.4971 36.3777 23.7958 36.1087C24.0946 35.8346 24.244 35.4031 24.244 34.8142C24.244 33.7024 23.5629 33.1466 22.2008 33.1466H21.5704V31.6008H22.1704C22.773 31.6008 23.2338 31.4586 23.5528 31.1744C23.8769 30.8901 24.0389 30.4662 24.0389 29.9027C24.0389 29.461 23.9351 29.1285 23.7275 28.9052C23.5249 28.6767 23.2363 28.5625 22.8616 28.5625C22.2894 28.5625 21.7324 28.8062 21.1906 29.2935L20.2563 27.9229C21.0058 27.1716 21.9501 26.7959 23.0895 26.7959C24.0262 26.7959 24.7579 27.0345 25.2846 27.5117C25.8112 27.9838 26.0745 28.6336 26.0745 29.461Z" fill="#146EB4"/>
<path d="M7 3V2.5C6.81015 2.5 6.63668 2.60752 6.55221 2.77755C6.46775 2.94757 6.48686 3.15077 6.60155 3.30206L7 3ZM19.7778 3L20.1686 2.68813C20.0737 2.56924 19.9299 2.5 19.7778 2.5V3ZM30.8889 16.9241V17.4241C31.081 17.4241 31.2561 17.314 31.3394 17.1409C31.4227 16.9678 31.3995 16.7623 31.2797 16.6122L30.8889 16.9241ZM17.5556 16.9241L17.1571 17.2261C17.2516 17.3508 17.3991 17.4241 17.5556 17.4241V16.9241ZM10.1728 2.69351C10.0036 2.47533 9.68947 2.43568 9.47129 2.60495C9.25311 2.77422 9.21346 3.08831 9.38273 3.30649L10.1728 2.69351ZM13.2716 8.31914C13.4409 8.53733 13.755 8.57698 13.9732 8.40771C14.1913 8.23844 14.231 7.92435 14.0617 7.70617L13.2716 8.31914ZM23.5019 11.0426C23.3297 10.8267 23.0151 10.7914 22.7992 10.9636C22.5834 11.1358 22.5481 11.4505 22.7203 11.6663L23.5019 11.0426ZM27.1647 17.2359C27.337 17.4518 27.6516 17.4871 27.8674 17.3149C28.0833 17.1426 28.1186 16.828 27.9464 16.6122L27.1647 17.2359ZM7 3.5H19.7778V2.5H7V3.5ZM30.8889 16.4241H17.5556V17.4241H30.8889V16.4241ZM17.954 16.622L7.39845 2.69794L6.60155 3.30206L17.1571 17.2261L17.954 16.622ZM9.38273 3.30649L13.2716 8.31914L14.0617 7.70617L10.1728 2.69351L9.38273 3.30649ZM22.7203 11.6663L27.1647 17.2359L27.9464 16.6122L23.5019 11.0426L22.7203 11.6663ZM19.387 3.31187L30.4981 17.2359L31.2797 16.6122L20.1686 2.68813L19.387 3.31187Z" fill="#146EB4"/>
</svg>
