<svg width="50" height="50" viewBox="0 0 50 50" fill="none" xmlns="http://www.w3.org/2000/svg">
<g clip-path="url(#clip0)">
<path d="M10.8325 40.8333V45.1533C9.68548 45.5574 8.99701 46.7297 9.20331 47.9284C9.4092 49.1271 10.4496 50.0024 11.6659 49.9999H38.3325C39.5488 50.0024 40.5892 49.1271 40.7955 47.9284C41.0014 46.7297 40.3129 45.5574 39.1659 45.1533V40.8333C39.1634 38.533 37.2994 36.6694 34.9992 36.6666H34.3327L40.8183 0.982613C40.8728 0.684355 40.7609 0.3804 40.5265 0.188343C40.2918 -0.0037146 39.9715 -0.0529496 39.6904 0.0589481C39.6078 0.092314 31.4242 3.33328 24.9992 3.33328C18.5742 3.33328 10.3911 0.092314 10.3084 0.0589481C10.0269 -0.0529496 9.70664 -0.0037146 9.47227 0.188343C9.23789 0.3804 9.126 0.684355 9.18011 0.982613L15.6661 36.6666H14.9992C12.6994 36.6694 10.8354 38.533 10.8325 40.8333ZM38.3325 48.3333H11.6659C11.2057 48.3333 10.8325 47.9601 10.8325 47.4999C10.8325 47.0397 11.2057 46.6666 11.6659 46.6666H38.3325C38.7927 46.6666 39.1659 47.0397 39.1659 47.4999C39.1659 47.9601 38.7927 48.3333 38.3325 48.3333ZM37.4992 40.8333V44.9999H12.4992V40.8333C12.4992 39.4526 13.6186 38.3333 14.9992 38.3333H34.9992C36.3802 38.3333 37.4992 39.4526 37.4992 40.8333ZM20.6934 36.6666L15.225 6.97911C18.4208 7.80268 21.7001 8.25719 24.9992 8.33328C28.2984 8.25719 31.578 7.80268 34.7734 6.97911L29.305 36.6666H20.6934ZM11.0828 2.126C13.7634 3.08344 19.8137 4.99994 24.9992 4.99994C30.1852 4.99994 36.235 3.08344 38.916 2.126L32.6367 36.6666H30.9994L36.6516 5.98424C36.7041 5.69941 36.6048 5.40807 36.39 5.21438C36.1747 5.0207 35.8744 4.95234 35.5969 5.03412C32.1436 6.00662 28.5848 6.55471 24.9992 6.66661C21.4136 6.55471 17.8548 6.00662 14.4019 5.03412C14.124 4.95234 13.8241 5.0207 13.6088 5.21438C13.3936 5.40807 13.2947 5.69941 13.3468 5.98424L18.9994 36.6666H17.3617L11.0828 2.126Z" fill="#146EB4"/>
<path d="M20.7574 15.7574C19.6241 16.8906 19 18.3973 19 20C19 21.6027 19.6241 23.1094 20.7574 24.2426C21.8906 25.3759 23.3973 26 25 26C26.6027 26 28.1094 25.3759 29.2426 24.2426C30.3759 23.1094 31 21.6027 31 20C31 18.3973 30.3759 16.8906 29.2426 15.7574C28.1094 14.6241 26.6027 14 25 14C23.3973 14 21.8906 14.6241 20.7574 15.7574ZM30.6405 20.1782C30.5961 21.6189 30.0144 22.9668 28.9906 23.9906C28.9872 23.994 28.9837 23.9972 28.9804 24.0006C28.4804 23.5037 28.0827 22.9265 27.7975 22.2823C27.5026 21.6161 27.3425 20.9091 27.3201 20.1783H30.6405V20.1782ZM24.8218 20.1782V23.5405H25.1782V20.1782H26.9634C26.9859 20.9592 27.1564 21.7147 27.4716 22.4266C27.773 23.1075 28.1927 23.7179 28.7198 24.244C27.7345 25.11 26.4952 25.5999 25.1782 25.6405V24.0158H24.8218V25.6405C23.5048 25.5999 22.2654 25.1101 21.2802 24.244C21.8073 23.7179 22.2269 23.1075 22.5284 22.4265C22.8435 21.7147 23.014 20.9592 23.0366 20.1782H24.8218ZM22.6799 20.1782C22.6575 20.9091 22.4974 21.6161 22.2025 22.2822C21.9173 22.9265 21.5196 23.5037 21.0197 24.0006C21.0163 23.9972 21.0128 23.994 21.0094 23.9906C19.9856 22.9668 19.4039 21.6188 19.3595 20.1782H22.6799V20.1782ZM19.3595 19.8218C19.4039 18.3811 19.9856 17.0332 21.0094 16.0094C21.0128 16.006 21.0163 16.0028 21.0196 15.9994C21.5196 16.4963 21.9173 17.0735 22.2025 17.7177C22.4974 18.3839 22.6575 19.0909 22.6799 19.8218H19.3595V19.8218ZM24.8218 19.8218H23.0366C23.0141 19.0408 22.8436 18.2853 22.5284 17.5735C22.227 16.8925 21.8073 16.2821 21.2802 15.756C22.2655 14.89 23.5048 14.4001 24.8218 14.3595V19.8218H24.8218ZM28.9906 16.0094C30.0144 17.0332 30.5961 18.3811 30.6405 19.8218H27.3201C27.3425 19.0909 27.5026 18.3839 27.7975 17.7178C28.0827 17.0735 28.4803 16.4963 28.9803 15.9994C28.9837 16.0028 28.9872 16.006 28.9906 16.0094ZM27.4716 17.5735C27.1564 18.2853 26.9859 19.0408 26.9634 19.8218H25.1782V14.3595C26.4952 14.4001 27.7346 14.89 28.7198 15.756C28.1927 16.2821 27.773 16.8925 27.4716 17.5735Z" fill="#146EB4" stroke="#146EB4" stroke-width="0.5"/>
<path d="M14.9772 42.7052C14.9643 42.6915 14.9472 42.6827 14.9288 42.6802L14.3372 42.5922L14.0742 42.0427C14.0497 42.001 13.9969 41.9876 13.9562 42.0126C13.9442 42.02 13.9341 42.0303 13.9268 42.0427L13.6628 42.5902L13.0712 42.6781C13.0264 42.6841 12.9948 42.7262 13.0007 42.772C13.0031 42.7909 13.0117 42.8083 13.0252 42.8215L13.453 43.2476L13.3506 43.8495C13.3433 43.8957 13.374 43.9393 13.4192 43.9468C13.4367 43.9497 13.4546 43.9468 13.4704 43.9385L14.0005 43.6558L14.5296 43.9406C14.5704 43.962 14.6203 43.9456 14.6413 43.904C14.6494 43.8878 14.6522 43.8695 14.6494 43.8516L14.547 43.2497L14.9749 42.8236C15.0075 42.7916 15.0085 42.7385 14.9772 42.7052ZM14.4017 43.1586C14.3825 43.178 14.3737 43.2057 14.3782 43.2329L14.458 43.7103L14.0384 43.4852C14.0143 43.4724 13.9857 43.4724 13.9616 43.4852L13.542 43.7103L13.6218 43.2329C13.6263 43.2057 13.6175 43.178 13.5983 43.1586L13.2595 42.8205L13.7283 42.7514C13.7552 42.7474 13.7786 42.7302 13.7907 42.7053L13.9954 42.2709L14.2001 42.7053C14.2122 42.7302 14.2356 42.7474 14.2625 42.7514L14.7313 42.8205L14.4017 43.1586Z" fill="#146EB4"/>
<path d="M17.9772 42.7052C17.9643 42.6915 17.9472 42.6827 17.9288 42.6802L17.3372 42.5922L17.0742 42.0427C17.0497 42.001 16.9969 41.9876 16.9562 42.0126C16.9442 42.02 16.9341 42.0303 16.9268 42.0427L16.6628 42.5902L16.0712 42.6781C16.0264 42.6841 15.9948 42.7262 16.0007 42.772C16.0031 42.7909 16.0117 42.8083 16.0252 42.8215L16.453 43.2476L16.3506 43.8495C16.3433 43.8957 16.374 43.9393 16.4192 43.9468C16.4367 43.9497 16.4546 43.9468 16.4704 43.9385L17.0005 43.6558L17.5296 43.9406C17.5704 43.962 17.6203 43.9456 17.6413 43.904C17.6494 43.8878 17.6522 43.8695 17.6494 43.8516L17.547 43.2497L17.9749 42.8236C18.0075 42.7916 18.0085 42.7385 17.9772 42.7052ZM17.4017 43.1586C17.3825 43.178 17.3737 43.2057 17.3782 43.2329L17.458 43.7103L17.0384 43.4852C17.0143 43.4724 16.9857 43.4724 16.9616 43.4852L16.542 43.7103L16.6218 43.2329C16.6263 43.2057 16.6175 43.178 16.5983 43.1586L16.2595 42.8205L16.7283 42.7514C16.7552 42.7474 16.7786 42.7302 16.7907 42.7053L16.9954 42.2709L17.2001 42.7053C17.2122 42.7302 17.2356 42.7474 17.2625 42.7514L17.7313 42.8205L17.4017 43.1586Z" fill="#146EB4"/>
<path d="M20.9772 42.7052C20.9643 42.6915 20.9472 42.6827 20.9288 42.6802L20.3372 42.5922L20.0742 42.0427C20.0497 42.001 19.9969 41.9876 19.9562 42.0126C19.9442 42.02 19.9341 42.0303 19.9268 42.0427L19.6628 42.5902L19.0712 42.6781C19.0264 42.6841 18.9948 42.7262 19.0007 42.772C19.0031 42.7909 19.0117 42.8083 19.0252 42.8215L19.453 43.2476L19.3506 43.8495C19.3433 43.8957 19.374 43.9393 19.4192 43.9468C19.4367 43.9497 19.4546 43.9468 19.4704 43.9385L20.0005 43.6558L20.5296 43.9406C20.5704 43.962 20.6203 43.9456 20.6413 43.904C20.6494 43.8878 20.6522 43.8695 20.6494 43.8516L20.547 43.2497L20.9749 42.8236C21.0075 42.7916 21.0085 42.7385 20.9772 42.7052ZM20.4017 43.1586C20.3825 43.178 20.3737 43.2057 20.3782 43.2329L20.458 43.7103L20.0384 43.4852C20.0143 43.4724 19.9857 43.4724 19.9616 43.4852L19.542 43.7103L19.6218 43.2329C19.6263 43.2057 19.6175 43.178 19.5983 43.1586L19.2595 42.8205L19.7283 42.7514C19.7552 42.7474 19.7786 42.7302 19.7907 42.7053L19.9954 42.2709L20.2001 42.7053C20.2122 42.7302 20.2356 42.7474 20.2625 42.7514L20.7313 42.8205L20.4017 43.1586Z" fill="#146EB4"/>
<path d="M32.9543 10.4104C32.9285 10.383 32.8944 10.3653 32.8576 10.3604L31.6745 10.1845L31.1484 9.08531C31.0995 9.00206 30.9939 8.97513 30.9125 9.02514C30.8884 9.03998 30.8682 9.06063 30.8537 9.08531L30.3255 10.1803L29.1424 10.3562C29.0528 10.3682 28.9896 10.4524 29.0014 10.5441C29.0063 10.5818 29.0235 10.6167 29.0503 10.643L29.9059 11.4952L29.7012 12.699C29.6866 12.7915 29.748 12.8786 29.8384 12.8936C29.8733 12.8994 29.9092 12.8936 29.9407 12.877L31.001 12.3117L32.0593 12.8812C32.1407 12.924 32.2407 12.8912 32.2826 12.8079C32.2988 12.7757 32.3045 12.739 32.2988 12.7032L32.0941 11.4993L32.9497 10.6472C33.0149 10.5831 33.017 10.4771 32.9543 10.4104ZM31.8034 11.3172C31.765 11.356 31.7475 11.4114 31.7564 11.4658L31.916 12.4206L31.0768 11.9704C31.0287 11.9447 30.9714 11.9447 30.9233 11.9704L30.084 12.4206L30.2437 11.4658C30.2525 11.4114 30.235 11.356 30.1966 11.3172L29.5191 10.6409L30.4566 10.5027C30.5104 10.4949 30.5571 10.4604 30.5814 10.4106L30.9908 9.54173L31.4002 10.4106C31.4245 10.4604 31.4712 10.4949 31.525 10.5027L32.4625 10.6409L31.8034 11.3172Z" fill="#146EB4"/>
</g>
<defs>
<clipPath id="clip0">
<rect width="50" height="50" fill="white"/>
</clipPath>
</defs>
</svg>
