<svg width="36" height="36" viewBox="0 0 36 36" fill="none" xmlns="http://www.w3.org/2000/svg">
<path d="M12.0774 24.0655C12.2977 24.232 12.6113 24.1885 12.7778 23.9682C12.9444 23.7479 12.9008 23.4343 12.6805 23.2678L12.0774 24.0655ZM23.3198 23.2678C23.0996 23.4343 23.056 23.7479 23.2226 23.9682C23.3891 24.1885 23.7027 24.232 23.9229 24.0655L23.3198 23.2678ZM16.8759 35H16.3759C16.3759 35.2761 16.5998 35.5 16.8759 35.5V35ZM19.1244 35V35.5C19.4006 35.5 19.6244 35.2761 19.6244 35H19.1244ZM20.8108 34.9333C21.0869 34.9333 21.3108 34.7094 21.3108 34.4333C21.3108 34.1572 21.0869 33.9333 20.8108 33.9333V34.9333ZM15.1896 33.9333C14.9134 33.9333 14.6896 34.1572 14.6896 34.4333C14.6896 34.7094 14.9134 34.9333 15.1896 34.9333V33.9333ZM21.3729 33.8666V34.3666C21.649 34.3666 21.8729 34.1428 21.8729 33.8666H21.3729ZM23.0593 33.2333C23.3354 33.2333 23.5593 33.0094 23.5593 32.7333C23.5593 32.4572 23.3354 32.2333 23.0593 32.2333V33.2333ZM14.0653 33.3666C13.7892 33.3666 13.5653 33.5905 13.5653 33.8666C13.5653 34.1428 13.7892 34.3666 14.0653 34.3666V33.3666ZM12.9411 32.2333C12.665 32.2333 12.4411 32.4572 12.4411 32.7333C12.4411 33.0094 12.665 33.2333 12.9411 33.2333V32.2333ZM24.1214 24.2333C24.1214 23.9572 23.8975 23.7333 23.6214 23.7333C23.3452 23.7333 23.1214 23.9572 23.1214 24.2333H24.1214ZM13.4411 24.2333C13.4411 23.9572 13.2172 23.7333 12.9411 23.7333C12.665 23.7333 12.4411 23.9572 12.4411 24.2333H13.4411ZM12.379 31.6H11.879C11.879 31.8761 12.1028 32.1 12.379 32.1V31.6ZM23.6214 31.6V32.1C23.8975 32.1 24.1214 31.8761 24.1214 31.6H23.6214ZM16.8759 27.7C16.5998 27.7 16.3759 27.9238 16.3759 28.2C16.3759 28.4761 16.5998 28.7 16.8759 28.7V27.7ZM15.1896 28.7C15.4657 28.7 15.6896 28.4761 15.6896 28.2C15.6896 27.9238 15.4657 27.7 15.1896 27.7V28.7ZM12.879 24.2333C12.879 23.9572 12.6551 23.7333 12.379 23.7333C12.1028 23.7333 11.879 23.9572 11.879 24.2333H12.879ZM22.5593 25.9333C22.5593 26.2094 22.7831 26.4333 23.0593 26.4333C23.3354 26.4333 23.5593 26.2094 23.5593 25.9333H22.5593ZM23.5593 24.2333C23.5593 23.9572 23.3354 23.7333 23.0593 23.7333C22.7831 23.7333 22.5593 23.9572 22.5593 24.2333H23.5593ZM12.6805 23.2678C9.4685 20.8393 7.41079 15.6388 7.88751 11.039C8.12414 8.75586 8.98161 6.66393 10.5883 5.14391C12.1904 3.62825 14.588 2.6333 18.0002 2.6333V1.6333C14.3859 1.6333 11.7244 2.69251 9.90107 4.41748C8.08235 6.13809 7.14807 8.47324 6.89284 10.9359C6.38586 15.8278 8.54406 21.394 12.0774 24.0655L12.6805 23.2678ZM23.9229 24.0655C27.4563 21.394 29.6145 15.8278 29.1075 10.9359C28.8523 8.47324 27.918 6.13809 26.0993 4.41748C24.276 2.69251 21.6145 1.6333 18.0002 1.6333V2.6333C21.4124 2.6333 23.81 3.62825 25.4121 5.14391C27.0188 6.66393 27.8763 8.75586 28.1129 11.039C28.5896 15.6388 26.5319 20.8393 23.3198 23.2678L23.9229 24.0655ZM16.8759 35.5H19.1244V34.5H16.8759V35.5ZM19.6244 35V34.4333H18.6244V35H19.6244ZM19.1244 33.9333H16.8759V34.9333H19.1244V33.9333ZM16.3759 34.4333V35H17.3759V34.4333H16.3759ZM14.6275 33.3666H14.0653V34.3666H14.6275V33.3666ZM14.6275 33.2333H21.3729V32.2333H14.6275V33.2333ZM15.1275 33.8666V32.7333H14.1275V33.8666H15.1275ZM24.1214 26.5V24.2333H23.1214V26.5H24.1214ZM23.6214 26H12.9411V27H23.6214V26ZM13.4411 26.5V24.2333H12.4411V26.5H13.4411ZM12.379 32.1H12.9411V31.1H12.379V32.1ZM12.9411 32.1H23.6214V31.1H12.9411V32.1ZM12.4411 29.9V31.6H13.4411V29.9H12.4411ZM24.1214 31.6V29.9H23.1214V31.6H24.1214ZM12.9411 30.4H23.6214V29.4H12.9411V30.4ZM24.1214 29.9V28.2H23.1214V29.9H24.1214ZM24.1214 28.2V26.5H23.1214V28.2H24.1214ZM23.6214 27.7H16.8759V28.7H23.6214V27.7ZM12.4411 26.5V28.2H13.4411V26.5H12.4411ZM12.4411 28.2V29.9H13.4411V28.2H12.4411ZM12.9411 28.7H15.1896V27.7H12.9411V28.7ZM11.879 24.2333V31.6H12.879V24.2333H11.879ZM19.1244 34.9333H20.8108V33.9333H19.1244V34.9333ZM16.8759 33.9333H15.1896V34.9333H16.8759V33.9333ZM21.3729 33.3666H14.6275V34.3666H21.3729V33.3666ZM21.8729 33.8666V32.7333H20.8729V33.8666H21.8729ZM21.3729 33.2333H23.0593V32.2333H21.3729V33.2333ZM14.6275 32.2333H12.9411V33.2333H14.6275V32.2333ZM22.5593 24.2333V25.9333H23.5593V24.2333H22.5593Z" fill="#FF0303"/>
<path d="M12.0774 24.0655C12.2977 24.232 12.6113 24.1885 12.7778 23.9682C12.9444 23.7479 12.9008 23.4343 12.6805 23.2678L12.0774 24.0655ZM23.3198 23.2678C23.0996 23.4343 23.056 23.7479 23.2226 23.9682C23.3891 24.1885 23.7027 24.232 23.9229 24.0655L23.3198 23.2678ZM16.8759 35H16.3759C16.3759 35.2761 16.5998 35.5 16.8759 35.5V35ZM19.1244 35V35.5C19.4006 35.5 19.6244 35.2761 19.6244 35H19.1244ZM20.8108 34.9333C21.0869 34.9333 21.3108 34.7094 21.3108 34.4333C21.3108 34.1572 21.0869 33.9333 20.8108 33.9333V34.9333ZM15.1896 33.9333C14.9134 33.9333 14.6896 34.1572 14.6896 34.4333C14.6896 34.7094 14.9134 34.9333 15.1896 34.9333V33.9333ZM21.3729 33.8666V34.3666C21.649 34.3666 21.8729 34.1428 21.8729 33.8666H21.3729ZM23.0593 33.2333C23.3354 33.2333 23.5593 33.0094 23.5593 32.7333C23.5593 32.4572 23.3354 32.2333 23.0593 32.2333V33.2333ZM14.0653 33.3666C13.7892 33.3666 13.5653 33.5905 13.5653 33.8666C13.5653 34.1428 13.7892 34.3666 14.0653 34.3666V33.3666ZM12.9411 32.2333C12.665 32.2333 12.4411 32.4572 12.4411 32.7333C12.4411 33.0094 12.665 33.2333 12.9411 33.2333V32.2333ZM24.1214 24.2333C24.1214 23.9572 23.8975 23.7333 23.6214 23.7333C23.3452 23.7333 23.1214 23.9572 23.1214 24.2333H24.1214ZM13.4411 24.2333C13.4411 23.9572 13.2172 23.7333 12.9411 23.7333C12.665 23.7333 12.4411 23.9572 12.4411 24.2333H13.4411ZM12.379 31.6H11.879C11.879 31.8761 12.1028 32.1 12.379 32.1V31.6ZM23.6214 31.6V32.1C23.8975 32.1 24.1214 31.8761 24.1214 31.6H23.6214ZM16.8759 27.7C16.5998 27.7 16.3759 27.9238 16.3759 28.2C16.3759 28.4761 16.5998 28.7 16.8759 28.7V27.7ZM15.1896 28.7C15.4657 28.7 15.6896 28.4761 15.6896 28.2C15.6896 27.9238 15.4657 27.7 15.1896 27.7V28.7ZM12.879 24.2333C12.879 23.9572 12.6551 23.7333 12.379 23.7333C12.1028 23.7333 11.879 23.9572 11.879 24.2333H12.879ZM22.5593 25.9333C22.5593 26.2094 22.7831 26.4333 23.0593 26.4333C23.3354 26.4333 23.5593 26.2094 23.5593 25.9333H22.5593ZM23.5593 24.2333C23.5593 23.9572 23.3354 23.7333 23.0593 23.7333C22.7831 23.7333 22.5593 23.9572 22.5593 24.2333H23.5593ZM12.6805 23.2678C9.4685 20.8393 7.41079 15.6388 7.88751 11.039C8.12414 8.75586 8.98161 6.66393 10.5883 5.14391C12.1904 3.62825 14.588 2.6333 18.0002 2.6333V1.6333C14.3859 1.6333 11.7244 2.69251 9.90107 4.41748C8.08235 6.13809 7.14807 8.47324 6.89284 10.9359C6.38586 15.8278 8.54406 21.394 12.0774 24.0655L12.6805 23.2678ZM23.9229 24.0655C27.4563 21.394 29.6145 15.8278 29.1075 10.9359C28.8523 8.47324 27.918 6.13809 26.0993 4.41748C24.276 2.69251 21.6145 1.6333 18.0002 1.6333V2.6333C21.4124 2.6333 23.81 3.62825 25.4121 5.14391C27.0188 6.66393 27.8763 8.75586 28.1129 11.039C28.5896 15.6388 26.5319 20.8393 23.3198 23.2678L23.9229 24.0655ZM16.8759 35.5H19.1244V34.5H16.8759V35.5ZM19.6244 35V34.4333H18.6244V35H19.6244ZM19.1244 33.9333H16.8759V34.9333H19.1244V33.9333ZM16.3759 34.4333V35H17.3759V34.4333H16.3759ZM14.6275 33.3666H14.0653V34.3666H14.6275V33.3666ZM14.6275 33.2333H21.3729V32.2333H14.6275V33.2333ZM15.1275 33.8666V32.7333H14.1275V33.8666H15.1275ZM24.1214 26.5V24.2333H23.1214V26.5H24.1214ZM23.6214 26H12.9411V27H23.6214V26ZM13.4411 26.5V24.2333H12.4411V26.5H13.4411ZM12.379 32.1H12.9411V31.1H12.379V32.1ZM12.9411 32.1H23.6214V31.1H12.9411V32.1ZM12.4411 29.9V31.6H13.4411V29.9H12.4411ZM24.1214 31.6V29.9H23.1214V31.6H24.1214ZM12.9411 30.4H23.6214V29.4H12.9411V30.4ZM24.1214 29.9V28.2H23.1214V29.9H24.1214ZM24.1214 28.2V26.5H23.1214V28.2H24.1214ZM23.6214 27.7H16.8759V28.7H23.6214V27.7ZM12.4411 26.5V28.2H13.4411V26.5H12.4411ZM12.4411 28.2V29.9H13.4411V28.2H12.4411ZM12.9411 28.7H15.1896V27.7H12.9411V28.7ZM11.879 24.2333V31.6H12.879V24.2333H11.879ZM19.1244 34.9333H20.8108V33.9333H19.1244V34.9333ZM16.8759 33.9333H15.1896V34.9333H16.8759V33.9333ZM21.3729 33.3666H14.6275V34.3666H21.3729V33.3666ZM21.8729 33.8666V32.7333H20.8729V33.8666H21.8729ZM21.3729 33.2333H23.0593V32.2333H21.3729V33.2333ZM14.6275 32.2333H12.9411V33.2333H14.6275V32.2333ZM22.5593 24.2333V25.9333H23.5593V24.2333H22.5593Z" fill="black" fill-opacity="0.2"/>
<path d="M16.3138 25.9334V16.3L14.0653 14.0334L13.5032 12.3334H16.3138L18.0001 13.4667L19.6865 12.3334H22.4971L21.935 14.0334L19.6865 16.3V25.9334" stroke="#FF0303" stroke-linecap="round" stroke-linejoin="round"/>
<path d="M16.3138 25.9334V16.3L14.0653 14.0334L13.5032 12.3334H16.3138L18.0001 13.4667L19.6865 12.3334H22.4971L21.935 14.0334L19.6865 16.3V25.9334" stroke="black" stroke-opacity="0.2" stroke-linecap="round" stroke-linejoin="round"/>
<path d="M30.9289 1L27.5562 4.4M34.9188 7.74438L30.3116 8.98887M35.0001 13.5223H30.2304M33.6524 20.2868L29.3296 18.2548M29.8046 26.4121L26.4319 23.0121M5.07136 1L8.44408 4.4M1.08142 7.74438L5.68865 8.98887M1.00012 13.5223H5.76987M2.34783 20.287L6.67069 18.2549M6.1956 26.4124L9.56832 23.0124" stroke="#FF0303" stroke-linecap="round" stroke-dasharray="1 2"/>
<path d="M30.9289 1L27.5562 4.4M34.9188 7.74438L30.3116 8.98887M35.0001 13.5223H30.2304M33.6524 20.2868L29.3296 18.2548M29.8046 26.4121L26.4319 23.0121M5.07136 1L8.44408 4.4M1.08142 7.74438L5.68865 8.98887M1.00012 13.5223H5.76987M2.34783 20.287L6.67069 18.2549M6.1956 26.4124L9.56832 23.0124" stroke="black" stroke-opacity="0.2" stroke-linecap="round" stroke-dasharray="1 2"/>
<path d="M5.07138 6.09999C5.07138 5.78954 5.32305 5.53333 5.6335 5.53333C5.94395 5.53333 6.19562 5.78954 6.19562 6.09999C6.19562 6.41044 5.94395 6.66666 5.6335 6.66666C5.32305 6.66666 5.07138 6.41044 5.07138 6.09999Z" fill="#FF0303"/>
<path d="M5.07138 6.09999C5.07138 5.78954 5.32305 5.53333 5.6335 5.53333C5.94395 5.53333 6.19562 5.78954 6.19562 6.09999C6.19562 6.41044 5.94395 6.66666 5.6335 6.66666C5.32305 6.66666 5.07138 6.41044 5.07138 6.09999Z" fill="black" fill-opacity="0.2"/>
<path d="M3.94714 11.7667C3.94714 11.4562 4.19881 11.2 4.50926 11.2C4.81971 11.2 5.07138 11.4562 5.07138 11.7667C5.07138 12.0771 4.81971 12.3333 4.50926 12.3333C4.19881 12.3333 3.94714 12.0771 3.94714 11.7667Z" fill="#FF0303"/>
<path d="M3.94714 11.7667C3.94714 11.4562 4.19881 11.2 4.50926 11.2C4.81971 11.2 5.07138 11.4562 5.07138 11.7667C5.07138 12.0771 4.81971 12.3333 4.50926 12.3333C4.19881 12.3333 3.94714 12.0771 3.94714 11.7667Z" fill="black" fill-opacity="0.2"/>
<path d="M3.94714 16.3C3.94714 15.9895 4.19881 15.7333 4.50926 15.7333C4.81971 15.7333 5.07138 15.9895 5.07138 16.3C5.07138 16.6104 4.81971 16.8667 4.50926 16.8667C4.19881 16.8667 3.94714 16.6104 3.94714 16.3Z" fill="#FF0303"/>
<path d="M3.94714 16.3C3.94714 15.9895 4.19881 15.7333 4.50926 15.7333C4.81971 15.7333 5.07138 15.9895 5.07138 16.3C5.07138 16.6104 4.81971 16.8667 4.50926 16.8667C4.19881 16.8667 3.94714 16.6104 3.94714 16.3Z" fill="black" fill-opacity="0.2"/>
<path d="M6.19562 21.9667C6.19562 21.6562 6.44729 21.4 6.75774 21.4C7.06819 21.4 7.31986 21.6562 7.31986 21.9667C7.31986 22.2771 7.06819 22.5333 6.75774 22.5333C6.44729 22.5333 6.19562 22.2771 6.19562 21.9667Z" fill="#FF0303"/>
<path d="M6.19562 21.9667C6.19562 21.6562 6.44729 21.4 6.75774 21.4C7.06819 21.4 7.31986 21.6562 7.31986 21.9667C7.31986 22.2771 7.06819 22.5333 6.75774 22.5333C6.44729 22.5333 6.19562 22.2771 6.19562 21.9667Z" fill="black" fill-opacity="0.2"/>
<path d="M29.8047 6.09999C29.8047 5.78954 30.0563 5.53333 30.3668 5.53333C30.6772 5.53333 30.9289 5.78954 30.9289 6.09999C30.9289 6.41044 30.6772 6.66666 30.3668 6.66666C30.0563 6.66666 29.8047 6.41044 29.8047 6.09999Z" fill="#FF0303"/>
<path d="M29.8047 6.09999C29.8047 5.78954 30.0563 5.53333 30.3668 5.53333C30.6772 5.53333 30.9289 5.78954 30.9289 6.09999C30.9289 6.41044 30.6772 6.66666 30.3668 6.66666C30.0563 6.66666 29.8047 6.41044 29.8047 6.09999Z" fill="black" fill-opacity="0.2"/>
<path d="M30.9289 11.7667C30.9289 11.4562 31.1806 11.2 31.491 11.2C31.8015 11.2 32.0532 11.4562 32.0532 11.7667C32.0532 12.0771 31.8015 12.3333 31.491 12.3333C31.1806 12.3333 30.9289 12.0771 30.9289 11.7667Z" fill="#FF0303"/>
<path d="M30.9289 11.7667C30.9289 11.4562 31.1806 11.2 31.491 11.2C31.8015 11.2 32.0532 11.4562 32.0532 11.7667C32.0532 12.0771 31.8015 12.3333 31.491 12.3333C31.1806 12.3333 30.9289 12.0771 30.9289 11.7667Z" fill="black" fill-opacity="0.2"/>
<path d="M30.9289 16.3C30.9289 15.9895 31.1806 15.7333 31.491 15.7333C31.8015 15.7333 32.0532 15.9895 32.0532 16.3C32.0532 16.6104 31.8015 16.8667 31.491 16.8667C31.1806 16.8667 30.9289 16.6104 30.9289 16.3Z" fill="#FF0303"/>
<path d="M30.9289 16.3C30.9289 15.9895 31.1806 15.7333 31.491 15.7333C31.8015 15.7333 32.0532 15.9895 32.0532 16.3C32.0532 16.6104 31.8015 16.8667 31.491 16.8667C31.1806 16.8667 30.9289 16.6104 30.9289 16.3Z" fill="black" fill-opacity="0.2"/>
<path d="M28.6804 21.9667C28.6804 21.6562 28.9321 21.4 29.2426 21.4C29.553 21.4 29.8047 21.6562 29.8047 21.9667C29.8047 22.2771 29.553 22.5333 29.2426 22.5333C28.9321 22.5333 28.6804 22.2771 28.6804 21.9667Z" fill="#FF0303"/>
<path d="M28.6804 21.9667C28.6804 21.6562 28.9321 21.4 29.2426 21.4C29.553 21.4 29.8047 21.6562 29.8047 21.9667C29.8047 22.2771 29.553 22.5333 29.2426 22.5333C28.9321 22.5333 28.6804 22.2771 28.6804 21.9667Z" fill="black" fill-opacity="0.2"/>
</svg>
