<svg width="36" height="34" viewBox="0 0 36 34" fill="none" xmlns="http://www.w3.org/2000/svg">
<path d="M9.50049 1L9.99352 0.916801C9.96362 0.739626 9.84095 0.592117 9.6722 0.53041C9.50345 0.468703 9.31456 0.502288 9.17743 0.618383L9.50049 1ZM10.0005 3.96296L9.50746 4.04616C9.524 4.1442 9.5694 4.23508 9.63785 4.30719L10.0005 3.96296ZM18.5005 7.51852V7.01852C18.4524 7.01852 18.4046 7.02546 18.3584 7.03912L18.5005 7.51852ZM24.0005 12.2593L23.5032 12.3117C23.508 12.357 23.519 12.4014 23.5358 12.4438L24.0005 12.2593ZM28.0005 22.3333L27.5358 22.5179C27.5626 22.5853 27.6038 22.6462 27.6565 22.6962L28.0005 22.3333ZM30.5005 24.7037L30.1565 25.0665C30.2251 25.1316 30.3108 25.1759 30.4036 25.1942L30.5005 24.7037ZM33.5005 25.2963L33.8826 24.9739C33.8094 24.8871 33.7088 24.8278 33.5974 24.8058L33.5005 25.2963ZM35.0005 27.0741H35.5005C35.5005 26.9561 35.4587 26.8418 35.3826 26.7516L35.0005 27.0741ZM35.0005 29.4444L35.423 29.7118C35.4736 29.6318 35.5005 29.5391 35.5005 29.4444H35.0005ZM33.5005 31.8148L33.8105 32.2071C33.8548 32.1721 33.8928 32.1299 33.923 32.0822L33.5005 31.8148ZM32.0005 33V33.5C32.113 33.5 32.2222 33.4621 32.3105 33.3923L32.0005 33ZM24.0005 33L23.7974 33.4569C23.8613 33.4853 23.9305 33.5 24.0005 33.5V33ZM20.0005 31.2222L19.7187 31.6352C19.7435 31.6522 19.7699 31.6669 19.7974 31.6791L20.0005 31.2222ZM3.50049 19.963L3.11834 20.2854C3.14753 20.32 3.18128 20.3505 3.21866 20.376L3.50049 19.963ZM1.00049 17L0.503246 16.9476C0.488964 17.083 0.53053 17.2184 0.618343 17.3224L1.00049 17ZM1.50049 12.2593L1.01916 12.1239C1.01153 12.151 1.0062 12.1788 1.00325 12.2068L1.50049 12.2593ZM2.50049 8.7037L2.09824 8.40673C2.06232 8.45537 2.03553 8.51013 2.01916 8.56833L2.50049 8.7037ZM6.00049 3.96296L5.67743 3.58135C5.64784 3.6064 5.62126 3.6348 5.59824 3.66599L6.00049 3.96296ZM7.00049 7.51852L6.51916 7.65389C6.54264 7.73738 6.58743 7.81332 6.64914 7.87426L7.00049 7.51852ZM10.0005 10.4815L9.64914 10.8372C9.79009 10.9764 9.99995 11.0193 10.1842 10.9465L10.0005 10.4815ZM17.0005 5.74074L16.7107 5.33326C16.6084 5.40604 16.5372 5.51467 16.5113 5.63754L17.0005 5.74074ZM19.5005 3.96296L19.3731 3.47945C19.3149 3.4948 19.2598 3.52056 19.2107 3.55549L19.5005 3.96296ZM24.0005 2.77778L24.4977 2.83022C24.515 2.6668 24.4508 2.50534 24.3261 2.39833C24.2014 2.29132 24.0321 2.25241 23.8731 2.29427L24.0005 2.77778ZM25.0005 29.4444L24.634 29.7846C24.7286 29.8865 24.8614 29.9444 25.0005 29.9444V29.4444ZM19.5005 23.5185L19.867 23.1784C19.7724 23.0764 19.6396 23.0185 19.5005 23.0185V23.5185ZM15.5005 23.5185L15.1994 23.9177C15.2862 23.9831 15.3918 24.0185 15.5005 24.0185V23.5185ZM10.0005 19.3704L9.51125 19.4736C9.53618 19.5917 9.60301 19.6969 9.69941 19.7696L10.0005 19.3704ZM9.00049 14.6296L9.48972 14.5264C9.46829 14.4248 9.41574 14.3324 9.33938 14.262L9.00049 14.6296ZM4.50049 10.4815L4.83943 10.1138L4.83267 10.1078L4.50049 10.4815ZM22.4036 12.3613C22.1327 12.4148 21.9565 12.6778 22.01 12.9487C22.0635 13.2197 22.3265 13.3959 22.5974 13.3424L22.4036 12.3613ZM25.5005 12.2593L25.9287 12.5174C26.0309 12.3479 26.0235 12.1341 25.9098 11.9721C25.7962 11.8101 25.5977 11.7304 25.4036 11.7687L25.5005 12.2593ZM23.0005 16.4074L22.5722 16.1493C22.4639 16.3291 22.4794 16.5573 22.6109 16.7208C22.7424 16.8843 22.9621 16.9483 23.1609 16.881L23.0005 16.4074ZM26.5005 15.2222L26.9509 15.4394C27.0383 15.258 27.0084 15.0419 26.8751 14.891C26.7417 14.7402 26.5308 14.6841 26.3401 14.7486L26.5005 15.2222ZM24.5005 19.3704L24.0501 19.1532C23.9607 19.3387 23.9941 19.56 24.1343 19.7108C24.2744 19.8616 24.4927 19.911 24.6842 19.8354L24.5005 19.3704ZM27.5005 18.1852L27.9509 18.4023C28.0403 18.2169 28.0069 17.9956 27.8667 17.8448C27.7265 17.694 27.5083 17.6445 27.3168 17.7202L27.5005 18.1852ZM25.5005 22.3333L25.0501 22.1162C24.9544 22.3148 25 22.5526 25.1624 22.7017C25.3248 22.8508 25.5657 22.8759 25.7554 22.7635L25.5005 22.3333ZM28.7554 20.9857C28.993 20.8449 29.0714 20.5382 28.9306 20.3007C28.7899 20.0631 28.4832 19.9846 28.2456 20.1254L28.7554 20.9857ZM9.00746 1.0832L9.50746 4.04616L10.4935 3.87976L9.99352 0.916801L9.00746 1.0832ZM9.63785 4.30719L14.1378 9.04793L14.8631 8.35948L10.3631 3.61874L9.63785 4.30719ZM18.5005 8.01852H23.5005V7.01852H18.5005V8.01852ZM23.0032 7.57096L23.5032 12.3117L24.4977 12.2068L23.9977 7.46607L23.0032 7.57096ZM23.5358 12.4438L27.5358 22.5179L28.4652 22.1488L24.4652 12.0747L23.5358 12.4438ZM27.6565 22.6962L30.1565 25.0665L30.8445 24.3409L28.3445 21.9705L27.6565 22.6962ZM30.4036 25.1942L33.4036 25.7868L33.5974 24.8058L30.5974 24.2132L30.4036 25.1942ZM33.1183 25.6187L34.6183 27.3965L35.3826 26.7516L33.8826 24.9739L33.1183 25.6187ZM34.578 29.1771L33.078 31.5474L33.923 32.0822L35.423 29.7118L34.578 29.1771ZM33.1905 31.4225L31.6905 32.6077L32.3105 33.3923L33.8105 32.2071L33.1905 31.4225ZM32.0005 32.5H24.0005V33.5H32.0005V32.5ZM24.2036 32.5431L20.2036 30.7653L19.7974 31.6791L23.7974 33.4569L24.2036 32.5431ZM20.2823 30.8092L3.78231 19.55L3.21866 20.376L19.7187 31.6352L20.2823 30.8092ZM3.88263 19.6405L1.38263 16.6776L0.618343 17.3224L3.11834 20.2854L3.88263 19.6405ZM1.49773 17.0524L1.99773 12.3117L1.00325 12.2068L0.503246 16.9476L1.49773 17.0524ZM1.98181 12.3946L2.98181 8.83908L2.01916 8.56833L1.01916 12.1239L1.98181 12.3946ZM2.90274 9.00068L6.40274 4.25994L5.59824 3.66599L2.09824 8.40673L2.90274 9.00068ZM6.32355 4.34458L9.82355 1.38162L9.17743 0.618383L5.67743 3.58135L6.32355 4.34458ZM5.51916 4.09834L6.51916 7.65389L7.48181 7.38315L6.48181 3.82759L5.51916 4.09834ZM6.64914 7.87426L9.64914 10.8372L10.3518 10.1257L7.35184 7.16278L6.64914 7.87426ZM10.1842 10.9465L14.6842 9.16873L14.3168 8.23868L9.81677 10.0165L10.1842 10.9465ZM14.6425 9.1831L16.6425 8.59051L16.3584 7.63171L14.3584 8.2243L14.6425 9.1831ZM16.6425 8.59051L18.6425 7.99792L18.3584 7.03912L16.3584 7.63171L16.6425 8.59051ZM16.9897 8.21431L17.4897 5.84394L16.5113 5.63754L16.0113 8.00791L16.9897 8.21431ZM17.2903 6.14822L19.7903 4.37044L19.2107 3.55549L16.7107 5.33326L17.2903 6.14822ZM19.6278 4.44647L24.1278 3.26129L23.8731 2.29427L19.3731 3.47945L19.6278 4.44647ZM23.5032 2.72533L23.0032 7.46607L23.9977 7.57096L24.4977 2.83022L23.5032 2.72533ZM35.0005 28.9444H25.0005V29.9444H35.0005V28.9444ZM25.367 29.1043L19.867 23.1784L19.134 23.8587L24.634 29.7846L25.367 29.1043ZM19.5005 23.0185H15.5005V24.0185H19.5005V23.0185ZM15.8016 23.1193L10.3016 18.9712L9.69941 19.7696L15.1994 23.9177L15.8016 23.1193ZM10.4897 19.2672L9.48972 14.5264L8.51125 14.7328L9.51125 19.4736L10.4897 19.2672ZM9.33938 14.262L4.83938 10.1138L4.1616 10.8491L8.6616 14.9973L9.33938 14.262ZM4.83267 10.1078L2.83267 8.33L2.16831 9.07741L4.16831 10.8552L4.83267 10.1078ZM22.5974 13.3424L25.5974 12.7498L25.4036 11.7687L22.4036 12.3613L22.5974 13.3424ZM25.0722 12.0012L22.5722 16.1493L23.4287 16.6655L25.9287 12.5174L25.0722 12.0012ZM23.1609 16.881L26.6609 15.6958L26.3401 14.7486L22.8401 15.9338L23.1609 16.881ZM26.0501 15.0051L24.0501 19.1532L24.9509 19.5875L26.9509 15.4394L26.0501 15.0051ZM24.6842 19.8354L27.6842 18.6502L27.3168 17.7202L24.3168 18.9053L24.6842 19.8354ZM27.0501 17.968L25.0501 22.1162L25.9509 22.5505L27.9509 18.4023L27.0501 17.968ZM25.7554 22.7635L28.7554 20.9857L28.2456 20.1254L25.2456 21.9032L25.7554 22.7635ZM34.5005 27.0741V29.4444H35.5005V27.0741H34.5005Z" fill="#FF0303"/>
<path d="M9.50049 1L9.99352 0.916801C9.96362 0.739626 9.84095 0.592117 9.6722 0.53041C9.50345 0.468703 9.31456 0.502288 9.17743 0.618383L9.50049 1ZM10.0005 3.96296L9.50746 4.04616C9.524 4.1442 9.5694 4.23508 9.63785 4.30719L10.0005 3.96296ZM18.5005 7.51852V7.01852C18.4524 7.01852 18.4046 7.02546 18.3584 7.03912L18.5005 7.51852ZM24.0005 12.2593L23.5032 12.3117C23.508 12.357 23.519 12.4014 23.5358 12.4438L24.0005 12.2593ZM28.0005 22.3333L27.5358 22.5179C27.5626 22.5853 27.6038 22.6462 27.6565 22.6962L28.0005 22.3333ZM30.5005 24.7037L30.1565 25.0665C30.2251 25.1316 30.3108 25.1759 30.4036 25.1942L30.5005 24.7037ZM33.5005 25.2963L33.8826 24.9739C33.8094 24.8871 33.7088 24.8278 33.5974 24.8058L33.5005 25.2963ZM35.0005 27.0741H35.5005C35.5005 26.9561 35.4587 26.8418 35.3826 26.7516L35.0005 27.0741ZM35.0005 29.4444L35.423 29.7118C35.4736 29.6318 35.5005 29.5391 35.5005 29.4444H35.0005ZM33.5005 31.8148L33.8105 32.2071C33.8548 32.1721 33.8928 32.1299 33.923 32.0822L33.5005 31.8148ZM32.0005 33V33.5C32.113 33.5 32.2222 33.4621 32.3105 33.3923L32.0005 33ZM24.0005 33L23.7974 33.4569C23.8613 33.4853 23.9305 33.5 24.0005 33.5V33ZM20.0005 31.2222L19.7187 31.6352C19.7435 31.6522 19.7699 31.6669 19.7974 31.6791L20.0005 31.2222ZM3.50049 19.963L3.11834 20.2854C3.14753 20.32 3.18128 20.3505 3.21866 20.376L3.50049 19.963ZM1.00049 17L0.503246 16.9476C0.488964 17.083 0.53053 17.2184 0.618343 17.3224L1.00049 17ZM1.50049 12.2593L1.01916 12.1239C1.01153 12.151 1.0062 12.1788 1.00325 12.2068L1.50049 12.2593ZM2.50049 8.7037L2.09824 8.40673C2.06232 8.45537 2.03553 8.51013 2.01916 8.56833L2.50049 8.7037ZM6.00049 3.96296L5.67743 3.58135C5.64784 3.6064 5.62126 3.6348 5.59824 3.66599L6.00049 3.96296ZM7.00049 7.51852L6.51916 7.65389C6.54264 7.73738 6.58743 7.81332 6.64914 7.87426L7.00049 7.51852ZM10.0005 10.4815L9.64914 10.8372C9.79009 10.9764 9.99995 11.0193 10.1842 10.9465L10.0005 10.4815ZM17.0005 5.74074L16.7107 5.33326C16.6084 5.40604 16.5372 5.51467 16.5113 5.63754L17.0005 5.74074ZM19.5005 3.96296L19.3731 3.47945C19.3149 3.4948 19.2598 3.52056 19.2107 3.55549L19.5005 3.96296ZM24.0005 2.77778L24.4977 2.83022C24.515 2.6668 24.4508 2.50534 24.3261 2.39833C24.2014 2.29132 24.0321 2.25241 23.8731 2.29427L24.0005 2.77778ZM25.0005 29.4444L24.634 29.7846C24.7286 29.8865 24.8614 29.9444 25.0005 29.9444V29.4444ZM19.5005 23.5185L19.867 23.1784C19.7724 23.0764 19.6396 23.0185 19.5005 23.0185V23.5185ZM15.5005 23.5185L15.1994 23.9177C15.2862 23.9831 15.3918 24.0185 15.5005 24.0185V23.5185ZM10.0005 19.3704L9.51125 19.4736C9.53618 19.5917 9.60301 19.6969 9.69941 19.7696L10.0005 19.3704ZM9.00049 14.6296L9.48972 14.5264C9.46829 14.4248 9.41574 14.3324 9.33938 14.262L9.00049 14.6296ZM4.50049 10.4815L4.83943 10.1138L4.83267 10.1078L4.50049 10.4815ZM22.4036 12.3613C22.1327 12.4148 21.9565 12.6778 22.01 12.9487C22.0635 13.2197 22.3265 13.3959 22.5974 13.3424L22.4036 12.3613ZM25.5005 12.2593L25.9287 12.5174C26.0309 12.3479 26.0235 12.1341 25.9098 11.9721C25.7962 11.8101 25.5977 11.7304 25.4036 11.7687L25.5005 12.2593ZM23.0005 16.4074L22.5722 16.1493C22.4639 16.3291 22.4794 16.5573 22.6109 16.7208C22.7424 16.8843 22.9621 16.9483 23.1609 16.881L23.0005 16.4074ZM26.5005 15.2222L26.9509 15.4394C27.0383 15.258 27.0084 15.0419 26.8751 14.891C26.7417 14.7402 26.5308 14.6841 26.3401 14.7486L26.5005 15.2222ZM24.5005 19.3704L24.0501 19.1532C23.9607 19.3387 23.9941 19.56 24.1343 19.7108C24.2744 19.8616 24.4927 19.911 24.6842 19.8354L24.5005 19.3704ZM27.5005 18.1852L27.9509 18.4023C28.0403 18.2169 28.0069 17.9956 27.8667 17.8448C27.7265 17.694 27.5083 17.6445 27.3168 17.7202L27.5005 18.1852ZM25.5005 22.3333L25.0501 22.1162C24.9544 22.3148 25 22.5526 25.1624 22.7017C25.3248 22.8508 25.5657 22.8759 25.7554 22.7635L25.5005 22.3333ZM28.7554 20.9857C28.993 20.8449 29.0714 20.5382 28.9306 20.3007C28.7899 20.0631 28.4832 19.9846 28.2456 20.1254L28.7554 20.9857ZM9.00746 1.0832L9.50746 4.04616L10.4935 3.87976L9.99352 0.916801L9.00746 1.0832ZM9.63785 4.30719L14.1378 9.04793L14.8631 8.35948L10.3631 3.61874L9.63785 4.30719ZM18.5005 8.01852H23.5005V7.01852H18.5005V8.01852ZM23.0032 7.57096L23.5032 12.3117L24.4977 12.2068L23.9977 7.46607L23.0032 7.57096ZM23.5358 12.4438L27.5358 22.5179L28.4652 22.1488L24.4652 12.0747L23.5358 12.4438ZM27.6565 22.6962L30.1565 25.0665L30.8445 24.3409L28.3445 21.9705L27.6565 22.6962ZM30.4036 25.1942L33.4036 25.7868L33.5974 24.8058L30.5974 24.2132L30.4036 25.1942ZM33.1183 25.6187L34.6183 27.3965L35.3826 26.7516L33.8826 24.9739L33.1183 25.6187ZM34.578 29.1771L33.078 31.5474L33.923 32.0822L35.423 29.7118L34.578 29.1771ZM33.1905 31.4225L31.6905 32.6077L32.3105 33.3923L33.8105 32.2071L33.1905 31.4225ZM32.0005 32.5H24.0005V33.5H32.0005V32.5ZM24.2036 32.5431L20.2036 30.7653L19.7974 31.6791L23.7974 33.4569L24.2036 32.5431ZM20.2823 30.8092L3.78231 19.55L3.21866 20.376L19.7187 31.6352L20.2823 30.8092ZM3.88263 19.6405L1.38263 16.6776L0.618343 17.3224L3.11834 20.2854L3.88263 19.6405ZM1.49773 17.0524L1.99773 12.3117L1.00325 12.2068L0.503246 16.9476L1.49773 17.0524ZM1.98181 12.3946L2.98181 8.83908L2.01916 8.56833L1.01916 12.1239L1.98181 12.3946ZM2.90274 9.00068L6.40274 4.25994L5.59824 3.66599L2.09824 8.40673L2.90274 9.00068ZM6.32355 4.34458L9.82355 1.38162L9.17743 0.618383L5.67743 3.58135L6.32355 4.34458ZM5.51916 4.09834L6.51916 7.65389L7.48181 7.38315L6.48181 3.82759L5.51916 4.09834ZM6.64914 7.87426L9.64914 10.8372L10.3518 10.1257L7.35184 7.16278L6.64914 7.87426ZM10.1842 10.9465L14.6842 9.16873L14.3168 8.23868L9.81677 10.0165L10.1842 10.9465ZM14.6425 9.1831L16.6425 8.59051L16.3584 7.63171L14.3584 8.2243L14.6425 9.1831ZM16.6425 8.59051L18.6425 7.99792L18.3584 7.03912L16.3584 7.63171L16.6425 8.59051ZM16.9897 8.21431L17.4897 5.84394L16.5113 5.63754L16.0113 8.00791L16.9897 8.21431ZM17.2903 6.14822L19.7903 4.37044L19.2107 3.55549L16.7107 5.33326L17.2903 6.14822ZM19.6278 4.44647L24.1278 3.26129L23.8731 2.29427L19.3731 3.47945L19.6278 4.44647ZM23.5032 2.72533L23.0032 7.46607L23.9977 7.57096L24.4977 2.83022L23.5032 2.72533ZM35.0005 28.9444H25.0005V29.9444H35.0005V28.9444ZM25.367 29.1043L19.867 23.1784L19.134 23.8587L24.634 29.7846L25.367 29.1043ZM19.5005 23.0185H15.5005V24.0185H19.5005V23.0185ZM15.8016 23.1193L10.3016 18.9712L9.69941 19.7696L15.1994 23.9177L15.8016 23.1193ZM10.4897 19.2672L9.48972 14.5264L8.51125 14.7328L9.51125 19.4736L10.4897 19.2672ZM9.33938 14.262L4.83938 10.1138L4.1616 10.8491L8.6616 14.9973L9.33938 14.262ZM4.83267 10.1078L2.83267 8.33L2.16831 9.07741L4.16831 10.8552L4.83267 10.1078ZM22.5974 13.3424L25.5974 12.7498L25.4036 11.7687L22.4036 12.3613L22.5974 13.3424ZM25.0722 12.0012L22.5722 16.1493L23.4287 16.6655L25.9287 12.5174L25.0722 12.0012ZM23.1609 16.881L26.6609 15.6958L26.3401 14.7486L22.8401 15.9338L23.1609 16.881ZM26.0501 15.0051L24.0501 19.1532L24.9509 19.5875L26.9509 15.4394L26.0501 15.0051ZM24.6842 19.8354L27.6842 18.6502L27.3168 17.7202L24.3168 18.9053L24.6842 19.8354ZM27.0501 17.968L25.0501 22.1162L25.9509 22.5505L27.9509 18.4023L27.0501 17.968ZM25.7554 22.7635L28.7554 20.9857L28.2456 20.1254L25.2456 21.9032L25.7554 22.7635ZM34.5005 27.0741V29.4444H35.5005V27.0741H34.5005Z" fill="black" fill-opacity="0.2"/>
</svg>
