<svg width="28" height="36" viewBox="0 0 28 36" fill="none" xmlns="http://www.w3.org/2000/svg">
<path d="M18.2307 6.72191C17.1798 8.7009 14.9832 9.52692 13.3245 8.56687C11.6659 7.60682 11.1732 5.22426 12.2242 3.24526C13.2752 1.26627 15.4717 0.440249 17.1304 1.4003C18.7891 2.36035 19.2817 4.74291 18.2307 6.72191Z" stroke="#146EB4" stroke-linecap="round" stroke-linejoin="round"/>
<path d="M27.0005 23.2207C27.0005 24.9178 25.6827 26.2935 24.0571 26.2935C22.4315 26.2935 21.1137 24.9178 21.1137 23.2207C21.1137 21.5236 22.4315 20.1478 24.0571 20.1478C25.6827 20.1478 27.0005 21.5236 27.0005 23.2207Z" stroke="#146EB4" stroke-linecap="round" stroke-linejoin="round"/>
<path d="M19.1514 15.5385L15.7175 10.417L7.86841 9.90488L4.92502 11.4413L1.49105 16.0506L1.00049 17.5871V19.1235L1.98162 20.1478H2.96275L3.94388 19.1235L6.88728 14.002L10.3212 13.4899L6.88728 20.1478V25.7814L6.39671 26.8057L1.98162 30.9028L1.49105 31.415L1.00049 32.9514L1.49105 33.9757L2.47219 34.4879H3.45332L4.92502 33.9757L9.83068 29.3664L10.3212 27.83L10.8118 23.7328L11.3024 24.2449L13.7552 27.83L14.2458 32.9514L15.2269 34.4879L16.208 35H17.1892L18.1703 34.4879L19.1514 32.9514L18.1703 26.8057L17.1892 25.2692L12.7741 20.6599V20.1478L15.2269 15.5385L17.1892 17.5871L19.1514 19.1235H24.0571L24.5477 18.6114L25.0382 17.5871L24.5477 16.5628L24.0571 16.0506H20.1326L19.1514 15.5385Z" stroke="#146EB4" stroke-linecap="round" stroke-linejoin="round"/>
</svg>
