<svg width="44" height="50" viewBox="0 0 44 50" fill="none" xmlns="http://www.w3.org/2000/svg">
<path d="M12.8767 33.001C12.957 32.7139 12.8778 32.4056 12.6691 32.1927C12.0188 31.5312 11.4592 30.7863 11.0049 29.9775C10.7795 29.5762 10.2714 29.4335 9.87006 29.6589C9.46869 29.8843 9.32603 30.3924 9.55144 30.7938C9.83452 31.2971 10.153 31.7797 10.5044 32.2379C10.0249 32.3051 9.54169 32.3432 9.05752 32.3519C8.7598 32.3545 8.48608 32.5157 8.33948 32.7748C8.19287 33.034 8.19565 33.3516 8.34677 33.6082C8.49789 33.8647 8.77438 34.0211 9.0721 34.0185H9.08677C10.1647 33.9979 11.2366 33.852 12.2809 33.5839C12.5694 33.51 12.7965 33.2878 12.8767 33.001Z" fill="#146EB4"/>
<path d="M8.39918 30.0583C8.072 29.178 7.83879 28.2655 7.70343 27.3361C7.6668 27.036 7.47052 26.7793 7.19053 26.6653C6.91054 26.5513 6.59075 26.5979 6.3549 26.787C6.11905 26.9761 6.00413 27.2781 6.0546 27.5762C6.13609 28.1372 6.24941 28.6932 6.39401 29.2413C6.00458 29.1314 5.62173 28.9993 5.24735 28.8457C4.97075 28.7273 4.65178 28.7671 4.41283 28.95C4.17389 29.1329 4.05207 29.4303 4.09414 29.7283C4.1362 30.0262 4.33561 30.2783 4.61584 30.3879C5.54177 30.7693 6.51173 31.0336 7.50318 31.1745C7.54147 31.1799 7.58009 31.1826 7.61876 31.1828C7.89167 31.1826 8.14721 31.0489 8.30284 30.8247C8.45846 30.6005 8.49445 30.3143 8.39918 30.0586V30.0583Z" fill="#146EB4"/>
<path d="M4.53434 27.2483C4.75958 27.2484 4.97526 27.1573 5.13225 26.9958C5.28923 26.8343 5.37416 26.6161 5.36767 26.3909C5.339 25.4377 5.39648 24.4838 5.53942 23.5409C5.59968 23.0909 5.28848 22.6754 4.83961 22.6066C4.39073 22.5379 3.96946 22.8412 3.89226 23.2887C3.81417 23.7989 3.75892 24.3174 3.72709 24.8402C3.43576 24.6079 3.15092 24.3584 2.87259 24.0919C2.53876 23.7836 2.01947 23.7995 1.70524 24.1278C1.391 24.4561 1.39769 24.9755 1.72026 25.2956C2.44452 25.9948 3.24517 26.6102 4.10709 27.1303C4.23619 27.2076 4.38386 27.2484 4.53434 27.2483Z" fill="#146EB4"/>
<path d="M2.82052 22.3558C3.20093 22.3552 3.53285 22.0976 3.62777 21.7292C3.85587 20.8284 4.16335 19.9496 4.54661 19.1031C4.67989 18.8309 4.65493 18.5079 4.48142 18.2594C4.30791 18.011 4.01321 17.8763 3.71181 17.9077C3.4104 17.9391 3.14981 18.1317 3.03127 18.4106C2.84494 18.8178 2.67294 19.2406 2.5161 19.6756C2.30127 19.3386 2.09621 18.9886 1.90094 18.6256C1.76451 18.3554 1.49233 18.1804 1.18991 18.1685C0.887482 18.1566 0.602367 18.3096 0.445087 18.5681C0.287807 18.8267 0.283092 19.1503 0.432769 19.4133C0.928205 20.3448 1.51108 21.2271 2.17352 22.0482C2.33203 22.2427 2.5696 22.3557 2.82052 22.3558Z" fill="#146EB4"/>
<path d="M0.72982 13.3727C0.964301 14.4525 1.29103 15.5101 1.7064 16.5339C1.82611 16.8276 2.10215 17.0279 2.41849 17.0506C2.43882 17.0518 2.45832 17.0526 2.47782 17.0526C2.77375 17.0526 3.0475 16.8957 3.19723 16.6405C3.63322 15.8882 4.14331 15.1814 4.7199 14.5306C5.02665 14.1873 4.99695 13.6602 4.65357 13.3535C4.31018 13.0467 3.78315 13.0764 3.4764 13.4198C3.21107 13.7176 2.95446 14.0325 2.70657 14.3642C2.57474 13.924 2.45832 13.4736 2.3574 13.0158C2.29865 12.7199 2.08453 12.4788 1.79759 12.3855C1.51065 12.2923 1.19571 12.3614 0.974204 12.5663C0.752697 12.7711 0.659223 13.0797 0.72982 13.3731V13.3727Z" fill="#146EB4"/>
<path d="M3.47634 6.98836C3.01767 6.96178 2.62335 7.31001 2.59301 7.76845C2.5229 8.89479 2.55122 10.0251 2.67768 11.1465C2.71282 11.4547 2.9162 11.7178 3.20555 11.8295C3.4949 11.9412 3.82234 11.883 4.05543 11.6784C4.65831 11.1432 5.32187 10.6805 6.03251 10.2999C6.2981 10.1619 6.46932 9.89217 6.48111 9.59314C6.49289 9.2941 6.34342 9.01171 6.08951 8.8533C5.8356 8.6949 5.51625 8.68481 5.25285 8.82686C4.90072 9.01376 4.55871 9.21913 4.22826 9.44211C4.21526 8.92003 4.22418 8.39511 4.25676 7.87186C4.27049 7.6512 4.19597 7.43413 4.0496 7.26842C3.90323 7.10272 3.69701 7.00198 3.47634 6.98836Z" fill="#146EB4"/>
<path d="M9.25442 5.94492C9.23854 5.72353 9.13373 5.51799 8.96385 5.37513C8.79397 5.23227 8.57351 5.16426 8.35267 5.18658C7.91093 5.22497 7.472 5.29076 7.03842 5.38358C7.18972 4.8519 7.37172 4.32944 7.5835 3.81883C7.69762 3.54378 7.65633 3.22875 7.47519 2.99239C7.29405 2.75604 7.00057 2.63428 6.70531 2.67298C6.41006 2.71167 6.15787 2.90495 6.04375 3.18C5.6124 4.22307 5.29122 5.30835 5.08542 6.41817C5.03076 6.71139 5.13699 7.01147 5.36396 7.205C5.59093 7.39853 5.90402 7.45599 6.18492 7.35567C6.93036 7.08781 7.70709 6.91672 8.49609 6.84659C8.95442 6.80687 9.29386 6.40327 9.25442 5.94492Z" fill="#146EB4"/>
<path d="M12.1964 4.62489C12.4811 4.71239 12.7908 4.64139 13.0088 4.43864C13.2269 4.23589 13.3203 3.93218 13.2538 3.64193C13.1872 3.35168 12.9709 3.11897 12.6863 3.03147C12.1845 2.87726 11.6739 2.75373 11.1572 2.66156C11.5014 2.22772 11.8764 1.8193 12.2794 1.43947C12.6142 1.1235 12.6295 0.59592 12.3135 0.261097C11.9976 -0.0737254 11.47 -0.0890037 11.1352 0.226972C10.3002 1.01467 9.57118 1.90757 8.96642 2.88322C8.81214 3.13249 8.80018 3.44449 8.93493 3.70484C9.06968 3.96519 9.33132 4.13558 9.62392 4.15356C10.497 4.20843 11.3606 4.36664 12.1964 4.62489Z" fill="#146EB4"/>
<path d="M34.9429 32.3517C34.4587 32.343 33.9755 32.305 33.496 32.2377C33.8474 31.7795 34.1659 31.297 34.449 30.7937C34.6744 30.3923 34.5317 29.8842 34.1303 29.6588C33.729 29.4334 33.2209 29.576 32.9955 29.9774C32.5412 30.7862 31.9816 31.5311 31.3313 32.1926C31.1224 32.4053 31.0431 32.7133 31.1232 33.0004C31.2033 33.2875 31.4307 33.51 31.7195 33.5838C32.7638 33.8519 33.8357 33.9978 34.9136 34.0184H34.9283C35.3885 34.0224 35.7649 33.6526 35.7689 33.1924C35.773 32.7321 35.4031 32.3558 34.9429 32.3517Z" fill="#146EB4"/>
<path d="M38.7531 28.8454C38.3787 28.9989 37.9959 29.131 37.6064 29.2409C37.751 28.6928 37.8643 28.1369 37.9458 27.5759C37.9963 27.2778 37.8814 26.9757 37.6455 26.7866C37.4097 26.5975 37.0899 26.5509 36.8099 26.6649C36.5299 26.779 36.3336 27.0357 36.297 27.3358C36.1616 28.2651 35.9284 29.1776 35.6013 30.0579C35.506 30.3137 35.542 30.5999 35.6976 30.8241C35.8532 31.0483 36.1088 31.182 36.3817 31.1822C36.4204 31.182 36.459 31.1793 36.4973 31.1739C37.4887 31.033 38.4587 30.7687 39.3846 30.3873C39.6648 30.2777 39.8642 30.0256 39.9063 29.7277C39.9484 29.4297 39.8266 29.1322 39.5876 28.9494C39.3487 28.7665 39.0297 28.7267 38.7531 28.8451V28.8454Z" fill="#146EB4"/>
<path d="M41.1278 24.0919C40.8495 24.358 40.5646 24.6075 40.2733 24.8402C40.2415 24.3174 40.1862 23.7989 40.1081 23.2887C40.0309 22.8412 39.6096 22.5379 39.1608 22.6066C38.7119 22.6754 38.4007 23.0909 38.461 23.5409C38.6039 24.4838 38.6614 25.4377 38.6327 26.391C38.6239 26.6951 38.7816 26.9799 39.0441 27.1338C39.3066 27.2878 39.6321 27.2864 39.8933 27.1303C40.7552 26.6102 41.5559 25.9948 42.2801 25.2956C42.6016 24.9754 42.6078 24.4567 42.294 24.1289C41.9802 23.8011 41.4617 23.7847 41.1278 24.0919V24.0919Z" fill="#146EB4"/>
<path d="M43.2275 18.285C43.0328 18.1804 42.8045 18.1575 42.5929 18.2214C42.3813 18.2853 42.2038 18.4307 42.0995 18.6256C41.9042 18.9885 41.6992 19.3385 41.4843 19.6756C41.3272 19.2406 41.1555 18.8178 40.9692 18.4106C40.8506 18.1317 40.59 17.9391 40.2886 17.9077C39.9872 17.8763 39.6925 18.011 39.519 18.2594C39.3455 18.5079 39.3205 18.8309 39.4538 19.1031C39.8371 19.9496 40.1446 20.8284 40.3727 21.7292C40.4506 22.0343 40.6939 22.2694 41.0015 22.3369C41.3091 22.4043 41.6284 22.2927 41.8269 22.0482C42.4894 21.227 43.0722 20.3447 43.5677 19.4131C43.7852 19.0077 43.6329 18.5026 43.2275 18.285Z" fill="#146EB4"/>
<path d="M40.8031 16.6402C40.9528 16.8955 41.2266 17.0523 41.5225 17.0524C41.542 17.0524 41.5615 17.0515 41.5819 17.0503C41.8982 17.0276 42.1742 16.8273 42.2939 16.5336C42.7093 15.5098 43.036 14.4522 43.2705 13.3725C43.3411 13.0791 43.2477 12.7705 43.0261 12.5657C42.8046 12.3608 42.4897 12.2917 42.2028 12.3849C41.9158 12.4782 41.7017 12.7193 41.6429 13.0152C41.542 13.473 41.4256 13.9235 41.2938 14.3636C41.0464 14.0325 40.7898 13.7177 40.5239 13.4192C40.2172 13.0758 39.6902 13.0461 39.3468 13.3529C39.0034 13.6596 38.9737 14.1867 39.2804 14.53C39.8571 15.1809 40.3671 15.8878 40.8031 16.6402Z" fill="#146EB4"/>
<path d="M37.9678 10.3C38.6783 10.6807 39.3417 11.1433 39.9445 11.6786C40.1774 11.8837 40.5051 11.9422 40.7947 11.8305C41.0842 11.7187 41.2876 11.4551 41.3223 11.1467C41.4487 10.0253 41.477 8.89498 41.4069 7.76863C41.3905 7.46993 41.2153 7.20293 40.9478 7.06905C40.6802 6.93518 40.3615 6.95498 40.1126 7.12094C39.8637 7.28689 39.7228 7.57353 39.7435 7.87197C39.7761 8.39522 39.7852 8.92013 39.772 9.44222C39.4414 9.21922 39.0993 9.01385 38.747 8.82697C38.3408 8.61601 37.8405 8.77213 37.6264 9.17666C37.4123 9.58119 37.5645 10.0827 37.9673 10.3H37.9678Z" fill="#146EB4"/>
<path d="M35.5044 6.84629C36.2934 6.91643 37.0702 7.08752 37.8156 7.35538C38.0965 7.45525 38.4093 7.39761 38.6361 7.2042C38.863 7.01078 38.9693 6.711 38.9151 6.41788C38.7093 5.30806 38.3881 4.22278 37.9568 3.17971C37.8426 2.90463 37.5904 2.71133 37.2952 2.67261C36.9999 2.6339 36.7064 2.75566 36.5252 2.99203C36.344 3.2284 36.3027 3.54346 36.4168 3.81854C36.6286 4.3291 36.8106 4.8515 36.9619 5.38313C36.5283 5.29031 36.0894 5.22451 35.6477 5.18613C35.4268 5.16335 35.206 5.2312 35.0361 5.37414C34.8661 5.51709 34.7614 5.7229 34.7459 5.94446C34.7064 6.40293 35.046 6.80667 35.5044 6.84629Z" fill="#146EB4"/>
<path d="M30.7623 4.07297C30.8271 4.28439 30.9733 4.46136 31.1687 4.56486C31.3641 4.66837 31.5927 4.6899 31.804 4.62472C32.6398 4.36653 33.5034 4.20837 34.3765 4.15356C34.6691 4.13558 34.9307 3.96519 35.0655 3.70484C35.2002 3.44449 35.1883 3.13249 35.034 2.88322C34.4292 1.90757 33.7002 1.01467 32.8652 0.226972C32.5304 -0.0890037 32.0028 -0.0737254 31.6869 0.261097C31.3709 0.59592 31.3862 1.1235 31.721 1.43947C32.124 1.81925 32.499 2.22761 32.8432 2.66139C32.3265 2.75356 31.8159 2.8771 31.3141 3.03131C31.1028 3.09621 30.9259 3.24244 30.8224 3.43781C30.7189 3.63318 30.6973 3.86166 30.7623 4.07297Z" fill="#146EB4"/>
<path d="M32.8335 39.1664H26.1668V32.4997C27.0868 32.4987 27.8324 31.7531 27.8335 30.833V29.1664C27.8324 28.2463 27.0868 27.5008 26.1668 27.4997H24.5001V23.6414L28.3567 25.655C28.882 25.9318 29.5192 25.8841 29.9974 25.5322C30.4752 25.1866 30.7138 24.5985 30.6118 24.0177L29.3984 16.997L34.5367 12.023C34.9621 11.6115 35.1158 10.9935 34.9327 10.4306C34.7497 9.86773 34.2618 9.45837 33.6757 9.3758L26.5713 8.3508L23.3942 1.95913C23.1304 1.4309 22.5906 1.09717 22.0001 1.09717C21.4097 1.09717 20.8699 1.4309 20.6061 1.95913L17.429 8.3508L10.3245 9.3758C9.73837 9.45843 9.25052 9.86787 9.06745 10.4308C8.88438 10.9938 9.0381 11.6118 9.46355 12.0235L14.6019 16.997L13.3885 24.0179C13.2898 24.6007 13.5301 25.189 14.0086 25.5361C14.487 25.8832 15.1209 25.929 15.6443 25.6544L19.5001 23.6414V27.4997H17.8335C16.9134 27.5008 16.1679 28.2463 16.1668 29.1664V30.833C16.1679 31.7531 16.9134 32.4987 17.8335 32.4997V39.1664H11.1668C10.2468 39.1674 9.50119 39.913 9.50013 40.833V42.4997C9.50119 43.4198 10.2468 44.1653 11.1668 44.1664V48.333C11.1679 49.2531 11.9134 49.9987 12.8335 49.9997H31.1668C32.0868 49.9987 32.8324 49.2531 32.8335 48.333V44.1664C33.7535 44.1653 34.4991 43.4198 34.5001 42.4997V40.833C34.4991 39.913 33.7535 39.1674 32.8335 39.1664ZM15.0698 24.0747L16.2547 17.2164C16.3416 16.7118 16.1731 16.1969 15.8047 15.8414L10.7941 10.9914L17.7245 9.99138C18.2303 9.91914 18.6682 9.60266 18.8955 9.14505L22.0001 2.89846L25.104 9.14396C25.3314 9.60206 25.7696 9.91895 26.2759 9.99138L33.2062 10.9914L28.1964 15.8405C27.8273 16.1964 27.6585 16.7121 27.7456 17.2174L28.9305 24.074L22.7211 20.8322C22.2689 20.5968 21.7302 20.5971 21.2783 20.833L15.0698 24.0747ZM21.1668 22.7709L22.0001 22.3357L22.8335 22.7709V27.4997H21.1668V22.7709ZM17.8335 29.1664H26.1668L26.1676 30.833H17.8335V29.1664ZM19.5001 32.4997H24.5001V39.1664H19.5001V32.4997ZM31.1676 48.333H12.8335V44.1664H31.1668L31.1676 48.333ZM32.0001 42.4997H11.1668V40.833H32.8335L32.8343 42.4997H32.0001Z" fill="#146EB4"/>
</svg>
