<svg width="50" height="50" viewBox="0 0 50 50" fill="none" xmlns="http://www.w3.org/2000/svg">
<g clip-path="url(#clip0)">
<path d="M45.9232 21.5121C41.206 14.2298 47.2601 7.50188 47.5209 7.21928C47.9212 6.79946 47.9212 6.13916 47.5209 5.71935L42.2494 0.371752C41.8685 -0.0149158 41.2607 -0.0612453 40.8256 0.263061C37.8692 2.43688 35.0432 3.52379 32.4455 3.52379C29.9044 3.53873 27.4892 2.41881 25.8588 0.469574C25.6605 0.183581 25.3372 0.00981136 24.9893 0.002203C24.639 -0.0213014 24.303 0.144588 24.1089 0.436967C22.4807 2.39028 20.0652 3.51428 17.5222 3.50205C14.9245 3.50205 12.0877 2.41514 9.14216 0.241323C8.70699 -0.0829835 8.09927 -0.036654 7.71831 0.350014L2.46853 5.69761C2.06828 6.11743 2.06828 6.77772 2.46853 7.19754C2.53375 7.26276 8.81608 14.1755 4.07716 21.4469C1.32728 25.6641 1.27293 31.8813 3.92499 37.2941C7.46832 44.5655 15.1202 49.1631 24.9023 50H25.0762C34.8584 49.2066 42.4668 44.5655 46.0753 37.3593C48.7274 31.9247 48.673 25.7293 45.9232 21.5121ZM44.1189 36.3593C40.9234 42.8808 33.9454 47.0328 24.9893 47.7827C16.0223 47.0328 9.0552 42.8699 5.85969 36.3593C3.53371 31.6204 3.54457 26.2511 5.85969 22.6534C10.4791 15.5667 6.38141 8.82791 4.67496 6.55627L8.5987 2.56731C11.1774 4.49848 14.2815 5.60128 17.5005 5.73021C20.2896 5.74108 22.9742 4.66953 24.9893 2.74121C26.9963 4.66178 29.6676 5.73266 32.4455 5.73021C35.6645 5.60142 38.7686 4.49848 41.3473 2.56731L45.271 6.52366C43.5754 8.80617 39.4778 15.545 44.0863 22.6208C46.434 26.2402 46.4449 31.6204 44.1189 36.3593Z" fill="#146EB4"/>
<g clip-path="url(#clip1)">
<path d="M36.3534 17.7969H13.6271C12.4222 17.7969 11.4419 18.7772 11.4419 19.9821V34.8416C11.4419 36.0466 12.4222 37.0268 13.6271 37.0268H19.008C20.0609 39.5075 20.6198 42.1883 20.6198 44.8937L21.4939 44.8867C21.4939 44.1122 21.4432 43.34 21.3576 42.5721L21.3659 42.5804L21.931 42.0153L22.8426 42.9269L21.622 44.1476L22.24 44.7656L23.4606 43.5449L24.6813 44.7656L24.9903 44.4566L25.2993 44.7656L26.5199 43.5449L27.7406 44.7656L28.3586 44.1476L27.1379 42.9269L28.8127 41.2522C28.6011 42.4519 28.4866 43.6704 28.4866 44.8937L29.3607 44.8867C29.3607 42.187 29.9197 39.5071 30.9725 37.0268H36.3534C37.5584 37.0268 38.5387 36.0466 38.5387 34.8416V19.9821C38.5387 18.7772 37.5584 17.7969 36.3534 17.7969ZM31.1089 32.6564H18.8717V24.7896H31.1089V32.6564ZM31.983 33.5305V34.4046H17.9976V33.5305H31.983ZM27.4316 35.2787L26.5199 36.1903L25.6083 35.2787H27.4316ZM28.0496 35.8966L28.9613 36.8083L28.0496 37.72L27.1379 36.8083L28.0496 35.8966ZM25.902 36.8083L24.9903 37.72L24.0786 36.8083L24.9903 35.8966L25.902 36.8083ZM24.3723 35.2787L23.4606 36.1903L22.5489 35.2787H24.3723ZM21.313 35.2787L20.4013 36.1903L19.4896 35.2787H21.313ZM21.313 38.338L20.6412 39.0097C20.4376 38.3122 20.2011 37.6247 19.9262 36.9517L21.313 38.338ZM21.0193 36.8083L21.931 35.8966L22.8426 36.8083L21.931 37.72L21.0193 36.8083ZM23.4606 37.4263L24.3723 38.338L23.4606 39.2497L22.5489 38.338L23.4606 37.4263ZM24.9903 38.956L25.902 39.8676L24.9903 40.7793L24.0786 39.8676L24.9903 38.956ZM25.6083 38.338L26.5199 37.4263L27.4316 38.338L26.5199 39.2497L25.6083 38.338ZM28.0496 38.956L28.9613 39.8676L28.0496 40.7793L27.1379 39.8676L28.0496 38.956ZM28.6676 38.338L29.5793 37.4263L29.7903 37.6374C29.6238 38.0897 29.4744 38.5473 29.3393 39.0097L28.6676 38.338ZM28.6676 35.2787H30.8274C30.5792 35.7607 30.3498 36.252 30.14 36.7511L28.6676 35.2787ZM21.2077 41.5026C21.1242 40.9926 21.0245 40.4856 20.9035 39.9834L21.931 38.956L22.8426 39.8676L21.2077 41.5026ZM22.5489 41.3973L23.4606 40.4856L24.3723 41.3973L23.4606 42.309L22.5489 41.3973ZM24.9903 43.8386L24.0786 42.9269L24.9903 42.0153L25.902 42.9269L24.9903 43.8386ZM25.6083 41.3973L26.5199 40.4856L27.4316 41.3973L26.5199 42.309L25.6083 41.3973ZM37.6646 34.8416C37.6646 35.5645 37.0763 36.1528 36.3534 36.1528H31.3646C31.5062 35.8586 31.65 35.5658 31.806 35.2787H32.42C32.6617 35.2787 32.8571 35.0833 32.8571 34.8416V33.0934C32.8571 32.8518 32.6617 32.6564 32.42 32.6564H31.983V24.3525C31.983 24.1109 31.7876 23.9155 31.546 23.9155H18.4346C18.1929 23.9155 17.9976 24.1109 17.9976 24.3525V32.6564H17.5605C17.3188 32.6564 17.1235 32.8518 17.1235 33.0934V34.8416C17.1235 35.0833 17.3188 35.2787 17.5605 35.2787H18.1746C18.3306 35.5658 18.4744 35.8586 18.616 36.1528H13.6271C12.9042 36.1528 12.316 35.5645 12.316 34.8416V19.9821C12.316 19.2592 12.9042 18.671 13.6271 18.671H36.3534C37.0763 18.671 37.6646 19.2592 37.6646 19.9821V34.8416Z" fill="#146EB4"/>
<path d="M36.3686 19.5288H13.6115C13.3695 19.5288 13.1738 19.7239 13.1738 19.9653V34.806C13.1738 35.0474 13.3695 35.2425 13.6115 35.2425H16.2373V34.3695H14.0491V20.4018H35.9309V34.3695H33.7427V35.2425H36.3686C36.6106 35.2425 36.8062 35.0474 36.8062 34.806V19.9653C36.8062 19.7239 36.6106 19.5288 36.3686 19.5288Z" fill="#146EB4"/>
</g>
<path d="M20.6312 6.63124C20.2242 7.03829 20 7.57951 20 8.15517C20 8.73084 20.2242 9.27206 20.6312 9.67911C21.0383 10.0862 21.5795 10.3103 22.1552 10.3103C22.7308 10.3103 23.272 10.0862 23.6791 9.67911C24.0862 9.27206 24.3103 8.73084 24.3103 8.15517C24.3103 7.57951 24.0862 7.03829 23.6791 6.63124C23.272 6.22419 22.7308 6 22.1552 6C21.5795 6 21.0383 6.22418 20.6312 6.63124ZM24.1812 8.2192C24.1652 8.73667 23.9563 9.22085 23.5886 9.58859C23.5874 9.58979 23.5861 9.59096 23.5849 9.59218C23.4053 9.41368 23.2625 9.20635 23.16 8.97495C23.0541 8.73568 22.9966 8.48173 22.9885 8.2192L24.1812 8.2192ZM22.0912 8.21919V9.4269H22.2192V8.21919H22.8604C22.8685 8.49971 22.9298 8.77108 23.0429 9.02678C23.1512 9.27138 23.302 9.49064 23.4913 9.67961C23.1374 9.99066 22.6922 10.1666 22.2192 10.1812V9.59764H22.0911V10.1812C21.6181 10.1666 21.1729 9.99068 20.819 9.67961C21.0084 9.49063 21.1591 9.27137 21.2674 9.02676C21.3806 8.77107 21.4418 8.4997 21.4499 8.21919H22.0912ZM21.3218 8.21919C21.3138 8.48171 21.2562 8.73567 21.1503 8.97493C21.0479 9.20635 20.905 9.41369 20.7255 9.59217C20.7242 9.59096 20.723 9.58978 20.7218 9.58857C20.354 9.22083 20.1451 8.73665 20.1291 8.21918L21.3218 8.21919ZM20.1291 8.09116C20.1451 7.57369 20.354 7.08951 20.7218 6.72176C20.723 6.72055 20.7242 6.71938 20.7254 6.71817C20.905 6.89665 21.0479 7.104 21.1503 7.3354C21.2562 7.57466 21.3138 7.82862 21.3218 8.09115L20.1291 8.09116ZM22.0912 8.09116H21.4499C21.4418 7.81065 21.3806 7.53926 21.2674 7.28357C21.1591 7.03897 21.0084 6.81971 20.819 6.63074C21.1729 6.31968 21.6181 6.14371 22.0912 6.12913L22.0912 8.09116ZM23.5886 6.72177C23.9563 7.08951 24.1653 7.57369 24.1812 8.09116H22.9885C22.9966 7.82863 23.0541 7.57467 23.16 7.33542C23.2625 7.104 23.4053 6.89666 23.5849 6.71818C23.5861 6.71938 23.5874 6.72055 23.5886 6.72177ZM23.043 7.28358C22.9298 7.53927 22.8685 7.81065 22.8604 8.09116H22.2192V6.12913C22.6923 6.14373 23.1374 6.31969 23.4913 6.63074C23.302 6.81971 23.1512 7.03897 23.043 7.28358Z" fill="#146EB4" stroke="#146EB4" stroke-width="0.3"/>
<path d="M26.3207 12.3207C25.9136 12.7277 25.6895 13.269 25.6895 13.8446C25.6895 14.4203 25.9136 14.9615 26.3207 15.3686C26.7277 15.7756 27.269 15.9998 27.8446 15.9998C28.4203 15.9998 28.9615 15.7756 29.3686 15.3686C29.7756 14.9615 29.9998 14.4203 29.9998 13.8446C29.9998 13.269 29.7756 12.7277 29.3686 12.3207C28.9615 11.9136 28.4203 11.6895 27.8446 11.6895C27.269 11.6895 26.7277 11.9136 26.3207 12.3207ZM29.8707 13.9086C29.8547 14.4261 29.6458 14.9103 29.278 15.278C29.2768 15.2792 29.2756 15.2804 29.2744 15.2816C29.0948 15.1031 28.9519 14.8958 28.8495 14.6644C28.7436 14.4251 28.686 14.1712 28.678 13.9087L29.8707 13.9086ZM27.7806 13.9086V15.1164H27.9086V13.9086H28.5499C28.558 14.1892 28.6192 14.4605 28.7324 14.7162C28.8407 14.9608 28.9914 15.1801 29.1808 15.3691C28.8269 15.6801 28.3817 15.8561 27.9086 15.8707V15.2871H27.7806V15.8707C27.3075 15.8561 26.8624 15.6801 26.5085 15.3691C26.6978 15.1801 26.8486 14.9608 26.9568 14.7162C27.07 14.4605 27.1313 14.1892 27.1394 13.9086H27.7806ZM27.0113 13.9086C27.0032 14.1712 26.9457 14.4251 26.8398 14.6644C26.7373 14.8958 26.5945 15.1031 26.4149 15.2816C26.4137 15.2804 26.4124 15.2792 26.4112 15.278C26.0435 14.9103 25.8345 14.4261 25.8186 13.9086L27.0113 13.9086ZM25.8186 13.7806C25.8345 13.2631 26.0435 12.779 26.4112 12.4112C26.4124 12.41 26.4137 12.4088 26.4149 12.4076C26.5945 12.5861 26.7373 12.7934 26.8398 13.0249C26.9457 13.2641 27.0032 13.5181 27.0113 13.7806L25.8186 13.7806ZM27.7806 13.7806H27.1394C27.1313 13.5001 27.07 13.2287 26.9569 12.973C26.8486 12.7284 26.6978 12.5092 26.5085 12.3202C26.8624 12.0091 27.3076 11.8332 27.7806 11.8186L27.7806 13.7806ZM29.278 12.4112C29.6458 12.779 29.8547 13.2631 29.8707 13.7806H28.678C28.686 13.5181 28.7435 13.2641 28.8495 13.0249C28.9519 12.7935 29.0947 12.5861 29.2743 12.4076C29.2756 12.4088 29.2768 12.41 29.278 12.4112ZM28.7324 12.973C28.6192 13.2287 28.558 13.5001 28.5499 13.7806H27.9086V11.8186C28.3817 11.8332 28.8269 12.0091 29.1808 12.3202C28.9914 12.5092 28.8407 12.7284 28.7324 12.973Z" fill="#146EB4" stroke="#146EB4" stroke-width="0.3"/>
<rect x="26.8965" y="6" width="1.89655" height="10.3448" rx="0.948276" transform="rotate(30 26.8965 6)" fill="#146EB4"/>
</g>
<defs>
<clipPath id="clip0">
<rect width="50" height="50" fill="white"/>
</clipPath>
<clipPath id="clip1">
<rect width="28" height="28" fill="white" transform="translate(11 45) rotate(-90)"/>
</clipPath>
</defs>
</svg>
