<svg width="100" height="100" viewBox="0 0 100 100" fill="none" xmlns="http://www.w3.org/2000/svg">
<g clip-path="url(#clip0)">
<path d="M21.6668 81.6667V90.3068C19.3727 91.1149 17.9957 93.4595 18.4075 95.8569C18.8201 98.2544 20.901 100.005 23.3334 100H76.6668C79.0992 100.005 81.1801 98.2544 81.5927 95.8569C82.0045 93.4595 80.6275 91.1149 78.3334 90.3068V81.6667C78.3277 77.0662 74.6005 73.339 70.0001 73.3333H54.1114C61.8336 65.4565 81.6668 42.5602 81.6668 15C81.6668 13.8631 81.6505 12.7352 81.6187 11.617C81.5919 10.7153 80.8538 9.99756 79.9521 9.99837C73.5466 9.98128 68.3334 6.24349 68.3334 1.66667C68.3334 0.746256 67.5872 0 66.6668 0H33.3334C32.413 0 31.6668 0.746256 31.6668 1.66667C31.6668 6.24349 26.4536 9.98128 20.0432 10C19.1415 10 18.4026 10.717 18.3766 11.6187C18.3481 12.7368 18.3334 13.8647 18.3334 15C18.3334 42.5602 38.1666 65.4565 45.8888 73.3333H30.0001C25.3997 73.339 21.6725 77.0662 21.6668 81.6667ZM21.6798 13.2601C28.4514 12.6685 33.8803 8.54818 34.8471 3.33333H65.1531C66.1199 8.54818 71.5488 12.6668 78.3204 13.2601C78.3294 13.8363 78.3334 14.4165 78.3334 15C78.3334 43.3919 55.3704 67.465 50.0001 72.7035C44.6266 67.4683 21.6668 43.4196 21.6668 15C21.6668 14.4165 21.6708 13.8363 21.6798 13.2601ZM76.6668 96.6667H23.3334C22.413 96.6667 21.6668 95.9204 21.6668 95C21.6668 94.0796 22.413 93.3333 23.3334 93.3333H76.6668C77.5872 93.3333 78.3334 94.0796 78.3334 95C78.3334 95.9204 77.5872 96.6667 76.6668 96.6667ZM75.0001 81.6667V90H25.0001V81.6667C25.0001 78.9054 27.2389 76.6667 30.0001 76.6667H70.0001C72.7613 76.6667 75.0001 78.9054 75.0001 81.6667Z" fill="#146EB4"/>
<path d="M51.1084 66.2453C52.0833 65.3786 75 44.6901 75 18.6371C75 17.7557 74.9878 16.8809 74.9634 16.0118C74.9373 15.1101 74.1984 14.3931 73.2967 14.3939C68.5181 14.3801 64.6281 11.6669 64.6281 8.33354C64.6281 7.41313 63.8818 6.66687 62.9614 6.66687H37.0386C36.1182 6.66687 35.3719 7.41313 35.3719 8.33354C35.3719 11.6669 31.4819 14.3801 26.7049 14.3939C25.8032 14.3931 25.0643 15.1101 25.0382 16.0118C25.013 16.8809 25 17.7557 25 18.6371C25 44.6901 47.9167 65.3786 48.8916 66.2453C49.5231 66.8077 50.4769 66.8077 51.1084 66.2453ZM28.3333 18.6371C28.3333 18.3034 28.3333 17.9706 28.3333 17.6369C33.4749 17.0738 37.5936 13.9602 38.5002 10.0002H61.4868C62.3999 13.9602 66.5186 17.0738 71.6536 17.6369V18.6371C71.6667 40.0002 54.5671 58.2204 50 62.702C45.4329 58.2204 28.3333 40.0002 28.3333 18.6371Z" fill="#146EB4"/>
<path d="M40.1005 26.1005C37.4563 28.7447 36 32.2605 36 36C36 39.7395 37.4563 43.2553 40.1005 45.8995C42.7447 48.5437 46.2605 50 50 50C53.7395 50 57.2552 48.5437 59.8995 45.8995C62.5437 43.2553 64 39.7395 64 36C64 32.2605 62.5437 28.7447 59.8995 26.1005C57.2552 23.4563 53.7395 22 50 22C46.2605 22 42.7447 23.4563 40.1005 26.1005ZM63.1611 36.4159C63.0575 39.7774 61.7003 42.9226 59.3114 45.3115C59.3035 45.3193 59.2954 45.3269 59.2875 45.3348C58.1208 44.1753 57.193 42.8284 56.5275 41.3253C55.8394 39.771 55.4658 38.1213 55.4135 36.416H63.1611V36.4159ZM49.5842 36.4158V44.2611H50.4158V36.4158H54.5812C54.6338 38.2381 55.0317 40.0009 55.767 41.662C56.4704 43.2509 57.4496 44.6752 58.6795 45.9028C56.3806 47.9234 53.4888 49.0664 50.4158 49.1612V45.3703H49.5841V49.1612C46.5111 49.0665 43.6193 47.9235 41.3204 45.9028C42.5504 44.6751 43.5295 43.2508 44.2329 41.6619C44.9683 40.0009 45.3661 38.238 45.4187 36.4158H49.5842ZM44.5865 36.4158C44.5342 38.1212 44.1606 39.7709 43.4725 41.3251C42.807 42.8284 41.8792 44.1753 40.7125 45.3347C40.7046 45.3268 40.6965 45.3192 40.6886 45.3114C38.2998 42.9225 36.9425 39.7773 36.8389 36.4158H44.5865V36.4158ZM36.8389 35.5842C36.9425 32.2227 38.2997 29.0774 40.6886 26.6886C40.6965 26.6807 40.7046 26.6731 40.7125 26.6652C41.8792 27.8247 42.807 29.1716 43.4725 30.6747C44.1606 32.229 44.5342 33.8787 44.5865 35.5841H36.8389V35.5842ZM49.5842 35.5842H45.4188C45.3662 33.762 44.9683 31.9991 44.233 30.3381C43.5296 28.7491 42.5504 27.3248 41.3205 26.0973C43.6194 24.0766 46.5112 22.9336 49.5843 22.8389V35.5842H49.5842ZM59.3114 26.6886C61.7003 29.0774 63.0576 32.2227 63.1611 35.5842H55.4135C55.4657 33.8788 55.8394 32.2291 56.5274 30.6749C57.1929 29.1716 58.1208 27.8247 59.2874 26.6653C59.2954 26.6731 59.3035 26.6807 59.3114 26.6886ZM55.767 30.3381C55.0317 31.9991 54.6338 33.762 54.5813 35.5842H50.4159V22.8389C53.4889 22.9337 56.3807 24.0767 58.6796 26.0973C57.4495 27.3248 56.4704 28.7491 55.767 30.3381Z" fill="#146EB4" stroke="#146EB4" stroke-width="0.5"/>
<path d="M29.9543 85.4104C29.9285 85.383 29.8944 85.3653 29.8576 85.3604L28.6745 85.1845L28.1484 84.0853C28.0995 84.0021 27.9939 83.9751 27.9125 84.0251C27.8884 84.04 27.8682 84.0606 27.8537 84.0853L27.3255 85.1803L26.1424 85.3562C26.0528 85.3682 25.9896 85.4524 26.0014 85.5441C26.0063 85.5818 26.0235 85.6167 26.0503 85.643L26.9059 86.4952L26.7012 87.699C26.6866 87.7915 26.748 87.8786 26.8384 87.8936C26.8733 87.8994 26.9092 87.8936 26.9407 87.877L28.001 87.3117L29.0593 87.8812C29.1407 87.924 29.2407 87.8912 29.2826 87.8079C29.2988 87.7757 29.3045 87.739 29.2988 87.7032L29.0941 86.4993L29.9497 85.6472C30.0149 85.5831 30.017 85.4771 29.9543 85.4104ZM28.8034 86.3172C28.765 86.356 28.7475 86.4114 28.7564 86.4658L28.916 87.4206L28.0768 86.9704C28.0287 86.9447 27.9714 86.9447 27.9233 86.9704L27.084 87.4206L27.2437 86.4658C27.2525 86.4114 27.235 86.356 27.1966 86.3172L26.5191 85.6409L27.4566 85.5027C27.5104 85.4949 27.5571 85.4604 27.5814 85.4106L27.9908 84.5417L28.4002 85.4106C28.4245 85.4604 28.4712 85.4949 28.525 85.5027L29.4625 85.6409L28.8034 86.3172Z" fill="#146EB4"/>
<path d="M35.9543 85.4104C35.9285 85.383 35.8944 85.3653 35.8576 85.3604L34.6745 85.1845L34.1484 84.0853C34.0995 84.0021 33.9939 83.9751 33.9125 84.0251C33.8884 84.04 33.8682 84.0606 33.8537 84.0853L33.3255 85.1803L32.1424 85.3562C32.0528 85.3682 31.9896 85.4524 32.0014 85.5441C32.0063 85.5818 32.0235 85.6167 32.0503 85.643L32.9059 86.4952L32.7012 87.699C32.6866 87.7915 32.748 87.8786 32.8384 87.8936C32.8733 87.8994 32.9092 87.8936 32.9407 87.877L34.001 87.3117L35.0593 87.8812C35.1407 87.924 35.2407 87.8912 35.2826 87.8079C35.2988 87.7757 35.3045 87.739 35.2988 87.7032L35.0941 86.4993L35.9497 85.6472C36.0149 85.5831 36.017 85.4771 35.9543 85.4104ZM34.8034 86.3172C34.765 86.356 34.7475 86.4114 34.7564 86.4658L34.916 87.4206L34.0768 86.9704C34.0287 86.9447 33.9714 86.9447 33.9233 86.9704L33.084 87.4206L33.2437 86.4658C33.2525 86.4114 33.235 86.356 33.1966 86.3172L32.5191 85.6409L33.4566 85.5027C33.5104 85.4949 33.5571 85.4604 33.5814 85.4106L33.9908 84.5417L34.4002 85.4106C34.4245 85.4604 34.4712 85.4949 34.525 85.5027L35.4625 85.6409L34.8034 86.3172Z" fill="#146EB4"/>
<path d="M41.9543 85.4104C41.9285 85.383 41.8944 85.3653 41.8576 85.3604L40.6745 85.1845L40.1484 84.0853C40.0995 84.0021 39.9939 83.9751 39.9125 84.0251C39.8884 84.04 39.8682 84.0606 39.8537 84.0853L39.3255 85.1803L38.1424 85.3562C38.0528 85.3682 37.9896 85.4524 38.0014 85.5441C38.0063 85.5818 38.0235 85.6167 38.0503 85.643L38.9059 86.4952L38.7012 87.699C38.6866 87.7915 38.748 87.8786 38.8384 87.8936C38.8733 87.8994 38.9092 87.8936 38.9407 87.877L40.001 87.3117L41.0593 87.8812C41.1407 87.924 41.2407 87.8912 41.2826 87.8079C41.2988 87.7757 41.3045 87.739 41.2988 87.7032L41.0941 86.4993L41.9497 85.6472C42.0149 85.5831 42.017 85.4771 41.9543 85.4104ZM40.8034 86.3172C40.765 86.356 40.7475 86.4114 40.7564 86.4658L40.916 87.4206L40.0768 86.9704C40.0287 86.9447 39.9714 86.9447 39.9233 86.9704L39.084 87.4206L39.2437 86.4658C39.2525 86.4114 39.235 86.356 39.1966 86.3172L38.5191 85.6409L39.4566 85.5027C39.5104 85.4949 39.5571 85.4604 39.5814 85.4106L39.9908 84.5417L40.4002 85.4106C40.4245 85.4604 40.4712 85.4949 40.525 85.5027L41.4625 85.6409L40.8034 86.3172Z" fill="#146EB4"/>
<path d="M53.9086 14.8208C53.8571 14.7659 53.7889 14.7307 53.7152 14.7207L51.3489 14.369L50.2968 12.1706C50.199 12.0041 49.9877 11.9503 49.825 12.0503C49.7767 12.08 49.7363 12.1213 49.7073 12.1706L48.6511 14.3606L46.2848 14.7124C46.1055 14.7365 45.9792 14.9047 46.0028 15.0882C46.0125 15.1636 46.047 15.2333 46.1006 15.286L47.8119 16.9903L47.4025 19.3981C47.3731 19.583 47.4959 19.7572 47.6767 19.7872C47.7467 19.7988 47.8184 19.7872 47.8815 19.754L50.0021 18.6234L52.1186 19.7624C52.2815 19.8481 52.4814 19.7825 52.5651 19.6159C52.5975 19.5514 52.6089 19.478 52.5976 19.4064L52.1882 16.9987L53.8994 15.2944C54.0299 15.1662 54.034 14.9542 53.9086 14.8208ZM51.6069 16.6344C51.53 16.7119 51.4949 16.8228 51.5127 16.9317L51.832 18.8411L50.1535 17.9408C50.0573 17.8894 49.9427 17.8894 49.8465 17.9408L48.168 18.8411L48.4873 16.9317C48.5051 16.8228 48.47 16.7119 48.3932 16.6344L47.0381 15.2819L48.9131 15.0055C49.0209 14.9897 49.1142 14.9208 49.1628 14.8212L49.9816 13.0835L50.8004 14.8212C50.849 14.9208 50.9423 14.9897 51.0501 15.0055L52.9251 15.2819L51.6069 16.6344Z" fill="#146EB4"/>
</g>
<defs>
<clipPath id="clip0">
<rect width="100" height="100" fill="white"/>
</clipPath>
</defs>
</svg>
