<svg width="34" height="34" viewBox="0 0 34 34" fill="none" xmlns="http://www.w3.org/2000/svg">
<path d="M7.98724 1V0.5H7.85192L7.73506 0.568252L7.98724 1ZM1.09469 8.74194L0.597913 8.79864C0.610364 8.90773 0.658378 9.00969 0.734543 9.08877L1.09469 8.74194ZM9.0476 17L9.41696 16.6627L9.40774 16.6532L9.0476 17ZM8.62313 20.1242C8.35323 20.0658 8.0871 20.2373 8.02871 20.5072C7.97032 20.7771 8.14179 21.0432 8.41169 21.1016L8.62313 20.1242ZM14.3495 26.2903V25.7903C14.0734 25.7903 13.8495 26.0142 13.8495 26.2903H14.3495ZM10.5189 29.3871V28.8871C10.4081 28.8871 10.3005 28.9239 10.2129 28.9916L10.5189 29.3871ZM8.51741 30.9355L8.21146 30.54C8.08906 30.6347 8.01741 30.7807 8.01741 30.9355H8.51741ZM8.51741 33H8.01741V33.5H8.51741V33ZM26.0137 1L26.2659 0.568252L26.1491 0.5H26.0137V1ZM32.9063 8.74194L33.2664 9.08877C33.3426 9.00969 33.3906 8.90773 33.4031 8.79864L32.9063 8.74194ZM24.9534 17L24.5931 16.653L24.5841 16.6629L24.9534 17ZM25.5893 21.1016C25.8592 21.0432 26.0307 20.7771 25.9723 20.5072C25.9139 20.2373 25.6478 20.0658 25.3779 20.1242L25.5893 21.1016ZM19.6515 26.2903H20.1515C20.1515 26.0142 19.9276 25.7903 19.6515 25.7903V26.2903ZM23.4821 29.3871L23.7881 28.9916C23.7005 28.9239 23.5929 28.8871 23.4821 28.8871V29.3871ZM25.4836 30.9355H25.9836C25.9836 30.7807 25.9119 30.6347 25.7895 30.54L25.4836 30.9355ZM25.4836 33V33.5H25.9836V33H25.4836ZM11.0005 30.5C10.7243 30.5 10.5005 30.7239 10.5005 31C10.5005 31.2761 10.7243 31.5 11.0005 31.5V30.5ZM23.0005 31.5C23.2766 31.5 23.5005 31.2761 23.5005 31C23.5005 30.7239 23.2766 30.5 23.0005 30.5V31.5ZM7.73506 0.568252C7.25326 0.849663 6.58587 1.40073 6.37894 2.14318C6.26856 2.53923 6.29525 2.97423 6.52958 3.40278C6.75633 3.81747 7.15798 4.19146 7.73506 4.52852L8.23942 3.66503C7.75611 3.38273 7.51712 3.12446 7.40698 2.92303C7.30441 2.73544 7.29797 2.57045 7.34223 2.41166C7.44457 2.04444 7.83756 1.66647 8.23942 1.43175L7.73506 0.568252ZM8.23942 3.66503C7.54508 3.25948 6.68758 2.87167 5.79853 2.64031C4.91497 2.41038 3.95876 2.32426 3.09201 2.57067C2.20123 2.82391 1.44342 3.41893 0.983537 4.46104C0.534069 5.47955 0.380761 6.89611 0.597913 8.79864L1.59146 8.68523C1.38446 6.87163 1.54927 5.65594 1.89841 4.86477C2.23714 4.0972 2.75843 3.70513 3.36546 3.53256C3.9965 3.35316 4.75681 3.40253 5.54668 3.60808C6.33106 3.8122 7.10391 4.15988 7.73506 4.52852L8.23942 3.66503ZM0.734543 9.08877L8.68745 17.3468L9.40774 16.6532L1.45483 8.3951L0.734543 9.08877ZM8.67837 17.3371C9.20031 17.9088 9.76534 18.6468 10.0676 19.28L10.9701 18.8491C10.6065 18.0877 9.96714 17.2655 9.41683 16.6629L8.67837 17.3371ZM10.0676 19.28C10.1578 19.4688 10.2184 19.6356 10.2499 19.7763L11.2257 19.5577C11.1729 19.322 11.0813 19.0821 10.9701 18.8491L10.0676 19.28ZM10.2499 19.7763C10.2854 19.9349 10.2772 20.0299 10.2624 20.0788C10.2526 20.1113 10.2374 20.1388 10.1811 20.1696C10.11 20.2087 9.96532 20.2546 9.69874 20.2582C9.43557 20.2617 9.08348 20.2238 8.62313 20.1242L8.41169 21.1016C8.91729 21.211 9.34896 21.263 9.71229 21.2581C10.0722 21.2532 10.3967 21.1921 10.6625 21.0462C10.9431 20.8921 11.1323 20.6566 11.2195 20.3686C11.3017 20.0971 11.2831 19.814 11.2257 19.5577L10.2499 19.7763ZM7.48748 4.08137C7.40662 6.70423 7.80467 13.3818 10.052 19.2435L10.9857 18.8855C8.80059 13.186 8.40875 6.65061 8.487 4.11218L7.48748 4.08137ZM10.0446 19.2229C10.1095 19.4172 10.1855 19.6272 10.2721 19.8489L11.2035 19.485C11.1226 19.2778 11.0524 19.0836 10.9931 18.9062L10.0446 19.2229ZM10.2721 19.8489C10.7471 21.0649 11.558 22.6749 12.6602 24.0383C13.7548 25.3922 15.1953 26.5743 16.9401 26.7867L17.0609 25.794C15.6945 25.6277 14.4659 24.6812 13.4379 23.4096C12.4176 22.1475 11.6528 20.6351 11.2035 19.485L10.2721 19.8489ZM17.0005 25.7903H14.3495V26.7903H17.0005V25.7903ZM13.8495 26.2903V29.3871H14.8495V26.2903H13.8495ZM14.3495 28.8871H10.5189V29.8871H14.3495V28.8871ZM10.2129 28.9916L8.21146 30.54L8.82336 31.331L10.8248 29.7826L10.2129 28.9916ZM8.01741 30.9355V33H9.01741V30.9355H8.01741ZM25.7616 1.43175C26.1634 1.66647 26.5564 2.04444 26.6588 2.41166C26.703 2.57045 26.6966 2.73544 26.594 2.92303C26.4839 3.12446 26.2449 3.38273 25.7616 3.66503L26.2659 4.52852C26.843 4.19146 27.2447 3.81747 27.4714 3.40278C27.7057 2.97423 27.7324 2.53923 27.622 2.14318C27.4151 1.40073 26.7477 0.849663 26.2659 0.568252L25.7616 1.43175ZM26.2659 4.52852C26.8971 4.15988 27.6699 3.8122 28.4543 3.60808C29.2442 3.40253 30.0045 3.35316 30.6355 3.53256C31.2425 3.70513 31.7638 4.0972 32.1026 4.86477C32.4517 5.65594 32.6165 6.87163 32.4095 8.68523L33.4031 8.79864C33.6202 6.89611 33.4669 5.47955 33.0174 4.46104C32.5576 3.41893 31.7997 2.82391 30.909 2.57067C30.0422 2.32426 29.086 2.41038 28.2025 2.64031C27.3134 2.87167 26.4559 3.25948 25.7616 3.66503L26.2659 4.52852ZM32.5461 8.3951L24.5932 16.6532L25.3135 17.3468L33.2664 9.08877L32.5461 8.3951ZM24.5841 16.6629C24.0338 17.2655 23.3945 18.0877 23.0309 18.8491L23.9333 19.28C24.2356 18.6468 24.8007 17.9088 25.3226 17.3371L24.5841 16.6629ZM23.0309 18.8491C22.9196 19.0821 22.8281 19.322 22.7753 19.5577L23.7511 19.7763C23.7826 19.6356 23.8432 19.4688 23.9333 19.28L23.0309 18.8491ZM22.7753 19.5577C22.7178 19.814 22.6992 20.0971 22.7815 20.3686C22.8687 20.6566 23.0579 20.8921 23.3385 21.0462C23.6042 21.1921 23.9288 21.2532 24.2887 21.2581C24.652 21.263 25.0837 21.211 25.5893 21.1016L25.3779 20.1242C24.9175 20.2238 24.5654 20.2617 24.3022 20.2582C24.0357 20.2546 23.891 20.2087 23.8199 20.1696C23.7636 20.1388 23.7484 20.1113 23.7386 20.0788C23.7237 20.0299 23.7155 19.9349 23.7511 19.7763L22.7753 19.5577ZM25.514 4.11218C25.5922 6.65061 25.2004 13.186 23.0153 18.8855L23.949 19.2435C26.1963 13.3818 26.5944 6.70423 26.5135 4.08137L25.514 4.11218ZM23.0079 18.9062C22.9486 19.0836 22.8784 19.2778 22.7975 19.485L23.7289 19.8489C23.8155 19.6272 23.8915 19.4172 23.9564 19.2229L23.0079 18.9062ZM22.7975 19.485C22.3482 20.6351 21.5834 22.1475 20.5631 23.4096C19.5351 24.6812 18.3065 25.6277 16.9401 25.794L17.0609 26.7867C18.8057 26.5743 20.2462 25.3922 21.3407 24.0383C22.4429 22.6749 23.2539 21.0649 23.7289 19.8489L22.7975 19.485ZM17.0005 26.7903H19.6515V25.7903H17.0005V26.7903ZM19.1515 26.2903V29.3871H20.1515V26.2903H19.1515ZM19.6515 29.8871H23.4821V28.8871H19.6515V29.8871ZM23.1762 29.7826L25.1776 31.331L25.7895 30.54L23.7881 28.9916L23.1762 29.7826ZM24.9836 30.9355V33H25.9836V30.9355H24.9836ZM26.0137 0.5H7.98724V1.5H26.0137V0.5ZM7.98724 4.59677H26.0137V3.59677H7.98724V4.59677ZM14.3495 29.8871H19.6515V28.8871H14.3495V29.8871ZM8.51741 33.5H25.4836V32.5H8.51741V33.5ZM11.0005 31.5H23.0005V30.5H11.0005V31.5Z" fill="#FF0303"/>
<path d="M7.98724 1V0.5H7.85192L7.73506 0.568252L7.98724 1ZM1.09469 8.74194L0.597913 8.79864C0.610364 8.90773 0.658378 9.00969 0.734543 9.08877L1.09469 8.74194ZM9.0476 17L9.41696 16.6627L9.40774 16.6532L9.0476 17ZM8.62313 20.1242C8.35323 20.0658 8.0871 20.2373 8.02871 20.5072C7.97032 20.7771 8.14179 21.0432 8.41169 21.1016L8.62313 20.1242ZM14.3495 26.2903V25.7903C14.0734 25.7903 13.8495 26.0142 13.8495 26.2903H14.3495ZM10.5189 29.3871V28.8871C10.4081 28.8871 10.3005 28.9239 10.2129 28.9916L10.5189 29.3871ZM8.51741 30.9355L8.21146 30.54C8.08906 30.6347 8.01741 30.7807 8.01741 30.9355H8.51741ZM8.51741 33H8.01741V33.5H8.51741V33ZM26.0137 1L26.2659 0.568252L26.1491 0.5H26.0137V1ZM32.9063 8.74194L33.2664 9.08877C33.3426 9.00969 33.3906 8.90773 33.4031 8.79864L32.9063 8.74194ZM24.9534 17L24.5931 16.653L24.5841 16.6629L24.9534 17ZM25.5893 21.1016C25.8592 21.0432 26.0307 20.7771 25.9723 20.5072C25.9139 20.2373 25.6478 20.0658 25.3779 20.1242L25.5893 21.1016ZM19.6515 26.2903H20.1515C20.1515 26.0142 19.9276 25.7903 19.6515 25.7903V26.2903ZM23.4821 29.3871L23.7881 28.9916C23.7005 28.9239 23.5929 28.8871 23.4821 28.8871V29.3871ZM25.4836 30.9355H25.9836C25.9836 30.7807 25.9119 30.6347 25.7895 30.54L25.4836 30.9355ZM25.4836 33V33.5H25.9836V33H25.4836ZM11.0005 30.5C10.7243 30.5 10.5005 30.7239 10.5005 31C10.5005 31.2761 10.7243 31.5 11.0005 31.5V30.5ZM23.0005 31.5C23.2766 31.5 23.5005 31.2761 23.5005 31C23.5005 30.7239 23.2766 30.5 23.0005 30.5V31.5ZM7.73506 0.568252C7.25326 0.849663 6.58587 1.40073 6.37894 2.14318C6.26856 2.53923 6.29525 2.97423 6.52958 3.40278C6.75633 3.81747 7.15798 4.19146 7.73506 4.52852L8.23942 3.66503C7.75611 3.38273 7.51712 3.12446 7.40698 2.92303C7.30441 2.73544 7.29797 2.57045 7.34223 2.41166C7.44457 2.04444 7.83756 1.66647 8.23942 1.43175L7.73506 0.568252ZM8.23942 3.66503C7.54508 3.25948 6.68758 2.87167 5.79853 2.64031C4.91497 2.41038 3.95876 2.32426 3.09201 2.57067C2.20123 2.82391 1.44342 3.41893 0.983537 4.46104C0.534069 5.47955 0.380761 6.89611 0.597913 8.79864L1.59146 8.68523C1.38446 6.87163 1.54927 5.65594 1.89841 4.86477C2.23714 4.0972 2.75843 3.70513 3.36546 3.53256C3.9965 3.35316 4.75681 3.40253 5.54668 3.60808C6.33106 3.8122 7.10391 4.15988 7.73506 4.52852L8.23942 3.66503ZM0.734543 9.08877L8.68745 17.3468L9.40774 16.6532L1.45483 8.3951L0.734543 9.08877ZM8.67837 17.3371C9.20031 17.9088 9.76534 18.6468 10.0676 19.28L10.9701 18.8491C10.6065 18.0877 9.96714 17.2655 9.41683 16.6629L8.67837 17.3371ZM10.0676 19.28C10.1578 19.4688 10.2184 19.6356 10.2499 19.7763L11.2257 19.5577C11.1729 19.322 11.0813 19.0821 10.9701 18.8491L10.0676 19.28ZM10.2499 19.7763C10.2854 19.9349 10.2772 20.0299 10.2624 20.0788C10.2526 20.1113 10.2374 20.1388 10.1811 20.1696C10.11 20.2087 9.96532 20.2546 9.69874 20.2582C9.43557 20.2617 9.08348 20.2238 8.62313 20.1242L8.41169 21.1016C8.91729 21.211 9.34896 21.263 9.71229 21.2581C10.0722 21.2532 10.3967 21.1921 10.6625 21.0462C10.9431 20.8921 11.1323 20.6566 11.2195 20.3686C11.3017 20.0971 11.2831 19.814 11.2257 19.5577L10.2499 19.7763ZM7.48748 4.08137C7.40662 6.70423 7.80467 13.3818 10.052 19.2435L10.9857 18.8855C8.80059 13.186 8.40875 6.65061 8.487 4.11218L7.48748 4.08137ZM10.0446 19.2229C10.1095 19.4172 10.1855 19.6272 10.2721 19.8489L11.2035 19.485C11.1226 19.2778 11.0524 19.0836 10.9931 18.9062L10.0446 19.2229ZM10.2721 19.8489C10.7471 21.0649 11.558 22.6749 12.6602 24.0383C13.7548 25.3922 15.1953 26.5743 16.9401 26.7867L17.0609 25.794C15.6945 25.6277 14.4659 24.6812 13.4379 23.4096C12.4176 22.1475 11.6528 20.6351 11.2035 19.485L10.2721 19.8489ZM17.0005 25.7903H14.3495V26.7903H17.0005V25.7903ZM13.8495 26.2903V29.3871H14.8495V26.2903H13.8495ZM14.3495 28.8871H10.5189V29.8871H14.3495V28.8871ZM10.2129 28.9916L8.21146 30.54L8.82336 31.331L10.8248 29.7826L10.2129 28.9916ZM8.01741 30.9355V33H9.01741V30.9355H8.01741ZM25.7616 1.43175C26.1634 1.66647 26.5564 2.04444 26.6588 2.41166C26.703 2.57045 26.6966 2.73544 26.594 2.92303C26.4839 3.12446 26.2449 3.38273 25.7616 3.66503L26.2659 4.52852C26.843 4.19146 27.2447 3.81747 27.4714 3.40278C27.7057 2.97423 27.7324 2.53923 27.622 2.14318C27.4151 1.40073 26.7477 0.849663 26.2659 0.568252L25.7616 1.43175ZM26.2659 4.52852C26.8971 4.15988 27.6699 3.8122 28.4543 3.60808C29.2442 3.40253 30.0045 3.35316 30.6355 3.53256C31.2425 3.70513 31.7638 4.0972 32.1026 4.86477C32.4517 5.65594 32.6165 6.87163 32.4095 8.68523L33.4031 8.79864C33.6202 6.89611 33.4669 5.47955 33.0174 4.46104C32.5576 3.41893 31.7997 2.82391 30.909 2.57067C30.0422 2.32426 29.086 2.41038 28.2025 2.64031C27.3134 2.87167 26.4559 3.25948 25.7616 3.66503L26.2659 4.52852ZM32.5461 8.3951L24.5932 16.6532L25.3135 17.3468L33.2664 9.08877L32.5461 8.3951ZM24.5841 16.6629C24.0338 17.2655 23.3945 18.0877 23.0309 18.8491L23.9333 19.28C24.2356 18.6468 24.8007 17.9088 25.3226 17.3371L24.5841 16.6629ZM23.0309 18.8491C22.9196 19.0821 22.8281 19.322 22.7753 19.5577L23.7511 19.7763C23.7826 19.6356 23.8432 19.4688 23.9333 19.28L23.0309 18.8491ZM22.7753 19.5577C22.7178 19.814 22.6992 20.0971 22.7815 20.3686C22.8687 20.6566 23.0579 20.8921 23.3385 21.0462C23.6042 21.1921 23.9288 21.2532 24.2887 21.2581C24.652 21.263 25.0837 21.211 25.5893 21.1016L25.3779 20.1242C24.9175 20.2238 24.5654 20.2617 24.3022 20.2582C24.0357 20.2546 23.891 20.2087 23.8199 20.1696C23.7636 20.1388 23.7484 20.1113 23.7386 20.0788C23.7237 20.0299 23.7155 19.9349 23.7511 19.7763L22.7753 19.5577ZM25.514 4.11218C25.5922 6.65061 25.2004 13.186 23.0153 18.8855L23.949 19.2435C26.1963 13.3818 26.5944 6.70423 26.5135 4.08137L25.514 4.11218ZM23.0079 18.9062C22.9486 19.0836 22.8784 19.2778 22.7975 19.485L23.7289 19.8489C23.8155 19.6272 23.8915 19.4172 23.9564 19.2229L23.0079 18.9062ZM22.7975 19.485C22.3482 20.6351 21.5834 22.1475 20.5631 23.4096C19.5351 24.6812 18.3065 25.6277 16.9401 25.794L17.0609 26.7867C18.8057 26.5743 20.2462 25.3922 21.3407 24.0383C22.4429 22.6749 23.2539 21.0649 23.7289 19.8489L22.7975 19.485ZM17.0005 26.7903H19.6515V25.7903H17.0005V26.7903ZM19.1515 26.2903V29.3871H20.1515V26.2903H19.1515ZM19.6515 29.8871H23.4821V28.8871H19.6515V29.8871ZM23.1762 29.7826L25.1776 31.331L25.7895 30.54L23.7881 28.9916L23.1762 29.7826ZM24.9836 30.9355V33H25.9836V30.9355H24.9836ZM26.0137 0.5H7.98724V1.5H26.0137V0.5ZM7.98724 4.59677H26.0137V3.59677H7.98724V4.59677ZM14.3495 29.8871H19.6515V28.8871H14.3495V29.8871ZM8.51741 33.5H25.4836V32.5H8.51741V33.5ZM11.0005 31.5H23.0005V30.5H11.0005V31.5Z" fill="black" fill-opacity="0.2"/>
<path d="M17.9839 22H16.1519V16.1348C16.1519 15.4967 16.1838 14.763 16.2476 13.9336C16.2157 13.9792 16.0972 14.1182 15.8921 14.3506C15.6916 14.583 15.2974 15 14.7095 15.6016L13.6704 14.4668L16.3296 12.0059H17.9839V22Z" fill="#FF0303"/>
<path d="M17.9839 22H16.1519V16.1348C16.1519 15.4967 16.1838 14.763 16.2476 13.9336C16.2157 13.9792 16.0972 14.1182 15.8921 14.3506C15.6916 14.583 15.2974 15 14.7095 15.6016L13.6704 14.4668L16.3296 12.0059H17.9839V22Z" fill="black" fill-opacity="0.2"/>
</svg>
