<svg width="36" height="32" viewBox="0 0 36 32" fill="none" xmlns="http://www.w3.org/2000/svg">
<path d="M31.9908 7.58689C24.2273 3.08997 20.9941 10.4581 20.9941 14.1738C14.9959 10.931 12.4967 16.5383 11.9968 19.7473L5.99861 10.627L5.49876 8.60024L5.99861 7.08019H6.99831V8.60024L8.49786 9.10693L9.99741 8.60024L11.497 7.08019L11.9968 5.56015V4.0401L10.9971 2.52005L9.49756 1.50668L7.99801 1L5.99861 1.50668L3.99922 2.52005L1.49997 5.56015L1.00012 7.08019V11.6403L1.99982 18.2272L4.49907 24.8141L9.99741 29.8809C11.9968 31.9077 18.4948 30.7254 21.4939 29.8809C28.2919 28.2595 29.3249 22.7873 28.9917 20.2539C31.9908 20.2539 38.9887 11.6404 31.9908 7.58689Z" stroke="#FF0303" stroke-linejoin="round"/>
<path d="M31.9908 7.58689C24.2273 3.08997 20.9941 10.4581 20.9941 14.1738C14.9959 10.931 12.4967 16.5383 11.9968 19.7473L5.99861 10.627L5.49876 8.60024L5.99861 7.08019H6.99831V8.60024L8.49786 9.10693L9.99741 8.60024L11.497 7.08019L11.9968 5.56015V4.0401L10.9971 2.52005L9.49756 1.50668L7.99801 1L5.99861 1.50668L3.99922 2.52005L1.49997 5.56015L1.00012 7.08019V11.6403L1.99982 18.2272L4.49907 24.8141L9.99741 29.8809C11.9968 31.9077 18.4948 30.7254 21.4939 29.8809C28.2919 28.2595 29.3249 22.7873 28.9917 20.2539C31.9908 20.2539 38.9887 11.6404 31.9908 7.58689Z" stroke="black" stroke-opacity="0.2" stroke-linejoin="round"/>
</svg>
