<svg width="26" height="34" viewBox="0 0 26 34" fill="none" xmlns="http://www.w3.org/2000/svg">
<path d="M7.50012 25.5L7.14657 25.8536C7.24034 25.9473 7.36751 26 7.50012 26V25.5ZM6.00012 24H5.50012C5.50012 24.1326 5.5528 24.2598 5.64657 24.3536L6.00012 24ZM6.00012 15H6.50012V14.5H6.00012V15ZM1.00012 15H0.500122C0.500122 15.2761 0.72398 15.5 1.00012 15.5V15ZM1.00012 13L0.646569 12.6464C0.5528 12.7402 0.500122 12.8674 0.500122 13H1.00012ZM13.0001 1L13.3537 0.646447L13.0001 0.292893L12.6466 0.646447L13.0001 1ZM18.5001 25.5V26C18.6327 26 18.7599 25.9473 18.8537 25.8536L18.5001 25.5ZM20.0001 24L20.3537 24.3536C20.4474 24.2598 20.5001 24.1326 20.5001 24H20.0001ZM20.0001 15V14.5H19.5001V15H20.0001ZM25.0001 15V15.5C25.2763 15.5 25.5001 15.2761 25.5001 15H25.0001ZM25.0001 13H25.5001C25.5001 12.8674 25.4474 12.7402 25.3537 12.6464L25.0001 13ZM8.00012 23.5C7.72398 23.5 7.50012 23.7239 7.50012 24C7.50012 24.2761 7.72398 24.5 8.00012 24.5V23.5ZM18.0001 24.5C18.2763 24.5 18.5001 24.2761 18.5001 24C18.5001 23.7239 18.2763 23.5 18.0001 23.5V24.5ZM7.50012 27V26.5C7.36751 26.5 7.24034 26.5527 7.14657 26.6464L7.50012 27ZM6.50012 28L6.14657 27.6464C6.0528 27.7402 6.00012 27.8674 6.00012 28H6.50012ZM6.50012 33H6.00012C6.00012 33.2761 6.22398 33.5 6.50012 33.5V33ZM19.5001 33V33.5C19.7763 33.5 20.0001 33.2761 20.0001 33H19.5001ZM19.5001 28H20.0001C20.0001 27.8674 19.9474 27.7402 19.8537 27.6464L19.5001 28ZM18.5001 27L18.8537 26.6464C18.7599 26.5527 18.6327 26.5 18.5001 26.5V27ZM8.00012 29.5H8.50012C8.50012 29.2239 8.27626 29 8.00012 29V29.5ZM8.00012 31V31.5C8.27626 31.5 8.50012 31.2761 8.50012 31H8.00012ZM18.0001 31H17.5001C17.5001 31.2761 17.724 31.5 18.0001 31.5V31ZM18.0001 29.5V29C17.724 29 17.5001 29.2239 17.5001 29.5H18.0001ZM10.0001 29.5V29C9.72398 29 9.50012 29.2239 9.50012 29.5H10.0001ZM10.0001 31H9.50012C9.50012 31.2761 9.72398 31.5 10.0001 31.5V31ZM11.5001 31V31.5C11.7763 31.5 12.0001 31.2761 12.0001 31H11.5001ZM11.5001 29.5H12.0001C12.0001 29.2239 11.7763 29 11.5001 29V29.5ZM16.0001 29.5H16.5001C16.5001 29.2239 16.2763 29 16.0001 29V29.5ZM16.0001 31V31.5C16.2763 31.5 16.5001 31.2761 16.5001 31H16.0001ZM14.5001 31H14.0001C14.0001 31.2761 14.224 31.5 14.5001 31.5V31ZM14.5001 29.5V29C14.224 29 14.0001 29.2239 14.0001 29.5H14.5001ZM13.0001 3L13.3537 2.64645L13.0001 2.29289L12.6466 2.64645L13.0001 3ZM9.64657 5.64645C9.45131 5.84171 9.45131 6.15829 9.64657 6.35355C9.84183 6.54882 10.1584 6.54882 10.3537 6.35355L9.64657 5.64645ZM15.6466 6.35355C15.8418 6.54882 16.1584 6.54882 16.3537 6.35355C16.5489 6.15829 16.5489 5.84171 16.3537 5.64645L15.6466 6.35355ZM7.85368 25.1464L6.35368 23.6464L5.64657 24.3536L7.14657 25.8536L7.85368 25.1464ZM6.50012 24V15H5.50012V24H6.50012ZM6.00012 14.5H1.00012V15.5H6.00012V14.5ZM1.50012 15V13H0.500122V15H1.50012ZM1.35368 13.3536L13.3537 1.35355L12.6466 0.646447L0.646569 12.6464L1.35368 13.3536ZM18.8537 25.8536L20.3537 24.3536L19.6466 23.6464L18.1466 25.1464L18.8537 25.8536ZM20.5001 24V15H19.5001V24H20.5001ZM20.0001 15.5H25.0001V14.5H20.0001V15.5ZM25.5001 15V13H24.5001V15H25.5001ZM25.3537 12.6464L13.3537 0.646447L12.6466 1.35355L24.6466 13.3536L25.3537 12.6464ZM18.5001 25H7.50012V26H18.5001V25ZM8.00012 24.5H18.0001V23.5H8.00012V24.5ZM7.14657 26.6464L6.14657 27.6464L6.85368 28.3536L7.85368 27.3536L7.14657 26.6464ZM6.50012 33.5H19.5001V32.5H6.50012V33.5ZM19.8537 27.6464L18.8537 26.6464L18.1466 27.3536L19.1466 28.3536L19.8537 27.6464ZM6.00012 28V29.5H7.00012V28H6.00012ZM6.50012 30H8.00012V29H6.50012V30ZM7.50012 29.5V31H8.50012V29.5H7.50012ZM6.00012 29.5V31H7.00012V29.5H6.00012ZM6.00012 31V33H7.00012V31H6.00012ZM8.00012 30.5H6.50012V31.5H8.00012V30.5ZM20.0001 33V31H19.0001V33H20.0001ZM19.5001 30.5H18.0001V31.5H19.5001V30.5ZM18.5001 31V29.5H17.5001V31H18.5001ZM20.0001 31V29.5H19.0001V31H20.0001ZM20.0001 29.5V28H19.0001V29.5H20.0001ZM18.0001 30H19.5001V29H18.0001V30ZM9.50012 29.5V31H10.5001V29.5H9.50012ZM10.0001 31.5H11.5001V30.5H10.0001V31.5ZM12.0001 31V29.5H11.0001V31H12.0001ZM11.5001 29H10.0001V30H11.5001V29ZM15.5001 29.5V31H16.5001V29.5H15.5001ZM16.0001 30.5H14.5001V31.5H16.0001V30.5ZM15.0001 31V29.5H14.0001V31H15.0001ZM14.5001 30H16.0001V29H14.5001V30ZM12.6466 2.64645L9.64657 5.64645L10.3537 6.35355L13.3537 3.35355L12.6466 2.64645ZM12.6466 3.35355L15.6466 6.35355L16.3537 5.64645L13.3537 2.64645L12.6466 3.35355ZM18.5001 26.5H7.50012V27.5H18.5001V26.5Z" fill="#FF0303"/>
<path d="M7.50012 25.5L7.14657 25.8536C7.24034 25.9473 7.36751 26 7.50012 26V25.5ZM6.00012 24H5.50012C5.50012 24.1326 5.5528 24.2598 5.64657 24.3536L6.00012 24ZM6.00012 15H6.50012V14.5H6.00012V15ZM1.00012 15H0.500122C0.500122 15.2761 0.72398 15.5 1.00012 15.5V15ZM1.00012 13L0.646569 12.6464C0.5528 12.7402 0.500122 12.8674 0.500122 13H1.00012ZM13.0001 1L13.3537 0.646447L13.0001 0.292893L12.6466 0.646447L13.0001 1ZM18.5001 25.5V26C18.6327 26 18.7599 25.9473 18.8537 25.8536L18.5001 25.5ZM20.0001 24L20.3537 24.3536C20.4474 24.2598 20.5001 24.1326 20.5001 24H20.0001ZM20.0001 15V14.5H19.5001V15H20.0001ZM25.0001 15V15.5C25.2763 15.5 25.5001 15.2761 25.5001 15H25.0001ZM25.0001 13H25.5001C25.5001 12.8674 25.4474 12.7402 25.3537 12.6464L25.0001 13ZM8.00012 23.5C7.72398 23.5 7.50012 23.7239 7.50012 24C7.50012 24.2761 7.72398 24.5 8.00012 24.5V23.5ZM18.0001 24.5C18.2763 24.5 18.5001 24.2761 18.5001 24C18.5001 23.7239 18.2763 23.5 18.0001 23.5V24.5ZM7.50012 27V26.5C7.36751 26.5 7.24034 26.5527 7.14657 26.6464L7.50012 27ZM6.50012 28L6.14657 27.6464C6.0528 27.7402 6.00012 27.8674 6.00012 28H6.50012ZM6.50012 33H6.00012C6.00012 33.2761 6.22398 33.5 6.50012 33.5V33ZM19.5001 33V33.5C19.7763 33.5 20.0001 33.2761 20.0001 33H19.5001ZM19.5001 28H20.0001C20.0001 27.8674 19.9474 27.7402 19.8537 27.6464L19.5001 28ZM18.5001 27L18.8537 26.6464C18.7599 26.5527 18.6327 26.5 18.5001 26.5V27ZM8.00012 29.5H8.50012C8.50012 29.2239 8.27626 29 8.00012 29V29.5ZM8.00012 31V31.5C8.27626 31.5 8.50012 31.2761 8.50012 31H8.00012ZM18.0001 31H17.5001C17.5001 31.2761 17.724 31.5 18.0001 31.5V31ZM18.0001 29.5V29C17.724 29 17.5001 29.2239 17.5001 29.5H18.0001ZM10.0001 29.5V29C9.72398 29 9.50012 29.2239 9.50012 29.5H10.0001ZM10.0001 31H9.50012C9.50012 31.2761 9.72398 31.5 10.0001 31.5V31ZM11.5001 31V31.5C11.7763 31.5 12.0001 31.2761 12.0001 31H11.5001ZM11.5001 29.5H12.0001C12.0001 29.2239 11.7763 29 11.5001 29V29.5ZM16.0001 29.5H16.5001C16.5001 29.2239 16.2763 29 16.0001 29V29.5ZM16.0001 31V31.5C16.2763 31.5 16.5001 31.2761 16.5001 31H16.0001ZM14.5001 31H14.0001C14.0001 31.2761 14.224 31.5 14.5001 31.5V31ZM14.5001 29.5V29C14.224 29 14.0001 29.2239 14.0001 29.5H14.5001ZM13.0001 3L13.3537 2.64645L13.0001 2.29289L12.6466 2.64645L13.0001 3ZM9.64657 5.64645C9.45131 5.84171 9.45131 6.15829 9.64657 6.35355C9.84183 6.54882 10.1584 6.54882 10.3537 6.35355L9.64657 5.64645ZM15.6466 6.35355C15.8418 6.54882 16.1584 6.54882 16.3537 6.35355C16.5489 6.15829 16.5489 5.84171 16.3537 5.64645L15.6466 6.35355ZM7.85368 25.1464L6.35368 23.6464L5.64657 24.3536L7.14657 25.8536L7.85368 25.1464ZM6.50012 24V15H5.50012V24H6.50012ZM6.00012 14.5H1.00012V15.5H6.00012V14.5ZM1.50012 15V13H0.500122V15H1.50012ZM1.35368 13.3536L13.3537 1.35355L12.6466 0.646447L0.646569 12.6464L1.35368 13.3536ZM18.8537 25.8536L20.3537 24.3536L19.6466 23.6464L18.1466 25.1464L18.8537 25.8536ZM20.5001 24V15H19.5001V24H20.5001ZM20.0001 15.5H25.0001V14.5H20.0001V15.5ZM25.5001 15V13H24.5001V15H25.5001ZM25.3537 12.6464L13.3537 0.646447L12.6466 1.35355L24.6466 13.3536L25.3537 12.6464ZM18.5001 25H7.50012V26H18.5001V25ZM8.00012 24.5H18.0001V23.5H8.00012V24.5ZM7.14657 26.6464L6.14657 27.6464L6.85368 28.3536L7.85368 27.3536L7.14657 26.6464ZM6.50012 33.5H19.5001V32.5H6.50012V33.5ZM19.8537 27.6464L18.8537 26.6464L18.1466 27.3536L19.1466 28.3536L19.8537 27.6464ZM6.00012 28V29.5H7.00012V28H6.00012ZM6.50012 30H8.00012V29H6.50012V30ZM7.50012 29.5V31H8.50012V29.5H7.50012ZM6.00012 29.5V31H7.00012V29.5H6.00012ZM6.00012 31V33H7.00012V31H6.00012ZM8.00012 30.5H6.50012V31.5H8.00012V30.5ZM20.0001 33V31H19.0001V33H20.0001ZM19.5001 30.5H18.0001V31.5H19.5001V30.5ZM18.5001 31V29.5H17.5001V31H18.5001ZM20.0001 31V29.5H19.0001V31H20.0001ZM20.0001 29.5V28H19.0001V29.5H20.0001ZM18.0001 30H19.5001V29H18.0001V30ZM9.50012 29.5V31H10.5001V29.5H9.50012ZM10.0001 31.5H11.5001V30.5H10.0001V31.5ZM12.0001 31V29.5H11.0001V31H12.0001ZM11.5001 29H10.0001V30H11.5001V29ZM15.5001 29.5V31H16.5001V29.5H15.5001ZM16.0001 30.5H14.5001V31.5H16.0001V30.5ZM15.0001 31V29.5H14.0001V31H15.0001ZM14.5001 30H16.0001V29H14.5001V30ZM12.6466 2.64645L9.64657 5.64645L10.3537 6.35355L13.3537 3.35355L12.6466 2.64645ZM12.6466 3.35355L15.6466 6.35355L16.3537 5.64645L13.3537 2.64645L12.6466 3.35355ZM18.5001 26.5H7.50012V27.5H18.5001V26.5Z" fill="black" fill-opacity="0.2"/>
</svg>
