<svg width="40" height="40" viewBox="0 0 40 40" fill="none" xmlns="http://www.w3.org/2000/svg">
<path d="M14.0776 26.0655C14.2978 26.232 14.6114 26.1885 14.7779 25.9682C14.9445 25.7479 14.9009 25.4343 14.6807 25.2678L14.0776 26.0655ZM25.32 25.2678C25.0997 25.4343 25.0561 25.7479 25.2227 25.9682C25.3892 26.1885 25.7028 26.232 25.9231 26.0655L25.32 25.2678ZM18.8761 37H18.3761C18.3761 37.2761 18.5999 37.5 18.8761 37.5V37ZM21.1245 37V37.5C21.4007 37.5 21.6245 37.2761 21.6245 37H21.1245ZM22.8109 36.9333C23.087 36.9333 23.3109 36.7094 23.3109 36.4333C23.3109 36.1572 23.087 35.9333 22.8109 35.9333V36.9333ZM17.1897 35.9333C16.9136 35.9333 16.6897 36.1572 16.6897 36.4333C16.6897 36.7094 16.9136 36.9333 17.1897 36.9333V35.9333ZM23.373 35.8666V36.3666C23.6492 36.3666 23.873 36.1428 23.873 35.8666H23.373ZM25.0594 35.2333C25.3355 35.2333 25.5594 35.0094 25.5594 34.7333C25.5594 34.4572 25.3355 34.2333 25.0594 34.2333V35.2333ZM16.0655 35.3666C15.7893 35.3666 15.5655 35.5905 15.5655 35.8666C15.5655 36.1428 15.7893 36.3666 16.0655 36.3666V35.3666ZM14.9412 34.2333C14.6651 34.2333 14.4412 34.4572 14.4412 34.7333C14.4412 35.0094 14.6651 35.2333 14.9412 35.2333V34.2333ZM26.1215 26.2333C26.1215 25.9572 25.8976 25.7333 25.6215 25.7333C25.3454 25.7333 25.1215 25.9572 25.1215 26.2333H26.1215ZM15.4412 26.2333C15.4412 25.9572 15.2174 25.7333 14.9412 25.7333C14.6651 25.7333 14.4412 25.9572 14.4412 26.2333H15.4412ZM14.3791 33.6H13.8791C13.8791 33.8761 14.103 34.1 14.3791 34.1V33.6ZM25.6215 33.6V34.1C25.8976 34.1 26.1215 33.8761 26.1215 33.6H25.6215ZM18.8761 29.7C18.5999 29.7 18.3761 29.9238 18.3761 30.2C18.3761 30.4761 18.5999 30.7 18.8761 30.7V29.7ZM17.1897 30.7C17.4658 30.7 17.6897 30.4761 17.6897 30.2C17.6897 29.9238 17.4658 29.7 17.1897 29.7V30.7ZM14.8791 26.2333C14.8791 25.9572 14.6552 25.7333 14.3791 25.7333C14.103 25.7333 13.8791 25.9572 13.8791 26.2333H14.8791ZM24.5594 27.9333C24.5594 28.2094 24.7832 28.4333 25.0594 28.4333C25.3355 28.4333 25.5594 28.2094 25.5594 27.9333H24.5594ZM25.5594 26.2333C25.5594 25.9572 25.3355 25.7333 25.0594 25.7333C24.7832 25.7333 24.5594 25.9572 24.5594 26.2333H25.5594ZM14.6807 25.2678C11.4686 22.8393 9.41091 17.6388 9.88763 13.039C10.1243 10.7559 10.9817 8.66393 12.5884 7.14391C14.1905 5.62825 16.5881 4.6333 20.0003 4.6333V3.6333C16.386 3.6333 13.7245 4.69251 11.9012 6.41748C10.0825 8.13809 9.14819 10.4732 8.89296 12.9359C8.38598 17.8278 10.5442 23.394 14.0776 26.0655L14.6807 25.2678ZM25.9231 26.0655C29.4564 23.394 31.6146 17.8278 31.1077 12.9359C30.8524 10.4732 29.9182 8.13809 28.0994 6.41748C26.2761 4.69251 23.6146 3.6333 20.0003 3.6333V4.6333C23.4125 4.6333 25.8101 5.62825 27.4122 7.14391C29.0189 8.66393 29.8764 10.7559 30.113 13.039C30.5897 17.6388 28.532 22.8393 25.32 25.2678L25.9231 26.0655ZM18.8761 37.5H21.1245V36.5H18.8761V37.5ZM21.6245 37V36.4333H20.6245V37H21.6245ZM21.1245 35.9333H18.8761V36.9333H21.1245V35.9333ZM18.3761 36.4333V37H19.3761V36.4333H18.3761ZM16.6276 35.3666H16.0655V36.3666H16.6276V35.3666ZM16.6276 35.2333H23.373V34.2333H16.6276V35.2333ZM17.1276 35.8666V34.7333H16.1276V35.8666H17.1276ZM26.1215 28.5V26.2333H25.1215V28.5H26.1215ZM25.6215 28H14.9412V29H25.6215V28ZM15.4412 28.5V26.2333H14.4412V28.5H15.4412ZM14.3791 34.1H14.9412V33.1H14.3791V34.1ZM14.9412 34.1H25.6215V33.1H14.9412V34.1ZM14.4412 31.9V33.6H15.4412V31.9H14.4412ZM26.1215 33.6V31.9H25.1215V33.6H26.1215ZM14.9412 32.4H25.6215V31.4H14.9412V32.4ZM26.1215 31.9V30.2H25.1215V31.9H26.1215ZM26.1215 30.2V28.5H25.1215V30.2H26.1215ZM25.6215 29.7H18.8761V30.7H25.6215V29.7ZM14.4412 28.5V30.2H15.4412V28.5H14.4412ZM14.4412 30.2V31.9H15.4412V30.2H14.4412ZM14.9412 30.7H17.1897V29.7H14.9412V30.7ZM13.8791 26.2333V33.6H14.8791V26.2333H13.8791ZM21.1245 36.9333H22.8109V35.9333H21.1245V36.9333ZM18.8761 35.9333H17.1897V36.9333H18.8761V35.9333ZM23.373 35.3666H16.6276V36.3666H23.373V35.3666ZM23.873 35.8666V34.7333H22.873V35.8666H23.873ZM23.373 35.2333H25.0594V34.2333H23.373V35.2333ZM16.6276 34.2333H14.9412V35.2333H16.6276V34.2333ZM24.5594 26.2333V27.9333H25.5594V26.2333H24.5594Z" fill="#FF0303"/>
<path d="M14.0776 26.0655C14.2978 26.232 14.6114 26.1885 14.7779 25.9682C14.9445 25.7479 14.9009 25.4343 14.6807 25.2678L14.0776 26.0655ZM25.32 25.2678C25.0997 25.4343 25.0561 25.7479 25.2227 25.9682C25.3892 26.1885 25.7028 26.232 25.9231 26.0655L25.32 25.2678ZM18.8761 37H18.3761C18.3761 37.2761 18.5999 37.5 18.8761 37.5V37ZM21.1245 37V37.5C21.4007 37.5 21.6245 37.2761 21.6245 37H21.1245ZM22.8109 36.9333C23.087 36.9333 23.3109 36.7094 23.3109 36.4333C23.3109 36.1572 23.087 35.9333 22.8109 35.9333V36.9333ZM17.1897 35.9333C16.9136 35.9333 16.6897 36.1572 16.6897 36.4333C16.6897 36.7094 16.9136 36.9333 17.1897 36.9333V35.9333ZM23.373 35.8666V36.3666C23.6492 36.3666 23.873 36.1428 23.873 35.8666H23.373ZM25.0594 35.2333C25.3355 35.2333 25.5594 35.0094 25.5594 34.7333C25.5594 34.4572 25.3355 34.2333 25.0594 34.2333V35.2333ZM16.0655 35.3666C15.7893 35.3666 15.5655 35.5905 15.5655 35.8666C15.5655 36.1428 15.7893 36.3666 16.0655 36.3666V35.3666ZM14.9412 34.2333C14.6651 34.2333 14.4412 34.4572 14.4412 34.7333C14.4412 35.0094 14.6651 35.2333 14.9412 35.2333V34.2333ZM26.1215 26.2333C26.1215 25.9572 25.8976 25.7333 25.6215 25.7333C25.3454 25.7333 25.1215 25.9572 25.1215 26.2333H26.1215ZM15.4412 26.2333C15.4412 25.9572 15.2174 25.7333 14.9412 25.7333C14.6651 25.7333 14.4412 25.9572 14.4412 26.2333H15.4412ZM14.3791 33.6H13.8791C13.8791 33.8761 14.103 34.1 14.3791 34.1V33.6ZM25.6215 33.6V34.1C25.8976 34.1 26.1215 33.8761 26.1215 33.6H25.6215ZM18.8761 29.7C18.5999 29.7 18.3761 29.9238 18.3761 30.2C18.3761 30.4761 18.5999 30.7 18.8761 30.7V29.7ZM17.1897 30.7C17.4658 30.7 17.6897 30.4761 17.6897 30.2C17.6897 29.9238 17.4658 29.7 17.1897 29.7V30.7ZM14.8791 26.2333C14.8791 25.9572 14.6552 25.7333 14.3791 25.7333C14.103 25.7333 13.8791 25.9572 13.8791 26.2333H14.8791ZM24.5594 27.9333C24.5594 28.2094 24.7832 28.4333 25.0594 28.4333C25.3355 28.4333 25.5594 28.2094 25.5594 27.9333H24.5594ZM25.5594 26.2333C25.5594 25.9572 25.3355 25.7333 25.0594 25.7333C24.7832 25.7333 24.5594 25.9572 24.5594 26.2333H25.5594ZM14.6807 25.2678C11.4686 22.8393 9.41091 17.6388 9.88763 13.039C10.1243 10.7559 10.9817 8.66393 12.5884 7.14391C14.1905 5.62825 16.5881 4.6333 20.0003 4.6333V3.6333C16.386 3.6333 13.7245 4.69251 11.9012 6.41748C10.0825 8.13809 9.14819 10.4732 8.89296 12.9359C8.38598 17.8278 10.5442 23.394 14.0776 26.0655L14.6807 25.2678ZM25.9231 26.0655C29.4564 23.394 31.6146 17.8278 31.1077 12.9359C30.8524 10.4732 29.9182 8.13809 28.0994 6.41748C26.2761 4.69251 23.6146 3.6333 20.0003 3.6333V4.6333C23.4125 4.6333 25.8101 5.62825 27.4122 7.14391C29.0189 8.66393 29.8764 10.7559 30.113 13.039C30.5897 17.6388 28.532 22.8393 25.32 25.2678L25.9231 26.0655ZM18.8761 37.5H21.1245V36.5H18.8761V37.5ZM21.6245 37V36.4333H20.6245V37H21.6245ZM21.1245 35.9333H18.8761V36.9333H21.1245V35.9333ZM18.3761 36.4333V37H19.3761V36.4333H18.3761ZM16.6276 35.3666H16.0655V36.3666H16.6276V35.3666ZM16.6276 35.2333H23.373V34.2333H16.6276V35.2333ZM17.1276 35.8666V34.7333H16.1276V35.8666H17.1276ZM26.1215 28.5V26.2333H25.1215V28.5H26.1215ZM25.6215 28H14.9412V29H25.6215V28ZM15.4412 28.5V26.2333H14.4412V28.5H15.4412ZM14.3791 34.1H14.9412V33.1H14.3791V34.1ZM14.9412 34.1H25.6215V33.1H14.9412V34.1ZM14.4412 31.9V33.6H15.4412V31.9H14.4412ZM26.1215 33.6V31.9H25.1215V33.6H26.1215ZM14.9412 32.4H25.6215V31.4H14.9412V32.4ZM26.1215 31.9V30.2H25.1215V31.9H26.1215ZM26.1215 30.2V28.5H25.1215V30.2H26.1215ZM25.6215 29.7H18.8761V30.7H25.6215V29.7ZM14.4412 28.5V30.2H15.4412V28.5H14.4412ZM14.4412 30.2V31.9H15.4412V30.2H14.4412ZM14.9412 30.7H17.1897V29.7H14.9412V30.7ZM13.8791 26.2333V33.6H14.8791V26.2333H13.8791ZM21.1245 36.9333H22.8109V35.9333H21.1245V36.9333ZM18.8761 35.9333H17.1897V36.9333H18.8761V35.9333ZM23.373 35.3666H16.6276V36.3666H23.373V35.3666ZM23.873 35.8666V34.7333H22.873V35.8666H23.873ZM23.373 35.2333H25.0594V34.2333H23.373V35.2333ZM16.6276 34.2333H14.9412V35.2333H16.6276V34.2333ZM24.5594 26.2333V27.9333H25.5594V26.2333H24.5594Z" fill="black" fill-opacity="0.2"/>
<path d="M18.3135 27.9335V18.3002L16.065 16.0335L15.5029 14.3335H18.3135L19.9999 15.4668L21.6863 14.3335H24.4969L23.9347 16.0335L21.6863 18.3002V27.9335" stroke="#FF0303" stroke-linecap="round" stroke-linejoin="round"/>
<path d="M18.3135 27.9335V18.3002L16.065 16.0335L15.5029 14.3335H18.3135L19.9999 15.4668L21.6863 14.3335H24.4969L23.9347 16.0335L21.6863 18.3002V27.9335" stroke="black" stroke-opacity="0.2" stroke-linecap="round" stroke-linejoin="round"/>
<path d="M32.9288 3L29.556 6.4M36.9187 9.74438L32.3115 10.9889M37 15.5223H32.2303M35.6523 22.2868L31.3294 20.2548M31.8045 28.4121L28.4318 25.0121M7.07123 3L10.444 6.4M3.0813 9.74438L7.68852 10.9889M3 15.5223H7.76975M4.34771 22.287L8.67057 20.2549M8.19548 28.4124L11.5682 25.0124" stroke="#FF0303" stroke-linecap="round" stroke-dasharray="1 2"/>
<path d="M32.9288 3L29.556 6.4M36.9187 9.74438L32.3115 10.9889M37 15.5223H32.2303M35.6523 22.2868L31.3294 20.2548M31.8045 28.4121L28.4318 25.0121M7.07123 3L10.444 6.4M3.0813 9.74438L7.68852 10.9889M3 15.5223H7.76975M4.34771 22.287L8.67057 20.2549M8.19548 28.4124L11.5682 25.0124" stroke="black" stroke-opacity="0.2" stroke-linecap="round" stroke-dasharray="1 2"/>
<path d="M7.07151 8.09987C7.07151 7.78942 7.32318 7.5332 7.63363 7.5332C7.94408 7.5332 8.19575 7.78942 8.19575 8.09987C8.19575 8.41032 7.94408 8.66654 7.63363 8.66654C7.32318 8.66654 7.07151 8.41032 7.07151 8.09987Z" fill="#FF0303"/>
<path d="M7.07151 8.09987C7.07151 7.78942 7.32318 7.5332 7.63363 7.5332C7.94408 7.5332 8.19575 7.78942 8.19575 8.09987C8.19575 8.41032 7.94408 8.66654 7.63363 8.66654C7.32318 8.66654 7.07151 8.41032 7.07151 8.09987Z" fill="black" fill-opacity="0.2"/>
<path d="M5.94727 13.7665C5.94727 13.4561 6.19894 13.1999 6.50939 13.1999C6.81984 13.1999 7.07151 13.4561 7.07151 13.7665C7.07151 14.077 6.81984 14.3332 6.50939 14.3332C6.19894 14.3332 5.94727 14.077 5.94727 13.7665Z" fill="#FF0303"/>
<path d="M5.94727 13.7665C5.94727 13.4561 6.19894 13.1999 6.50939 13.1999C6.81984 13.1999 7.07151 13.4561 7.07151 13.7665C7.07151 14.077 6.81984 14.3332 6.50939 14.3332C6.19894 14.3332 5.94727 14.077 5.94727 13.7665Z" fill="black" fill-opacity="0.2"/>
<path d="M5.94727 18.2999C5.94727 17.9894 6.19894 17.7332 6.50939 17.7332C6.81984 17.7332 7.07151 17.9894 7.07151 18.2999C7.07151 18.6103 6.81984 18.8665 6.50939 18.8665C6.19894 18.8665 5.94727 18.6103 5.94727 18.2999Z" fill="#FF0303"/>
<path d="M5.94727 18.2999C5.94727 17.9894 6.19894 17.7332 6.50939 17.7332C6.81984 17.7332 7.07151 17.9894 7.07151 18.2999C7.07151 18.6103 6.81984 18.8665 6.50939 18.8665C6.19894 18.8665 5.94727 18.6103 5.94727 18.2999Z" fill="black" fill-opacity="0.2"/>
<path d="M8.19575 23.9665C8.19575 23.6561 8.44742 23.3999 8.75787 23.3999C9.06832 23.3999 9.31999 23.6561 9.31999 23.9665C9.31999 24.277 9.06832 24.5332 8.75787 24.5332C8.44742 24.5332 8.19575 24.277 8.19575 23.9665Z" fill="#FF0303"/>
<path d="M8.19575 23.9665C8.19575 23.6561 8.44742 23.3999 8.75787 23.3999C9.06832 23.3999 9.31999 23.6561 9.31999 23.9665C9.31999 24.277 9.06832 24.5332 8.75787 24.5332C8.44742 24.5332 8.19575 24.277 8.19575 23.9665Z" fill="black" fill-opacity="0.2"/>
<path d="M31.8048 8.09987C31.8048 7.78942 32.0565 7.5332 32.3669 7.5332C32.6774 7.5332 32.929 7.78942 32.929 8.09987C32.929 8.41032 32.6774 8.66654 32.3669 8.66654C32.0565 8.66654 31.8048 8.41032 31.8048 8.09987Z" fill="#FF0303"/>
<path d="M31.8048 8.09987C31.8048 7.78942 32.0565 7.5332 32.3669 7.5332C32.6774 7.5332 32.929 7.78942 32.929 8.09987C32.929 8.41032 32.6774 8.66654 32.3669 8.66654C32.0565 8.66654 31.8048 8.41032 31.8048 8.09987Z" fill="black" fill-opacity="0.2"/>
<path d="M32.929 13.7665C32.929 13.4561 33.1807 13.1999 33.4912 13.1999C33.8016 13.1999 34.0533 13.4561 34.0533 13.7665C34.0533 14.077 33.8016 14.3332 33.4912 14.3332C33.1807 14.3332 32.929 14.077 32.929 13.7665Z" fill="#FF0303"/>
<path d="M32.929 13.7665C32.929 13.4561 33.1807 13.1999 33.4912 13.1999C33.8016 13.1999 34.0533 13.4561 34.0533 13.7665C34.0533 14.077 33.8016 14.3332 33.4912 14.3332C33.1807 14.3332 32.929 14.077 32.929 13.7665Z" fill="black" fill-opacity="0.2"/>
<path d="M32.929 18.2999C32.929 17.9894 33.1807 17.7332 33.4912 17.7332C33.8016 17.7332 34.0533 17.9894 34.0533 18.2999C34.0533 18.6103 33.8016 18.8665 33.4912 18.8665C33.1807 18.8665 32.929 18.6103 32.929 18.2999Z" fill="#FF0303"/>
<path d="M32.929 18.2999C32.929 17.9894 33.1807 17.7332 33.4912 17.7332C33.8016 17.7332 34.0533 17.9894 34.0533 18.2999C34.0533 18.6103 33.8016 18.8665 33.4912 18.8665C33.1807 18.8665 32.929 18.6103 32.929 18.2999Z" fill="black" fill-opacity="0.2"/>
<path d="M30.6806 23.9665C30.6806 23.6561 30.9322 23.3999 31.2427 23.3999C31.5531 23.3999 31.8048 23.6561 31.8048 23.9665C31.8048 24.277 31.5531 24.5332 31.2427 24.5332C30.9322 24.5332 30.6806 24.277 30.6806 23.9665Z" fill="#FF0303"/>
<path d="M30.6806 23.9665C30.6806 23.6561 30.9322 23.3999 31.2427 23.3999C31.5531 23.3999 31.8048 23.6561 31.8048 23.9665C31.8048 24.277 31.5531 24.5332 31.2427 24.5332C30.9322 24.5332 30.6806 24.277 30.6806 23.9665Z" fill="black" fill-opacity="0.2"/>
</svg>
