<svg width="37" height="45" viewBox="0 0 37 45" fill="none" xmlns="http://www.w3.org/2000/svg">
<path d="M9.3335 13.8101L8.9795 13.457C8.886 13.5508 8.8335 13.6777 8.8335 13.8101H9.3335ZM9.53505 12.9001L8.9795 13.457L9.6875 14.1632L10.2431 13.6063L9.53505 12.9001ZM8.8335 13.8101V19.9367H9.8335V13.8101H8.8335ZM11.0557 14.9241V18.2658H12.0557V14.9241H11.0557Z" fill="#146EB4"/>
<path d="M25.4446 15.1467V18.2658" stroke="#146EB4" stroke-linecap="round"/>
<path d="M36.0002 1L26.5557 12.6962H23.2224L18.2224 6.56962L22.6669 1H36.0002Z" stroke="#146EB4" stroke-linejoin="round"/>
<path d="M23.2224 12.6962H27.1113L28.2224 13.8101V21.0506" stroke="#146EB4" stroke-linejoin="round"/>
<path d="M32.1668 30.519C32.1668 38.2417 25.9225 44.5 18.2224 44.5C10.5223 44.5 4.27795 38.2417 4.27795 30.519C4.27795 22.7963 10.5223 16.538 18.2224 16.538C25.9225 16.538 32.1668 22.7963 32.1668 30.519Z" stroke="#146EB4"/>
<path d="M27.8885 26.1978C27.722 25.8506 27.2999 25.7139 26.9656 25.9038C26.663 26.0758 26.546 26.4534 26.697 26.7676C27.3069 28.0367 27.627 29.4395 27.627 30.8601C27.627 36.1825 23.2052 40.4889 17.851 40.281C12.9701 40.0915 9.01459 36.1259 8.82552 31.2327C8.61814 25.8651 12.9137 21.432 18.2227 21.432C20.8165 21.432 23.2684 22.4944 25.0418 24.3672C25.2819 24.6209 25.676 24.6464 25.9442 24.4227C26.2365 24.1787 26.2645 23.7366 26.0029 23.46C23.9804 21.3218 21.1826 20.1086 18.2227 20.1086C12.1685 20.1086 7.26997 25.1641 7.50651 31.2853C7.72214 36.8654 12.233 41.3876 17.799 41.6036C23.9047 41.8406 28.9471 36.9297 28.9471 30.8603C28.9472 29.2425 28.5829 27.6447 27.8885 26.1978Z" fill="#146EB4"/>
<path d="M20.0746 27.4612C20.0746 28.1617 19.9024 28.7506 19.5581 29.2278C19.2138 29.6999 18.7277 30.0273 18.0998 30.2101V30.271C18.7986 30.3827 19.3379 30.6568 19.7176 31.0934C20.1025 31.53 20.2949 32.1239 20.2949 32.8752C20.2949 33.9007 19.9759 34.718 19.3379 35.3272C18.7049 35.9363 17.8365 36.2409 16.7326 36.2409C15.7502 36.2409 14.9249 36.0658 14.2565 35.7155V33.8575C14.5907 34.0606 14.9527 34.2205 15.3426 34.3373C15.7325 34.454 16.1072 34.5124 16.4668 34.5124C17.0541 34.5124 17.4972 34.3779 17.796 34.1088C18.0947 33.8347 18.2441 33.4032 18.2441 32.8143C18.2441 31.7026 17.563 31.1467 16.2009 31.1467H15.5705V29.6009H16.1705C16.7731 29.6009 17.2339 29.4588 17.5529 29.1745C17.877 28.8902 18.039 28.4663 18.039 27.9028C18.039 27.4612 17.9352 27.1287 17.7276 26.9053C17.5251 26.6769 17.2364 26.5626 16.8617 26.5626C16.2895 26.5626 15.7325 26.8063 15.1907 27.2936L14.2565 25.923C15.0059 25.1717 15.9503 24.796 17.0896 24.796C18.0264 24.796 18.7581 25.0346 19.2847 25.5118C19.8113 25.9839 20.0746 26.6337 20.0746 27.4612Z" fill="#146EB4"/>
<path d="M1.00012 1V0.5C0.810272 0.5 0.6368 0.607521 0.552334 0.777546C0.467868 0.947571 0.486982 1.15077 0.601673 1.30206L1.00012 1ZM13.7779 1L14.1687 0.688134C14.0738 0.569241 13.93 0.5 13.7779 0.5V1ZM24.889 14.9241V15.4241C25.0811 15.4241 25.2562 15.314 25.3395 15.1409C25.4228 14.9678 25.3996 14.7623 25.2798 14.6122L24.889 14.9241ZM11.5557 14.9241L11.1572 15.2261C11.2518 15.3508 11.3992 15.4241 11.5557 15.4241V14.9241ZM4.17295 0.693513C4.00368 0.475332 3.68959 0.43568 3.47141 0.604948C3.25323 0.774216 3.21358 1.08831 3.38285 1.30649L4.17295 0.693513ZM7.27174 6.31914C7.44101 6.53733 7.75509 6.57698 7.97328 6.40771C8.19146 6.23844 8.23111 5.92435 8.06184 5.70617L7.27174 6.31914ZM17.5021 9.04256C17.3298 8.82672 17.0152 8.79137 16.7994 8.96361C16.5835 9.13585 16.5482 9.45045 16.7204 9.6663L17.5021 9.04256ZM21.1649 15.2359C21.3371 15.4518 21.6517 15.4871 21.8675 15.3149C22.0834 15.1426 22.1187 14.828 21.9465 14.6122L21.1649 15.2359ZM1.00012 1.5H13.7779V0.5H1.00012V1.5ZM24.889 14.4241H11.5557V15.4241H24.889V14.4241ZM11.9541 14.622L1.39857 0.697943L0.601673 1.30206L11.1572 15.2261L11.9541 14.622ZM3.38285 1.30649L7.27174 6.31914L8.06184 5.70617L4.17295 0.693513L3.38285 1.30649ZM16.7204 9.6663L21.1649 15.2359L21.9465 14.6122L17.5021 9.04256L16.7204 9.6663ZM13.3871 1.31187L24.4982 15.2359L25.2798 14.6122L14.1687 0.688134L13.3871 1.31187Z" fill="#146EB4"/>
</svg>
