<svg width="50" height="50" viewBox="0 0 50 50" fill="none" xmlns="http://www.w3.org/2000/svg">
<g clip-path="url(#clip0)">
<path d="M15.8766 33.001C15.9569 32.7138 15.8777 32.4056 15.669 32.1926C15.0187 31.5312 14.459 30.7863 14.0048 29.9775C13.7794 29.5761 13.2713 29.4334 12.8699 29.6588C12.4686 29.8842 12.3259 30.3923 12.5513 30.7937C12.8344 31.297 13.1529 31.7796 13.5043 32.2378C13.0248 32.305 12.5416 32.3431 12.0574 32.3518C11.7597 32.3544 11.486 32.5156 11.3394 32.7748C11.1927 33.0339 11.1955 33.3516 11.3466 33.6081C11.4978 33.8646 11.7743 34.0211 12.072 34.0185H12.0866C13.1646 33.9978 14.2365 33.852 15.2808 33.5839C15.5693 33.51 15.7964 33.2878 15.8766 33.001Z" fill="#146EB4"/>
<path d="M11.3991 30.0583C11.0719 29.178 10.8387 28.2655 10.7033 27.3361C10.6667 27.036 10.4704 26.7793 10.1904 26.6653C9.91041 26.5513 9.59063 26.5979 9.35478 26.787C9.11893 26.9761 9.004 27.2781 9.05447 27.5762C9.13597 28.1372 9.24929 28.6932 9.39389 29.2413C9.00445 29.1314 8.62161 28.9993 8.24722 28.8457C7.97063 28.7273 7.65166 28.7671 7.41271 28.95C7.17376 29.1329 7.05195 29.4303 7.09402 29.7283C7.13608 30.0262 7.33549 30.2783 7.61572 30.3879C8.54164 30.7693 9.5116 31.0336 10.5031 31.1745C10.5414 31.1799 10.58 31.1826 10.6186 31.1828C10.8916 31.1826 11.1471 31.0489 11.3027 30.8247C11.4583 30.6005 11.4943 30.3143 11.3991 30.0586V30.0583Z" fill="#146EB4"/>
<path d="M7.53422 27.2483C7.75945 27.2484 7.97513 27.1573 8.13212 26.9958C8.28911 26.8343 8.37404 26.6161 8.36755 26.3909C8.33888 25.4377 8.39636 24.4838 8.5393 23.5409C8.59956 23.0909 8.28836 22.6754 7.83948 22.6066C7.39061 22.5379 6.96934 22.8412 6.89214 23.2887C6.81405 23.7989 6.7588 24.3174 6.72697 24.8402C6.43564 24.6079 6.1508 24.3584 5.87247 24.0919C5.53864 23.7836 5.01935 23.7995 4.70512 24.1278C4.39088 24.4561 4.39756 24.9755 4.72014 25.2956C5.44439 25.9948 6.24504 26.6102 7.10697 27.1303C7.23607 27.2076 7.38374 27.2484 7.53422 27.2483Z" fill="#146EB4"/>
<path d="M5.8204 22.3557C6.2008 22.3551 6.53273 22.0975 6.62765 21.7291C6.85574 20.8283 7.16323 19.9495 7.54648 19.1029C7.67977 18.8308 7.6548 18.5077 7.4813 18.2593C7.30779 18.0108 7.01309 17.8762 6.71169 17.9076C6.41028 17.939 6.14969 18.1316 6.03115 18.4104C5.84482 18.8177 5.67282 19.2405 5.51598 19.6754C5.30115 19.3385 5.09609 18.9885 4.90081 18.6254C4.76439 18.3553 4.49221 18.1803 4.18978 18.1684C3.88736 18.1565 3.60225 18.3094 3.44497 18.568C3.28769 18.8266 3.28297 19.1501 3.43265 19.4132C3.92808 20.3447 4.51096 21.2269 5.1734 22.0481C5.33191 22.2426 5.56948 22.3556 5.8204 22.3557Z" fill="#146EB4"/>
<path d="M3.7297 13.3727C3.96418 14.4525 4.29091 15.5101 4.70628 16.5339C4.82599 16.8276 5.10202 17.0279 5.41836 17.0506C5.4387 17.0518 5.4582 17.0526 5.4777 17.0526C5.77363 17.0526 6.04737 16.8957 6.19711 16.6405C6.63309 15.8882 7.14319 15.1814 7.71978 14.5306C8.02653 14.1873 7.99683 13.6602 7.65345 13.3535C7.31006 13.0467 6.78303 13.0764 6.47628 13.4198C6.21095 13.7176 5.95434 14.0325 5.70645 14.3642C5.57461 13.924 5.4582 13.4736 5.35728 13.0158C5.29853 12.7199 5.08441 12.4788 4.79747 12.3855C4.51053 12.2923 4.19559 12.3614 3.97408 12.5663C3.75258 12.7711 3.6591 13.0797 3.7297 13.3731V13.3727Z" fill="#146EB4"/>
<path d="M6.47622 6.9883C6.01755 6.96172 5.62323 7.30995 5.59289 7.76839C5.52277 8.89473 5.5511 10.0251 5.67755 11.1465C5.71269 11.4546 5.91607 11.7178 6.20543 11.8295C6.49478 11.9412 6.82222 11.8829 7.05531 11.6783C7.65819 11.1431 8.32175 10.6804 9.03239 10.2998C9.29798 10.1619 9.4692 9.89211 9.48098 9.59307C9.49277 9.29404 9.34329 9.01165 9.08939 8.85324C8.83548 8.69484 8.51613 8.68474 8.25272 8.8268C7.9006 9.0137 7.55859 9.21907 7.22814 9.44205C7.21514 8.91997 7.22406 8.39505 7.25664 7.8718C7.27037 7.65114 7.19585 7.43407 7.04948 7.26836C6.90311 7.10266 6.69689 7.00192 6.47622 6.9883Z" fill="#146EB4"/>
<path d="M12.2543 5.94486C12.2384 5.72346 12.1336 5.51793 11.9637 5.37507C11.7939 5.23221 11.5734 5.1642 11.3525 5.18652C10.9108 5.22491 10.4719 5.2907 10.0383 5.38352C10.1896 4.85184 10.3716 4.32938 10.5834 3.81877C10.6975 3.54372 10.6562 3.22868 10.4751 2.99233C10.2939 2.75598 10.0005 2.63422 9.70519 2.67291C9.40993 2.71161 9.15775 2.90489 9.04363 3.17994C8.61228 4.22301 8.29109 5.30829 8.0853 6.41811C8.03064 6.71133 8.13686 7.01141 8.36383 7.20494C8.5908 7.39847 8.9039 7.45593 9.1848 7.35561C9.93024 7.08775 10.707 6.91666 11.496 6.84652C11.9543 6.80681 12.2937 6.40321 12.2543 5.94486Z" fill="#146EB4"/>
<path d="M15.1963 4.62483C15.4809 4.71233 15.7906 4.64133 16.0087 4.43858C16.2268 4.23583 16.3202 3.93212 16.2536 3.64187C16.1871 3.35162 15.9708 3.11891 15.6861 3.03141C15.1844 2.8772 14.6738 2.75367 14.157 2.66149C14.5012 2.22766 14.8763 1.81924 15.2793 1.43941C15.6141 1.12344 15.6294 0.595859 15.3134 0.261036C14.9974 -0.0737864 14.4699 -0.0890647 14.135 0.226911C13.3001 1.01461 12.5711 1.90751 11.9663 2.88316C11.812 3.13243 11.8001 3.44443 11.9348 3.70478C12.0696 3.96513 12.3312 4.13552 12.6238 4.15349C13.4969 4.20836 14.3604 4.36658 15.1963 4.62483Z" fill="#146EB4"/>
<path d="M37.9428 32.3517C37.4586 32.343 36.9754 32.305 36.4958 32.2377C36.8473 31.7795 37.1658 31.297 37.4488 30.7937C37.6742 30.3923 37.5316 29.8842 37.1302 29.6588C36.7288 29.4334 36.2207 29.576 35.9953 29.9774C35.5411 30.7862 34.9815 31.5311 34.3312 32.1926C34.1223 32.4053 34.043 32.7133 34.1231 33.0004C34.2032 33.2875 34.4306 33.51 34.7193 33.5838C35.7636 33.8519 36.8356 33.9978 37.9135 34.0184H37.9282C38.3884 34.0224 38.7648 33.6526 38.7688 33.1924C38.7728 32.7321 38.403 32.3558 37.9428 32.3517Z" fill="#146EB4"/>
<path d="M41.753 28.8454C41.3786 28.9989 40.9957 29.131 40.6063 29.2409C40.7509 28.6928 40.8642 28.1369 40.9457 27.5759C40.9962 27.2778 40.8813 26.9757 40.6454 26.7866C40.4096 26.5975 40.0898 26.5509 39.8098 26.6649C39.5298 26.779 39.3335 27.0357 39.2969 27.3358C39.1615 28.2651 38.9283 29.1776 38.6011 30.0579C38.5059 30.3137 38.5419 30.5999 38.6975 30.8241C38.8531 31.0483 39.1086 31.182 39.3816 31.1822C39.4202 31.182 39.4588 31.1793 39.4971 31.1739C40.4886 31.033 41.4586 30.7687 42.3845 30.3873C42.6647 30.2777 42.8641 30.0256 42.9062 29.7277C42.9482 29.4297 42.8264 29.1322 42.5875 28.9494C42.3485 28.7665 42.0296 28.7267 41.753 28.8451V28.8454Z" fill="#146EB4"/>
<path d="M44.1277 24.0919C43.8493 24.358 43.5645 24.6075 43.2732 24.8402C43.2414 24.3174 43.1861 23.7989 43.108 23.2887C43.0308 22.8412 42.6095 22.5379 42.1606 22.6066C41.7118 22.6754 41.4006 23.0909 41.4608 23.5409C41.6038 24.4838 41.6613 25.4377 41.6326 26.391C41.6238 26.6951 41.7815 26.9799 42.044 27.1338C42.3065 27.2878 42.632 27.2864 42.8932 27.1303C43.7551 26.6102 44.5557 25.9948 45.28 25.2956C45.6015 24.9754 45.6077 24.4567 45.2938 24.1289C44.98 23.8011 44.4616 23.7847 44.1277 24.0919V24.0919Z" fill="#146EB4"/>
<path d="M46.2274 18.2849C46.0327 18.1803 45.8043 18.1574 45.5928 18.2213C45.3812 18.2852 45.2037 18.4306 45.0994 18.6255C44.9041 18.9884 44.699 19.3384 44.4842 19.6755C44.3271 19.2406 44.1554 18.8178 43.969 18.4105C43.8505 18.1316 43.5899 17.9391 43.2885 17.9076C42.9871 17.8762 42.6924 18.0109 42.5189 18.2593C42.3454 18.5078 42.3204 18.8308 42.4537 19.103C42.837 19.9495 43.1444 20.8284 43.3725 21.7292C43.4505 22.0342 43.6938 22.2693 44.0014 22.3368C44.3089 22.4043 44.6283 22.2926 44.8268 22.0482C45.4892 21.227 46.0721 20.3446 46.5675 19.4131C46.7851 19.0076 46.6328 18.5026 46.2274 18.2849Z" fill="#146EB4"/>
<path d="M43.803 16.6401C43.9527 16.8954 44.2265 17.0522 44.5224 17.0523C44.5419 17.0523 44.5614 17.0515 44.5817 17.0502C44.8981 17.0275 45.1741 16.8273 45.2938 16.5336C45.7092 15.5097 46.0359 14.4521 46.2704 13.3724C46.341 13.0791 46.2475 12.7705 46.026 12.5656C45.8045 12.3607 45.4896 12.2916 45.2026 12.3849C44.9157 12.4781 44.7016 12.7192 44.6428 13.0151C44.5419 13.4729 44.4255 13.9235 44.2937 14.3636C44.0463 14.0324 43.7897 13.7176 43.5238 13.4191C43.2171 13.0758 42.69 13.0461 42.3467 13.3528C42.0033 13.6596 41.9736 14.1866 42.2803 14.53C42.8569 15.1809 43.367 15.8878 43.803 16.6401Z" fill="#146EB4"/>
<path d="M40.9676 10.3C41.6782 10.6807 42.3416 11.1433 42.9444 11.6786C43.1773 11.8837 43.505 11.9422 43.7945 11.8305C44.0841 11.7187 44.2874 11.4551 44.3221 11.1467C44.4486 10.0253 44.4769 8.89498 44.4068 7.76863C44.3904 7.46993 44.2152 7.20293 43.9476 7.06905C43.6801 6.93518 43.3613 6.95498 43.1124 7.12094C42.8635 7.28689 42.7227 7.57353 42.7434 7.87197C42.776 8.39522 42.7851 8.92013 42.7719 9.44222C42.4413 9.21922 42.0992 9.01385 41.7469 8.82697C41.3407 8.61601 40.8404 8.77213 40.6263 9.17666C40.4121 9.58119 40.5644 10.0827 40.9672 10.3H40.9676Z" fill="#146EB4"/>
<path d="M38.5043 6.84629C39.2933 6.91643 40.07 7.08752 40.8155 7.35538C41.0963 7.45525 41.4092 7.39761 41.636 7.2042C41.8628 7.01078 41.9692 6.711 41.915 6.41788C41.7092 5.30806 41.388 4.22278 40.9566 3.17971C40.8425 2.90463 40.5903 2.71133 40.295 2.67261C39.9998 2.6339 39.7062 2.75566 39.5251 2.99203C39.3439 3.2284 39.3026 3.54346 39.4167 3.81854C39.6285 4.3291 39.8105 4.8515 39.9618 5.38313C39.5282 5.29031 39.0893 5.22451 38.6476 5.18613C38.4266 5.16335 38.2059 5.2312 38.0359 5.37414C37.866 5.51709 37.7613 5.7229 37.7458 5.94446C37.7063 6.40293 38.0458 6.80667 38.5043 6.84629Z" fill="#146EB4"/>
<path d="M33.7622 4.07291C33.827 4.28433 33.9732 4.4613 34.1686 4.5648C34.364 4.66831 34.5926 4.68984 34.8039 4.62466C35.6397 4.36647 36.5032 4.20831 37.3764 4.15349C37.669 4.13552 37.9306 3.96513 38.0653 3.70478C38.2001 3.44443 38.1881 3.13243 38.0339 2.88316C37.4291 1.90751 36.7001 1.01461 35.8651 0.226911C35.5303 -0.0890647 35.0027 -0.0737864 34.6867 0.261036C34.3708 0.595859 34.386 1.12344 34.7209 1.43941C35.1239 1.81919 35.4989 2.22755 35.8431 2.66133C35.3264 2.7535 34.8157 2.87704 34.314 3.03124C34.1027 3.09615 33.9258 3.24238 33.8223 3.43775C33.7188 3.63311 33.6972 3.8616 33.7622 4.07291Z" fill="#146EB4"/>
<path d="M35.8333 39.1663H29.1667V32.4997C30.0867 32.4986 30.8323 31.753 30.8333 30.833V29.1663C30.8323 28.2463 30.0867 27.5007 29.1667 27.4997H27.5V23.6413L31.3566 25.655C31.8818 25.9318 32.5191 25.8841 32.9973 25.5322C33.4751 25.1866 33.7137 24.5985 33.6117 24.0177L32.3983 16.997L37.5366 12.023C37.962 11.6114 38.1157 10.9934 37.9326 10.4305C37.7495 9.86767 37.2617 9.45831 36.6756 9.37573L29.5712 8.35074L26.3941 1.95907C26.1302 1.43084 25.5905 1.09711 25 1.09711C24.4095 1.09711 23.8698 1.43084 23.6059 1.95907L20.4288 8.35074L13.3244 9.37573C12.7382 9.45837 12.2504 9.86781 12.0673 10.4308C11.8843 10.9937 12.038 11.6118 12.4634 12.0234L17.6018 16.997L16.3883 24.0178C16.2897 24.6006 16.53 25.1889 17.0085 25.536C17.4869 25.8831 18.1208 25.929 18.6442 25.6543L22.5 23.6413V27.4997H20.8333C19.9133 27.5007 19.1677 28.2463 19.1667 29.1663V30.833C19.1677 31.753 19.9133 32.4986 20.8333 32.4997V39.1663H14.1667C13.2466 39.1674 12.5011 39.9129 12.5 40.833V42.4997C12.5011 43.4197 13.2466 44.1653 14.1667 44.1663V48.333C14.1677 49.253 14.9133 49.9986 15.8333 49.9997H34.1667C35.0867 49.9986 35.8323 49.253 35.8333 48.333V44.1663C36.7534 44.1653 37.499 43.4197 37.5 42.4997V40.833C37.499 39.9129 36.7534 39.1674 35.8333 39.1663ZM18.0697 24.0747L19.2546 17.2163C19.3415 16.7117 19.173 16.1969 18.8046 15.8413L13.794 10.9913L20.7243 9.99132C21.2302 9.91908 21.6681 9.6026 21.8954 9.14498L25 2.8984L28.1038 9.1439C28.3312 9.602 28.7695 9.91889 29.2758 9.99132L36.2061 10.9913L31.1963 15.8404C30.8272 16.1964 30.6584 16.712 30.7454 17.2173L31.9303 24.074L25.721 20.8322C25.2688 20.5967 24.7301 20.597 24.2782 20.833L18.0697 24.0747ZM24.1667 22.7708L25 22.3357L25.8333 22.7708V27.4997H24.1667V22.7708ZM20.8333 29.1663H29.1667L29.1675 30.833H20.8333V29.1663ZM22.5 32.4997H27.5V39.1663H22.5V32.4997ZM34.1675 48.333H15.8333V44.1663H34.1667L34.1675 48.333ZM35 42.4997H14.1667V40.833H35.8333L35.8342 42.4997H35Z" fill="#146EB4"/>
<path d="M17.9772 46.7052C17.9643 46.6915 17.9472 46.6827 17.9288 46.6802L17.3372 46.5922L17.0742 46.0427C17.0497 46.001 16.9969 45.9876 16.9562 46.0126C16.9442 46.02 16.9341 46.0303 16.9268 46.0427L16.6628 46.5902L16.0712 46.6781C16.0264 46.6841 15.9948 46.7262 16.0007 46.772C16.0031 46.7909 16.0117 46.8083 16.0252 46.8215L16.453 47.2476L16.3506 47.8495C16.3433 47.8957 16.374 47.9393 16.4192 47.9468C16.4367 47.9497 16.4546 47.9468 16.4704 47.9385L17.0005 47.6558L17.5296 47.9406C17.5704 47.962 17.6203 47.9456 17.6413 47.904C17.6494 47.8878 17.6522 47.8695 17.6494 47.8516L17.547 47.2497L17.9749 46.8236C18.0075 46.7916 18.0085 46.7385 17.9772 46.7052ZM17.4017 47.1586C17.3825 47.178 17.3737 47.2057 17.3782 47.2329L17.458 47.7103L17.0384 47.4852C17.0143 47.4724 16.9857 47.4724 16.9616 47.4852L16.542 47.7103L16.6218 47.2329C16.6263 47.2057 16.6175 47.178 16.5983 47.1586L16.2595 46.8205L16.7283 46.7514C16.7552 46.7474 16.7786 46.7302 16.7907 46.7053L16.9954 46.2709L17.2001 46.7053C17.2122 46.7302 17.2356 46.7474 17.2625 46.7514L17.7313 46.8205L17.4017 47.1586Z" fill="#146EB4"/>
<path d="M20.9772 46.7052C20.9643 46.6915 20.9472 46.6827 20.9288 46.6802L20.3372 46.5922L20.0742 46.0427C20.0497 46.001 19.9969 45.9876 19.9562 46.0126C19.9442 46.02 19.9341 46.0303 19.9268 46.0427L19.6628 46.5902L19.0712 46.6781C19.0264 46.6841 18.9948 46.7262 19.0007 46.772C19.0031 46.7909 19.0117 46.8083 19.0252 46.8215L19.453 47.2476L19.3506 47.8495C19.3433 47.8957 19.374 47.9393 19.4192 47.9468C19.4367 47.9497 19.4546 47.9468 19.4704 47.9385L20.0005 47.6558L20.5296 47.9406C20.5704 47.962 20.6203 47.9456 20.6413 47.904C20.6494 47.8878 20.6522 47.8695 20.6494 47.8516L20.547 47.2497L20.9749 46.8236C21.0075 46.7916 21.0085 46.7385 20.9772 46.7052ZM20.4017 47.1586C20.3825 47.178 20.3737 47.2057 20.3782 47.2329L20.458 47.7103L20.0384 47.4852C20.0143 47.4724 19.9857 47.4724 19.9616 47.4852L19.542 47.7103L19.6218 47.2329C19.6263 47.2057 19.6175 47.178 19.5983 47.1586L19.2595 46.8205L19.7283 46.7514C19.7552 46.7474 19.7786 46.7302 19.7907 46.7053L19.9954 46.2709L20.2001 46.7053C20.2122 46.7302 20.2356 46.7474 20.2625 46.7514L20.7313 46.8205L20.4017 47.1586Z" fill="#146EB4"/>
<path d="M23.9772 46.7052C23.9643 46.6915 23.9472 46.6827 23.9288 46.6802L23.3372 46.5922L23.0742 46.0427C23.0497 46.001 22.9969 45.9876 22.9562 46.0126C22.9442 46.02 22.9341 46.0303 22.9268 46.0427L22.6628 46.5902L22.0712 46.6781C22.0264 46.6841 21.9948 46.7262 22.0007 46.772C22.0031 46.7909 22.0117 46.8083 22.0252 46.8215L22.453 47.2476L22.3506 47.8495C22.3433 47.8957 22.374 47.9393 22.4192 47.9468C22.4367 47.9497 22.4546 47.9468 22.4704 47.9385L23.0005 47.6558L23.5296 47.9406C23.5704 47.962 23.6203 47.9456 23.6413 47.904C23.6494 47.8878 23.6522 47.8695 23.6494 47.8516L23.547 47.2497L23.9749 46.8236C24.0075 46.7916 24.0085 46.7385 23.9772 46.7052ZM23.4017 47.1586C23.3825 47.178 23.3737 47.2057 23.3782 47.2329L23.458 47.7103L23.0384 47.4852C23.0143 47.4724 22.9857 47.4724 22.9616 47.4852L22.542 47.7103L22.6218 47.2329C22.6263 47.2057 22.6175 47.178 22.5983 47.1586L22.2595 46.8205L22.7283 46.7514C22.7552 46.7474 22.7786 46.7302 22.7907 46.7053L22.9954 46.2709L23.2001 46.7053C23.2122 46.7302 23.2356 46.7474 23.2625 46.7514L23.7313 46.8205L23.4017 47.1586Z" fill="#146EB4"/>
<path d="M21.4645 11.4645C20.5201 12.4088 20 13.6645 20 15C20 16.3355 20.5201 17.5912 21.4645 18.5355C22.4088 19.4799 23.6645 20 25 20C26.3355 20 27.5912 19.4799 28.5355 18.5355C29.4799 17.5912 30 16.3355 30 15C30 13.6645 29.4799 12.4088 28.5355 11.4645C27.5912 10.5201 26.3355 10 25 10C23.6645 10 22.4088 10.5201 21.4645 11.4645ZM29.7004 15.1485C29.6634 16.3491 29.1787 17.4724 28.3255 18.3255C28.3227 18.3283 28.3198 18.331 28.317 18.3338C27.9003 17.9197 27.5689 17.4387 27.3312 16.9019C27.0855 16.3468 26.9521 15.7576 26.9334 15.1486H29.7004V15.1485ZM24.8515 15.1485V17.9504H25.1485V15.1485H26.6362C26.6549 15.7993 26.797 16.4289 27.0596 17.0221C27.3109 17.5896 27.6606 18.0983 28.0998 18.5367C27.2788 19.2583 26.246 19.6666 25.1485 19.7004V18.3465H24.8515V19.7004C23.754 19.6666 22.7212 19.2584 21.9002 18.5367C22.3394 18.0983 22.6891 17.5896 22.9403 17.0221C23.2029 16.4289 23.345 15.7993 23.3638 15.1485H24.8515ZM23.0666 15.1485C23.0479 15.7576 22.9145 16.3468 22.6688 16.9018C22.4311 17.4387 22.0997 17.9198 21.683 18.3338C21.6802 18.331 21.6773 18.3283 21.6745 18.3255C20.8213 17.4723 20.3366 16.349 20.2996 15.1485H23.0666V15.1485ZM20.2996 14.8515C20.3366 13.651 20.8213 12.5277 21.6745 11.6745C21.6773 11.6717 21.6802 11.669 21.683 11.6662C22.0997 12.0802 22.4311 12.5613 22.6688 13.0981C22.9145 13.6532 23.0479 14.2424 23.0666 14.8515H20.2996V14.8515ZM24.8515 14.8515H23.3638C23.3451 14.2007 23.203 13.5711 22.9404 12.9779C22.6891 12.4104 22.3394 11.9017 21.9002 11.4633C22.7212 10.7417 23.754 10.3334 24.8515 10.2996V14.8515H24.8515ZM28.3255 11.6745C29.1787 12.5277 29.6634 13.651 29.7004 14.8515H26.9334C26.9521 14.2424 27.0855 13.6532 27.3312 13.0982C27.5689 12.5613 27.9003 12.0803 28.3169 11.6662C28.3198 11.669 28.3227 11.6717 28.3255 11.6745ZM27.0596 12.9779C26.797 13.5711 26.6549 14.2007 26.6362 14.8515H25.1485V10.2996C26.246 10.3335 27.2788 10.7417 28.0998 11.4633C27.6605 11.9017 27.3109 12.4104 27.0596 12.9779Z" fill="#146EB4" stroke="#146EB4" stroke-width="0.5"/>
</g>
<defs>
<clipPath id="clip0">
<rect width="50" height="50" fill="white"/>
</clipPath>
</defs>
</svg>
