<svg width="36" height="33" viewBox="0 0 36 33" fill="none" xmlns="http://www.w3.org/2000/svg">
<path d="M16.6797 22.8216H18.623L16.1832 32.8626H13.7291L11.3035 22.8216H13.2468L14.6015 28.9547C14.7245 29.4767 14.845 30.2253 14.9632 31.2005C15.0625 30.3718 15.1878 29.6232 15.3392 28.9547L16.6797 22.8216Z" fill="#FF0303"/>
<path d="M16.6797 22.8216H18.623L16.1832 32.8626H13.7291L11.3035 22.8216H13.2468L14.6015 28.9547C14.7245 29.4767 14.845 30.2253 14.9632 31.2005C15.0625 30.3718 15.1878 29.6232 15.3392 28.9547L16.6797 22.8216Z" fill="black" fill-opacity="0.2"/>
<path d="M24.6974 30.0948C24.6974 31.0334 24.4515 31.7523 23.9598 32.2513C23.4728 32.7504 22.7682 32.9999 21.8462 32.9999C20.9431 32.9999 20.1747 32.8282 19.5411 32.4848V30.6374C20.3165 31.1273 21.0282 31.3722 21.676 31.3722C22.0448 31.3722 22.3214 31.2738 22.5058 31.0769C22.6949 30.88 22.7895 30.6122 22.7895 30.2734C22.7895 29.9391 22.6784 29.6346 22.4561 29.3599C22.2339 29.0806 21.8675 28.7716 21.3568 28.4327C20.9123 28.1351 20.5742 27.8512 20.3426 27.5811C20.1156 27.3064 19.9383 26.9996 19.8106 26.6608C19.6877 26.322 19.6262 25.9282 19.6262 25.4795C19.6262 24.6187 19.8721 23.9365 20.3638 23.4328C20.8603 22.9292 21.5247 22.6774 22.3568 22.6774C23.1512 22.6774 23.9149 22.8926 24.6478 23.323L24.0094 24.8202C23.7825 24.692 23.5437 24.5775 23.2931 24.4768C23.0472 24.376 22.7824 24.3257 22.4987 24.3257C22.1866 24.3257 21.9455 24.4264 21.7753 24.6279C21.6098 24.8248 21.527 25.0949 21.527 25.4383C21.527 25.7771 21.6263 26.0724 21.8249 26.3243C22.0282 26.5761 22.3805 26.8623 22.8817 27.1828C23.5579 27.6223 24.0283 28.071 24.2931 28.5289C24.5626 28.9868 24.6974 29.5087 24.6974 30.0948Z" fill="#FF0303"/>
<path d="M24.6974 30.0948C24.6974 31.0334 24.4515 31.7523 23.9598 32.2513C23.4728 32.7504 22.7682 32.9999 21.8462 32.9999C20.9431 32.9999 20.1747 32.8282 19.5411 32.4848V30.6374C20.3165 31.1273 21.0282 31.3722 21.676 31.3722C22.0448 31.3722 22.3214 31.2738 22.5058 31.0769C22.6949 30.88 22.7895 30.6122 22.7895 30.2734C22.7895 29.9391 22.6784 29.6346 22.4561 29.3599C22.2339 29.0806 21.8675 28.7716 21.3568 28.4327C20.9123 28.1351 20.5742 27.8512 20.3426 27.5811C20.1156 27.3064 19.9383 26.9996 19.8106 26.6608C19.6877 26.322 19.6262 25.9282 19.6262 25.4795C19.6262 24.6187 19.8721 23.9365 20.3638 23.4328C20.8603 22.9292 21.5247 22.6774 22.3568 22.6774C23.1512 22.6774 23.9149 22.8926 24.6478 23.323L24.0094 24.8202C23.7825 24.692 23.5437 24.5775 23.2931 24.4768C23.0472 24.376 22.7824 24.3257 22.4987 24.3257C22.1866 24.3257 21.9455 24.4264 21.7753 24.6279C21.6098 24.8248 21.527 25.0949 21.527 25.4383C21.527 25.7771 21.6263 26.0724 21.8249 26.3243C22.0282 26.5761 22.3805 26.8623 22.8817 27.1828C23.5579 27.6223 24.0283 28.071 24.2931 28.5289C24.5626 28.9868 24.6974 29.5087 24.6974 30.0948Z" fill="black" fill-opacity="0.2"/>
<path d="M35.0005 26.8065C34.6487 24.6717 32.5731 20.1693 27.0851 19.2378V15.7445C28.6682 12.4453 30.8845 5.03188 27.0851 1.77152C26.0297 1.18931 23.4968 0.374222 21.8082 1.77152C20.2252 2.93593 17.9033 7.3607 21.2805 15.7445V18.6556" stroke="#FF0303" stroke-linecap="round"/>
<path d="M35.0005 26.8065C34.6487 24.6717 32.5731 20.1693 27.0851 19.2378V15.7445C28.6682 12.4453 30.8845 5.03188 27.0851 1.77152C26.0297 1.18931 23.4968 0.374222 21.8082 1.77152C20.2252 2.93593 17.9033 7.3607 21.2805 15.7445V18.6556" stroke="black" stroke-opacity="0.2" stroke-linecap="round"/>
<path d="M1.00049 26.8065C1.35228 24.6717 3.42786 20.1693 8.91585 19.2378V15.7445C7.33277 12.4453 5.11647 5.03188 8.91585 1.77152C9.97123 1.18931 12.5041 0.374222 14.1928 1.77152C15.7758 2.93593 18.0977 7.3607 14.7204 15.7445V18.6556" stroke="#FF0303" stroke-linecap="round"/>
<path d="M1.00049 26.8065C1.35228 24.6717 3.42786 20.1693 8.91585 19.2378V15.7445C7.33277 12.4453 5.11647 5.03188 8.91585 1.77152C9.97123 1.18931 12.5041 0.374222 14.1928 1.77152C15.7758 2.93593 18.0977 7.3607 14.7204 15.7445V18.6556" stroke="black" stroke-opacity="0.2" stroke-linecap="round"/>
</svg>
