<svg width="33" height="35" viewBox="0 0 33 35" fill="none" xmlns="http://www.w3.org/2000/svg">
<path fill-rule="evenodd" clip-rule="evenodd" d="M10.3849 3.62529C13.0576 2.61469 15.125 1.15902 16.1567 0.143677L16.4926 0L16.8435 0.143677C17.8752 1.15902 19.9427 2.61469 22.6154 3.62529C25.2827 4.63388 28.5202 5.18704 31.9074 4.4463C32.113 4.40134 32.3168 4.44725 32.4818 4.56919C32.628 4.67727 32.7175 4.8247 32.7745 4.95092C32.888 5.2022 32.9464 5.53618 32.9755 5.89771C33.0352 6.63757 32.9859 7.6907 32.8316 8.94547C32.522 11.4637 31.7783 14.8843 30.5466 18.4239C29.3155 21.962 27.5887 25.6426 25.3018 28.6652C23.0157 31.6867 20.1432 34.0845 16.6163 34.9844L16.4926 35L16.384 34.9844C12.857 34.0845 9.98455 31.6867 7.69846 28.6652C5.41152 25.6426 3.68476 21.962 2.45364 18.4239C1.22198 14.8843 0.478235 11.4637 0.168631 8.94547C0.0143643 7.6907 -0.0349756 6.63757 0.0247173 5.89771C0.0538862 5.53618 0.112209 5.2022 0.225735 4.95092C0.282761 4.8247 0.372201 4.67727 0.518447 4.56919C0.683459 4.44725 0.887199 4.40134 1.09281 4.4463C4.48003 5.18704 7.71753 4.63388 10.3849 3.62529ZM16.5001 33.9812C19.6745 33.1305 22.3292 30.9363 24.5038 28.0621C26.7076 25.1494 28.3919 21.5722 29.6017 18.0954C30.8109 14.6201 31.538 11.2687 31.8386 8.8235C31.9895 7.59654 32.0301 6.62005 31.9783 5.9781C31.9595 5.74505 31.9301 5.57929 31.8999 5.46994C28.3586 6.19091 25.003 5.59726 22.2614 4.5606C19.7377 3.60635 17.7077 2.26682 16.5001 1.19121C15.2925 2.26682 13.2625 3.60635 10.7389 4.5606C7.99729 5.59726 4.64165 6.19091 1.10037 5.46994C1.07016 5.57929 1.04074 5.74505 1.02194 5.9781C0.970146 6.62005 1.01077 7.59654 1.16162 8.8235C1.46225 11.2687 2.18931 14.6201 3.39858 18.0954C4.60839 21.5722 6.29267 25.1494 8.49642 28.0621C10.6711 30.9363 13.3258 33.1305 16.5001 33.9812Z" fill="#146EB4"/>
<path fill-rule="evenodd" clip-rule="evenodd" d="M11.182 5.90026C13.2878 5.09178 14.9167 3.92725 15.7296 3.11497L15.9942 3.00003L16.2707 3.11497C17.0835 3.92725 18.7124 5.09178 20.8182 5.90026C22.9197 6.70713 25.4705 7.14966 28.1392 6.55707C28.3012 6.5211 28.4617 6.55783 28.5917 6.65538C28.707 6.74185 28.7774 6.85979 28.8224 6.96077C28.9118 7.16178 28.9578 7.42897 28.9807 7.7182C29.0278 8.31008 28.9889 9.15259 28.8674 10.1564C28.6234 12.171 28.0374 14.9074 27.067 17.7391C26.0971 20.5696 24.7366 23.5141 22.9348 25.9322C21.1336 28.3494 18.8705 30.2677 16.0916 30.9876L15.9942 31L15.9086 30.9876C13.1298 30.2677 10.8666 28.3494 9.06548 25.9322C7.26365 23.5141 5.90317 20.5696 4.9332 17.7391C3.9628 14.9074 3.37682 12.171 3.13289 10.1564C3.01134 9.15259 2.97247 8.31008 3.0195 7.7182C3.04248 7.42898 3.08843 7.16178 3.17788 6.96077C3.22281 6.85979 3.29328 6.74185 3.4085 6.65538C3.53851 6.55783 3.69903 6.5211 3.86103 6.55707C6.52975 7.14966 9.08051 6.70713 11.182 5.90026ZM16.0001 30.185C18.5011 29.5044 20.5927 27.7491 22.3061 25.4497C24.0424 23.1195 25.3694 20.2578 26.3226 17.4763C27.2753 14.6961 27.8481 12.015 28.085 10.0588C28.2039 9.07726 28.2359 8.29607 28.1951 7.78251C28.1802 7.59606 28.1571 7.46346 28.1333 7.37598C25.3432 7.95275 22.6993 7.47783 20.5393 6.64851C18.551 5.88511 16.9516 4.81349 16.0001 3.95299C15.0487 4.81349 13.4493 5.88511 11.4609 6.64851C9.30092 7.47783 6.65708 7.95275 3.86698 7.37598C3.84319 7.46346 3.82001 7.59607 3.80519 7.78251C3.76438 8.29607 3.79639 9.07726 3.91524 10.0588C4.1521 12.015 4.72494 14.6961 5.6777 17.4763C6.63088 20.2578 7.95788 23.1195 9.69417 25.4497C11.4076 27.7491 13.4991 29.5044 16.0001 30.185Z" fill="#146EB4"/>
<path d="M20.0001 16.9043C20.0001 18.555 19.6288 19.8181 18.8861 20.6936C18.1485 21.5646 17.0847 22 15.6947 22H13.0001V12H15.9431C17.2227 12 18.2188 12.4309 18.9313 13.2928C19.6439 14.1501 20.0001 15.3539 20.0001 16.9043ZM17.9001 16.959C17.9001 14.7246 17.2227 13.6074 15.8679 13.6074H15.0474V20.3721H15.7098C16.4575 20.3721 17.0094 20.0894 17.3657 19.524C17.722 18.954 17.9001 18.099 17.9001 16.959Z" fill="#146EB4"/>
</svg>
