<svg width="36" height="36" viewBox="0 0 36 36" fill="none" xmlns="http://www.w3.org/2000/svg">
<path d="M12.0778 24.0655C12.2981 24.232 12.6117 24.1885 12.7782 23.9682C12.9447 23.7479 12.9012 23.4343 12.6809 23.2678L12.0778 24.0655ZM23.3202 23.2678C23.0999 23.4343 23.0564 23.7479 23.2229 23.9682C23.3895 24.1885 23.703 24.232 23.9233 24.0655L23.3202 23.2678ZM16.8763 35H16.3763C16.3763 35.2761 16.6002 35.5 16.8763 35.5V35ZM19.1248 35V35.5C19.4009 35.5 19.6248 35.2761 19.6248 35H19.1248ZM20.8112 34.9333C21.0873 34.9333 21.3112 34.7094 21.3112 34.4333C21.3112 34.1572 21.0873 33.9333 20.8112 33.9333V34.9333ZM15.1899 33.9333C14.9138 33.9333 14.6899 34.1572 14.6899 34.4333C14.6899 34.7094 14.9138 34.9333 15.1899 34.9333V33.9333ZM21.3733 33.8666V34.3666C21.6494 34.3666 21.8733 34.1428 21.8733 33.8666H21.3733ZM23.0596 33.2333C23.3358 33.2333 23.5596 33.0094 23.5596 32.7333C23.5596 32.4572 23.3358 32.2333 23.0596 32.2333V33.2333ZM14.0657 33.3666C13.7896 33.3666 13.5657 33.5905 13.5657 33.8666C13.5657 34.1428 13.7896 34.3666 14.0657 34.3666V33.3666ZM12.9415 32.2333C12.6653 32.2333 12.4415 32.4572 12.4415 32.7333C12.4415 33.0094 12.6653 33.2333 12.9415 33.2333V32.2333ZM24.1218 24.2333C24.1218 23.9572 23.8979 23.7333 23.6218 23.7333C23.3456 23.7333 23.1218 23.9572 23.1218 24.2333H24.1218ZM13.4415 24.2333C13.4415 23.9572 13.2176 23.7333 12.9415 23.7333C12.6653 23.7333 12.4415 23.9572 12.4415 24.2333H13.4415ZM12.3793 31.6H11.8793C11.8793 31.8761 12.1032 32.1 12.3793 32.1V31.6ZM23.6218 31.6V32.1C23.8979 32.1 24.1218 31.8761 24.1218 31.6H23.6218ZM16.8763 27.7C16.6002 27.7 16.3763 27.9238 16.3763 28.2C16.3763 28.4761 16.6002 28.7 16.8763 28.7V27.7ZM15.1899 28.7C15.4661 28.7 15.6899 28.4761 15.6899 28.2C15.6899 27.9238 15.4661 27.7 15.1899 27.7V28.7ZM12.8793 24.2333C12.8793 23.9572 12.6555 23.7333 12.3793 23.7333C12.1032 23.7333 11.8793 23.9572 11.8793 24.2333H12.8793ZM22.5596 25.9333C22.5596 26.2094 22.7835 26.4333 23.0596 26.4333C23.3358 26.4333 23.5596 26.2094 23.5596 25.9333H22.5596ZM23.5596 24.2333C23.5596 23.9572 23.3358 23.7333 23.0596 23.7333C22.7835 23.7333 22.5596 23.9572 22.5596 24.2333H23.5596ZM12.6809 23.2678C9.46887 20.8393 7.41116 15.6388 7.88788 11.039C8.1245 8.75586 8.98198 6.66393 10.5887 5.14391C12.1908 3.62825 14.5884 2.6333 18.0006 2.6333V1.6333C14.3863 1.6333 11.7248 2.69251 9.90144 4.41748C8.08271 6.13809 7.14844 8.47324 6.89321 10.9359C6.38622 15.8278 8.54442 21.394 12.0778 24.0655L12.6809 23.2678ZM23.9233 24.0655C27.4567 21.394 29.6149 15.8278 29.1079 10.9359C28.8527 8.47324 27.9184 6.13809 26.0997 4.41748C24.2764 2.69251 21.6149 1.6333 18.0006 1.6333V2.6333C21.4128 2.6333 23.8104 3.62825 25.4124 5.14391C27.0191 6.66393 27.8766 8.75586 28.1132 11.039C28.59 15.6388 26.5322 20.8393 23.3202 23.2678L23.9233 24.0655ZM16.8763 35.5H19.1248V34.5H16.8763V35.5ZM19.6248 35V34.4333H18.6248V35H19.6248ZM19.1248 33.9333H16.8763V34.9333H19.1248V33.9333ZM16.3763 34.4333V35H17.3763V34.4333H16.3763ZM14.6278 33.3666H14.0657V34.3666H14.6278V33.3666ZM14.6278 33.2333H21.3733V32.2333H14.6278V33.2333ZM15.1278 33.8666V32.7333H14.1278V33.8666H15.1278ZM24.1218 26.5V24.2333H23.1218V26.5H24.1218ZM23.6218 26H12.9415V27H23.6218V26ZM13.4415 26.5V24.2333H12.4415V26.5H13.4415ZM12.3793 32.1H12.9415V31.1H12.3793V32.1ZM12.9415 32.1H23.6218V31.1H12.9415V32.1ZM12.4415 29.9V31.6H13.4415V29.9H12.4415ZM24.1218 31.6V29.9H23.1218V31.6H24.1218ZM12.9415 30.4H23.6218V29.4H12.9415V30.4ZM24.1218 29.9V28.2H23.1218V29.9H24.1218ZM24.1218 28.2V26.5H23.1218V28.2H24.1218ZM23.6218 27.7H16.8763V28.7H23.6218V27.7ZM12.4415 26.5V28.2H13.4415V26.5H12.4415ZM12.4415 28.2V29.9H13.4415V28.2H12.4415ZM12.9415 28.7H15.1899V27.7H12.9415V28.7ZM11.8793 24.2333V31.6H12.8793V24.2333H11.8793ZM19.1248 34.9333H20.8112V33.9333H19.1248V34.9333ZM16.8763 33.9333H15.1899V34.9333H16.8763V33.9333ZM21.3733 33.3666H14.6278V34.3666H21.3733V33.3666ZM21.8733 33.8666V32.7333H20.8733V33.8666H21.8733ZM21.3733 33.2333H23.0596V32.2333H21.3733V33.2333ZM14.6278 32.2333H12.9415V33.2333H14.6278V32.2333ZM22.5596 24.2333V25.9333H23.5596V24.2333H22.5596Z" fill="#FF0303"/>
<path d="M12.0778 24.0655C12.2981 24.232 12.6117 24.1885 12.7782 23.9682C12.9447 23.7479 12.9012 23.4343 12.6809 23.2678L12.0778 24.0655ZM23.3202 23.2678C23.0999 23.4343 23.0564 23.7479 23.2229 23.9682C23.3895 24.1885 23.703 24.232 23.9233 24.0655L23.3202 23.2678ZM16.8763 35H16.3763C16.3763 35.2761 16.6002 35.5 16.8763 35.5V35ZM19.1248 35V35.5C19.4009 35.5 19.6248 35.2761 19.6248 35H19.1248ZM20.8112 34.9333C21.0873 34.9333 21.3112 34.7094 21.3112 34.4333C21.3112 34.1572 21.0873 33.9333 20.8112 33.9333V34.9333ZM15.1899 33.9333C14.9138 33.9333 14.6899 34.1572 14.6899 34.4333C14.6899 34.7094 14.9138 34.9333 15.1899 34.9333V33.9333ZM21.3733 33.8666V34.3666C21.6494 34.3666 21.8733 34.1428 21.8733 33.8666H21.3733ZM23.0596 33.2333C23.3358 33.2333 23.5596 33.0094 23.5596 32.7333C23.5596 32.4572 23.3358 32.2333 23.0596 32.2333V33.2333ZM14.0657 33.3666C13.7896 33.3666 13.5657 33.5905 13.5657 33.8666C13.5657 34.1428 13.7896 34.3666 14.0657 34.3666V33.3666ZM12.9415 32.2333C12.6653 32.2333 12.4415 32.4572 12.4415 32.7333C12.4415 33.0094 12.6653 33.2333 12.9415 33.2333V32.2333ZM24.1218 24.2333C24.1218 23.9572 23.8979 23.7333 23.6218 23.7333C23.3456 23.7333 23.1218 23.9572 23.1218 24.2333H24.1218ZM13.4415 24.2333C13.4415 23.9572 13.2176 23.7333 12.9415 23.7333C12.6653 23.7333 12.4415 23.9572 12.4415 24.2333H13.4415ZM12.3793 31.6H11.8793C11.8793 31.8761 12.1032 32.1 12.3793 32.1V31.6ZM23.6218 31.6V32.1C23.8979 32.1 24.1218 31.8761 24.1218 31.6H23.6218ZM16.8763 27.7C16.6002 27.7 16.3763 27.9238 16.3763 28.2C16.3763 28.4761 16.6002 28.7 16.8763 28.7V27.7ZM15.1899 28.7C15.4661 28.7 15.6899 28.4761 15.6899 28.2C15.6899 27.9238 15.4661 27.7 15.1899 27.7V28.7ZM12.8793 24.2333C12.8793 23.9572 12.6555 23.7333 12.3793 23.7333C12.1032 23.7333 11.8793 23.9572 11.8793 24.2333H12.8793ZM22.5596 25.9333C22.5596 26.2094 22.7835 26.4333 23.0596 26.4333C23.3358 26.4333 23.5596 26.2094 23.5596 25.9333H22.5596ZM23.5596 24.2333C23.5596 23.9572 23.3358 23.7333 23.0596 23.7333C22.7835 23.7333 22.5596 23.9572 22.5596 24.2333H23.5596ZM12.6809 23.2678C9.46887 20.8393 7.41116 15.6388 7.88788 11.039C8.1245 8.75586 8.98198 6.66393 10.5887 5.14391C12.1908 3.62825 14.5884 2.6333 18.0006 2.6333V1.6333C14.3863 1.6333 11.7248 2.69251 9.90144 4.41748C8.08271 6.13809 7.14844 8.47324 6.89321 10.9359C6.38622 15.8278 8.54442 21.394 12.0778 24.0655L12.6809 23.2678ZM23.9233 24.0655C27.4567 21.394 29.6149 15.8278 29.1079 10.9359C28.8527 8.47324 27.9184 6.13809 26.0997 4.41748C24.2764 2.69251 21.6149 1.6333 18.0006 1.6333V2.6333C21.4128 2.6333 23.8104 3.62825 25.4124 5.14391C27.0191 6.66393 27.8766 8.75586 28.1132 11.039C28.59 15.6388 26.5322 20.8393 23.3202 23.2678L23.9233 24.0655ZM16.8763 35.5H19.1248V34.5H16.8763V35.5ZM19.6248 35V34.4333H18.6248V35H19.6248ZM19.1248 33.9333H16.8763V34.9333H19.1248V33.9333ZM16.3763 34.4333V35H17.3763V34.4333H16.3763ZM14.6278 33.3666H14.0657V34.3666H14.6278V33.3666ZM14.6278 33.2333H21.3733V32.2333H14.6278V33.2333ZM15.1278 33.8666V32.7333H14.1278V33.8666H15.1278ZM24.1218 26.5V24.2333H23.1218V26.5H24.1218ZM23.6218 26H12.9415V27H23.6218V26ZM13.4415 26.5V24.2333H12.4415V26.5H13.4415ZM12.3793 32.1H12.9415V31.1H12.3793V32.1ZM12.9415 32.1H23.6218V31.1H12.9415V32.1ZM12.4415 29.9V31.6H13.4415V29.9H12.4415ZM24.1218 31.6V29.9H23.1218V31.6H24.1218ZM12.9415 30.4H23.6218V29.4H12.9415V30.4ZM24.1218 29.9V28.2H23.1218V29.9H24.1218ZM24.1218 28.2V26.5H23.1218V28.2H24.1218ZM23.6218 27.7H16.8763V28.7H23.6218V27.7ZM12.4415 26.5V28.2H13.4415V26.5H12.4415ZM12.4415 28.2V29.9H13.4415V28.2H12.4415ZM12.9415 28.7H15.1899V27.7H12.9415V28.7ZM11.8793 24.2333V31.6H12.8793V24.2333H11.8793ZM19.1248 34.9333H20.8112V33.9333H19.1248V34.9333ZM16.8763 33.9333H15.1899V34.9333H16.8763V33.9333ZM21.3733 33.3666H14.6278V34.3666H21.3733V33.3666ZM21.8733 33.8666V32.7333H20.8733V33.8666H21.8733ZM21.3733 33.2333H23.0596V32.2333H21.3733V33.2333ZM14.6278 32.2333H12.9415V33.2333H14.6278V32.2333ZM22.5596 24.2333V25.9333H23.5596V24.2333H22.5596Z" fill="black" fill-opacity="0.2"/>
<path d="M16.314 25.9334V16.3L14.0655 14.0334L13.5034 12.3334H16.314L18.0004 13.4667L19.6867 12.3334H22.4973L21.9352 14.0334L19.6867 16.3V25.9334" stroke="#FF0303" stroke-linecap="round" stroke-linejoin="round"/>
<path d="M16.314 25.9334V16.3L14.0655 14.0334L13.5034 12.3334H16.314L18.0004 13.4667L19.6867 12.3334H22.4973L21.9352 14.0334L19.6867 16.3V25.9334" stroke="black" stroke-opacity="0.2" stroke-linecap="round" stroke-linejoin="round"/>
<path d="M30.9293 1L27.5565 4.4M34.9192 7.74438L30.312 8.98887M35.0005 13.5223H30.2307M33.6528 20.2868L29.3299 18.2548M29.805 26.4121L26.4323 23.0121M5.07172 1L8.44444 4.4M1.08179 7.74438L5.68901 8.98887M1.00049 13.5223H5.77024M2.3482 20.287L6.67106 18.2549M6.19596 26.4124L9.56868 23.0124" stroke="#FF0303" stroke-linecap="round" stroke-dasharray="1 2"/>
<path d="M30.9293 1L27.5565 4.4M34.9192 7.74438L30.312 8.98887M35.0005 13.5223H30.2307M33.6528 20.2868L29.3299 18.2548M29.805 26.4121L26.4323 23.0121M5.07172 1L8.44444 4.4M1.08179 7.74438L5.68901 8.98887M1.00049 13.5223H5.77024M2.3482 20.287L6.67106 18.2549M6.19596 26.4124L9.56868 23.0124" stroke="black" stroke-opacity="0.2" stroke-linecap="round" stroke-dasharray="1 2"/>
<path d="M5.07175 6.09999C5.07175 5.78954 5.32342 5.53333 5.63387 5.53333C5.94432 5.53333 6.19599 5.78954 6.19599 6.09999C6.19599 6.41044 5.94432 6.66666 5.63387 6.66666C5.32342 6.66666 5.07175 6.41044 5.07175 6.09999Z" fill="#FF0303"/>
<path d="M5.07175 6.09999C5.07175 5.78954 5.32342 5.53333 5.63387 5.53333C5.94432 5.53333 6.19599 5.78954 6.19599 6.09999C6.19599 6.41044 5.94432 6.66666 5.63387 6.66666C5.32342 6.66666 5.07175 6.41044 5.07175 6.09999Z" fill="black" fill-opacity="0.2"/>
<path d="M3.94751 11.7667C3.94751 11.4562 4.19918 11.2 4.50963 11.2C4.82008 11.2 5.07175 11.4562 5.07175 11.7667C5.07175 12.0771 4.82008 12.3333 4.50963 12.3333C4.19918 12.3333 3.94751 12.0771 3.94751 11.7667Z" fill="#FF0303"/>
<path d="M3.94751 11.7667C3.94751 11.4562 4.19918 11.2 4.50963 11.2C4.82008 11.2 5.07175 11.4562 5.07175 11.7667C5.07175 12.0771 4.82008 12.3333 4.50963 12.3333C4.19918 12.3333 3.94751 12.0771 3.94751 11.7667Z" fill="black" fill-opacity="0.2"/>
<path d="M3.94751 16.3C3.94751 15.9895 4.19918 15.7333 4.50963 15.7333C4.82008 15.7333 5.07175 15.9895 5.07175 16.3C5.07175 16.6104 4.82008 16.8667 4.50963 16.8667C4.19918 16.8667 3.94751 16.6104 3.94751 16.3Z" fill="#FF0303"/>
<path d="M3.94751 16.3C3.94751 15.9895 4.19918 15.7333 4.50963 15.7333C4.82008 15.7333 5.07175 15.9895 5.07175 16.3C5.07175 16.6104 4.82008 16.8667 4.50963 16.8667C4.19918 16.8667 3.94751 16.6104 3.94751 16.3Z" fill="black" fill-opacity="0.2"/>
<path d="M6.19599 21.9667C6.19599 21.6562 6.44766 21.4 6.75811 21.4C7.06856 21.4 7.32023 21.6562 7.32023 21.9667C7.32023 22.2771 7.06856 22.5333 6.75811 22.5333C6.44766 22.5333 6.19599 22.2771 6.19599 21.9667Z" fill="#FF0303"/>
<path d="M6.19599 21.9667C6.19599 21.6562 6.44766 21.4 6.75811 21.4C7.06856 21.4 7.32023 21.6562 7.32023 21.9667C7.32023 22.2771 7.06856 22.5333 6.75811 22.5333C6.44766 22.5333 6.19599 22.2771 6.19599 21.9667Z" fill="black" fill-opacity="0.2"/>
<path d="M29.805 6.09999C29.805 5.78954 30.0567 5.53333 30.3672 5.53333C30.6776 5.53333 30.9293 5.78954 30.9293 6.09999C30.9293 6.41044 30.6776 6.66666 30.3672 6.66666C30.0567 6.66666 29.805 6.41044 29.805 6.09999Z" fill="#FF0303"/>
<path d="M29.805 6.09999C29.805 5.78954 30.0567 5.53333 30.3672 5.53333C30.6776 5.53333 30.9293 5.78954 30.9293 6.09999C30.9293 6.41044 30.6776 6.66666 30.3672 6.66666C30.0567 6.66666 29.805 6.41044 29.805 6.09999Z" fill="black" fill-opacity="0.2"/>
<path d="M30.9293 11.7667C30.9293 11.4562 31.1809 11.2 31.4914 11.2C31.8018 11.2 32.0535 11.4562 32.0535 11.7667C32.0535 12.0771 31.8018 12.3333 31.4914 12.3333C31.1809 12.3333 30.9293 12.0771 30.9293 11.7667Z" fill="#FF0303"/>
<path d="M30.9293 11.7667C30.9293 11.4562 31.1809 11.2 31.4914 11.2C31.8018 11.2 32.0535 11.4562 32.0535 11.7667C32.0535 12.0771 31.8018 12.3333 31.4914 12.3333C31.1809 12.3333 30.9293 12.0771 30.9293 11.7667Z" fill="black" fill-opacity="0.2"/>
<path d="M30.9293 16.3C30.9293 15.9895 31.1809 15.7333 31.4914 15.7333C31.8018 15.7333 32.0535 15.9895 32.0535 16.3C32.0535 16.6104 31.8018 16.8667 31.4914 16.8667C31.1809 16.8667 30.9293 16.6104 30.9293 16.3Z" fill="#FF0303"/>
<path d="M30.9293 16.3C30.9293 15.9895 31.1809 15.7333 31.4914 15.7333C31.8018 15.7333 32.0535 15.9895 32.0535 16.3C32.0535 16.6104 31.8018 16.8667 31.4914 16.8667C31.1809 16.8667 30.9293 16.6104 30.9293 16.3Z" fill="black" fill-opacity="0.2"/>
<path d="M28.6808 21.9667C28.6808 21.6562 28.9325 21.4 29.2429 21.4C29.5534 21.4 29.805 21.6562 29.805 21.9667C29.805 22.2771 29.5534 22.5333 29.2429 22.5333C28.9325 22.5333 28.6808 22.2771 28.6808 21.9667Z" fill="#FF0303"/>
<path d="M28.6808 21.9667C28.6808 21.6562 28.9325 21.4 29.2429 21.4C29.5534 21.4 29.805 21.6562 29.805 21.9667C29.805 22.2771 29.5534 22.5333 29.2429 22.5333C28.9325 22.5333 28.6808 22.2771 28.6808 21.9667Z" fill="black" fill-opacity="0.2"/>
</svg>
