<svg width="36" height="32" viewBox="0 0 36 32" fill="none" xmlns="http://www.w3.org/2000/svg">
<path d="M31.9911 7.58689C24.2277 3.08997 20.9945 10.4581 20.9945 14.1738C14.9963 10.931 12.497 16.5383 11.9972 19.7473L5.99898 10.627L5.49913 8.60024L5.99898 7.08019H6.99868V8.60024L8.49823 9.10693L9.99777 8.60024L11.4973 7.08019L11.9972 5.56015V4.0401L10.9975 2.52005L9.49792 1.50668L7.99838 1L5.99898 1.50668L3.99958 2.52005L1.50034 5.56015L1.00049 7.08019V11.6403L2.00019 18.2272L4.49943 24.8141L9.99777 29.8809C11.9972 31.9077 18.4952 30.7254 21.4943 29.8809C28.2923 28.2595 29.3253 22.7873 28.992 20.2539C31.9911 20.2539 38.989 11.6404 31.9911 7.58689Z" stroke="#FF0303" stroke-linejoin="round"/>
<path d="M31.9911 7.58689C24.2277 3.08997 20.9945 10.4581 20.9945 14.1738C14.9963 10.931 12.497 16.5383 11.9972 19.7473L5.99898 10.627L5.49913 8.60024L5.99898 7.08019H6.99868V8.60024L8.49823 9.10693L9.99777 8.60024L11.4973 7.08019L11.9972 5.56015V4.0401L10.9975 2.52005L9.49792 1.50668L7.99838 1L5.99898 1.50668L3.99958 2.52005L1.50034 5.56015L1.00049 7.08019V11.6403L2.00019 18.2272L4.49943 24.8141L9.99777 29.8809C11.9972 31.9077 18.4952 30.7254 21.4943 29.8809C28.2923 28.2595 29.3253 22.7873 28.992 20.2539C31.9911 20.2539 38.989 11.6404 31.9911 7.58689Z" stroke="black" stroke-opacity="0.2" stroke-linejoin="round"/>
</svg>
