<svg width="40" height="40" viewBox="0 0 40 40" fill="none" xmlns="http://www.w3.org/2000/svg">
<path d="M33.9355 4H34.4355C34.4355 3.72386 34.2116 3.5 33.9355 3.5V4ZM27.7419 4V3.5C27.4658 3.5 27.2419 3.72386 27.2419 4H27.7419ZM26.1935 12H26.6935C26.6935 11.7239 26.4697 11.5 26.1935 11.5V12ZM20.5161 12V11.5C20.24 11.5 20.0161 11.7239 20.0161 12H20.5161ZM18.9677 20.5714H19.4677C19.4677 20.2953 19.2439 20.0714 18.9677 20.0714V20.5714ZM13.2903 20.5714V20.0714C13.0142 20.0714 12.7903 20.2953 12.7903 20.5714H13.2903ZM11.2258 27.4286H11.7258C11.7258 27.1524 11.5019 26.9286 11.2258 26.9286V27.4286ZM6.06452 27.4286V26.9286C5.78837 26.9286 5.56452 27.1524 5.56452 27.4286H6.06452ZM4 34.2857V33.7857C3.72386 33.7857 3.5 34.0096 3.5 34.2857H4ZM4 36H3.5C3.5 36.2761 3.72386 36.5 4 36.5V36ZM36 36V36.5C36.2761 36.5 36.5 36.2761 36.5 36H36ZM36 34.2857H36.5C36.5 34.0096 36.2761 33.7857 36 33.7857V34.2857ZM24.6452 32.0714C24.369 32.0714 24.1452 32.2953 24.1452 32.5714C24.1452 32.8476 24.369 33.0714 24.6452 33.0714V32.0714ZM24.6452 28.6429C24.369 28.6429 24.1452 28.8667 24.1452 29.1429C24.1452 29.419 24.369 29.6429 24.6452 29.6429V28.6429ZM24.6452 25.2143C24.369 25.2143 24.1452 25.4381 24.1452 25.7143C24.1452 25.9904 24.369 26.2143 24.6452 26.2143V25.2143ZM24.6452 22.3571C24.369 22.3571 24.1452 22.581 24.1452 22.8571C24.1452 23.1333 24.369 23.3571 24.6452 23.3571V22.3571ZM24.6452 19.5C24.369 19.5 24.1452 19.7239 24.1452 20C24.1452 20.2761 24.369 20.5 24.6452 20.5V19.5ZM24.6452 16.6429C24.369 16.6429 24.1452 16.8667 24.1452 17.1429C24.1452 17.419 24.369 17.6429 24.6452 17.6429V16.6429ZM24.6452 14.0714C24.369 14.0714 24.1452 14.2953 24.1452 14.5714C24.1452 14.8476 24.369 15.0714 24.6452 15.0714V14.0714ZM22.5806 16.5C22.8568 16.5 23.0806 16.2761 23.0806 16C23.0806 15.7239 22.8568 15.5 22.5806 15.5V16.5ZM22.5806 19.3571C22.8568 19.3571 23.0806 19.1333 23.0806 18.8571C23.0806 18.581 22.8568 18.3571 22.5806 18.3571V19.3571ZM22.5806 22.2143C22.8568 22.2143 23.0806 21.9904 23.0806 21.7143C23.0806 21.4381 22.8568 21.2143 22.5806 21.2143V22.2143ZM22.5806 25.0714C22.8568 25.0714 23.0806 24.8476 23.0806 24.5714C23.0806 24.2953 22.8568 24.0714 22.5806 24.0714V25.0714ZM22.5806 27.9286C22.8568 27.9286 23.0806 27.7047 23.0806 27.4286C23.0806 27.1524 22.8568 26.9286 22.5806 26.9286V27.9286ZM22.5806 31.3571C22.8568 31.3571 23.0806 31.1333 23.0806 30.8571C23.0806 30.581 22.8568 30.3571 22.5806 30.3571V31.3571ZM9.67742 32.0714C9.40128 32.0714 9.17742 32.2953 9.17742 32.5714C9.17742 32.8476 9.40128 33.0714 9.67742 33.0714V32.0714ZM9.67742 29.5C9.40128 29.5 9.17742 29.7239 9.17742 30C9.17742 30.2761 9.40128 30.5 9.67742 30.5V29.5ZM5.69346 17.9506C5.50837 18.1555 5.52445 18.4717 5.72937 18.6568C5.9343 18.8419 6.25047 18.8258 6.43557 18.6209L5.69346 17.9506ZM18.9677 4L13.474 5.77556L17.7586 9.64546L18.9677 4ZM34.4355 34.2857V4H33.4355V34.2857H34.4355ZM33.9355 3.5H27.7419V4.5H33.9355V3.5ZM27.2419 4V34.2857H28.2419V4H27.2419ZM26.1935 34.7857H27.7419V33.7857H26.1935V34.7857ZM26.1935 11.5H20.5161V12.5H26.1935V11.5ZM20.5161 34.7857H26.1935V33.7857H20.5161V34.7857ZM18.9677 34.7857H20.5161V33.7857H18.9677V34.7857ZM19.4677 34.2857V20.5714H18.4677V34.2857H19.4677ZM18.9677 20.0714H13.2903V21.0714H18.9677V20.0714ZM12.7903 20.5714V34.2857H13.7903V20.5714H12.7903ZM11.2258 34.7857H13.2903V33.7857H11.2258V34.7857ZM11.2258 26.9286H6.06452V27.9286H11.2258V26.9286ZM6.06452 34.7857H11.2258V33.7857H6.06452V34.7857ZM4 36.5H36V35.5H4V36.5ZM36.5 36V34.2857H35.5V36H36.5ZM26.6935 34.2857V32.5714H25.6935V34.2857H26.6935ZM26.1935 32.0714H24.6452V33.0714H26.1935V32.0714ZM26.6935 32.5714V29.1429H25.6935V32.5714H26.6935ZM26.1935 28.6429H24.6452V29.6429H26.1935V28.6429ZM26.6935 29.1429V25.7143H25.6935V29.1429H26.6935ZM26.1935 25.2143H24.6452V26.2143H26.1935V25.2143ZM26.6935 25.7143V22.8571H25.6935V25.7143H26.6935ZM26.1935 22.3571H24.6452V23.3571H26.1935V22.3571ZM26.6935 22.8571V20H25.6935V22.8571H26.6935ZM26.1935 19.5H24.6452V20.5H26.1935V19.5ZM26.6935 20V17.1429H25.6935V20H26.6935ZM26.1935 16.6429H24.6452V17.6429H26.1935V16.6429ZM26.6935 17.1429V14.5714H25.6935V17.1429H26.6935ZM26.6935 14.5714V12H25.6935V14.5714H26.6935ZM26.1935 14.0714H24.6452V15.0714H26.1935V14.0714ZM20.0161 12V16H21.0161V12H20.0161ZM20.5161 16.5H22.5806V15.5H20.5161V16.5ZM20.0161 16V18.8571H21.0161V16H20.0161ZM20.5161 19.3571H22.5806V18.3571H20.5161V19.3571ZM20.0161 18.8571V21.7143H21.0161V18.8571H20.0161ZM20.5161 22.2143H22.5806V21.2143H20.5161V22.2143ZM20.0161 21.7143V24.5714H21.0161V21.7143H20.0161ZM20.5161 25.0714H22.5806V24.0714H20.5161V25.0714ZM20.0161 24.5714V27.4286H21.0161V24.5714H20.0161ZM20.5161 27.9286H22.5806V26.9286H20.5161V27.9286ZM20.0161 27.4286V30.8571H21.0161V27.4286H20.0161ZM20.0161 30.8571V34.2857H21.0161V30.8571H20.0161ZM20.5161 31.3571H22.5806V30.3571H20.5161V31.3571ZM11.7258 34.2857V32.5714H10.7258V34.2857H11.7258ZM11.2258 32.0714H9.67742V33.0714H11.2258V32.0714ZM11.7258 32.5714V30H10.7258V32.5714H11.7258ZM11.7258 30V27.4286H10.7258V30H11.7258ZM11.2258 29.5H9.67742V30.5H11.2258V29.5ZM5.56452 27.4286V30.8571H6.56452V27.4286H5.56452ZM5.56452 30.8571V34.2857H6.56452V30.8571H5.56452ZM18.9677 33.7857H16.129V34.7857H18.9677V33.7857ZM16.129 33.7857H13.2903V34.7857H16.129V33.7857ZM27.7419 34.7857H30.8387V33.7857H27.7419V34.7857ZM30.8387 34.7857H33.9355V33.7857H30.8387V34.7857ZM6.43557 18.6209L16.3225 7.67461L15.5804 7.00432L5.69346 17.9506L6.43557 18.6209ZM33.9355 34.7857H36V33.7857H33.9355V34.7857ZM4 34.7857H6.06452V33.7857H4V34.7857ZM3.5 34.2857V36H4.5V34.2857H3.5Z" fill="#FF0303"/>
<path d="M33.9355 4H34.4355C34.4355 3.72386 34.2116 3.5 33.9355 3.5V4ZM27.7419 4V3.5C27.4658 3.5 27.2419 3.72386 27.2419 4H27.7419ZM26.1935 12H26.6935C26.6935 11.7239 26.4697 11.5 26.1935 11.5V12ZM20.5161 12V11.5C20.24 11.5 20.0161 11.7239 20.0161 12H20.5161ZM18.9677 20.5714H19.4677C19.4677 20.2953 19.2439 20.0714 18.9677 20.0714V20.5714ZM13.2903 20.5714V20.0714C13.0142 20.0714 12.7903 20.2953 12.7903 20.5714H13.2903ZM11.2258 27.4286H11.7258C11.7258 27.1524 11.5019 26.9286 11.2258 26.9286V27.4286ZM6.06452 27.4286V26.9286C5.78837 26.9286 5.56452 27.1524 5.56452 27.4286H6.06452ZM4 34.2857V33.7857C3.72386 33.7857 3.5 34.0096 3.5 34.2857H4ZM4 36H3.5C3.5 36.2761 3.72386 36.5 4 36.5V36ZM36 36V36.5C36.2761 36.5 36.5 36.2761 36.5 36H36ZM36 34.2857H36.5C36.5 34.0096 36.2761 33.7857 36 33.7857V34.2857ZM24.6452 32.0714C24.369 32.0714 24.1452 32.2953 24.1452 32.5714C24.1452 32.8476 24.369 33.0714 24.6452 33.0714V32.0714ZM24.6452 28.6429C24.369 28.6429 24.1452 28.8667 24.1452 29.1429C24.1452 29.419 24.369 29.6429 24.6452 29.6429V28.6429ZM24.6452 25.2143C24.369 25.2143 24.1452 25.4381 24.1452 25.7143C24.1452 25.9904 24.369 26.2143 24.6452 26.2143V25.2143ZM24.6452 22.3571C24.369 22.3571 24.1452 22.581 24.1452 22.8571C24.1452 23.1333 24.369 23.3571 24.6452 23.3571V22.3571ZM24.6452 19.5C24.369 19.5 24.1452 19.7239 24.1452 20C24.1452 20.2761 24.369 20.5 24.6452 20.5V19.5ZM24.6452 16.6429C24.369 16.6429 24.1452 16.8667 24.1452 17.1429C24.1452 17.419 24.369 17.6429 24.6452 17.6429V16.6429ZM24.6452 14.0714C24.369 14.0714 24.1452 14.2953 24.1452 14.5714C24.1452 14.8476 24.369 15.0714 24.6452 15.0714V14.0714ZM22.5806 16.5C22.8568 16.5 23.0806 16.2761 23.0806 16C23.0806 15.7239 22.8568 15.5 22.5806 15.5V16.5ZM22.5806 19.3571C22.8568 19.3571 23.0806 19.1333 23.0806 18.8571C23.0806 18.581 22.8568 18.3571 22.5806 18.3571V19.3571ZM22.5806 22.2143C22.8568 22.2143 23.0806 21.9904 23.0806 21.7143C23.0806 21.4381 22.8568 21.2143 22.5806 21.2143V22.2143ZM22.5806 25.0714C22.8568 25.0714 23.0806 24.8476 23.0806 24.5714C23.0806 24.2953 22.8568 24.0714 22.5806 24.0714V25.0714ZM22.5806 27.9286C22.8568 27.9286 23.0806 27.7047 23.0806 27.4286C23.0806 27.1524 22.8568 26.9286 22.5806 26.9286V27.9286ZM22.5806 31.3571C22.8568 31.3571 23.0806 31.1333 23.0806 30.8571C23.0806 30.581 22.8568 30.3571 22.5806 30.3571V31.3571ZM9.67742 32.0714C9.40128 32.0714 9.17742 32.2953 9.17742 32.5714C9.17742 32.8476 9.40128 33.0714 9.67742 33.0714V32.0714ZM9.67742 29.5C9.40128 29.5 9.17742 29.7239 9.17742 30C9.17742 30.2761 9.40128 30.5 9.67742 30.5V29.5ZM5.69346 17.9506C5.50837 18.1555 5.52445 18.4717 5.72937 18.6568C5.9343 18.8419 6.25047 18.8258 6.43557 18.6209L5.69346 17.9506ZM18.9677 4L13.474 5.77556L17.7586 9.64546L18.9677 4ZM34.4355 34.2857V4H33.4355V34.2857H34.4355ZM33.9355 3.5H27.7419V4.5H33.9355V3.5ZM27.2419 4V34.2857H28.2419V4H27.2419ZM26.1935 34.7857H27.7419V33.7857H26.1935V34.7857ZM26.1935 11.5H20.5161V12.5H26.1935V11.5ZM20.5161 34.7857H26.1935V33.7857H20.5161V34.7857ZM18.9677 34.7857H20.5161V33.7857H18.9677V34.7857ZM19.4677 34.2857V20.5714H18.4677V34.2857H19.4677ZM18.9677 20.0714H13.2903V21.0714H18.9677V20.0714ZM12.7903 20.5714V34.2857H13.7903V20.5714H12.7903ZM11.2258 34.7857H13.2903V33.7857H11.2258V34.7857ZM11.2258 26.9286H6.06452V27.9286H11.2258V26.9286ZM6.06452 34.7857H11.2258V33.7857H6.06452V34.7857ZM4 36.5H36V35.5H4V36.5ZM36.5 36V34.2857H35.5V36H36.5ZM26.6935 34.2857V32.5714H25.6935V34.2857H26.6935ZM26.1935 32.0714H24.6452V33.0714H26.1935V32.0714ZM26.6935 32.5714V29.1429H25.6935V32.5714H26.6935ZM26.1935 28.6429H24.6452V29.6429H26.1935V28.6429ZM26.6935 29.1429V25.7143H25.6935V29.1429H26.6935ZM26.1935 25.2143H24.6452V26.2143H26.1935V25.2143ZM26.6935 25.7143V22.8571H25.6935V25.7143H26.6935ZM26.1935 22.3571H24.6452V23.3571H26.1935V22.3571ZM26.6935 22.8571V20H25.6935V22.8571H26.6935ZM26.1935 19.5H24.6452V20.5H26.1935V19.5ZM26.6935 20V17.1429H25.6935V20H26.6935ZM26.1935 16.6429H24.6452V17.6429H26.1935V16.6429ZM26.6935 17.1429V14.5714H25.6935V17.1429H26.6935ZM26.6935 14.5714V12H25.6935V14.5714H26.6935ZM26.1935 14.0714H24.6452V15.0714H26.1935V14.0714ZM20.0161 12V16H21.0161V12H20.0161ZM20.5161 16.5H22.5806V15.5H20.5161V16.5ZM20.0161 16V18.8571H21.0161V16H20.0161ZM20.5161 19.3571H22.5806V18.3571H20.5161V19.3571ZM20.0161 18.8571V21.7143H21.0161V18.8571H20.0161ZM20.5161 22.2143H22.5806V21.2143H20.5161V22.2143ZM20.0161 21.7143V24.5714H21.0161V21.7143H20.0161ZM20.5161 25.0714H22.5806V24.0714H20.5161V25.0714ZM20.0161 24.5714V27.4286H21.0161V24.5714H20.0161ZM20.5161 27.9286H22.5806V26.9286H20.5161V27.9286ZM20.0161 27.4286V30.8571H21.0161V27.4286H20.0161ZM20.0161 30.8571V34.2857H21.0161V30.8571H20.0161ZM20.5161 31.3571H22.5806V30.3571H20.5161V31.3571ZM11.7258 34.2857V32.5714H10.7258V34.2857H11.7258ZM11.2258 32.0714H9.67742V33.0714H11.2258V32.0714ZM11.7258 32.5714V30H10.7258V32.5714H11.7258ZM11.7258 30V27.4286H10.7258V30H11.7258ZM11.2258 29.5H9.67742V30.5H11.2258V29.5ZM5.56452 27.4286V30.8571H6.56452V27.4286H5.56452ZM5.56452 30.8571V34.2857H6.56452V30.8571H5.56452ZM18.9677 33.7857H16.129V34.7857H18.9677V33.7857ZM16.129 33.7857H13.2903V34.7857H16.129V33.7857ZM27.7419 34.7857H30.8387V33.7857H27.7419V34.7857ZM30.8387 34.7857H33.9355V33.7857H30.8387V34.7857ZM6.43557 18.6209L16.3225 7.67461L15.5804 7.00432L5.69346 17.9506L6.43557 18.6209ZM33.9355 34.7857H36V33.7857H33.9355V34.7857ZM4 34.7857H6.06452V33.7857H4V34.7857ZM3.5 34.2857V36H4.5V34.2857H3.5Z" fill="black" fill-opacity="0.2"/>
</svg>
