<svg width="40" height="40" viewBox="0 0 40 40" fill="none" xmlns="http://www.w3.org/2000/svg">
<path d="M20 23.6522V32M20 23.6522C21.0303 23.6522 23.0909 22.9217 23.0909 20C23.0909 17.0783 21.0303 16.3478 20 16.3478M20 23.6522V16.3478M20 23.6522C18.9697 23.6522 16.9091 22.9217 16.9091 20C16.9091 17.0783 18.9697 16.3478 20 16.3478M20 32H37V29.3913M20 32H3V29.3913M37 29.3913V22.6087M37 29.3913C33.3939 29.7391 26.1818 28.3478 26.1818 20C26.1818 11.6522 33.3939 10.2609 37 10.6087M37 22.6087H32.8788M37 22.6087V17.3913M32.8788 22.6087C31.8485 22.7826 29.7879 22.5043 29.7879 20C29.7879 17.4957 31.8485 17.2174 32.8788 17.3913M32.8788 22.6087V17.3913M20 16.3478V8M20 8H37V10.6087M20 8H3V10.6087M37 10.6087V17.3913M37 17.3913H32.8788M3 29.3913V22.6087M3 29.3913C6.60606 29.7391 13.8182 28.3478 13.8182 20C13.8182 11.6522 6.60606 10.2609 3 10.6087M3 22.6087H7.12121M3 22.6087V17.3913M7.12121 22.6087C8.15152 22.7826 10.2121 22.5043 10.2121 20C10.2121 17.4957 8.15152 17.2174 7.12121 17.3913M7.12121 22.6087V17.3913M3 10.6087V17.3913M3 17.3913H7.12121" stroke="#FF0303"/>
<path d="M20 23.6522V32M20 23.6522C21.0303 23.6522 23.0909 22.9217 23.0909 20C23.0909 17.0783 21.0303 16.3478 20 16.3478M20 23.6522V16.3478M20 23.6522C18.9697 23.6522 16.9091 22.9217 16.9091 20C16.9091 17.0783 18.9697 16.3478 20 16.3478M20 32H37V29.3913M20 32H3V29.3913M37 29.3913V22.6087M37 29.3913C33.3939 29.7391 26.1818 28.3478 26.1818 20C26.1818 11.6522 33.3939 10.2609 37 10.6087M37 22.6087H32.8788M37 22.6087V17.3913M32.8788 22.6087C31.8485 22.7826 29.7879 22.5043 29.7879 20C29.7879 17.4957 31.8485 17.2174 32.8788 17.3913M32.8788 22.6087V17.3913M20 16.3478V8M20 8H37V10.6087M20 8H3V10.6087M37 10.6087V17.3913M37 17.3913H32.8788M3 29.3913V22.6087M3 29.3913C6.60606 29.7391 13.8182 28.3478 13.8182 20C13.8182 11.6522 6.60606 10.2609 3 10.6087M3 22.6087H7.12121M3 22.6087V17.3913M7.12121 22.6087C8.15152 22.7826 10.2121 22.5043 10.2121 20C10.2121 17.4957 8.15152 17.2174 7.12121 17.3913M7.12121 22.6087V17.3913M3 10.6087V17.3913M3 17.3913H7.12121" stroke="black" stroke-opacity="0.2"/>
</svg>
