<svg width="100" height="100" viewBox="0 0 100 100" fill="none" xmlns="http://www.w3.org/2000/svg">
<g clip-path="url(#clip0)">
<path d="M91.8461 43.0238C82.4117 28.4592 94.5199 15.0033 95.0416 14.4381C95.8421 13.5984 95.8421 12.2778 95.0416 11.4382L84.4986 0.743016C83.7367 -0.0303199 82.5212 -0.122979 81.6509 0.525634C75.7381 4.87327 70.0862 7.04709 64.8907 7.04709C59.8086 7.07698 54.9781 4.83713 51.7174 0.93866C51.3207 0.366674 50.6742 0.0191344 49.9783 0.00391771C49.2778 -0.0430911 48.6059 0.288688 48.2176 0.873445C44.9612 4.78007 40.1301 7.02807 35.0442 7.00361C29.8488 7.00361 24.1751 4.82979 18.2841 0.482158C17.4137 -0.166455 16.1983 -0.0737963 15.4364 0.69954L4.93682 11.3947C4.13632 12.2344 4.13632 13.555 4.93682 14.3946C5.06725 14.525 17.6319 28.3505 8.15408 42.8934C2.65432 51.3278 2.54562 63.762 7.84974 74.5876C14.9364 89.1305 30.2401 98.3257 49.8044 99.9996H50.1523C69.7166 98.4127 84.9333 89.1305 92.1504 74.7181C97.4545 63.849 97.3458 51.4582 91.8461 43.0238ZM88.2375 72.7181C81.8465 85.7611 67.8906 94.065 49.9783 95.565C32.0443 94.065 18.1102 85.7393 11.7191 72.7181C7.06717 63.2403 7.0889 52.5016 11.7191 45.3063C20.9579 31.133 12.7626 17.6553 9.34968 13.112L17.1972 5.13413C22.3545 8.99646 28.5627 11.2021 35.0007 11.4599C40.579 11.4817 45.9481 9.33857 49.9783 5.48194C53.9923 9.32308 59.335 11.4648 64.8907 11.4599C71.3288 11.2023 77.5369 8.99646 82.6943 5.13413L90.5418 13.0468C87.1506 17.6118 78.9553 31.0895 88.1723 45.2411C92.8678 52.4799 92.8895 63.2403 88.2375 72.7181Z" fill="#146EB4"/>
<g clip-path="url(#clip1)">
<path d="M72.7074 35.5942H27.2547C24.8449 35.5942 22.8843 37.5548 22.8843 39.9646V69.6837C22.8843 72.0935 24.8449 74.0541 27.2547 74.0541H38.0165C40.1222 79.0154 41.2401 84.3771 41.2401 89.7877L42.9883 89.7737C42.9883 88.2249 42.8869 86.6803 42.7156 85.1446L42.7322 85.1612L43.8624 84.031L45.6858 85.8543L43.2444 88.2957L44.4804 89.5316L46.9217 87.0903L49.3631 89.5316L49.981 88.9136L50.599 89.5316L53.0404 87.0903L55.4817 89.5316L56.7176 88.2957L54.2763 85.8543L57.6258 82.5048C57.2028 84.9042 56.9738 87.3412 56.9738 89.7877L58.7219 89.7737C58.7219 84.3745 59.8399 79.0146 61.9456 74.0541H72.7074C75.1172 74.0541 77.0778 72.0935 77.0778 69.6837V39.9646C77.0778 37.5548 75.1172 35.5942 72.7074 35.5942ZM62.2183 65.3132H37.7438V49.5796H62.2183V65.3132ZM63.9665 67.0614V68.8096H35.9956V67.0614H63.9665ZM54.8637 70.5578L53.0404 72.3811L51.217 70.5578H54.8637ZM56.0997 71.7937L57.923 73.6171L56.0997 75.4404L54.2763 73.6171L56.0997 71.7937ZM51.8044 73.6171L49.981 75.4404L48.1577 73.6171L49.981 71.7937L51.8044 73.6171ZM48.7451 70.5578L46.9217 72.3811L45.0984 70.5578H48.7451ZM42.6265 70.5578L40.8031 72.3811L38.9798 70.5578H42.6265ZM42.6265 76.6764L41.283 78.0199C40.8757 76.6248 40.4028 75.2499 39.853 73.9038L42.6265 76.6764ZM42.0391 73.6171L43.8624 71.7937L45.6858 73.6171L43.8624 75.4404L42.0391 73.6171ZM46.9217 74.853L48.7451 76.6764L46.9217 78.4997L45.0984 76.6764L46.9217 74.853ZM49.981 77.9123L51.8044 79.7357L49.981 81.559L48.1577 79.7357L49.981 77.9123ZM51.217 76.6764L53.0404 74.853L54.8637 76.6764L53.0404 78.4997L51.217 76.6764ZM56.0997 77.9123L57.923 79.7357L56.0997 81.559L54.2763 79.7357L56.0997 77.9123ZM57.3356 76.6764L59.159 74.853L59.5812 75.2752C59.2481 76.1799 58.9492 77.0951 58.6791 78.0199L57.3356 76.6764ZM57.3356 70.5578H61.6554C61.1589 71.5219 60.7 72.5044 60.2804 73.5026L57.3356 70.5578ZM42.4158 83.0057C42.2488 81.9856 42.0496 80.9717 41.8074 79.9673L43.8624 77.9123L45.6858 79.7357L42.4158 83.0057ZM45.0984 82.795L46.9217 80.9717L48.7451 82.795L46.9217 84.6184L45.0984 82.795ZM49.981 87.6777L48.1577 85.8543L49.981 84.031L51.8044 85.8543L49.981 87.6777ZM51.217 82.795L53.0404 80.9717L54.8637 82.795L53.0404 84.6184L51.217 82.795ZM75.3296 69.6837C75.3296 71.1294 74.1531 72.3059 72.7074 72.3059H62.7296C63.0128 71.7177 63.3004 71.132 63.6125 70.5578H64.8406C65.3239 70.5578 65.7147 70.167 65.7147 69.6837V66.1873C65.7147 65.7039 65.3239 65.3132 64.8406 65.3132H63.9665V48.7055C63.9665 48.2221 63.5758 47.8314 63.0924 47.8314H36.8697C36.3863 47.8314 35.9956 48.2221 35.9956 48.7055V65.3132H35.1215C34.6382 65.3132 34.2474 65.7039 34.2474 66.1873V69.6837C34.2474 70.167 34.6382 70.5578 35.1215 70.5578H36.3496C36.6617 71.132 36.9492 71.7177 37.2324 72.3059H27.2547C25.809 72.3059 24.6324 71.1294 24.6324 69.6837V39.9646C24.6324 38.5189 25.809 37.3424 27.2547 37.3424H72.7074C74.1531 37.3424 75.3296 38.5189 75.3296 39.9646V69.6837Z" fill="#146EB4"/>
<path d="M72.738 39.058H27.2239C26.7398 39.058 26.3486 39.4483 26.3486 39.931V69.6124C26.3486 70.0952 26.7398 70.4854 27.2239 70.4854H32.4755V68.7394H28.0991V40.804H71.8628V68.7394H67.4864V70.4854H72.738C73.2221 70.4854 73.6133 70.0952 73.6133 69.6124V39.931C73.6133 39.4483 73.2221 39.058 72.738 39.058Z" fill="#146EB4"/>
</g>
<path d="M41.2625 13.2625C40.4484 14.0766 40 15.159 40 16.3103C40 17.4617 40.4484 18.5441 41.2625 19.3582C42.0766 20.1723 43.159 20.6207 44.3103 20.6207C45.4617 20.6207 46.5441 20.1723 47.3582 19.3582C48.1723 18.5441 48.6207 17.4617 48.6207 16.3103C48.6207 15.159 48.1723 14.0766 47.3582 13.2625C46.5441 12.4484 45.4617 12 44.3103 12C43.159 12 42.0766 12.4484 41.2625 13.2625ZM48.3624 16.4384C48.3305 17.4733 47.9126 18.4417 47.1771 19.1772C47.1747 19.1796 47.1722 19.1819 47.1698 19.1844C46.8106 18.8274 46.5249 18.4127 46.32 17.9499C46.1082 17.4714 45.9932 16.9635 45.9771 16.4384L48.3624 16.4384ZM44.1823 16.4384V18.8538H44.4384V16.4384H45.7208C45.737 16.9994 45.8595 17.5422 46.0859 18.0536C46.3025 18.5427 46.6039 18.9813 46.9826 19.3592C46.2748 19.9813 45.3845 20.3333 44.4384 20.3624V19.1953H44.1823V20.3624C43.2362 20.3333 42.3459 19.9814 41.6381 19.3592C42.0167 18.9813 42.3182 18.5427 42.5348 18.0535C42.7612 17.5421 42.8837 16.9994 42.8998 16.4384H44.1823ZM42.6436 16.4384C42.6275 16.9634 42.5125 17.4713 42.3006 17.9499C42.0958 18.4127 41.8101 18.8274 41.4509 19.1843C41.4485 19.1819 41.446 19.1796 41.4435 19.1771C40.7081 18.4417 40.2902 17.4733 40.2583 16.4384L42.6436 16.4384ZM40.2583 16.1823C40.2902 15.1474 40.708 14.179 41.4435 13.4435C41.446 13.4411 41.4485 13.4388 41.4509 13.4363C41.8101 13.7933 42.0958 14.208 42.3006 14.6708C42.5125 15.1493 42.6275 15.6572 42.6436 16.1823L40.2583 16.1823ZM44.1823 16.1823H42.8999C42.8837 15.6213 42.7612 15.0785 42.5348 14.5671C42.3182 14.0779 42.0168 13.6394 41.6381 13.2615C42.3459 12.6394 43.2362 12.2874 44.1823 12.2583L44.1823 16.1823ZM47.1772 13.4435C47.9126 14.179 48.3305 15.1474 48.3624 16.1823H45.9771C45.9931 15.6573 46.1082 15.1493 46.32 14.6708C46.5249 14.208 46.8106 13.7933 47.1698 13.4364C47.1722 13.4388 47.1747 13.4411 47.1772 13.4435ZM46.0859 14.5672C45.8595 15.0785 45.737 15.6213 45.7208 16.1823H44.4384V12.2583C45.3845 12.2875 46.2748 12.6394 46.9826 13.2615C46.6039 13.6394 46.3025 14.0779 46.0859 14.5672Z" fill="#146EB4" stroke="#146EB4" stroke-width="0.3"/>
<path d="M52.6418 24.6418C51.8277 25.4559 51.3793 26.5383 51.3793 27.6897C51.3793 28.841 51.8277 29.9234 52.6418 30.7375C53.4559 31.5517 54.5384 32 55.6897 32C56.841 32 57.9234 31.5517 58.7376 30.7375C59.5517 29.9234 60 28.841 60 27.6897C60 26.5383 59.5517 25.4559 58.7376 24.6418C57.9234 23.8277 56.841 23.3793 55.6897 23.3793C54.5384 23.3793 53.4559 23.8277 52.6418 24.6418ZM59.7418 27.8177C59.7098 28.8527 59.292 29.821 58.5565 30.5565C58.5541 30.5589 58.5516 30.5613 58.5492 30.5637C58.1899 30.2067 57.9043 29.792 57.6994 29.3292C57.4875 28.8507 57.3725 28.3428 57.3564 27.8177L59.7418 27.8177ZM55.5617 27.8177V30.2331H55.8177V27.8177H57.1002C57.1164 28.3787 57.2389 28.9215 57.4652 29.4329C57.6818 29.9221 57.9833 30.3606 58.362 30.7386C57.6542 31.3607 56.7638 31.7126 55.8177 31.7418V30.5746H55.5616V31.7418C54.6155 31.7126 53.7252 31.3607 53.0174 30.7386C53.3961 30.3606 53.6976 29.9221 53.9141 29.4329C54.1405 28.9215 54.263 28.3787 54.2792 27.8177H55.5617ZM54.023 27.8177C54.0069 28.3428 53.8918 28.8507 53.68 29.3292C53.4751 29.792 53.1894 30.2067 52.8303 30.5637C52.8278 30.5612 52.8253 30.5589 52.8229 30.5565C52.0874 29.821 51.6695 28.8526 51.6376 27.8177L54.023 27.8177ZM51.6376 27.5616C51.6695 26.5267 52.0874 25.5583 52.8229 24.8229C52.8253 24.8204 52.8278 24.8181 52.8302 24.8157C53.1894 25.1726 53.4751 25.5873 53.68 26.0501C53.8918 26.5287 54.0069 27.0366 54.023 27.5616L51.6376 27.5616ZM55.5617 27.5616H54.2792C54.263 27.0006 54.1405 26.4579 53.9142 25.9465C53.6976 25.4573 53.3961 25.0187 53.0174 24.6408C53.7252 24.0187 54.6156 23.6668 55.5617 23.6376L55.5617 27.5616ZM58.5565 24.8229C59.292 25.5583 59.7099 26.5267 59.7418 27.5616H57.3564C57.3725 27.0366 57.4875 26.5287 57.6994 26.0502C57.9043 25.5873 58.1899 25.1727 58.5491 24.8157C58.5516 24.8181 58.5541 24.8204 58.5565 24.8229ZM57.4653 25.9465C57.2389 26.4579 57.1164 27.0006 57.1002 27.5616H55.8177V23.6376C56.7639 23.6668 57.6542 24.0187 58.362 24.6408C57.9833 25.0187 57.6818 25.4573 57.4653 25.9465Z" fill="#146EB4" stroke="#146EB4" stroke-width="0.3"/>
<rect x="54" y="12" width="2" height="20" rx="1" transform="rotate(30 54 12)" fill="#146EB4"/>
</g>
<defs>
<clipPath id="clip0">
<rect width="100" height="100" fill="white"/>
</clipPath>
<clipPath id="clip1">
<rect width="56" height="56" fill="white" transform="translate(22 90) rotate(-90)"/>
</clipPath>
</defs>
</svg>
