<svg width="26" height="34" viewBox="0 0 26 34" fill="none" xmlns="http://www.w3.org/2000/svg">
<path d="M7.50049 25.5L7.14693 25.8536C7.2407 25.9473 7.36788 26 7.50049 26V25.5ZM6.00049 24H5.50049C5.50049 24.1326 5.55317 24.2598 5.64693 24.3536L6.00049 24ZM6.00049 15H6.50049V14.5H6.00049V15ZM1.00049 15H0.500488C0.500488 15.2761 0.724346 15.5 1.00049 15.5V15ZM1.00049 13L0.646935 12.6464C0.553167 12.7402 0.500488 12.8674 0.500488 13H1.00049ZM13.0005 1L13.354 0.646447L13.0005 0.292893L12.6469 0.646447L13.0005 1ZM18.5005 25.5V26C18.6331 26 18.7603 25.9473 18.854 25.8536L18.5005 25.5ZM20.0005 24L20.354 24.3536C20.4478 24.2598 20.5005 24.1326 20.5005 24H20.0005ZM20.0005 15V14.5H19.5005V15H20.0005ZM25.0005 15V15.5C25.2766 15.5 25.5005 15.2761 25.5005 15H25.0005ZM25.0005 13H25.5005C25.5005 12.8674 25.4478 12.7402 25.354 12.6464L25.0005 13ZM8.00049 23.5C7.72435 23.5 7.50049 23.7239 7.50049 24C7.50049 24.2761 7.72435 24.5 8.00049 24.5V23.5ZM18.0005 24.5C18.2766 24.5 18.5005 24.2761 18.5005 24C18.5005 23.7239 18.2766 23.5 18.0005 23.5V24.5ZM7.50049 27V26.5C7.36788 26.5 7.2407 26.5527 7.14693 26.6464L7.50049 27ZM6.50049 28L6.14693 27.6464C6.05317 27.7402 6.00049 27.8674 6.00049 28H6.50049ZM6.50049 33H6.00049C6.00049 33.2761 6.22435 33.5 6.50049 33.5V33ZM19.5005 33V33.5C19.7766 33.5 20.0005 33.2761 20.0005 33H19.5005ZM19.5005 28H20.0005C20.0005 27.8674 19.9478 27.7402 19.854 27.6464L19.5005 28ZM18.5005 27L18.854 26.6464C18.7603 26.5527 18.6331 26.5 18.5005 26.5V27ZM8.00049 29.5H8.50049C8.50049 29.2239 8.27663 29 8.00049 29V29.5ZM8.00049 31V31.5C8.27663 31.5 8.50049 31.2761 8.50049 31H8.00049ZM18.0005 31H17.5005C17.5005 31.2761 17.7243 31.5 18.0005 31.5V31ZM18.0005 29.5V29C17.7243 29 17.5005 29.2239 17.5005 29.5H18.0005ZM10.0005 29.5V29C9.72435 29 9.50049 29.2239 9.50049 29.5H10.0005ZM10.0005 31H9.50049C9.50049 31.2761 9.72435 31.5 10.0005 31.5V31ZM11.5005 31V31.5C11.7766 31.5 12.0005 31.2761 12.0005 31H11.5005ZM11.5005 29.5H12.0005C12.0005 29.2239 11.7766 29 11.5005 29V29.5ZM16.0005 29.5H16.5005C16.5005 29.2239 16.2766 29 16.0005 29V29.5ZM16.0005 31V31.5C16.2766 31.5 16.5005 31.2761 16.5005 31H16.0005ZM14.5005 31H14.0005C14.0005 31.2761 14.2243 31.5 14.5005 31.5V31ZM14.5005 29.5V29C14.2243 29 14.0005 29.2239 14.0005 29.5H14.5005ZM13.0005 3L13.354 2.64645L13.0005 2.29289L12.6469 2.64645L13.0005 3ZM9.64693 5.64645C9.45167 5.84171 9.45167 6.15829 9.64693 6.35355C9.8422 6.54882 10.1588 6.54882 10.354 6.35355L9.64693 5.64645ZM15.6469 6.35355C15.8422 6.54882 16.1588 6.54882 16.354 6.35355C16.5493 6.15829 16.5493 5.84171 16.354 5.64645L15.6469 6.35355ZM7.85404 25.1464L6.35404 23.6464L5.64693 24.3536L7.14693 25.8536L7.85404 25.1464ZM6.50049 24V15H5.50049V24H6.50049ZM6.00049 14.5H1.00049V15.5H6.00049V14.5ZM1.50049 15V13H0.500488V15H1.50049ZM1.35404 13.3536L13.354 1.35355L12.6469 0.646447L0.646935 12.6464L1.35404 13.3536ZM18.854 25.8536L20.354 24.3536L19.6469 23.6464L18.1469 25.1464L18.854 25.8536ZM20.5005 24V15H19.5005V24H20.5005ZM20.0005 15.5H25.0005V14.5H20.0005V15.5ZM25.5005 15V13H24.5005V15H25.5005ZM25.354 12.6464L13.354 0.646447L12.6469 1.35355L24.6469 13.3536L25.354 12.6464ZM18.5005 25H7.50049V26H18.5005V25ZM8.00049 24.5H18.0005V23.5H8.00049V24.5ZM7.14693 26.6464L6.14693 27.6464L6.85404 28.3536L7.85404 27.3536L7.14693 26.6464ZM6.50049 33.5H19.5005V32.5H6.50049V33.5ZM19.854 27.6464L18.854 26.6464L18.1469 27.3536L19.1469 28.3536L19.854 27.6464ZM6.00049 28V29.5H7.00049V28H6.00049ZM6.50049 30H8.00049V29H6.50049V30ZM7.50049 29.5V31H8.50049V29.5H7.50049ZM6.00049 29.5V31H7.00049V29.5H6.00049ZM6.00049 31V33H7.00049V31H6.00049ZM8.00049 30.5H6.50049V31.5H8.00049V30.5ZM20.0005 33V31H19.0005V33H20.0005ZM19.5005 30.5H18.0005V31.5H19.5005V30.5ZM18.5005 31V29.5H17.5005V31H18.5005ZM20.0005 31V29.5H19.0005V31H20.0005ZM20.0005 29.5V28H19.0005V29.5H20.0005ZM18.0005 30H19.5005V29H18.0005V30ZM9.50049 29.5V31H10.5005V29.5H9.50049ZM10.0005 31.5H11.5005V30.5H10.0005V31.5ZM12.0005 31V29.5H11.0005V31H12.0005ZM11.5005 29H10.0005V30H11.5005V29ZM15.5005 29.5V31H16.5005V29.5H15.5005ZM16.0005 30.5H14.5005V31.5H16.0005V30.5ZM15.0005 31V29.5H14.0005V31H15.0005ZM14.5005 30H16.0005V29H14.5005V30ZM12.6469 2.64645L9.64693 5.64645L10.354 6.35355L13.354 3.35355L12.6469 2.64645ZM12.6469 3.35355L15.6469 6.35355L16.354 5.64645L13.354 2.64645L12.6469 3.35355ZM18.5005 26.5H7.50049V27.5H18.5005V26.5Z" fill="#FF0303"/>
<path d="M7.50049 25.5L7.14693 25.8536C7.2407 25.9473 7.36788 26 7.50049 26V25.5ZM6.00049 24H5.50049C5.50049 24.1326 5.55317 24.2598 5.64693 24.3536L6.00049 24ZM6.00049 15H6.50049V14.5H6.00049V15ZM1.00049 15H0.500488C0.500488 15.2761 0.724346 15.5 1.00049 15.5V15ZM1.00049 13L0.646935 12.6464C0.553167 12.7402 0.500488 12.8674 0.500488 13H1.00049ZM13.0005 1L13.354 0.646447L13.0005 0.292893L12.6469 0.646447L13.0005 1ZM18.5005 25.5V26C18.6331 26 18.7603 25.9473 18.854 25.8536L18.5005 25.5ZM20.0005 24L20.354 24.3536C20.4478 24.2598 20.5005 24.1326 20.5005 24H20.0005ZM20.0005 15V14.5H19.5005V15H20.0005ZM25.0005 15V15.5C25.2766 15.5 25.5005 15.2761 25.5005 15H25.0005ZM25.0005 13H25.5005C25.5005 12.8674 25.4478 12.7402 25.354 12.6464L25.0005 13ZM8.00049 23.5C7.72435 23.5 7.50049 23.7239 7.50049 24C7.50049 24.2761 7.72435 24.5 8.00049 24.5V23.5ZM18.0005 24.5C18.2766 24.5 18.5005 24.2761 18.5005 24C18.5005 23.7239 18.2766 23.5 18.0005 23.5V24.5ZM7.50049 27V26.5C7.36788 26.5 7.2407 26.5527 7.14693 26.6464L7.50049 27ZM6.50049 28L6.14693 27.6464C6.05317 27.7402 6.00049 27.8674 6.00049 28H6.50049ZM6.50049 33H6.00049C6.00049 33.2761 6.22435 33.5 6.50049 33.5V33ZM19.5005 33V33.5C19.7766 33.5 20.0005 33.2761 20.0005 33H19.5005ZM19.5005 28H20.0005C20.0005 27.8674 19.9478 27.7402 19.854 27.6464L19.5005 28ZM18.5005 27L18.854 26.6464C18.7603 26.5527 18.6331 26.5 18.5005 26.5V27ZM8.00049 29.5H8.50049C8.50049 29.2239 8.27663 29 8.00049 29V29.5ZM8.00049 31V31.5C8.27663 31.5 8.50049 31.2761 8.50049 31H8.00049ZM18.0005 31H17.5005C17.5005 31.2761 17.7243 31.5 18.0005 31.5V31ZM18.0005 29.5V29C17.7243 29 17.5005 29.2239 17.5005 29.5H18.0005ZM10.0005 29.5V29C9.72435 29 9.50049 29.2239 9.50049 29.5H10.0005ZM10.0005 31H9.50049C9.50049 31.2761 9.72435 31.5 10.0005 31.5V31ZM11.5005 31V31.5C11.7766 31.5 12.0005 31.2761 12.0005 31H11.5005ZM11.5005 29.5H12.0005C12.0005 29.2239 11.7766 29 11.5005 29V29.5ZM16.0005 29.5H16.5005C16.5005 29.2239 16.2766 29 16.0005 29V29.5ZM16.0005 31V31.5C16.2766 31.5 16.5005 31.2761 16.5005 31H16.0005ZM14.5005 31H14.0005C14.0005 31.2761 14.2243 31.5 14.5005 31.5V31ZM14.5005 29.5V29C14.2243 29 14.0005 29.2239 14.0005 29.5H14.5005ZM13.0005 3L13.354 2.64645L13.0005 2.29289L12.6469 2.64645L13.0005 3ZM9.64693 5.64645C9.45167 5.84171 9.45167 6.15829 9.64693 6.35355C9.8422 6.54882 10.1588 6.54882 10.354 6.35355L9.64693 5.64645ZM15.6469 6.35355C15.8422 6.54882 16.1588 6.54882 16.354 6.35355C16.5493 6.15829 16.5493 5.84171 16.354 5.64645L15.6469 6.35355ZM7.85404 25.1464L6.35404 23.6464L5.64693 24.3536L7.14693 25.8536L7.85404 25.1464ZM6.50049 24V15H5.50049V24H6.50049ZM6.00049 14.5H1.00049V15.5H6.00049V14.5ZM1.50049 15V13H0.500488V15H1.50049ZM1.35404 13.3536L13.354 1.35355L12.6469 0.646447L0.646935 12.6464L1.35404 13.3536ZM18.854 25.8536L20.354 24.3536L19.6469 23.6464L18.1469 25.1464L18.854 25.8536ZM20.5005 24V15H19.5005V24H20.5005ZM20.0005 15.5H25.0005V14.5H20.0005V15.5ZM25.5005 15V13H24.5005V15H25.5005ZM25.354 12.6464L13.354 0.646447L12.6469 1.35355L24.6469 13.3536L25.354 12.6464ZM18.5005 25H7.50049V26H18.5005V25ZM8.00049 24.5H18.0005V23.5H8.00049V24.5ZM7.14693 26.6464L6.14693 27.6464L6.85404 28.3536L7.85404 27.3536L7.14693 26.6464ZM6.50049 33.5H19.5005V32.5H6.50049V33.5ZM19.854 27.6464L18.854 26.6464L18.1469 27.3536L19.1469 28.3536L19.854 27.6464ZM6.00049 28V29.5H7.00049V28H6.00049ZM6.50049 30H8.00049V29H6.50049V30ZM7.50049 29.5V31H8.50049V29.5H7.50049ZM6.00049 29.5V31H7.00049V29.5H6.00049ZM6.00049 31V33H7.00049V31H6.00049ZM8.00049 30.5H6.50049V31.5H8.00049V30.5ZM20.0005 33V31H19.0005V33H20.0005ZM19.5005 30.5H18.0005V31.5H19.5005V30.5ZM18.5005 31V29.5H17.5005V31H18.5005ZM20.0005 31V29.5H19.0005V31H20.0005ZM20.0005 29.5V28H19.0005V29.5H20.0005ZM18.0005 30H19.5005V29H18.0005V30ZM9.50049 29.5V31H10.5005V29.5H9.50049ZM10.0005 31.5H11.5005V30.5H10.0005V31.5ZM12.0005 31V29.5H11.0005V31H12.0005ZM11.5005 29H10.0005V30H11.5005V29ZM15.5005 29.5V31H16.5005V29.5H15.5005ZM16.0005 30.5H14.5005V31.5H16.0005V30.5ZM15.0005 31V29.5H14.0005V31H15.0005ZM14.5005 30H16.0005V29H14.5005V30ZM12.6469 2.64645L9.64693 5.64645L10.354 6.35355L13.354 3.35355L12.6469 2.64645ZM12.6469 3.35355L15.6469 6.35355L16.354 5.64645L13.354 2.64645L12.6469 3.35355ZM18.5005 26.5H7.50049V27.5H18.5005V26.5Z" fill="black" fill-opacity="0.2"/>
</svg>
