<svg width="100" height="100" viewBox="0 0 100 100" fill="none" xmlns="http://www.w3.org/2000/svg">
<g clip-path="url(#clip0)">
<path d="M91.8461 43.0238C82.4117 28.4592 94.5199 15.0033 95.0416 14.4381C95.8421 13.5984 95.8421 12.2778 95.0416 11.4382L84.4986 0.743016C83.7367 -0.0303199 82.5212 -0.122979 81.6509 0.525634C75.7381 4.87327 70.0862 7.04709 64.8907 7.04709C59.8086 7.07698 54.9781 4.83713 51.7174 0.93866C51.3207 0.366674 50.6742 0.0191344 49.9783 0.00391771C49.2778 -0.0430911 48.6059 0.288688 48.2176 0.873445C44.9612 4.78007 40.1301 7.02807 35.0442 7.00361C29.8488 7.00361 24.1751 4.82979 18.2841 0.482158C17.4137 -0.166455 16.1983 -0.0737963 15.4364 0.69954L4.93682 11.3947C4.13632 12.2344 4.13632 13.555 4.93682 14.3946C5.06725 14.525 17.6319 28.3505 8.15408 42.8934C2.65432 51.3278 2.54562 63.762 7.84974 74.5876C14.9364 89.1305 30.2401 98.3257 49.8044 99.9996H50.1523C69.7166 98.4127 84.9333 89.1305 92.1504 74.7181C97.4545 63.849 97.3458 51.4582 91.8461 43.0238ZM88.2375 72.7181C81.8465 85.7611 67.8906 94.065 49.9783 95.565C32.0443 94.065 18.1102 85.7393 11.7191 72.7181C7.06717 63.2403 7.0889 52.5016 11.7191 45.3063C20.9579 31.133 12.7626 17.6553 9.34968 13.112L17.1972 5.13413C22.3545 8.99646 28.5627 11.2021 35.0007 11.4599C40.579 11.4817 45.9481 9.33857 49.9783 5.48194C53.9923 9.32308 59.335 11.4648 64.8907 11.4599C71.3288 11.2023 77.5369 8.99646 82.6943 5.13413L90.5418 13.0468C87.1506 17.6118 78.9553 31.0895 88.1723 45.2411C92.8678 52.4799 92.8895 63.2403 88.2375 72.7181Z" fill="#146EB4"/>
<path d="M53.9086 14.7578C53.8571 14.7041 53.7889 14.6697 53.7152 14.66L51.3489 14.3161L50.2968 12.1668C50.199 12.004 49.9877 11.9514 49.825 12.0492C49.7767 12.0782 49.7363 12.1185 49.7073 12.1668L48.6511 14.3079L46.2848 14.6518C46.1055 14.6754 45.9792 14.8398 46.0028 15.0192C46.0125 15.0929 46.047 15.1611 46.1006 15.2126L47.8119 16.8788L47.4025 19.2328C47.3731 19.4136 47.4959 19.5839 47.6767 19.6132C47.7467 19.6246 47.8184 19.6132 47.8815 19.5808L50.0021 18.4754L52.1186 19.589C52.2815 19.6727 52.4814 19.6086 52.5651 19.4457C52.5975 19.3827 52.6089 19.3109 52.5976 19.241L52.1882 16.887L53.8994 15.2208C54.0299 15.0955 54.034 14.8882 53.9086 14.7578ZM51.6069 16.5308C51.53 16.6066 51.4949 16.7151 51.5127 16.8215L51.832 18.6883L50.1535 17.8081C50.0573 17.7579 49.9427 17.7579 49.8465 17.8081L48.168 18.6883L48.4873 16.8215C48.5051 16.7151 48.47 16.6066 48.3932 16.5308L47.0381 15.2085L48.9131 14.9383C49.0209 14.9229 49.1142 14.8556 49.1628 14.7582L49.9816 13.0593L50.8004 14.7582C50.849 14.8556 50.9423 14.9229 51.0501 14.9383L52.9251 15.2085L51.6069 16.5308Z" fill="#146EB4"/>
<path d="M49.9783 80.4792H49.9787C64.9566 80.4671 77.0954 68.3283 77.1076 53.3504V53.35C77.1076 38.3669 64.9614 26.2207 49.9783 26.2207C34.9952 26.2207 22.849 38.3669 22.849 53.35C22.849 68.3331 34.9952 80.4792 49.9783 80.4792ZM19.5014 53.35C19.5014 36.5183 33.1463 22.8732 49.978 22.873C66.8004 22.8968 80.4317 36.5282 80.4552 53.3507C80.4549 70.1822 66.8099 83.8269 49.9783 83.8269C33.1465 83.8269 19.5014 70.1818 19.5014 53.35Z" fill="#146EB4" stroke="#146EB4"/>
<g clip-path="url(#clip1)">
<path d="M71.9543 23.4464C71.9285 23.4183 71.8944 23.4002 71.8576 23.3951L70.6745 23.2147L70.1484 22.0874C70.0995 22.002 69.9939 21.9744 69.9125 22.0257C69.8884 22.0409 69.8682 22.0621 69.8537 22.0874L69.3255 23.2105L68.1424 23.3908C68.0528 23.4032 67.9896 23.4895 68.0014 23.5836C68.0063 23.6222 68.0235 23.658 68.0503 23.685L68.9059 24.559L68.7012 25.7938C68.6866 25.8886 68.748 25.9779 68.8384 25.9933C68.8733 25.9993 68.9092 25.9933 68.9407 25.9763L70.001 25.3965L71.0593 25.9806C71.1407 26.0245 71.2407 25.9909 71.2826 25.9054C71.2988 25.8724 71.3045 25.8347 71.2988 25.7981L71.0941 24.5633L71.9497 23.6893C72.0149 23.6236 72.017 23.5148 71.9543 23.4464ZM70.8034 24.3765C70.765 24.4162 70.7475 24.4731 70.7564 24.5289L70.916 25.5082L70.0768 25.0465C70.0287 25.0201 69.9714 25.0201 69.9233 25.0465L69.084 25.5082L69.2437 24.5289C69.2525 24.4731 69.235 24.4162 69.1966 24.3765L68.5191 23.6829L69.4566 23.5412C69.5104 23.5331 69.5571 23.4977 69.5814 23.4467L69.9908 22.5555L70.4002 23.4467C70.4245 23.4977 70.4712 23.5331 70.525 23.5412L71.4625 23.6829L70.8034 24.3765Z" fill="#146EB4"/>
<path d="M28.0457 23.4464C28.0715 23.4183 28.1056 23.4002 28.1424 23.3951L29.3255 23.2147L29.8516 22.0874C29.9005 22.002 30.0061 21.9744 30.0875 22.0257C30.1116 22.0409 30.1318 22.0621 30.1463 22.0874L30.6745 23.2105L31.8576 23.3908C31.9472 23.4032 32.0104 23.4895 31.9986 23.5836C31.9937 23.6222 31.9765 23.658 31.9497 23.685L31.0941 24.559L31.2988 25.7938C31.3134 25.8886 31.252 25.9779 31.1616 25.9933C31.1267 25.9993 31.0908 25.9933 31.0593 25.9763L29.999 25.3965L28.9407 25.9806C28.8593 26.0245 28.7593 25.9909 28.7174 25.9054C28.7012 25.8724 28.6955 25.8347 28.7012 25.7981L28.9059 24.5633L28.0503 23.6893C27.9851 23.6236 27.983 23.5148 28.0457 23.4464ZM29.1966 24.3765C29.235 24.4162 29.2525 24.4731 29.2436 24.5289L29.084 25.5082L29.9232 25.0465C29.9713 25.0201 30.0286 25.0201 30.0767 25.0465L30.916 25.5082L30.7563 24.5289C30.7475 24.4731 30.765 24.4162 30.8034 24.3765L31.4809 23.6829L30.5434 23.5412C30.4896 23.5331 30.4429 23.4977 30.4186 23.4467L30.0092 22.5555L29.5998 23.4467C29.5755 23.4977 29.5288 23.5331 29.475 23.5412L28.5375 23.6829L29.1966 24.3765Z" fill="#146EB4"/>
<path d="M77.9543 29.4464C77.9285 29.4183 77.8944 29.4002 77.8576 29.3951L76.6745 29.2147L76.1484 28.0874C76.0995 28.002 75.9939 27.9744 75.9125 28.0257C75.8884 28.0409 75.8682 28.0621 75.8537 28.0874L75.3255 29.2105L74.1424 29.3908C74.0528 29.4032 73.9896 29.4895 74.0014 29.5836C74.0063 29.6222 74.0235 29.658 74.0503 29.685L74.9059 30.559L74.7012 31.7938C74.6866 31.8886 74.748 31.9779 74.8384 31.9933C74.8733 31.9993 74.9092 31.9933 74.9407 31.9763L76.001 31.3965L77.0593 31.9806C77.1407 32.0245 77.2407 31.9909 77.2826 31.9054C77.2988 31.8724 77.3045 31.8347 77.2988 31.7981L77.0941 30.5633L77.9497 29.6893C78.0149 29.6236 78.017 29.5148 77.9543 29.4464ZM76.8034 30.3765C76.765 30.4162 76.7475 30.4731 76.7564 30.5289L76.916 31.5082L76.0768 31.0465C76.0287 31.0201 75.9714 31.0201 75.9233 31.0465L75.084 31.5082L75.2437 30.5289C75.2525 30.4731 75.235 30.4162 75.1966 30.3765L74.5191 29.6829L75.4566 29.5412C75.5104 29.5331 75.5571 29.4977 75.5814 29.4467L75.9908 28.5555L76.4002 29.4467C76.4245 29.4977 76.4712 29.5331 76.525 29.5412L77.4625 29.6829L76.8034 30.3765Z" fill="#146EB4"/>
<path d="M22.0457 29.4464C22.0715 29.4183 22.1056 29.4002 22.1424 29.3951L23.3255 29.2147L23.8516 28.0874C23.9005 28.002 24.0061 27.9744 24.0875 28.0257C24.1116 28.0409 24.1318 28.0621 24.1463 28.0874L24.6745 29.2105L25.8576 29.3908C25.9472 29.4032 26.0104 29.4895 25.9986 29.5836C25.9937 29.6222 25.9765 29.658 25.9497 29.685L25.0941 30.559L25.2988 31.7938C25.3134 31.8886 25.252 31.9779 25.1616 31.9933C25.1267 31.9993 25.0908 31.9933 25.0593 31.9763L23.999 31.3965L22.9407 31.9806C22.8593 32.0245 22.7593 31.9909 22.7174 31.9054C22.7012 31.8724 22.6955 31.8347 22.7012 31.7981L22.9059 30.5633L22.0503 29.6893C21.9851 29.6236 21.983 29.5148 22.0457 29.4464ZM23.1966 30.3765C23.235 30.4162 23.2525 30.4731 23.2436 30.5289L23.084 31.5082L23.9232 31.0465C23.9713 31.0201 24.0286 31.0201 24.0767 31.0465L24.916 31.5082L24.7563 30.5289C24.7475 30.4731 24.765 30.4162 24.8034 30.3765L25.4809 29.6829L24.5434 29.5412C24.4896 29.5331 24.4429 29.4977 24.4186 29.4467L24.0092 28.5555L23.5998 29.4467C23.5755 29.4977 23.5288 29.5331 23.475 29.5412L22.5375 29.6829L23.1966 30.3765Z" fill="#146EB4"/>
<path d="M46.5723 44.0839C46.5723 45.701 46.1738 47.0604 45.377 48.162C44.5801 49.2518 43.4551 50.0077 42.002 50.4296V50.5702C43.6191 50.828 44.8672 51.4608 45.7461 52.4686C46.6367 53.4764 47.082 54.8475 47.082 56.5819C47.082 58.9491 46.3438 60.8358 44.8672 62.2421C43.4023 63.6483 41.3926 64.3514 38.8379 64.3514C36.5645 64.3514 34.6543 63.9471 33.1074 63.1385V58.8495C33.8809 59.3182 34.7188 59.6874 35.6211 59.9569C36.5234 60.2264 37.3906 60.3612 38.2227 60.3612C39.582 60.3612 40.6074 60.0507 41.2988 59.4296C41.9902 58.7968 42.3359 57.8007 42.3359 56.4413C42.3359 53.8749 40.7598 52.5917 37.6074 52.5917H36.1484V49.0233H37.5371C38.9316 49.0233 39.998 48.6952 40.7363 48.0389C41.4863 47.3827 41.8613 46.4042 41.8613 45.1034C41.8613 44.0839 41.6211 43.3163 41.1406 42.8007C40.6719 42.2733 40.0039 42.0096 39.1367 42.0096C37.8125 42.0096 36.5234 42.5721 35.2695 43.6971L33.1074 40.5331C34.8418 38.7987 37.0273 37.9315 39.6641 37.9315C41.832 37.9315 43.5254 38.4823 44.7441 39.5839C45.9629 40.6737 46.5723 42.1737 46.5723 44.0839Z" fill="#146EB4"/>
<path d="M51.2625 45.2624C50.4484 46.0765 50 47.1589 50 48.3102C50 49.4616 50.4484 50.544 51.2625 51.3581C52.0766 52.1722 53.159 52.6206 54.3103 52.6206C55.4617 52.6206 56.5441 52.1722 57.3582 51.3581C58.1723 50.544 58.6207 49.4616 58.6207 48.3102C58.6207 47.1589 58.1723 46.0765 57.3582 45.2624C56.5441 44.4483 55.4617 43.9999 54.3103 43.9999C53.159 43.9999 52.0766 44.4482 51.2625 45.2624ZM58.3624 48.4383C58.3305 49.4732 57.9126 50.4416 57.1771 51.1771C57.1747 51.1795 57.1722 51.1818 57.1698 51.1842C56.8106 50.8272 56.5249 50.4126 56.32 49.9498C56.1082 49.4712 55.9932 48.9633 55.9771 48.4383L58.3624 48.4383ZM54.1823 48.4383V50.8537H54.4384V48.4383H55.7208C55.737 48.9993 55.8595 49.542 56.0859 50.0534C56.3025 50.5426 56.6039 50.9812 56.9826 51.3591C56.2748 51.9812 55.3845 52.3331 54.4384 52.3623V51.1952H54.1823V52.3623C53.2362 52.3332 52.3459 51.9812 51.6381 51.3591C52.0167 50.9811 52.3182 50.5426 52.5348 50.0534C52.7612 49.542 52.8837 48.9993 52.8998 48.4383H54.1823ZM52.6436 48.4383C52.6275 48.9633 52.5125 49.4712 52.3006 49.9497C52.0958 50.4126 51.8101 50.8273 51.4509 51.1842C51.4485 51.1818 51.446 51.1794 51.4435 51.177C50.7081 50.4415 50.2902 49.4732 50.2583 48.4382L52.6436 48.4383ZM50.2583 48.1822C50.2902 47.1473 50.708 46.1789 51.4435 45.4434C51.446 45.441 51.4485 45.4386 51.4509 45.4362C51.8101 45.7932 52.0958 46.2079 52.3006 46.6707C52.5125 47.1492 52.6275 47.6571 52.6436 48.1822L50.2583 48.1822ZM54.1823 48.1822H52.8999C52.8837 47.6212 52.7612 47.0784 52.5348 46.567C52.3182 46.0778 52.0168 45.6393 51.6381 45.2614C52.3459 44.6392 53.2362 44.2873 54.1823 44.2581L54.1823 48.1822ZM57.1772 45.4434C57.9126 46.1789 58.3305 47.1473 58.3624 48.1822H55.9771C55.9931 47.6571 56.1082 47.1492 56.32 46.6707C56.5249 46.2079 56.8106 45.7932 57.1698 45.4362C57.1722 45.4386 57.1747 45.441 57.1772 45.4434ZM56.0859 46.567C55.8595 47.0784 55.737 47.6212 55.7208 48.1822H54.4384V44.2581C55.3845 44.2873 56.2748 44.6393 56.9826 45.2614C56.6039 45.6393 56.3025 46.0778 56.0859 46.567Z" fill="#146EB4" stroke="#146EB4" stroke-width="0.3"/>
<path d="M62.6418 56.6417C61.8277 57.4558 61.3793 58.5382 61.3793 59.6896C61.3793 60.8409 61.8277 61.9233 62.6418 62.7374C63.4559 63.5515 64.5383 63.9999 65.6897 63.9999C66.841 63.9999 67.9234 63.5515 68.7375 62.7374C69.5517 61.9233 70 60.8409 70 59.6896C70 58.5382 69.5517 57.4558 68.7375 56.6417C67.9234 55.8276 66.841 55.3792 65.6897 55.3792C64.5383 55.3792 63.4559 55.8276 62.6418 56.6417ZM69.7417 59.8176C69.7098 60.8525 69.292 61.8209 68.5565 62.5564C68.5541 62.5588 68.5516 62.5611 68.5491 62.5636C68.1899 62.2066 67.9043 61.7919 67.6994 61.3291C67.4875 60.8506 67.3725 60.3427 67.3564 59.8176L69.7417 59.8176ZM65.5616 59.8176V62.233H65.8177V59.8176H67.1002C67.1163 60.3786 67.2388 60.9214 67.4652 61.4328C67.6818 61.922 67.9833 62.3605 68.3619 62.7384C67.6542 63.3605 66.7638 63.7125 65.8177 63.7417V62.5745H65.5616V63.7417C64.6155 63.7125 63.7252 63.3606 63.0174 62.7384C63.3961 62.3605 63.6975 61.9219 63.9141 61.4327C64.1405 60.9214 64.263 60.3786 64.2792 59.8176H65.5616ZM64.023 59.8176C64.0069 60.3426 63.8918 60.8506 63.68 61.3291C63.4751 61.7919 63.1894 62.2066 62.8302 62.5635C62.8278 62.5611 62.8253 62.5588 62.8229 62.5564C62.0874 61.8209 61.6695 60.8525 61.6376 59.8176L64.023 59.8176ZM61.6376 59.5615C61.6695 58.5266 62.0874 57.5582 62.8229 56.8227C62.8253 56.8203 62.8278 56.818 62.8302 56.8156C63.1894 57.1725 63.4751 57.5872 63.68 58.05C63.8918 58.5285 64.0069 59.0365 64.023 59.5615L61.6376 59.5615ZM65.5616 59.5615H64.2792C64.263 59.0005 64.1405 58.4577 63.9141 57.9464C63.6976 57.4572 63.3961 57.0186 63.0174 56.6407C63.7252 56.0186 64.6155 55.6666 65.5617 55.6375L65.5616 59.5615ZM68.5565 56.8228C69.292 57.5582 69.7099 58.5266 69.7418 59.5615H67.3564C67.3725 59.0365 67.4875 58.5286 67.6994 58.05C67.9043 57.5872 68.1899 57.1725 68.5491 56.8156C68.5516 56.818 68.5541 56.8203 68.5565 56.8228ZM67.4652 57.9464C67.2388 58.4578 67.1164 59.0005 67.1002 59.5615H65.8177V55.6375C66.7638 55.6667 67.6542 56.0186 68.362 56.6407C67.9833 57.0186 67.6818 57.4572 67.4652 57.9464Z" fill="#146EB4" stroke="#146EB4" stroke-width="0.3"/>
<rect x="64" y="43.9999" width="2" height="20" rx="1" transform="rotate(30 64 43.9999)" fill="#146EB4"/>
</g>
<path d="M63.9543 19.4465C63.9285 19.4184 63.8944 19.4004 63.8576 19.3953L62.6745 19.2149L62.1484 18.0875C62.0995 18.0021 61.9939 17.9745 61.9125 18.0258C61.8884 18.041 61.8682 18.0622 61.8537 18.0875L61.3255 19.2106L60.1424 19.391C60.0528 19.4033 59.9896 19.4896 60.0014 19.5837C60.0063 19.6223 60.0235 19.6581 60.0503 19.6851L60.9059 20.5591L60.7012 21.7939C60.6866 21.8887 60.748 21.978 60.8384 21.9934C60.8733 21.9994 60.9092 21.9934 60.9407 21.9764L62.001 21.3966L63.0593 21.9807C63.1407 22.0246 63.2407 21.991 63.2826 21.9056C63.2988 21.8725 63.3045 21.8349 63.2988 21.7982L63.0941 20.5634L63.9497 19.6894C64.0149 19.6237 64.017 19.515 63.9543 19.4465ZM62.8034 20.3766C62.765 20.4164 62.7475 20.4732 62.7564 20.5291L62.916 21.5083L62.0768 21.0466C62.0287 21.0202 61.9714 21.0202 61.9233 21.0466L61.084 21.5083L61.2437 20.5291C61.2525 20.4732 61.235 20.4164 61.1966 20.3766L60.5191 19.683L61.4566 19.5413C61.5104 19.5332 61.5571 19.4979 61.5814 19.4468L61.9908 18.5556L62.4002 19.4468C62.4245 19.4979 62.4712 19.5332 62.525 19.5413L63.4625 19.683L62.8034 20.3766Z" fill="#146EB4"/>
<path d="M36.0457 19.4465C36.0715 19.4184 36.1056 19.4004 36.1424 19.3953L37.3255 19.2149L37.8516 18.0875C37.9005 18.0021 38.0061 17.9745 38.0875 18.0258C38.1116 18.041 38.1318 18.0622 38.1463 18.0875L38.6745 19.2106L39.8576 19.391C39.9472 19.4033 40.0104 19.4896 39.9986 19.5837C39.9937 19.6223 39.9765 19.6581 39.9497 19.6851L39.0941 20.5591L39.2988 21.7939C39.3134 21.8887 39.252 21.978 39.1616 21.9934C39.1267 21.9994 39.0908 21.9934 39.0593 21.9764L37.999 21.3966L36.9407 21.9807C36.8593 22.0246 36.7593 21.991 36.7174 21.9056C36.7012 21.8725 36.6955 21.8349 36.7012 21.7982L36.9059 20.5634L36.0503 19.6894C35.9851 19.6237 35.983 19.515 36.0457 19.4465ZM37.1966 20.3766C37.235 20.4164 37.2525 20.4732 37.2436 20.5291L37.084 21.5083L37.9232 21.0466C37.9713 21.0202 38.0286 21.0202 38.0767 21.0466L38.916 21.5083L38.7563 20.5291C38.7475 20.4732 38.765 20.4164 38.8034 20.3766L39.4809 19.683L38.5434 19.5413C38.4896 19.5332 38.4429 19.4979 38.4186 19.4468L38.0092 18.5556L37.5998 19.4468C37.5755 19.4979 37.5288 19.5332 37.475 19.5413L36.5375 19.683L37.1966 20.3766Z" fill="#146EB4"/>
</g>
<defs>
<clipPath id="clip0">
<rect width="100" height="100" fill="white"/>
</clipPath>
<clipPath id="clip1">
<rect width="61.9538" height="61.9538" fill="white" transform="translate(19.021 84.2349) rotate(-90)"/>
</clipPath>
</defs>
</svg>
