<svg width="50" height="50" viewBox="0 0 50 50" fill="none" xmlns="http://www.w3.org/2000/svg">
<path d="M37.4785 15.6191L37.5774 16.1093C37.6376 16.0971 37.6999 16.097 37.7604 16.1091C37.7917 16.1156 37.8227 16.125 37.8519 16.1369C37.8802 16.1487 37.9076 16.1634 37.9327 16.1801C37.9628 16.2004 37.985 16.219 38.002 16.2364L38.002 16.2365L38.0058 16.2403C38.0276 16.2621 38.048 16.2867 38.0662 16.3136C38.082 16.3374 38.0962 16.3637 38.1081 16.3914C38.1225 16.4285 38.1308 16.4576 38.1349 16.4793L38.1349 16.4793L38.1358 16.4838C38.1425 16.5172 38.1455 16.5487 38.1455 16.5771C38.1455 16.6058 38.1424 16.6369 38.1361 16.668L38.136 16.668L38.1346 16.6754C38.1305 16.6976 38.1221 16.7264 38.1079 16.7624C38.0965 16.7898 38.0824 16.8162 38.066 16.8409C38.0479 16.8678 38.0275 16.8923 38.0058 16.914L38.3594 17.2676L38.0058 16.914C37.9837 16.9361 37.9604 16.955 37.9371 16.9703L37.9371 16.9703L37.9336 16.9726C37.9082 16.9896 37.8805 17.0044 37.8519 17.0164C37.8228 17.0283 37.7919 17.0376 37.7607 17.0442C37.7274 17.0507 37.6964 17.0537 37.6688 17.0537C37.6408 17.0537 37.6097 17.0506 37.578 17.0442L37.5779 17.0441C37.5457 17.0376 37.5155 17.0283 37.4882 17.017L37.4882 17.017L37.4855 17.0159C37.4572 17.0042 37.4299 16.9897 37.4043 16.9726L37.4043 16.9726L37.4008 16.9703C37.3774 16.955 37.3541 16.9361 37.3321 16.914L36.9799 17.2662L37.3321 16.914C37.31 16.8919 37.291 16.8686 37.2758 16.8453L37.2758 16.8453L37.2734 16.8418C37.2564 16.8162 37.2418 16.7889 37.2302 16.7606L37.2302 16.7606L37.2291 16.7579C37.2178 16.7307 37.2085 16.7004 37.2019 16.668C37.1955 16.6364 37.1924 16.6053 37.1924 16.5771C37.1924 16.5496 37.1953 16.5186 37.2019 16.4853C37.2084 16.4543 37.2177 16.4235 37.2297 16.3941C37.2417 16.3655 37.2565 16.3379 37.2734 16.3125L37.2735 16.3125L37.2758 16.309C37.291 16.2856 37.31 16.2623 37.3321 16.2403L37.3321 16.2403L37.3358 16.2364C37.3529 16.219 37.3752 16.2003 37.4053 16.18C37.4302 16.1635 37.4572 16.1491 37.4855 16.1375L37.4855 16.1375L37.4885 16.1362C37.5153 16.125 37.5455 16.1157 37.5779 16.1092L37.4785 15.6191ZM37.4785 15.6191C37.6044 15.5938 37.7343 15.5938 37.8603 15.6191L37.127 15.7646C37.1796 15.7295 37.2363 15.6992 37.2959 15.6748C37.3544 15.6504 37.4159 15.6318 37.4785 15.6191Z" fill="#146EB4" stroke="#146EB4"/>
<path d="M37.9332 39.6534H32.7309L31.7455 31.7158C31.9274 31.6351 32.1084 31.5522 32.2873 31.4649C32.2897 31.4638 32.2921 31.4625 32.2944 31.4613C32.4744 31.3734 32.6521 31.2811 32.8289 31.1866C33.094 31.0449 33.3554 30.8959 33.6127 30.7398C33.7642 30.6479 33.9143 30.5537 34.0628 30.4569C35.3375 29.6265 36.5044 28.6173 37.5226 27.4451L37.5233 27.4441C40.1395 24.432 41.5795 20.573 41.578 16.5777C41.5762 12.1496 40.1309 8.2666 37.5083 5.64404C33.8178 1.95342 29.4926 0.00185547 25.0003 0C24.9982 0 24.9958 0 24.9937 0C24.5146 0 24.0381 0.021582 23.565 0.0623047C23.3169 0.0836914 23.0697 0.110352 22.8238 0.142676C22.7866 0.147559 22.7493 0.152441 22.7122 0.157617C19.3655 0.620703 16.2388 2.09375 13.7537 4.38477C13.7373 4.3999 13.7207 4.41494 13.7043 4.43018C13.4646 4.65303 13.2314 4.88418 13.0041 5.12217C12.8975 5.23379 12.7923 5.34717 12.6886 5.46211C12.6178 5.54053 12.5468 5.61875 12.4773 5.69863C9.86055 8.71084 8.42022 12.5702 8.42188 16.566C8.42354 20.5616 9.8667 24.4218 12.4856 27.4357C14.0928 29.2853 16.0683 30.7315 18.2556 31.7061L17.2689 39.6535H12.0662C11.8072 39.6535 11.5588 39.7564 11.3757 39.9395C11.1925 40.1228 11.0896 40.3711 11.0896 40.6301L11.0898 44.908L11.0896 44.9123L11.0898 44.9166L11.09 49.0235C11.0901 49.5628 11.5273 50 12.0666 50H37.9335C38.1925 50 38.4409 49.8971 38.624 49.714C38.8071 49.5309 38.9101 49.2824 38.9101 49.0234L38.9097 40.63C38.9098 40.0906 38.4725 39.6534 37.9332 39.6534ZM35.2914 26.9701C35.2697 26.9915 35.2485 27.0134 35.2268 27.0347C35.14 27.1193 35.0523 27.2028 34.9638 27.2852C34.9367 27.3104 34.9091 27.3348 34.8818 27.3597C34.8189 27.4172 34.7559 27.4745 34.6921 27.531C34.6564 27.5624 34.6204 27.5934 34.5845 27.6244C34.5279 27.6733 34.4712 27.7221 34.4141 27.7701C34.3756 27.8024 34.3368 27.8345 34.2979 27.8664C34.2417 27.9127 34.1851 27.9585 34.1281 28.0039C34.0891 28.0351 34.05 28.0661 34.0107 28.0969C33.9511 28.1435 33.8909 28.1893 33.8306 28.2349C33.7938 28.2627 33.7572 28.2908 33.7202 28.3182C33.6463 28.3729 33.5718 28.4267 33.4969 28.48C33.473 28.497 33.4495 28.5145 33.4256 28.5313C33.3281 28.5999 33.2298 28.6671 33.1308 28.7331C33.0968 28.7558 33.0623 28.7777 33.0281 28.8001C32.961 28.844 32.8938 28.8878 32.8262 28.9306C32.7849 28.9566 32.7433 28.9821 32.7018 29.0078C32.6399 29.046 32.578 29.0839 32.5157 29.1211C32.4721 29.1472 32.4283 29.173 32.3845 29.1985C32.3227 29.2346 32.2605 29.2701 32.1981 29.3053C32.1545 29.3299 32.1107 29.3546 32.0668 29.3787C32.0011 29.4149 31.9348 29.4503 31.8685 29.4854C31.8279 29.5069 31.7875 29.5288 31.7468 29.5499C31.6614 29.5941 31.5756 29.6372 31.4895 29.6797C31.4675 29.6905 31.4458 29.7019 31.4238 29.7126C31.3173 29.7645 31.21 29.8149 31.1021 29.8643C31.0632 29.8821 31.0238 29.8991 30.9847 29.9166C30.9136 29.9483 30.8424 29.98 30.7708 30.0105C30.7254 30.03 30.6797 30.0488 30.634 30.0679C30.5675 30.0955 30.5009 30.1229 30.4339 30.1495C30.3867 30.1683 30.3395 30.1868 30.2921 30.2052C30.2251 30.2311 30.1578 30.2564 30.0904 30.2813C30.0438 30.2986 29.9972 30.3159 29.9504 30.3327C29.8781 30.3586 29.8056 30.3835 29.7329 30.4083C29.6911 30.4226 29.6494 30.4372 29.6074 30.4511C29.506 30.4846 29.404 30.517 29.3018 30.5482C29.2813 30.5545 29.261 30.5608 29.2406 30.567C29.1336 30.5992 29.0262 30.6303 28.9185 30.6601C28.8765 30.6717 28.8343 30.6824 28.7923 30.6937C28.7171 30.7138 28.6417 30.7336 28.5661 30.7525C28.5185 30.7645 28.4705 30.7758 28.4227 30.7873C28.3518 30.8043 28.2807 30.8209 28.2094 30.8368C28.1602 30.8479 28.1109 30.8586 28.0616 30.869C27.9897 30.8843 27.9177 30.8989 27.8456 30.9132C27.8418 30.914 27.8379 30.9146 27.8341 30.9154C27.7861 30.9247 27.7383 30.9344 27.6902 30.9432C27.6289 30.9546 27.5673 30.9651 27.5057 30.9757C27.425 30.9895 27.3443 31.0031 27.2635 31.0155C27.2252 31.0215 27.1869 31.027 27.1485 31.0326C27.0468 31.0475 26.9449 31.0616 26.8428 31.0744C26.8194 31.0773 26.7961 31.0801 26.7728 31.0829C26.6591 31.0966 26.5453 31.1091 26.4313 31.1201C26.4142 31.1218 26.3971 31.1233 26.3799 31.125C26.2635 31.1358 26.1469 31.1454 26.0302 31.1535C26.0143 31.1546 25.9982 31.1557 25.9823 31.1567L25.9806 22.4355C29.5658 22.6771 32.9388 24.2308 35.4566 26.8036C35.402 26.8599 35.347 26.9152 35.2914 26.9701ZM39.6247 16.5783C39.6259 19.7385 38.6044 22.8014 36.7299 25.3159C33.8586 22.4425 30.0354 20.7205 25.9801 20.4797L25.9795 17.5487L34.349 17.5521C34.8882 17.5521 35.3258 17.115 35.326 16.5759C35.3262 16.0365 34.8891 15.5992 34.3498 15.5989L25.9791 15.5956L25.9785 12.6646C30.0709 12.4253 33.9251 10.6846 36.8071 7.77822C38.6291 10.0029 39.6233 13.0848 39.6247 16.5783ZM26.3681 2.02256C26.3897 2.02529 26.4113 2.02822 26.4332 2.03057C26.5502 2.04307 26.6666 2.05684 26.7822 2.07227C26.8275 2.07832 26.8725 2.08525 26.9176 2.0917C27.0098 2.10498 27.1017 2.11875 27.1929 2.13379C27.2422 2.14189 27.2912 2.15049 27.3401 2.15908C27.4279 2.17451 27.5153 2.19082 27.6022 2.20791C27.6498 2.21729 27.6975 2.22656 27.7448 2.23633C27.8374 2.25557 27.9292 2.27588 28.0208 2.29688C28.0602 2.30586 28.0998 2.31445 28.139 2.32373C28.3995 2.38584 28.6558 2.45479 28.9075 2.53018C28.9445 2.54121 28.9811 2.55303 29.0179 2.56436C29.1065 2.5917 29.1948 2.61953 29.2824 2.64834C29.3262 2.66279 29.3696 2.67764 29.4132 2.69248C29.4939 2.72002 29.5743 2.74805 29.6542 2.77676C29.698 2.79258 29.7418 2.8084 29.7854 2.82451C29.867 2.85479 29.948 2.88584 30.0285 2.91738C30.0675 2.93262 30.1067 2.94756 30.1454 2.96318C30.2437 3.00264 30.3412 3.04307 30.438 3.08428C30.4573 3.09248 30.477 3.10029 30.4962 3.10859C30.6128 3.15879 30.7282 3.21035 30.8427 3.26299C30.8712 3.27607 30.8991 3.28975 30.9274 3.30293C31.0123 3.34268 31.0969 3.38271 31.1805 3.42363C31.2194 3.44268 31.2579 3.46211 31.2966 3.48145C31.3695 3.51787 31.4421 3.55469 31.5141 3.59199C31.5543 3.61289 31.5944 3.63389 31.6344 3.65508C31.7056 3.69277 31.7762 3.73096 31.8464 3.76953C31.8839 3.79004 31.9214 3.81055 31.9586 3.83125C32.0368 3.875 32.1143 3.91943 32.1913 3.96406C32.2186 3.97988 32.2463 3.99541 32.2734 4.01133C32.3771 4.07227 32.4797 4.13389 32.5811 4.19639C32.5997 4.20781 32.6178 4.21963 32.6363 4.23105C32.7187 4.28223 32.8004 4.33369 32.8812 4.38574C32.9152 4.40771 32.9487 4.42988 32.9825 4.45195C33.0475 4.49443 33.1121 4.53711 33.1761 4.58018C33.2124 4.60459 33.2484 4.6291 33.2843 4.65371C33.3458 4.6957 33.4067 4.73799 33.4672 4.78037C33.502 4.80479 33.5369 4.8292 33.5714 4.85381C33.6353 4.89932 33.6984 4.94512 33.7612 4.99102C33.7902 5.01221 33.8196 5.0333 33.8483 5.05459C33.9388 5.12148 34.0283 5.18877 34.1164 5.25635C34.119 5.2584 34.1217 5.26045 34.1243 5.2625C34.2101 5.32842 34.2945 5.39463 34.3779 5.46094C34.4062 5.4835 34.434 5.50605 34.4621 5.52871C34.5196 5.5749 34.5769 5.62119 34.6332 5.66758C34.6648 5.69365 34.6962 5.71973 34.7275 5.7459C34.7801 5.78965 34.832 5.8334 34.8836 5.87715C34.9145 5.90342 34.9453 5.92969 34.9759 5.95605C35.0285 6.00137 35.0804 6.04658 35.1319 6.09189C35.1593 6.11602 35.187 6.14004 35.2141 6.16406C35.2773 6.22031 35.3397 6.27646 35.4014 6.33262C35.415 6.34512 35.4292 6.35762 35.4429 6.37002C35.445 6.37197 35.447 6.37383 35.4491 6.37578C32.9296 8.93047 29.5615 10.4709 25.9784 10.7082L25.9767 1.98906C26.1079 1.99863 26.2386 2.00938 26.3681 2.02256ZM24.1075 33.1189C24.1105 33.1191 24.1137 33.1191 24.1167 33.1193C24.2515 33.1265 24.3863 33.132 24.5212 33.1358C24.5327 33.1361 24.5442 33.1369 24.5559 33.1372C24.5587 33.1373 24.5616 33.1372 24.5645 33.1373C24.7038 33.1409 24.8432 33.1431 24.9826 33.1432C24.9902 33.1432 24.9978 33.1435 25.0054 33.1435C25.0077 33.1435 25.0103 33.1435 25.0125 33.1435C25.0813 33.1435 25.1499 33.1415 25.2187 33.1406C25.2733 33.1398 25.3281 33.1396 25.3828 33.1384C25.4814 33.1361 25.5799 33.1325 25.6782 33.1285C25.7099 33.1272 25.7415 33.1262 25.7731 33.1247C25.8804 33.1198 25.9873 33.1137 26.0942 33.1067C26.1146 33.1054 26.1351 33.104 26.1555 33.1026C26.2703 33.0947 26.3849 33.0858 26.4992 33.0756C26.5059 33.075 26.5125 33.0743 26.519 33.0737C26.9092 33.0383 27.297 32.9904 27.6814 32.9279C27.742 32.9181 27.8021 32.9064 27.8624 32.896C27.9307 32.8842 27.9989 32.8726 28.067 32.8599C28.1145 32.851 28.1617 32.8415 28.2091 32.8322C28.3138 32.8119 28.4182 32.7906 28.5224 32.7683C28.532 32.7662 28.5419 32.7645 28.5516 32.7623C28.5611 32.7603 28.5705 32.7578 28.5801 32.7557C29.0131 32.6612 29.442 32.5507 29.8646 32.4223L30.7623 39.6532H19.2371L20.1355 32.4155C21.2713 32.7636 22.4396 32.9869 23.6236 33.0851C23.6362 33.0861 23.6488 33.0876 23.6614 33.0887C23.6693 33.0894 23.6772 33.0896 23.6851 33.0902C23.7344 33.0941 23.7835 33.0992 23.8328 33.1027C23.9186 33.1087 24.0045 33.1131 24.0903 33.1178C24.0961 33.1181 24.1019 33.1187 24.1075 33.1189ZM14.7136 6.16855C14.7333 6.14912 14.7526 6.1292 14.7725 6.10977C14.8597 6.02451 14.9479 5.94053 15.0372 5.85772C15.0626 5.83408 15.0886 5.81113 15.1142 5.7877C15.1787 5.72861 15.2435 5.66982 15.3089 5.61201C15.3437 5.58125 15.3789 5.55107 15.414 5.5207C15.4714 5.471 15.529 5.42148 15.5872 5.37275C15.6251 5.34092 15.6633 5.30938 15.7015 5.27803C15.7584 5.23125 15.8156 5.18496 15.8731 5.13916C15.9118 5.1083 15.9505 5.07754 15.9895 5.04707C16.0492 5.00039 16.1096 4.95449 16.17 4.90879C16.2068 4.88096 16.2436 4.85283 16.2806 4.82529C16.3538 4.771 16.4278 4.71777 16.502 4.66494C16.5266 4.64746 16.5508 4.62939 16.5755 4.61201C16.6728 4.54365 16.7708 4.47666 16.8695 4.41074C16.9047 4.3873 16.9403 4.36465 16.9757 4.3415C17.0416 4.29834 17.1075 4.25547 17.174 4.21338C17.2163 4.18672 17.2589 4.16064 17.3014 4.13437C17.3621 4.09687 17.4229 4.05967 17.4842 4.02314C17.5288 3.99648 17.5736 3.97012 17.6186 3.94395C17.6792 3.90859 17.74 3.87383 17.8012 3.83936C17.8461 3.81406 17.8909 3.78867 17.9361 3.76387C18.0003 3.72861 18.0649 3.69404 18.1297 3.65977C18.1718 3.6374 18.2137 3.61475 18.256 3.59287C18.3376 3.55059 18.4198 3.50947 18.5022 3.46875C18.528 3.45605 18.5535 3.44277 18.5793 3.43018C18.6851 3.37861 18.7916 3.32861 18.8986 3.27969C18.9398 3.26084 18.9814 3.24287 19.0229 3.22432C19.0917 3.19355 19.1607 3.16299 19.2301 3.1333C19.277 3.11328 19.3241 3.09375 19.3712 3.07422C19.4361 3.04727 19.5013 3.02061 19.5666 2.99453C19.6151 2.9752 19.6638 2.95615 19.7125 2.9373C19.778 2.91201 19.8438 2.8873 19.9097 2.86289C19.9576 2.84521 20.0055 2.82734 20.0536 2.81016C20.1244 2.78486 20.1956 2.76035 20.2668 2.73613C20.31 2.72139 20.353 2.70625 20.3964 2.69199C20.4951 2.65938 20.5942 2.62803 20.6937 2.59756C20.7197 2.58955 20.7458 2.58154 20.7719 2.57363C20.8758 2.54238 20.9801 2.51221 21.0848 2.4833C21.127 2.47158 21.1694 2.46074 21.2118 2.44941C21.2869 2.42939 21.3621 2.40957 21.4376 2.39072C21.4852 2.37881 21.5329 2.36748 21.5807 2.35605C21.6521 2.33896 21.7235 2.32236 21.7952 2.30635C21.8439 2.29551 21.8928 2.28477 21.9416 2.27441C22.0143 2.25898 22.0871 2.24424 22.1601 2.22988C22.207 2.22061 22.254 2.21123 22.3011 2.20244C22.3813 2.1875 22.4618 2.17354 22.5424 2.15986C22.5821 2.15313 22.6218 2.1459 22.6616 2.13955C22.7813 2.12031 22.9014 2.10225 23.0218 2.08594C23.0347 2.08418 23.0476 2.08281 23.0604 2.08115C23.1689 2.0668 23.2776 2.05352 23.3866 2.0415C23.4275 2.03701 23.4686 2.0333 23.5095 2.0291C23.5909 2.0208 23.6725 2.01289 23.7542 2.00596C23.8009 2.00205 23.8477 1.99854 23.8944 1.99502C23.9373 1.9918 23.9803 1.98916 24.0231 1.98633L24.0225 6.32266L24.0218 10.7077C20.4363 10.4665 17.0621 8.9124 14.5435 6.33955C14.5996 6.28213 14.6563 6.225 14.7136 6.16855ZM13.2699 7.82764C16.1429 10.7023 19.9684 12.4246 24.0255 12.6643L24.0261 15.5948L10.4073 15.5894C10.5939 12.7779 11.589 10.0823 13.2699 7.82764ZM13.2778 25.3068C11.5948 23.0506 10.5973 20.3542 10.4081 17.5426L24.0265 17.548L24.0271 20.4788C19.9713 20.7159 16.148 22.4352 13.2778 25.3068ZM18.1547 29.4861C18.0835 29.4484 18.0126 29.4105 17.942 29.3716C17.901 29.349 17.8603 29.326 17.8195 29.3029C17.754 29.266 17.6888 29.2286 17.6237 29.1907C17.5822 29.1665 17.5408 29.142 17.4995 29.1174C17.4344 29.0785 17.3696 29.0389 17.3051 28.9989C17.2659 28.9747 17.2268 28.9507 17.1878 28.9261C17.1168 28.8812 17.0463 28.8354 16.9761 28.7893C16.9448 28.7687 16.9133 28.7487 16.8822 28.7279C16.7819 28.661 16.6824 28.593 16.5837 28.5235C16.5657 28.5108 16.548 28.4977 16.5301 28.485C16.4491 28.4274 16.3686 28.3693 16.2887 28.3101C16.2537 28.2842 16.2192 28.2576 16.1846 28.2313C16.122 28.1841 16.0595 28.1364 15.9976 28.0881C15.9598 28.0585 15.9222 28.0286 15.8847 27.9986C15.8261 27.9519 15.7677 27.9047 15.7098 27.857C15.6722 27.8261 15.6346 27.795 15.5972 27.7637C15.5388 27.7145 15.4808 27.6648 15.423 27.6148C15.388 27.5845 15.3528 27.5543 15.3181 27.5235C15.2531 27.4662 15.189 27.4079 15.125 27.3493C15.0986 27.3252 15.072 27.3015 15.0457 27.2771C14.9567 27.1944 14.8687 27.1106 14.7815 27.0256C14.7608 27.0054 14.7407 26.9847 14.7201 26.9643C14.6634 26.9082 14.607 26.8516 14.5512 26.7944C17.0678 24.2239 20.4401 22.6729 24.0255 22.4349L24.0271 26.4519L24.0288 31.1562C23.9878 31.1534 23.9467 31.1509 23.9057 31.1478C23.8768 31.1456 23.8479 31.1433 23.819 31.1409C23.7676 31.1367 23.7161 31.1318 23.6646 31.1271C23.617 31.1228 23.5693 31.1185 23.5218 31.1136C23.4802 31.1093 23.4385 31.1055 23.397 31.1009C23.2975 31.0898 23.1981 31.0775 23.099 31.0645C23.0738 31.0611 23.0485 31.0582 23.0233 31.0548C22.9053 31.0387 22.7875 31.021 22.67 31.002C22.6347 30.9962 22.5996 30.9897 22.5643 30.9838C22.479 30.9693 22.3939 30.9546 22.3091 30.9387C22.2647 30.9304 22.2206 30.9215 22.1764 30.9128C22.1003 30.8978 22.0242 30.8823 21.9484 30.8661C21.9022 30.8563 21.8562 30.8461 21.8101 30.8358C21.7351 30.819 21.6604 30.8017 21.5857 30.7837C21.5411 30.7729 21.4964 30.7623 21.452 30.7512C21.3721 30.7312 21.2926 30.7102 21.2131 30.6889C21.175 30.6786 21.1368 30.6688 21.0989 30.6583C20.9882 30.6276 20.8779 30.5958 20.7681 30.5625C20.7619 30.5606 20.7556 30.559 20.7494 30.557C20.6335 30.5218 20.5181 30.4849 20.4031 30.4468C20.3669 30.4348 20.3309 30.422 20.2946 30.4097C20.2159 30.3829 20.1373 30.3558 20.059 30.3276C20.016 30.3122 19.9733 30.2963 19.9306 30.2805C19.8589 30.254 19.7874 30.2271 19.7162 30.1994C19.6722 30.1823 19.6282 30.165 19.5844 30.1476C19.5134 30.1192 19.4428 30.0902 19.3723 30.0608C19.3302 30.0433 19.288 30.0259 19.2461 30.0079C19.1699 29.9753 19.0942 29.9417 19.0186 29.9078C18.9835 29.8921 18.9482 29.8769 18.9134 29.8608C18.8037 29.8106 18.6945 29.7593 18.5861 29.7064C18.5773 29.7021 18.5687 29.6976 18.5599 29.6933C18.4605 29.6446 18.3612 29.5945 18.2626 29.5434C18.2265 29.5246 18.1906 29.5052 18.1547 29.4861ZM13.0432 48.0469L13.0431 45.8888H31.0665C31.6058 45.8888 32.0431 45.4516 32.0431 44.9122C32.0431 44.3729 31.6058 43.9356 31.0665 43.9356H13.043L13.0429 41.6064H18.1318H31.868H36.9565L36.9569 48.0469H13.0432Z" fill="#146EB4"/>
<path d="M35.3994 44.7217C35.3866 44.6592 35.3682 44.5977 35.3438 44.5391C35.3193 44.4795 35.289 44.4228 35.2539 44.3701C35.2188 44.3164 35.1777 44.2666 35.1328 44.2217C35.0879 44.1768 35.0381 44.1357 34.9844 44.1006C34.9316 44.0654 34.875 44.0352 34.8154 44.0107C34.7568 43.9863 34.6954 43.9678 34.6328 43.9551C34.5068 43.9297 34.377 43.9297 34.251 43.9551C34.1895 43.9678 34.1279 43.9863 34.0684 44.0107C34.0098 44.0352 33.9531 44.0654 33.9004 44.1006C33.8467 44.1357 33.7969 44.1768 33.752 44.2217C33.707 44.2666 33.666 44.3164 33.6299 44.3701C33.5947 44.4228 33.5645 44.4795 33.54 44.5391C33.5156 44.5977 33.4971 44.6592 33.4844 44.7217C33.4717 44.7842 33.4658 44.8486 33.4658 44.9121C33.4658 44.9756 33.4717 45.04 33.4844 45.1035C33.4971 45.165 33.5156 45.2266 33.54 45.2861C33.5645 45.3447 33.5947 45.4014 33.6299 45.4541C33.666 45.5078 33.707 45.5576 33.752 45.6025C33.7969 45.6475 33.8467 45.6885 33.9004 45.7246C33.9531 45.7598 34.0098 45.79 34.0684 45.8144C34.1279 45.8389 34.1895 45.8574 34.251 45.8701C34.3145 45.8828 34.3789 45.8887 34.4424 45.8887C34.6992 45.8887 34.9512 45.7842 35.1328 45.6025C35.1777 45.5576 35.2188 45.5078 35.2539 45.4541C35.289 45.4014 35.3193 45.3447 35.3438 45.2861C35.3682 45.2266 35.3866 45.165 35.3994 45.1035C35.4121 45.04 35.4188 44.9756 35.4188 44.9121C35.4188 44.8486 35.4121 44.7842 35.3994 44.7217Z" fill="#146EB4"/>
<path d="M22.9772 36.7052C22.9643 36.6915 22.9472 36.6827 22.9288 36.6802L22.3372 36.5922L22.0742 36.0427C22.0497 36.001 21.9969 35.9876 21.9562 36.0126C21.9442 36.02 21.9341 36.0303 21.9268 36.0427L21.6628 36.5902L21.0712 36.6781C21.0264 36.6841 20.9948 36.7262 21.0007 36.772C21.0031 36.7909 21.0117 36.8083 21.0252 36.8215L21.453 37.2476L21.3506 37.8495C21.3433 37.8957 21.374 37.9393 21.4192 37.9468C21.4367 37.9497 21.4546 37.9468 21.4704 37.9385L22.0005 37.6558L22.5296 37.9406C22.5704 37.962 22.6203 37.9456 22.6413 37.904C22.6494 37.8878 22.6522 37.8695 22.6494 37.8516L22.547 37.2497L22.9749 36.8236C23.0075 36.7916 23.0085 36.7385 22.9772 36.7052ZM22.4017 37.1586C22.3825 37.178 22.3737 37.2057 22.3782 37.2329L22.458 37.7103L22.0384 37.4852C22.0143 37.4724 21.9857 37.4724 21.9616 37.4852L21.542 37.7103L21.6218 37.2329C21.6263 37.2057 21.6175 37.178 21.5983 37.1586L21.2595 36.8205L21.7283 36.7514C21.7552 36.7474 21.7786 36.7302 21.7907 36.7053L21.9954 36.2709L22.2001 36.7053C22.2122 36.7302 22.2356 36.7474 22.2625 36.7514L22.7313 36.8205L22.4017 37.1586Z" fill="#146EB4"/>
<path d="M25.9772 35.7052C25.9643 35.6915 25.9472 35.6827 25.9288 35.6802L25.3372 35.5922L25.0742 35.0427C25.0497 35.001 24.9969 34.9876 24.9562 35.0126C24.9442 35.02 24.9341 35.0303 24.9268 35.0427L24.6628 35.5902L24.0712 35.6781C24.0264 35.6841 23.9948 35.7262 24.0007 35.772C24.0031 35.7909 24.0117 35.8083 24.0252 35.8215L24.453 36.2476L24.3506 36.8495C24.3433 36.8957 24.374 36.9393 24.4192 36.9468C24.4367 36.9497 24.4546 36.9468 24.4704 36.9385L25.0005 36.6558L25.5296 36.9406C25.5704 36.962 25.6203 36.9456 25.6413 36.904C25.6494 36.8878 25.6522 36.8695 25.6494 36.8516L25.547 36.2497L25.9749 35.8236C26.0075 35.7916 26.0085 35.7385 25.9772 35.7052ZM25.4017 36.1586C25.3825 36.178 25.3737 36.2057 25.3782 36.2329L25.458 36.7103L25.0384 36.4852C25.0143 36.4724 24.9857 36.4724 24.9616 36.4852L24.542 36.7103L24.6218 36.2329C24.6263 36.2057 24.6175 36.178 24.5983 36.1586L24.2595 35.8205L24.7283 35.7514C24.7552 35.7474 24.7786 35.7302 24.7907 35.7053L24.9954 35.2709L25.2001 35.7053C25.2122 35.7302 25.2356 35.7474 25.2625 35.7514L25.7313 35.8205L25.4017 36.1586Z" fill="#146EB4"/>
<path d="M28.9772 34.7052C28.9643 34.6915 28.9472 34.6827 28.9288 34.6802L28.3372 34.5922L28.0742 34.0427C28.0497 34.001 27.9969 33.9876 27.9562 34.0126C27.9442 34.02 27.9341 34.0303 27.9268 34.0427L27.6628 34.5902L27.0712 34.6781C27.0264 34.6841 26.9948 34.7262 27.0007 34.772C27.0031 34.7909 27.0117 34.8083 27.0252 34.8215L27.453 35.2476L27.3506 35.8495C27.3433 35.8957 27.374 35.9393 27.4192 35.9468C27.4367 35.9497 27.4546 35.9468 27.4704 35.9385L28.0005 35.6558L28.5296 35.9406C28.5704 35.962 28.6203 35.9456 28.6413 35.904C28.6494 35.8878 28.6522 35.8695 28.6494 35.8516L28.547 35.2497L28.9749 34.8236C29.0075 34.7916 29.0085 34.7385 28.9772 34.7052ZM28.4017 35.1586C28.3825 35.178 28.3737 35.2057 28.3782 35.2329L28.458 35.7103L28.0384 35.4852C28.0143 35.4724 27.9857 35.4724 27.9616 35.4852L27.542 35.7103L27.6218 35.2329C27.6263 35.2057 27.6175 35.178 27.5983 35.1586L27.2595 34.8205L27.7283 34.7514C27.7552 34.7474 27.7786 34.7302 27.7907 34.7053L27.9954 34.2709L28.2001 34.7053C28.2122 34.7302 28.2356 34.7474 28.2625 34.7514L28.7313 34.8205L28.4017 35.1586Z" fill="#146EB4"/>
</svg>
