<svg width="12" height="12" viewBox="0 0 12 12" fill="none" xmlns="http://www.w3.org/2000/svg">
<path d="M1.17 7.31435C1.47 7.2044 1.78 7.14943 2.11 7.14943C2.78 7.14943 3.365 7.35933 3.865 7.77912L2.295 9.34834C1.765 8.74864 1.39 8.06398 1.17 7.31435ZM7.78 4.90055C8.765 5.63518 9.83 5.81509 10.97 5.44028C10.985 5.54523 11 5.73513 11 6C11 6.51474 10.875 7.08946 10.64 7.72414C10.405 8.35383 10.115 8.86358 9.775 9.24839L6.61 6.09495L7.78 4.90055ZM4.385 8.31885C4.915 9.08347 5.025 9.91806 4.71 10.8276C4 10.6227 3.365 10.3029 2.835 9.86308L4.385 8.31885ZM6.095 6.6097L9.25 9.77313C8.165 10.7227 6.89 11.1225 5.44 10.9675C5.545 10.6377 5.6 10.2779 5.6 9.88807C5.6 9.57823 5.53 9.21341 5.39 8.79861C5.25 8.38382 5.085 8.04399 4.9 7.77912L6.095 6.6097ZM4.405 7.24938C3.94 6.83459 3.4 6.57472 2.79 6.45477C2.18 6.33983 1.595 6.37481 1.03 6.56472C1.015 6.45477 1 6.26487 1 6C1 5.48526 1.125 4.91054 1.36 4.27586C1.595 3.64617 1.885 3.13642 2.225 2.75161L5.555 6.09495L4.405 7.24938ZM7.78 3.86606C7.11 3.04147 6.955 2.14191 7.315 1.17239C7.625 1.25235 7.98 1.40228 8.38 1.63217C8.775 1.85705 9.1 2.08194 9.35 2.29684L7.78 3.86606ZM10.83 4.69065C10.53 4.7956 10.22 4.85057 9.89 4.85057C9.345 4.85057 8.82 4.69065 8.32 4.36081L9.865 2.83657C10.305 3.3863 10.625 4.00099 10.83 4.69065ZM6.095 5.55522L2.75 2.22687C3.835 1.27734 5.11 0.877541 6.565 1.03246C6.455 1.3623 6.4 1.72212 6.4 2.11193C6.4 2.47175 6.48 2.87655 6.645 3.33132C6.81 3.7811 7 4.14092 7.25 4.40579L6.095 5.55522Z" fill="#202A25"/>
</svg>
