<svg width="50" height="50" viewBox="0 0 50 50" fill="none" xmlns="http://www.w3.org/2000/svg">
<g clip-path="url(#clip0)">
<path d="M45.9232 21.5121C41.206 14.2298 47.2601 7.50188 47.5209 7.21928C47.9212 6.79946 47.9212 6.13916 47.5209 5.71935L42.2494 0.371752C41.8685 -0.0149158 41.2607 -0.0612453 40.8256 0.263061C37.8692 2.43688 35.0432 3.52379 32.4455 3.52379C29.9044 3.53873 27.4892 2.41881 25.8588 0.469574C25.6605 0.183581 25.3372 0.00981136 24.9893 0.002203C24.639 -0.0213014 24.303 0.144588 24.1089 0.436967C22.4807 2.39028 20.0652 3.51428 17.5222 3.50205C14.9245 3.50205 12.0877 2.41514 9.14216 0.241323C8.70699 -0.0829835 8.09927 -0.036654 7.71831 0.350014L2.46853 5.69761C2.06828 6.11743 2.06828 6.77772 2.46853 7.19754C2.53375 7.26276 8.81608 14.1755 4.07716 21.4469C1.32728 25.6641 1.27293 31.8813 3.92499 37.2941C7.46832 44.5655 15.1202 49.1631 24.9023 50H25.0762C34.8584 49.2066 42.4668 44.5655 46.0753 37.3593C48.7274 31.9247 48.673 25.7293 45.9232 21.5121ZM44.1189 36.3593C40.9234 42.8808 33.9454 47.0328 24.9893 47.7827C16.0223 47.0328 9.0552 42.8699 5.85969 36.3593C3.53371 31.6204 3.54457 26.2511 5.85969 22.6534C10.4791 15.5667 6.38141 8.82791 4.67496 6.55627L8.5987 2.56731C11.1774 4.49848 14.2815 5.60128 17.5005 5.73021C20.2896 5.74108 22.9742 4.66953 24.9893 2.74121C26.9963 4.66178 29.6676 5.73266 32.4455 5.73021C35.6645 5.60142 38.7686 4.49848 41.3473 2.56731L45.271 6.52366C43.5754 8.80617 39.4778 15.545 44.0863 22.6208C46.434 26.2402 46.4449 31.6204 44.1189 36.3593Z" fill="#146EB4"/>
<path d="M26.9543 7.37888C26.9285 7.35206 26.8944 7.33484 26.8576 7.32998L25.6745 7.15804L25.1484 6.0834C25.0995 6.00201 24.9939 5.97568 24.9125 6.02458C24.8884 6.03909 24.8682 6.05927 24.8537 6.0834L24.3255 7.15394L23.1424 7.32589C23.0528 7.33768 22.9896 7.41992 23.0014 7.5096C23.0063 7.54644 23.0235 7.58055 23.0503 7.60631L23.9059 8.43941L23.7012 9.61639C23.6866 9.70679 23.748 9.79194 23.8384 9.8066C23.8733 9.81228 23.9092 9.8066 23.9407 9.79038L25.001 9.23771L26.0593 9.79448C26.1407 9.83636 26.2407 9.8043 26.2826 9.72286C26.2988 9.69134 26.3045 9.65546 26.2988 9.62049L26.0941 8.44351L26.9497 7.61041C27.0149 7.54775 27.017 7.4441 26.9543 7.37888ZM25.8034 8.26542C25.765 8.30332 25.7475 8.35754 25.7564 8.41076L25.916 9.34415L25.0768 8.90406C25.0287 8.87894 24.9714 8.87894 24.9233 8.90406L24.084 9.34415L24.2437 8.41076C24.2525 8.35754 24.235 8.30332 24.1966 8.26542L23.5191 7.60427L24.4566 7.46917C24.5104 7.46147 24.5571 7.4278 24.5814 7.37911L24.9908 6.52963L25.4002 7.37911C25.4245 7.4278 25.4712 7.46147 25.525 7.46917L26.4625 7.60427L25.8034 8.26542Z" fill="#146EB4"/>
<path d="M24.9894 40.4896H24.9898C32.6167 40.4834 38.7979 34.3023 38.8041 26.6754V26.675C38.8041 19.0454 32.6191 12.8603 24.9894 12.8603C17.3598 12.8603 11.1748 19.0454 11.1748 26.675C11.1748 34.3046 17.3598 40.4896 24.9894 40.4896ZM10.001 26.675C10.001 18.3973 16.7114 11.6867 24.9891 11.6865C33.2624 11.6983 39.9663 18.4023 39.9779 26.6757C39.9775 34.9532 33.267 41.6634 24.9894 41.6634C16.7116 41.6634 10.001 34.9528 10.001 26.675Z" fill="#146EB4" stroke="#146EB4"/>
<g clip-path="url(#clip1)">
<path d="M35.9772 11.7233C35.9643 11.7092 35.9472 11.7002 35.9288 11.6976L35.3372 11.6074L35.0742 11.0437C35.0497 11.0011 34.9969 10.9872 34.9562 11.0129C34.9442 11.0205 34.9341 11.0311 34.9268 11.0437L34.6628 11.6053L34.0712 11.6955C34.0264 11.7017 33.9948 11.7448 34.0007 11.7918C34.0031 11.8112 34.0117 11.8291 34.0252 11.8426L34.453 12.2796L34.3506 12.8969C34.3433 12.9444 34.374 12.989 34.4192 12.9967C34.4367 12.9997 34.4546 12.9967 34.4704 12.9882L35.0005 12.6983L35.5296 12.9904C35.5704 13.0123 35.6203 12.9955 35.6413 12.9528C35.6494 12.9362 35.6522 12.9174 35.6494 12.8991L35.547 12.2817L35.9749 11.8447C36.0075 11.8119 36.0085 11.7575 35.9772 11.7233ZM35.4017 12.1883C35.3825 12.2082 35.3737 12.2366 35.3782 12.2645L35.458 12.7541L35.0384 12.5233C35.0143 12.5101 34.9857 12.5101 34.9616 12.5233L34.542 12.7541L34.6218 12.2645C34.6263 12.2366 34.6175 12.2082 34.5983 12.1883L34.2595 11.8415L34.7283 11.7706C34.7552 11.7666 34.7786 11.7489 34.7907 11.7234L34.9954 11.2778L35.2001 11.7234C35.2122 11.7489 35.2356 11.7666 35.2625 11.7706L35.7313 11.8415L35.4017 12.1883Z" fill="#146EB4"/>
<path d="M14.0228 11.7233C14.0357 11.7092 14.0528 11.7002 14.0712 11.6976L14.6628 11.6074L14.9258 11.0437C14.9503 11.0011 15.0031 10.9872 15.0438 11.0129C15.0558 11.0205 15.0659 11.0311 15.0732 11.0437L15.3372 11.6053L15.9288 11.6955C15.9736 11.7017 16.0052 11.7448 15.9993 11.7918C15.9969 11.8112 15.9883 11.8291 15.9748 11.8426L15.547 12.2796L15.6494 12.8969C15.6567 12.9444 15.626 12.989 15.5808 12.9967C15.5633 12.9997 15.5454 12.9967 15.5296 12.9882L14.9995 12.6983L14.4704 12.9904C14.4296 13.0123 14.3797 12.9955 14.3587 12.9528C14.3506 12.9362 14.3478 12.9174 14.3506 12.8991L14.453 12.2817L14.0251 11.8447C13.9925 11.8119 13.9915 11.7575 14.0228 11.7233ZM14.5983 12.1883C14.6175 12.2082 14.6263 12.2366 14.6218 12.2645L14.542 12.7541L14.9616 12.5233C14.9857 12.5101 15.0143 12.5101 15.0384 12.5233L15.458 12.7541L15.3782 12.2645C15.3737 12.2366 15.3825 12.2082 15.4017 12.1883L15.7405 11.8415L15.2717 11.7706C15.2448 11.7666 15.2214 11.7489 15.2093 11.7234L15.0046 11.2778L14.7999 11.7234C14.7878 11.7489 14.7644 11.7666 14.7375 11.7706L14.2687 11.8415L14.5983 12.1883Z" fill="#146EB4"/>
<path d="M38.9772 14.7233C38.9643 14.7092 38.9472 14.7002 38.9288 14.6976L38.3372 14.6074L38.0742 14.0437C38.0497 14.0011 37.9969 13.9872 37.9562 14.0129C37.9442 14.0205 37.9341 14.0311 37.9268 14.0437L37.6628 14.6053L37.0712 14.6955C37.0264 14.7017 36.9948 14.7448 37.0007 14.7918C37.0031 14.8112 37.0117 14.8291 37.0252 14.8426L37.453 15.2796L37.3506 15.8969C37.3433 15.9444 37.374 15.989 37.4192 15.9967C37.4367 15.9997 37.4546 15.9967 37.4704 15.9882L38.0005 15.6983L38.5296 15.9904C38.5704 16.0123 38.6203 15.9955 38.6413 15.9528C38.6494 15.9362 38.6522 15.9174 38.6494 15.8991L38.547 15.2817L38.9749 14.8447C39.0075 14.8119 39.0085 14.7575 38.9772 14.7233ZM38.4017 15.1883C38.3825 15.2082 38.3737 15.2366 38.3782 15.2645L38.458 15.7541L38.0384 15.5233C38.0143 15.5101 37.9857 15.5101 37.9616 15.5233L37.542 15.7541L37.6218 15.2645C37.6263 15.2366 37.6175 15.2082 37.5983 15.1883L37.2595 14.8415L37.7283 14.7706C37.7552 14.7666 37.7786 14.7489 37.7907 14.7234L37.9954 14.2778L38.2001 14.7234C38.2122 14.7489 38.2356 14.7666 38.2625 14.7706L38.7313 14.8415L38.4017 15.1883Z" fill="#146EB4"/>
<path d="M11.0228 14.7233C11.0357 14.7092 11.0528 14.7002 11.0712 14.6976L11.6628 14.6074L11.9258 14.0437C11.9503 14.0011 12.0031 13.9872 12.0438 14.0129C12.0558 14.0205 12.0659 14.0311 12.0732 14.0437L12.3372 14.6053L12.9288 14.6955C12.9736 14.7017 13.0052 14.7448 12.9993 14.7918C12.9969 14.8112 12.9883 14.8291 12.9748 14.8426L12.547 15.2796L12.6494 15.8969C12.6567 15.9444 12.626 15.989 12.5808 15.9967C12.5633 15.9997 12.5454 15.9967 12.5296 15.9882L11.9995 15.6983L11.4704 15.9904C11.4296 16.0123 11.3797 15.9955 11.3587 15.9528C11.3506 15.9362 11.3478 15.9174 11.3506 15.8991L11.453 15.2817L11.0251 14.8447C10.9925 14.8119 10.9915 14.7575 11.0228 14.7233ZM11.5983 15.1883C11.6175 15.2082 11.6263 15.2366 11.6218 15.2645L11.542 15.7541L11.9616 15.5233C11.9857 15.5101 12.0143 15.5101 12.0384 15.5233L12.458 15.7541L12.3782 15.2645C12.3737 15.2366 12.3825 15.2082 12.4017 15.1883L12.7405 14.8415L12.2717 14.7706C12.2448 14.7666 12.2214 14.7489 12.2093 14.7234L12.0046 14.2778L11.7999 14.7234C11.7878 14.7489 11.7644 14.7666 11.7375 14.7706L11.2687 14.8415L11.5983 15.1883Z" fill="#146EB4"/>
<path d="M23.541 32H16.6504V30.2158L18.9355 26.9814C19.5625 26.0908 19.9932 25.4316 20.2275 25.0039C20.4619 24.5703 20.6348 24.1572 20.7461 23.7646C20.8574 23.3662 20.9131 22.9561 20.9131 22.5342C20.9131 22.042 20.8018 21.6729 20.5791 21.4268C20.3623 21.1807 20.0781 21.0576 19.7266 21.0576C19.416 21.0576 19.126 21.1396 18.8564 21.3037C18.5869 21.4678 18.2588 21.7637 17.8721 22.1914L16.5361 20.7852C17.1514 20.0879 17.7227 19.6104 18.25 19.3525C18.7773 19.0947 19.3486 18.9658 19.9639 18.9658C21.001 18.9658 21.8096 19.2705 22.3896 19.8799C22.9756 20.4893 23.2686 21.3359 23.2686 22.4199C23.2686 22.9121 23.2158 23.3779 23.1104 23.8174C23.0049 24.2568 22.8438 24.6992 22.627 25.1445C22.416 25.584 22.1494 26.0439 21.8271 26.5244C21.5049 26.999 20.6729 28.0918 19.3311 29.8027V29.873H23.541V32Z" fill="#146EB4"/>
<path d="M25.6312 22.6312C25.2242 23.0383 25 23.5795 25 24.1552C25 24.7308 25.2242 25.2721 25.6312 25.6791C26.0383 26.0862 26.5795 26.3103 27.1552 26.3103C27.7308 26.3103 28.272 26.0862 28.6791 25.6791C29.0862 25.2721 29.3103 24.7308 29.3103 24.1552C29.3103 23.5795 29.0862 23.0383 28.6791 22.6312C28.272 22.2242 27.7308 22 27.1552 22C26.5795 22 26.0383 22.2242 25.6312 22.6312ZM29.1812 24.2192C29.1652 24.7367 28.9563 25.2208 28.5886 25.5886C28.5874 25.5898 28.5861 25.591 28.5849 25.5922C28.4053 25.4137 28.2625 25.2063 28.16 24.975C28.0541 24.7357 27.9966 24.4817 27.9885 24.2192L29.1812 24.2192ZM27.0912 24.2192V25.4269H27.2192V24.2192H27.8604C27.8685 24.4997 27.9298 24.7711 28.0429 25.0268C28.1512 25.2714 28.302 25.4906 28.4913 25.6796C28.1374 25.9907 27.6922 26.1666 27.2192 26.1812V25.5976H27.0911V26.1812C26.6181 26.1666 26.1729 25.9907 25.819 25.6796C26.0084 25.4906 26.1591 25.2714 26.2674 25.0268C26.3806 24.7711 26.4418 24.4997 26.4499 24.2192H27.0912ZM26.3218 24.2192C26.3138 24.4817 26.2562 24.7357 26.1503 24.9749C26.0479 25.2063 25.905 25.4137 25.7255 25.5922C25.7242 25.591 25.723 25.5898 25.7218 25.5886C25.354 25.2208 25.1451 24.7366 25.1291 24.2192L26.3218 24.2192ZM25.1291 24.0912C25.1451 23.5737 25.354 23.0895 25.7218 22.7218C25.723 22.7206 25.7242 22.7194 25.7254 22.7182C25.905 22.8967 26.0479 23.104 26.1503 23.3354C26.2562 23.5747 26.3138 23.8286 26.3218 24.0911L25.1291 24.0912ZM27.0912 24.0912H26.4499C26.4418 23.8106 26.3806 23.5393 26.2674 23.2836C26.1591 23.039 26.0084 22.8197 25.819 22.6307C26.1729 22.3197 26.6181 22.1437 27.0912 22.1291L27.0912 24.0912ZM28.5886 22.7218C28.9563 23.0895 29.1653 23.5737 29.1812 24.0912H27.9885C27.9966 23.8286 28.0541 23.5747 28.16 23.3354C28.2625 23.104 28.4053 22.8967 28.5849 22.7182C28.5861 22.7194 28.5874 22.7206 28.5886 22.7218ZM28.043 23.2836C27.9298 23.5393 27.8685 23.8106 27.8604 24.0912H27.2192V22.1291C27.6923 22.1437 28.1374 22.3197 28.4913 22.6307C28.302 22.8197 28.1512 23.039 28.043 23.2836Z" fill="#146EB4" stroke="#146EB4" stroke-width="0.3"/>
<path d="M31.3207 28.3207C30.9136 28.7277 30.6895 29.269 30.6895 29.8446C30.6895 30.4203 30.9136 30.9615 31.3207 31.3686C31.7277 31.7756 32.269 31.9998 32.8446 31.9998C33.4203 31.9998 33.9615 31.7756 34.3686 31.3686C34.7756 30.9615 34.9998 30.4203 34.9998 29.8446C34.9998 29.269 34.7756 28.7277 34.3686 28.3207C33.9615 27.9136 33.4203 27.6895 32.8446 27.6895C32.269 27.6895 31.7277 27.9136 31.3207 28.3207ZM34.8707 29.9086C34.8547 30.4261 34.6458 30.9103 34.278 31.278C34.2768 31.2792 34.2756 31.2804 34.2744 31.2816C34.0948 31.1031 33.9519 30.8958 33.8495 30.6644C33.7436 30.4251 33.686 30.1712 33.678 29.9087L34.8707 29.9086ZM32.7806 29.9086V31.1164H32.9086V29.9086H33.5499C33.558 30.1892 33.6192 30.4605 33.7324 30.7162C33.8407 30.9608 33.9914 31.1801 34.1808 31.3691C33.8269 31.6801 33.3817 31.8561 32.9086 31.8707V31.2871H32.7806V31.8707C32.3075 31.8561 31.8624 31.6801 31.5085 31.3691C31.6978 31.1801 31.8486 30.9608 31.9568 30.7162C32.07 30.4605 32.1313 30.1892 32.1394 29.9086H32.7806ZM32.0113 29.9086C32.0032 30.1712 31.9457 30.4251 31.8398 30.6644C31.7373 30.8958 31.5945 31.1031 31.4149 31.2816C31.4137 31.2804 31.4124 31.2792 31.4112 31.278C31.0435 30.9103 30.8345 30.4261 30.8186 29.9086L32.0113 29.9086ZM30.8186 29.7806C30.8345 29.2631 31.0435 28.779 31.4112 28.4112C31.4124 28.41 31.4137 28.4088 31.4149 28.4076C31.5945 28.5861 31.7373 28.7934 31.8398 29.0249C31.9457 29.2641 32.0032 29.5181 32.0113 29.7806L30.8186 29.7806ZM32.7806 29.7806H32.1394C32.1313 29.5001 32.07 29.2287 31.9569 28.973C31.8486 28.7284 31.6978 28.5092 31.5085 28.3202C31.8624 28.0091 32.3076 27.8332 32.7806 27.8186L32.7806 29.7806ZM34.278 28.4112C34.6458 28.779 34.8547 29.2631 34.8707 29.7806H33.678C33.686 29.5181 33.7435 29.2641 33.8495 29.0249C33.9519 28.7935 34.0947 28.5861 34.2743 28.4076C34.2756 28.4088 34.2768 28.41 34.278 28.4112ZM33.7324 28.973C33.6192 29.2287 33.558 29.5001 33.5499 29.7806H32.9086V27.8186C33.3817 27.8332 33.8269 28.0091 34.1808 28.3202C33.9914 28.5092 33.8407 28.7284 33.7324 28.973Z" fill="#146EB4" stroke="#146EB4" stroke-width="0.3"/>
<rect x="31.8965" y="22" width="1.89655" height="10.3448" rx="0.948276" transform="rotate(30 31.8965 22)" fill="#146EB4"/>
</g>
<path d="M31.9772 9.72327C31.9643 9.70921 31.9472 9.70018 31.9288 9.69763L31.3372 9.60744L31.0742 9.04375C31.0497 9.00105 30.9969 8.98724 30.9562 9.01289C30.9442 9.0205 30.9341 9.03109 30.9268 9.04375L30.6628 9.60529L30.0712 9.69548C30.0264 9.70167 29.9948 9.7448 30.0007 9.79184C30.0031 9.81117 30.0117 9.82906 30.0252 9.84257L30.453 10.2796L30.3506 10.8969C30.3433 10.9444 30.374 10.989 30.4192 10.9967C30.4367 10.9997 30.4546 10.9967 30.4704 10.9882L31.0005 10.6983L31.5296 10.9904C31.5704 11.0123 31.6203 10.9955 31.6413 10.9528C31.6494 10.9362 31.6522 10.9174 31.6494 10.8991L31.547 10.2817L31.9749 9.84472C32.0075 9.81185 32.0085 9.75748 31.9772 9.72327ZM31.4017 10.1883C31.3825 10.2082 31.3737 10.2366 31.3782 10.2645L31.458 10.7541L31.0384 10.5233C31.0143 10.5101 30.9857 10.5101 30.9616 10.5233L30.542 10.7541L30.6218 10.2645C30.6263 10.2366 30.6175 10.2082 30.5983 10.1883L30.2595 9.8415L30.7283 9.77064C30.7552 9.7666 30.7786 9.74893 30.7907 9.72339L30.9954 9.27781L31.2001 9.72339C31.2122 9.74893 31.2356 9.7666 31.2625 9.77064L31.7313 9.8415L31.4017 10.1883Z" fill="#146EB4"/>
<path d="M18.0228 9.72327C18.0357 9.70921 18.0528 9.70018 18.0712 9.69763L18.6628 9.60744L18.9258 9.04375C18.9503 9.00105 19.0031 8.98724 19.0438 9.01289C19.0558 9.0205 19.0659 9.03109 19.0732 9.04375L19.3372 9.60529L19.9288 9.69548C19.9736 9.70167 20.0052 9.7448 19.9993 9.79184C19.9969 9.81117 19.9883 9.82906 19.9748 9.84257L19.547 10.2796L19.6494 10.8969C19.6567 10.9444 19.626 10.989 19.5808 10.9967C19.5633 10.9997 19.5454 10.9967 19.5296 10.9882L18.9995 10.6983L18.4704 10.9904C18.4296 11.0123 18.3797 10.9955 18.3587 10.9528C18.3506 10.9362 18.3478 10.9174 18.3506 10.8991L18.453 10.2817L18.0251 9.84472C17.9925 9.81185 17.9915 9.75748 18.0228 9.72327ZM18.5983 10.1883C18.6175 10.2082 18.6263 10.2366 18.6218 10.2645L18.542 10.7541L18.9616 10.5233C18.9857 10.5101 19.0143 10.5101 19.0384 10.5233L19.458 10.7541L19.3782 10.2645C19.3737 10.2366 19.3825 10.2082 19.4017 10.1883L19.7405 9.8415L19.2717 9.77064C19.2448 9.7666 19.2214 9.74893 19.2093 9.72339L19.0046 9.27781L18.7999 9.72339C18.7878 9.74893 18.7644 9.7666 18.7375 9.77064L18.2687 9.8415L18.5983 10.1883Z" fill="#146EB4"/>
</g>
<defs>
<clipPath id="clip0">
<rect width="50" height="50" fill="white"/>
</clipPath>
<clipPath id="clip1">
<rect width="30.9769" height="30.9769" fill="white" transform="translate(9.51074 42.1177) rotate(-90)"/>
</clipPath>
</defs>
</svg>
