<svg width="34" height="32" viewBox="0 0 34 32" fill="none" xmlns="http://www.w3.org/2000/svg">
<path d="M2.88284 21.2041L3.23203 20.8462C3.03781 20.6567 2.72787 20.6567 2.53365 20.8462L2.88284 21.2041ZM6.0201 24.2653L5.67091 24.6232C5.86513 24.8127 6.17506 24.8127 6.36929 24.6232L6.0201 24.2653ZM9.15735 21.2041L9.50654 20.8462C9.31232 20.6567 9.00238 20.6567 8.80816 20.8462L9.15735 21.2041ZM11.0397 23.0408L11.3889 23.3987C11.4853 23.3046 11.5397 23.1756 11.5397 23.0408C11.5397 22.9061 11.4853 22.7771 11.3889 22.683L11.0397 23.0408ZM7.90245 26.102L7.55326 25.7442C7.45683 25.8383 7.40245 25.9673 7.40245 26.102C7.40245 26.2368 7.45683 26.3658 7.55326 26.4599L7.90245 26.102ZM11.0397 29.1633L11.3889 29.5211C11.4853 29.427 11.5397 29.298 11.5397 29.1633C11.5397 29.0285 11.4853 28.8995 11.3889 28.8054L11.0397 29.1633ZM9.15735 31L8.82234 31.3712C9.0182 31.5479 9.31771 31.5421 9.50654 31.3579L9.15735 31ZM6.0201 28.1684L6.35511 27.7972C6.16479 27.6254 5.8754 27.6254 5.68508 27.7972L6.0201 28.1684ZM2.88284 31L2.53365 31.3579C2.72249 31.5421 3.022 31.5479 3.21785 31.3712L2.88284 31ZM1.00049 29.1633L0.651298 28.8054C0.554865 28.8995 0.500488 29.0285 0.500488 29.1633C0.500488 29.298 0.554865 29.427 0.651298 29.5211L1.00049 29.1633ZM4.13774 26.102L4.48693 26.4599C4.58337 26.3658 4.63774 26.2368 4.63774 26.102C4.63774 25.9673 4.58337 25.8383 4.48693 25.7442L4.13774 26.102ZM1.00049 23.0408L0.651298 22.683C0.554865 22.7771 0.500488 22.9061 0.500488 23.0408C0.500488 23.1756 0.554865 23.3046 0.651298 23.3987L1.00049 23.0408ZM16.0593 23.6531V23.1531C15.7832 23.1531 15.5593 23.3769 15.5593 23.6531H16.0593ZM33.0005 23.6531H33.5005C33.5005 23.3769 33.2766 23.1531 33.0005 23.1531V23.6531ZM33.0005 28.1684V28.6684C33.2766 28.6684 33.5005 28.4445 33.5005 28.1684H33.0005ZM16.0593 28.1684H15.5593C15.5593 28.4445 15.7832 28.6684 16.0593 28.6684V28.1684ZM26.726 25.602C26.4498 25.602 26.226 25.8259 26.226 26.102C26.226 26.3782 26.4498 26.602 26.726 26.602V25.602ZM24.2162 26.602C24.4923 26.602 24.7162 26.3782 24.7162 26.102C24.7162 25.8259 24.4923 25.602 24.2162 25.602V26.602ZM21.7064 25.602C21.4302 25.602 21.2064 25.8259 21.2064 26.102C21.2064 26.3782 21.4302 26.602 21.7064 26.602V25.602ZM26.0985 4.78571C25.8224 4.78571 25.5985 5.00957 25.5985 5.28571C25.5985 5.56186 25.8224 5.78571 26.0985 5.78571V4.78571ZM23.5887 5.78571C23.8649 5.78571 24.0887 5.56186 24.0887 5.28571C24.0887 5.00957 23.8649 4.78571 23.5887 4.78571V5.78571ZM20.4515 4.78571C20.1753 4.78571 19.9515 5.00957 19.9515 5.28571C19.9515 5.56186 20.1753 5.78571 20.4515 5.78571V4.78571ZM2.88284 2.83673L3.2695 2.51973C3.18067 2.41138 3.05045 2.34527 2.91056 2.3375C2.77066 2.32974 2.63393 2.38102 2.53365 2.47887L2.88284 2.83673ZM1.00049 4.67347L0.651298 4.31561C0.554865 4.4097 0.500488 4.53873 0.500488 4.67347C0.500488 4.8082 0.554865 4.93724 0.651298 5.03133L1.00049 4.67347ZM5.39265 8.95918L5.04346 9.31705C5.22522 9.4944 5.51106 9.50734 5.70809 9.34712L5.39265 8.95918ZM12.9221 2.83673L13.2375 3.22467C13.3481 3.13471 13.4151 3.00179 13.4215 2.85934C13.428 2.71688 13.3733 2.57846 13.2712 2.47887L12.9221 2.83673ZM11.0397 1L11.3889 0.642137C11.2028 0.460533 10.9085 0.451901 10.7121 0.622283L11.0397 1ZM5.39265 5.89796L5.00599 6.21497C5.09159 6.31938 5.21577 6.38473 5.3503 6.39616C5.48483 6.4076 5.61826 6.36414 5.72026 6.27568L5.39265 5.89796ZM16.0593 2.83673V2.33673C15.7832 2.33673 15.5593 2.56059 15.5593 2.83673H16.0593ZM33.0005 2.83673H33.5005C33.5005 2.56059 33.2766 2.33673 33.0005 2.33673V2.83673ZM33.0005 7.73469V8.23469C33.2766 8.23469 33.5005 8.01084 33.5005 7.73469H33.0005ZM16.0593 7.73469H15.5593C15.5593 8.01084 15.7832 8.23469 16.0593 8.23469V7.73469ZM2.88284 13.2449L3.2695 12.9279C3.18067 12.8195 3.05045 12.7534 2.91056 12.7457C2.77066 12.7379 2.63393 12.7892 2.53365 12.887L2.88284 13.2449ZM1.00049 15.0816L0.651298 14.7238C0.554865 14.8179 0.500488 14.9469 0.500488 15.0816C0.500488 15.2164 0.554865 15.3454 0.651298 15.4395L1.00049 15.0816ZM5.39265 19.3673L5.04346 19.7252C5.22522 19.9026 5.51106 19.9155 5.70809 19.7553L5.39265 19.3673ZM12.9221 13.2449L13.2375 13.6328C13.3481 13.5429 13.4151 13.4099 13.4215 13.2675C13.428 13.125 13.3733 12.9866 13.2712 12.887L12.9221 13.2449ZM11.0397 11.4082L11.3889 11.0503C11.2028 10.8687 10.9085 10.8601 10.7121 11.0304L11.0397 11.4082ZM5.39265 16.3061L5.00599 16.6231C5.09159 16.7275 5.21577 16.7929 5.3503 16.8043C5.48483 16.8158 5.61826 16.7723 5.72026 16.6838L5.39265 16.3061ZM16.0593 13.2449V12.7449C15.7832 12.7449 15.5593 12.9688 15.5593 13.2449H16.0593ZM33.0005 13.2449H33.5005C33.5005 12.9688 33.2766 12.7449 33.0005 12.7449V13.2449ZM33.0005 18.1429V18.6429C33.2766 18.6429 33.5005 18.419 33.5005 18.1429H33.0005ZM16.0593 18.1429H15.5593C15.5593 18.419 15.7832 18.6429 16.0593 18.6429V18.1429ZM2.53365 21.5619L5.67091 24.6232L6.36929 23.9074L3.23203 20.8462L2.53365 21.5619ZM6.36929 24.6232L9.50654 21.5619L8.80816 20.8462L5.67091 23.9074L6.36929 24.6232ZM8.80816 21.5619L10.6905 23.3987L11.3889 22.683L9.50654 20.8462L8.80816 21.5619ZM10.6905 22.683L7.55326 25.7442L8.25164 26.4599L11.3889 23.3987L10.6905 22.683ZM7.55326 26.4599L10.6905 29.5211L11.3889 28.8054L8.25164 25.7442L7.55326 26.4599ZM10.6905 28.8054L8.80816 30.6421L9.50654 31.3579L11.3889 29.5211L10.6905 28.8054ZM9.49236 30.6288L6.35511 27.7972L5.68508 28.5395L8.82234 31.3712L9.49236 30.6288ZM5.68508 27.7972L2.54783 30.6288L3.21785 31.3712L6.35511 28.5395L5.68508 27.7972ZM3.23203 30.6421L1.34968 28.8054L0.651298 29.5211L2.53365 31.3579L3.23203 30.6421ZM1.34968 29.5211L4.48693 26.4599L3.78855 25.7442L0.651298 28.8054L1.34968 29.5211ZM4.48693 25.7442L1.34968 22.683L0.651298 23.3987L3.78855 26.4599L4.48693 25.7442ZM1.34968 23.3987L3.23203 21.5619L2.53365 20.8462L0.651298 22.683L1.34968 23.3987ZM16.0593 24.1531H33.0005V23.1531H16.0593V24.1531ZM33.0005 27.6684H16.0593V28.6684H33.0005V27.6684ZM16.5593 28.1684V23.6531H15.5593V28.1684H16.5593ZM32.5005 26.102V28.1684H33.5005V26.102H32.5005ZM33.0005 25.602H26.726V26.602H33.0005V25.602ZM24.2162 25.602H21.7064V26.602H24.2162V25.602ZM33.0005 4.78571H26.0985V5.78571H33.0005V4.78571ZM2.53365 2.47887L0.651298 4.31561L1.34968 5.03133L3.23203 3.1946L2.53365 2.47887ZM0.651298 5.03133L5.04346 9.31705L5.74184 8.60132L1.34968 4.31561L0.651298 5.03133ZM5.70809 9.34712L13.2375 3.22467L12.6066 2.4488L5.0772 8.57125L5.70809 9.34712ZM13.2712 2.47887L11.3889 0.642137L10.6905 1.35786L12.5729 3.1946L13.2712 2.47887ZM10.7121 0.622283L5.06503 5.52024L5.72026 6.27568L11.3673 1.37772L10.7121 0.622283ZM5.7793 5.58095L3.2695 2.51973L2.49618 3.15374L5.00599 6.21497L5.7793 5.58095ZM16.0593 3.33673H33.0005V2.33673H16.0593V3.33673ZM32.5005 2.83673V7.73469H33.5005V2.83673H32.5005ZM33.0005 7.23469H16.0593V8.23469H33.0005V7.23469ZM16.5593 7.73469V2.83673H15.5593V7.73469H16.5593ZM2.53365 12.887L0.651298 14.7238L1.34968 15.4395L3.23203 13.6028L2.53365 12.887ZM0.651298 15.4395L5.04346 19.7252L5.74184 19.0095L1.34968 14.7238L0.651298 15.4395ZM5.70809 19.7553L13.2375 13.6328L12.6066 12.857L5.0772 18.9794L5.70809 19.7553ZM13.2712 12.887L11.3889 11.0503L10.6905 11.766L12.5729 13.6028L13.2712 12.887ZM10.7121 11.0304L5.06503 15.9284L5.72026 16.6838L11.3673 11.7859L10.7121 11.0304ZM5.7793 15.9891L3.2695 12.9279L2.49618 13.5619L5.00599 16.6231L5.7793 15.9891ZM16.0593 13.7449H33.0005V12.7449H16.0593V13.7449ZM32.5005 13.2449V18.1429H33.5005V13.2449H32.5005ZM33.0005 17.6429H16.0593V18.6429H33.0005V17.6429ZM16.5593 18.1429V13.2449H15.5593V18.1429H16.5593ZM32.5005 23.6531V26.102H33.5005V23.6531H32.5005ZM23.5887 4.78571H20.4515V5.78571H23.5887V4.78571Z" fill="#146EB4"/>
</svg>
