<svg width="34" height="35" viewBox="0 0 34 35" fill="none" xmlns="http://www.w3.org/2000/svg">
<path d="M17.4037 26.2957C17.567 26.073 17.5189 25.7601 17.2962 25.5968C17.0735 25.4335 16.7606 25.4816 16.5973 25.7043L17.4037 26.2957ZM11.5005 33.5L11.0261 33.6581L11.3319 34.5754L11.9037 33.7957L11.5005 33.5ZM9.00049 26L9.34246 25.6352C9.17548 25.4787 8.92353 25.4555 8.7308 25.579C8.53807 25.7024 8.45377 25.941 8.52615 26.1581L9.00049 26ZM16.6585 33.8648C16.86 34.0536 17.1764 34.0434 17.3653 33.842C17.5541 33.6405 17.5439 33.3241 17.3425 33.1352L16.6585 33.8648ZM16.5973 25.7043L11.0973 33.2043L11.9037 33.7957L17.4037 26.2957L16.5973 25.7043ZM11.9748 33.3419L9.47483 25.8419L8.52615 26.1581L11.0261 33.6581L11.9748 33.3419ZM8.65852 26.3648L16.6585 33.8648L17.3425 33.1352L9.34246 25.6352L8.65852 26.3648Z" fill="#FF0303"/>
<path d="M17.4037 26.2957C17.567 26.073 17.5189 25.7601 17.2962 25.5968C17.0735 25.4335 16.7606 25.4816 16.5973 25.7043L17.4037 26.2957ZM11.5005 33.5L11.0261 33.6581L11.3319 34.5754L11.9037 33.7957L11.5005 33.5ZM9.00049 26L9.34246 25.6352C9.17548 25.4787 8.92353 25.4555 8.7308 25.579C8.53807 25.7024 8.45377 25.941 8.52615 26.1581L9.00049 26ZM16.6585 33.8648C16.86 34.0536 17.1764 34.0434 17.3653 33.842C17.5541 33.6405 17.5439 33.3241 17.3425 33.1352L16.6585 33.8648ZM16.5973 25.7043L11.0973 33.2043L11.9037 33.7957L17.4037 26.2957L16.5973 25.7043ZM11.9748 33.3419L9.47483 25.8419L8.52615 26.1581L11.0261 33.6581L11.9748 33.3419ZM8.65852 26.3648L16.6585 33.8648L17.3425 33.1352L9.34246 25.6352L8.65852 26.3648Z" fill="black" fill-opacity="0.2"/>
<path d="M16.5973 26.2957C16.434 26.073 16.4821 25.7601 16.7048 25.5968C16.9275 25.4335 17.2404 25.4816 17.4037 25.7043L16.5973 26.2957ZM22.5005 33.5L22.9748 33.6581L22.6691 34.5754L22.0973 33.7957L22.5005 33.5ZM25.0005 26L24.6585 25.6352C24.8255 25.4787 25.0774 25.4555 25.2702 25.579C25.4629 25.7024 25.5472 25.941 25.4748 26.1581L25.0005 26ZM17.3425 33.8648C17.141 34.0536 16.8246 34.0434 16.6357 33.842C16.4469 33.6405 16.4571 33.3241 16.6585 33.1352L17.3425 33.8648ZM17.4037 25.7043L22.9037 33.2043L22.0973 33.7957L16.5973 26.2957L17.4037 25.7043ZM22.0261 33.3419L24.5261 25.8419L25.4748 26.1581L22.9748 33.6581L22.0261 33.3419ZM25.3425 26.3648L17.3425 33.8648L16.6585 33.1352L24.6585 25.6352L25.3425 26.3648Z" fill="#FF0303"/>
<path d="M16.5973 26.2957C16.434 26.073 16.4821 25.7601 16.7048 25.5968C16.9275 25.4335 17.2404 25.4816 17.4037 25.7043L16.5973 26.2957ZM22.5005 33.5L22.9748 33.6581L22.6691 34.5754L22.0973 33.7957L22.5005 33.5ZM25.0005 26L24.6585 25.6352C24.8255 25.4787 25.0774 25.4555 25.2702 25.579C25.4629 25.7024 25.5472 25.941 25.4748 26.1581L25.0005 26ZM17.3425 33.8648C17.141 34.0536 16.8246 34.0434 16.6357 33.842C16.4469 33.6405 16.4571 33.3241 16.6585 33.1352L17.3425 33.8648ZM17.4037 25.7043L22.9037 33.2043L22.0973 33.7957L16.5973 26.2957L17.4037 25.7043ZM22.0261 33.3419L24.5261 25.8419L25.4748 26.1581L22.9748 33.6581L22.0261 33.3419ZM25.3425 26.3648L17.3425 33.8648L16.6585 33.1352L24.6585 25.6352L25.3425 26.3648Z" fill="black" fill-opacity="0.2"/>
<path d="M17.0005 23H8.50049V9.5H17.0005" stroke="#FF0303"/>
<path d="M17.0005 23H8.50049V9.5H17.0005" stroke="black" stroke-opacity="0.2"/>
<path d="M17.0005 23H25.5005V9.5H17.0005" stroke="#FF0303"/>
<path d="M17.0005 23H25.5005V9.5H17.0005" stroke="black" stroke-opacity="0.2"/>
<path d="M1.00049 1V0.5C0.724346 0.5 0.500488 0.723858 0.500488 1H1.00049ZM1.00049 27.25H0.500488C0.500488 27.3725 0.545428 27.4907 0.626784 27.5822L1.00049 27.25ZM3.00049 29.5L2.62678 29.8322C2.72167 29.9389 2.85767 30 3.00049 30V29.5ZM5.00049 30C5.27663 30 5.50049 29.7761 5.50049 29.5C5.50049 29.2239 5.27663 29 5.00049 29V30ZM17.0005 0.5H1.00049V1.5H17.0005V0.5ZM0.500488 1V27.25H1.50049V1H0.500488ZM0.626784 27.5822L2.62678 29.8322L3.37419 29.1678L1.37419 26.9178L0.626784 27.5822ZM3.00049 30H5.00049V29H3.00049V30Z" fill="#FF0303"/>
<path d="M1.00049 1V0.5C0.724346 0.5 0.500488 0.723858 0.500488 1H1.00049ZM1.00049 27.25H0.500488C0.500488 27.3725 0.545428 27.4907 0.626784 27.5822L1.00049 27.25ZM3.00049 29.5L2.62678 29.8322C2.72167 29.9389 2.85767 30 3.00049 30V29.5ZM5.00049 30C5.27663 30 5.50049 29.7761 5.50049 29.5C5.50049 29.2239 5.27663 29 5.00049 29V30ZM17.0005 0.5H1.00049V1.5H17.0005V0.5ZM0.500488 1V27.25H1.50049V1H0.500488ZM0.626784 27.5822L2.62678 29.8322L3.37419 29.1678L1.37419 26.9178L0.626784 27.5822ZM3.00049 30H5.00049V29H3.00049V30Z" fill="black" fill-opacity="0.2"/>
<path d="M33.0005 1V0.5C33.2766 0.5 33.5005 0.723858 33.5005 1H33.0005ZM33.0005 27.25H33.5005C33.5005 27.3725 33.4555 27.4907 33.3742 27.5822L33.0005 27.25ZM31.0005 29.5L31.3742 29.8322C31.2793 29.9389 31.1433 30 31.0005 30V29.5ZM29.0005 30C28.7243 30 28.5005 29.7761 28.5005 29.5C28.5005 29.2239 28.7243 29 29.0005 29V30ZM17.0005 0.5H33.0005V1.5H17.0005V0.5ZM33.5005 1V27.25H32.5005V1H33.5005ZM33.3742 27.5822L31.3742 29.8322L30.6268 29.1678L32.6268 26.9178L33.3742 27.5822ZM31.0005 30H29.0005V29H31.0005V30Z" fill="#FF0303"/>
<path d="M33.0005 1V0.5C33.2766 0.5 33.5005 0.723858 33.5005 1H33.0005ZM33.0005 27.25H33.5005C33.5005 27.3725 33.4555 27.4907 33.3742 27.5822L33.0005 27.25ZM31.0005 29.5L31.3742 29.8322C31.2793 29.9389 31.1433 30 31.0005 30V29.5ZM29.0005 30C28.7243 30 28.5005 29.7761 28.5005 29.5C28.5005 29.2239 28.7243 29 29.0005 29V30ZM17.0005 0.5H33.0005V1.5H17.0005V0.5ZM33.5005 1V27.25H32.5005V1H33.5005ZM33.3742 27.5822L31.3742 29.8322L30.6268 29.1678L32.6268 26.9178L33.3742 27.5822ZM31.0005 30H29.0005V29H31.0005V30Z" fill="black" fill-opacity="0.2"/>
</svg>
