<svg width="32" height="36" viewBox="0 0 32 36" fill="none" xmlns="http://www.w3.org/2000/svg">
<path d="M23.8818 18.2537L31.0005 21.2985V35L26.4242 33.4776L23.8818 32.4627H21.8479H19.814L17.7801 33.1604L16.2547 33.9851H14.2208H12.6954L10.153 33.4776L8.11913 32.4627L6.59371 31.4478L5.06828 30.4328L3.54286 28.9104L2.52591 27.3881L2.01744 25.6119L3.03439 24.3433L5.06828 23.8358H6.59371L8.11913 25.3582L10.153 26.8806H12.6954L14.2208 25.8657L15.2378 24.3433V22.3134L14.2208 20.2836L13.2039 18.7612H11.17L9.64456 19.459L8.11913 20.2836L6.59371 21.2985L5.57676 22.8209L4.05134 23.3284H2.52591L1.50896 22.3134L1.00049 20.2836L2.01744 18.7612L6.59371 14.194L11.17 13.6866M23.8818 18.2537L21.8479 13.1791L19.3056 8.10448L18.7971 7.55473M23.8818 18.2537L24.3903 14.194V11.1493V8.61194L23.8818 5.56716L22.8649 4.55224L21.8479 3.53731H20.3225L19.814 4.04478L18.7971 5.0597V7.08955V7.55473M13.2039 8.10448L11.17 6.07463L10.153 5.0597L9.13608 3.02985L9.64456 1.50746L11.17 1L13.2039 1.50746L18.7971 7.55473M13.2039 8.10448L16.2547 9.62687L17.2717 12.1642L17.7801 13.6866M13.2039 8.10448L11.17 7.59701L7.61066 6.58209L4.55981 6.07463H3.54286L2.52591 7.59701V9.1194L3.03439 9.62687L4.55981 10.6418L6.59371 11.1493L9.13608 12.1642L10.153 12.6716L11.17 13.6866M19.814 17.7463L18.2886 15.209L17.7801 13.6866M17.7801 13.6866H11.17" stroke="#146EB4" stroke-linejoin="round"/>
</svg>
