<svg width="36" height="26" viewBox="0 0 36 26" fill="none" xmlns="http://www.w3.org/2000/svg">
<path d="M4.0624 10.7143H1.00049V15.2857H4.0624M4.0624 10.7143V5.57143L5.08304 4.42857H8.14495M4.0624 10.7143V15.2857M4.0624 15.2857V20.4286L5.08304 21.5714H8.14495M8.14495 21.5714V4.42857M8.14495 21.5714V23.8571L9.16559 25H12.2275L13.2481 23.8571V15.2857M8.14495 4.42857V2.14286L9.16559 1H12.2275L13.2481 2.14286V10.7143M13.2481 10.7143H18.16M13.2481 10.7143V15.2857M13.2481 15.2857H18.16M31.9386 10.7143H35.0005V15.2857H31.9386M31.9386 10.7143V5.57143L30.9179 4.42857H27.856M31.9386 10.7143V15.2857M31.9386 15.2857V20.4286L30.9179 21.5714H27.856M27.856 21.5714V4.42857M27.856 21.5714V23.8571L26.8354 25H23.7735L22.7528 23.8571V15.2857M27.856 4.42857V2.14286L26.8354 1H23.7735L22.7528 2.14286V10.7143M22.7528 10.7143H17.841M22.7528 10.7143V15.2857M22.7528 15.2857H17.841" stroke="#146EB4" stroke-linejoin="round"/>
</svg>
