<svg width="37" height="48" viewBox="0 0 37 48" fill="none" xmlns="http://www.w3.org/2000/svg">
<path d="M29.797 9.12531L22.4126 8.38702L18.7032 0.95968C18.6311 0.838605 18.5287 0.738348 18.4061 0.668726C18.2835 0.599103 18.145 0.5625 18.004 0.5625C17.8631 0.5625 17.7245 0.599103 17.602 0.668726C17.4794 0.738348 17.377 0.838605 17.3048 0.95968L13.5876 8.38702L6.20325 9.12531C6.05647 9.14035 5.91695 9.19666 5.80085 9.28771C5.68474 9.37875 5.59679 9.50082 5.54717 9.63977C5.49756 9.77873 5.48831 9.92889 5.52049 10.0729C5.55267 10.2169 5.62497 10.3488 5.72903 10.4534L11.6579 16.3831L9.43371 24.5394C9.39251 24.6853 9.39465 24.84 9.43986 24.9847C9.48507 25.1294 9.57142 25.2578 9.68836 25.3543C9.8053 25.4508 9.94778 25.5112 10.0984 25.5281C10.2491 25.545 10.4014 25.5177 10.5368 25.4495L13.8736 23.7808L12.6423 31.7776H3.15637V34.9026H0.0313721V47.4026H36.0337V34.9026H32.8439V31.7776H23.3579L22.1267 23.7769L25.4634 25.4495C25.5723 25.502 25.6918 25.5288 25.8126 25.5276C25.9328 25.5277 26.0513 25.5 26.159 25.4468C26.2667 25.3935 26.3606 25.3162 26.4336 25.2207C26.5065 25.1253 26.5564 25.0143 26.5795 24.8964C26.6026 24.7785 26.5981 24.6568 26.5665 24.5409L24.3423 16.387L30.2712 10.4573C30.3753 10.3527 30.4476 10.2208 30.4797 10.0768C30.5119 9.9328 30.5027 9.78263 30.4531 9.64368C30.4035 9.50472 30.3155 9.38266 30.1994 9.29161C30.0833 9.20057 29.9438 9.14426 29.797 9.12921V9.12531ZM34.4712 36.4651V45.8401H1.59387V36.4651H34.4712ZM31.2814 34.9026H4.71887V33.3401H31.2814V34.9026ZM21.7767 31.7776H14.2236L15.5861 22.9206L18.0001 21.7136L20.4142 22.9206L21.7767 31.7776ZM22.9165 15.6003C22.8191 15.6976 22.7492 15.819 22.7138 15.9521C22.6784 16.0852 22.6788 16.2252 22.715 16.3581L24.5993 23.2659L18.3493 20.1409C18.2409 20.0867 18.1213 20.0585 18.0001 20.0585C17.8789 20.0585 17.7593 20.0867 17.6509 20.1409L11.4009 23.2659L13.2853 16.3581C13.3214 16.2252 13.3219 16.0852 13.2865 15.9521C13.2511 15.819 13.1811 15.6976 13.0837 15.6003L8.00012 10.5159L14.172 9.90265C14.3032 9.88952 14.429 9.84338 14.5376 9.76852C14.6462 9.69366 14.7341 9.59251 14.7931 9.47452L18.0001 3.05577L21.2032 9.47062C21.2626 9.58913 21.351 9.69061 21.4604 9.76551C21.5697 9.8404 21.6963 9.88625 21.8282 9.89874L28.0001 10.5159L22.9165 15.6003Z" fill="#146EB4"/>
</svg>
