<svg width="100" height="100" viewBox="0 0 100 100" fill="none" xmlns="http://www.w3.org/2000/svg">
<path d="M77.2521 32.7715C77.2287 32.6484 77.1896 32.5254 77.1426 32.4062C77.0937 32.2891 77.0334 32.1758 76.9629 32.0703C76.8906 31.9629 76.8086 31.8633 76.7187 31.7734C76.6289 31.6816 76.5293 31.6016 76.4219 31.5293C76.3164 31.459 76.2031 31.3984 76.0857 31.3496C75.9668 31.3008 75.8436 31.2637 75.7205 31.2383C75.4686 31.1875 75.2088 31.1875 74.957 31.2383C74.8318 31.2637 74.7088 31.3008 74.5918 31.3496C74.4727 31.3984 74.3592 31.459 74.2539 31.5293C74.1465 31.6016 74.0469 31.6816 73.957 31.7734C73.8672 31.8633 73.7852 31.9629 73.7148 32.0703C73.6445 32.1758 73.584 32.2891 73.5352 32.4062C73.4863 32.5254 73.4492 32.6484 73.4238 32.7715C73.3984 32.8984 73.3848 33.0273 73.3848 33.1543C73.3848 33.2812 73.3984 33.4101 73.4238 33.5351C73.4492 33.6601 73.4863 33.7832 73.5352 33.9004C73.584 34.0195 73.6445 34.1328 73.7148 34.2383C73.7852 34.3457 73.8672 34.4453 73.957 34.5351C74.0469 34.625 74.1465 34.707 74.2539 34.7773C74.3594 34.8476 74.4727 34.9082 74.5918 34.957C74.709 35.0058 74.8318 35.043 74.957 35.0683C75.082 35.0937 75.2109 35.1074 75.3377 35.1074C75.4646 35.1074 75.5936 35.0937 75.7205 35.0683C75.8436 35.043 75.9668 35.0058 76.0857 34.957C76.2031 34.9082 76.3164 34.8476 76.4219 34.7773C76.5293 34.707 76.6289 34.625 76.7187 34.5351C76.8086 34.4453 76.8906 34.3457 76.9629 34.2383C77.0332 34.1328 77.0937 34.0195 77.1426 33.9004C77.1895 33.7832 77.2287 33.6601 77.2521 33.5351C77.2775 33.4101 77.291 33.2812 77.291 33.1543C77.291 33.0273 77.2775 32.8984 77.2521 32.7715Z" fill="#146EB4"/>
<path d="M75.8666 79.3068H65.462L63.4913 63.4316C63.8551 63.2701 64.217 63.1045 64.5749 62.9299C64.5797 62.9275 64.5844 62.925 64.5891 62.9227C64.9491 62.7469 65.3045 62.5621 65.6581 62.3732C66.1883 62.0898 66.711 61.7918 67.2256 61.4797C67.5286 61.2959 67.8288 61.1074 68.1258 60.9139C70.6752 59.2529 73.009 57.2346 75.0454 54.8902L75.0469 54.8883C80.2793 48.8641 83.1592 41.1461 83.1563 33.1555C83.1526 24.2992 80.262 16.5332 75.0168 11.2881C67.6358 3.90684 58.9854 0.00371094 50.0008 0C49.9967 0 49.9918 0 49.9877 0C49.0295 0 48.0764 0.0431641 47.1303 0.124609C46.634 0.167383 46.1397 0.220703 45.6479 0.285352C45.5735 0.295117 45.4989 0.304883 45.4247 0.315234C38.7313 1.24141 32.4778 4.1875 27.5077 8.76953C27.4749 8.7998 27.4417 8.82988 27.4088 8.86035C26.9293 9.30605 26.4631 9.76836 26.0084 10.2443C25.7952 10.4676 25.5848 10.6943 25.3774 10.9242C25.2358 11.0811 25.0938 11.2375 24.9549 11.3973C19.7213 17.4217 16.8407 25.1404 16.844 33.132C16.8473 41.1232 19.7336 48.8436 24.9715 54.8715C28.1858 58.5705 32.1368 61.4631 36.5114 63.4121L34.5381 79.307H24.1327C23.6147 79.307 23.1178 79.5129 22.7516 79.8791C22.3852 80.2455 22.1795 80.7422 22.1795 81.2602L22.1799 89.816L22.1795 89.8246L22.1799 89.8332L22.1803 98.0471C22.1805 99.1256 23.0549 100 24.1335 100H75.8672C76.3852 100 76.8821 99.7941 77.2483 99.4279C77.6145 99.0617 77.8204 98.5648 77.8204 98.0469L77.8196 81.26C77.8198 80.1812 76.9452 79.3068 75.8666 79.3068ZM70.5831 53.9402C70.5397 53.983 70.4973 54.0268 70.4538 54.0693C70.2803 54.2387 70.1049 54.4057 69.9278 54.5703C69.8737 54.6207 69.8184 54.6695 69.7639 54.7193C69.6381 54.8344 69.512 54.949 69.3844 55.0619C69.3131 55.1248 69.2411 55.1867 69.1692 55.2488C69.0561 55.3467 68.9426 55.4441 68.8284 55.5402C68.7514 55.6049 68.6739 55.6689 68.5961 55.7328C68.4836 55.8254 68.3704 55.917 68.2565 56.0078C68.1784 56.0701 68.1002 56.1322 68.0217 56.1938C67.9024 56.2869 67.7821 56.3785 67.6614 56.4697C67.5879 56.5254 67.5147 56.5816 67.4407 56.6363C67.2928 56.7459 67.1438 56.8533 66.994 56.96C66.9463 56.9939 66.8993 57.0289 66.8514 57.0627C66.6565 57.1998 66.4598 57.3342 66.2618 57.4662C66.1938 57.5115 66.1249 57.5555 66.0565 57.6002C65.9223 57.6881 65.7879 57.7756 65.6526 57.8611C65.57 57.9133 65.4868 57.9643 65.4038 58.0156C65.2801 58.092 65.1563 58.1678 65.0317 58.2422C64.9444 58.2943 64.8569 58.3459 64.7692 58.3971C64.6456 58.4691 64.5213 58.5402 64.3965 58.6105C64.3092 58.6598 64.2217 58.7092 64.1338 58.7574C64.0024 58.8299 63.8698 58.9006 63.7372 58.9709C63.6561 59.0139 63.5752 59.0576 63.4938 59.0998C63.3231 59.1883 63.1514 59.2744 62.9792 59.3594C62.9352 59.3811 62.8918 59.4037 62.8479 59.4252C62.6348 59.5291 62.4202 59.6299 62.2045 59.7285C62.1266 59.7643 62.0479 59.7982 61.9696 59.8332C61.8274 59.8967 61.685 59.96 61.5418 60.0211C61.451 60.06 61.3596 60.0977 61.2682 60.1357C61.1352 60.191 61.002 60.2457 60.868 60.299C60.7737 60.3365 60.6791 60.3736 60.5844 60.4104C60.4504 60.4621 60.3159 60.5129 60.1811 60.5627C60.0877 60.5973 59.9946 60.6318 59.901 60.6654C59.7565 60.7172 59.6114 60.767 59.4661 60.8166C59.3825 60.8451 59.2991 60.8744 59.2151 60.9021C59.0122 60.9691 58.8083 61.034 58.6038 61.0965C58.5629 61.109 58.5223 61.1217 58.4815 61.134C58.2674 61.1984 58.0526 61.2606 57.8372 61.3201C57.7532 61.3434 57.6688 61.3648 57.5848 61.3873C57.4344 61.4275 57.2836 61.4672 57.1325 61.5051C57.0372 61.5289 56.9413 61.5516 56.8456 61.5746C56.7038 61.6086 56.5616 61.6418 56.419 61.6736C56.3206 61.6957 56.2221 61.7172 56.1235 61.7381C55.9797 61.7686 55.8356 61.7979 55.6915 61.8264C55.6838 61.8279 55.676 61.8293 55.6684 61.8309C55.5725 61.8494 55.4768 61.8688 55.3807 61.8863C55.2581 61.9092 55.1348 61.9303 55.0116 61.9514C54.8502 61.9789 54.6889 62.0063 54.5272 62.0311C54.4506 62.043 54.3741 62.0539 54.2973 62.0652C54.0938 62.0949 53.8901 62.1232 53.6858 62.1488C53.6391 62.1547 53.5924 62.1602 53.5457 62.1658C53.3184 62.1932 53.0909 62.2182 52.8629 62.2402C52.8286 62.2436 52.7944 62.2467 52.76 62.25C52.5272 62.2717 52.294 62.2908 52.0606 62.307C52.0288 62.3092 51.9967 62.3113 51.9649 62.3135L51.9614 44.8711C59.1319 45.3543 65.8778 48.4615 70.9135 53.6072C70.8043 53.7197 70.6942 53.8305 70.5831 53.9402ZM79.2497 33.1566C79.252 39.477 77.209 45.6027 73.46 50.6318C67.7174 44.885 60.0711 41.441 51.9604 40.9594L51.9592 35.0975L68.6983 35.1041C69.7766 35.1041 70.6518 34.2301 70.6522 33.1518C70.6526 32.073 69.7784 31.1984 68.6999 31.1979L51.9585 31.1912L51.9573 25.3293C60.142 24.8506 67.8504 21.3691 73.6145 15.5564C77.2584 20.0059 79.2469 26.1695 79.2497 33.1566ZM52.7364 4.04512C52.7795 4.05059 52.8229 4.05644 52.8666 4.06113C53.1006 4.08613 53.3335 4.11367 53.5647 4.14453C53.6553 4.15664 53.7452 4.17051 53.8354 4.1834C54.0198 4.20996 54.2036 4.2375 54.386 4.26758C54.4846 4.28379 54.5827 4.30098 54.6805 4.31816C54.8561 4.34902 55.0309 4.38164 55.2047 4.41582C55.2999 4.43457 55.3952 4.45312 55.4899 4.47266C55.6751 4.51113 55.8586 4.55176 56.0418 4.59375C56.1206 4.61172 56.1999 4.62891 56.2782 4.64746C56.7993 4.77168 57.3118 4.90957 57.8153 5.06035C57.8893 5.08242 57.9624 5.10605 58.036 5.12871C58.2133 5.1834 58.3899 5.23906 58.5651 5.29668C58.6526 5.32559 58.7395 5.35527 58.8266 5.38496C58.9881 5.44004 59.1489 5.49609 59.3086 5.55352C59.3963 5.58516 59.4838 5.6168 59.5709 5.64902C59.7342 5.70957 59.8961 5.77168 60.0573 5.83477C60.1352 5.86523 60.2137 5.89512 60.2911 5.92637C60.4877 6.00527 60.6827 6.08613 60.8762 6.16855C60.9149 6.18496 60.9542 6.20059 60.9926 6.21719C61.2258 6.31758 61.4567 6.4207 61.6856 6.52598C61.7426 6.55215 61.7985 6.57949 61.8551 6.60586C62.0249 6.68535 62.194 6.76543 62.3612 6.84727C62.4391 6.88535 62.5161 6.92422 62.5934 6.96289C62.7393 7.03574 62.8844 7.10938 63.0284 7.18398C63.1088 7.22578 63.1891 7.26777 63.269 7.31016C63.4114 7.38555 63.5526 7.46191 63.693 7.53906C63.768 7.58008 63.843 7.62109 63.9174 7.6625C64.0739 7.75 64.2288 7.83887 64.3829 7.92812C64.4374 7.95977 64.4928 7.99082 64.5471 8.02266C64.7545 8.14453 64.9596 8.26777 65.1624 8.39277C65.1997 8.41563 65.2358 8.43926 65.2729 8.46211C65.4375 8.56445 65.601 8.66738 65.7626 8.77148C65.8307 8.81543 65.8977 8.85977 65.9653 8.90391C66.0952 8.98887 66.2245 9.07422 66.3524 9.16035C66.425 9.20918 66.4971 9.2582 66.5688 9.30742C66.6918 9.39141 66.8137 9.47598 66.9346 9.56074C67.0043 9.60957 67.0741 9.6584 67.143 9.70762C67.2709 9.79863 67.3971 9.89023 67.5227 9.98203C67.5807 10.0244 67.6395 10.0666 67.6969 10.1092C67.8778 10.243 68.0569 10.3775 68.2331 10.5127C68.2383 10.5168 68.2436 10.5209 68.2489 10.525C68.4204 10.6568 68.5893 10.7893 68.7561 10.9219C68.8127 10.967 68.8682 11.0121 68.9245 11.0574C69.0395 11.1498 69.1539 11.2424 69.2666 11.3352C69.3299 11.3873 69.3926 11.4395 69.4553 11.4918C69.5604 11.5793 69.6643 11.6668 69.7674 11.7543C69.8293 11.8068 69.8909 11.8594 69.952 11.9121C70.0573 12.0027 70.161 12.0932 70.2641 12.1838C70.3188 12.232 70.3743 12.2801 70.4284 12.3281C70.5549 12.4406 70.6797 12.5529 70.803 12.6652C70.8303 12.6902 70.8586 12.7152 70.886 12.74C70.8903 12.7439 70.8942 12.7477 70.8985 12.7516C65.8594 17.8609 59.1233 20.9418 51.9571 21.4164L51.9536 3.97813C52.2161 3.99727 52.4774 4.01875 52.7364 4.04512ZM48.2153 66.2379C48.2213 66.2383 48.2276 66.2383 48.2336 66.2387C48.5032 66.2529 48.7729 66.2641 49.0426 66.2717C49.0657 66.2723 49.0887 66.2738 49.112 66.2744C49.1176 66.2746 49.1235 66.2744 49.1292 66.2746C49.4079 66.2818 49.6866 66.2861 49.9655 66.2863C49.9807 66.2863 49.9958 66.2869 50.011 66.2869C50.0157 66.2869 50.0208 66.2869 50.0252 66.2869C50.1629 66.2869 50.3 66.283 50.4375 66.2812C50.5469 66.2797 50.6565 66.2793 50.7659 66.2768C50.9631 66.2723 51.16 66.265 51.3567 66.257C51.42 66.2545 51.4833 66.2523 51.5465 66.2494C51.761 66.2396 51.9749 66.2273 52.1887 66.2135C52.2295 66.2107 52.2704 66.208 52.3112 66.2053C52.5409 66.1895 52.77 66.1717 52.9987 66.1512C53.012 66.15 53.0252 66.1486 53.0383 66.1475C53.8186 66.0766 54.5942 65.9809 55.3631 65.8559C55.4842 65.8361 55.6043 65.8129 55.7251 65.792C55.8616 65.7684 55.9981 65.7451 56.1342 65.7197C56.2292 65.702 56.3237 65.683 56.4184 65.6645C56.6278 65.6238 56.8366 65.5812 57.045 65.5365C57.0643 65.5324 57.084 65.5289 57.1034 65.5246C57.1225 65.5205 57.1413 65.5156 57.1604 65.5113C58.0264 65.3225 58.8842 65.1014 59.7295 64.8445L61.5249 79.3064H38.4745L40.2713 64.8311C42.5428 65.5271 44.8795 65.9738 47.2475 66.1701C47.2727 66.1723 47.2979 66.1752 47.3231 66.1773C47.3389 66.1787 47.3547 66.1793 47.3704 66.1805C47.469 66.1883 47.5672 66.1984 47.6659 66.2055C47.8374 66.2174 48.0092 66.2262 48.1809 66.2355C48.1924 66.2361 48.204 66.2373 48.2153 66.2379ZM29.4274 12.3371C29.4668 12.2982 29.5055 12.2584 29.5452 12.2195C29.7196 12.049 29.8961 11.8811 30.0747 11.7154C30.1254 11.6682 30.1774 11.6223 30.2286 11.5754C30.3577 11.4572 30.4872 11.3396 30.618 11.224C30.6876 11.1625 30.7581 11.1021 30.8282 11.0414C30.943 10.942 31.0583 10.843 31.1747 10.7455C31.2504 10.6818 31.3268 10.6188 31.4032 10.5561C31.517 10.4625 31.6315 10.3699 31.7465 10.2783C31.8239 10.2166 31.9012 10.1551 31.9792 10.0941C32.0987 10.0008 32.2194 9.90898 32.3403 9.81758C32.4139 9.76191 32.4874 9.70566 32.5614 9.65059C32.7079 9.54199 32.8559 9.43555 33.0042 9.32988C33.0534 9.29492 33.1018 9.25879 33.1512 9.22402C33.3458 9.08731 33.5418 8.95332 33.7393 8.82148C33.8096 8.77461 33.8809 8.7293 33.9516 8.68301C34.0835 8.59668 34.2153 8.51094 34.3483 8.42676C34.4329 8.37344 34.518 8.32129 34.603 8.26875C34.7245 8.19375 34.8461 8.11934 34.9686 8.04629C35.0579 7.99297 35.1475 7.94023 35.2374 7.88789C35.3586 7.81719 35.4803 7.74766 35.6026 7.67871C35.6924 7.62812 35.7821 7.57734 35.8725 7.52773C36.0008 7.45723 36.1301 7.38809 36.2596 7.31953C36.3438 7.2748 36.4276 7.22949 36.5122 7.18574C36.6754 7.10117 36.8399 7.01895 37.0047 6.9375C37.0563 6.91211 37.1073 6.88555 37.1588 6.86035C37.3704 6.75723 37.5834 6.65723 37.7975 6.55937C37.8799 6.52168 37.9631 6.48574 38.0459 6.44863C38.1836 6.38711 38.3217 6.32598 38.4604 6.2666C38.5542 6.22656 38.6485 6.1875 38.7426 6.14844C38.8725 6.09453 39.0028 6.04121 39.1334 5.98906C39.2305 5.95039 39.3278 5.9123 39.4252 5.87461C39.5563 5.82402 39.6877 5.77461 39.8196 5.72578C39.9155 5.69043 40.0112 5.65469 40.1075 5.62031C40.2491 5.56973 40.3915 5.5207 40.5338 5.47227C40.6202 5.44277 40.7063 5.4125 40.793 5.38398C40.9905 5.31875 41.1887 5.25605 41.3876 5.19512C41.4397 5.1791 41.4918 5.16309 41.544 5.14727C41.7518 5.08477 41.9604 5.02441 42.1698 4.9666C42.2542 4.94316 42.3391 4.92148 42.4239 4.89883C42.5741 4.85879 42.7245 4.81914 42.8754 4.78145C42.9706 4.75762 43.0661 4.73496 43.1616 4.71211C43.3043 4.67793 43.4473 4.64473 43.5907 4.6127C43.6881 4.59102 43.7858 4.56953 43.8834 4.54883C44.0288 4.51797 44.1745 4.48848 44.3204 4.45977C44.4143 4.44121 44.5083 4.42246 44.6024 4.40488C44.7629 4.375 44.9239 4.34707 45.085 4.31973C45.1645 4.30625 45.2438 4.2918 45.3235 4.2791C45.5629 4.24063 45.803 4.20449 46.0438 4.17188C46.0696 4.16836 46.0954 4.16563 46.1211 4.1623C46.3381 4.13359 46.5555 4.10703 46.7735 4.08301C46.8553 4.07402 46.9374 4.0666 47.0192 4.0582C47.1821 4.0416 47.3452 4.02578 47.5086 4.01191C47.602 4.0041 47.6956 3.99707 47.7891 3.99004C47.8749 3.98359 47.9608 3.97832 48.0465 3.97266L48.0452 12.6453L48.0438 21.4154C40.8729 20.933 34.1245 17.8248 29.0872 12.6791C29.1995 12.5643 29.3129 12.45 29.4274 12.3371ZM26.5401 15.6553C32.286 21.4047 39.937 24.8492 48.0512 25.3285L48.0524 31.1896L20.8149 31.1787C21.1881 25.5559 23.1782 20.1646 26.5401 15.6553ZM26.5559 50.6137C23.1899 46.1012 21.1948 40.7084 20.8165 35.0852L48.0532 35.0961L48.0543 40.9576C39.9428 41.4318 32.2963 44.8703 26.5559 50.6137ZM36.3096 58.9723C36.1672 58.8969 36.0254 58.8209 35.8842 58.7432C35.8022 58.6981 35.7208 58.652 35.6393 58.6059C35.5083 58.532 35.3778 58.4572 35.2477 58.3814C35.1647 58.333 35.0819 58.284 34.9993 58.2348C34.869 58.157 34.7395 58.0777 34.6104 57.9979C34.5321 57.9494 34.4538 57.9014 34.3758 57.8521C34.2338 57.7623 34.0928 57.6707 33.9524 57.5785C33.8899 57.5375 33.8268 57.4975 33.7647 57.4559C33.5641 57.3221 33.3651 57.1859 33.1676 57.0471C33.1317 57.0217 33.0963 56.9953 33.0604 56.9699C32.8985 56.8549 32.7374 56.7387 32.5776 56.6201C32.5077 56.5684 32.4387 56.5152 32.3694 56.4627C32.2442 56.3682 32.1192 56.2729 31.9954 56.1762C31.9198 56.117 31.8446 56.0572 31.7696 55.9973C31.6524 55.9037 31.5356 55.8094 31.4198 55.7141C31.3446 55.6522 31.2694 55.59 31.1946 55.5273C31.0778 55.4291 30.9618 55.3297 30.8463 55.2297C30.7762 55.1689 30.7059 55.1086 30.6364 55.0471C30.5065 54.9324 30.3782 54.8158 30.2502 54.6986C30.1975 54.6504 30.1442 54.6029 30.0917 54.5543C29.9137 54.3889 29.7376 54.2213 29.5633 54.0512C29.5219 54.0107 29.4817 53.9693 29.4405 53.9285C29.327 53.8164 29.2143 53.7031 29.1026 53.5889C34.1358 48.4479 40.8805 45.3457 48.0512 44.8697L48.0543 52.9037L48.0579 62.3123C47.9758 62.3068 47.8936 62.3018 47.8116 62.2955C47.7538 62.2912 47.6961 62.2865 47.6383 62.2818C47.5354 62.2734 47.4325 62.2637 47.3295 62.2543C47.2342 62.2455 47.1389 62.2369 47.0438 62.2271C46.9606 62.2186 46.8772 62.2109 46.7942 62.2018C46.5952 62.1797 46.3965 62.1551 46.1983 62.1289C46.1479 62.1223 46.0973 62.1164 46.0469 62.1096C45.8108 62.0773 45.5752 62.042 45.3403 62.0039C45.2696 61.9924 45.1995 61.9795 45.1288 61.9676C44.9583 61.9387 44.7881 61.9092 44.6184 61.8773C44.5297 61.8607 44.4415 61.843 44.353 61.8256C44.2008 61.7955 44.0487 61.7646 43.8971 61.7322C43.8047 61.7125 43.7126 61.6922 43.6204 61.6717C43.4704 61.6381 43.3209 61.6033 43.1717 61.5674C43.0825 61.5459 42.993 61.5246 42.9042 61.5023C42.7444 61.4623 42.5854 61.4203 42.4264 61.3777C42.3502 61.3572 42.2739 61.3377 42.1981 61.3166C41.9766 61.2553 41.7561 61.1916 41.5364 61.125C41.5241 61.1213 41.5114 61.118 41.4991 61.1141C41.2672 61.0436 41.0364 60.9697 40.8065 60.8936C40.734 60.8695 40.662 60.8439 40.5895 60.8193C40.4321 60.7658 40.2749 60.7115 40.1182 60.6553C40.0323 60.6244 39.9469 60.5926 39.8614 60.5609C39.718 60.508 39.5751 60.4541 39.4327 60.3988C39.3446 60.3647 39.2567 60.3301 39.169 60.2951C39.027 60.2385 38.8858 60.1805 38.7448 60.1217C38.6606 60.0865 38.5762 60.0518 38.4924 60.0158C38.3401 59.9506 38.1887 59.8834 38.0374 59.8156C37.9672 59.7842 37.8967 59.7537 37.827 59.7217C37.6077 59.6213 37.3893 59.5186 37.1725 59.4129C37.1549 59.4043 37.1376 59.3951 37.12 59.3865C36.9211 59.2893 36.7227 59.1891 36.5254 59.0867C36.4532 59.0492 36.3815 59.0103 36.3096 58.9723ZM26.0866 96.0938L26.0864 91.7775H62.1333C63.2118 91.7775 64.0864 90.9031 64.0864 89.8244C64.0864 88.7457 63.2118 87.8713 62.1333 87.8713H26.0862L26.086 83.2129H36.2639H63.7362H73.9133L73.9141 96.0938H26.0866Z" fill="#146EB4"/>
<path d="M70.7989 89.4434C70.7733 89.3184 70.7364 89.1953 70.6876 89.0781C70.6387 88.959 70.578 88.8457 70.5079 88.7402C70.4376 88.6328 70.3555 88.5332 70.2657 88.4434C70.1758 88.3535 70.0762 88.2715 69.9688 88.2012C69.8633 88.1309 69.7501 88.0703 69.6309 88.0215C69.5137 87.9727 69.3909 87.9355 69.2657 87.9102C69.0137 87.8594 68.754 87.8594 68.502 87.9102C68.379 87.9355 68.2559 87.9727 68.1368 88.0215C68.0196 88.0703 67.9063 88.1309 67.8008 88.2012C67.6934 88.2715 67.5938 88.3535 67.504 88.4434C67.4141 88.5332 67.3321 88.6328 67.2598 88.7402C67.1895 88.8457 67.129 88.959 67.0801 89.0781C67.0313 89.1953 66.9942 89.3184 66.9688 89.4434C66.9434 89.5684 66.9317 89.6973 66.9317 89.8242C66.9317 89.9512 66.9434 90.0801 66.9688 90.207C66.9942 90.3301 67.0313 90.4531 67.0801 90.5723C67.129 90.6894 67.1895 90.8027 67.2598 90.9082C67.3321 91.0156 67.4141 91.1152 67.504 91.2051C67.5938 91.2949 67.6934 91.3769 67.8008 91.4492C67.9063 91.5195 68.0196 91.5801 68.1368 91.6289C68.2559 91.6777 68.379 91.7148 68.502 91.7402C68.629 91.7656 68.7579 91.7773 68.8848 91.7773C69.3985 91.7773 69.9024 91.5683 70.2657 91.2051C70.3555 91.1152 70.4376 91.0156 70.5079 90.9082C70.578 90.8027 70.6387 90.6894 70.6876 90.5723C70.7364 90.4531 70.7733 90.3301 70.7989 90.207C70.8243 90.0801 70.8378 89.9512 70.8378 89.8242C70.8378 89.6973 70.8243 89.5684 70.7989 89.4434Z" fill="#146EB4"/>
<path d="M45.9543 73.4104C45.9285 73.383 45.8944 73.3653 45.8576 73.3604L44.6745 73.1845L44.1484 72.0853C44.0995 72.0021 43.9939 71.9751 43.9125 72.0251C43.8884 72.04 43.8682 72.0606 43.8537 72.0853L43.3255 73.1803L42.1424 73.3562C42.0528 73.3682 41.9896 73.4524 42.0014 73.5441C42.0063 73.5818 42.0235 73.6167 42.0503 73.643L42.9059 74.4952L42.7012 75.699C42.6866 75.7915 42.748 75.8786 42.8384 75.8936C42.8733 75.8994 42.9092 75.8936 42.9407 75.877L44.001 75.3117L45.0593 75.8812C45.1407 75.924 45.2407 75.8912 45.2826 75.8079C45.2988 75.7757 45.3045 75.739 45.2988 75.7032L45.0941 74.4993L45.9497 73.6472C46.0149 73.5831 46.017 73.4771 45.9543 73.4104ZM44.8034 74.3172C44.765 74.356 44.7475 74.4114 44.7564 74.4658L44.916 75.4206L44.0768 74.9704C44.0287 74.9447 43.9714 74.9447 43.9233 74.9704L43.084 75.4206L43.2437 74.4658C43.2525 74.4114 43.235 74.356 43.1966 74.3172L42.5191 73.6409L43.4566 73.5027C43.5104 73.4949 43.5571 73.4604 43.5814 73.4106L43.9908 72.5417L44.4002 73.4106C44.4245 73.4604 44.4712 73.4949 44.525 73.5027L45.4625 73.6409L44.8034 74.3172Z" fill="#146EB4"/>
<path d="M51.9543 71.4104C51.9285 71.383 51.8944 71.3653 51.8576 71.3604L50.6745 71.1845L50.1484 70.0853C50.0995 70.0021 49.9939 69.9751 49.9125 70.0251C49.8884 70.04 49.8682 70.0606 49.8537 70.0853L49.3255 71.1803L48.1424 71.3562C48.0528 71.3682 47.9896 71.4524 48.0014 71.5441C48.0063 71.5818 48.0235 71.6167 48.0503 71.643L48.9059 72.4952L48.7012 73.699C48.6866 73.7915 48.748 73.8786 48.8384 73.8936C48.8733 73.8994 48.9092 73.8936 48.9407 73.877L50.001 73.3117L51.0593 73.8812C51.1407 73.924 51.2407 73.8912 51.2826 73.8079C51.2988 73.7757 51.3045 73.739 51.2988 73.7032L51.0941 72.4993L51.9497 71.6472C52.0149 71.5831 52.017 71.4771 51.9543 71.4104ZM50.8034 72.3172C50.765 72.356 50.7475 72.4114 50.7564 72.4658L50.916 73.4206L50.0768 72.9704C50.0287 72.9447 49.9714 72.9447 49.9233 72.9704L49.084 73.4206L49.2437 72.4658C49.2525 72.4114 49.235 72.356 49.1966 72.3172L48.5191 71.6409L49.4566 71.5027C49.5104 71.4949 49.5571 71.4604 49.5814 71.4106L49.9908 70.5417L50.4002 71.4106C50.4245 71.4604 50.4712 71.4949 50.525 71.5027L51.4625 71.6409L50.8034 72.3172Z" fill="#146EB4"/>
<path d="M57.9543 69.4104C57.9285 69.383 57.8944 69.3653 57.8576 69.3604L56.6745 69.1845L56.1484 68.0853C56.0995 68.0021 55.9939 67.9751 55.9125 68.0251C55.8884 68.04 55.8682 68.0606 55.8537 68.0853L55.3255 69.1803L54.1424 69.3562C54.0528 69.3682 53.9896 69.4524 54.0014 69.5441C54.0063 69.5818 54.0235 69.6167 54.0503 69.643L54.9059 70.4952L54.7012 71.699C54.6866 71.7915 54.748 71.8786 54.8384 71.8936C54.8733 71.8994 54.9092 71.8936 54.9407 71.877L56.001 71.3117L57.0593 71.8812C57.1407 71.924 57.2407 71.8912 57.2826 71.8079C57.2988 71.7757 57.3045 71.739 57.2988 71.7032L57.0941 70.4993L57.9497 69.6472C58.0149 69.5831 58.017 69.4771 57.9543 69.4104ZM56.8034 70.3172C56.765 70.356 56.7475 70.4114 56.7564 70.4658L56.916 71.4206L56.0768 70.9704C56.0287 70.9447 55.9714 70.9447 55.9233 70.9704L55.084 71.4206L55.2437 70.4658C55.2525 70.4114 55.235 70.356 55.1966 70.3172L54.5191 69.6409L55.4566 69.5027C55.5104 69.4949 55.5571 69.4604 55.5814 69.4106L55.9908 68.5417L56.4002 69.4106C56.4245 69.4604 56.4712 69.4949 56.525 69.5027L57.4625 69.6409L56.8034 70.3172Z" fill="#146EB4"/>
</svg>
