<svg width="50" height="50" viewBox="0 0 50 50" fill="none" xmlns="http://www.w3.org/2000/svg">
<g clip-path="url(#clip0)">
<path d="M8.89474 49.9997H41.1053C42.1513 49.9988 42.999 49.2532 43 48.3331V46.6664C42.999 45.7463 42.1513 45.0006 41.1053 44.9997H40.1579V43.3331C40.1568 42.413 39.3092 41.6673 38.2632 41.6664H37.3158V32.4997C37.3147 31.5796 36.4671 30.834 35.4211 30.8331H33.3525L32.4379 26.8967C32.3276 26.4167 32.1427 25.9523 31.8884 25.5166C36.4823 22.7507 39.2235 18.1652 39.2105 13.2684V4.88822C39.2113 3.98114 38.3857 3.24079 37.3546 3.22397C32.7219 3.10922 28.8385 2.10805 26.1236 0.328887C25.4585 -0.112233 24.5415 -0.112233 23.8764 0.328887C21.1619 2.10805 17.2789 3.10922 12.6463 3.22397C11.6149 3.24038 10.7888 3.98084 10.7895 4.88822V13.2684C10.7737 18.1658 13.5152 22.7525 18.1107 25.5172C17.8575 25.9511 17.6733 26.4134 17.5632 26.8914L16.6474 30.8331H14.5789C13.5329 30.834 12.6853 31.5796 12.6842 32.4997V41.6664H11.7368C10.6908 41.6673 9.84315 42.413 9.84211 43.3331V44.9997H8.89474C7.84874 45.0006 7.00104 45.7463 7 46.6664V48.3331C7.00104 49.2532 7.84874 49.9988 8.89474 49.9997ZM12.6842 13.2684L12.699 4.88989C17.7181 4.76572 21.971 3.65289 25 1.67089C28.0281 3.65247 32.2815 4.76572 37.3158 4.88822V13.2684C37.3343 17.7618 34.7369 21.9509 30.4321 24.3702L30.0768 24.5857L30.0621 24.5916L30.0535 24.6L25.0319 27.6443L19.9422 24.5958L19.9379 24.5918L19.9303 24.5887L19.536 24.3525C15.2472 21.9318 12.6626 17.7507 12.6842 13.2684ZM19.4208 27.2198C19.4795 26.959 19.5701 26.7044 19.6909 26.4606L23.9966 29.0398C24.2946 29.2031 24.6388 29.2894 24.9899 29.2889C25.3597 29.288 25.7218 29.1956 26.0348 29.0222L30.3089 26.4603C30.4303 26.706 30.5212 26.9625 30.5801 27.2253L31.4183 30.8331H18.5815L19.4208 27.2198ZM14.5789 32.4997H35.4211V41.6664H14.5789V32.4997ZM11.7368 43.3331H38.2632V44.9997H11.7368V43.3331ZM8.89474 46.6664H41.1053L41.1067 48.3331H8.89474V46.6664Z" fill="#146EB4"/>
<path d="M18.6361 8.63605C16.9362 10.3359 16 12.596 16 15C16 17.404 16.9362 19.6641 18.6361 21.3639C20.3359 23.0638 22.596 24 25 24C27.404 24 29.6641 23.0638 31.3639 21.3639C33.0638 19.6641 34 17.404 34 15C34 12.596 33.0638 10.3359 31.3639 8.63605C29.6641 6.93621 27.404 6 25 6C22.596 6 20.3359 6.93617 18.6361 8.63605ZM33.4607 15.2674C33.3941 17.4283 32.5216 19.4503 30.9859 20.9859C30.9809 20.991 30.9756 20.9959 30.9706 21.0009C30.2205 20.2555 29.6241 19.3897 29.1962 18.4234C28.7539 17.4242 28.5137 16.3637 28.4801 15.2674L33.4607 15.2674V15.2674ZM24.7327 15.2673V20.3107H25.2673V15.2673H27.9451C27.9789 16.4388 28.2347 17.572 28.7073 18.6398C29.1595 19.6613 29.789 20.5769 30.5797 21.3661C29.1018 22.665 27.2428 23.3998 25.2673 23.4608V21.0237H24.7326V23.4608C22.7571 23.3999 20.8981 22.6651 19.4203 21.3661C20.2109 20.5769 20.8404 19.6612 21.2926 18.6398C21.7653 17.572 22.0211 16.4387 22.0549 15.2673H24.7327ZM21.5199 15.2673C21.4863 16.3636 21.2461 17.4242 20.8038 18.4233C20.3759 19.3897 19.7795 20.2556 19.0295 21.0009C19.0244 20.9958 19.0192 20.9909 19.0141 20.9859C17.4784 19.4502 16.6059 17.4282 16.5393 15.2673H21.5199V15.2673ZM16.5393 14.7327C16.6059 12.5717 17.4784 10.5498 19.0141 9.01409C19.0191 9.00902 19.0244 9.00414 19.0294 8.99907C19.7795 9.74442 20.3759 10.6103 20.8038 11.5766C21.2461 12.5758 21.4863 13.6363 21.5199 14.7326H16.5393V14.7327ZM24.7327 14.7327H22.0549C22.0211 13.5613 21.7653 12.428 21.2927 11.3602C20.8405 10.3387 20.211 9.42309 19.4204 8.63398C20.8982 7.33499 22.7572 6.60015 24.7327 6.53926V14.7327H24.7327ZM30.9859 9.01412C32.5216 10.5498 33.3942 12.5717 33.4607 14.7327L28.4801 14.7327C28.5137 13.6364 28.7539 12.5758 29.1962 11.5767C29.624 10.6103 30.2205 9.74446 30.9705 8.99911C30.9756 9.00414 30.9809 9.00902 30.9859 9.01412ZM28.7074 11.3602C28.2347 12.428 27.9789 13.5613 27.9451 14.7327H25.2674V6.53926C27.2429 6.60022 29.1019 7.33502 30.5797 8.63398C29.789 9.42309 29.1595 10.3387 28.7074 11.3602Z" fill="#146EB4" stroke="#146EB4" stroke-width="0.5"/>
<path d="M16.9772 39.7052C16.9643 39.6915 16.9472 39.6827 16.9288 39.6802L16.3372 39.5922L16.0742 39.0427C16.0497 39.001 15.9969 38.9876 15.9562 39.0126C15.9442 39.02 15.9341 39.0303 15.9268 39.0427L15.6628 39.5902L15.0712 39.6781C15.0264 39.6841 14.9948 39.7262 15.0007 39.772C15.0031 39.7909 15.0117 39.8083 15.0252 39.8215L15.453 40.2476L15.3506 40.8495C15.3433 40.8957 15.374 40.9393 15.4192 40.9468C15.4367 40.9497 15.4546 40.9468 15.4704 40.9385L16.0005 40.6558L16.5296 40.9406C16.5704 40.962 16.6203 40.9456 16.6413 40.904C16.6494 40.8878 16.6522 40.8695 16.6494 40.8516L16.547 40.2497L16.9749 39.8236C17.0075 39.7916 17.0085 39.7385 16.9772 39.7052ZM16.4017 40.1586C16.3825 40.178 16.3737 40.2057 16.3782 40.2329L16.458 40.7103L16.0384 40.4852C16.0143 40.4724 15.9857 40.4724 15.9616 40.4852L15.542 40.7103L15.6218 40.2329C15.6263 40.2057 15.6175 40.178 15.5983 40.1586L15.2595 39.8205L15.7283 39.7514C15.7552 39.7474 15.7786 39.7302 15.7907 39.7053L15.9954 39.2709L16.2001 39.7053C16.2122 39.7302 16.2356 39.7474 16.2625 39.7514L16.7313 39.8205L16.4017 40.1586Z" fill="#146EB4"/>
<path d="M19.9772 39.7052C19.9643 39.6915 19.9472 39.6827 19.9288 39.6802L19.3372 39.5922L19.0742 39.0427C19.0497 39.001 18.9969 38.9876 18.9562 39.0126C18.9442 39.02 18.9341 39.0303 18.9268 39.0427L18.6628 39.5902L18.0712 39.6781C18.0264 39.6841 17.9948 39.7262 18.0007 39.772C18.0031 39.7909 18.0117 39.8083 18.0252 39.8215L18.453 40.2476L18.3506 40.8495C18.3433 40.8957 18.374 40.9393 18.4192 40.9468C18.4367 40.9497 18.4546 40.9468 18.4704 40.9385L19.0005 40.6558L19.5296 40.9406C19.5704 40.962 19.6203 40.9456 19.6413 40.904C19.6494 40.8878 19.6522 40.8695 19.6494 40.8516L19.547 40.2497L19.9749 39.8236C20.0075 39.7916 20.0085 39.7385 19.9772 39.7052ZM19.4017 40.1586C19.3825 40.178 19.3737 40.2057 19.3782 40.2329L19.458 40.7103L19.0384 40.4852C19.0143 40.4724 18.9857 40.4724 18.9616 40.4852L18.542 40.7103L18.6218 40.2329C18.6263 40.2057 18.6175 40.178 18.5983 40.1586L18.2595 39.8205L18.7283 39.7514C18.7552 39.7474 18.7786 39.7302 18.7907 39.7053L18.9954 39.2709L19.2001 39.7053C19.2122 39.7302 19.2356 39.7474 19.2625 39.7514L19.7313 39.8205L19.4017 40.1586Z" fill="#146EB4"/>
<path d="M22.9772 39.7052C22.9643 39.6915 22.9472 39.6827 22.9288 39.6802L22.3372 39.5922L22.0742 39.0427C22.0497 39.001 21.9969 38.9876 21.9562 39.0126C21.9442 39.02 21.9341 39.0303 21.9268 39.0427L21.6628 39.5902L21.0712 39.6781C21.0264 39.6841 20.9948 39.7262 21.0007 39.772C21.0031 39.7909 21.0117 39.8083 21.0252 39.8215L21.453 40.2476L21.3506 40.8495C21.3433 40.8957 21.374 40.9393 21.4192 40.9468C21.4367 40.9497 21.4546 40.9468 21.4704 40.9385L22.0005 40.6558L22.5296 40.9406C22.5704 40.962 22.6203 40.9456 22.6413 40.904C22.6494 40.8878 22.6522 40.8695 22.6494 40.8516L22.547 40.2497L22.9749 39.8236C23.0075 39.7916 23.0085 39.7385 22.9772 39.7052ZM22.4017 40.1586C22.3825 40.178 22.3737 40.2057 22.3782 40.2329L22.458 40.7103L22.0384 40.4852C22.0143 40.4724 21.9857 40.4724 21.9616 40.4852L21.542 40.7103L21.6218 40.2329C21.6263 40.2057 21.6175 40.178 21.5983 40.1586L21.2595 39.8205L21.7283 39.7514C21.7552 39.7474 21.7786 39.7302 21.7907 39.7053L21.9954 39.2709L22.2001 39.7053C22.2122 39.7302 22.2356 39.7474 22.2625 39.7514L22.7313 39.8205L22.4017 40.1586Z" fill="#146EB4"/>
<path d="M36.9543 6.41038C36.9285 6.38296 36.8944 6.36534 36.8576 6.36037L35.6745 6.1845L35.1484 5.08531C35.0995 5.00206 34.9939 4.97513 34.9125 5.02514C34.8884 5.03998 34.8682 5.06063 34.8537 5.08531L34.3255 6.18031L33.1424 6.35618C33.0528 6.36825 32.9896 6.45236 33.0014 6.54409C33.0063 6.58178 33.0235 6.61667 33.0503 6.64302L33.9059 7.49516L33.7012 8.69903C33.6866 8.79149 33.748 8.87859 33.8384 8.89359C33.8733 8.8994 33.9092 8.89359 33.9407 8.877L35.001 8.3117L36.0593 8.88118C36.1407 8.92403 36.2407 8.89123 36.2826 8.80793C36.2988 8.77569 36.3045 8.739 36.2988 8.70322L36.0941 7.49934L36.9497 6.64721C37.0149 6.58311 37.017 6.47709 36.9543 6.41038ZM35.8034 7.31719C35.765 7.35595 35.7475 7.41141 35.7564 7.46584L35.916 8.42057L35.0768 7.97042C35.0287 7.94472 34.9714 7.94472 34.9233 7.97042L34.084 8.42057L34.2437 7.46584C34.2525 7.41141 34.235 7.35595 34.1966 7.31719L33.5191 6.64093L34.4566 6.50274C34.5104 6.49486 34.5571 6.46042 34.5814 6.41062L34.9908 5.54173L35.4002 6.41062C35.4245 6.46042 35.4712 6.49486 35.525 6.50274L36.4625 6.64093L35.8034 7.31719Z" fill="#146EB4"/>
</g>
<defs>
<clipPath id="clip0">
<rect width="50" height="50" fill="white"/>
</clipPath>
</defs>
</svg>
