<svg width="21" height="20" viewBox="0 0 21 20" fill="none" xmlns="http://www.w3.org/2000/svg">
<path d="M10.5 20C10.64 20 10.77 20 10.9 19.96C11.55 19.82 12.09 19.38 12.34 18.78C12.44 18.54 12.5 18.27 12.5 18H8.5C8.5 18.5304 8.71071 19.0391 9.08579 19.4142C9.46086 19.7893 9.96957 20 10.5 20ZM17 8.5C17 5.43 14.86 2.86 12 2.18V1.5C12 1.10218 11.842 0.720644 11.5607 0.43934C11.2794 0.158035 10.8978 0 10.5 0C10.1022 0 9.72064 0.158035 9.43934 0.43934C9.15804 0.720644 9 1.10218 9 1.5V2.18C6.13 2.86 4 5.43 4 8.5V14L2 16V17H19V16L17 14V8.5ZM18.97 8H20.97C20.82 4.79 19.24 1.97 16.85 0.15L15.42 1.58C17.46 3 18.82 5.35 18.97 8ZM5.58 1.58L4.15 0.15C1.76 1.97 0.18 4.79 0 8H2C2.18 5.35 3.54 3 5.58 1.58Z" fill="#146EB4"/>
</svg>
