<svg width="36" height="26" viewBox="0 0 36 26" fill="none" xmlns="http://www.w3.org/2000/svg">
<path d="M18.0005 16.6522V25M18.0005 16.6522C19.0308 16.6522 21.0914 15.9217 21.0914 13C21.0914 10.0783 19.0308 9.34783 18.0005 9.34783M18.0005 16.6522V9.34783M18.0005 16.6522C16.9702 16.6522 14.9096 15.9217 14.9096 13C14.9096 10.0783 16.9702 9.34783 18.0005 9.34783M18.0005 25H35.0005V22.3913M18.0005 25H1.00049V22.3913M35.0005 22.3913V15.6087M35.0005 22.3913C31.3944 22.7391 24.1823 21.3478 24.1823 13C24.1823 4.65217 31.3944 3.26087 35.0005 3.6087M35.0005 15.6087H30.8793M35.0005 15.6087V10.3913M30.8793 15.6087C29.849 15.7826 27.7884 15.5043 27.7884 13C27.7884 10.4957 29.849 10.2174 30.8793 10.3913M30.8793 15.6087V10.3913M18.0005 9.34783V1M18.0005 1H35.0005V3.6087M18.0005 1H1.00049V3.6087M35.0005 3.6087V10.3913M35.0005 10.3913H30.8793M1.00049 22.3913V15.6087M1.00049 22.3913C4.60655 22.7391 11.8187 21.3478 11.8187 13C11.8187 4.65217 4.60655 3.26087 1.00049 3.6087M1.00049 15.6087H5.1217M1.00049 15.6087V10.3913M5.1217 15.6087C6.152 15.7826 8.21261 15.5043 8.21261 13C8.21261 10.4957 6.152 10.2174 5.1217 10.3913M5.1217 15.6087V10.3913M1.00049 3.6087V10.3913M1.00049 10.3913H5.1217" stroke="#146EB4"/>
</svg>
