<svg width="33" height="33" viewBox="0 0 33 33" fill="none" xmlns="http://www.w3.org/2000/svg">
<path d="M16.5005 1C11.0005 1 1.00049 5.3 1.00049 16.5M16.5005 1V16.5M16.5005 1C22.0005 1 32.0005 5.3 32.0005 16.5M1.00049 16.5H16.5005M1.00049 16.5C1.00049 27.7 11.0005 32 16.5005 32M16.5005 16.5H32.0005M16.5005 16.5V32M5.00049 6C7.00049 8 10.5005 11 10.5005 16M32.0005 16.5C32.0005 27.7 22.0005 32 16.5005 32M28.0005 6C26.0005 8 22.5005 11 22.5005 16M5.00049 27C7.00049 25 10.5005 22 10.5005 17M28.0005 27C26.0005 25 22.5005 22 22.5005 17" stroke="#146EB4"/>
</svg>
