<svg width="100" height="100" viewBox="0 0 100 100" fill="none" xmlns="http://www.w3.org/2000/svg">
<g clip-path="url(#clip0)">
<path d="M21.6651 81.6665V90.3066C19.371 91.1148 17.9941 93.4593 18.4067 95.8568C18.8185 98.2542 20.8993 100.005 23.3318 99.9998H76.6651C79.0976 100.005 81.1785 98.2542 81.5911 95.8568C82.0029 93.4593 80.6259 91.1148 78.3318 90.3066V81.6665C78.3269 77.0661 74.5989 73.3389 69.9985 73.3332H68.6655L81.6367 1.96523C81.7457 1.36871 81.5219 0.7608 81.0532 0.376685C80.5836 -0.0074292 79.9431 -0.105899 79.3808 0.117896C79.2156 0.184628 62.8484 6.66656 49.9985 6.66656C37.1485 6.66656 20.7822 0.184628 20.617 0.117896C20.0538 -0.105899 19.4133 -0.0074292 18.9446 0.376685C18.4758 0.7608 18.2521 1.36871 18.3603 1.96523L31.3323 73.3332H29.9985C25.3989 73.3389 21.6708 77.0661 21.6651 81.6665ZM76.6651 96.6665H23.3318C22.4114 96.6665 21.6651 95.9202 21.6651 94.9998C21.6651 94.0794 22.4114 93.3332 23.3318 93.3332H76.6651C77.5855 93.3332 78.3318 94.0794 78.3318 94.9998C78.3318 95.9202 77.5855 96.6665 76.6651 96.6665ZM74.9985 81.6665V89.9998H24.9985V81.6665C24.9985 78.9053 27.2372 76.6665 29.9985 76.6665H69.9985C72.7605 76.6665 74.9985 78.9053 74.9985 81.6665ZM41.3868 73.3332L30.4501 13.9582C36.8417 15.6054 43.4002 16.5144 49.9985 16.6666C56.5968 16.5144 63.156 15.6054 69.5468 13.9582L58.6101 73.3332H41.3868ZM22.1656 4.25201C27.527 6.16688 39.6274 9.99989 49.9985 9.99989C60.3704 9.99989 72.47 6.16688 77.8321 4.25201L65.2735 73.3332H61.9988L73.3033 11.9685C73.4083 11.3988 73.2097 10.8161 72.78 10.4288C72.3495 10.0414 71.749 9.90467 71.1939 10.0682C64.2872 12.0132 57.1697 13.1094 49.9985 13.3332C42.8272 13.1094 35.7097 12.0132 28.8038 10.0682C28.248 9.90467 27.6482 10.0414 27.2177 10.4288C26.7872 10.8161 26.5895 11.3988 26.6936 11.9685L37.999 73.3332H34.7234L22.1656 4.25201Z" fill="#146EB4"/>
<path d="M41.5147 31.5147C39.2482 33.7812 38 36.7947 38 40C38 43.2053 39.2482 46.2188 41.5147 48.4853C43.7812 50.7518 46.7947 52 50 52C53.2053 52 56.2188 50.7518 58.4853 48.4853C60.7518 46.2188 62 43.2053 62 40C62 36.7947 60.7518 33.7812 58.4853 31.5147C56.2188 29.2483 53.2053 28 50 28C46.7947 28 43.7812 29.2482 41.5147 31.5147ZM61.2809 40.3565C61.1921 43.2378 60.0288 45.9337 57.9812 47.9813C57.9745 47.988 57.9675 47.9945 57.9607 48.0012C56.9607 47.0074 56.1654 45.853 55.595 44.5645C55.0052 43.2323 54.685 41.8183 54.6402 40.3565H61.2809V40.3565ZM49.6436 40.3564V47.081H50.3564V40.3564H53.9268C53.9718 41.9184 54.3129 43.4294 54.9431 44.8531C55.5461 46.215 56.3854 47.4359 57.4396 48.4881C55.4691 50.22 52.9904 51.1998 50.3564 51.281V48.0317H49.6435V51.281C47.0095 51.1998 44.5309 50.2201 42.5604 48.4881C43.6146 47.4358 44.4539 46.215 45.0568 44.853C45.6871 43.4293 46.0281 41.9183 46.0731 40.3564H49.6436ZM45.3598 40.3564C45.315 41.8182 44.9948 43.2322 44.405 44.5644C43.8346 45.853 43.0393 47.0074 42.0393 48.0012C42.0325 47.9944 42.0256 47.9879 42.0188 47.9812C39.9712 45.9336 38.8078 43.2377 38.7191 40.3564H45.3598V40.3564ZM38.719 39.6436C38.8078 36.7623 39.9711 34.0664 42.0188 32.0188C42.0255 32.012 42.0325 32.0055 42.0393 31.9988C43.0393 32.9926 43.8346 34.147 44.405 35.4355C44.9948 36.7677 45.315 38.1818 45.3598 39.6435H38.719V39.6436ZM49.6436 39.6436H46.0732C46.0282 38.0817 45.6871 36.5706 45.0569 35.1469C44.4539 33.785 43.6146 32.5641 42.5605 31.512C44.531 29.78 47.0096 28.8002 49.6437 28.719V39.6436H49.6436ZM57.9812 32.0188C60.0288 34.0664 61.1922 36.7623 61.281 39.6436H54.6401C54.6849 38.1818 55.0052 36.7678 55.595 35.4356C56.1654 34.1471 56.9607 32.9926 57.9606 31.9988C57.9675 32.0055 57.9745 32.012 57.9812 32.0188ZM54.9432 35.147C54.3129 36.5707 53.9719 38.0817 53.9268 39.6436H50.3565V28.719C52.9905 28.8003 55.4691 29.78 57.4396 31.512C56.3853 32.5641 55.5461 33.785 54.9432 35.147Z" fill="#146EB4" stroke="#146EB4" stroke-width="0.5"/>
<path d="M29.9543 85.4104C29.9285 85.383 29.8944 85.3653 29.8576 85.3604L28.6745 85.1845L28.1484 84.0853C28.0995 84.0021 27.9939 83.9751 27.9125 84.0251C27.8884 84.04 27.8682 84.0606 27.8537 84.0853L27.3255 85.1803L26.1424 85.3562C26.0528 85.3682 25.9896 85.4524 26.0014 85.5441C26.0063 85.5818 26.0235 85.6167 26.0503 85.643L26.9059 86.4952L26.7012 87.699C26.6866 87.7915 26.748 87.8786 26.8384 87.8936C26.8733 87.8994 26.9092 87.8936 26.9407 87.877L28.001 87.3117L29.0593 87.8812C29.1407 87.924 29.2407 87.8912 29.2826 87.8079C29.2988 87.7757 29.3045 87.739 29.2988 87.7032L29.0941 86.4993L29.9497 85.6472C30.0149 85.5831 30.017 85.4771 29.9543 85.4104ZM28.8034 86.3172C28.765 86.356 28.7475 86.4114 28.7564 86.4658L28.916 87.4206L28.0768 86.9704C28.0287 86.9447 27.9714 86.9447 27.9233 86.9704L27.084 87.4206L27.2437 86.4658C27.2525 86.4114 27.235 86.356 27.1966 86.3172L26.5191 85.6409L27.4566 85.5027C27.5104 85.4949 27.5571 85.4604 27.5814 85.4106L27.9908 84.5417L28.4002 85.4106C28.4245 85.4604 28.4712 85.4949 28.525 85.5027L29.4625 85.6409L28.8034 86.3172Z" fill="#146EB4"/>
<path d="M35.9543 85.4104C35.9285 85.383 35.8944 85.3653 35.8576 85.3604L34.6745 85.1845L34.1484 84.0853C34.0995 84.0021 33.9939 83.9751 33.9125 84.0251C33.8884 84.04 33.8682 84.0606 33.8537 84.0853L33.3255 85.1803L32.1424 85.3562C32.0528 85.3682 31.9896 85.4524 32.0014 85.5441C32.0063 85.5818 32.0235 85.6167 32.0503 85.643L32.9059 86.4952L32.7012 87.699C32.6866 87.7915 32.748 87.8786 32.8384 87.8936C32.8733 87.8994 32.9092 87.8936 32.9407 87.877L34.001 87.3117L35.0593 87.8812C35.1407 87.924 35.2407 87.8912 35.2826 87.8079C35.2988 87.7757 35.3045 87.739 35.2988 87.7032L35.0941 86.4993L35.9497 85.6472C36.0149 85.5831 36.017 85.4771 35.9543 85.4104ZM34.8034 86.3172C34.765 86.356 34.7475 86.4114 34.7564 86.4658L34.916 87.4206L34.0768 86.9704C34.0287 86.9447 33.9714 86.9447 33.9233 86.9704L33.084 87.4206L33.2437 86.4658C33.2525 86.4114 33.235 86.356 33.1966 86.3172L32.5191 85.6409L33.4566 85.5027C33.5104 85.4949 33.5571 85.4604 33.5814 85.4106L33.9908 84.5417L34.4002 85.4106C34.4245 85.4604 34.4712 85.4949 34.525 85.5027L35.4625 85.6409L34.8034 86.3172Z" fill="#146EB4"/>
<path d="M41.9543 85.4104C41.9285 85.383 41.8944 85.3653 41.8576 85.3604L40.6745 85.1845L40.1484 84.0853C40.0995 84.0021 39.9939 83.9751 39.9125 84.0251C39.8884 84.04 39.8682 84.0606 39.8537 84.0853L39.3255 85.1803L38.1424 85.3562C38.0528 85.3682 37.9896 85.4524 38.0014 85.5441C38.0063 85.5818 38.0235 85.6167 38.0503 85.643L38.9059 86.4952L38.7012 87.699C38.6866 87.7915 38.748 87.8786 38.8384 87.8936C38.8733 87.8994 38.9092 87.8936 38.9407 87.877L40.001 87.3117L41.0593 87.8812C41.1407 87.924 41.2407 87.8912 41.2826 87.8079C41.2988 87.7757 41.3045 87.739 41.2988 87.7032L41.0941 86.4993L41.9497 85.6472C42.0149 85.5831 42.017 85.4771 41.9543 85.4104ZM40.8034 86.3172C40.765 86.356 40.7475 86.4114 40.7564 86.4658L40.916 87.4206L40.0768 86.9704C40.0287 86.9447 39.9714 86.9447 39.9233 86.9704L39.084 87.4206L39.2437 86.4658C39.2525 86.4114 39.235 86.356 39.1966 86.3172L38.5191 85.6409L39.4566 85.5027C39.5104 85.4949 39.5571 85.4604 39.5814 85.4106L39.9908 84.5417L40.4002 85.4106C40.4245 85.4604 40.4712 85.4949 40.525 85.5027L41.4625 85.6409L40.8034 86.3172Z" fill="#146EB4"/>
<path d="M65.9086 20.8208C65.8571 20.7659 65.7889 20.7307 65.7152 20.7207L63.3489 20.369L62.2968 18.1706C62.199 18.0041 61.9877 17.9503 61.825 18.0503C61.7767 18.08 61.7363 18.1213 61.7073 18.1706L60.6511 20.3606L58.2848 20.7124C58.1055 20.7365 57.9792 20.9047 58.0028 21.0882C58.0125 21.1636 58.047 21.2333 58.1006 21.286L59.8119 22.9903L59.4025 25.3981C59.3731 25.583 59.4959 25.7572 59.6767 25.7872C59.7467 25.7988 59.8184 25.7872 59.8815 25.754L62.0021 24.6234L64.1186 25.7624C64.2815 25.8481 64.4814 25.7825 64.5651 25.6159C64.5975 25.5514 64.6089 25.478 64.5976 25.4064L64.1882 22.9987L65.8994 21.2944C66.0299 21.1662 66.034 20.9542 65.9086 20.8208ZM63.6069 22.6344C63.53 22.7119 63.4949 22.8228 63.5127 22.9317L63.832 24.8411L62.1535 23.9409C62.0573 23.8894 61.9427 23.8894 61.8465 23.9409L60.168 24.8411L60.4873 22.9317C60.5051 22.8228 60.47 22.7119 60.3932 22.6344L59.0381 21.2819L60.9131 21.0055C61.0209 20.9897 61.1142 20.9208 61.1628 20.8212L61.9816 19.0835L62.8004 20.8212C62.849 20.9208 62.9423 20.9897 63.0501 21.0055L64.9251 21.2819L63.6069 22.6344Z" fill="#146EB4"/>
</g>
<defs>
<clipPath id="clip0">
<rect width="100" height="100" fill="white"/>
</clipPath>
</defs>
</svg>
