<svg width="315" height="146" viewBox="0 0 315 146" fill="none" xmlns="http://www.w3.org/2000/svg">
<path fill-rule="evenodd" clip-rule="evenodd" d="M55.3285 141.509C51.1106 141.984 49.0017 142.222 47.2602 141.722C44.9384 141.055 42.977 139.495 41.8076 137.385C40.9306 135.802 40.6923 133.698 40.2158 129.488L35.8178 90.6393C35.3412 86.4298 35.103 84.325 35.6041 82.587C36.2722 80.2696 37.8354 78.3121 39.9497 77.1451C41.5354 76.2698 43.6443 76.0319 47.8622 75.5563L283.224 49.0163C287.441 48.5407 289.55 48.3029 291.292 48.803C293.614 49.4698 295.575 51.0299 296.744 53.14C297.621 54.7226 297.86 56.8274 298.336 61.037L302.734 99.8857C303.211 104.095 303.449 106.2 302.948 107.938C302.28 110.255 300.717 112.213 298.602 113.38C297.017 114.255 294.908 114.493 290.69 114.969L55.3285 141.509Z" fill="#FF9900"/>
<path fill-rule="evenodd" clip-rule="evenodd" d="M49.4044 134.903C45.2258 135.648 43.1365 136.02 41.3665 135.633C39.0066 135.116 36.949 133.684 35.6464 131.653C34.6695 130.13 34.2964 128.045 33.5503 123.875L26.6648 85.3875C25.9187 81.2171 25.5457 79.1319 25.9341 77.3654C26.4519 75.0101 27.8861 72.9565 29.921 71.6565C31.4472 70.6815 33.5365 70.3092 37.7151 69.5646L270.886 28.0132C275.065 27.2686 277.154 26.8962 278.924 27.2839C281.284 27.8007 283.342 29.232 284.644 31.2629C285.621 32.7861 285.994 34.8713 286.74 39.0417L293.626 77.5289C294.372 81.6993 294.745 83.7845 294.357 85.551C293.839 87.9063 292.405 89.9599 290.37 91.2599C288.844 92.2349 286.754 92.6072 282.576 93.3518L49.4044 134.903Z" fill="#146EB4"/>
<g filter="url(#filter0_dd)">
<path d="M286.561 92.0004C283.715 91.3877 280.57 88.3143 277.524 85.332C276.132 83.9669 274.808 82.6828 273.605 81.7088C272.472 80.8061 271.042 79.916 269.34 79.0627C269.077 78.9305 268.985 78.6252 269.109 78.3742C269.242 78.1249 269.554 78.0244 269.809 78.1454C271.577 79.0292 273.072 79.9597 274.258 80.911C275.497 81.9044 276.816 83.1966 278.222 84.5735L278.256 84.607L278.337 84.6858C281.087 87.3698 284.156 90.3655 286.665 90.978C286.697 90.5352 286.714 90.0977 286.714 89.6666C286.717 85.8583 285.427 83.0261 283.075 81.6779C282.823 81.5375 282.743 81.224 282.886 80.9762C283.039 80.7301 283.358 80.6507 283.6 80.7896C286.277 82.3299 287.748 85.4817 287.744 89.6607C287.744 90.1348 287.725 90.6156 287.688 91.102C288.762 91.1257 289.754 90.8707 290.653 90.3566C290.901 90.2157 291.223 90.2973 291.366 90.5406C291.509 90.7839 291.426 91.1014 291.178 91.2422C290.094 91.8772 288.89 92.1723 287.583 92.1299C287.428 93.3466 287.163 94.5915 286.793 95.8455C288.125 96.8038 289.21 97.7945 289.982 98.7797C291.114 100.234 291.511 101.64 291.134 102.863C291.06 103.122 290.811 103.272 290.563 103.233L290.494 103.222C290.222 103.138 290.066 102.853 290.142 102.584C290.491 101.467 289.798 100.244 289.152 99.4189C288.491 98.5727 287.579 97.7202 286.462 96.8883C286.043 98.1203 285.525 99.3558 284.913 100.577C287.166 101.825 288.025 104.122 287.399 107.237C287.388 107.304 287.363 107.366 287.329 107.42C290.31 109.46 291.932 111.759 291.57 113.927C291.085 116.838 287.139 118.851 281.474 119.569C275.778 124.46 271.563 131.084 269.767 138.79C269.848 137.881 269.95 136.965 270.103 136.047C271.121 129.944 273.641 124.448 277.228 119.855C274.554 119.892 271.65 119.685 268.644 119.205L268.552 119.19C267.04 122.023 265.953 125.135 265.397 128.469C264.755 132.316 264.877 136.104 265.643 139.695C262.922 134.208 261.84 127.871 262.921 121.388C263.105 120.286 263.35 119.212 263.649 118.159C261.104 117.493 258.773 116.666 256.744 115.731C256.16 121.898 257.645 127.836 260.663 132.845C256.2 127.749 253.603 121.129 253.658 114.084C252.03 113.071 250.737 111.983 249.863 110.872C253.475 113.093 258.59 114.922 264.405 115.851C276.303 117.752 286.647 115.165 287.497 110.069C287.635 109.243 287.519 108.407 287.174 107.572C287.07 107.637 286.943 107.665 286.812 107.644L286.792 107.641C286.506 107.585 286.327 107.316 286.382 107.044C286.911 104.39 286.25 102.524 284.434 101.495C284.228 101.875 284.012 102.254 283.787 102.63C281.865 105.845 278.152 109.39 275.167 111.608C279.024 112.073 282.597 112.013 285.548 111.492C281.6 113.788 273.76 114.249 265.206 112.331C253.657 109.744 245.186 103.79 246.295 99.036C246.807 96.8224 249.319 95.2593 253.024 94.488C252.232 95.2035 251.697 96.0301 251.481 96.9578C250.305 101.992 258.757 108.184 270.365 110.78C271.58 111.052 272.782 111.273 273.96 111.446C273.968 111.3 274.039 111.158 274.168 111.066C277.121 108.942 280.96 105.346 282.895 102.117C283.098 101.775 283.295 101.431 283.483 101.086C280.887 100.321 276.304 101.348 272.202 102.267L272.086 102.293C270.263 102.7 268.546 103.084 267.068 103.307C261.911 104.06 255.583 102.568 255.268 102.494L255.264 102.493C254.98 102.428 254.812 102.15 254.879 101.87C254.946 101.59 255.238 101.427 255.513 101.49C255.516 101.491 255.533 101.495 255.563 101.502C256.174 101.639 262.165 102.983 266.914 102.28C268.345 102.067 270.058 101.69 271.869 101.277L271.972 101.254C276.282 100.293 281.102 99.218 283.969 100.158C284.617 98.8687 285.157 97.563 285.582 96.2653C282.775 94.3731 278.946 92.6262 274.686 91.3541C267.941 89.3442 261.297 88.9242 257.75 90.2818C256.498 90.7633 255.726 91.4218 255.476 92.244C255.389 92.5208 255.099 92.6748 254.829 92.5816C254.548 92.4966 254.402 92.2126 254.477 91.944C254.831 90.7978 255.803 89.9206 257.37 89.3191C261.179 87.8628 267.928 88.2597 274.984 90.3594C279.202 91.6137 283.018 93.3399 285.897 95.2301C286.204 94.1386 286.427 93.0572 286.561 92.0004Z" fill="white"/>
</g>
<path d="M55.3635 121.416L54.0838 114.263C54.5522 114.295 54.9756 114.277 55.3539 114.21C56.2507 114.05 56.7702 113.64 56.9123 112.98C57.038 112.308 56.8881 110.783 56.4628 108.406L53.1714 90.0083L50.4809 90.4877L49.2312 83.5021L65.7311 80.5618L66.9809 87.5474L64.4796 87.9931L67.5383 105.09C68.1063 108.265 68.4225 110.517 68.487 111.848C68.5541 113.192 68.2946 114.53 67.7085 115.861C67.0969 117.211 66.1933 118.303 64.9978 119.137C63.8022 119.97 62.0483 120.593 59.7362 121.005C58.405 121.242 56.9475 121.379 55.3635 121.416Z" fill="white"/>
<path d="M71.7943 86.6896L69.5452 87.0904L68.2955 80.1048L83.261 77.438L84.5108 84.4235L83.1235 84.6707L84.8837 94.5093C85.304 96.8588 85.8147 98.4202 86.4157 99.1934C87.0142 99.9526 87.895 100.229 89.0581 100.021C90.0249 99.849 90.6618 99.3675 90.9686 98.5768C91.2779 97.8002 91.2386 96.328 90.8508 94.1603L88.9668 83.6295L87.4955 83.8917L86.2457 76.9061L97.2387 74.9471L98.4884 81.9327L96.1763 82.3447L98.0678 92.9175C98.5507 95.6166 98.5537 97.8962 98.0767 99.7562C97.5972 101.602 96.533 103.17 94.884 104.46C93.235 105.749 91.0793 106.631 88.4169 107.106C86.2729 107.488 84.3279 107.567 82.5818 107.345C80.8102 107.141 79.3414 106.609 78.1754 105.749C77.0119 104.903 76.0688 103.794 75.3462 102.421C74.617 101.094 73.991 98.9686 73.4681 96.0457L71.7943 86.6896Z" fill="white"/>
<path d="M116.857 101.561L105.528 103.58L104.278 96.5947L106.527 96.1939L103.806 80.9851L101.494 81.3971L100.244 74.4115L117.879 71.2689L124.204 81.7661L126.602 69.7145L144.132 66.5906L145.382 73.5762L143.091 73.9845L145.812 89.1934L148.166 88.7739L149.416 95.7594L134.156 98.4788L132.906 91.4932L135.239 91.0774L132.323 74.7777L127.661 99.6362L123.289 100.415L110.417 78.8979L113.295 94.9878L115.607 94.5758L116.857 101.561Z" fill="white"/>
<path d="M163.164 69.8013L164.144 75.2765L166.351 74.8832C167.892 74.6086 168.98 74.227 169.616 73.7385C170.224 73.255 170.434 72.4889 170.246 71.44C170.123 70.7547 169.837 70.2068 169.388 69.7962C168.955 69.3971 168.433 69.1871 167.822 69.1661C167.239 69.1401 166.275 69.247 164.93 69.4867L163.164 69.8013ZM170.182 92.0588L153.094 95.104L151.844 88.1184L154.682 87.6127L151.961 72.4039L149.123 72.9095L147.874 65.9239L165.803 62.7289C169.923 61.9948 173.007 61.8565 175.055 62.314C177.106 62.7856 178.705 63.6407 179.852 64.8794C180.999 66.1181 181.721 67.5696 182.019 69.2338C182.387 71.2896 182.159 73.0907 181.337 74.637C180.517 76.1974 179.287 77.4413 177.645 78.3687C176.029 79.2772 173.421 80.0524 169.819 80.6941L165.258 81.5069L165.99 85.5976L168.933 85.0732L170.182 92.0588Z" fill="white"/>
<path d="M200.211 74.1744L201.239 79.9223L203.782 79.4691C205.408 79.1794 206.54 78.7611 207.18 78.2142C207.805 77.6698 208.023 76.8662 207.833 75.8033C207.655 74.8103 207.209 74.1323 206.493 73.7692C205.78 73.42 204.52 73.4065 202.712 73.7286L200.211 74.1744ZM198.308 63.5387L199.261 68.867L201.762 68.4213C203.458 68.1191 204.528 67.6759 204.973 67.0915C205.39 66.5121 205.527 65.8239 205.384 65.0267C205.262 64.3414 204.921 63.7673 204.361 63.3043C203.801 62.8413 202.484 62.7945 200.41 63.1641L198.308 63.5387ZM205.074 85.841L188.532 88.7888L187.282 81.8033L189.826 81.35L187.105 66.1412L184.561 66.5944L183.312 59.6088L201.178 56.425C204.681 55.8008 207.429 55.5204 209.421 55.5838C211.388 55.6663 213.022 56.2337 214.324 57.2861C215.63 58.3665 216.435 59.7528 216.738 61.445C217.033 63.0952 216.757 64.501 215.909 65.6622C215.038 66.8564 213.888 67.7829 212.459 68.4417C214.629 68.69 216.382 69.3588 217.719 70.4482C219.076 71.563 219.9 72.9386 220.193 74.5748C220.543 76.5327 220.21 78.3093 219.194 79.9046C218.176 81.4859 216.604 82.6824 214.479 83.494C212.385 84.3146 209.25 85.0969 205.074 85.841Z" fill="white"/>
<path d="M233.464 58.3129L232.155 66.88L237.389 65.9473L233.464 58.3129ZM234.606 80.5785L223.024 82.6423L221.775 75.6567L224.003 75.2597L226.768 59.0732L224.413 59.4927L223.164 52.5071L244.183 48.7615L245.432 55.7471L243.078 56.1666L251.39 70.3791L253.534 69.9971L254.784 76.9827L239.524 79.702L238.38 73.3038L240.944 72.8468L239.173 69.3742L231.69 70.7077L231.065 74.6072L233.461 74.1802L234.606 80.5785Z" fill="white"/>
<path d="M284.61 71.6676L256.781 76.6268L255.531 69.6412L258.158 69.173L255.438 53.9642L252.81 54.4324L251.56 47.4468L268.271 44.469L269.52 51.4546L266.746 51.949L269.467 67.1579L276.382 65.9256L275.545 61.2476L282.523 60.004L284.61 71.6676Z" fill="white"/>
<path d="M314.667 66.3114L286.838 71.2706L285.588 64.285L288.216 63.8168L285.495 48.6079L282.867 49.0761L281.618 42.0906L298.328 39.1128L299.578 46.0984L296.803 46.5928L299.524 61.8017L306.439 60.5694L305.602 55.8913L312.581 54.6478L314.667 66.3114Z" fill="white"/>
<g filter="url(#filter1_dd)">
<path fill-rule="evenodd" clip-rule="evenodd" d="M28.4537 2.91768C26.8673 3.96242 25.687 5.08907 25.687 5.55893C25.687 5.74081 25.5635 5.94363 25.4128 6.01003C25.0436 6.1717 23.8927 9.95115 23.8927 11.002C23.8927 11.902 24.848 15.4808 25.3554 16.4819C26.0056 17.7637 26.3092 21.3967 26.0286 24.5349C25.5409 29.9859 25.6256 33.9288 26.2644 35.5344C26.5816 36.3322 26.9462 36.9851 27.0743 36.9851C27.2024 36.9851 27.2484 37.7263 27.1766 38.6321C27.0004 40.862 27.722 45.7248 28.6084 48.279C29.1966 49.9744 29.2604 50.5832 28.9461 51.4908C28.7326 52.1065 28.5578 53.2764 28.5578 54.0906C28.5578 56.0942 27.5979 60.5835 27.136 60.7383C26.9311 60.8068 26.7635 61.0125 26.7635 61.1955C26.7635 61.3785 26.3598 62.3698 25.8664 63.3983C25.373 64.4268 24.9693 65.4167 24.9693 65.5975C24.9693 65.7783 24.7515 66.4383 24.4855 67.0637C24.2193 67.6891 23.7122 69.094 23.3587 70.1856C23.0053 71.2773 22.5768 72.3245 22.4071 72.5133C22.2373 72.7017 22.0985 73.1412 22.0985 73.4895C22.0985 73.8377 21.7349 74.4952 21.2903 74.951C18.9879 77.3108 18.1094 80.6857 18.8838 84.1963C19.1544 85.4222 19.4864 86.425 19.6216 86.425C19.7569 86.425 19.969 86.831 20.0928 87.3272C20.2166 87.8234 20.4764 88.2294 20.6699 88.2294C20.8636 88.2294 21.0219 88.4005 21.0219 88.6098C21.0219 88.8191 21.5056 89.5094 22.0967 90.1435C22.688 90.7779 23.1725 91.4845 23.1732 91.7137C23.1743 91.9428 22.4587 92.5524 21.5835 93.0684C19.6518 94.2066 18.6947 95.4964 17.8981 98.0344C17.5658 99.0925 16.9503 100.526 16.5301 101.221C16.1099 101.916 15.6542 102.789 15.5171 103.161C15.0376 104.464 12.2235 108.013 11.5123 108.211C10.1691 108.585 8.10316 110.957 8.10316 112.124C8.10316 113.24 7.13713 115.656 6.69036 115.656C6.5504 115.656 6.06775 116.398 5.61774 117.304C4.43712 119.681 4.77444 121.74 6.49694 122.672C7.67936 123.313 7.80639 123.316 9.09001 122.734C10.6919 122.007 11.6878 120.433 11.7021 118.604C11.7107 117.501 12.0405 116.932 13.6758 115.196C15.4532 113.31 15.6391 112.96 15.6391 111.497C15.6391 110.609 15.7877 109.882 15.9692 109.882C16.1505 109.882 16.5599 109.093 16.8786 108.128C17.3214 106.787 17.7509 106.215 18.7015 105.7C19.3855 105.33 19.9453 104.901 19.9453 104.748C19.9453 104.594 20.2044 104.469 20.5213 104.469C20.9957 104.469 21.0571 104.74 20.8687 106.003C20.2604 110.085 20.2417 110.635 20.6928 111.181C21.1956 111.79 21.1001 111.902 19.191 112.944C17.7775 113.716 16.06 115.858 15.0326 118.13C14.5263 119.25 13.9708 120.221 13.7989 120.287C13.6266 120.354 13.486 120.638 13.486 120.919C13.486 121.2 13.3352 121.43 13.1512 121.43C12.9671 121.43 12.7205 121.735 12.6032 122.107C12.4855 122.479 11.809 123.384 11.0992 124.119C9.87195 125.39 9.72662 125.444 8.11106 125.22C6.35662 124.978 3.94405 125.672 3.3663 126.587C3.2145 126.827 3.08783 128.668 3.0846 130.679C3.08101 133.1 2.89763 134.771 2.54093 135.629C2.00158 136.927 1.81174 140.358 2.22048 141.429C2.37263 141.828 2.90661 142 3.99429 142C5.87253 142 6.26799 141.535 7.43498 137.956C8.03785 136.106 8.63893 135.064 9.70078 134.028C10.4956 133.252 11.269 132.617 11.419 132.617C11.569 132.617 11.6917 131.751 11.6917 130.691C11.6917 128.783 11.7132 128.745 14.1158 126.451C15.4489 125.178 17.6393 123.162 18.9832 121.971C20.3272 120.78 21.9542 119.319 22.5987 118.723C23.2432 118.128 24.3843 117.118 25.1343 116.478C26.5942 115.232 27.4813 113.82 27.4813 112.742C27.4813 112.376 27.7378 111.866 28.0511 111.61C29.5748 110.367 30.7109 109.083 30.7109 108.607C30.7109 108.315 30.8724 108.078 31.0698 108.078C31.2672 108.078 31.4286 107.908 31.4286 107.702C31.4286 107.495 32.0746 106.001 32.8641 104.381C33.6535 102.761 34.2995 101.239 34.2995 100.998C34.2995 100.757 34.4208 100.505 34.5686 100.439C35.3208 100.103 37.1624 95.3293 37.3856 93.137C37.6239 90.8003 37.6479 90.7556 38.6789 90.7556C39.2567 90.7556 40.0282 90.595 40.3932 90.3983C41.1292 90.002 41.8322 87.3197 41.8408 84.8736C41.8458 83.4067 42.8664 79.4937 43.3781 78.9791C43.5166 78.8402 43.6297 78.5006 43.6297 78.2249C43.6297 77.9492 44.1141 76.7417 44.7062 75.5414C45.2983 74.3415 45.7828 73.1326 45.7828 72.855C45.7828 72.5779 45.9109 72.3509 46.0674 72.3509C46.2238 72.3509 46.6602 71.4173 47.0373 70.2759C47.4141 69.1348 47.8397 67.9572 47.9829 67.6595C48.4613 66.6642 49.3713 63.3824 49.3713 62.6531C49.3713 62.2568 49.5393 61.4885 49.7442 60.9461L50.117 59.9595L50.9104 61.0129C51.3468 61.5921 52.5167 62.8779 53.51 63.8703C58.9244 69.2798 60.6946 69.6963 62.3722 65.9554C64.7159 60.7303 65.1569 59.6816 65.3701 58.8278C65.495 58.3262 65.7415 57.9159 65.9173 57.9159C66.0935 57.9159 66.2374 57.6387 66.2374 57.2998C66.2374 56.9613 66.9056 55.7261 67.7224 54.555C69.2414 52.3775 71.0773 47.7273 70.5035 47.5107C70.3284 47.4443 70.1848 47.0304 70.1848 46.5901C70.1848 46.1502 69.9831 45.3531 69.7363 44.8186C68.8492 42.898 66.2374 43.9565 66.2374 46.2372C66.2374 46.8287 66.0002 47.6277 65.7106 48.0131C65.2093 48.6796 65.1828 48.6612 65.1666 47.6309C65.1576 47.0355 65.0019 46.313 64.821 46.0257C64.5612 45.6125 64.4539 45.688 64.3079 46.3866C63.8503 48.575 63.6702 49.9925 63.5062 52.6832C63.4093 54.271 63.1366 55.9762 62.9001 56.4724C62.369 57.5849 60.4972 60.4622 59.9065 61.0735C59.426 61.5708 58.7019 61.6791 58.7011 61.254C58.7008 61.1053 58.2791 60.4961 57.7638 59.9007C57.2485 59.3052 56.4009 58.254 55.8802 57.5644C53.0754 53.8502 50.9137 52.301 46.5005 50.8413C45.415 50.4822 44.3413 50.0535 44.1141 49.8882C43.4527 49.4061 43.9465 46.6497 44.8329 45.8767C45.4982 45.2968 45.6202 44.7432 45.7275 41.8219C45.833 38.9526 45.7368 38.1998 45.0941 36.8653C44.267 35.1464 43.1822 34.4589 41.2971 34.4589C38.713 34.4589 37.3454 35.8931 36.9385 39.0305C36.814 39.9894 36.5552 40.9753 36.3629 41.2207C35.8996 41.8129 36.2556 43.1319 37.1344 44.0806C37.7086 44.7006 37.762 44.9593 37.4147 45.4371C37.0347 45.96 36.7784 45.8301 35.1751 44.3033C33.6374 42.8385 33.2904 42.2524 32.8709 40.4134C32.5992 39.2225 32.0172 37.4362 31.5772 36.4438C30.9661 35.0652 30.7285 33.6722 30.571 30.5413C30.3664 26.4821 29.8953 23.0654 29.2378 20.8738C29.0118 20.1203 29.0265 19.4537 29.2816 18.889C29.6383 18.1001 29.8368 18.0481 32.0434 18.1629C33.9334 18.261 34.7398 18.1264 35.9764 17.5054C38.661 16.1568 40.7481 12.9179 40.7481 10.0998C40.7481 7.47302 38.9384 4.37959 36.5541 2.93176C35.2328 2.12881 34.5833 1.98338 32.4008 2.00142C30.2735 2.01874 29.5723 2.1815 28.4537 2.91768Z" fill="white"/>
</g>
<defs>
<filter id="filter0_dd" x="244.198" y="76.0942" width="49.4228" height="67.6003" filterUnits="userSpaceOnUse" color-interpolation-filters="sRGB">
<feFlood flood-opacity="0" result="BackgroundImageFix"/>
<feColorMatrix in="SourceAlpha" type="matrix" values="0 0 0 0 0 0 0 0 0 0 0 0 0 0 0 0 0 0 127 0"/>
<feOffset dy="2"/>
<feGaussianBlur stdDeviation="1"/>
<feColorMatrix type="matrix" values="0 0 0 0 0 0 0 0 0 0 0 0 0 0 0 0 0 0 0.24 0"/>
<feBlend mode="normal" in2="BackgroundImageFix" result="effect1_dropShadow"/>
<feColorMatrix in="SourceAlpha" type="matrix" values="0 0 0 0 0 0 0 0 0 0 0 0 0 0 0 0 0 0 127 0"/>
<feOffset/>
<feGaussianBlur stdDeviation="1"/>
<feColorMatrix type="matrix" values="0 0 0 0 0 0 0 0 0 0 0 0 0 0 0 0 0 0 0.12 0"/>
<feBlend mode="normal" in2="effect1_dropShadow" result="effect2_dropShadow"/>
<feBlend mode="normal" in="SourceGraphic" in2="effect2_dropShadow" result="shape"/>
</filter>
<filter id="filter1_dd" x="0" y="0" width="72.6111" height="146" filterUnits="userSpaceOnUse" color-interpolation-filters="sRGB">
<feFlood flood-opacity="0" result="BackgroundImageFix"/>
<feColorMatrix in="SourceAlpha" type="matrix" values="0 0 0 0 0 0 0 0 0 0 0 0 0 0 0 0 0 0 127 0"/>
<feOffset dy="2"/>
<feGaussianBlur stdDeviation="1"/>
<feColorMatrix type="matrix" values="0 0 0 0 0 0 0 0 0 0 0 0 0 0 0 0 0 0 0.24 0"/>
<feBlend mode="normal" in2="BackgroundImageFix" result="effect1_dropShadow"/>
<feColorMatrix in="SourceAlpha" type="matrix" values="0 0 0 0 0 0 0 0 0 0 0 0 0 0 0 0 0 0 127 0"/>
<feOffset/>
<feGaussianBlur stdDeviation="1"/>
<feColorMatrix type="matrix" values="0 0 0 0 0 0 0 0 0 0 0 0 0 0 0 0 0 0 0.12 0"/>
<feBlend mode="normal" in2="effect1_dropShadow" result="effect2_dropShadow"/>
<feBlend mode="normal" in="SourceGraphic" in2="effect2_dropShadow" result="shape"/>
</filter>
</defs>
</svg>
