<svg width="312" height="146" viewBox="0 0 312 146" fill="none" xmlns="http://www.w3.org/2000/svg">
<path fill-rule="evenodd" clip-rule="evenodd" d="M54.9135 141.508C50.7331 141.984 48.643 142.222 46.917 141.722C44.6158 141.055 42.6719 139.495 41.5129 137.385C40.6437 135.802 40.4075 133.697 39.9352 129.488L35.5764 90.6391C35.104 86.4295 34.8679 84.3247 35.3645 82.5867C36.0268 80.2694 37.576 78.3119 39.6715 77.1448C41.2431 76.2695 43.3333 76.0317 47.5136 75.5561L280.782 49.0161C284.962 48.5404 287.052 48.3026 288.778 48.8028C291.079 49.4696 293.023 51.0297 294.182 53.1398C295.051 54.7224 295.288 56.8272 295.76 61.0368L300.119 99.8854C300.591 104.095 300.827 106.2 300.331 107.938C299.668 110.255 298.119 112.213 296.024 113.38C294.452 114.255 292.362 114.493 288.182 114.968L54.9135 141.508Z" fill="#FF9900"/>
<path fill-rule="evenodd" clip-rule="evenodd" d="M49.0419 134.903C44.9005 135.648 42.8298 136.02 41.0755 135.632C38.7366 135.115 36.6973 133.684 35.4063 131.653C34.438 130.13 34.0683 128.045 33.3289 123.874L26.5046 85.3873C25.7651 81.2169 25.3954 79.1317 25.7803 77.3652C26.2936 75.0098 27.715 72.9563 29.7318 71.6563C31.2444 70.6813 33.3151 70.309 37.4566 69.5643L268.554 28.0129C272.695 27.2683 274.766 26.896 276.52 27.2836C278.859 27.8005 280.899 29.2318 282.19 31.2627C283.158 32.7859 283.528 34.8711 284.267 39.0415L291.091 77.5286C291.831 81.6991 292.2 83.7843 291.815 85.5508C291.302 87.9061 289.881 89.9596 287.864 91.2596C286.351 92.2346 284.281 92.607 280.139 93.3516L49.0419 134.903Z" fill="#146EB4"/>
<g filter="url(#filter0_dd)">
<path d="M284.09 92.0002C281.269 91.3875 278.152 88.314 275.133 85.3317C273.753 83.9666 272.441 82.6826 271.249 81.7086C270.126 80.8059 268.708 79.9157 267.022 79.0625C266.761 78.9302 266.67 78.6249 266.792 78.374C266.924 78.1247 267.234 78.0242 267.486 78.1451C269.238 79.029 270.72 79.9595 271.896 80.9108C273.124 81.9042 274.431 83.1964 275.825 84.5732L275.859 84.6068L275.939 84.6856C278.664 87.3696 281.706 90.3653 284.192 90.9777C284.224 90.5349 284.241 90.0974 284.241 89.6663C284.244 85.8581 282.966 83.0258 280.634 81.6777C280.385 81.5372 280.305 81.2237 280.447 80.976C280.599 80.7298 280.915 80.6505 281.155 80.7893C283.808 82.3297 285.266 85.4815 285.261 89.6605C285.261 90.1345 285.243 90.6154 285.206 91.1017C286.271 91.1254 287.254 90.8705 288.145 90.3563C288.391 90.2155 288.71 90.297 288.852 90.5404C288.993 90.7837 288.911 91.1011 288.665 91.242C287.59 91.877 286.398 92.1721 285.102 92.1296C284.949 93.3463 284.686 94.5913 284.319 95.8453C285.639 96.8035 286.715 97.7943 287.479 98.7794C288.602 100.233 288.996 101.64 288.622 102.863C288.549 103.122 288.302 103.272 288.056 103.232L287.987 103.221C287.718 103.138 287.563 102.852 287.638 102.584C287.984 101.467 287.298 100.244 286.657 99.4186C286.002 98.5724 285.098 97.72 283.991 96.888C283.576 98.12 283.063 99.3556 282.456 100.577C284.689 101.825 285.541 104.121 284.92 107.237C284.909 107.304 284.885 107.366 284.85 107.42C287.805 109.46 289.413 111.758 289.054 113.927C288.573 116.838 284.662 118.851 279.047 119.569C273.402 124.46 269.225 131.083 267.445 138.79C267.525 137.881 267.625 136.965 267.777 136.047C268.786 129.944 271.285 124.448 274.839 119.855C272.189 119.892 269.311 119.685 266.331 119.205L266.241 119.19C264.742 122.023 263.665 125.135 263.114 128.469C262.478 132.316 262.598 136.104 263.358 139.694C260.66 134.208 259.588 127.87 260.66 121.388C260.842 120.286 261.085 119.211 261.381 118.159C258.858 117.493 256.548 116.666 254.537 115.731C253.959 121.897 255.431 127.836 258.422 132.845C253.999 127.748 251.425 121.129 251.479 114.084C249.865 113.07 248.584 111.983 247.717 110.871C251.298 113.092 256.367 114.922 262.13 115.851C273.922 117.752 284.174 115.165 285.017 110.069C285.154 109.243 285.038 108.407 284.697 107.572C284.594 107.636 284.467 107.665 284.338 107.644L284.318 107.641C284.034 107.585 283.857 107.316 283.912 107.044C284.436 104.389 283.781 102.524 281.981 101.494C281.777 101.875 281.563 102.254 281.34 102.63C279.435 105.845 275.755 109.39 272.796 111.607C276.62 112.073 280.16 112.012 283.085 111.492C279.172 113.788 271.402 114.249 262.924 112.331C251.478 109.744 243.082 103.79 244.181 99.0357C244.689 96.8222 247.179 95.259 250.85 94.4878C250.066 95.2032 249.535 96.0298 249.321 96.9576C248.156 101.992 256.532 108.183 268.037 110.78C269.242 111.052 270.432 111.273 271.601 111.446C271.609 111.299 271.679 111.158 271.807 111.066C274.733 108.942 278.538 105.346 280.455 102.116C280.657 101.775 280.852 101.431 281.039 101.086C278.466 100.321 273.924 101.348 269.858 102.266L269.743 102.293C267.936 102.7 266.235 103.083 264.77 103.307C259.659 104.059 253.387 102.568 253.074 102.494L253.071 102.493C252.789 102.427 252.623 102.15 252.689 101.87C252.756 101.59 253.045 101.426 253.317 101.49C253.321 101.491 253.337 101.495 253.367 101.501C253.973 101.638 259.91 102.982 264.617 102.279C266.035 102.067 267.733 101.689 269.528 101.277L269.63 101.254C273.901 100.293 278.679 99.2178 281.52 100.158C282.163 98.8684 282.698 97.5627 283.119 96.265C280.337 94.3729 276.542 92.6259 272.32 91.3539C265.635 89.3439 259.05 88.9239 255.534 90.2815C254.293 90.7631 253.528 91.4216 253.281 92.2437C253.195 92.5205 252.907 92.6746 252.64 92.5814C252.361 92.4963 252.216 92.2123 252.291 91.9437C252.642 90.7975 253.605 89.9204 255.158 89.3188C258.933 87.8626 265.622 88.2594 272.615 90.3591C276.796 91.6135 280.578 93.3397 283.431 95.2299C283.735 94.1383 283.956 93.057 284.09 92.0002Z" fill="white"/>
</g>
<path d="M54.9479 121.416L53.6795 114.263C54.1438 114.295 54.5634 114.277 54.9384 114.21C55.8272 114.05 56.342 113.64 56.4829 112.979C56.6074 112.308 56.4589 110.783 56.0374 108.405L52.7753 90.008L50.1087 90.4874L48.8701 83.5019L65.2233 80.5616L66.4619 87.5471L63.9829 87.9929L67.0144 105.09C67.5773 108.264 67.8907 110.517 67.9547 111.848C68.0211 113.192 67.7639 114.53 67.1831 115.861C66.5769 117.211 65.6814 118.303 64.4964 119.136C63.3115 119.97 61.5732 120.593 59.2817 121.005C57.9623 121.242 56.5177 121.379 54.9479 121.416Z" fill="white"/>
<path d="M71.2325 86.6894L69.0035 87.0902L67.7648 80.1046L82.5973 77.4377L83.8359 84.4233L82.461 84.6705L84.2055 94.5091C84.6221 96.8586 85.1282 98.4199 85.7239 99.1931C86.3171 99.9523 87.19 100.228 88.3428 100.021C89.301 99.8487 89.9322 99.3672 90.2363 98.5766C90.5428 97.7999 90.5039 96.3277 90.1195 94.16L88.2523 83.6292L86.7941 83.8914L85.5554 76.9058L96.4506 74.9469L97.6892 81.9325L95.3977 82.3445L97.2724 92.9173C97.751 95.6164 97.7539 97.896 97.2812 99.756C96.806 101.602 95.7512 103.17 94.1169 104.459C92.4825 105.749 90.346 106.631 87.7073 107.105C85.5824 107.488 83.6547 107.567 81.9241 107.344C80.1683 107.141 78.7125 106.609 77.5569 105.748C76.4037 104.902 75.469 103.793 74.7528 102.421C74.0302 101.094 73.4097 98.9684 72.8914 96.0455L71.2325 86.6894Z" fill="white"/>
<path d="M115.895 101.561L104.666 103.58L103.427 96.5945L105.656 96.1937L102.96 80.9848L100.668 81.3968L99.4296 74.4113L116.908 71.2687L123.176 81.7659L125.553 69.7142L142.927 66.5904L144.166 73.576L141.895 73.9843L144.592 89.1931L146.925 88.7736L148.163 95.7592L133.039 98.4785L131.801 91.4929L134.113 91.0772L131.223 74.7775L126.602 99.6359L122.269 100.415L109.511 78.8977L112.364 94.9876L114.656 94.5756L115.895 101.561Z" fill="white"/>
<path d="M161.79 69.8011L162.76 75.2763L164.948 74.883C166.475 74.6083 167.554 74.2267 168.184 73.7383C168.786 73.2548 168.994 72.4886 168.808 71.4397C168.687 70.7545 168.403 70.2065 167.958 69.796C167.529 69.3969 167.012 69.1868 166.406 69.1659C165.828 69.1399 164.873 69.2467 163.539 69.4865L161.79 69.8011ZM168.746 92.0585L151.809 95.1037L150.57 88.1181L153.383 87.6125L150.686 72.4036L147.874 72.9093L146.635 65.9237L164.405 62.7287C168.488 61.9945 171.545 61.8562 173.575 62.3138C175.607 62.7853 177.192 63.6404 178.329 64.8791C179.466 66.1178 180.182 67.5693 180.477 69.2335C180.841 71.2894 180.616 73.0904 179.801 74.6368C178.989 76.1971 177.769 77.441 176.142 78.3685C174.54 79.277 171.955 80.0521 168.386 80.6939L163.865 81.5067L164.59 85.5973L167.507 85.0729L168.746 92.0585Z" fill="white"/>
<path d="M198.507 74.1741L199.526 79.922L202.047 79.4688C203.658 79.1791 204.78 78.7609 205.414 78.214C206.034 77.6695 206.25 76.8659 206.061 75.803C205.885 74.8101 205.442 74.1321 204.733 73.7689C204.026 73.4198 202.777 73.4063 200.986 73.7284L198.507 74.1741ZM196.621 63.5384L197.566 68.8668L200.045 68.421C201.725 68.1189 202.786 67.6756 203.227 67.0913C203.64 66.5119 203.776 65.8236 203.634 65.0265C203.513 64.3412 203.175 63.767 202.62 63.304C202.065 62.841 200.759 62.7943 198.704 63.1639L196.621 63.5384ZM203.327 85.8408L186.932 88.7886L185.693 81.803L188.214 81.3498L185.517 66.1409L182.997 66.5942L181.758 59.6086L199.465 56.4248C202.937 55.8005 205.661 55.5201 207.635 55.5836C209.584 55.666 211.204 56.2335 212.494 57.2859C213.789 58.3662 214.587 59.7525 214.887 61.4447C215.179 63.095 214.906 64.5007 214.065 65.662C213.202 66.8562 212.062 67.7827 210.646 68.4415C212.797 68.6897 214.535 69.3586 215.86 70.4479C217.204 71.5628 218.021 72.9383 218.311 74.5746C218.658 76.5325 218.329 78.3091 217.322 79.9044C216.312 81.4857 214.754 82.6821 212.648 83.4937C210.573 84.3143 207.465 85.0967 203.327 85.8408Z" fill="white"/>
<path d="M231.464 58.3126L230.167 66.8797L235.354 65.9471L231.464 58.3126ZM232.596 80.5782L221.117 82.642L219.879 75.6565L222.087 75.2594L224.827 59.073L222.494 59.4925L221.256 52.5069L242.088 48.7613L243.326 55.7468L240.993 56.1664L249.231 70.3789L251.356 69.9968L252.595 76.9824L237.471 79.7017L236.336 73.3035L238.878 72.8466L237.123 69.374L229.706 70.7074L229.087 74.607L231.461 74.18L232.596 80.5782Z" fill="white"/>
<path d="M282.155 71.6674L254.574 76.6266L253.335 69.641L255.939 69.1728L253.242 53.9639L250.638 54.4321L249.4 47.4465L265.961 44.4688L267.2 51.4544L264.45 51.9488L267.147 67.1576L274.001 65.9253L273.171 61.2473L280.087 60.0038L282.155 71.6674Z" fill="white"/>
<path d="M311.945 66.3111L284.364 71.2703L283.125 64.2848L285.729 63.8166L283.032 48.6077L280.428 49.0759L279.19 42.0903L295.751 39.1125L296.99 46.0981L294.24 46.5926L296.937 61.8014L303.79 60.5691L302.961 55.8911L309.877 54.6475L311.945 66.3111Z" fill="white"/>
<g filter="url(#filter1_dd)">
<path fill-rule="evenodd" clip-rule="evenodd" d="M28.2842 2.91768C26.7078 3.96242 25.5351 5.08907 25.5351 5.55893C25.5351 5.74081 25.4125 5.94363 25.2627 6.01003C24.8958 6.1717 23.7524 9.95115 23.7524 11.002C23.7524 11.902 24.7015 15.4808 25.2057 16.4819C25.8518 17.7637 26.1534 21.3967 25.8746 24.5349C25.39 29.9859 25.4742 33.9288 26.1088 35.5344C26.424 36.3322 26.7863 36.9851 26.9136 36.9851C27.0409 36.9851 27.0865 37.7263 27.0152 38.6321C26.8401 40.862 27.5572 45.7248 28.4378 48.279C29.0222 49.9744 29.0857 50.5832 28.7734 51.4908C28.5612 52.1065 28.3876 53.2764 28.3876 54.0906C28.3876 56.0942 27.4338 60.5835 26.9749 60.7383C26.7713 60.8068 26.6048 61.0125 26.6048 61.1955C26.6048 61.3785 26.2037 62.3698 25.7134 63.3983C25.2232 64.4268 24.822 65.4167 24.822 65.5975C24.822 65.7783 24.6056 66.4383 24.3414 67.0637C24.0768 67.6891 23.573 69.094 23.2218 70.1856C22.8706 71.2773 22.4449 72.3245 22.2763 72.5133C22.1076 72.7017 21.9696 73.1412 21.9696 73.4895C21.9696 73.8377 21.6084 74.4952 21.1667 74.951C18.879 77.3108 18.0062 80.6857 18.7756 84.1963C19.0445 85.4222 19.3743 86.425 19.5087 86.425C19.6431 86.425 19.8538 86.831 19.9768 87.3272C20.0999 87.8234 20.358 88.2294 20.5502 88.2294C20.7427 88.2294 20.9 88.4005 20.9 88.6098C20.9 88.8191 21.3806 89.5094 21.9678 90.1435C22.5554 90.7779 23.0368 91.4845 23.0375 91.7137C23.0386 91.9428 22.3276 92.5524 21.458 93.0684C19.5386 94.2066 18.5877 95.4964 17.7962 98.0344C17.466 99.0925 16.8545 100.526 16.437 101.221C16.0195 101.916 15.5666 102.789 15.4304 103.161C14.9541 104.464 12.158 108.013 11.4513 108.211C10.1167 108.585 8.06404 110.957 8.06404 112.124C8.06404 113.24 7.1042 115.656 6.66029 115.656C6.52124 115.656 6.04167 116.398 5.59455 117.304C4.42149 119.681 4.75665 121.74 6.46811 122.672C7.64295 123.313 7.76917 123.316 9.04456 122.734C10.6362 122.007 11.6257 120.433 11.6399 118.604C11.6485 117.501 11.9761 116.932 13.601 115.196C15.367 113.31 15.5517 112.96 15.5517 111.497C15.5517 110.609 15.6993 109.882 15.8797 109.882C16.0597 109.882 16.4666 109.093 16.7832 108.128C17.2232 106.787 17.65 106.215 18.5945 105.7C19.2741 105.33 19.8303 104.901 19.8303 104.748C19.8303 104.594 20.0877 104.469 20.4026 104.469C20.8739 104.469 20.9349 104.74 20.7477 106.003C20.1434 110.085 20.1248 110.635 20.573 111.181C21.0725 111.79 20.9777 111.902 19.0808 112.944C17.6764 113.716 15.9699 115.858 14.9491 118.13C14.446 119.25 13.894 120.221 13.7233 120.287C13.5521 120.354 13.4123 120.638 13.4123 120.919C13.4123 121.2 13.2626 121.43 13.0797 121.43C12.8968 121.43 12.6518 121.735 12.5352 122.107C12.4183 122.479 11.7462 123.384 11.0409 124.119C9.82149 125.39 9.67709 125.444 8.07189 125.22C6.3287 124.978 3.93159 125.672 3.35754 126.587C3.20672 126.827 3.08085 128.668 3.07764 130.679C3.07408 133.1 2.89188 134.771 2.53747 135.629C2.00157 136.927 1.81295 140.358 2.21906 141.429C2.37024 141.828 2.90079 142 3.98151 142C5.84771 142 6.24063 141.535 7.40014 137.956C7.99915 136.106 8.59637 135.064 9.65142 134.028C10.4412 133.252 11.2096 132.617 11.3586 132.617C11.5076 132.617 11.6296 131.751 11.6296 130.691C11.6296 128.783 11.651 128.745 14.0381 126.451C15.3627 125.178 17.5391 123.162 18.8744 121.971C20.2097 120.78 21.8263 119.319 22.4667 118.723C23.107 118.128 24.2409 117.118 24.9861 116.478C26.4365 115.232 27.3179 113.82 27.3179 112.742C27.3179 112.376 27.5728 111.866 27.8841 111.61C29.398 110.367 30.5269 109.083 30.5269 108.607C30.5269 108.315 30.6873 108.078 30.8834 108.078C31.0795 108.078 31.24 107.908 31.24 107.702C31.24 107.495 31.8818 106.001 32.6662 104.381C33.4506 102.761 34.0924 101.239 34.0924 100.998C34.0924 100.757 34.2129 100.505 34.3598 100.439C35.1072 100.103 36.937 95.3293 37.1588 93.137C37.3955 90.8003 37.4194 90.7556 38.4438 90.7556C39.0178 90.7556 39.7844 90.595 40.1471 90.3983C40.8783 90.002 41.5768 87.3197 41.5854 84.8736C41.5904 83.4067 42.6044 79.4937 43.1129 78.9791C43.2505 78.8402 43.3628 78.5006 43.3628 78.2249C43.3628 77.9492 43.8442 76.7417 44.4325 75.5414C45.0208 74.3415 45.5021 73.1326 45.5021 72.855C45.5021 72.5779 45.6294 72.3509 45.7849 72.3509C45.9403 72.3509 46.3739 71.4173 46.7486 70.2759C47.123 69.1348 47.5459 67.9572 47.6882 67.6595C48.1634 66.6642 49.0677 63.3824 49.0677 62.6531C49.0677 62.2568 49.2345 61.4885 49.4381 60.9461L49.8086 59.9595L50.5969 61.0129C51.0305 61.5921 52.1929 62.8779 53.1798 63.8703C58.5595 69.2798 60.3183 69.6963 61.9852 65.9554C64.3139 60.7303 64.7521 59.6816 64.9639 58.8278C65.0879 58.3262 65.3329 57.9159 65.5076 57.9159C65.6827 57.9159 65.8257 57.6387 65.8257 57.2998C65.8257 56.9613 66.4896 55.7261 67.3011 54.555C68.8104 52.3775 70.6345 47.7273 70.0644 47.5107C69.8904 47.4443 69.7477 47.0304 69.7477 46.5901C69.7477 46.1502 69.5474 45.3531 69.3021 44.8186C68.4207 42.898 65.8257 43.9565 65.8257 46.2372C65.8257 46.8287 65.59 47.6277 65.3022 48.0131C64.8041 48.6796 64.7778 48.6612 64.7617 47.6309C64.7528 47.0355 64.598 46.313 64.4183 46.0257C64.1602 45.6125 64.0536 45.688 63.9085 46.3866C63.4539 48.575 63.2749 49.9925 63.1119 52.6832C63.0157 54.271 62.7447 55.9762 62.5097 56.4724C61.982 57.5849 60.1222 60.4622 59.5354 61.0735C59.0579 61.5708 58.3384 61.6791 58.3377 61.254C58.3373 61.1053 57.9184 60.4961 57.4064 59.9007C56.8944 59.3052 56.0522 58.254 55.5348 57.5644C52.748 53.8502 50.6001 52.301 46.2152 50.8413C45.1367 50.4822 44.0699 50.0535 43.8442 49.8882C43.187 49.4061 43.6776 46.6497 44.5583 45.8767C45.2194 45.2968 45.3406 44.7432 45.4472 41.8219C45.552 38.9526 45.4565 38.1998 44.8179 36.8653C43.996 35.1464 42.9182 34.4589 41.0452 34.4589C38.4777 34.4589 37.1188 35.8931 36.7145 39.0305C36.5908 39.9894 36.3337 40.9753 36.1426 41.2207C35.6823 41.8129 36.036 43.1319 36.9092 44.0806C37.4797 44.7006 37.5328 44.9593 37.1877 45.4371C36.8101 45.96 36.5555 45.8301 34.9624 44.3033C33.4346 42.8385 33.0898 42.2524 32.673 40.4134C32.4031 39.2225 31.8247 37.4362 31.3876 36.4438C30.7804 35.0652 30.5444 33.6722 30.3878 30.5413C30.1846 26.4821 29.7164 23.0654 29.0632 20.8738C28.8386 20.1203 28.8532 19.4537 29.1067 18.889C29.4612 18.1001 29.6583 18.0481 31.8508 18.1629C33.7287 18.261 34.5299 18.1264 35.7586 17.5054C38.426 16.1568 40.4997 12.9179 40.4997 10.0998C40.4997 7.47302 38.7016 4.37959 36.3326 2.93176C35.0198 2.12881 34.3745 1.98338 32.2059 2.00142C30.0923 2.01874 29.3955 2.1815 28.2842 2.91768Z" fill="white"/>
</g>
<defs>
<filter id="filter0_dd" x="242.085" y="76.094" width="49.0188" height="67.6003" filterUnits="userSpaceOnUse" color-interpolation-filters="sRGB">
<feFlood flood-opacity="0" result="BackgroundImageFix"/>
<feColorMatrix in="SourceAlpha" type="matrix" values="0 0 0 0 0 0 0 0 0 0 0 0 0 0 0 0 0 0 127 0"/>
<feOffset dy="2"/>
<feGaussianBlur stdDeviation="1"/>
<feColorMatrix type="matrix" values="0 0 0 0 0 0 0 0 0 0 0 0 0 0 0 0 0 0 0.24 0"/>
<feBlend mode="normal" in2="BackgroundImageFix" result="effect1_dropShadow"/>
<feColorMatrix in="SourceAlpha" type="matrix" values="0 0 0 0 0 0 0 0 0 0 0 0 0 0 0 0 0 0 127 0"/>
<feOffset/>
<feGaussianBlur stdDeviation="1"/>
<feColorMatrix type="matrix" values="0 0 0 0 0 0 0 0 0 0 0 0 0 0 0 0 0 0 0.12 0"/>
<feBlend mode="normal" in2="effect1_dropShadow" result="effect2_dropShadow"/>
<feBlend mode="normal" in="SourceGraphic" in2="effect2_dropShadow" result="shape"/>
</filter>
<filter id="filter1_dd" x="0" y="0" width="72.1713" height="146" filterUnits="userSpaceOnUse" color-interpolation-filters="sRGB">
<feFlood flood-opacity="0" result="BackgroundImageFix"/>
<feColorMatrix in="SourceAlpha" type="matrix" values="0 0 0 0 0 0 0 0 0 0 0 0 0 0 0 0 0 0 127 0"/>
<feOffset dy="2"/>
<feGaussianBlur stdDeviation="1"/>
<feColorMatrix type="matrix" values="0 0 0 0 0 0 0 0 0 0 0 0 0 0 0 0 0 0 0.24 0"/>
<feBlend mode="normal" in2="BackgroundImageFix" result="effect1_dropShadow"/>
<feColorMatrix in="SourceAlpha" type="matrix" values="0 0 0 0 0 0 0 0 0 0 0 0 0 0 0 0 0 0 127 0"/>
<feOffset/>
<feGaussianBlur stdDeviation="1"/>
<feColorMatrix type="matrix" values="0 0 0 0 0 0 0 0 0 0 0 0 0 0 0 0 0 0 0.12 0"/>
<feBlend mode="normal" in2="effect1_dropShadow" result="effect2_dropShadow"/>
<feBlend mode="normal" in="SourceGraphic" in2="effect2_dropShadow" result="shape"/>
</filter>
</defs>
</svg>
