<svg width="312" height="140" viewBox="0 0 312 140" fill="none" xmlns="http://www.w3.org/2000/svg">
<path fill-rule="evenodd" clip-rule="evenodd" d="M53.2548 139.509C49.0475 139.984 46.9438 140.222 45.2067 139.722C42.8906 139.055 40.9342 137.495 39.7677 135.385C38.8929 133.802 38.6552 131.698 38.1799 127.488L33.7929 88.6393C33.3175 84.4298 33.0798 82.325 33.5797 80.587C34.2462 78.2696 35.8054 76.3121 37.9144 75.1451C39.4962 74.2698 41.5998 74.0319 45.8071 73.5563L280.58 47.0163C284.787 46.5407 286.891 46.3029 288.628 46.803C290.944 47.4698 292.901 49.0299 294.067 51.14C294.942 52.7226 295.18 54.8274 295.655 59.037L300.042 97.8857C300.517 102.095 300.755 104.2 300.255 105.938C299.589 108.255 298.029 110.213 295.92 111.38C294.339 112.255 292.235 112.493 288.028 112.969L53.2548 139.509Z" fill="#FF9900"/>
<path fill-rule="evenodd" clip-rule="evenodd" d="M47.3454 132.903C43.1772 133.648 41.0931 134.02 39.3275 133.633C36.9735 133.116 34.921 131.684 33.6217 129.653C32.6472 128.13 32.2751 126.045 31.5309 121.875L24.6626 83.3875C23.9184 79.2171 23.5463 77.1319 23.9337 75.3654C24.4502 73.0101 25.8808 70.9565 27.9106 69.6565C29.433 68.6815 31.5171 68.3092 35.6853 67.5646L268.273 26.0132C272.442 25.2686 274.526 24.8962 276.291 25.2839C278.645 25.8007 280.698 27.232 281.997 29.2629C282.972 30.7861 283.344 32.8713 284.088 37.0417L290.956 75.5289C291.7 79.6993 292.073 81.7845 291.685 83.551C291.169 85.9063 289.738 87.9599 287.708 89.2599C286.186 90.2349 284.102 90.6072 279.934 91.3518L47.3454 132.903Z" fill="#146EB4"/>
<path d="M53.2894 119.416L52.0128 112.263C52.48 112.295 52.9024 112.277 53.2798 112.21C54.1743 112.05 54.6925 111.64 54.8343 110.98C54.9596 110.308 54.8101 108.783 54.3858 106.406L51.1027 88.0083L48.419 88.4877L47.1724 81.5021L63.6311 78.5618L64.8777 85.5474L62.3827 85.9931L65.4337 103.09C66.0002 106.265 66.3157 108.517 66.3801 109.848C66.4469 111.192 66.1881 112.53 65.6035 113.861C64.9934 115.211 64.0921 116.303 62.8995 117.137C61.7069 117.97 59.9574 118.593 57.6511 119.005C56.3232 119.242 54.8693 119.379 53.2894 119.416Z" fill="white"/>
<path d="M69.679 84.6896L67.4356 85.0904L66.189 78.1048L81.1171 75.438L82.3637 82.4235L80.9799 82.6707L82.7357 92.5093C83.155 94.8588 83.6644 96.4202 84.2639 97.1933C84.8609 97.9526 85.7395 98.2285 86.8997 98.0213C87.8641 97.849 88.4994 97.3675 88.8054 96.5768C89.1139 95.8002 89.0748 94.328 88.6879 92.1603L86.8086 81.6295L85.341 81.8917L84.0943 74.9061L95.0598 72.9471L96.3064 79.9327L94.0001 80.3447L95.8869 90.9175C96.3686 93.6166 96.3715 95.8962 95.8958 97.7562C95.4175 99.6022 94.3559 101.17 92.711 102.46C91.0661 103.749 88.9158 104.631 86.2601 105.106C84.1215 105.488 82.1813 105.567 80.4396 105.345C78.6725 105.141 77.2073 104.609 76.0442 103.749C74.8836 102.903 73.9429 101.794 73.222 100.421C72.4947 99.0939 71.8703 96.9686 71.3487 94.0457L69.679 84.6896Z" fill="white"/>
<path d="M114.629 99.5614L103.328 101.58L102.082 94.5947L104.325 94.1939L101.611 78.9851L99.3047 79.3971L98.058 72.4115L115.649 69.2689L121.957 79.7661L124.35 67.7145L141.836 64.5906L143.083 71.5762L140.797 71.9845L143.511 87.1934L145.86 86.7738L147.106 93.7594L131.885 96.4788L130.638 89.4932L132.965 89.0774L130.057 72.7777L125.406 97.6362L121.045 98.4152L108.205 76.8979L111.076 92.9878L113.383 92.5758L114.629 99.5614Z" fill="white"/>
<path d="M160.82 67.8013L161.797 73.2765L163.999 72.8832C165.536 72.6086 166.622 72.227 167.256 71.7385C167.862 71.255 168.072 70.4889 167.884 69.44C167.762 68.7547 167.477 68.2068 167.029 67.7962C166.597 67.3971 166.076 67.1871 165.467 67.1661C164.885 67.1401 163.923 67.247 162.582 67.4867L160.82 67.8013ZM167.821 90.0588L150.775 93.104L149.529 86.1184L152.359 85.6127L149.645 70.4038L146.815 70.9095L145.568 63.9239L163.453 60.7289C167.562 59.9948 170.638 59.8565 172.681 60.314C174.727 60.7856 176.322 61.6407 177.466 62.8794C178.61 64.1181 179.331 65.5696 179.628 67.2338C179.995 69.2896 179.768 71.0907 178.948 72.637C178.13 74.1973 176.903 75.4412 175.265 76.3687C173.653 77.2772 171.051 78.0524 167.459 78.6941L162.909 79.5069L163.639 83.5976L166.575 83.0732L167.821 90.0588Z" fill="white"/>
<path d="M197.774 72.1744L198.8 77.9223L201.337 77.469C202.958 77.1794 204.088 76.7611 204.726 76.2142C205.35 75.6698 205.567 74.8662 205.378 73.8033C205.2 72.8103 204.755 72.1323 204.041 71.7692C203.33 71.42 202.072 71.4065 200.269 71.7286L197.774 72.1744ZM195.876 61.5387L196.827 66.867L199.322 66.4213C201.013 66.1191 202.081 65.6759 202.525 65.0915C202.941 64.5121 203.077 63.8239 202.935 63.0267C202.813 62.3414 202.472 61.7673 201.914 61.3043C201.355 60.8413 200.042 60.7945 197.973 61.1641L195.876 61.5387ZM202.626 83.841L186.125 86.7888L184.878 79.8033L187.415 79.35L184.701 64.1412L182.164 64.5944L180.918 57.6088L198.739 54.425C202.234 53.8008 204.974 53.5204 206.962 53.5838C208.924 53.6663 210.554 54.2337 211.852 55.2861C213.155 56.3665 213.958 57.7528 214.26 59.445C214.555 61.0952 214.279 62.501 213.433 63.6622C212.565 64.8564 211.418 65.7829 209.992 66.4417C212.156 66.69 213.906 67.3588 215.239 68.4482C216.592 69.563 217.415 70.9386 217.707 72.5748C218.056 74.5327 217.724 76.3093 216.711 77.9046C215.695 79.4859 214.127 80.6824 212.007 81.494C209.918 82.3146 206.791 83.0969 202.626 83.841Z" fill="white"/>
<path d="M230.944 56.3129L229.639 64.88L234.86 63.9473L230.944 56.3129ZM232.084 78.5784L220.531 80.6423L219.284 73.6567L221.507 73.2597L224.265 57.0732L221.917 57.4927L220.67 50.5071L241.637 46.7615L242.883 53.7471L240.535 54.1666L248.826 68.3791L250.965 67.9971L252.211 74.9827L236.99 77.702L235.848 71.3038L238.406 70.8468L236.639 67.3742L229.175 68.7077L228.552 72.6072L230.942 72.1802L232.084 78.5784Z" fill="white"/>
<path d="M281.963 69.6676L254.203 74.6268L252.957 67.6412L255.577 67.173L252.863 51.9642L250.242 52.4324L248.996 45.4468L265.664 42.469L266.911 49.4546L264.143 49.949L266.857 65.1579L273.755 63.9256L272.92 59.2475L279.881 58.004L281.963 69.6676Z" fill="white"/>
<path d="M311.945 64.3114L284.185 69.2706L282.939 62.285L285.559 61.8168L282.845 46.6079L280.224 47.0761L278.978 40.0906L295.646 37.1128L296.893 44.0984L294.125 44.5928L296.839 59.8017L303.737 58.5694L302.903 53.8913L309.863 52.6478L311.945 64.3114Z" fill="white"/>
<path fill-rule="evenodd" clip-rule="evenodd" d="M26.4537 0.917683C24.8673 1.96242 23.687 3.08907 23.687 3.55893C23.687 3.74081 23.5635 3.94363 23.4128 4.01003C23.0436 4.1717 21.8927 7.95115 21.8927 9.00202C21.8927 9.90204 22.848 13.4808 23.3554 14.4819C24.0056 15.7637 24.3092 19.3967 24.0286 22.5349C23.5409 27.9859 23.6256 31.9288 24.2644 33.5344C24.5816 34.3322 24.9462 34.9851 25.0743 34.9851C25.2024 34.9851 25.2484 35.7263 25.1766 36.6321C25.0004 38.862 25.722 43.7248 26.6084 46.279C27.1966 47.9744 27.2604 48.5832 26.9461 49.4908C26.7326 50.1065 26.5578 51.2764 26.5578 52.0906C26.5578 54.0942 25.5979 58.5835 25.136 58.7383C24.9311 58.8068 24.7635 59.0125 24.7635 59.1955C24.7635 59.3785 24.3598 60.3698 23.8664 61.3983C23.373 62.4268 22.9693 63.4167 22.9693 63.5975C22.9693 63.7783 22.7515 64.4383 22.4855 65.0637C22.2193 65.6891 21.7122 67.094 21.3587 68.1856C21.0053 69.2773 20.5768 70.3245 20.4071 70.5133C20.2373 70.7017 20.0985 71.1412 20.0985 71.4895C20.0985 71.8377 19.7349 72.4952 19.2903 72.951C16.9879 75.3108 16.1094 78.6857 16.8838 82.1963C17.1544 83.4222 17.4864 84.425 17.6216 84.425C17.7569 84.425 17.969 84.831 18.0928 85.3272C18.2166 85.8234 18.4764 86.2294 18.6699 86.2294C18.8636 86.2294 19.0219 86.4005 19.0219 86.6098C19.0219 86.8191 19.5056 87.5094 20.0967 88.1435C20.688 88.7779 21.1725 89.4845 21.1732 89.7137C21.1743 89.9428 20.4587 90.5524 19.5835 91.0684C17.6518 92.2066 16.6947 93.4964 15.8981 96.0344C15.5658 97.0925 14.9503 98.5263 14.5301 99.221C14.1099 99.9156 13.6542 100.789 13.5171 101.161C13.0376 102.464 10.2235 106.013 9.51227 106.211C8.16908 106.585 6.10316 108.957 6.10316 110.124C6.10316 111.24 5.13713 113.656 4.69036 113.656C4.5504 113.656 4.06775 114.398 3.61774 115.304C2.43712 117.681 2.77444 119.74 4.49694 120.672C5.67936 121.313 5.80639 121.316 7.09001 120.734C8.69193 120.007 9.68775 118.433 9.70211 116.604C9.71072 115.501 10.0405 114.932 11.6758 113.196C13.4532 111.31 13.6391 110.96 13.6391 109.497C13.6391 108.609 13.7877 107.882 13.9692 107.882C14.1505 107.882 14.5599 107.093 14.8786 106.128C15.3214 104.787 15.7509 104.215 16.7015 103.7C17.3855 103.33 17.9453 102.901 17.9453 102.748C17.9453 102.594 18.2044 102.469 18.5213 102.469C18.9957 102.469 19.0571 102.74 18.8687 104.003C18.2604 108.085 18.2417 108.635 18.6928 109.181C19.1956 109.79 19.1001 109.902 17.191 110.944C15.7775 111.716 14.06 113.858 13.0326 116.13C12.5263 117.25 11.9708 118.221 11.7989 118.287C11.6266 118.353 11.486 118.638 11.486 118.919C11.486 119.2 11.3352 119.43 11.1512 119.43C10.9671 119.43 10.7205 119.735 10.6032 120.107C10.4855 120.479 9.80904 121.384 9.09923 122.119C7.87195 123.39 7.72662 123.444 6.11106 123.22C4.35662 122.978 1.94405 123.672 1.3663 124.587C1.2145 124.827 1.08783 126.668 1.0846 128.679C1.08101 131.1 0.897635 132.771 0.540934 133.629C0.00157729 134.927 -0.188256 138.358 0.220478 139.429C0.372632 139.828 0.906606 140 1.99429 140C3.87253 140 4.26799 139.535 5.43498 135.956C6.03785 134.106 6.63893 133.064 7.70078 132.028C8.49564 131.252 9.26897 130.617 9.41897 130.617C9.56897 130.617 9.6917 129.751 9.6917 128.692C9.6917 126.783 9.71323 126.745 12.1158 124.451C13.4489 123.178 15.6393 121.162 16.9832 119.971C18.3272 118.78 19.9542 117.319 20.5987 116.723C21.2432 116.128 22.3843 115.118 23.1344 114.478C24.5942 113.232 25.4813 111.82 25.4813 110.742C25.4813 110.376 25.7378 109.866 26.0511 109.61C27.5748 108.367 28.7109 107.083 28.7109 106.607C28.7109 106.315 28.8724 106.078 29.0698 106.078C29.2672 106.078 29.4286 105.908 29.4286 105.702C29.4286 105.495 30.0746 104.001 30.8641 102.381C31.6535 100.761 32.2995 99.239 32.2995 98.9976C32.2995 98.7565 32.4208 98.5053 32.5686 98.4389C33.3208 98.103 35.1624 93.3293 35.3856 91.137C35.6239 88.8003 35.6479 88.7556 36.6789 88.7556C37.2567 88.7556 38.0282 88.595 38.3932 88.3983C39.1292 88.002 39.8322 85.3197 39.8408 82.8736C39.8458 81.4067 40.8664 77.4937 41.3781 76.9791C41.5166 76.8402 41.6297 76.5006 41.6297 76.2249C41.6297 75.9492 42.1141 74.7417 42.7062 73.5414C43.2983 72.3415 43.7828 71.1326 43.7828 70.855C43.7828 70.5779 43.9109 70.3509 44.0674 70.3509C44.2238 70.3509 44.6602 69.4173 45.0373 68.2759C45.4141 67.1348 45.8397 65.9572 45.9829 65.6595C46.4613 64.6642 47.3713 61.3824 47.3713 60.6531C47.3713 60.2568 47.5393 59.4885 47.7442 58.9461L48.117 57.9595L48.9104 59.0129C49.3468 59.5921 50.5167 60.8779 51.51 61.8703C56.9244 67.2798 58.6946 67.6963 60.3722 63.9554C62.7159 58.7303 63.1569 57.6816 63.3701 56.8278C63.495 56.3262 63.7415 55.9159 63.9173 55.9159C64.0935 55.9159 64.2374 55.6387 64.2374 55.2998C64.2374 54.9613 64.9056 53.7261 65.7224 52.555C67.2414 50.3775 69.0773 45.7273 68.5035 45.5107C68.3284 45.4443 68.1848 45.0304 68.1848 44.5901C68.1848 44.1502 67.9831 43.3531 67.7363 42.8186C66.8492 40.898 64.2374 41.9565 64.2374 44.2372C64.2374 44.8287 64.0002 45.6277 63.7106 46.0131C63.2093 46.6796 63.1828 46.6612 63.1666 45.6309C63.1576 45.0355 63.0019 44.313 62.821 44.0257C62.5612 43.6125 62.4539 43.688 62.3079 44.3866C61.8503 46.575 61.6702 47.9925 61.5062 50.6832C61.4093 52.271 61.1366 53.9762 60.9001 54.4724C60.369 55.5849 58.4972 58.4622 57.9065 59.0735C57.426 59.5708 56.7019 59.6791 56.7012 59.254C56.7008 59.1053 56.2791 58.4961 55.7638 57.9007C55.2485 57.3052 54.4009 56.254 53.8802 55.5644C51.0754 51.8502 48.9137 50.301 44.5005 48.8413C43.415 48.4822 42.3413 48.0535 42.1141 47.8882C41.4527 47.4061 41.9465 44.6497 42.8329 43.8767C43.4982 43.2968 43.6202 42.7432 43.7275 39.8219C43.833 36.9526 43.7368 36.1998 43.0941 34.8653C42.267 33.1464 41.1822 32.4589 39.2971 32.4589C36.713 32.4589 35.3454 33.8931 34.9385 37.0305C34.814 37.9894 34.5552 38.9753 34.3629 39.2207C33.8996 39.8129 34.2556 41.1319 35.1344 42.0806C35.7086 42.7006 35.762 42.9593 35.4147 43.4371C35.0347 43.96 34.7784 43.8301 33.1751 42.3033C31.6374 40.8385 31.2904 40.2524 30.8709 38.4134C30.5992 37.2225 30.0172 35.4362 29.5772 34.4438C28.9661 33.0652 28.7285 31.6722 28.571 28.5413C28.3664 24.4821 27.8953 21.0654 27.2378 18.8738C27.0118 18.1203 27.0265 17.4537 27.2816 16.889C27.6383 16.1001 27.8368 16.0481 30.0434 16.1629C31.9334 16.261 32.7398 16.1264 33.9764 15.5054C36.661 14.1568 38.7481 10.9179 38.7481 8.09983C38.7481 5.47302 36.9384 2.37959 34.5541 0.931757C33.2328 0.128809 32.5833 -0.0166242 30.4008 0.00141958C28.2735 0.0187416 27.5723 0.181496 26.4537 0.917683Z" fill="white"/>
<path d="M284.544 90.0411C281.693 89.427 278.542 86.3463 275.491 83.3571C274.097 81.9888 272.77 80.7018 271.566 79.7255C270.431 78.8207 268.998 77.9285 267.293 77.0733C267.029 76.9407 266.938 76.6347 267.061 76.3832C267.195 76.1333 267.507 76.0326 267.763 76.1538C269.534 77.0397 271.031 77.9724 272.219 78.9259C273.46 79.9216 274.782 81.2168 276.19 82.5968L276.225 82.6304L276.305 82.7095C279.06 85.3997 282.134 88.4024 284.647 89.0162C284.68 88.5724 284.696 88.1339 284.696 87.7018C284.7 83.8847 283.408 81.0458 281.051 79.6946C280.799 79.5538 280.719 79.2395 280.862 78.9912C281.016 78.7445 281.335 78.665 281.577 78.8041C284.259 80.3481 285.732 83.5072 285.728 87.6959C285.728 88.1711 285.709 88.653 285.672 89.1405C286.748 89.1643 287.742 88.9088 288.642 88.3934C288.89 88.2522 289.214 88.334 289.357 88.5779C289.5 88.8218 289.416 89.1399 289.168 89.2811C288.082 89.9176 286.876 90.2134 285.567 90.1708C285.412 91.3904 285.146 92.6382 284.776 93.8951C286.11 94.8556 287.197 95.8486 287.97 96.8361C289.104 98.2934 289.502 99.7032 289.124 100.929C289.05 101.188 288.801 101.339 288.552 101.299L288.483 101.288C288.211 101.205 288.054 100.919 288.13 100.649C288.48 99.5298 287.786 98.3037 287.138 97.4768C286.477 96.6286 285.563 95.7742 284.444 94.9403C284.024 96.1751 283.506 97.4136 282.893 98.6374C285.149 99.8888 286.01 102.19 285.383 105.313C285.372 105.38 285.347 105.442 285.312 105.496C288.299 107.541 289.923 109.845 289.561 112.019C289.075 114.936 285.122 116.954 279.447 117.674C273.741 122.577 269.52 129.215 267.721 136.94C267.801 136.028 267.903 135.11 268.057 134.191C269.077 128.073 271.602 122.564 275.194 117.96C272.516 117.998 269.607 117.79 266.596 117.309L266.504 117.294C264.989 120.134 263.9 123.253 263.343 126.595C262.701 130.45 262.823 134.247 263.59 137.846C260.864 132.347 259.78 125.995 260.863 119.497C261.047 118.392 261.293 117.316 261.592 116.261C259.042 115.593 256.707 114.764 254.675 113.827C254.091 120.008 255.578 125.96 258.602 130.981C254.131 125.872 251.529 119.237 251.585 112.176C249.953 111.16 248.658 110.07 247.782 108.956C251.401 111.182 256.525 113.016 262.349 113.947C274.267 115.853 284.629 113.26 285.481 108.152C285.619 107.324 285.503 106.486 285.157 105.649C285.053 105.714 284.925 105.742 284.794 105.721L284.774 105.718C284.488 105.662 284.308 105.392 284.364 105.12C284.894 102.459 284.232 100.589 282.413 99.5574C282.206 99.9389 281.99 100.318 281.764 100.696C279.84 103.918 276.119 107.471 273.129 109.694C276.994 110.16 280.572 110.1 283.529 109.578C279.573 111.879 271.72 112.342 263.152 110.419C251.583 107.826 243.098 101.858 244.209 97.093C244.722 94.8743 247.238 93.3075 250.949 92.5344C250.156 93.2516 249.62 94.0801 249.403 95.01C248.225 100.056 256.691 106.262 268.32 108.865C269.537 109.137 270.74 109.359 271.921 109.532C271.929 109.385 272 109.243 272.129 109.151C275.087 107.022 278.933 103.418 280.871 100.181C281.075 99.8384 281.271 99.494 281.46 99.1479C278.859 98.3811 274.269 99.4101 270.16 100.331L270.043 100.357C268.218 100.766 266.498 101.15 265.017 101.374C259.852 102.128 253.513 100.634 253.197 100.559L253.193 100.558C252.908 100.493 252.74 100.215 252.807 99.9339C252.875 99.6533 253.167 99.4891 253.442 99.5532C253.446 99.5537 253.463 99.5575 253.493 99.5643C254.105 99.7017 260.105 101.049 264.862 100.344C266.296 100.131 268.012 99.7528 269.826 99.3395L269.93 99.3164C274.246 98.3531 279.075 97.2755 281.947 98.2181C282.596 96.9253 283.137 95.6166 283.563 94.3158C280.751 92.4193 276.915 90.6683 272.648 89.3932C265.891 87.3787 259.236 86.9577 255.683 88.3184C254.429 88.8011 253.655 89.4611 253.406 90.2852C253.319 90.5626 253.028 90.717 252.757 90.6236C252.476 90.5384 252.329 90.2537 252.405 89.9845C252.76 88.8356 253.733 87.9564 255.303 87.3535C259.118 85.8939 265.879 86.2916 272.947 88.3962C277.172 89.6535 280.994 91.3837 283.878 93.2783C284.185 92.1842 284.409 91.1003 284.544 90.0411Z" fill="white"/>
</svg>
