<svg width="50" height="50" viewBox="0 0 50 50" fill="none" xmlns="http://www.w3.org/2000/svg">
<g clip-path="url(#clip0)">
<path d="M50 26.5097V24.7581H48.7266C47.7177 24.7581 46.7194 25.0049 45.8145 25.4444C46.429 24.5952 46.7742 23.5662 46.7742 22.4855C46.7742 21.1355 46.2492 19.867 45.2944 18.9121L43.5484 17.1662L41.8024 18.9121C40.8476 19.867 40.3226 21.1355 40.3226 22.4855C40.3226 22.7799 40.3565 23.0678 40.4065 23.3517C39.9379 23.2194 39.4532 23.1452 38.9597 23.1452H37.0968V24.8968C37.0968 25.5573 37.2073 26.2113 37.4097 26.8355L37.3194 26.7904L36.7226 29.7758C36.5758 30.5105 36.5387 31.2557 36.5992 31.992L36.2903 31.6823L34.6677 33.3049C33.7806 34.192 33.2387 35.3299 33.1016 36.5589L32.2581 35.7146L30.7218 37.2508C29.6484 38.3242 29.0323 39.8105 29.0323 41.3291C29.0323 42.2194 29.2427 43.1105 29.6411 43.9081L30.4113 45.4484C28.6742 46.2686 26.8621 46.9057 25 47.3533C23.1379 46.9057 21.3266 46.2686 19.5887 45.4484L20.3589 43.9081C20.7573 43.1105 20.9677 42.2186 20.9677 41.3291C20.9677 39.8105 20.3516 38.3242 19.2782 37.2508L17.7419 35.7146L16.8984 36.5581C16.7613 35.3291 16.2194 34.1912 15.3323 33.3041L13.7097 31.6823L13.4008 31.9912C13.4621 31.2549 13.4242 30.5105 13.2774 29.775L12.6806 26.7896L12.5903 26.8347C12.7927 26.2113 12.9032 25.5573 12.9032 24.8968V23.1452H11.0403C10.5468 23.1452 10.0613 23.2194 9.59355 23.3517C9.64355 23.0678 9.67742 22.7791 9.67742 22.4855C9.67742 21.1355 9.15242 19.867 8.19758 18.9121L6.45161 17.1662L4.70565 18.9121C3.75081 19.867 3.22581 21.1355 3.22581 22.4855C3.22581 23.5662 3.57097 24.5952 4.18548 25.4444C3.28065 25.0049 2.28226 24.7581 1.27339 24.7581H0V26.5097C0 28.171 0.674194 29.7984 1.84919 30.9734C1.93226 31.0565 2.02258 31.1315 2.11048 31.2097H1.6129V33.5315C1.6129 34.85 2.12661 36.0896 3.05887 37.0218C3.60645 37.5694 4.2621 37.9678 4.97581 38.2073L2.86129 38.7355L3.58306 40.1799C3.97581 40.9662 4.49113 41.6799 5.1121 42.3017C6.25565 43.4452 7.69758 44.217 9.28387 44.5347L9.4879 44.5759C9.45161 44.6259 9.41048 44.671 9.37661 44.7226L8.55807 45.95L9.97097 46.892C11.2024 47.7113 12.6339 48.1452 14.1129 48.1452C15.5919 48.1452 17.0234 47.7113 18.254 46.8912L18.5121 46.7186C19.4629 47.1847 20.4298 47.6097 21.4218 47.9702C20.4371 48.0758 19.4468 48.1452 18.45 48.1452H15.3226V49.7581H18.45C20.6661 49.7581 22.8605 49.4984 25 49.0137C27.1395 49.4984 29.3339 49.7581 31.55 49.7581H34.6774V48.1452H31.55C30.5532 48.1452 29.5629 48.0758 28.5782 47.971C29.5694 47.6105 30.5371 47.1855 31.4871 46.7194L31.7452 46.892C32.9766 47.7113 34.4081 48.1452 35.8871 48.1452C37.3661 48.1452 38.7976 47.7113 40.0282 46.8912L41.4411 45.9492L40.6226 44.7218C40.5879 44.6702 40.5468 44.625 40.5113 44.575L40.7153 44.5339C42.3016 44.2162 43.7435 43.4444 44.8871 42.3008C45.5089 41.6791 46.0234 40.9654 46.4161 40.1791L47.1387 38.7347L45.0242 38.2065C45.7379 37.967 46.3927 37.5686 46.9411 37.021C47.8734 36.0896 48.3871 34.85 48.3871 33.5315V31.2097H47.8895C47.9774 31.1315 48.0677 31.0565 48.1508 30.9734C49.3258 29.7984 50 28.171 50 26.5097ZM13.2274 34.4444L13.7097 33.9629L14.1919 34.4452C14.921 35.1742 15.3226 36.1436 15.3226 37.175C15.3226 37.8734 15.1331 38.5605 14.7726 39.1605L13.7097 40.9331L12.6468 39.1621C12.2863 38.5605 12.0968 37.8742 12.0968 37.175C12.0968 36.1436 12.4984 35.1742 13.2274 34.4444ZM11.696 30.092C11.9379 31.3008 11.8234 32.5444 11.3653 33.6888C10.9774 34.6589 10.3556 35.4976 9.56532 36.1646C9.35 35.7549 9.15403 35.3379 8.96774 34.917C8.90887 34.7613 8.83629 34.6121 8.76371 34.4629C8.75968 34.4541 8.75726 34.4444 8.75403 34.4355H8.87097V33.5242C8.87097 33.1259 8.91935 32.7267 9.01694 32.3363C9.35887 30.9718 10.2669 29.8242 11.5137 29.1783L11.696 30.092ZM10.5258 37.7887C10.4782 37.7154 10.4258 37.6436 10.379 37.5694C10.421 37.5363 10.4629 37.5049 10.504 37.4718C10.5097 37.5783 10.5137 37.6839 10.5258 37.7887ZM8.99113 25.3791C9.59919 24.9726 10.3081 24.7581 11.0403 24.7581H11.2903V24.8968C11.2903 26.1339 10.7887 27.3452 9.91371 28.2202C9.28952 28.8444 8.49274 29.2742 7.63871 29.4718C7.55806 29.2097 7.46694 28.9525 7.35565 28.7041C7.33307 28.4629 7.31774 28.2202 7.30403 27.9775L7.53468 27.2855C7.79355 26.5089 8.31048 25.8315 8.99113 25.3791ZM7.73468 31.0992C7.73306 31.1033 7.73065 31.1065 7.72984 31.1097C7.72903 31.1065 7.72823 31.1033 7.72823 31.1C7.73065 31.1 7.73226 31.0992 7.73468 31.0992ZM5.84597 20.0525L6.45161 19.4468L7.05726 20.0525C7.69758 20.6928 8.06452 21.5799 8.06452 22.4855C8.06452 23.6388 7.49194 24.7089 6.53306 25.3484L6.45161 25.4025L6.37016 25.3484C5.41129 24.7081 4.83871 23.6379 4.83871 22.4855C4.83871 21.5799 5.20565 20.6928 5.84597 20.0525ZM2.98952 29.8331C2.11452 28.9581 1.6129 27.7468 1.6129 26.5097V26.3831C2.58145 26.4492 3.52581 26.7984 4.30403 27.3815C4.94032 27.8581 5.44032 28.4863 5.79032 29.1928C5.86371 29.8686 5.96855 30.5371 6.10403 31.1992C4.94032 31.146 3.81532 30.6589 2.98952 29.8331ZM4.19919 35.8815C3.58065 35.2621 3.22581 34.4065 3.22581 33.5315V32.8226H3.59435C4.70161 32.8226 5.74194 33.2533 6.525 34.0363C6.82661 34.3379 7.07177 34.6863 7.26694 35.0621C7.33145 35.2194 7.40726 35.3726 7.475 35.5291C7.52742 35.671 7.57823 35.8138 7.61452 35.9613L7.8379 36.8549H6.54919C5.67419 36.8549 4.81774 36.5 4.19919 35.8815ZM9.60161 42.9525C8.32823 42.6984 7.17097 42.0791 6.25323 41.1613C5.84839 40.7565 5.5 40.3041 5.21532 39.8097L5.92339 39.6323C6.79758 39.4146 7.71936 39.4146 8.59355 39.6323C9.32419 39.8146 10.0073 40.146 10.6016 40.6008C11.1839 41.3121 11.7976 41.9936 12.4613 42.6218C11.9266 42.7388 11.4202 42.9436 10.9565 43.2234L9.60161 42.9525ZM10.8669 45.5492L10.7984 45.5033C11.4323 44.6307 12.4427 44.1129 13.5282 44.1129C13.8 44.1129 14.0718 44.1484 14.3355 44.2138C14.875 44.6194 15.4323 45.0041 16.0121 45.3605C16.2855 45.5291 16.5694 45.6767 16.8476 45.8355C14.9815 46.8121 12.6323 46.7258 10.8669 45.5492ZM18.9161 43.1871L18.1492 44.7218C17.9452 44.6105 17.7444 44.4928 17.5427 44.3767L16.7492 43.1863C16.3435 42.5775 16.129 41.8694 16.129 41.1379C16.129 40.1517 16.5137 39.225 17.2105 38.5275L17.7419 37.9952L18.1379 38.3912C18.9113 39.1646 19.3548 40.2347 19.3548 41.3291C19.3548 41.9702 19.2024 42.6129 18.9161 43.1871ZM42.9427 20.0525L43.5484 19.4468L44.154 20.0525C44.7944 20.6928 45.1613 21.5799 45.1613 22.4855C45.1613 23.6388 44.5887 24.7089 43.6298 25.3484L43.5484 25.4025L43.4669 25.3484C42.5081 24.7081 41.9355 23.6379 41.9355 22.4855C41.9355 21.5799 42.3024 20.6928 42.9427 20.0525ZM38.7097 24.7581H38.9597C39.6919 24.7581 40.4008 24.9726 41.0097 25.3791C41.6903 25.8323 42.2065 26.5089 42.4661 27.2855L42.6968 27.9775C42.6831 28.2202 42.6677 28.4629 42.6452 28.7041C42.5339 28.9525 42.4419 29.2105 42.3621 29.4718C41.5081 29.2742 40.7113 28.8444 40.0871 28.2202C39.2113 27.3452 38.7097 26.1339 38.7097 24.8968V24.7581ZM42.2726 31.1008C42.2718 31.1041 42.271 31.1073 42.271 31.1113C42.2694 31.1073 42.2677 31.1041 42.2661 31.1C42.2661 31.1 42.2702 31.1 42.2726 31.1008ZM38.304 30.092L38.4863 29.1783C39.7331 29.8242 40.6411 30.9718 40.9823 32.3355C41.0798 32.7267 41.129 33.1259 41.129 33.5242V34.4355H41.246C41.2419 34.4444 41.2395 34.4541 41.2363 34.4629C41.1637 34.6121 41.0911 34.7613 41.0323 34.917C40.8468 35.3388 40.65 35.7557 40.4347 36.1646C39.6444 35.4976 39.0226 34.6589 38.6347 33.6879C38.1766 32.5444 38.0621 31.3008 38.304 30.092ZM39.621 37.5702C39.5742 37.6444 39.5226 37.7154 39.4742 37.7896C39.4863 37.6847 39.4895 37.5791 39.496 37.4726C39.5371 37.5057 39.5798 37.5371 39.621 37.5702ZM35.8081 34.4452L36.2903 33.9629L36.7726 34.4452C37.5016 35.1742 37.9032 36.1436 37.9032 37.175C37.9032 37.8734 37.7137 38.5605 37.3532 39.1605L36.2903 40.9331L35.2274 39.1621C34.8669 38.5605 34.6774 37.8742 34.6774 37.175C34.6774 36.1436 35.079 35.1742 35.8081 34.4452ZM31.8508 44.7218L31.0839 43.1871C30.7968 42.6129 30.6452 41.9702 30.6452 41.3291C30.6452 40.2347 31.0887 39.1646 31.8621 38.3912L32.2581 37.9952L32.7895 38.5267C33.4863 39.2242 33.871 40.1517 33.871 41.1379C33.871 41.8694 33.6565 42.5775 33.2508 43.1863L32.4573 44.3767C32.2556 44.4928 32.0548 44.6105 31.8508 44.7218ZM39.1331 45.5492C37.3669 46.7258 35.0177 46.8121 33.1516 45.8355C33.4298 45.6767 33.7137 45.5291 33.9871 45.3605C34.5669 45.0041 35.1242 44.6186 35.6637 44.2138C35.9282 44.1484 36.2 44.1129 36.4718 44.1129C37.5581 44.1129 38.5686 44.6307 39.2024 45.5041L39.1331 45.5492ZM43.7468 41.1613C42.829 42.0791 41.6718 42.6984 40.3992 42.9533L39.0444 43.2242C38.5806 42.9444 38.0742 42.7396 37.5395 42.6226C38.2032 41.9944 38.8161 41.3129 39.3992 40.6017C39.9935 40.1468 40.6766 39.8154 41.4073 39.6331C42.2815 39.4154 43.2032 39.4154 44.0774 39.6331L44.7855 39.8105C44.5 40.3033 44.1516 40.7565 43.7468 41.1613ZM46.7742 33.5315C46.7742 34.4065 46.4194 35.2621 45.8008 35.8815C45.1814 36.5 44.3258 36.8549 43.4508 36.8549H42.1621L42.3847 35.9613C42.4218 35.8138 42.4718 35.671 42.5242 35.5291C42.5927 35.3726 42.6677 35.2202 42.7323 35.0621C42.9274 34.6871 43.1726 34.3379 43.4742 34.0363C44.2581 33.2533 45.2984 32.8226 46.4056 32.8226H46.7742V33.5315ZM47.0105 29.8331C46.1847 30.6589 45.0597 31.146 43.896 31.1992C44.0315 30.5379 44.1363 29.8686 44.2097 29.1928C44.5589 28.4863 45.0597 27.8581 45.6968 27.3815C46.4742 26.7976 47.4185 26.4492 48.3871 26.3831V26.5097C48.3871 27.7468 47.8855 28.9581 47.0105 29.8331Z" fill="white"/>
<path d="M12.2879 18.3065L14.696 16.9605C17.8403 15.2024 21.404 14.2742 25 14.2742C28.596 14.2742 32.1597 15.2024 35.3032 16.9605L37.7121 18.3065H39.3549L42.2008 6.85403L35.9799 7.74758L33.3879 2.53306L29.2589 5.85645L25 0L20.7411 5.85726L16.6121 2.53387L14.0202 7.74839L7.79921 6.85484L10.6452 18.3065H12.2879ZM14.9444 9.51048L17.1629 5.04758L21.0492 8.17581L25 2.74194L28.95 8.175L32.8363 5.04677L35.0549 9.50968L40.0565 8.79032L38.0968 16.6734L36.0903 15.5508C32.7065 13.6605 28.871 12.6613 25 12.6613C21.129 12.6613 17.2936 13.6605 13.9089 15.5524L11.9024 16.675L9.94276 8.79194L14.9444 9.51048Z" fill="white"/>
<path d="M22.254 28H19.9531V24.448H19.8922L19.174 28H17.0435L16.3374 24.448H16.2765V28H14L14.2922 20.548H17.5305L18.1026 23.92H18.2122L18.7722 20.548H21.974L22.254 28Z" fill="white"/>
<path d="M29.5816 20.548L28.1207 28H24.3833L22.8372 20.548H25.6494L26.2338 25.12H26.3799L26.9033 20.548H29.5816Z" fill="white"/>
<path d="M33.273 25.672H32.7495V28H30.193V20.548H33.1391C34.1374 20.548 34.8638 20.748 35.3183 21.148C35.7728 21.548 36 22.208 36 23.128C36 24.048 35.7809 24.704 35.3426 25.096C34.9043 25.48 34.2145 25.672 33.273 25.672ZM33.3948 23.932C33.4678 23.804 33.5043 23.588 33.5043 23.284C33.5043 22.98 33.4637 22.764 33.3826 22.636C33.3095 22.508 33.1675 22.444 32.9565 22.444H32.7008V24.124H33.0174C33.204 24.124 33.3298 24.06 33.3948 23.932Z" fill="white"/>
<path d="M27.9315 8.11558C27.8928 8.07443 27.8417 8.04801 27.7864 8.04056L26.0117 7.77675L25.2226 6.12796C25.1492 6.00309 24.9908 5.96269 24.8687 6.03771C24.8325 6.05997 24.8022 6.09094 24.7805 6.12796L23.9883 7.77047L22.2136 8.03428C22.0792 8.05237 21.9844 8.17854 22.0021 8.31614C22.0094 8.37267 22.0352 8.425 22.0755 8.46453L23.3589 9.74273L23.0519 11.5485C23.0299 11.6872 23.1219 11.8179 23.2575 11.8404C23.31 11.8491 23.3638 11.8404 23.4111 11.8155L25.0016 10.9675L26.5889 11.8218C26.7111 11.886 26.861 11.8369 26.9238 11.7119C26.9481 11.6635 26.9567 11.6085 26.9482 11.5548L26.6411 9.74901L27.9246 8.47081C28.0224 8.37467 28.0255 8.21564 27.9315 8.11558ZM26.2051 9.47579C26.1475 9.53393 26.1212 9.61711 26.1345 9.69876L26.374 11.1309L25.1152 10.4556C25.043 10.4171 24.957 10.4171 24.8849 10.4556L23.626 11.1309L23.8655 9.69876C23.8788 9.61711 23.8525 9.53393 23.7949 9.47579L22.7786 8.46139L24.1848 8.25411C24.2657 8.2423 24.3357 8.19063 24.3721 8.11593L24.9862 6.8126L25.6003 8.11593C25.6367 8.19063 25.7067 8.2423 25.7876 8.25411L27.1938 8.46139L26.2051 9.47579Z" fill="white"/>
<path d="M21.4645 31.4645C20.5201 32.4088 20 33.6645 20 35C20 36.3355 20.5201 37.5912 21.4645 38.5355C22.4088 39.4799 23.6645 40 25 40C26.3355 40 27.5912 39.4799 28.5355 38.5355C29.4799 37.5912 30 36.3355 30 35C30 33.6645 29.4799 32.4088 28.5355 31.4645C27.5912 30.5201 26.3355 30 25 30C23.6645 30 22.4088 30.5201 21.4645 31.4645ZM29.7004 35.1485C29.6634 36.3491 29.1787 37.4724 28.3255 38.3255C28.3227 38.3283 28.3198 38.331 28.317 38.3338C27.9003 37.9197 27.5689 37.4387 27.3312 36.9019C27.0855 36.3468 26.9521 35.7576 26.9334 35.1486L29.7004 35.1485ZM24.8515 35.1485V37.9504H25.1485V35.1485H26.6362C26.6549 35.7993 26.797 36.4289 27.0596 37.0221C27.3109 37.5896 27.6606 38.0983 28.0998 38.5367C27.2788 39.2583 26.246 39.6666 25.1485 39.7004V38.3465H24.8515V39.7004C23.754 39.6666 22.7212 39.2584 21.9002 38.5367C22.3394 38.0983 22.6891 37.5896 22.9403 37.0221C23.2029 36.4289 23.345 35.7993 23.3638 35.1485H24.8515ZM23.0666 35.1485C23.0479 35.7576 22.9145 36.3468 22.6688 36.9018C22.4311 37.4387 22.0997 37.9198 21.683 38.3338C21.6802 38.331 21.6773 38.3283 21.6745 38.3255C20.8213 37.4723 20.3366 36.349 20.2996 35.1485L23.0666 35.1485ZM20.2996 34.8515C20.3366 33.651 20.8213 32.5277 21.6745 31.6745C21.6773 31.6717 21.6802 31.669 21.683 31.6662C22.0997 32.0802 22.4311 32.5613 22.6688 33.0981C22.9145 33.6532 23.0479 34.2424 23.0666 34.8515L20.2996 34.8515ZM24.8515 34.8515H23.3638C23.3451 34.2007 23.203 33.5711 22.9404 32.9779C22.6891 32.4104 22.3394 31.9017 21.9002 31.4633C22.7212 30.7417 23.754 30.3334 24.8515 30.2996L24.8515 34.8515ZM28.3255 31.6745C29.1787 32.5277 29.6634 33.651 29.7004 34.8515H26.9334C26.9521 34.2424 27.0855 33.6532 27.3312 33.0982C27.5689 32.5613 27.9003 32.0803 28.3169 31.6662C28.3198 31.669 28.3227 31.6717 28.3255 31.6745ZM27.0596 32.9779C26.797 33.5711 26.6549 34.2007 26.6362 34.8515H25.1485V30.2996C26.246 30.3335 27.2788 30.7417 28.0998 31.4633C27.6605 31.9017 27.3109 32.4104 27.0596 32.9779Z" fill="white"/>
<path d="M32.9772 11.7233C32.9643 11.7092 32.9472 11.7002 32.9288 11.6976L32.3372 11.6074L32.0742 11.0437C32.0497 11.0011 31.9969 10.9872 31.9562 11.0129C31.9442 11.0205 31.9341 11.0311 31.9268 11.0437L31.6628 11.6053L31.0712 11.6955C31.0264 11.7017 30.9948 11.7448 31.0007 11.7918C31.0031 11.8112 31.0117 11.8291 31.0252 11.8426L31.453 12.2796L31.3506 12.8969C31.3433 12.9444 31.374 12.989 31.4192 12.9967C31.4367 12.9997 31.4546 12.9967 31.4704 12.9882L32.0005 12.6983L32.5296 12.9904C32.5704 13.0123 32.6203 12.9955 32.6413 12.9528C32.6494 12.9362 32.6522 12.9174 32.6494 12.8991L32.547 12.2817L32.9749 11.8447C33.0075 11.8119 33.0085 11.7575 32.9772 11.7233ZM32.4017 12.1883C32.3825 12.2082 32.3737 12.2366 32.3782 12.2645L32.458 12.7541L32.0384 12.5233C32.0143 12.5101 31.9857 12.5101 31.9616 12.5233L31.542 12.7541L31.6218 12.2645C31.6263 12.2366 31.6175 12.2082 31.5983 12.1883L31.2595 11.8415L31.7283 11.7706C31.7552 11.7666 31.7786 11.7489 31.7907 11.7234L31.9954 11.2778L32.2001 11.7234C32.2122 11.7489 32.2356 11.7666 32.2625 11.7706L32.7313 11.8415L32.4017 12.1883Z" fill="white"/>
<path d="M17.0228 11.7233C17.0357 11.7092 17.0528 11.7002 17.0712 11.6976L17.6628 11.6074L17.9258 11.0437C17.9503 11.0011 18.0031 10.9872 18.0438 11.0129C18.0558 11.0205 18.0659 11.0311 18.0732 11.0437L18.3372 11.6053L18.9288 11.6955C18.9736 11.7017 19.0052 11.7448 18.9993 11.7918C18.9969 11.8112 18.9883 11.8291 18.9748 11.8426L18.547 12.2796L18.6494 12.8969C18.6567 12.9444 18.626 12.989 18.5808 12.9967C18.5633 12.9997 18.5454 12.9967 18.5296 12.9882L17.9995 12.6983L17.4704 12.9904C17.4296 13.0123 17.3797 12.9955 17.3587 12.9528C17.3506 12.9362 17.3478 12.9174 17.3506 12.8991L17.453 12.2817L17.0251 11.8447C16.9925 11.8119 16.9915 11.7575 17.0228 11.7233ZM17.5983 12.1883C17.6175 12.2082 17.6263 12.2366 17.6218 12.2645L17.542 12.7541L17.9616 12.5233C17.9857 12.5101 18.0143 12.5101 18.0384 12.5233L18.458 12.7541L18.3782 12.2645C18.3737 12.2366 18.3825 12.2082 18.4017 12.1883L18.7405 11.8415L18.2717 11.7706C18.2448 11.7666 18.2214 11.7489 18.2093 11.7234L18.0046 11.2778L17.7999 11.7234C17.7878 11.7489 17.7644 11.7666 17.7375 11.7706L17.2687 11.8415L17.5983 12.1883Z" fill="white"/>
<path d="M37.9772 13.7233C37.9643 13.7092 37.9472 13.7002 37.9288 13.6976L37.3372 13.6074L37.0742 13.0437C37.0497 13.0011 36.9969 12.9872 36.9562 13.0129C36.9442 13.0205 36.9341 13.0311 36.9268 13.0437L36.6628 13.6053L36.0712 13.6955C36.0264 13.7017 35.9948 13.7448 36.0007 13.7918C36.0031 13.8112 36.0117 13.8291 36.0252 13.8426L36.453 14.2796L36.3506 14.8969C36.3433 14.9444 36.374 14.989 36.4192 14.9967C36.4367 14.9997 36.4546 14.9967 36.4704 14.9882L37.0005 14.6983L37.5296 14.9904C37.5704 15.0123 37.6203 14.9955 37.6413 14.9528C37.6494 14.9362 37.6522 14.9174 37.6494 14.8991L37.547 14.2817L37.9749 13.8447C38.0075 13.8119 38.0085 13.7575 37.9772 13.7233ZM37.4017 14.1883C37.3825 14.2082 37.3737 14.2366 37.3782 14.2645L37.458 14.7541L37.0384 14.5233C37.0143 14.5101 36.9857 14.5101 36.9616 14.5233L36.542 14.7541L36.6218 14.2645C36.6263 14.2366 36.6175 14.2082 36.5983 14.1883L36.2595 13.8415L36.7283 13.7706C36.7552 13.7666 36.7786 13.7489 36.7907 13.7234L36.9954 13.2778L37.2001 13.7234C37.2122 13.7489 37.2356 13.7666 37.2625 13.7706L37.7313 13.8415L37.4017 14.1883Z" fill="white"/>
<path d="M12.0228 13.7233C12.0357 13.7092 12.0528 13.7002 12.0712 13.6976L12.6628 13.6074L12.9258 13.0437C12.9503 13.0011 13.0031 12.9872 13.0438 13.0129C13.0558 13.0205 13.0659 13.0311 13.0732 13.0437L13.3372 13.6053L13.9288 13.6955C13.9736 13.7017 14.0052 13.7448 13.9993 13.7918C13.9969 13.8112 13.9883 13.8291 13.9748 13.8426L13.547 14.2796L13.6494 14.8969C13.6567 14.9444 13.626 14.989 13.5808 14.9967C13.5633 14.9997 13.5454 14.9967 13.5296 14.9882L12.9995 14.6983L12.4704 14.9904C12.4296 15.0123 12.3797 14.9955 12.3587 14.9528C12.3506 14.9362 12.3478 14.9174 12.3506 14.8991L12.453 14.2817L12.0251 13.8447C11.9925 13.8119 11.9915 13.7575 12.0228 13.7233ZM12.5983 14.1883C12.6175 14.2082 12.6263 14.2366 12.6218 14.2645L12.542 14.7541L12.9616 14.5233C12.9857 14.5101 13.0143 14.5101 13.0384 14.5233L13.458 14.7541L13.3782 14.2645C13.3737 14.2366 13.3825 14.2082 13.4017 14.1883L13.7405 13.8415L13.2717 13.7706C13.2448 13.7666 13.2214 13.7489 13.2093 13.7234L13.0046 13.2778L12.7999 13.7234C12.7878 13.7489 12.7644 13.7666 12.7375 13.7706L12.2687 13.8415L12.5983 14.1883Z" fill="white"/>
</g>
<defs>
<clipPath id="clip0">
<rect width="50" height="50" fill="white"/>
</clipPath>
</defs>
</svg>
