<svg width="182" height="86" viewBox="0 0 182 86" fill="none" xmlns="http://www.w3.org/2000/svg">
<path fill-rule="evenodd" clip-rule="evenodd" d="M32.5956 81.7191C30.1757 81.9908 28.9658 82.1267 27.9667 81.8409C26.6346 81.4599 25.5093 80.5684 24.8384 79.3626C24.3353 78.4583 24.1986 77.2556 23.9252 74.8501L21.402 52.6508C21.1286 50.2454 20.9919 49.0426 21.2794 48.0495C21.6627 46.7253 22.5595 45.6067 23.7725 44.9398C24.6823 44.4397 25.8922 44.3038 28.3121 44.032L163.343 28.8662C165.763 28.5945 166.973 28.4586 167.972 28.7444C169.304 29.1254 170.429 30.0169 171.1 31.2227C171.603 32.127 171.74 33.3297 172.014 35.7352L174.537 57.9345C174.81 60.3399 174.947 61.5427 174.659 62.5358C174.276 63.86 173.379 64.9786 172.166 65.6455C171.256 66.1456 170.047 66.2815 167.627 66.5533L32.5956 81.7191Z" fill="#FF9900"/>
<path fill-rule="evenodd" clip-rule="evenodd" d="M29.1968 77.9445C26.7995 78.37 25.6008 78.5828 24.5853 78.3613C23.2314 78.0659 22.0509 77.248 21.3036 76.0875C20.7431 75.2171 20.5291 74.0256 20.101 71.6425L16.1507 49.6498C15.7226 47.2667 15.5086 46.0752 15.7314 45.0657C16.0285 43.7198 16.8513 42.5464 18.0188 41.8035C18.8944 41.2464 20.0931 41.0336 22.4904 40.6081L156.265 16.8645C158.662 16.439 159.861 16.2262 160.876 16.4477C162.23 16.743 163.411 17.5609 164.158 18.7215C164.719 19.5919 164.933 20.7834 165.361 23.1665L169.311 45.1592C169.739 47.5423 169.953 48.7338 169.73 49.7432C169.433 51.0891 168.61 52.2626 167.443 53.0054C166.567 53.5626 165.369 53.7753 162.971 54.2008L29.1968 77.9445Z" fill="#146EB4"/>
<g filter="url(#filter0_dd)">
<path d="M165.258 53.4286C163.625 53.0785 161.821 51.3222 160.073 49.618C159.275 48.838 158.515 48.1042 157.825 47.5477C157.175 47.0318 156.354 46.5232 155.378 46.0356C155.227 45.96 155.174 45.7856 155.245 45.6422C155.321 45.4997 155.501 45.4423 155.647 45.5114C156.661 46.0165 157.519 46.5482 158.199 47.0918C158.91 47.6594 159.667 48.3978 160.474 49.1846L160.493 49.2038L160.54 49.2488C162.117 50.7825 163.878 52.4943 165.317 52.8443C165.336 52.5913 165.345 52.3413 165.345 52.0949C165.347 49.9188 164.607 48.3004 163.258 47.53C163.113 47.4497 163.067 47.2706 163.15 47.129C163.237 46.9884 163.42 46.943 163.559 47.0224C165.095 47.9026 165.939 49.7036 165.936 52.0916C165.936 52.3625 165.926 52.6372 165.904 52.9152C166.521 52.9287 167.09 52.783 167.606 52.4892C167.748 52.4087 167.933 52.4554 168.015 52.5944C168.097 52.7334 168.049 52.9148 167.907 52.9953C167.284 53.3582 166.594 53.5268 165.844 53.5025C165.755 54.1978 165.603 54.9092 165.391 55.6258C166.155 56.1733 166.777 56.7395 167.22 57.3024C167.87 58.1333 168.098 58.937 167.881 59.6357C167.839 59.7836 167.696 59.8697 167.554 59.847L167.514 59.8407C167.358 59.793 167.269 59.6298 167.312 59.4763C167.512 58.8381 167.115 58.1391 166.744 57.6677C166.365 57.1841 165.842 56.697 165.201 56.2216C164.961 56.9256 164.663 57.6317 164.312 58.3294C165.605 59.0428 166.098 60.355 165.739 62.1351C165.732 62.1736 165.718 62.2088 165.698 62.2396C167.409 63.4054 168.339 64.7189 168.132 65.9582C167.853 67.6214 165.589 68.7717 162.339 69.1819C159.071 71.9772 156.653 75.7618 155.623 80.1657C155.669 79.6461 155.727 79.1227 155.815 78.5983C156.399 75.1106 157.846 71.9702 159.903 69.3455C158.369 69.3667 156.703 69.2485 154.978 68.974L154.926 68.9655C154.058 70.5846 153.435 72.3627 153.116 74.2678C152.747 76.4659 152.817 78.6306 153.257 80.6824C151.695 77.5471 151.075 73.9258 151.695 70.2215C151.801 69.5918 151.941 68.9779 152.113 68.3764C150.652 67.9958 149.315 67.5231 148.151 66.9891C147.816 70.5127 148.668 73.9061 150.4 76.7686C147.839 73.8561 146.349 70.0735 146.381 66.048C145.447 65.4686 144.705 64.8471 144.203 64.2121C146.276 65.4813 149.21 66.5267 152.546 67.0577C159.372 68.144 165.307 66.6657 165.795 63.7535C165.874 63.2816 165.807 62.8039 165.609 62.3266C165.55 62.3635 165.477 62.3798 165.402 62.3678L165.39 62.366C165.226 62.3342 165.123 62.1803 165.155 62.025C165.459 60.5081 165.08 59.442 164.038 58.8539C163.919 59.0713 163.795 59.2877 163.666 59.5027C162.564 61.34 160.433 63.3655 158.721 64.6327C160.934 64.8986 162.983 64.8641 164.677 64.5668C162.411 65.8787 157.913 66.1423 153.006 65.0463C146.38 63.568 141.52 60.1656 142.156 57.4489C142.45 56.184 143.891 55.2908 146.017 54.85C145.563 55.2589 145.256 55.7312 145.132 56.2614C144.457 59.1381 149.306 62.6762 155.966 64.1599C156.663 64.3151 157.352 64.4416 158.028 64.5405C158.033 64.4566 158.074 64.3757 158.148 64.3235C159.842 63.1096 162.044 61.0545 163.154 59.2093C163.271 59.0141 163.384 58.8177 163.492 58.6204C162.002 58.1833 159.373 58.7699 157.02 59.295L156.953 59.3099C155.907 59.5426 154.922 59.7619 154.074 59.8893C151.116 60.3196 147.485 59.4674 147.304 59.4249L147.302 59.4244C147.139 59.387 147.043 59.2285 147.081 59.0685C147.12 58.9085 147.287 58.8149 147.445 58.8515C147.447 58.8518 147.457 58.8539 147.474 58.8578C147.824 58.9361 151.261 59.7041 153.986 59.3024C154.807 59.1811 155.79 58.9652 156.829 58.7296L156.888 58.7165C159.36 58.1673 162.126 57.5529 163.771 58.0903C164.142 57.3533 164.452 56.6072 164.696 55.8656C163.086 54.7844 160.889 53.7861 158.445 53.0592C154.575 51.9107 150.763 51.6707 148.728 52.4465C148.01 52.7217 147.567 53.0979 147.424 53.5678C147.374 53.7259 147.207 53.8139 147.053 53.7607C146.891 53.7121 146.807 53.5498 146.851 53.3963C147.054 52.7413 147.611 52.2401 148.51 51.8964C150.696 51.0642 154.568 51.291 158.616 52.4908C161.036 53.2076 163.225 54.194 164.877 55.2741C165.053 54.6504 165.181 54.0325 165.258 53.4286Z" fill="white"/>
</g>
<path d="M32.6156 70.2376L31.8814 66.15C32.1501 66.1683 32.3931 66.1581 32.6101 66.1196C33.1246 66.0283 33.4227 65.794 33.5042 65.4166C33.5763 65.0328 33.4903 64.1616 33.2463 62.803L31.358 52.2902L29.8144 52.5641L29.0974 48.5724L38.5637 46.8922L39.2807 50.8839L37.8457 51.1386L39.6005 60.9083C39.9264 62.7224 40.1078 64.0096 40.1448 64.7699C40.1833 65.5382 40.0344 66.3027 39.6982 67.0633C39.3473 67.8348 38.8289 68.4586 38.143 68.935C37.457 69.4113 36.4508 69.7672 35.1243 70.0027C34.3606 70.1382 33.5244 70.2165 32.6156 70.2376Z" fill="white"/>
<path d="M42.0422 50.3938L40.7519 50.6228L40.0349 46.6311L48.6209 45.1071L49.3379 49.0989L48.542 49.2402L49.5519 54.8622C49.793 56.2048 50.086 57.097 50.4308 57.5388C50.7742 57.9726 51.2795 58.1303 51.9468 58.0119C52.5015 57.9134 52.8669 57.6383 53.0429 57.1865C53.2203 56.7427 53.1978 55.9014 52.9753 54.6627L51.8944 48.6451L51.0503 48.795L50.3333 44.8032L56.6402 43.6838L57.3572 47.6756L56.0307 47.911L57.1159 53.9526C57.3929 55.4949 57.3946 56.7976 57.121 57.8604C56.8459 58.9153 56.2353 59.8112 55.2892 60.5481C54.3432 61.285 53.1064 61.789 51.5789 62.0601C50.3489 62.2784 49.233 62.3239 48.2313 62.1966C47.2149 62.0802 46.3722 61.7762 45.7032 61.2847C45.0357 60.8012 44.4946 60.1674 44.08 59.3834C43.6617 58.6248 43.3026 57.4104 43.0025 55.7401L42.0422 50.3938Z" fill="white"/>
<path d="M67.8956 58.8919L61.3958 60.0456L60.6788 56.0538L61.9691 55.8248L60.4081 47.134L59.0816 47.3695L58.3646 43.3777L68.4821 41.582L72.1104 47.5804L73.4866 40.6937L83.5438 38.9087L84.2608 42.9004L82.9464 43.1337L84.5074 51.8245L85.858 51.5848L86.575 55.5765L77.8202 57.1304L77.1032 53.1387L78.4417 52.9011L76.7687 43.587L74.094 57.7918L71.5857 58.237L64.2007 45.9414L65.8521 55.1356L67.1786 54.9002L67.8956 58.8919Z" fill="white"/>
<path d="M94.4627 40.7433L95.0247 43.872L96.2909 43.6473C97.1752 43.4903 97.7997 43.2723 98.1644 42.9932C98.5129 42.7169 98.6334 42.2791 98.5257 41.6797C98.4554 41.2881 98.2913 40.975 98.0335 40.7404C97.7851 40.5124 97.4857 40.3923 97.1351 40.3803C96.8006 40.3655 96.2475 40.4266 95.4757 40.5636L94.4627 40.7433ZM98.4893 53.4619L88.6853 55.202L87.9683 51.2102L89.5963 50.9213L88.0353 42.2305L86.4073 42.5194L85.6903 38.5277L95.9766 36.702C98.3402 36.2824 100.11 36.2034 101.285 36.4649C102.461 36.7343 103.379 37.223 104.037 37.9308C104.695 38.6386 105.109 39.468 105.28 40.419C105.491 41.5938 105.361 42.623 104.889 43.5066C104.419 44.3982 103.713 45.109 102.771 45.639C101.844 46.1581 100.347 46.6011 98.281 46.9678L95.6642 47.4322L96.0841 49.7698L97.7723 49.4701L98.4893 53.4619Z" fill="white"/>
<path d="M115.717 43.2422L116.307 46.5267L117.766 46.2678C118.699 46.1022 119.348 45.8632 119.715 45.5507C120.074 45.2396 120.199 44.7804 120.09 44.173C119.988 43.6056 119.732 43.2182 119.321 43.0107C118.912 42.8112 118.189 42.8034 117.152 42.9875L115.717 43.2422ZM114.625 37.1647L115.172 40.2094L116.607 39.9547C117.58 39.7821 118.194 39.5288 118.449 39.1949C118.688 38.8638 118.767 38.4705 118.685 38.015C118.615 37.6234 118.419 37.2953 118.098 37.0307C117.777 36.7662 117.021 36.7395 115.831 36.9506L114.625 37.1647ZM118.507 49.9089L109.017 51.5933L108.3 47.6016L109.759 47.3426L108.198 38.6518L106.739 38.9108L106.022 34.919L116.272 33.0997C118.282 32.743 119.858 32.5828 121.001 32.6191C122.13 32.6662 123.067 32.9904 123.814 33.5918C124.564 34.2091 125.025 35.0013 125.199 35.9683C125.368 36.9113 125.21 37.7146 124.723 38.3781C124.224 39.0605 123.564 39.59 122.744 39.9664C123.989 40.1083 124.995 40.4905 125.762 41.113C126.54 41.75 127.013 42.536 127.181 43.471C127.382 44.5899 127.191 45.6051 126.608 46.5167C126.024 47.4203 125.122 48.1039 123.903 48.5677C122.702 49.0366 120.903 49.4837 118.507 49.9089Z" fill="white"/>
<path d="M134.795 34.1785L134.044 39.074L137.047 38.5411L134.795 34.1785ZM135.45 46.9017L128.806 48.081L128.089 44.0893L129.367 43.8624L130.953 34.613L129.603 34.8527L128.886 30.8609L140.945 28.7206L141.662 32.7123L140.311 32.9521L145.08 41.0735L146.31 40.8552L147.027 44.847L138.272 46.4009L137.615 42.7447L139.086 42.4836L138.071 40.4993L133.778 41.2612L133.419 43.4896L134.793 43.2456L135.45 46.9017Z" fill="white"/>
<path d="M164.139 41.8098L148.172 44.6436L147.455 40.6519L148.963 40.3843L147.402 31.6935L145.894 31.9611L145.177 27.9693L154.764 26.2677L155.481 30.2595L153.889 30.542L155.451 39.2328L159.418 38.5286L158.938 35.8555L162.941 35.1449L164.139 41.8098Z" fill="white"/>
<path d="M181.383 38.7491L165.417 41.5829L164.7 37.5912L166.207 37.3236L164.646 28.6328L163.139 28.9004L162.422 24.9086L172.009 23.207L172.726 27.1988L171.134 27.4813L172.695 36.1721L176.662 35.4679L176.182 32.7948L180.186 32.0842L181.383 38.7491Z" fill="white"/>
<g filter="url(#filter1_dd)">
<path fill-rule="evenodd" clip-rule="evenodd" d="M17.177 2.52439C16.2668 3.12138 15.5897 3.76518 15.5897 4.03368C15.5897 4.13761 15.5188 4.2535 15.4324 4.29144C15.2205 4.38383 14.5602 6.54351 14.5602 7.14401C14.5602 7.65831 15.1083 9.70334 15.3994 10.2754C15.7725 11.0079 15.9466 13.0838 15.7856 14.8771C15.5059 17.9919 15.5544 20.245 15.9209 21.1625C16.1029 21.6184 16.3121 21.9915 16.3856 21.9915C16.4591 21.9915 16.4854 22.415 16.4443 22.9326C16.3432 24.2068 16.7572 26.9856 17.2657 28.4452C17.6032 29.414 17.6398 29.7618 17.4595 30.2805C17.337 30.6323 17.2367 31.3008 17.2367 31.766C17.2367 32.9109 16.686 35.4763 16.421 35.5647C16.3034 35.6039 16.2073 35.7214 16.2073 35.826C16.2073 35.9305 15.9757 36.497 15.6926 37.0847C15.4095 37.6724 15.1779 38.2381 15.1779 38.3414C15.1779 38.4447 15.0529 38.8219 14.9004 39.1793C14.7476 39.5366 14.4567 40.3394 14.2539 40.9632C14.0511 41.587 13.8053 42.1855 13.7079 42.2933C13.6105 42.4009 13.5308 42.6521 13.5308 42.8511C13.5308 43.0501 13.3223 43.4258 13.0672 43.6863C11.7463 45.0347 11.2423 46.9632 11.6866 48.9693C11.8418 49.6698 12.0322 50.2429 12.1099 50.2429C12.1875 50.2429 12.3091 50.4749 12.3802 50.7584C12.4512 51.042 12.6003 51.274 12.7112 51.274C12.8224 51.274 12.9132 51.3717 12.9132 51.4913C12.9132 51.6109 13.1907 52.0054 13.5298 52.3677C13.8691 52.7302 14.147 53.134 14.1475 53.265C14.1481 53.3959 13.7375 53.7442 13.2354 54.0391C12.1271 54.6895 11.5781 55.4265 11.121 56.8768C10.9304 57.4814 10.5773 58.3007 10.3362 58.6977C10.0951 59.0946 9.83364 59.5935 9.75499 59.8063C9.47993 60.5509 7.86542 62.5788 7.45736 62.6919C6.68675 62.9057 5.50149 64.2609 5.50149 64.928C5.50149 65.5659 4.94726 66.9463 4.69094 66.9463C4.61065 66.9463 4.33374 67.37 4.07557 67.888C3.39822 69.2464 3.59175 70.4226 4.57997 70.9557C5.25835 71.3215 5.33123 71.3234 6.06767 70.9908C6.98672 70.5756 7.55804 69.6757 7.56627 68.6308C7.57121 68.0006 7.76042 67.6752 8.69862 66.6836C9.71834 65.6057 9.82499 65.4056 9.82499 64.5699C9.82499 64.0622 9.91022 63.6468 10.0144 63.6468C10.1184 63.6468 10.3533 63.1958 10.5361 62.6444C10.7902 61.8783 11.0366 61.5513 11.582 61.2572C11.9744 61.0454 12.2956 60.8007 12.2956 60.713C12.2956 60.6254 12.4442 60.5536 12.626 60.5536C12.8982 60.5536 12.9334 60.7085 12.8253 61.43C12.4763 63.7629 12.4656 64.077 12.7244 64.3892C13.0128 64.7373 12.9581 64.8012 11.8628 65.3968C11.0518 65.8377 10.0665 67.0618 9.47705 68.3599C9.18655 69.0002 8.86785 69.5549 8.76923 69.5926C8.67041 69.6306 8.58971 69.7929 8.58971 69.9535C8.58971 70.1143 8.50324 70.2457 8.39762 70.2457C8.292 70.2457 8.15056 70.4197 8.08324 70.6324C8.01571 70.8452 7.62762 71.3626 7.22039 71.7824C6.51628 72.5087 6.4329 72.5392 5.50602 72.4116C4.49947 72.273 3.11534 72.67 2.78387 73.1923C2.69678 73.3296 2.62411 74.382 2.62225 75.5306C2.62019 76.9141 2.51499 77.869 2.31034 78.3594C2.0009 79.1014 1.89199 81.0619 2.12649 81.6737C2.21379 81.9018 2.52014 81.9999 3.14416 81.9999C4.22174 81.9999 4.44862 81.7341 5.11815 79.6889C5.46402 78.6322 5.80887 78.0367 6.41808 77.4445C6.8741 77.0011 7.31778 76.6384 7.40383 76.6384C7.48989 76.6384 7.5603 76.1432 7.5603 75.538C7.5603 74.4475 7.57266 74.4259 8.95103 73.115C9.71587 72.3875 10.9726 71.2355 11.7436 70.555C12.5146 69.8745 13.4481 69.0393 13.8178 68.6991C14.1876 68.3588 14.8423 67.7814 15.2726 67.4158C16.1101 66.7042 16.6191 65.8973 16.6191 65.2811C16.6191 65.0718 16.7663 64.7808 16.946 64.6344C17.8202 63.9238 18.472 63.1905 18.472 62.9181C18.472 62.7517 18.5646 62.6158 18.6779 62.6158C18.7911 62.6158 18.8837 62.5191 18.8837 62.4011C18.8837 62.2829 19.2543 61.429 19.7073 60.5035C20.1602 59.5778 20.5308 58.708 20.5308 58.57C20.5308 58.4323 20.6004 58.2888 20.6852 58.2508C21.1167 58.0588 22.1733 55.331 22.3014 54.0783C22.4381 52.743 22.4519 52.7175 23.0434 52.7175C23.3748 52.7175 23.8175 52.6257 24.0268 52.5133C24.4491 52.2869 24.8524 50.7541 24.8574 49.3564C24.8603 48.5181 25.4458 46.2821 25.7394 45.9881C25.8188 45.9087 25.8837 45.7146 25.8837 45.5571C25.8837 45.3995 26.1616 44.7095 26.5013 44.0237C26.841 43.338 27.119 42.6472 27.119 42.4886C27.119 42.3302 27.1925 42.2005 27.2822 42.2005C27.372 42.2005 27.6224 41.667 27.8387 41.0148C28.0549 40.3627 28.2991 39.6898 28.3812 39.5197C28.6557 38.951 29.1778 37.0757 29.1778 36.6589C29.1778 36.4325 29.2741 35.9934 29.3917 35.6835L29.6056 35.1197L30.0608 35.7217C30.3112 36.0526 30.9823 36.7874 31.5522 37.3545C34.6585 40.4456 35.6741 40.6836 36.6366 38.546C37.9812 35.5602 38.2343 34.9609 38.3566 34.473C38.4282 34.1864 38.5696 33.9519 38.6705 33.9519C38.7716 33.9519 38.8542 33.7935 38.8542 33.5999C38.8542 33.4065 39.2375 32.7006 39.7061 32.0314C40.5776 30.7871 41.6309 28.1299 41.3017 28.0061C41.2012 27.9682 41.1189 27.7317 41.1189 27.4801C41.1189 27.2287 41.0032 26.7732 40.8615 26.4678C40.3526 25.3703 38.8542 25.9751 38.8542 27.2784C38.8542 27.6164 38.7181 28.0729 38.5519 28.2932C38.2643 28.6741 38.2491 28.6635 38.2398 28.0748C38.2347 27.7345 38.1453 27.3217 38.0416 27.1576C37.8925 26.9214 37.8309 26.9645 37.7472 27.3638C37.4847 28.6143 37.3813 29.4243 37.2872 30.9618C37.2316 31.8692 37.0752 32.8435 36.9395 33.1271C36.6348 33.7628 35.5609 35.407 35.222 35.7563C34.9464 36.0405 34.5309 36.1023 34.5305 35.8594C34.5303 35.7744 34.2884 35.4264 33.9927 35.0861C33.6971 34.7458 33.2108 34.1451 32.912 33.7511C31.3029 31.6287 30.0627 30.7434 27.5307 29.9093C26.9079 29.7041 26.292 29.4591 26.1616 29.3647C25.7822 29.0892 26.0655 27.5141 26.574 27.0724C26.9557 26.741 27.0257 26.4247 27.0873 24.7554C27.1478 23.1158 27.0926 22.6856 26.7239 21.923C26.2493 20.9408 25.627 20.548 24.5455 20.548C23.0629 20.548 22.2783 21.3675 22.0448 23.1603C21.9734 23.7082 21.825 24.2716 21.7146 24.4118C21.4488 24.7502 21.653 25.5039 22.1572 26.0461C22.4867 26.4003 22.5173 26.5482 22.318 26.8212C22.1 27.12 21.953 27.0458 21.0331 26.1733C20.1509 25.3363 19.9519 25.0014 19.7112 23.9505C19.5553 23.27 19.2214 22.2492 18.969 21.6821C18.6184 20.8944 18.4821 20.0984 18.3917 18.3093C18.2743 15.9898 18.004 14.0374 17.6268 12.785C17.4971 12.3544 17.5056 11.9736 17.652 11.6508C17.8566 11.2 17.9705 11.1704 19.2364 11.2359C20.3208 11.292 20.7834 11.2151 21.4929 10.8602C23.0331 10.0896 24.2305 8.2388 24.2305 6.62847C24.2305 5.12744 23.1922 3.35977 21.8243 2.53243C21.0663 2.0736 20.6936 1.9905 19.4415 2.00081C18.221 2.01071 17.8187 2.10371 17.177 2.52439Z" fill="white"/>
</g>
<defs>
<filter id="filter0_dd" x="140.1" y="43.4822" width="30.0599" height="41.2002" filterUnits="userSpaceOnUse" color-interpolation-filters="sRGB">
<feFlood flood-opacity="0" result="BackgroundImageFix"/>
<feColorMatrix in="SourceAlpha" type="matrix" values="0 0 0 0 0 0 0 0 0 0 0 0 0 0 0 0 0 0 127 0"/>
<feOffset dy="2"/>
<feGaussianBlur stdDeviation="1"/>
<feColorMatrix type="matrix" values="0 0 0 0 0 0 0 0 0 0 0 0 0 0 0 0 0 0 0.24 0"/>
<feBlend mode="normal" in2="BackgroundImageFix" result="effect1_dropShadow"/>
<feColorMatrix in="SourceAlpha" type="matrix" values="0 0 0 0 0 0 0 0 0 0 0 0 0 0 0 0 0 0 127 0"/>
<feOffset/>
<feGaussianBlur stdDeviation="1"/>
<feColorMatrix type="matrix" values="0 0 0 0 0 0 0 0 0 0 0 0 0 0 0 0 0 0 0.12 0"/>
<feBlend mode="normal" in2="effect1_dropShadow" result="effect2_dropShadow"/>
<feBlend mode="normal" in="SourceGraphic" in2="effect2_dropShadow" result="shape"/>
</filter>
<filter id="filter1_dd" x="0" y="0" width="43.3634" height="85.9999" filterUnits="userSpaceOnUse" color-interpolation-filters="sRGB">
<feFlood flood-opacity="0" result="BackgroundImageFix"/>
<feColorMatrix in="SourceAlpha" type="matrix" values="0 0 0 0 0 0 0 0 0 0 0 0 0 0 0 0 0 0 127 0"/>
<feOffset dy="2"/>
<feGaussianBlur stdDeviation="1"/>
<feColorMatrix type="matrix" values="0 0 0 0 0 0 0 0 0 0 0 0 0 0 0 0 0 0 0.24 0"/>
<feBlend mode="normal" in2="BackgroundImageFix" result="effect1_dropShadow"/>
<feColorMatrix in="SourceAlpha" type="matrix" values="0 0 0 0 0 0 0 0 0 0 0 0 0 0 0 0 0 0 127 0"/>
<feOffset/>
<feGaussianBlur stdDeviation="1"/>
<feColorMatrix type="matrix" values="0 0 0 0 0 0 0 0 0 0 0 0 0 0 0 0 0 0 0.12 0"/>
<feBlend mode="normal" in2="effect1_dropShadow" result="effect2_dropShadow"/>
<feBlend mode="normal" in="SourceGraphic" in2="effect2_dropShadow" result="shape"/>
</filter>
</defs>
</svg>
