<svg width="50" height="50" viewBox="0 0 50 50" fill="none" xmlns="http://www.w3.org/2000/svg">
<g clip-path="url(#clip0)">
<path d="M36.7969 10.1253L29.4125 9.38702L25.7031 1.95968C25.6309 1.8386 25.5285 1.73835 25.406 1.66873C25.2834 1.5991 25.1449 1.5625 25.0039 1.5625C24.8629 1.5625 24.7244 1.5991 24.6018 1.66873C24.4793 1.73835 24.3769 1.8386 24.3047 1.95968L20.5875 9.38702L13.2031 10.1253C13.0563 10.1404 12.9168 10.1967 12.8007 10.2877C12.6846 10.3788 12.5967 10.5008 12.5471 10.6398C12.4974 10.7787 12.4882 10.9289 12.5204 11.0729C12.5526 11.2169 12.6249 11.3488 12.7289 11.4534L18.6578 17.3831L16.4336 25.5394C16.3924 25.6853 16.3945 25.84 16.4397 25.9847C16.485 26.1294 16.5713 26.2578 16.6882 26.3543C16.8052 26.4508 16.9477 26.5112 17.0983 26.5281C17.249 26.545 17.4013 26.5177 17.5367 26.4495L20.8734 24.7808L19.6422 32.7776H10.1562V35.9026H7.03125V48.4026H43.0336V35.9026H39.8437V32.7776H30.3578L29.1266 24.7769L32.4633 26.4495C32.5721 26.502 32.6916 26.5288 32.8125 26.5276C32.9326 26.5277 33.0512 26.5 33.1588 26.4468C33.2665 26.3935 33.3605 26.3162 33.4334 26.2207C33.5064 26.1253 33.5563 26.0143 33.5794 25.8964C33.6024 25.7785 33.598 25.6568 33.5664 25.5409L31.3422 17.387L37.2711 11.4573C37.3751 11.3527 37.4474 11.2208 37.4796 11.0768C37.5118 10.9328 37.5026 10.7826 37.4529 10.6437C37.4033 10.5047 37.3154 10.3827 37.1993 10.2916C37.0832 10.2006 36.9436 10.1443 36.7969 10.1292V10.1253ZM41.4711 37.4651V46.8401H8.59375V37.4651H41.4711ZM38.2812 35.9026H11.7187V34.3401H38.2812V35.9026ZM28.7766 32.7776H21.2234L22.5859 23.9206L25 22.7136L27.4141 23.9206L28.7766 32.7776ZM29.9164 16.6003C29.819 16.6976 29.7491 16.819 29.7137 16.9521C29.6783 17.0852 29.6787 17.2252 29.7148 17.3581L31.5992 24.2659L25.3492 21.1409C25.2408 21.0867 25.1212 21.0585 25 21.0585C24.8788 21.0585 24.7592 21.0867 24.6508 21.1409L18.4008 24.2659L20.2852 17.3581C20.3213 17.2252 20.3217 17.0852 20.2863 16.9521C20.2509 16.819 20.181 16.6976 20.0836 16.6003L15 11.5159L21.1719 10.9026C21.3031 10.8895 21.4289 10.8434 21.5375 10.7685C21.6461 10.6937 21.734 10.5925 21.793 10.4745L25 4.05577L28.2031 10.4706C28.2624 10.5891 28.3509 10.6906 28.4603 10.7655C28.5696 10.8404 28.6962 10.8863 28.8281 10.8987L35 11.5159L29.9164 16.6003Z" fill="white"/>
<path d="M11.9772 44.7052C11.9643 44.6915 11.9472 44.6827 11.9288 44.6802L11.3372 44.5922L11.0742 44.0427C11.0497 44.001 10.9969 43.9876 10.9562 44.0126C10.9442 44.02 10.9341 44.0303 10.9268 44.0427L10.6628 44.5902L10.0712 44.6781C10.0264 44.6841 9.99481 44.7262 10.0007 44.772C10.0031 44.7909 10.0117 44.8083 10.0252 44.8215L10.453 45.2476L10.3506 45.8495C10.3433 45.8957 10.374 45.9393 10.4192 45.9468C10.4367 45.9497 10.4546 45.9468 10.4704 45.9385L11.0005 45.6558L11.5296 45.9406C11.5704 45.962 11.6203 45.9456 11.6413 45.904C11.6494 45.8878 11.6522 45.8695 11.6494 45.8516L11.547 45.2497L11.9749 44.8236C12.0075 44.7916 12.0085 44.7385 11.9772 44.7052ZM11.4017 45.1586C11.3825 45.178 11.3737 45.2057 11.3782 45.2329L11.458 45.7103L11.0384 45.4852C11.0143 45.4724 10.9857 45.4724 10.9616 45.4852L10.542 45.7103L10.6218 45.2329C10.6263 45.2057 10.6175 45.178 10.5983 45.1586L10.2595 44.8205L10.7283 44.7514C10.7552 44.7474 10.7786 44.7302 10.7907 44.7053L10.9954 44.2709L11.2001 44.7053C11.2122 44.7302 11.2356 44.7474 11.2625 44.7514L11.7313 44.8205L11.4017 45.1586Z" fill="white"/>
<path d="M14.9772 44.7052C14.9643 44.6915 14.9472 44.6827 14.9288 44.6802L14.3372 44.5922L14.0742 44.0427C14.0497 44.001 13.9969 43.9876 13.9562 44.0126C13.9442 44.02 13.9341 44.0303 13.9268 44.0427L13.6628 44.5902L13.0712 44.6781C13.0264 44.6841 12.9948 44.7262 13.0007 44.772C13.0031 44.7909 13.0117 44.8083 13.0252 44.8215L13.453 45.2476L13.3506 45.8495C13.3433 45.8957 13.374 45.9393 13.4192 45.9468C13.4367 45.9497 13.4546 45.9468 13.4704 45.9385L14.0005 45.6558L14.5296 45.9406C14.5704 45.962 14.6203 45.9456 14.6413 45.904C14.6494 45.8878 14.6522 45.8695 14.6494 45.8516L14.547 45.2497L14.9749 44.8236C15.0075 44.7916 15.0085 44.7385 14.9772 44.7052ZM14.4017 45.1586C14.3825 45.178 14.3737 45.2057 14.3782 45.2329L14.458 45.7103L14.0384 45.4852C14.0143 45.4724 13.9857 45.4724 13.9616 45.4852L13.542 45.7103L13.6218 45.2329C13.6263 45.2057 13.6175 45.178 13.5983 45.1586L13.2595 44.8205L13.7283 44.7514C13.7552 44.7474 13.7786 44.7302 13.7907 44.7053L13.9954 44.2709L14.2001 44.7053C14.2122 44.7302 14.2356 44.7474 14.2625 44.7514L14.7313 44.8205L14.4017 45.1586Z" fill="white"/>
<path d="M17.9772 44.7052C17.9643 44.6915 17.9472 44.6827 17.9288 44.6802L17.3372 44.5922L17.0742 44.0427C17.0497 44.001 16.9969 43.9876 16.9562 44.0126C16.9442 44.02 16.9341 44.0303 16.9268 44.0427L16.6628 44.5902L16.0712 44.6781C16.0264 44.6841 15.9948 44.7262 16.0007 44.772C16.0031 44.7909 16.0117 44.8083 16.0252 44.8215L16.453 45.2476L16.3506 45.8495C16.3433 45.8957 16.374 45.9393 16.4192 45.9468C16.4367 45.9497 16.4546 45.9468 16.4704 45.9385L17.0005 45.6558L17.5296 45.9406C17.5704 45.962 17.6203 45.9456 17.6413 45.904C17.6494 45.8878 17.6522 45.8695 17.6494 45.8516L17.547 45.2497L17.9749 44.8236C18.0075 44.7916 18.0085 44.7385 17.9772 44.7052ZM17.4017 45.1586C17.3825 45.178 17.3737 45.2057 17.3782 45.2329L17.458 45.7103L17.0384 45.4852C17.0143 45.4724 16.9857 45.4724 16.9616 45.4852L16.542 45.7103L16.6218 45.2329C16.6263 45.2057 16.6175 45.178 16.5983 45.1586L16.2595 44.8205L16.7283 44.7514C16.7552 44.7474 16.7786 44.7302 16.7907 44.7053L16.9954 44.2709L17.2001 44.7053C17.2122 44.7302 17.2356 44.7474 17.2625 44.7514L17.7313 44.8205L17.4017 45.1586Z" fill="white"/>
<path d="M34.8787 40.8787C34.3121 41.4453 34 42.1987 34 43C34 43.8013 34.3121 44.5547 34.8787 45.1213C35.4453 45.6879 36.1987 46 37 46C37.8013 46 38.5547 45.6879 39.1213 45.1213C39.6879 44.5547 40 43.8013 40 43C40 42.1987 39.6879 41.4453 39.1213 40.8787C38.5547 40.3121 37.8013 40 37 40C36.1987 40 35.4453 40.3121 34.8787 40.8787ZM39.8202 43.0891C39.798 43.8094 39.5072 44.4834 38.9953 44.9953C38.9936 44.997 38.9919 44.9986 38.9902 45.0003C38.7402 44.7518 38.5414 44.4632 38.3987 44.1411C38.2513 43.8081 38.1712 43.4546 38.16 43.0891H39.8202V43.0891ZM36.9109 43.0891V44.7702H37.0891V43.0891H37.9817C37.993 43.4796 38.0782 43.8573 38.2358 44.2133C38.3865 44.5538 38.5963 44.859 38.8599 45.122C38.3673 45.555 37.7476 45.7999 37.0891 45.8203V45.0079H36.9109V45.8203C36.2524 45.8 35.6327 45.555 35.1401 45.122C35.4036 44.859 35.6135 44.5537 35.7642 44.2133C35.9218 43.8573 36.007 43.4796 36.0183 43.0891H36.9109ZM35.84 43.0891C35.8288 43.4545 35.7487 43.8081 35.6012 44.1411C35.4586 44.4632 35.2598 44.7519 35.0098 45.0003C35.0081 44.9986 35.0064 44.997 35.0047 44.9953C34.4928 44.4834 34.202 43.8094 34.1798 43.0891H35.84V43.0891ZM34.1798 42.9109C34.202 42.1906 34.4928 41.5166 35.0047 41.0047C35.0064 41.003 35.0081 41.0014 35.0098 40.9997C35.2598 41.2481 35.4586 41.5368 35.6012 41.8589C35.7487 42.1919 35.8288 42.5454 35.84 42.9109H34.1798V42.9109ZM36.9109 42.9109H36.0183C36.007 42.5204 35.9218 42.1427 35.7642 41.7867C35.6135 41.4462 35.4037 41.141 35.1401 40.878C35.6327 40.445 36.2524 40.2001 36.9109 40.1798V42.9109H36.9109ZM38.9953 41.0047C39.5072 41.5166 39.7981 42.1906 39.8202 42.9109H38.16C38.1712 42.5455 38.2513 42.1919 38.3987 41.8589C38.5413 41.5368 38.7402 41.2482 38.9902 40.9997C38.9919 41.0014 38.9936 41.003 38.9953 41.0047ZM38.2358 41.7867C38.0782 42.1427 37.993 42.5204 37.9817 42.9109H37.0891V40.1798C37.7476 40.2001 38.3673 40.445 38.8599 40.878C38.5963 41.141 38.3865 41.4462 38.2358 41.7867Z" fill="white" stroke="white" stroke-width="0.3"/>
<path d="M25.1948 13.691C26.0519 13.691 26.7325 13.9496 27.2364 14.4669C27.7455 14.9843 28 15.6928 28 16.5924C28 17.6676 27.6831 18.5043 27.0494 19.1026C26.4208 19.7009 25.5455 20 24.4234 20C23.426 20 22.6182 19.8358 22 19.5074V17.7935C22.2649 17.96 22.6052 18.1084 23.0208 18.2389C23.4416 18.3648 23.8312 18.4278 24.1896 18.4278C25.3065 18.4278 25.8649 17.8655 25.8649 16.7409C25.8649 15.6928 25.3221 15.1687 24.2364 15.1687C23.8052 15.1687 23.3481 15.2407 22.8649 15.3846L22.1792 14.946L22.5299 10H27.3922V11.6397H24.3455L24.1896 13.7719C24.4805 13.7179 24.8156 13.691 25.1948 13.691Z" fill="white"/>
<path d="M42.9315 17.1156C42.8928 17.0744 42.8417 17.048 42.7864 17.0406L41.0117 16.7767L40.2226 15.128C40.1492 15.0031 39.9908 14.9627 39.8687 15.0377C39.8325 15.06 39.8022 15.0909 39.7805 15.128L38.9883 16.7705L37.2136 17.0343C37.0792 17.0524 36.9844 17.1785 37.0021 17.3161C37.0094 17.3727 37.0352 17.425 37.0755 17.4645L38.3589 18.7427L38.0519 20.5485C38.0299 20.6872 38.1219 20.8179 38.2575 20.8404C38.31 20.8491 38.3638 20.8404 38.4111 20.8155L40.0016 19.9675L41.5889 20.8218C41.7111 20.886 41.861 20.8369 41.9238 20.7119C41.9481 20.6635 41.9567 20.6085 41.9482 20.5548L41.6411 18.749L42.9246 17.4708C43.0224 17.3747 43.0255 17.2156 42.9315 17.1156ZM41.2051 18.4758C41.1475 18.5339 41.1212 18.6171 41.1345 18.6988L41.374 20.1309L40.1152 19.4556C40.043 19.4171 39.957 19.4171 39.8849 19.4556L38.626 20.1309L38.8655 18.6988C38.8788 18.6171 38.8525 18.5339 38.7949 18.4758L37.7786 17.4614L39.1848 17.2541C39.2657 17.2423 39.3357 17.1906 39.3721 17.1159L39.9862 15.8126L40.6003 17.1159C40.6367 17.1906 40.7067 17.2423 40.7876 17.2541L42.1938 17.4614L41.2051 18.4758Z" fill="white"/>
<path d="M12.9315 22.1156C12.8928 22.0744 12.8417 22.048 12.7864 22.0406L11.0117 21.7767L10.2226 20.128C10.1492 20.0031 9.9908 19.9627 9.86872 20.0377C9.83253 20.06 9.80224 20.0909 9.78048 20.128L8.98832 21.7705L7.21364 22.0343C7.07915 22.0524 6.98443 22.1785 7.00213 22.3161C7.00938 22.3727 7.03525 22.425 7.07547 22.4645L8.35889 23.7427L8.05185 25.5485C8.02986 25.6872 8.12194 25.8179 8.25753 25.8404C8.31 25.8491 8.36381 25.8404 8.41109 25.8155L10.0016 24.9675L11.5889 25.8218C11.7111 25.886 11.861 25.8369 11.9238 25.7119C11.9481 25.6635 11.9567 25.6085 11.9482 25.5548L11.6411 23.749L12.9246 22.4708C13.0224 22.3747 13.0255 22.2156 12.9315 22.1156ZM11.2051 23.4758C11.1475 23.5339 11.1212 23.6171 11.1345 23.6988L11.374 25.1309L10.1152 24.4556C10.043 24.4171 9.95703 24.4171 9.88488 24.4556L8.62602 25.1309L8.86551 23.6988C8.87882 23.6171 8.8525 23.5339 8.79489 23.4758L7.77859 22.4614L9.18483 22.2541C9.26566 22.2423 9.33566 22.1906 9.37212 22.1159L9.9862 20.8126L10.6003 22.1159C10.6367 22.1906 10.7067 22.2423 10.7876 22.2541L12.1938 22.4614L11.2051 23.4758Z" fill="white"/>
</g>
<defs>
<clipPath id="clip0">
<rect width="50" height="50" fill="white"/>
</clipPath>
</defs>
</svg>
