<svg width="475" height="445" viewBox="0 0 475 445" fill="none" xmlns="http://www.w3.org/2000/svg">
<g clip-path="url(#clip0)">
<path d="M0 0H29.5556V48.3234L30.0833 72.7506L32.7222 96.6468H0V0Z" fill="#00AB96" fill-opacity="0.2"/>
<path d="M0 95.5845H32.7222L34.0417 102.09L35.3611 107.533L36.6806 112.976L38 118.419L39.8472 123.729L41.6944 129.039L45.9167 139.66L50.1389 149.484L55.4167 159.308L61.75 170.194L69.1389 181.08L77.5833 192.231L86.0278 201.79L100.806 216.127L109.25 223.031L128.25 236.306L0 446.062V95.5845Z" fill="#95569E" fill-opacity="0.2"/>
<path d="M27.4448 0H159.917V96.6468H31.1393L30.0837 91.3365L29.0282 84.9642L28.5004 78.5919L27.9726 72.2196L27.4448 60.537V48.3234V0Z" fill="#146EB4" fill-opacity="0.2"/>
<path d="M31.6665 95.5845H160.444V183.735L127.722 236.838L120.333 232.058L112.417 226.748L97.6387 214.534L84.9721 202.321L73.361 188.514L63.3332 174.707L53.8332 159.308L46.9721 144.439L40.6387 129.039L35.3609 112.577L31.6665 95.5845Z" fill="#FF0303" fill-opacity="0.2"/>
<path d="M474.472 0H444.916V48.3234L444.388 72.7506L441.749 96.6468H474.472V0Z" fill="#00AB96" fill-opacity="0.2"/>
<path d="M474.472 95.5845H441.749L440.43 102.09L439.111 107.533L437.791 112.976L436.472 118.419L434.624 123.729L432.777 129.039L428.555 139.66L424.333 149.484L419.055 159.308L412.722 170.194L405.333 181.08L396.888 192.231L388.444 201.79L373.666 216.127L365.222 223.031L346.222 236.306L474.472 446.062V95.5845Z" fill="#95569E" fill-opacity="0.2"/>
<path d="M445.972 0H313.499V96.6468H442.277L443.333 91.3365L444.388 84.9642L444.916 78.5919L445.444 72.2196L445.972 60.537V48.3234V0Z" fill="#146EB4" fill-opacity="0.2"/>
<path d="M442.805 95.5845H314.027V183.735L346.75 236.838L354.139 232.058L362.055 226.748L376.833 214.534L389.5 202.321L401.111 188.514L411.139 174.707L420.639 159.308L427.5 144.439L433.833 129.039L439.111 112.577L442.805 95.5845Z" fill="#FF0303" fill-opacity="0.2"/>
<rect x="160.445" width="154.111" height="182.673" fill="#606C38" fill-opacity="0.2"/>
<path d="M160.444 182.673H314.555L347.805 236.838L335.666 243.741L323 250.113L309.805 255.423L296.083 260.203L281.833 263.92L267.055 266.575L252.278 268.168H237.5H223.778L209.528 266.575L195.278 263.92L181.555 260.734L167.833 256.486L153.583 250.644L139.861 244.272L126.667 236.838L160.444 182.673Z" fill="#2B378C" fill-opacity="0.2"/>
<path d="M127.194 235.776L140.389 243.21L152.528 249.052L165.722 254.362L178.389 258.61L192.639 262.327L206.361 264.982L221.667 267.106H236.972H251.222L266 265.513L280.25 262.858L294.5 259.141L308.222 254.893L321.944 249.583L335.139 243.21L347.278 236.307L475 445H0L127.194 235.776Z" fill="#FF9900" fill-opacity="0.2"/>
<g clip-path="url(#clip1)">
<path d="M0 0H1.58333V888.949H0V0Z" fill="#202A25"/>
<path d="M1.58333 0H473.417V1.58741H1.58333V0Z" fill="#202A25"/>
<path d="M1.58333 443.681H473.417V445.268H1.58333V443.681Z" fill="#202A25"/>
<path d="M1.58333 887.362H473.417V888.949H1.58333V887.362Z" fill="#202A25"/>
<path d="M473.417 0H475V888.949H473.417V0Z" fill="#202A25"/>
<path d="M294.5 444.475C294.5 476.036 268.98 501.621 237.5 501.621C206.02 501.621 180.5 476.036 180.5 444.475C180.5 412.913 206.02 387.328 237.5 387.328C268.98 387.328 294.5 412.913 294.5 444.475ZM182.21 444.475C182.21 475.089 206.964 499.907 237.5 499.907C268.036 499.907 292.79 475.089 292.79 444.475C292.79 413.86 268.036 389.042 237.5 389.042C206.964 389.042 182.21 413.86 182.21 444.475Z" fill="#202A25"/>
<path d="M294.5 704.81C294.5 736.371 268.98 761.957 237.5 761.957C206.02 761.957 180.5 736.371 180.5 704.81C180.5 673.249 206.02 647.663 237.5 647.663C268.98 647.663 294.5 673.249 294.5 704.81ZM182.21 704.81C182.21 735.424 206.964 760.242 237.5 760.242C268.036 760.242 292.79 735.424 292.79 704.81C292.79 674.195 268.036 649.378 237.5 649.378C206.964 649.378 182.21 674.195 182.21 704.81Z" fill="#202A25"/>
<path d="M159.917 704.81H161.5V888.949H159.917V704.81Z" fill="#202A25"/>
<path d="M161.5 704.81H313.5V706.397H161.5V704.81Z" fill="#202A25"/>
<path d="M313.5 704.81H315.083V888.949H313.5V704.81Z" fill="#202A25"/>
<path d="M318.25 833.39H315.083V831.803H318.25V833.39Z" fill="#202A25"/>
<path d="M318.25 804.817H315.083V792.117H318.25V804.817Z" fill="#202A25"/>
<path d="M318.25 765.131H315.083V763.544H318.25V765.131Z" fill="#202A25"/>
<path d="M318.25 736.558H315.083V734.971H318.25V736.558Z" fill="#202A25"/>
<path d="M159.917 833.39H156.75V831.803H159.917V833.39Z" fill="#202A25"/>
<path d="M159.917 804.817H156.75V792.117H159.917V804.817Z" fill="#202A25"/>
<path d="M159.917 765.131H156.75V763.544H159.917V765.131Z" fill="#202A25"/>
<path d="M159.917 736.558H156.75V734.971H159.917V736.558Z" fill="#202A25"/>
<path d="M446.817 830.057C446.817 802.519 441.407 775.251 430.895 749.809C420.384 724.367 404.978 701.251 385.556 681.779C366.133 662.306 343.076 646.86 317.7 636.322C292.323 625.784 265.125 620.36 237.658 620.36C210.191 620.36 182.993 625.784 157.617 636.322C132.241 646.86 109.183 662.306 89.761 681.779C70.3389 701.251 54.9324 724.367 44.4212 749.809C33.91 775.251 28.5 802.519 28.5 830.057H30.1105C30.1105 802.731 35.4789 775.673 45.9092 750.427C56.3394 725.181 71.6273 702.242 90.8999 682.92C110.172 663.598 133.052 648.271 158.233 637.814C183.414 627.357 210.403 621.974 237.658 621.974C264.914 621.974 291.903 627.357 317.083 637.814C342.264 648.271 365.144 663.598 384.417 682.92C403.689 702.242 418.977 725.181 429.408 750.427C439.838 775.673 445.206 802.731 445.206 830.057H446.817Z" fill="#202A25"/>
<path d="M28.5 830.057H30.0833V888.791H28.5V830.057Z" fill="#202A25"/>
<path d="M445.233 830.057H446.817V888.791H445.233V830.057Z" fill="#202A25"/>
<path d="M294.5 183.505C294.5 215.066 268.98 240.651 237.5 240.651C206.02 240.651 180.5 215.066 180.5 183.505C180.5 151.943 206.02 126.358 237.5 126.358C268.98 126.358 294.5 151.943 294.5 183.505ZM182.21 183.505C182.21 214.119 206.964 238.937 237.5 238.937C268.036 238.937 292.79 214.119 292.79 183.505C292.79 152.89 268.036 128.072 237.5 128.072C206.964 128.072 182.21 152.89 182.21 183.505Z" fill="#202A25"/>
<path d="M317.933 153.661H314.767V152.074H317.933V153.661Z" fill="#202A25"/>
<path d="M317.933 125.088H314.767V123.5H317.933V125.088Z" fill="#202A25"/>
<path d="M317.933 96.5145H314.767V83.8152H317.933V96.5145Z" fill="#202A25"/>
<path d="M317.933 56.8293H314.767V55.2419H317.933V56.8293Z" fill="#202A25"/>
<path d="M159.6 0H161.183V184.14H159.6V0Z" fill="#202A25"/>
<path d="M161.183 182.552H313.183V184.14H161.183V182.552Z" fill="#202A25"/>
<path d="M313.183 0H314.767V184.14H313.183V0Z" fill="#202A25"/>
<path d="M159.917 153.661H156.75V152.074H159.917V153.661Z" fill="#202A25"/>
<path d="M159.917 125.088H156.75V123.5H159.917V125.088Z" fill="#202A25"/>
<path d="M159.917 96.5145H156.75V83.8152H159.917V96.5145Z" fill="#202A25"/>
<path d="M159.917 56.8293H156.75V55.2419H159.917V56.8293Z" fill="#202A25"/>
<path d="M28.5 58.8929C28.5 86.4307 33.91 113.699 44.4212 139.14C54.9324 164.582 70.3389 187.699 89.761 207.171C109.183 226.643 132.241 242.089 157.617 252.627C182.993 263.166 210.191 268.59 237.658 268.59C265.125 268.59 292.324 263.166 317.7 252.627C343.076 242.089 366.133 226.643 385.556 207.171C404.978 187.699 420.384 164.582 430.895 139.14C441.407 113.699 446.817 86.4307 446.817 58.8929H445.206C445.206 86.2186 439.838 113.277 429.408 138.522C418.977 163.768 403.689 186.707 384.417 206.029C365.144 225.351 342.264 240.679 317.083 251.136C291.903 261.593 264.914 266.975 237.658 266.975C210.403 266.975 183.414 261.593 158.233 251.136C133.052 240.679 110.172 225.351 90.8999 206.029C71.6273 186.707 56.3394 163.768 45.9092 138.522C35.4789 113.277 30.1105 86.2186 30.1105 58.8929H28.5Z" fill="#202A25"/>
<path d="M446.817 58.8929H445.233V0.158722H446.817V58.8929Z" fill="#202A25"/>
<path d="M30.0833 58.8929L28.5 58.8929V0.158722H30.0833V58.8929Z" fill="#202A25"/>
</g>
</g>
<defs>
<clipPath id="clip0">
<rect width="475" height="445" fill="white"/>
</clipPath>
<clipPath id="clip1">
<rect width="475" height="446.062" fill="white"/>
</clipPath>
</defs>
</svg>
