<svg width="570" height="305" viewBox="0 0 570 305" fill="none" xmlns="http://www.w3.org/2000/svg">
<rect width="305" height="570" transform="translate(0 305) rotate(-90)" fill="white"/>
<path d="M0 305L0 303.983L570 303.983V305L0 305Z" fill="#202A25"/>
<path d="M0 303.983L0 1.01667H1.01786L1.01786 303.983H0Z" fill="#202A25"/>
<path d="M284.491 303.983V1.01667H285.509V303.983H284.491Z" fill="#202A25"/>
<path d="M568.982 303.983V1.01667H570V303.983H568.982Z" fill="#202A25"/>
<path d="M0 1.01667L0 2.98023e-07L570 2.98023e-07V1.01667L0 1.01667Z" fill="#202A25"/>
<path d="M285 115.9C305.237 115.9 321.643 132.286 321.643 152.5C321.643 172.714 305.237 189.1 285 189.1C264.763 189.1 248.357 172.714 248.357 152.5C248.357 132.286 264.763 115.9 285 115.9ZM285 188.002C304.63 188.002 320.544 172.107 320.544 152.5C320.544 132.893 304.63 116.998 285 116.998C265.37 116.998 249.456 132.893 249.456 152.5C249.456 172.107 265.37 188.002 285 188.002Z" fill="#202A25"/>
<path d="M451.929 115.9C472.166 115.9 488.571 132.286 488.571 152.5C488.571 172.714 472.166 189.1 451.929 189.1C431.691 189.1 415.286 172.714 415.286 152.5C415.286 132.286 431.691 115.9 451.929 115.9ZM451.929 188.002C471.559 188.002 487.472 172.107 487.472 152.5C487.472 132.893 471.559 116.998 451.929 116.998C432.298 116.998 416.385 132.893 416.385 152.5C416.385 172.107 432.298 188.002 451.929 188.002Z" fill="#202A25"/>
<path d="M451.929 202.317V201.3H570V202.317H451.929Z" fill="#202A25"/>
<path d="M451.929 201.3V103.7H452.946V201.3H451.929Z" fill="#202A25"/>
<path d="M451.929 103.7V102.683H570V103.7H451.929Z" fill="#202A25"/>
<path d="M534.375 100.65V102.683H533.357V100.65H534.375Z" fill="#202A25"/>
<path d="M516.054 100.65V102.683H507.911V100.65H516.054Z" fill="#202A25"/>
<path d="M490.607 100.65V102.683H489.589V100.65H490.607Z" fill="#202A25"/>
<path d="M472.286 100.65V102.683H471.268V100.65H472.286Z" fill="#202A25"/>
<path d="M534.375 202.317V204.35H533.357V202.317H534.375Z" fill="#202A25"/>
<path d="M516.054 202.317V204.35H507.911V202.317H516.054Z" fill="#202A25"/>
<path d="M490.607 202.317V204.35H489.589V202.317H490.607Z" fill="#202A25"/>
<path d="M472.286 202.317V204.35H471.268V202.317H472.286Z" fill="#202A25"/>
<path d="M532.237 18.0967C514.58 18.0967 497.096 21.5705 480.782 28.3198C464.469 35.0691 449.646 44.9616 437.161 57.4327C424.675 69.9038 414.771 84.7091 408.014 101.003C401.256 117.298 397.779 134.762 397.779 152.398C397.779 170.035 401.256 187.499 408.014 203.793C414.771 220.088 424.675 234.893 437.161 247.364C449.646 259.835 464.469 269.728 480.782 276.477C497.096 283.226 514.58 286.7 532.237 286.7V285.666C514.716 285.666 497.366 282.219 481.178 275.521C464.991 268.824 450.282 259.008 437.893 246.633C425.503 234.258 415.675 219.566 408.97 203.398C402.265 187.229 398.814 169.899 398.814 152.398C398.814 134.897 402.265 117.568 408.97 101.399C415.675 85.2303 425.503 70.539 437.893 58.164C450.282 45.7889 464.991 35.9725 481.178 29.2752C497.366 22.5779 514.716 19.1308 532.237 19.1308V18.0967Z" fill="#202A25"/>
<path d="M532.237 286.7V285.683H569.898V286.7H532.237Z" fill="#202A25"/>
<path d="M532.237 19.1133V18.0967H569.898V19.1133H532.237Z" fill="#202A25"/>
<path d="M117.664 115.9C137.902 115.9 154.307 132.286 154.307 152.5C154.307 172.714 137.902 189.1 117.664 189.1C97.427 189.1 81.0214 172.714 81.0214 152.5C81.0214 132.286 97.427 115.9 117.664 115.9ZM117.664 188.002C137.294 188.002 153.208 172.107 153.208 152.5C153.208 132.893 137.294 116.998 117.664 116.998C98.0341 116.998 82.1207 132.893 82.1207 152.5C82.1207 172.107 98.0341 188.002 117.664 188.002Z" fill="#202A25"/>
<path d="M98.5286 100.853V102.887H97.5107V100.853H98.5286Z" fill="#202A25"/>
<path d="M80.2071 100.853V102.887H79.1893V100.853H80.2071Z" fill="#202A25"/>
<path d="M61.8857 100.853V102.887H53.7429V100.853H61.8857Z" fill="#202A25"/>
<path d="M36.4393 100.853V102.887H35.4214V100.853H36.4393Z" fill="#202A25"/>
<path d="M0 202.52L0 201.503H118.071V202.52H0Z" fill="#202A25"/>
<path d="M117.054 201.503L117.054 103.903H118.071L118.071 201.503H117.054Z" fill="#202A25"/>
<path d="M0 103.903L0 102.887H118.071V103.903H0Z" fill="#202A25"/>
<path d="M98.5286 202.317V204.35H97.5107V202.317H98.5286Z" fill="#202A25"/>
<path d="M80.2071 202.317V204.35H79.1893V202.317H80.2071Z" fill="#202A25"/>
<path d="M61.8857 202.317V204.35H53.7429V202.317H61.8857Z" fill="#202A25"/>
<path d="M36.4393 202.317V204.35H35.4214V202.317H36.4393Z" fill="#202A25"/>
<path d="M37.7625 286.7C55.4199 286.7 72.9044 283.226 89.2177 276.477C105.531 269.728 120.354 259.835 132.839 247.364C145.325 234.893 155.229 220.088 161.986 203.793C168.744 187.499 172.221 170.035 172.221 152.398C172.221 134.762 168.744 117.298 161.986 101.003C155.229 84.7091 145.325 69.9038 132.839 57.4327C120.354 44.9616 105.531 35.0691 89.2177 28.3198C72.9044 21.5705 55.4199 18.0967 37.7625 18.0967V19.1308C55.2839 19.1308 72.6338 22.5779 88.8215 29.2752C105.009 35.9725 119.718 45.7889 132.107 58.164C144.497 70.539 154.325 85.2303 161.03 101.399C167.735 117.568 171.186 134.897 171.186 152.398C171.186 169.899 167.735 187.229 161.03 203.398C154.325 219.566 144.497 234.258 132.107 246.633C119.718 259.008 105.009 268.824 88.8215 275.521C72.6338 282.219 55.2839 285.666 37.7625 285.666V286.7Z" fill="#202A25"/>
<path d="M37.7625 18.0967V19.1133H0.101773L0.101773 18.0967H37.7625Z" fill="#202A25"/>
<path d="M37.7625 285.683L37.7625 286.7H0.101773L0.101773 285.683H37.7625Z" fill="#202A25"/>
</svg>
