<svg width="640" height="610" viewBox="0 0 640 610" fill="none" xmlns="http://www.w3.org/2000/svg">
<g clip-path="url(#clip0)">
<path d="M0 0H39.8222V66.2411L40.5333 99.7255L44.0889 132.482H0V0Z" fill="#00AB96" fill-opacity="0.2"/>
<path d="M0 131.026H44.0889L45.8667 139.943L47.6444 147.405L49.4222 154.866L51.2 162.327L53.6889 169.606L56.1778 176.886L61.8667 191.444L67.5556 204.911L74.6667 218.377L83.2 233.3L93.1556 248.222L104.533 263.508L115.911 276.611L135.822 296.265L147.2 305.728L172.8 323.926L0 611.456V131.026Z" fill="#95569E" fill-opacity="0.2"/>
<path d="M36.978 0H215.467V132.482H41.9558L40.5336 125.203L39.1114 116.468L38.4002 107.733L37.6891 98.9976L36.978 82.9833V66.2411V0Z" fill="#146EB4" fill-opacity="0.2"/>
<path d="M42.6665 131.026H216.178V251.862L172.089 324.654L162.133 318.103L151.466 310.824L131.555 294.081L114.489 277.339L98.8443 258.413L85.3332 239.487L72.5332 218.377L63.2887 197.995L54.7554 176.886L47.6443 154.32L42.6665 131.026Z" fill="#FF0303" fill-opacity="0.2"/>
<path d="M639.288 0H599.466V66.2411L598.755 99.7255L595.199 132.482H639.288V0Z" fill="#00AB96" fill-opacity="0.2"/>
<path d="M639.288 131.026H595.199L593.421 139.943L591.644 147.405L589.866 154.866L588.088 162.327L585.599 169.606L583.11 176.886L577.421 191.444L571.733 204.911L564.621 218.377L556.088 233.3L546.132 248.222L534.755 263.508L523.377 276.611L503.466 296.265L492.088 305.728L466.488 323.926L639.288 611.456V131.026Z" fill="#95569E" fill-opacity="0.2"/>
<path d="M600.888 0H422.399V132.482H595.91L597.333 125.203L598.755 116.468L599.466 107.733L600.177 98.9976L600.888 82.9833V66.2411V0Z" fill="#146EB4" fill-opacity="0.2"/>
<path d="M596.622 131.026H423.11V251.862L467.199 324.654L477.155 318.103L487.822 310.824L507.733 294.081L524.799 277.339L540.444 258.413L553.955 239.487L566.755 218.377L575.999 197.995L584.533 176.886L591.644 154.32L596.622 131.026Z" fill="#FF0303" fill-opacity="0.2"/>
<rect x="216.178" width="207.644" height="250.406" fill="#606C38" fill-opacity="0.2"/>
<path d="M216.178 250.406H423.822L468.622 324.654L452.266 334.117L435.2 342.852L417.422 350.131L398.933 356.683L379.733 361.778L359.822 365.418L339.911 367.601H320H301.511L282.311 365.418L263.111 361.778L244.622 357.411L226.133 351.587L206.933 343.58L188.444 334.845L170.667 324.654L216.178 250.406Z" fill="#2B378C" fill-opacity="0.2"/>
<path d="M171.378 323.198L189.156 333.389L205.511 341.396L223.289 348.676L240.356 354.499L259.556 359.594L278.044 363.234L298.667 366.146H319.289H338.489L358.4 363.962L377.6 360.322L396.8 355.227L415.289 349.403L433.778 342.124L451.556 333.389L467.911 323.926L640 610H0L171.378 323.198Z" fill="#FF9900" fill-opacity="0.2"/>
<g clip-path="url(#clip1)">
<path d="M0 0H2.13333V1218.56H0V0Z" fill="#202A25"/>
<path d="M2.13333 0H637.867V2.176H2.13333V0Z" fill="#202A25"/>
<path d="M2.13333 608.192H637.867V610.368H2.13333V608.192Z" fill="#202A25"/>
<path d="M2.13333 1216.38H637.867V1218.56H2.13333V1216.38Z" fill="#202A25"/>
<path d="M637.867 0H640V1218.56H637.867V0Z" fill="#202A25"/>
<path d="M396.8 609.28C396.8 652.544 362.415 687.616 320 687.616C277.585 687.616 243.2 652.544 243.2 609.28C243.2 566.016 277.585 530.944 320 530.944C362.415 530.944 396.8 566.016 396.8 609.28ZM245.504 609.28C245.504 651.246 278.857 685.266 320 685.266C361.143 685.266 394.496 651.246 394.496 609.28C394.496 567.314 361.143 533.294 320 533.294C278.857 533.294 245.504 567.314 245.504 609.28Z" fill="#202A25"/>
<path d="M396.8 966.144C396.8 1009.41 362.415 1044.48 320 1044.48C277.585 1044.48 243.2 1009.41 243.2 966.144C243.2 922.88 277.585 887.808 320 887.808C362.415 887.808 396.8 922.88 396.8 966.144ZM245.504 966.144C245.504 1008.11 278.857 1042.13 320 1042.13C361.143 1042.13 394.496 1008.11 394.496 966.144C394.496 924.178 361.143 890.158 320 890.158C278.857 890.158 245.504 924.178 245.504 966.144Z" fill="#202A25"/>
<path d="M215.467 966.144H217.6V1218.56H215.467V966.144Z" fill="#202A25"/>
<path d="M217.6 966.144H422.4V968.32H217.6V966.144Z" fill="#202A25"/>
<path d="M422.4 966.144H424.533V1218.56H422.4V966.144Z" fill="#202A25"/>
<path d="M428.8 1142.4H424.533V1140.22H428.8V1142.4Z" fill="#202A25"/>
<path d="M428.8 1103.23H424.533V1085.82H428.8V1103.23Z" fill="#202A25"/>
<path d="M428.8 1048.83H424.533V1046.66H428.8V1048.83Z" fill="#202A25"/>
<path d="M428.8 1009.66H424.533V1007.49H428.8V1009.66Z" fill="#202A25"/>
<path d="M215.467 1142.4H211.2V1140.22H215.467V1142.4Z" fill="#202A25"/>
<path d="M215.467 1103.23H211.2V1085.82H215.467V1103.23Z" fill="#202A25"/>
<path d="M215.467 1048.83H211.2V1046.66H215.467V1048.83Z" fill="#202A25"/>
<path d="M215.467 1009.66H211.2V1007.49H215.467V1009.66Z" fill="#202A25"/>
<path d="M602.027 1137.83C602.027 1100.08 594.737 1062.7 580.575 1027.83C566.412 992.953 545.654 961.265 519.485 934.573C493.317 907.881 462.25 886.707 428.059 872.261C393.867 857.816 357.222 850.381 320.213 850.381C283.205 850.381 246.559 857.816 212.368 872.261C178.177 886.707 147.11 907.881 120.941 934.573C94.7724 961.265 74.0142 992.953 59.8518 1027.83C45.6893 1062.7 38.4 1100.08 38.4 1137.83H40.57C40.57 1100.37 47.8032 1063.28 61.8566 1028.68C75.9099 994.069 96.5083 962.624 122.476 936.138C148.443 909.651 179.271 888.641 213.198 874.306C247.126 859.972 283.49 852.594 320.213 852.594C356.937 852.594 393.3 859.972 427.228 874.306C461.156 888.641 491.984 909.651 517.951 936.138C543.918 962.624 564.517 994.069 578.57 1028.68C592.624 1063.28 599.857 1100.37 599.857 1137.83H602.027Z" fill="#202A25"/>
<path d="M38.4 1137.83H40.5333V1218.34H38.4V1137.83Z" fill="#202A25"/>
<path d="M599.893 1137.83H602.027V1218.34H599.893V1137.83Z" fill="#202A25"/>
<path d="M396.8 251.546C396.8 294.809 362.415 329.882 320 329.882C277.585 329.882 243.2 294.809 243.2 251.546C243.2 208.282 277.585 173.21 320 173.21C362.415 173.21 396.8 208.282 396.8 251.546ZM245.504 251.546C245.504 293.511 278.857 327.531 320 327.531C361.143 327.531 394.496 293.511 394.496 251.546C394.496 209.58 361.143 175.56 320 175.56C278.857 175.56 245.504 209.58 245.504 251.546Z" fill="#202A25"/>
<path d="M428.373 210.637H424.107V208.461H428.373V210.637Z" fill="#202A25"/>
<path d="M428.373 171.469H424.107V169.293H428.373V171.469Z" fill="#202A25"/>
<path d="M428.373 132.301H424.107V114.893H428.373V132.301Z" fill="#202A25"/>
<path d="M428.373 77.9008H424.107V75.7248H428.373V77.9008Z" fill="#202A25"/>
<path d="M215.04 0H217.173V252.416H215.04V0Z" fill="#202A25"/>
<path d="M217.173 250.24H421.973V252.416H217.173V250.24Z" fill="#202A25"/>
<path d="M421.973 0H424.107V252.416H421.973V0Z" fill="#202A25"/>
<path d="M215.467 210.637H211.2V208.461H215.467V210.637Z" fill="#202A25"/>
<path d="M215.467 171.469H211.2V169.293H215.467V171.469Z" fill="#202A25"/>
<path d="M215.467 132.301H211.2V114.893H215.467V132.301Z" fill="#202A25"/>
<path d="M215.467 77.9008H211.2V75.7248H215.467V77.9008Z" fill="#202A25"/>
<path d="M38.4 80.7296C38.4 118.478 45.6893 155.857 59.8518 190.732C74.0142 225.607 94.7724 257.295 120.941 283.987C147.11 310.679 178.177 331.853 212.368 346.298C246.559 360.744 283.205 368.179 320.213 368.179C357.222 368.179 393.867 360.744 428.059 346.298C462.25 331.853 493.317 310.679 519.485 283.987C545.654 257.295 566.412 225.607 580.575 190.732C594.737 155.857 602.027 118.478 602.027 80.7296H599.857C599.857 118.187 592.624 155.278 578.57 189.885C564.517 224.491 543.918 255.935 517.951 282.422C491.984 308.909 461.156 329.919 427.228 344.253C393.3 358.588 356.937 365.966 320.213 365.966C283.49 365.966 247.126 358.588 213.198 344.253C179.271 329.919 148.443 308.909 122.476 282.422C96.5083 255.935 75.91 224.491 61.8566 189.885C47.8032 155.278 40.57 118.187 40.57 80.7296H38.4Z" fill="#202A25"/>
<path d="M602.027 80.7296H599.893V0.217573H602.027V80.7296Z" fill="#202A25"/>
<path d="M40.5333 80.7296L38.4 80.7296V0.217573H40.5333V80.7296Z" fill="#202A25"/>
</g>
</g>
<defs>
<clipPath id="clip0">
<rect width="640" height="610" fill="white"/>
</clipPath>
<clipPath id="clip1">
<rect width="640" height="611.456" fill="white"/>
</clipPath>
</defs>
</svg>
