<svg width="740" height="396" viewBox="0 0 740 396" fill="none" xmlns="http://www.w3.org/2000/svg">
<rect width="396" height="740" transform="translate(0 396) rotate(-90)" fill="white"/>
<path d="M0 396L0 394.68L740 394.68V396L0 396Z" fill="#202A25"/>
<path d="M0 394.68L0 1.32001H1.32143L1.32143 394.68H0Z" fill="#202A25"/>
<path d="M369.339 394.68V1.32001H370.661V394.68H369.339Z" fill="#202A25"/>
<path d="M738.679 394.68V1.32001H740V394.68H738.679Z" fill="#202A25"/>
<path d="M0 1.32001L0 0L740 0V1.32001L0 1.32001Z" fill="#202A25"/>
<path d="M370 150.48C396.273 150.48 417.571 171.755 417.571 198C417.571 224.245 396.273 245.52 370 245.52C343.727 245.52 322.429 224.245 322.429 198C322.429 171.755 343.727 150.48 370 150.48ZM370 244.094C395.485 244.094 416.144 223.457 416.144 198C416.144 172.543 395.485 151.906 370 151.906C344.515 151.906 323.856 172.543 323.856 198C323.856 223.457 344.515 244.094 370 244.094Z" fill="#202A25"/>
<path d="M586.714 150.48C612.987 150.48 634.286 171.755 634.286 198C634.286 224.245 612.987 245.52 586.714 245.52C560.441 245.52 539.143 224.245 539.143 198C539.143 171.755 560.441 150.48 586.714 150.48ZM586.714 244.094C612.199 244.094 632.859 223.457 632.859 198C632.859 172.543 612.199 151.906 586.714 151.906C561.229 151.906 540.57 172.543 540.57 198C540.57 223.457 561.229 244.094 586.714 244.094Z" fill="#202A25"/>
<path d="M586.714 262.68V261.36L740 261.36V262.68L586.714 262.68Z" fill="#202A25"/>
<path d="M586.714 261.36V134.64H588.036V261.36H586.714Z" fill="#202A25"/>
<path d="M586.714 134.64V133.32H740V134.64H586.714Z" fill="#202A25"/>
<path d="M693.75 130.68V133.32H692.429V130.68H693.75Z" fill="#202A25"/>
<path d="M669.964 130.68V133.32H659.393V130.68H669.964Z" fill="#202A25"/>
<path d="M636.929 130.68V133.32H635.607V130.68H636.929Z" fill="#202A25"/>
<path d="M613.143 130.68V133.32H611.821V130.68H613.143Z" fill="#202A25"/>
<path d="M693.75 262.68V265.32H692.429V262.68H693.75Z" fill="#202A25"/>
<path d="M669.964 262.68V265.32H659.393V262.68H669.964Z" fill="#202A25"/>
<path d="M636.929 262.68V265.32H635.607V262.68H636.929Z" fill="#202A25"/>
<path d="M613.143 262.68V265.32H611.821V262.68H613.143Z" fill="#202A25"/>
<path d="M690.975 23.496C668.051 23.496 645.352 28.0063 624.174 36.7693C602.995 45.5323 583.751 58.3764 567.542 74.5684C551.333 90.7603 538.474 109.983 529.702 131.139C520.929 152.295 516.414 174.969 516.414 197.868C516.414 220.767 520.929 243.441 529.702 264.597C538.474 285.753 551.333 304.976 567.542 321.168C583.751 337.36 602.995 350.204 624.174 358.967C645.352 367.73 668.051 372.24 690.975 372.24V370.897C668.228 370.897 645.703 366.422 624.688 357.726C603.672 349.031 584.577 336.285 568.492 320.218C552.408 304.151 539.649 285.076 530.944 264.083C522.239 243.091 517.758 220.591 517.758 197.868C517.758 175.145 522.239 152.645 530.944 131.653C539.649 110.66 552.408 91.5851 568.492 75.5178C584.577 59.4505 603.672 46.7053 624.688 38.0097C645.703 29.3142 668.228 24.8387 690.975 24.8387V23.496Z" fill="#202A25"/>
<path d="M690.975 372.24V370.92H739.868V372.24H690.975Z" fill="#202A25"/>
<path d="M690.975 24.816V23.496H739.868V24.816H690.975Z" fill="#202A25"/>
<path d="M152.757 150.48C179.03 150.48 200.329 171.755 200.329 198C200.329 224.245 179.03 245.52 152.757 245.52C126.484 245.52 105.186 224.245 105.186 198C105.186 171.755 126.484 150.48 152.757 150.48ZM152.757 244.094C178.242 244.094 198.901 223.457 198.901 198C198.901 172.543 178.242 151.906 152.757 151.906C127.272 151.906 106.613 172.543 106.613 198C106.613 223.457 127.272 244.094 152.757 244.094Z" fill="#202A25"/>
<path d="M127.914 130.944V133.584H126.593V130.944H127.914Z" fill="#202A25"/>
<path d="M104.129 130.944V133.584H102.807V130.944H104.129Z" fill="#202A25"/>
<path d="M80.3429 130.944V133.584H69.7714V130.944H80.3429Z" fill="#202A25"/>
<path d="M47.3071 130.944V133.584H45.9857V130.944H47.3071Z" fill="#202A25"/>
<path d="M0 262.944L0 261.624H153.286V262.944H0Z" fill="#202A25"/>
<path d="M151.964 261.624L151.964 134.904H153.286L153.286 261.624H151.964Z" fill="#202A25"/>
<path d="M0 134.904L0 133.584H153.286V134.904H0Z" fill="#202A25"/>
<path d="M127.914 262.68V265.32H126.593V262.68H127.914Z" fill="#202A25"/>
<path d="M104.129 262.68V265.32H102.807V262.68H104.129Z" fill="#202A25"/>
<path d="M80.3429 262.68V265.32H69.7714V262.68H80.3429Z" fill="#202A25"/>
<path d="M47.3071 262.68V265.32H45.9857V262.68H47.3071Z" fill="#202A25"/>
<path d="M49.025 372.24C71.9486 372.24 94.6478 367.73 115.826 358.967C137.005 350.204 156.249 337.36 172.458 321.168C188.668 304.976 201.526 285.753 210.298 264.597C219.071 243.441 223.586 220.767 223.586 197.868C223.586 174.969 219.071 152.294 210.298 131.139C201.526 109.983 188.668 90.7603 172.458 74.5684C156.249 58.3764 137.005 45.5323 115.826 36.7693C94.6478 28.0063 71.9486 23.496 49.025 23.496V24.8387C71.7721 24.8387 94.2965 29.3142 115.312 38.0097C136.328 46.7053 155.423 59.4505 171.508 75.5178C187.592 91.5851 200.351 110.66 209.056 131.653C217.761 152.645 222.242 175.145 222.242 197.868C222.242 220.591 217.761 243.091 209.056 264.083C200.351 285.076 187.592 304.151 171.508 320.218C155.423 336.285 136.328 349.031 115.312 357.726C94.2965 366.422 71.7721 370.897 49.025 370.897V372.24Z" fill="#202A25"/>
<path d="M49.025 23.496V24.816H0.132127L0.132127 23.496H49.025Z" fill="#202A25"/>
<path d="M49.025 370.92L49.025 372.24H0.132127L0.132127 370.92H49.025Z" fill="#202A25"/>
</svg>
