<svg width="50" height="50" viewBox="0 0 50 50" fill="none" xmlns="http://www.w3.org/2000/svg">
<path d="M49.9983 9.54239C49.9485 5.2983 47.7768 2.96085 43.8831 2.96085C42.3761 2.96085 40.924 3.31167 39.9747 3.60438C40.0692 1.86963 40.0706 0.798813 40.0706 0.745585L40.0707 0.00292969H9.93002V0.745487C9.93002 0.77088 9.93256 1.85859 10.0282 3.60526C9.07895 3.31235 7.62543 2.96085 6.11694 2.96085C2.22338 2.96085 0.0516054 5.2982 0.00180075 9.54239C-0.0472227 13.7176 0.904926 17.4342 2.83159 20.5891C4.72319 23.6866 7.14096 25.5531 8.83618 26.5733C11.5513 28.2074 14.2649 28.5504 16.0633 28.5504C16.5067 28.5504 16.9338 28.5295 17.3333 28.4883C17.3598 28.4856 17.3843 28.4824 17.4102 28.4796C18.2797 29.4161 19.2171 30.1663 20.2188 30.7238C20.9572 31.1347 21.4707 31.8512 21.6467 32.6749C20.6511 32.9848 19.9262 33.915 19.9262 35.0113C19.9262 36.1323 20.6843 37.0789 21.7143 37.3671V40.4836H17.6965V43.736H13.7317V50.0029H36.2689V43.736H32.304V40.4836H28.2863V37.3671C29.3164 37.0788 30.0745 36.1323 30.0745 35.0113C30.0745 33.9149 29.3496 32.9848 28.3539 32.6749C28.5299 31.8512 29.0434 31.1348 29.7819 30.7238C30.7811 30.1678 31.7249 29.4135 32.5923 28.48C32.8997 28.5141 33.3605 28.5503 33.9367 28.5503C33.9364 28.5503 33.9369 28.5503 33.9367 28.5503C35.7349 28.5503 38.4488 28.2071 41.1637 26.5732C42.8588 25.5529 45.2767 23.6865 47.1683 20.589C49.0953 17.4342 50.0473 13.7175 49.9983 9.54239ZM38.5735 1.48804C38.5668 1.75965 38.5563 2.1011 38.5401 2.50075H11.4636C11.4468 2.10119 11.4356 1.75926 11.4284 1.48804H38.5735ZM39.5834 8.30643C40.5895 7.97153 41.8934 7.6338 43.0615 7.6338C44.0409 7.6338 44.746 7.87308 45.1575 8.345C45.6303 8.88744 45.7828 9.79867 45.6103 11.0537C44.8922 16.2814 42.6257 20.3621 39.2281 22.5438C38.0446 23.3039 36.77 23.6179 35.7018 23.7294C37.9613 18.9798 39.0548 13.0206 39.5834 8.30643ZM11.1812 13.4791C11.9116 17.397 12.92 20.7614 14.1786 23.4788C14.2175 23.5632 14.2572 23.6463 14.2966 23.7294C13.2289 23.6176 11.955 23.3037 10.772 22.544C7.37446 20.3622 5.10786 16.2816 4.38979 11.0539C4.21743 9.79877 4.36977 8.88744 4.84272 8.3452C5.25414 7.87328 5.95942 7.63409 6.93872 7.63409C8.10776 7.63409 9.41284 7.97231 10.4193 8.3074C10.5991 9.91519 10.8449 11.675 11.1812 13.4791ZM16.0633 27.0653C14.4532 27.0653 12.0249 26.7591 9.602 25.3009C7.12397 23.8095 1.3725 19.2901 1.48676 9.55988C1.52719 6.1188 3.04174 4.44607 6.11694 4.44607C7.76157 4.44607 9.38588 4.94192 10.1284 5.20347C10.1654 5.70166 10.2069 6.20133 10.2528 6.69894C9.2435 6.40242 8.05434 6.14868 6.93872 6.14868C5.51118 6.14868 4.42944 6.55918 3.72338 7.36883C2.9559 8.2491 2.6851 9.55685 2.9185 11.2558C3.3183 14.1663 4.15385 16.7388 5.402 18.9018C6.5935 20.9666 8.13032 22.6125 9.96957 23.7935C11.7661 24.9472 13.7091 25.2382 15.0952 25.266C15.0998 25.2742 15.1046 25.282 15.1093 25.2901C15.1853 25.4232 15.2621 25.5541 15.3396 25.6833C15.3637 25.7237 15.388 25.7637 15.4123 25.8036C15.4863 25.9251 15.5608 26.0455 15.6361 26.1634C15.6644 26.2077 15.6931 26.251 15.7216 26.2949C15.7729 26.3737 15.8245 26.4519 15.8764 26.5291C15.9266 26.6038 15.977 26.6778 16.0277 26.7509C16.0774 26.8225 16.1272 26.8937 16.1774 26.9639C16.2009 26.9969 16.2241 27.0312 16.2476 27.0638C16.1878 27.0648 16.1264 27.0653 16.0633 27.0653ZM34.784 45.2213V48.5178H15.2168V45.2213H34.784ZM30.8191 41.9689V43.7361H19.1817V41.9689H30.8191ZM23.1994 40.4837V37.4578H26.8014V40.4837H23.1994ZM28.5896 35.0113C28.5896 35.5414 28.1583 35.9726 27.6285 35.9726H22.3724C21.8424 35.9726 21.4113 35.5414 21.4113 35.0113C21.4113 34.4813 21.8424 34.0501 22.3724 34.0501H27.6285C28.1584 34.0501 28.5896 34.4813 28.5896 35.0113ZM32.3038 26.5218C32.2956 26.5324 32.2874 26.5431 32.2792 26.5537C32.2062 26.6483 32.1326 26.7405 32.0585 26.8314C32.0404 26.8536 32.0225 26.8761 32.0042 26.8982C31.9229 26.997 31.8409 27.0937 31.7584 27.1881C31.7544 27.1926 31.7507 27.1972 31.7467 27.2017C30.9187 28.1465 30.0148 28.8947 29.06 29.426C27.8831 30.0808 27.083 31.2437 26.8628 32.5649H23.138C22.9178 31.2436 22.1176 30.0808 20.9408 29.426C20.0193 28.9133 19.1871 28.228 18.4352 27.4091L18.2536 27.2018C17.5153 26.3598 16.8194 25.3395 16.1853 24.1698L15.9911 23.8113C12.798 17.641 11.8322 8.72297 11.541 3.98586H38.4653C38.4529 4.19194 38.4393 4.40475 38.4243 4.62577C38.4236 4.63603 38.4228 4.64657 38.4221 4.65683C38.4057 4.89631 38.3881 5.13647 38.3695 5.37683C38.369 5.38386 38.3684 5.39089 38.3679 5.39802C38.3085 6.15982 38.2382 6.92445 38.1581 7.67999L38.1095 8.13688C37.57 12.9741 36.4304 19.1366 34.0274 23.7784L33.8152 24.1697C33.343 25.0405 32.8366 25.8283 32.3038 26.5218ZM40.3982 25.3009C37.975 26.7592 35.5473 27.0653 33.9372 27.0653C33.9373 27.0653 33.9371 27.0653 33.9372 27.0653C33.8741 27.0653 33.8122 27.0648 33.7524 27.0638C33.7534 27.0625 33.7543 27.061 33.7553 27.0596C33.8517 26.9266 33.9466 26.7916 34.0401 26.6548C34.0515 26.6381 34.0627 26.621 34.0742 26.6043C34.1532 26.4879 34.231 26.3699 34.3079 26.2508C34.3278 26.2202 34.3476 26.1895 34.3672 26.1588C34.4524 26.0251 34.5367 25.8905 34.6193 25.7535C34.6323 25.7322 34.6449 25.7102 34.6578 25.6886C34.7254 25.5755 34.7923 25.4613 34.8583 25.3461C34.8738 25.3191 34.8897 25.2933 34.9052 25.2662C36.2913 25.2384 38.2343 24.9474 40.0308 23.7937C41.8701 22.6125 43.4069 20.9666 44.5984 18.902C45.8464 16.739 46.682 14.1665 47.0819 11.256C47.3151 9.55695 47.0444 8.24919 46.277 7.36902C45.571 6.55927 44.4892 6.14878 43.0617 6.14878C41.9461 6.14878 40.7568 6.40232 39.7476 6.69894C39.7944 6.19156 39.8345 5.70489 39.8689 5.24234C39.8699 5.22945 39.8709 5.21646 39.8719 5.20366C40.6146 4.94202 42.2388 4.44626 43.8833 4.44626C46.9585 4.44626 48.4731 6.11899 48.5136 9.55988C48.6275 19.2901 42.8762 23.8094 40.3982 25.3009Z" fill="#146EB4"/>
<path d="M33.9283 5.86645C33.3878 5.82601 33.0111 5.68553 32.8072 5.44756C32.468 5.06613 32.3904 4.42502 32.3733 4.0768C32.3733 4.0338 32.3387 4.0006 32.2957 4.0006H32.2325C32.2095 4.0006 32.1894 4.01081 32.1719 4.02529C32.1604 4.03934 32.1519 4.05934 32.1519 4.08105C32.1549 4.35776 32.0226 5.07337 31.6835 5.46927C31.4706 5.72725 31.0969 5.88646 30.6028 5.92946C30.5824 5.92946 30.5653 5.93244 30.5508 5.9367C30.5307 5.94095 30.5107 5.9567 30.4992 5.97841C30.4876 5.99672 30.4876 6.01971 30.4962 6.04142C30.5047 6.0627 30.5047 6.0759 30.5107 6.09591C30.5107 6.12571 30.5307 6.15168 30.5593 6.16019C30.5713 6.16445 30.5969 6.16743 30.6028 6.16743C31.9279 6.1687 32.1549 7.36663 32.1719 8.07756C32.1719 8.12949 32.218 8.17802 32.3097 8.17802C32.3242 8.17802 32.3443 8.17675 32.3588 8.17377C32.3904 8.16525 32.4164 8.1363 32.4194 8.10055C32.448 7.71486 32.5111 6.91326 32.8443 6.60931C33.1293 6.32792 33.474 6.16615 33.9049 6.11719C33.9394 6.11294 33.9684 6.08697 33.977 6.05121C33.977 6.03546 33.9799 6.02396 33.9885 6.00694C34 5.98097 34 5.96394 34 5.94649C34 5.90519 33.9684 5.87199 33.9283 5.86645Z" fill="#146EB4"/>
<path d="M23.6546 10.9227C23.9733 10.5268 24.2724 10.1369 24.4648 9.67927C24.6661 9.21312 24.8129 8.73251 24.8705 8.23529C24.9362 7.73466 24.9132 7.23404 24.827 6.73937C24.8099 6.63167 24.7783 6.57462 24.6606 6.58314C24.2062 6.6206 23.7493 6.71808 23.3039 6.85261C22.8666 6.9833 22.4443 7.17103 22.033 7.39495C21.6337 7.61717 21.2083 7.82363 20.8491 8.12886C20.7629 8.1991 20.8406 8.29829 20.9212 8.37407C21.5646 9.01815 21.5189 9.06285 22.1657 9.70651C22.8065 10.3489 22.6742 10.2574 23.318 10.9023C23.4072 10.9883 23.574 11.0202 23.6546 10.9227Z" fill="#146EB4"/>
<path d="M25.2232 12.6997C25.3093 12.7899 25.3093 12.7529 25.4015 12.6639C25.933 12.136 28.0224 9.97941 28.5544 9.44429C29.0885 8.91258 29.7842 8.20377 29.6981 8.13098C29.3274 7.81127 28.9422 7.47709 28.5254 7.25189C28.1001 7.02243 27.5856 6.97943 27.1257 6.85002C26.6633 6.71549 26.1945 6.61247 25.7146 6.58352C25.5824 6.57203 25.4876 6.64227 25.5162 6.77296C25.5939 7.32511 25.5768 7.96325 25.5162 8.5222C25.4301 9.30253 25.3123 9.52901 25.0824 10.0454C24.8554 10.5503 24.4643 11.0147 24.0936 11.4524C24.0159 11.5456 24.7488 12.228 25.2232 12.6997Z" fill="#146EB4"/>
<path d="M27.6016 15.142C28.2453 15.7819 28.1677 15.7801 28.8084 16.4213C29.4526 17.0607 29.5528 16.9921 30.191 17.6345C30.2802 17.7235 30.4009 17.7376 30.4785 17.6401C30.7801 17.2876 30.967 16.9117 31.1884 16.5145C31.4093 16.1071 31.6627 15.7031 31.795 15.2667C31.9268 14.8236 31.9643 14.2272 32.0019 13.7682C32.0074 13.655 31.9328 13.6248 31.8206 13.5988C31.3206 13.526 30.8032 13.4983 30.3032 13.5588C29.8062 13.6235 29.3549 13.7623 28.889 13.9619C28.1417 14.2774 27.9608 14.5281 27.5641 14.8508C27.4634 14.927 27.5154 15.0535 27.6016 15.142Z" fill="#146EB4"/>
<path d="M26.8669 14.3239C26.9471 14.4044 27.0247 14.2839 27.1168 14.2119C27.5537 13.842 29.0511 12.5142 31.9396 12.8267C32.0748 12.8412 31.8739 11.8288 31.7412 11.3669C31.6094 10.908 31.4682 10.4666 31.2357 10.043C31.0087 9.62579 30.7353 9.25159 30.4192 8.88165C30.3445 8.79566 30.2643 8.68795 30.1867 8.76841C29.6547 9.29884 29.3155 9.58577 28.784 10.1192C28.1949 10.7173 26.3639 12.5828 25.8294 13.1136C25.8294 13.1136 26.3925 13.8535 26.8669 14.3239Z" fill="#146EB4"/>
<path d="M22.9458 11.4612C22.5316 11.0137 22.5376 11.0052 22.1208 10.5548C21.704 10.1087 21.681 10.1279 21.2672 9.68299C20.8504 9.23132 20.8303 9.24579 20.4165 8.79667C20.3304 8.70514 20.2067 8.65619 20.123 8.74814C19.85 9.04315 19.6431 9.38457 19.4307 9.71023C19.2178 10.0444 19.0915 10.4186 18.9418 10.7788C18.7925 11.1444 18.6487 11.5012 18.5626 11.883C18.4764 12.2675 18.3787 12.6514 18.3582 13.0431C18.3382 13.4343 18.3787 13.8289 18.4277 14.2176C18.4619 14.5071 18.5796 15.012 18.6573 15.2917C18.6803 15.3892 15.9215 18.5168 16.0017 18.5998C16.1083 18.7088 19.4277 15.1852 19.83 14.8153C20.2267 14.4454 20.9541 13.6352 21.3563 13.2623C21.7586 12.8924 21.7386 12.8711 22.1379 12.5024C22.5401 12.1325 22.5116 12.104 22.9113 11.7311C23.003 11.6463 23.029 11.5531 22.9458 11.4612Z" fill="#146EB4"/>
<path d="M26.3973 14.7545C25.9574 14.3203 25.8887 14.2845 25.4489 13.8486C25.3653 13.7651 25.4028 13.7911 25.3252 13.7264C25.2736 13.6821 25.2621 13.7051 25.219 13.7336C24.707 14.0993 21.7523 17.0665 21.6119 16.9115C21.4677 16.7566 24.9314 13.365 24.8423 13.2807C24.7877 13.2262 24.6929 13.1343 24.6093 13.0525C24.1725 12.6149 24.1439 12.6451 23.707 12.2096C23.6209 12.1202 23.5573 12.0904 23.4741 12.1777C23.0603 12.5834 23.0232 12.5464 22.6149 12.9538C22.2006 13.3607 22.2007 13.3607 21.7954 13.7711C21.3815 14.1781 19.7032 15.7902 19.292 16.2002C19.2143 16.2789 19.2203 16.3952 19.2719 16.5012C19.4272 16.771 19.6486 17.0865 19.841 17.3415C20.0279 17.5927 20.2608 17.8179 20.4878 18.0443C20.7147 18.2695 20.9792 18.4445 21.2263 18.6297C21.356 18.7242 21.5343 18.8562 21.7582 18.9766C21.7582 18.9766 21.0309 19.8859 20.1917 20.8608C19.2118 22.0025 18.1137 23.2358 18.1568 23.2843C18.315 23.4653 24.3162 17.1052 24.7245 16.6966C25.1328 16.2866 25.1328 16.2832 25.5436 15.8762C25.9519 15.4688 25.9199 15.4386 26.3282 15.0286C26.4173 14.9426 26.4805 14.8409 26.3973 14.7545Z" fill="#146EB4"/>
<path d="M26.7655 15.5464C26.3892 15.9406 26.3517 15.9078 25.981 16.305C25.6017 16.6992 24.0378 18.2168 23.6586 18.6123C23.2853 19.0082 21.1268 21.2985 21.259 21.4377C21.3192 21.5003 23.2188 19.7511 23.2649 19.7656C23.5955 19.8771 23.8915 19.9946 24.2366 20.0435C24.6274 20.0951 25.0241 20.1466 25.4175 20.1325C25.8116 20.1155 26.1909 19.972 26.5786 19.8899C26.9609 19.8098 27.3691 19.7766 27.7339 19.6293C28.0935 19.4812 28.4527 19.2952 28.7888 19.0857C29.1165 18.8775 29.4385 18.6383 29.7346 18.3684C29.8263 18.2884 29.7632 18.1909 29.68 18.1134C29.2342 17.6902 29.2833 17.7362 28.8319 17.3173C28.3866 16.8942 28.3725 16.8124 27.9237 16.3897C27.4783 15.9708 27.4869 15.9593 27.0385 15.5404C26.9498 15.4519 26.8491 15.4544 26.7655 15.5464Z" fill="#146EB4"/>
<path d="M27.1186 30.0033H22.5102V28.929L24.6264 26.2378C24.895 25.8653 25.0919 25.5394 25.2173 25.2601C25.3462 24.9772 25.4106 24.7068 25.4106 24.449C25.4106 24.1016 25.3498 23.8295 25.228 23.6325C25.1098 23.4356 24.938 23.3371 24.7124 23.3371C24.4653 23.3371 24.2684 23.4517 24.1216 23.6809C23.9783 23.91 23.9067 24.2323 23.9067 24.6478H22.3813C22.3813 24.1679 22.4798 23.7292 22.6767 23.3317C22.8773 22.9342 23.1566 22.6262 23.5146 22.4078C23.8763 22.1857 24.2845 22.0747 24.7392 22.0747C25.4375 22.0747 25.9782 22.2681 26.3613 22.6549C26.748 23.038 26.9414 23.5842 26.9414 24.2932C26.9414 24.7337 26.834 25.1813 26.6191 25.6361C26.4079 26.0874 26.0229 26.6442 25.4643 27.3067L24.4599 28.7409H27.1186V30.0033Z" fill="#146EB4"/>
<path d="M17.9771 46.6945C17.9643 46.681 17.9472 46.6724 17.9288 46.67L17.3372 46.584L17.0742 46.0466C17.0497 46.006 16.9969 45.9928 16.9562 46.0172C16.9442 46.0245 16.9341 46.0346 16.9268 46.0466L16.6628 46.582L16.0712 46.668C16.0264 46.6739 15.9948 46.715 16.0007 46.7598C16.0031 46.7782 16.0117 46.7953 16.0251 46.8082L16.4529 47.2248L16.3506 47.8133C16.3433 47.8585 16.374 47.9011 16.4192 47.9084C16.4366 47.9113 16.4546 47.9084 16.4703 47.9003L17.0005 47.624L17.5296 47.9024C17.5704 47.9233 17.6203 47.9073 17.6413 47.8666C17.6494 47.8508 17.6522 47.8329 17.6494 47.8154L17.547 47.2268L17.9748 46.8102C18.0074 46.7789 18.0085 46.7271 17.9771 46.6945ZM17.4017 47.1378C17.3825 47.1567 17.3737 47.1838 17.3782 47.2104L17.458 47.6772L17.0384 47.4571C17.0143 47.4446 16.9857 47.4446 16.9616 47.4571L16.542 47.6772L16.6218 47.2104C16.6263 47.1838 16.6175 47.1567 16.5983 47.1378L16.2595 46.8072L16.7283 46.7396C16.7552 46.7358 16.7785 46.7189 16.7907 46.6946L16.9954 46.2698L17.2001 46.6946C17.2122 46.7189 17.2356 46.7358 17.2625 46.7396L17.7313 46.8072L17.4017 47.1378Z" fill="#146EB4"/>
<path d="M20.9771 46.6945C20.9643 46.681 20.9472 46.6724 20.9288 46.67L20.3372 46.584L20.0742 46.0466C20.0497 46.006 19.9969 45.9928 19.9562 46.0172C19.9442 46.0245 19.9341 46.0346 19.9268 46.0466L19.6628 46.582L19.0712 46.668C19.0264 46.6739 18.9948 46.715 19.0007 46.7598C19.0031 46.7782 19.0117 46.7953 19.0251 46.8082L19.4529 47.2248L19.3506 47.8133C19.3433 47.8585 19.374 47.9011 19.4192 47.9084C19.4366 47.9113 19.4546 47.9084 19.4703 47.9003L20.0005 47.624L20.5296 47.9024C20.5704 47.9233 20.6203 47.9073 20.6413 47.8666C20.6494 47.8508 20.6522 47.8329 20.6494 47.8154L20.547 47.2268L20.9748 46.8102C21.0074 46.7789 21.0085 46.7271 20.9771 46.6945ZM20.4017 47.1378C20.3825 47.1567 20.3737 47.1838 20.3782 47.2104L20.458 47.6772L20.0384 47.4571C20.0143 47.4446 19.9857 47.4446 19.9616 47.4571L19.542 47.6772L19.6218 47.2104C19.6263 47.1838 19.6175 47.1567 19.5983 47.1378L19.2595 46.8072L19.7283 46.7396C19.7552 46.7358 19.7785 46.7189 19.7907 46.6946L19.9954 46.2698L20.2001 46.6946C20.2122 46.7189 20.2356 46.7358 20.2625 46.7396L20.7313 46.8072L20.4017 47.1378Z" fill="#146EB4"/>
<path d="M23.9771 46.6945C23.9643 46.681 23.9472 46.6724 23.9288 46.67L23.3372 46.584L23.0742 46.0466C23.0497 46.006 22.9969 45.9928 22.9562 46.0172C22.9442 46.0245 22.9341 46.0346 22.9268 46.0466L22.6628 46.582L22.0712 46.668C22.0264 46.6739 21.9948 46.715 22.0007 46.7598C22.0031 46.7782 22.0117 46.7953 22.0251 46.8082L22.4529 47.2248L22.3506 47.8133C22.3433 47.8585 22.374 47.9011 22.4192 47.9084C22.4366 47.9113 22.4546 47.9084 22.4703 47.9003L23.0005 47.624L23.5296 47.9024C23.5704 47.9233 23.6203 47.9073 23.6413 47.8666C23.6494 47.8508 23.6522 47.8329 23.6494 47.8154L23.547 47.2268L23.9748 46.8102C24.0074 46.7789 24.0085 46.7271 23.9771 46.6945ZM23.4017 47.1378C23.3825 47.1567 23.3737 47.1838 23.3782 47.2104L23.458 47.6772L23.0384 47.4571C23.0143 47.4446 22.9857 47.4446 22.9616 47.4571L22.542 47.6772L22.6218 47.2104C22.6263 47.1838 22.6175 47.1567 22.5983 47.1378L22.2595 46.8072L22.7283 46.7396C22.7552 46.7358 22.7785 46.7189 22.7907 46.6946L22.9954 46.2698L23.2001 46.6946C23.2122 46.7189 23.2356 46.7358 23.2625 46.7396L23.7313 46.8072L23.4017 47.1378Z" fill="#146EB4"/>
</svg>
