<svg width="16" height="16" viewBox="0 0 16 16" fill="none" xmlns="http://www.w3.org/2000/svg">
<path d="M1 8C1 2.94194 5.51613 1 8 1V8H1Z" fill="#FF9900"/>
<path d="M15 8C15 2.94194 10.4839 1 8 1V8H15Z" fill="#FF9900"/>
<path d="M1 8C1 13.0581 5.51613 15 8 15V8H1Z" fill="#FF9900"/>
<path d="M15 8C15 13.0581 10.4839 15 8 15V8H15Z" fill="#FF9900"/>
<path d="M8 1C5.51613 1 1 2.94194 1 8M8 1V8M8 1C10.4839 1 15 2.94194 15 8M1 8H8M1 8C1 13.0581 5.51613 15 8 15M8 8H15M8 8V15M2.80645 3.25806C3.70968 4.16129 5.29032 5.51613 5.29032 7.77419M15 8C15 13.0581 10.4839 15 8 15M13.1935 3.25806C12.2903 4.16129 10.7097 5.51613 10.7097 7.77419M2.80645 12.7419C3.70968 11.8387 5.29032 10.4839 5.29032 8.22581M13.1935 12.7419C12.2903 11.8387 10.7097 10.4839 10.7097 8.22581" stroke="#202A25" stroke-width="0.5"/>
</svg>
