<svg width="50" height="54" viewBox="0 0 50 54" fill="none" xmlns="http://www.w3.org/2000/svg">
<path d="M49.801 5.22396C48.2995 5.11073 47.2532 4.71742 46.6867 4.05116C45.7446 2.98325 45.5289 1.18829 45.4815 0.213345C45.4815 0.0929659 45.3855 0 45.2658 0H45.0905C45.0265 0 44.9708 0.0286047 44.9222 0.0691284C44.8902 0.10846 44.8665 0.164478 44.8665 0.225263C44.8748 0.999978 44.5074 3.00351 43.5653 4.11195C42.974 4.83422 41.9359 5.27998 40.5636 5.40036C40.5067 5.40036 40.4593 5.4087 40.419 5.42062C40.3633 5.43254 40.3076 5.47664 40.2756 5.53742C40.2436 5.58867 40.2436 5.65303 40.2673 5.71382C40.291 5.77341 40.291 5.81036 40.3076 5.86638C40.3076 5.94981 40.3633 6.02251 40.4427 6.04635C40.4759 6.05827 40.547 6.06661 40.5636 6.06661C44.2443 6.07019 44.8748 9.42411 44.9222 11.4145C44.9222 11.5599 45.0502 11.6958 45.3049 11.6958C45.3452 11.6958 45.4009 11.6922 45.4412 11.6839C45.5289 11.6601 45.6012 11.579 45.6095 11.4789C45.6889 10.3991 45.8643 8.15477 46.7898 7.30377C47.5814 6.51595 48.5389 6.06304 49.7358 5.92597C49.8318 5.91405 49.9124 5.84135 49.9361 5.74123C49.9361 5.69713 49.9444 5.66495 49.9681 5.61728C50.0001 5.54457 50.0001 5.4969 50.0001 5.44803C50.0001 5.33242 49.9124 5.23946 49.801 5.22396Z" fill="#00AB96"/>
<path d="M21.2657 19.3811C22.151 18.2727 22.9817 17.1809 23.5161 15.8997C24.0755 14.5946 24.4831 13.249 24.6431 11.8569C24.8256 10.4552 24.7616 9.05358 24.5222 7.66863C24.4748 7.36709 24.3871 7.20738 24.0601 7.23122C22.798 7.3361 21.5288 7.60904 20.2916 7.98567C19.077 8.35157 17.9038 8.87719 16.7614 9.50411C15.6522 10.1263 14.4707 10.7043 13.4729 11.5589C13.2335 11.7556 13.4492 12.0333 13.6732 12.2454C15.4602 14.0487 15.3334 14.1739 17.1299 15.976C18.9099 17.7745 18.5425 17.5182 20.3307 19.3239C20.5784 19.5647 21.0418 19.6541 21.2657 19.3811Z" fill="#00AB96"/>
<path d="M25.624 24.3547C25.8634 24.6073 25.8634 24.5036 26.1194 24.2545C27.5959 22.7766 33.4003 16.7386 34.878 15.2404C36.3617 13.7518 38.2945 11.7673 38.0551 11.5635C37.0253 10.6684 35.9552 9.73281 34.7974 9.10231C33.6159 8.45989 32.1868 8.33951 30.9093 7.97719C29.6247 7.60056 28.3224 7.31212 26.9892 7.23108C26.6218 7.1989 26.3588 7.39555 26.4382 7.76146C26.6538 9.30731 26.6064 11.0939 26.4382 12.6588C26.1988 14.8435 25.8717 15.4776 25.233 16.9234C24.6025 18.3369 23.5159 19.6372 22.4861 20.8625C22.2704 21.1235 24.3063 23.0341 25.624 24.3547Z" fill="#00AB96"/>
<path d="M32.2282 31.1926C34.0164 32.984 33.8007 32.9792 35.5806 34.7742C37.3701 36.5643 37.6485 36.3725 39.4214 38.171C39.669 38.4201 40.0044 38.4594 40.2201 38.1865C41.0579 37.1996 41.5769 36.1472 42.192 35.0352C42.8058 33.8946 43.5097 32.7635 43.8771 31.5418C44.2433 30.3011 44.3476 28.6313 44.4519 27.3464C44.4673 27.0294 44.2599 26.9448 43.9482 26.8721C42.5593 26.6683 41.1219 26.5908 39.733 26.76C38.3525 26.9412 37.0987 27.3297 35.8046 27.8887C33.7284 28.7719 33.226 29.4739 32.1239 30.3774C31.8442 30.5907 31.9888 30.9447 32.2282 31.1926Z" fill="#00AB96"/>
<path d="M30.1838 28.904C30.4066 29.1293 30.6222 28.792 30.8782 28.5905C32.0917 27.5548 36.2512 23.8374 44.2751 24.7122C44.6507 24.7527 44.0926 21.9185 43.724 20.6253C43.3579 19.3404 42.9656 18.1045 42.3198 16.9186C41.6893 15.7505 40.9297 14.7029 40.0516 13.6671C39.8442 13.4264 39.6214 13.1248 39.4058 13.3501C37.928 14.8352 36.9859 15.6385 35.5093 17.1319C33.8728 18.8065 28.7866 24.0293 27.3018 25.5155C27.3018 25.5155 28.866 27.587 30.1838 28.904Z" fill="#00AB96"/>
<path d="M19.2948 20.89C18.1442 19.6373 18.1608 19.6135 17.003 18.3525C15.8452 17.1034 15.7812 17.1571 14.6317 15.9115C13.4739 14.647 13.4182 14.6875 12.2687 13.4301C12.0294 13.1738 11.6857 13.0368 11.4534 13.2942C10.695 14.1202 10.1203 15.076 9.53012 15.9878C8.93878 16.9234 8.58801 17.9711 8.17206 18.9794C7.7573 20.0032 7.35794 21.002 7.11856 22.0711C6.87918 23.1474 6.60781 24.2225 6.55093 25.319C6.49523 26.4143 6.60781 27.5192 6.74409 28.6073C6.83889 29.4178 7.16596 30.8314 7.38164 31.6144C7.44563 31.8874 -0.218022 40.644 0.00476517 40.8764C0.301025 41.1816 9.52182 31.3165 10.6393 30.2807C11.7414 29.245 13.7619 26.9769 14.8794 25.9328C15.9969 24.897 15.9412 24.8375 17.0504 23.8053C18.1679 22.7696 18.0885 22.6897 19.1989 21.6456C19.4536 21.4084 19.5259 21.1474 19.2948 20.89Z" fill="#00AB96"/>
<path d="M28.8824 30.1079C27.6606 28.8922 27.4698 28.7921 26.2481 27.5716C26.0158 27.338 26.1201 27.4107 25.9044 27.2296C25.761 27.1056 25.729 27.17 25.6093 27.2498C24.1873 28.2736 15.9797 36.581 15.5898 36.1471C15.1893 35.7133 24.8106 26.2177 24.5629 25.9817C24.4113 25.8291 24.1482 25.5717 23.9159 25.3428C22.7024 24.1176 22.623 24.2022 21.4096 22.9829C21.1702 22.7326 20.9936 22.6492 20.7625 22.8935C19.613 24.0294 19.5099 23.9257 18.3758 25.0663C17.2252 26.2057 17.2252 26.2057 16.0994 27.3547C14.9499 28.4941 10.288 33.0077 9.14557 34.1555C8.9299 34.376 8.94649 34.7014 9.08988 34.9982C9.52123 35.7538 10.1363 36.637 10.6707 37.3509C11.1898 38.0541 11.8368 38.6846 12.4672 39.3187C13.0977 39.9492 13.8324 40.439 14.5185 40.9575C14.8788 41.2221 15.3741 41.5916 15.9963 41.9289C15.9963 41.9289 13.9758 44.4747 11.6448 47.2041C8.92279 50.4007 5.87249 53.8535 5.99218 53.9894C6.43183 54.4959 23.1018 36.6894 24.2359 35.5452C25.37 34.3975 25.37 34.3879 26.5112 33.2485C27.6452 32.1079 27.5564 32.0233 28.6904 30.8755C28.9381 30.6347 29.1135 30.3499 28.8824 30.1079Z" fill="#00AB96"/>
<path d="M29.904 32.3247C28.8588 33.4283 28.7545 33.3366 27.7247 34.4486C26.6712 35.5522 22.3268 39.8013 21.2733 40.9085C20.2364 42.0169 14.2401 48.4292 14.6075 48.8189C14.7746 48.9942 20.0516 44.0968 20.1796 44.1373C21.098 44.4496 21.9204 44.7785 22.8791 44.9156C23.9646 45.0598 25.0667 45.204 26.1593 45.1647C27.2542 45.117 28.3077 44.7153 29.3849 44.4853C30.4467 44.2612 31.5808 44.1683 32.594 43.7559C33.593 43.3411 34.5908 42.8203 35.5246 42.2339C36.4347 41.651 37.3295 40.9812 38.1519 40.2256C38.4067 40.0015 38.2313 39.7286 38.0002 39.5116C36.7618 38.3269 36.8981 38.4556 35.6443 37.2828C34.4071 36.0981 34.368 35.8693 33.1214 34.6858C31.8842 33.513 31.9079 33.4808 30.6624 32.308C30.4159 32.0601 30.1363 32.0672 29.904 32.3247Z" fill="#00AB96"/>
</svg>
