<svg width="54" height="54" viewBox="0 0 54 54" fill="none" xmlns="http://www.w3.org/2000/svg">
<path d="M27.4572 26.7069H31.4581L34.1672 16.2846L33.515 14.884C29.9735 17.1285 26.8767 20.0222 24.3964 23.3879L25.3357 28.3233L27.4572 26.7069Z" fill="#F9A50D"/>
<path d="M32.9482 13.6666L30.6291 8.68588C30.5496 8.53694 30.4374 8.43517 30.3197 8.40546C30.1719 8.36832 30.0111 8.44743 29.9011 8.52209L22.5742 13.8129L24.0625 21.6327C26.5428 18.4998 29.5505 15.7966 32.9482 13.6666Z" fill="#F9A50D"/>
<path d="M29.0123 34.2366L30.5221 28.0381H27.9066L25.6139 29.7849L26.3768 33.7935L29.0123 34.2366Z" fill="#F9A50D"/>
<path d="M31.2152 41.2795L29.389 35.65L26.3032 35.1311L25.8665 39.8027C27.5987 40.4568 29.3871 40.9504 31.2152 41.2795Z" fill="#F9A50D"/>
<path d="M23.3128 29.8643L25.3355 28.3233L24.3962 23.3879C23.6716 24.3711 22.9993 25.3943 22.3843 26.4536L23.3128 29.8643Z" fill="#F2581A"/>
<path d="M21.9017 24.681C22.5677 23.6258 23.2897 22.6088 24.0626 21.6328L22.574 13.813L19.5396 16.0043L21.9017 24.681Z" fill="#F2581A"/>
<path d="M24.7704 33.5232L26.3768 33.7936L25.6139 29.7849L24.1858 30.8732L24.7704 33.5232Z" fill="#F2581A"/>
<path d="M23.5704 38.8271C24.3237 39.1844 25.0895 39.5097 25.8665 39.8028L26.3033 35.1311L24.6951 34.8604L23.5704 38.8271Z" fill="#F2581A"/>
<path d="M28.6156 43.9763C29.7681 43.9763 30.8935 43.86 31.9814 43.6413L32.2384 44.4327L31.6783 42.7068C29.6471 42.3877 27.6607 41.8744 25.7383 41.1736L25.5028 43.6907C26.5119 43.8779 27.5519 43.9763 28.6156 43.9763Z" fill="#F9A50D"/>
<path d="M32.2385 44.4326C32.1356 44.4634 32.0327 44.4939 31.9291 44.5229C32.0327 44.4939 32.1356 44.4634 32.2385 44.4326Z" fill="#2A3C90"/>
<path d="M31.9813 43.6412C30.8934 43.8603 29.768 43.9762 28.6155 43.9762C27.5518 43.9762 26.5118 43.8778 25.5027 43.6906L25.7382 41.1735C24.8795 40.8608 24.0338 40.5105 23.2025 40.1235L22.4389 42.817L21.9642 44.4917C22.1314 44.54 22.2996 44.5853 22.4686 44.6288C22.5028 44.6373 22.5373 44.6459 22.5715 44.6544C22.7175 44.6912 22.8642 44.7257 23.0113 44.7592C23.0265 44.7625 23.0417 44.7666 23.0573 44.7699C23.0833 44.7759 23.1097 44.7814 23.136 44.787C23.1769 44.7959 23.2174 44.8048 23.2586 44.8134C23.311 44.8245 23.3634 44.8353 23.4161 44.8461C23.4491 44.8524 23.4822 44.8587 23.5153 44.865C23.578 44.8773 23.6404 44.8895 23.7032 44.901C23.7143 44.9029 23.7255 44.9055 23.7366 44.9074C23.7545 44.9107 23.7723 44.914 23.7901 44.9174C23.831 44.9244 23.8718 44.9308 23.9127 44.9378C23.9966 44.9519 24.0806 44.9664 24.1649 44.9794C24.1797 44.982 24.1946 44.9846 24.2094 44.9868C24.2261 44.9894 24.2425 44.9917 24.2592 44.9943C24.2852 44.9984 24.3112 45.0017 24.3372 45.0054C24.4208 45.0177 24.5051 45.0299 24.5894 45.0411C24.6013 45.0426 24.6135 45.0444 24.6258 45.0459C24.8717 45.0778 25.119 45.1064 25.3683 45.1287V45.1269C25.9068 45.1751 26.452 45.2 27.0032 45.2C27.7141 45.2 28.4153 45.1592 29.1051 45.0801C29.1155 45.0786 29.1259 45.0775 29.1359 45.0764C29.2856 45.0585 29.4345 45.0392 29.5831 45.018C29.5961 45.0162 29.6091 45.0143 29.6221 45.0128C29.6328 45.011 29.644 45.0099 29.6547 45.008C29.7929 44.988 29.93 44.9657 30.067 44.9423C30.1302 44.9315 30.1929 44.9204 30.2561 44.9088C30.3285 44.8958 30.4009 44.8821 30.4733 44.868H30.4737C30.6267 44.8383 30.779 44.8067 30.9309 44.7733C30.9502 44.7688 30.9696 44.7647 30.9889 44.7606C30.9892 44.7606 30.9896 44.7603 30.99 44.7603C31.3061 44.6893 31.6192 44.6102 31.9289 44.5229C32.0322 44.494 32.1354 44.4635 32.2383 44.4327L31.9813 43.6412Z" fill="#F2581A"/>
<path d="M15.7118 15.9708C18.0804 13.2023 21.3243 11.2059 25.0147 10.4089L27.2365 8.80437C27.1585 8.80325 27.0812 8.80103 27.0032 8.80103C26.0624 8.80103 25.138 8.87234 24.2358 9.01013C24.2262 9.01162 24.2165 9.0131 24.2068 9.01459C24.072 9.03539 23.9379 9.05767 23.8042 9.08144C23.7593 9.08961 23.7151 9.09816 23.6705 9.10633C23.5728 9.12453 23.4755 9.14273 23.3786 9.16241C23.3036 9.17764 23.2289 9.19398 23.1546 9.20995C23.0893 9.22407 23.0239 9.23781 22.9589 9.25267C22.8575 9.27569 22.7565 9.30021 22.6558 9.32472C22.619 9.33401 22.5819 9.34255 22.5451 9.35183C22.42 9.3834 22.2948 9.41646 22.1704 9.451C22.1596 9.45397 22.1488 9.45657 22.1377 9.45954C19.1887 10.2789 16.5386 11.8236 14.3922 13.8883C14.7707 14.6211 15.2138 15.3171 15.7118 15.9708Z" fill="#2B378C"/>
<path d="M11.6397 27.0008C11.6397 23.2825 12.836 19.844 14.8632 17.0476C14.3254 16.3727 13.8415 15.6537 13.4214 14.8967C11.5654 16.977 10.1797 19.4852 9.43054 22.2519C9.41642 22.3042 9.40194 22.3562 9.3882 22.4086C9.3726 22.4688 9.35811 22.5289 9.34288 22.5891C9.32097 22.6775 9.29906 22.7652 9.27863 22.8536C9.26934 22.8925 9.2608 22.9315 9.25226 22.9705C9.22663 23.0823 9.20212 23.1941 9.17872 23.307C9.17426 23.329 9.1698 23.3512 9.16535 23.3735C9.1386 23.5054 9.11335 23.6372 9.08958 23.7702C9.08809 23.7765 9.08735 23.7832 9.08624 23.7895C8.90053 24.8317 8.80359 25.9047 8.80359 27.0008C8.80359 27.9289 8.87341 28.8415 9.0075 29.7325C9.90632 29.3841 10.8144 29.0632 11.7311 28.7683C11.6709 28.1871 11.6397 27.5976 11.6397 27.0008Z" fill="#2B378C"/>
<path d="M15.0745 37.2392C13.5135 35.1779 12.4126 32.7492 11.9238 30.1055C11.0272 30.3989 10.1384 30.7172 9.25928 31.0633C9.26076 31.0704 9.26225 31.0775 9.26373 31.0849C9.30645 31.2702 9.35213 31.4548 9.40042 31.6379C9.40747 31.6643 9.4149 31.6907 9.42196 31.717C9.46913 31.8927 9.51815 32.0673 9.57052 32.2407C9.57387 32.2515 9.57684 32.2623 9.58018 32.2734C10.4147 35.0256 11.8848 37.5044 13.8191 39.5379C14.1694 38.7286 14.5906 37.9602 15.0745 37.2392Z" fill="#2B378C"/>
<path d="M20.6987 44.0757L21.2082 42.2788C19.2093 41.3079 17.4302 39.9559 15.9639 38.3176C15.5267 39.0144 15.1516 39.7565 14.8492 40.5372C16.5433 42.06 18.5237 43.2701 20.6987 44.0757Z" fill="#2B378C"/>
<path d="M39.5462 14.0131C39.5693 13.97 39.593 13.9273 39.6157 13.8838C39.596 13.8649 39.5763 13.8456 39.5566 13.827C39.4708 13.7453 39.3843 13.6643 39.2966 13.5845C39.2658 13.5559 39.235 13.5276 39.2038 13.4994C39.0901 13.3969 38.9754 13.2955 38.8591 13.1956C38.8528 13.1904 38.8465 13.1848 38.8402 13.1793C37.135 11.7203 35.1702 10.5816 33.0587 9.83393C33.0149 9.81833 32.9703 9.80384 32.9265 9.78861C32.8155 9.75036 32.7044 9.71247 32.593 9.67645C32.5796 9.67199 32.5662 9.66828 32.5525 9.66382L32.9856 10.5938C35.4339 11.2446 37.6646 12.4279 39.5462 14.0131Z" fill="#2B378C"/>
<path d="M39.155 40.5376C39.1323 40.4793 39.1078 40.4213 39.084 40.363C37.3807 41.6994 35.4159 42.7167 33.2788 43.3262L33.4983 44.0025C35.5976 43.1977 37.5111 42.0151 39.155 40.5376Z" fill="#2B378C"/>
<path d="M15.712 15.9709C16.6339 17.1809 17.7459 18.2428 19.0043 19.1052L18.013 15.4646L25.0149 10.4089C21.3245 11.206 18.0805 13.2023 15.712 15.9709Z" fill="#2B378C"/>
<path d="M35.576 16.1564L34.7693 19.2603C36.7712 17.9459 38.424 16.1334 39.5464 14.013C37.6648 12.4278 35.4341 11.2441 32.9857 10.5938L35.576 16.1564Z" fill="#2B378C"/>
<path d="M21.2081 42.2786L23.5313 34.0848L23.242 32.7737C20.1886 33.6914 17.621 35.6763 15.9637 38.3182C17.4301 39.9561 19.2092 41.3077 21.2081 42.2786Z" fill="#3D4EA9"/>
<path d="M22.4169 31.6397L21.4338 28.0288C18.1943 28.3999 15.0102 29.0963 11.9241 30.1054C12.4129 32.7491 13.5137 35.1778 15.0748 37.2392C16.8208 34.6381 19.3877 32.6574 22.4169 31.6397Z" fill="#2B378C"/>
<path d="M11.7313 28.7683C14.7687 27.7904 17.8979 27.1066 21.0798 26.7293L19.5154 20.9835C17.7177 19.9903 16.1359 18.6439 14.8634 17.0476C12.8362 19.844 11.6399 23.2825 11.6399 27.0008C11.6399 27.5976 11.6711 28.1874 11.7313 28.7683Z" fill="#3D4EA9"/>
<path d="M30.7403 32.7673L30.36 34.3288L33.2789 43.3263C35.4161 42.7172 37.3808 41.6995 39.0842 40.3631C37.6048 36.7251 34.502 33.8953 30.7403 32.7673Z" fill="#3D4EA9"/>
<path d="M31.9117 27.9583L31.0555 31.4726C33.1682 32.0936 35.127 33.2026 36.7542 34.7072C38.2001 36.0443 39.3556 37.6681 40.1467 39.4569C40.1589 39.4844 40.1719 39.5115 40.1838 39.5393C40.4925 39.2147 40.7881 38.8775 41.0726 38.5309C42.8283 36.3927 44.1082 33.8496 44.7455 31.0637C40.6351 29.4454 36.323 28.4021 31.9117 27.9583Z" fill="#2B378C"/>
<path d="M9.57056 32.2407C9.51856 32.0673 9.46917 31.8927 9.422 31.717C9.4688 31.8927 9.51856 32.0673 9.57056 32.2407Z" fill="white"/>
<path d="M9.40047 31.6378C9.35219 31.4546 9.30651 31.2701 9.26379 31.0847C9.30651 31.2704 9.35256 31.4543 9.40047 31.6378Z" fill="white"/>
<path d="M24.2592 44.9942C24.2425 44.992 24.2258 44.9894 24.2095 44.9868C24.2258 44.9894 24.2425 44.992 24.2592 44.9942Z" fill="white"/>
<path d="M29.6548 45.0081C29.631 45.0114 29.6069 45.0147 29.5831 45.0181C29.6069 45.0147 29.631 45.0114 29.6548 45.0081Z" fill="white"/>
<path d="M30.2562 44.9089C30.1934 44.9204 30.1303 44.9316 30.0671 44.9424C30.1303 44.9316 30.1934 44.9204 30.2562 44.9089Z" fill="white"/>
<path d="M29.1359 45.0764C29.1255 45.0775 29.1155 45.0786 29.1051 45.0801C29.1155 45.0786 29.1255 45.0775 29.1359 45.0764Z" fill="white"/>
<path d="M30.9312 44.7734C30.7793 44.8069 30.627 44.8384 30.4736 44.8681C30.627 44.8384 30.7793 44.8069 30.9312 44.7734Z" fill="white"/>
<path d="M23.7902 44.9175C23.7724 44.9142 23.7545 44.9108 23.7367 44.9075C23.7545 44.9108 23.7724 44.9145 23.7902 44.9175Z" fill="white"/>
<path d="M23.4163 44.8457C23.3583 44.8342 23.3004 44.8223 23.2424 44.8101C23.3004 44.8223 23.3583 44.8346 23.4163 44.8457Z" fill="white"/>
<path d="M24.2069 9.01447C24.2166 9.01298 24.2262 9.0115 24.2359 9.01001C24.2262 9.0115 24.2166 9.01298 24.2069 9.01447Z" fill="white"/>
<path d="M23.6707 9.10643C23.7152 9.09826 23.7594 9.08971 23.8044 9.08154C23.7594 9.08934 23.7152 9.09826 23.6707 9.10643Z" fill="white"/>
<path d="M32.5931 9.67651C32.7046 9.71254 32.8156 9.75043 32.9267 9.78868C32.8156 9.7508 32.7049 9.71254 32.5931 9.67651Z" fill="white"/>
<path d="M39.2969 13.5845C39.3845 13.6643 39.4711 13.7453 39.5569 13.827C39.4711 13.7453 39.3842 13.6643 39.2969 13.5845Z" fill="white"/>
<path d="M38.8591 13.1956C38.9754 13.2955 39.0902 13.3969 39.2038 13.4994C39.0902 13.3969 38.9754 13.2955 38.8591 13.1956Z" fill="white"/>
<path d="M23.1543 9.20989C23.229 9.19392 23.3036 9.17758 23.3786 9.16235C23.3036 9.17758 23.229 9.19392 23.1543 9.20989Z" fill="white"/>
<path d="M22.6559 9.32474C22.7565 9.30023 22.8576 9.27571 22.959 9.25269C22.8576 9.27571 22.7565 9.30023 22.6559 9.32474Z" fill="white"/>
<path d="M22.1705 9.4506C22.295 9.41643 22.4201 9.38338 22.5453 9.35181C22.4201 9.38338 22.2953 9.4168 22.1705 9.4506Z" fill="white"/>
<path d="M45.186 27.7815C45.1849 27.8086 45.1837 27.8357 45.1823 27.8628C45.1837 27.8357 45.1849 27.8086 45.186 27.7815Z" fill="white"/>
<path d="M45.1076 28.8645C45.1013 28.9262 45.0953 28.9874 45.0883 29.0487C45.0953 28.9874 45.1013 28.9262 45.1076 28.8645Z" fill="white"/>
<path d="M45.1401 28.5156C45.136 28.5658 45.1319 28.6159 45.1271 28.6657C45.1319 28.6159 45.136 28.5658 45.1401 28.5156Z" fill="white"/>
<path d="M45.1663 28.1526C45.164 28.1927 45.161 28.2328 45.1584 28.2729C45.161 28.2328 45.164 28.1927 45.1663 28.1526Z" fill="white"/>
<path d="M33.6221 23.6744L32.8306 26.7189C37.0064 27.2062 41.0897 28.2161 44.9985 29.7322C45.0275 29.539 45.0535 29.3444 45.0765 29.149C45.0802 29.1156 45.0847 29.0822 45.0884 29.0488C45.0954 28.9875 45.1014 28.9258 45.1077 28.8645C45.1144 28.7984 45.1211 28.7323 45.1274 28.6658C45.1318 28.6161 45.1359 28.5659 45.14 28.5158C45.1467 28.4348 45.153 28.3542 45.1586 28.2729C45.1612 28.2328 45.1641 28.1927 45.1664 28.1525C45.1723 28.056 45.1779 27.9598 45.1823 27.8632C45.1838 27.8357 45.1849 27.8086 45.1861 27.7815C45.1916 27.6578 45.1957 27.5341 45.1983 27.4097C45.1983 27.4082 45.1987 27.4067 45.1987 27.4053C45.2013 27.2704 45.2035 27.136 45.2035 27.0008C45.2035 24.3738 44.659 21.8459 43.6079 19.522C40.832 21.798 37.3919 23.2941 33.6221 23.6744Z" fill="#2B378C"/>
<path d="M41.2086 15.6217C41.008 15.3714 40.8004 15.1274 40.5872 14.8889C40.5868 14.8893 40.5865 14.89 40.5861 14.8908C40.5772 14.9064 40.5679 14.9216 40.559 14.9376C39.1094 17.5341 36.9247 19.6857 34.2936 21.0897L33.6221 23.6744C37.3919 23.294 40.832 21.798 43.6079 19.5219C42.9843 18.1429 42.1821 16.8351 41.2086 15.6217Z" fill="#3D4EA9"/>
<path fill-rule="evenodd" clip-rule="evenodd" d="M27 46.6334C16.1569 46.6334 7.36664 37.8431 7.36664 27C7.36664 16.1565 16.1569 7.36627 27 7.36627C37.8435 7.36627 46.6337 16.1565 46.6337 27C46.6337 37.8431 37.8435 46.6334 27 46.6334ZM27 0C12.0884 0 0 12.0881 0 27C0 41.9116 12.0884 54 27 54C41.9119 54 54 41.9116 54 27C54 12.0881 41.9119 0 27 0Z" fill="#2B378C"/>
<path fill-rule="evenodd" clip-rule="evenodd" d="M9.31765 39.9489L9.29017 39.947L7.89699 42.414L7.89551 42.4407L8.2361 42.8548L8.26358 42.8578L10.95 41.9567L10.953 41.9293L10.5864 41.4865L10.5597 41.4836L8.68699 42.1354L9.6809 40.4198L9.68313 40.3931L9.31765 39.9489Z" fill="white"/>
<path fill-rule="evenodd" clip-rule="evenodd" d="M11.3497 42.3115L11.3222 42.3123L10.9797 42.6744L10.9805 42.7015L11.5517 43.2408L10.0906 44.7877L10.0913 44.8141L10.4534 45.1566L10.4806 45.1562L11.9417 43.6096L12.5137 44.1493L12.5401 44.1482L12.8825 43.7864L12.8818 43.7593L11.3497 42.3115Z" fill="white"/>
<path fill-rule="evenodd" clip-rule="evenodd" d="M12.9142 45.7493L13.1578 45.9358C13.3097 46.0524 13.3703 46.1947 13.2425 46.3622C13.1148 46.5289 12.9614 46.5085 12.8095 46.3922L12.5658 46.2073L12.9142 45.7493ZM13.5415 44.9266L13.6945 45.0429C13.862 45.1703 13.8795 45.3051 13.787 45.4269C13.6934 45.5491 13.5593 45.5666 13.3915 45.4385L13.2396 45.3222L13.5415 44.9266ZM13.4553 44.1853L13.4286 44.1898L11.8245 46.2931L11.8289 46.3191L12.5142 46.8424C12.9101 47.1455 13.3896 47.1492 13.7146 46.7221C13.8895 46.4929 13.9152 46.175 13.7896 45.9599C13.959 45.9919 14.1547 45.9246 14.294 45.7412C14.5726 45.3753 14.4151 44.9188 14.0195 44.6158L13.4553 44.1853Z" fill="white"/>
<path fill-rule="evenodd" clip-rule="evenodd" d="M16.1216 46.0061L16.096 46.0146L15.4311 47.3321C15.0761 48.0333 15.3479 48.6859 15.9299 48.9793C16.512 49.2734 17.1983 49.1044 17.5523 48.4028L18.2171 47.0854L18.2093 47.0594L17.7636 46.8351L17.7384 46.8433L17.1081 48.0931C16.8748 48.5544 16.5049 48.6476 16.1807 48.4834C15.8553 48.3196 15.7112 47.9672 15.9444 47.5048L16.5751 46.2561L16.5658 46.2308L16.1216 46.0061Z" fill="white"/>
<path fill-rule="evenodd" clip-rule="evenodd" d="M18.8221 47.3079L18.7979 47.3205L17.957 49.8279L17.9685 49.8521L18.4414 50.0106L18.4655 49.9988L19.0196 48.3452L19.7383 50.4251L19.7673 50.4552L20.2583 50.6201L20.2828 50.6079L21.1237 48.1001L21.1122 48.0759L20.639 47.917L20.6156 47.93L20.0607 49.5835L19.3432 47.5025L19.3127 47.472L18.8221 47.3079Z" fill="white"/>
<path fill-rule="evenodd" clip-rule="evenodd" d="M21.8637 48.2554L21.84 48.2691L21.2468 50.8464L21.2613 50.8705L21.7468 50.9827L21.7694 50.9678L22.3637 48.3898L22.3488 48.3675L21.8637 48.2554Z" fill="white"/>
<path fill-rule="evenodd" clip-rule="evenodd" d="M23.0207 48.5161L22.9995 48.5325L22.936 49.0264L22.9524 49.0484L23.7312 49.1486L23.4575 51.2586L23.475 51.2806L23.9686 51.3444L23.9897 51.3281L24.2635 49.2181L25.0423 49.3187L25.0646 49.3024L25.1281 48.808L25.1118 48.7869L23.0207 48.5161Z" fill="white"/>
<path fill-rule="evenodd" clip-rule="evenodd" d="M25.7346 48.824L25.7149 48.8425L25.6685 51.4878L25.6874 51.506L27.5278 51.5386L27.5463 51.5197L27.5552 51.022L27.5367 51.0023L26.2141 50.9797L26.2248 50.3847L27.163 50.4014L27.1827 50.3824L27.1916 49.8844L27.1734 49.8647L26.2341 49.848L26.2427 49.3692L27.5263 49.3911L27.5452 49.3722L27.5541 48.8741L27.5352 48.8544L25.7346 48.824Z" fill="white"/>
<path fill-rule="evenodd" clip-rule="evenodd" d="M28.8522 49.3105L29.234 49.2789C29.731 49.2388 30.1016 49.5359 30.1392 50.0136C30.1781 50.4908 29.8595 50.8437 29.3636 50.8845L28.9815 50.9142L28.8522 49.3105ZM28.2925 48.8165L28.2754 48.8369L28.4878 51.474L28.509 51.4911L29.4063 51.419C30.2275 51.3525 30.772 50.7055 30.7122 49.9675C30.6532 49.2303 30.0125 48.678 29.1906 48.7444L28.2925 48.8165Z" fill="white"/>
<path fill-rule="evenodd" clip-rule="evenodd" d="M31.9361 48.2809L31.9224 48.3043L32.5876 50.8634L32.6117 50.8775L34.0955 50.492L34.1096 50.4686L33.9833 49.9861L33.9603 49.972L32.9772 50.2283L32.4412 48.1691L32.4182 48.1558L31.9361 48.2809Z" fill="white"/>
<path fill-rule="evenodd" clip-rule="evenodd" d="M33.9831 47.7031L33.9723 47.7276L34.9309 50.1935L34.9554 50.2042L36.671 49.5375L36.6818 49.5123L36.5009 49.048L36.4764 49.0376L35.2433 49.5164L35.0279 48.9622L35.9036 48.6224L35.9148 48.5979L35.7335 48.1328L35.709 48.1221L34.834 48.4627L34.6602 48.0155L35.8576 47.5505L35.868 47.5252L35.6875 47.0617L35.6633 47.0505L33.9831 47.7031Z" fill="white"/>
<path fill-rule="evenodd" clip-rule="evenodd" d="M37.4561 46.9402L38.2271 47.5423L37.6622 47.845L37.4561 46.9402ZM36.8347 46.496L36.8273 46.5216L37.3268 49.233L37.3554 49.2397L37.9021 48.9466L37.9092 48.9213L37.7948 48.378L38.6769 47.9063L39.1449 48.2602L39.1724 48.2669L39.7198 47.9742L39.7273 47.9486L37.3562 46.2382L37.3279 46.2319L36.8347 46.496Z" fill="white"/>
<path fill-rule="evenodd" clip-rule="evenodd" d="M40.7173 44.771L40.3243 44.3257C40.0205 44.4152 39.7646 44.5898 39.492 44.8312C38.8743 45.3764 38.8193 46.2693 39.3274 46.8435C39.8478 47.4326 40.7421 47.4608 41.3602 46.9144C41.6176 46.6864 41.7973 46.426 41.9102 46.1204L40.9843 45.0726L40.9572 45.07L40.2678 45.6799L40.266 45.707L40.5969 46.0802L40.6225 46.0817L40.9252 45.8151L41.2551 46.1883C41.2083 46.2808 41.0916 46.4089 40.9914 46.4988C40.5891 46.8539 40.0766 46.7948 39.772 46.4498C39.4678 46.1055 39.4723 45.59 39.8593 45.2472C40.1041 45.031 40.3863 44.859 40.7158 44.797L40.7173 44.771Z" fill="white"/>
<path fill-rule="evenodd" clip-rule="evenodd" d="M40.9929 43.7475L40.9915 43.7742L41.9943 44.8576C42.5273 45.4352 43.2341 45.4084 43.7121 44.9664C44.1912 44.5234 44.2725 43.821 43.7392 43.2453L42.7371 42.1608L42.71 42.1597L42.3442 42.4988L42.3434 42.5259L43.2927 43.5521C43.6445 43.9328 43.6029 44.3109 43.3355 44.5575C43.0677 44.8053 42.6873 44.8179 42.3356 44.4372L41.3866 43.411L41.3592 43.4099L40.9929 43.7475Z" fill="white"/>
<path fill-rule="evenodd" clip-rule="evenodd" d="M43.3351 41.4959L43.3373 41.523L45.4005 43.1784L45.4273 43.1762L46.5794 41.7414L46.5761 41.7143L46.1879 41.4023L46.1604 41.4057L45.3322 42.436L44.8698 42.0646L45.4581 41.3321L45.4548 41.305L45.0663 40.993L45.0391 40.9953L44.4508 41.7277L44.0775 41.428L44.8813 40.427L44.8791 40.3995L44.4898 40.0879L44.4634 40.0912L43.3351 41.4959Z" fill="white"/>
<path fill-rule="evenodd" clip-rule="evenodd" d="M6.93091 12.8149L6.93425 12.8424L9.03683 14.4469L9.06357 14.4439L10.18 12.9809L10.1767 12.9546L9.7804 12.6519L9.75366 12.6552L8.9514 13.7063L8.47897 13.346L9.04909 12.5999L9.04463 12.5728L8.6487 12.27L8.62233 12.2738L8.05184 13.0203L7.67151 12.7299L8.44999 11.7092L8.44702 11.6817L8.05072 11.3794L8.02435 11.3835L6.93091 12.8149Z" fill="white"/>
<path fill-rule="evenodd" clip-rule="evenodd" d="M10.0932 9.93101L10.718 9.33638L11.827 10.503L11.0912 11.2035C11.0385 11.1203 11.0129 11.0932 10.9869 11.0538L10.0932 9.93101ZM9.39015 9.85933L9.3894 9.8857L10.5367 11.3602C10.5972 11.4627 10.6377 11.5281 10.6634 11.6102L10.4242 11.8367V11.8642L11.2431 12.7263H11.2691L11.6301 12.3831L11.6313 12.3556L11.1692 11.8698L12.419 10.6805L12.8814 11.1667L12.9082 11.1675L13.2699 10.825L13.2707 10.7975L12.4513 9.93547L12.4246 9.93473L12.2162 10.1327L10.7503 8.59169L10.7232 8.59058L9.39015 9.85933Z" fill="white"/>
<path fill-rule="evenodd" clip-rule="evenodd" d="M12.1162 7.4484L12.1106 7.4744L13.6111 9.65312L13.6375 9.65795L14.0646 9.36453L14.085 9.32739L14.1998 7.1301L15.19 8.56673L15.2164 8.57119L15.6264 8.28817L15.6309 8.26254L14.1318 6.08382L14.1044 6.07788L13.6783 6.37204L13.6579 6.40955L13.542 8.60684L12.5526 7.16984L12.5262 7.16575L12.1162 7.4484Z" fill="white"/>
<path fill-rule="evenodd" clip-rule="evenodd" d="M15.4627 5.31676L15.4534 5.34239L16.5832 7.73393L16.6085 7.74322L17.0586 7.53077L17.0683 7.5044L16.5936 6.49972L17.7023 5.97528L18.1773 6.9807L18.2033 6.98961L18.6535 6.77717L18.6624 6.75117L17.5329 4.36L17.5077 4.35034L17.056 4.56391L17.0475 4.58916L17.4735 5.48984L16.3637 6.01428L15.9381 5.11248L15.9128 5.10394L15.4627 5.31676Z" fill="white"/>
<path fill-rule="evenodd" clip-rule="evenodd" d="M20.2703 4.11934L20.81 4.9034L20.2198 5.07016L20.2703 4.11934ZM19.8243 3.52842L19.8116 3.55219L19.5516 6.37346L19.5758 6.3872L20.147 6.22563L20.1604 6.20149L20.1998 5.6336L21.122 5.37361L21.4522 5.8375L21.4752 5.85087L22.0475 5.68968L22.0602 5.66554L20.3654 3.39582L20.3413 3.38208L19.8243 3.52842Z" fill="white"/>
<path fill-rule="evenodd" clip-rule="evenodd" d="M24.0967 3.18832L24.1651 3.72019L23.9749 3.7447C23.7654 3.77181 23.6421 3.71016 23.618 3.52037C23.5935 3.33094 23.6975 3.23995 23.9069 3.21283L24.0967 3.18832ZM24.5409 2.5896L23.7996 2.68542C23.2681 2.75377 22.9907 3.15638 23.0471 3.59391C23.0872 3.89847 23.2276 4.09272 23.4898 4.17443L22.734 5.50929L22.7556 5.52526L23.3632 5.4469L23.3799 5.42572L24.044 4.27768L24.2338 4.2528L24.3686 5.29907L24.3901 5.31504L24.8838 5.25153L24.9005 5.22999L24.5629 2.60631L24.5409 2.5896Z" fill="white"/>
<path fill-rule="evenodd" clip-rule="evenodd" d="M28.1941 2.49341L28.154 2.50975L27.7009 4.3152C27.6203 4.55847 27.4387 4.6569 27.2088 4.63647L27.1883 4.65319L27.1456 5.12377L27.162 5.15162C27.6582 5.19657 28.0192 5.0376 28.1837 4.49422L28.5652 3.06687L29.4053 3.14376L29.2114 5.26193L29.2282 5.28273L29.7244 5.32767L29.7463 5.31059L29.9858 2.67614L29.9691 2.65572L28.1941 2.49341Z" fill="white"/>
<path fill-rule="evenodd" clip-rule="evenodd" d="M31.4551 2.87476L31.4332 2.88924L30.8348 5.46612L30.8493 5.48914L31.3533 5.6054L31.3949 5.59537L33.0964 4.19959L32.7023 5.89882L32.7168 5.92184L33.2015 6.03475L33.2245 6.02027L33.8229 3.44339L33.8084 3.42036L33.3036 3.30411L33.2628 3.31414L31.5613 4.70917L31.9554 3.00995L31.9409 2.98767L31.4551 2.87476Z" fill="white"/>
<path fill-rule="evenodd" clip-rule="evenodd" d="M35.3763 3.95117L35.351 3.96269L34.3441 6.40808L34.3545 6.43334L34.8151 6.62239L34.8403 6.61199L35.6504 4.64535L36.8029 5.11927L36.8274 5.10887L37.0172 4.64832L37.0068 4.6238L35.3763 3.95117Z" fill="white"/>
<path fill-rule="evenodd" clip-rule="evenodd" d="M38.336 6.06303L38.1737 7.00048L37.6355 6.70632L38.336 6.06303ZM38.43 5.32837L38.4047 5.33617L36.2472 7.17244L36.2542 7.19807L36.7761 7.4822L36.8025 7.47477L37.2266 7.09556L38.0686 7.55426L37.9802 8.11658L37.9869 8.14295L38.5087 8.42782L38.5351 8.41965L38.9099 5.61064L38.9013 5.58576L38.43 5.32837Z" fill="white"/>
<path fill-rule="evenodd" clip-rule="evenodd" d="M41.1159 8.95136L41.3536 9.14412C41.5026 9.26483 41.5587 9.40894 41.4257 9.57273C41.2927 9.7369 41.1405 9.71164 40.9911 9.59056L40.7534 9.3978L41.1159 8.95136ZM41.7678 8.14761L41.9167 8.26832C42.0798 8.40055 42.0942 8.53537 41.9969 8.65422C41.9007 8.77382 41.7655 8.78793 41.6029 8.65497L41.4539 8.53426L41.7678 8.14761ZM41.7035 7.40479L41.6772 7.40776L40.011 9.46168L40.0136 9.48842L40.6832 10.0322C41.071 10.3456 41.5494 10.3642 41.8874 9.94675C42.0686 9.72353 42.1043 9.40597 41.9851 9.18683C42.1529 9.22435 42.3502 9.16269 42.4954 8.98367C42.7851 8.62674 42.6413 8.16507 42.2536 7.85048L41.7035 7.40479Z" fill="white"/>
<path fill-rule="evenodd" clip-rule="evenodd" d="M43.8392 9.17885L43.8125 9.17773L43.4526 9.52352L43.4522 9.55101L43.9971 10.1178L42.4628 11.5916V11.619L42.8078 11.9782L42.8346 11.9786L44.3689 10.5037L44.9126 11.0705L44.9401 11.0708L45.2996 10.7258V10.6987L43.8392 9.17885Z" fill="white"/>
<path fill-rule="evenodd" clip-rule="evenodd" d="M45.2777 13.144L45.4708 13.4066C45.6071 13.5912 45.6253 13.7446 45.4548 13.8702C45.2702 14.0061 45.1295 13.9444 44.9921 13.7584L44.7989 13.4965L45.2777 13.144ZM46.2192 11.8062L46.1925 11.8025L44.0643 13.3717L44.0605 13.3988L44.5839 14.1086C44.891 14.5246 45.3653 14.6516 45.7977 14.3333C46.2292 14.0146 46.2326 13.5355 45.9254 13.118L45.7089 12.8254L46.0948 12.5409L46.7429 13.4204L46.7704 13.4245L47.1708 13.1281L47.1749 13.1017L46.2192 11.8062Z" fill="white"/>
<path d="M39.6162 23.7995V23.8066C39.6868 23.8318 39.754 23.8771 39.7893 23.9057C39.8993 23.996 39.9472 24.1152 39.9472 24.2697C39.9472 24.5238 39.812 24.7069 39.5902 24.7652C39.5226 24.7845 39.4521 24.7908 39.3202 24.7908H38.6476V22.9312H39.2426C39.3648 22.9312 39.4484 22.9375 39.5226 22.9572C39.7377 23.0151 39.8796 23.1629 39.8796 23.398C39.8796 23.5228 39.835 23.629 39.7607 23.7004C39.7288 23.7323 39.6835 23.7709 39.6162 23.7995ZM39.0209 23.996V24.4852H39.2779C39.3551 24.4852 39.4261 24.4785 39.4773 24.4302C39.529 24.3823 39.5512 24.321 39.5512 24.2404C39.5512 24.1795 39.5353 24.1215 39.5033 24.0796C39.4484 24.012 39.3808 23.996 39.2656 23.996H39.0209ZM39.0175 23.6744H39.2262C39.2909 23.6744 39.3228 23.6744 39.3551 23.6647C39.4424 23.6391 39.4966 23.5618 39.4966 23.4556C39.4966 23.3301 39.4391 23.2755 39.3551 23.2498C39.3202 23.2402 39.2846 23.2372 39.214 23.2372H39.0175V23.6744ZM40.5069 24.7908V23.2435H39.9698V22.9312H41.4625L41.3563 23.2435H40.8802V24.7908H40.5069ZM41.5784 24.7908V22.9312H42.7877L42.6815 23.2435H41.948V23.655H42.2477C42.4888 23.655 42.6143 23.713 42.7012 23.7869C42.7688 23.8448 42.8843 23.9737 42.8843 24.2278C42.8843 24.4785 42.7655 24.617 42.6655 24.6876C42.5497 24.7685 42.4275 24.7908 42.1801 24.7908H41.5784ZM41.948 24.4785H42.2284C42.3346 24.4785 42.3989 24.4528 42.4434 24.3949C42.4665 24.3663 42.4984 24.3147 42.4984 24.2181C42.4984 24.1215 42.4665 24.0539 42.4022 24.0057C42.3632 23.9771 42.312 23.9607 42.2251 23.9607H41.948V24.4785Z" fill="white"/>
<path d="M38.3376 22.4666H36.7743L36.6617 22.7763H38.2247L38.3376 22.4666Z" fill="white"/>
<path d="M38.1685 22.9312H36.6052L36.4919 23.2409H38.0556L38.1685 22.9312Z" fill="white"/>
<path d="M37.9996 23.3958H36.4363L36.323 23.7063H37.8867L37.9996 23.3958Z" fill="white"/>
<path d="M40.1839 39.539C39.3917 37.718 38.2221 36.0648 36.7543 34.7073C35.1271 33.2027 33.1683 32.0936 31.0557 31.4726L31.9114 27.9583C36.3231 28.4021 40.6352 29.4455 44.7457 31.0637C44.0051 34.301 42.3987 37.2121 40.1839 39.539ZM21.9646 44.4922L23.2029 40.1236C25.8956 41.3779 28.7403 42.2452 31.6785 42.7068L32.2386 44.4328C30.5795 44.9323 28.822 45.202 27.0024 45.202C25.2553 45.202 23.565 44.9535 21.9646 44.4922ZM9.25883 31.0633C13.1631 29.5261 17.2524 28.5076 21.4338 28.0289L22.4169 31.6398C18.5479 32.9394 15.4332 35.81 13.8194 39.5375C11.6054 37.2106 9.9998 34.3002 9.25883 31.0633ZM13.4216 14.8968C14.8345 17.4443 16.9575 19.5706 19.5154 20.9835L21.0798 26.7293C16.9375 27.2203 12.8846 28.2291 9.00626 29.7329C8.87144 28.8415 8.80124 27.9293 8.80124 27.0008C8.80124 22.3574 10.5499 18.1158 13.4216 14.8968ZM27.239 8.80296L18.0131 15.4647L19.004 19.1053C17.0663 17.7771 15.4719 15.9772 14.3925 13.8884C17.6662 10.7391 22.112 8.79962 27.0024 8.79962C27.0812 8.79962 27.1603 8.80185 27.239 8.80296ZM30.3203 8.40555C30.4376 8.43526 30.5502 8.53703 30.6293 8.68634L32.9484 13.6666C28.4922 16.46 24.7056 20.2392 21.9018 24.6809L19.5396 16.0043L29.9013 8.52217C30.0116 8.44752 30.1721 8.3684 30.3203 8.40555ZM32.5525 9.66279C35.188 10.5085 37.6138 11.9604 39.6168 13.8828C38.4936 16.0597 36.813 17.919 34.7695 19.2609L35.5762 16.1566L32.5525 9.66279ZM27.4574 26.707L23.3132 29.8644L22.3846 26.4537C25.1049 21.7679 28.939 17.7845 33.5152 14.8841L34.1674 16.2847L31.4583 26.707H27.4574ZM29.0125 34.2367L24.7706 33.5232L24.186 30.8732L27.9068 28.0382H30.5223L29.0125 34.2367ZM30.36 34.3288L30.7403 32.7674C34.5626 33.9136 37.7051 36.8154 39.1551 40.5381C37.5112 42.0152 35.5977 43.1978 33.4985 44.0023L30.36 34.3288ZM24.6952 34.8603L29.3891 35.6499L31.2158 41.2795C28.5672 40.8029 26.003 39.981 23.5706 38.827L24.6952 34.8603ZM23.2422 32.7737L23.5312 34.0848L20.6988 44.0759C18.5238 43.2703 16.5434 42.0602 14.8494 40.5374C16.299 36.7969 19.3836 33.9336 23.2422 32.7737ZM45.2036 27.0008C45.2036 27.929 45.1334 28.8408 44.9986 29.7322C41.0898 28.2161 37.0061 27.2058 32.8307 26.7189L34.294 21.0897C36.9411 19.6769 39.1377 17.5078 40.5873 14.889C40.8005 15.1274 41.0081 15.3714 41.2087 15.6218C43.8223 18.8798 45.2036 22.8146 45.2036 27.0008ZM42.2472 14.7887C39.5919 11.4779 35.8934 9.09935 31.8052 8.06422C31.5456 7.57506 31.1352 7.23782 30.6449 7.11451C30.1505 6.99046 29.6168 7.10225 29.1414 7.4291L28.9512 7.56652C28.3065 7.50264 27.6524 7.46847 27.0024 7.46847C16.2321 7.46847 7.47009 16.2305 7.47009 27.0008C7.47009 37.7707 16.2321 46.5331 27.0024 46.5331C37.7727 46.5331 46.5348 37.7707 46.5348 27.0008C46.5348 22.5728 45.012 18.2358 42.2472 14.7887Z" fill="white"/>
</svg>
