<svg width="54" height="54" viewBox="0 0 54 54" fill="none" xmlns="http://www.w3.org/2000/svg">
<path d="M54 27.0014C54 41.9125 41.9122 54 26.998 54C12.0851 54 0 41.9125 0 27.0014C0 12.0902 12.0851 0 26.998 0C41.9122 0 54 12.0902 54 27.0014Z" fill="#202A25"/>
<path d="M27.8528 34.4995V44.0123C27.8528 44.3329 28.0463 44.5278 28.371 44.4953C34.7572 43.9811 40.1408 40.0751 42.8184 34.5969C42.9808 34.2397 42.8184 34.0165 42.4653 34.0165H28.3372C28.0179 34.0165 27.8528 34.1748 27.8528 34.4995Z" fill="#E7332A"/>
<path d="M25.5979 34.0802C21.5321 34.4996 17.9223 36.659 15.6614 39.8182C15.5017 40.0482 15.5301 40.2728 15.7574 40.4663C18.4351 42.7569 21.8852 44.2032 25.629 44.4954C25.9199 44.5279 26.1107 44.3331 26.1107 44.0449V34.5632C26.1107 34.2399 25.9199 34.0477 25.5979 34.0802Z" fill="#CCAE61"/>
<path d="M27.8528 22.2119V31.7896C27.8528 32.1103 28.0179 32.2726 28.3372 32.2726H43.3015C43.5951 32.2726 43.7534 32.1455 43.8494 31.8546C44.2689 30.3054 44.5273 28.6615 44.5273 26.9825C44.5273 25.3075 44.2689 23.6961 43.8494 22.1456C43.7534 21.8547 43.5951 21.7289 43.3015 21.7289H28.3372C28.0179 21.7289 27.8528 21.8899 27.8528 22.2119Z" fill="#1488CA"/>
<path d="M26.1105 31.822V28.3395C26.1105 28.0148 25.9509 27.8551 25.6289 27.8551H9.95423C9.66334 27.8551 9.46986 28.0499 9.50233 28.3395C9.79323 32.2428 11.3411 35.7876 13.7914 38.5612C14.016 38.821 14.2744 38.7885 14.4679 38.4976C17.0494 35.08 21.08 32.7245 25.6289 32.3389C25.9509 32.3064 26.1105 32.1454 26.1105 31.822Z" fill="#CCAE61"/>
<path d="M26.1105 19.4382V9.98765C26.1105 9.66564 25.9197 9.47216 25.5977 9.50464C21.8864 9.79282 18.4348 11.2473 15.7572 13.5379C15.5286 13.7313 15.5001 13.9546 15.6612 14.2143C17.9518 17.3411 21.5305 19.5045 25.5977 19.9226C25.9197 19.9523 26.1105 19.7602 26.1105 19.4382Z" fill="#CCAE61"/>
<path d="M28.3372 19.9862H42.4653C42.8184 19.9862 42.9808 19.7602 42.8184 19.4057C40.1733 13.9235 34.7558 9.98766 28.371 9.50465C28.0463 9.47218 27.8528 9.66565 27.8528 9.95654V19.5045C27.8528 19.8252 28.0165 19.9862 28.3372 19.9862Z" fill="white"/>
<path d="M26.1105 25.6307V22.1454C26.1105 21.8545 25.9509 21.6976 25.66 21.6624C21.08 21.2768 17.0494 18.9199 14.4679 15.5036C14.2744 15.2127 14.016 15.1803 13.7914 15.4387C11.3411 18.2136 9.79323 21.7598 9.50233 25.6307C9.46986 25.9202 9.66334 26.115 9.95423 26.115H25.6289C25.9509 26.115 26.1105 25.9527 26.1105 25.6307Z" fill="#CCAE61"/>
<path d="M15.6541 46.8509L15.646 46.8644C15.4931 47.1472 15.5973 47.3488 15.8841 47.503L16.1885 47.6681L16.6283 46.8523L16.3238 46.6872C16.0221 46.5262 15.7989 46.583 15.6541 46.8509ZM15.6216 47.9536C14.9695 47.6018 14.7584 47.1215 15.0642 46.556L15.071 46.5411C15.2239 46.2583 15.4309 46.1054 15.6798 46.0635C15.9301 46.0188 16.2142 46.0865 16.516 46.2488L16.8556 46.4315L17.3778 45.4641L17.9772 45.7875L16.5417 48.4488L15.6216 47.9536Z" fill="white"/>
<path d="M12.9845 43.4413C12.7694 43.486 12.5448 43.6307 12.354 43.8689L12.3337 43.8959C12.1511 44.1232 12.0577 44.3681 12.0577 44.5914C12.0658 44.8187 12.1633 45.027 12.3716 45.1948C12.58 45.3612 12.7992 45.4113 13.0197 45.372C13.2443 45.3287 13.4594 45.1826 13.6502 44.9445L13.6705 44.9174C13.8639 44.6766 13.9505 44.4277 13.937 44.2004C13.9302 43.9717 13.8261 43.7647 13.6312 43.6077C13.4337 43.4495 13.2078 43.3994 12.9845 43.4413ZM14.5891 44.2396C14.6311 44.6198 14.5066 45.0189 14.232 45.3612L14.2103 45.3883C13.9275 45.7414 13.5609 45.9416 13.1699 45.9755C12.787 46.0147 12.3865 45.8997 12.0334 45.6169C11.6762 45.3314 11.4678 44.9688 11.4191 44.5887C11.3772 44.2085 11.4854 43.812 11.7695 43.4549L11.7912 43.4292C12.074 43.076 12.4393 42.8704 12.8222 42.8244C13.2064 42.7784 13.6123 42.8934 13.983 43.1897C14.3524 43.486 14.5526 43.858 14.5891 44.2396Z" fill="white"/>
<path d="M11.4558 41.4511C11.4207 41.8205 11.215 42.1655 10.8565 42.4699L10.8294 42.4915C10.4817 42.7865 10.0799 42.915 9.69968 42.8839C9.3195 42.8555 8.9569 42.6701 8.68089 42.3427C8.44953 42.0681 8.30882 41.7663 8.29394 41.4673C8.28312 41.1724 8.39271 40.8761 8.65383 40.6095L9.10843 41.1453C8.86084 41.4213 8.84325 41.696 9.0922 41.9909C9.40068 42.3549 9.87828 42.3495 10.3586 41.9422L10.3856 41.9206C10.8673 41.5133 10.958 41.0641 10.6319 40.6799C10.3897 40.3931 10.0745 40.316 9.74163 40.5257L9.30732 40.0129C9.6158 39.8005 9.93375 39.7315 10.2287 39.7924C10.5277 39.8492 10.8091 40.0318 11.05 40.316C11.3693 40.6934 11.4991 41.0831 11.4558 41.4511Z" fill="white"/>
<path d="M9.05139 38.3285C8.94586 38.6843 8.68068 38.986 8.27072 39.2174L8.24096 39.2336C7.84454 39.4596 7.42647 39.511 7.0571 39.4082C6.69045 39.3094 6.36979 39.0591 6.15873 38.687C5.98149 38.3745 5.90031 38.0511 5.94225 37.7548C5.98555 37.4626 6.1479 37.192 6.45503 36.9796L6.80139 37.5898C6.50509 37.8157 6.43744 38.0823 6.62821 38.4164C6.86363 38.8332 7.33446 38.917 7.88107 38.6059L7.91219 38.5896C8.46014 38.2784 8.63332 37.855 8.38437 37.4166C8.19902 37.0892 7.90407 36.9552 7.53876 37.0986L7.20728 36.5142C7.55094 36.364 7.87566 36.3545 8.15437 36.4695C8.43714 36.5818 8.67932 36.8132 8.86198 37.1379C9.10686 37.5681 9.16098 37.974 9.05139 38.3285Z" fill="white"/>
<path d="M4.84232 35.9053L4.62179 35.2559L6.62555 34.578L4.21454 34.0544L3.99536 33.405L6.85961 32.4363L7.08015 33.0844L5.06015 33.7676L7.48739 34.2871L7.70658 34.9352L4.84232 35.9053Z" fill="white"/>
<path d="M3.55044 31.5189L3.45708 30.8397L5.55149 30.5529L3.28526 29.5828L3.1919 28.9036L6.18739 28.4937L6.28075 29.1728L4.16875 29.4624L6.45393 30.4298L6.54593 31.1076L3.55044 31.5189ZM2.67236 30.9696L2.61418 30.5367C2.74542 30.5069 2.85501 30.4325 2.83607 30.2931C2.81713 30.1551 2.694 30.1037 2.5533 30.1064L2.49512 29.6789C2.86854 29.6572 3.14455 29.871 3.19596 30.2444C3.25008 30.63 3.03766 30.8979 2.67236 30.9696Z" fill="white"/>
<path d="M5.77612 26.8525C5.49471 27.096 5.10775 27.2056 4.63962 27.1813L4.6058 27.1786C4.14985 27.1542 3.76966 26.9729 3.51395 26.6874C3.25824 26.4074 3.12294 26.0231 3.14459 25.5956C3.16488 25.237 3.27041 24.9204 3.46524 24.6945C3.66007 24.4713 3.94149 24.3305 4.31491 24.317L4.27838 25.0179C3.90766 25.049 3.70607 25.237 3.68578 25.6213C3.66007 26.0975 4.01049 26.4222 4.64098 26.4561L4.67345 26.4574C5.30394 26.4926 5.67871 26.2288 5.70577 25.7255C5.72471 25.3507 5.55018 25.0774 5.16323 25.0016L5.20111 24.3305C5.56912 24.3887 5.84919 24.5565 6.02237 24.8027C6.19961 25.049 6.27808 25.3764 6.25914 25.7485C6.23208 26.2409 6.0589 26.6144 5.77612 26.8525Z" fill="white"/>
<path d="M3.70604 21.875L4.97378 22.1781L3.94822 20.8454L4.11734 20.1378L5.23355 21.6356L7.0763 20.7859L6.89094 21.5625L5.3269 22.262L6.64741 22.5786L6.48776 23.2443L3.54639 22.5407L3.70604 21.875Z" fill="white"/>
<path d="M7.00836 17.8593L5.65132 17.701L6.6877 18.5912L7.00836 17.8593ZM5.33337 17.0312L8.49934 17.3411L8.21251 17.9973L7.51302 17.9188L7.07465 18.9214L7.60773 19.3814L7.35066 19.9699L4.97754 17.8498L5.33337 17.0312Z" fill="white"/>
<path d="M7.66884 14.719L7.68372 14.7285C7.93131 14.8922 8.1505 14.8299 8.34127 14.5404L8.54286 14.2373L7.80278 13.7462L7.59848 14.0533C7.41854 14.3239 7.40501 14.5444 7.66884 14.719ZM8.91222 16.6037L8.31285 15.1966C8.0382 15.4564 7.68101 15.5281 7.29677 15.2737L7.28324 15.2642C6.75017 14.9125 6.77181 14.3577 7.15606 13.78L7.74596 12.8911L10.2652 14.5634L9.88907 15.1303L8.93116 14.4957L8.75934 14.7515L9.31676 15.9948L8.91222 16.6037Z" fill="white"/>
<path d="M14.0458 8.7699L14.0241 8.74284C13.7265 8.36401 13.3815 8.42489 13.05 8.65896L13.8997 9.74404C14.1987 9.49239 14.3448 9.15279 14.0458 8.7699ZM12.3721 10.0498L12.3911 10.0728C12.682 10.4462 13.0378 10.3989 13.3612 10.1608L12.5102 9.07567C12.2206 9.33003 12.0691 9.66422 12.3721 10.0498ZM14.5599 8.32342L14.5816 8.34912C15.0565 8.95526 14.7926 9.64122 14.2027 10.1296L14.4436 10.4354L13.9078 10.8562L13.6669 10.5504C13.0148 11.0334 12.3194 11.0916 11.8513 10.4963L11.8323 10.4733C11.3615 9.87122 11.6185 9.17985 12.2084 8.69007L11.973 8.39107L12.5088 7.97029L12.7429 8.2693C13.3964 7.78493 14.0931 7.72811 14.5599 8.32342Z" fill="white"/>
<path d="M16.9423 5.35107L17.1885 5.82462L16.0425 6.41857L16.3686 7.04635L17.2846 6.57011L17.5132 7.01253L16.5986 7.48878L16.945 8.15715L18.1491 7.53072L18.3954 8.00426L16.5864 8.94323L15.1929 6.25892L16.9423 5.35107Z" fill="white"/>
<path d="M19.9554 6.82308L21.0202 6.48619L20.4357 4.63532L19.5995 4.89915C19.6956 5.24281 19.8147 5.67576 19.8999 6.04242C19.9635 6.34548 19.996 6.6012 19.9554 6.82308ZM19.3844 8.14765L19.0556 7.10721L19.2383 7.05038C19.402 6.91373 19.3993 6.63502 19.3073 6.18989C19.2058 5.74341 19.0435 5.18598 18.8486 4.56903L20.9214 3.91418L21.6696 6.28189L22.02 6.17095L22.3488 7.21139L21.7805 7.39133L21.5938 6.87314L19.8079 7.43734L19.9527 7.96905L19.3844 8.14765Z" fill="white"/>
<path d="M24.8142 3.22815L24.8872 3.75581L23.6087 3.9317L23.7061 4.63119L24.7276 4.49048L24.7966 4.98431L23.7737 5.12638L23.8779 5.87187L25.2228 5.68651L25.2958 6.21417L23.2758 6.49288L22.8618 3.49739L24.8142 3.22815Z" fill="white"/>
<path d="M28.0887 4.15234L28.0901 4.1361C28.0955 3.81409 27.9128 3.68421 27.5881 3.67609L27.2418 3.66932L27.2201 4.59476L27.5665 4.60288C27.9088 4.60964 28.082 4.45811 28.0887 4.15234ZM27.6165 3.15655C28.3553 3.17278 28.7639 3.50426 28.749 4.14692L28.7476 4.16316C28.7422 4.48517 28.6272 4.71517 28.4243 4.86806C28.2227 5.01959 27.9372 5.0886 27.5935 5.08183L27.2093 5.07236L27.1849 6.17233L26.5044 6.15745L26.572 3.13354L27.6165 3.15655Z" fill="white"/>
<path d="M31.4126 5.45927L31.2625 4.10088L30.6266 5.3118L31.4126 5.45927ZM31.8429 3.64223L32.2515 6.79466L31.5493 6.66478L31.4695 5.96529L30.3925 5.76234L30.0651 6.38606L29.4319 6.267L30.9662 3.47852L31.8429 3.64223Z" fill="white"/>
<path d="M35.4431 7.93936L33.3108 7.11269L34.404 4.29309L35.044 4.54069L34.1442 6.85563L35.2374 7.27911L36.1358 4.96552L36.7744 5.21311L35.876 7.52806L36.2156 7.6593L35.8206 8.67673L35.2631 8.46026L35.4431 7.93936Z" fill="white"/>
<path d="M38.5728 6.1073L39.1532 6.47125L38.0289 8.26394L40.2275 7.14638L40.8079 7.51169L39.2006 10.0715L38.6202 9.70757L39.7526 7.9027L37.5445 9.03243L36.9641 8.66848L38.5728 6.1073Z" fill="white"/>
<path d="M42.1506 9.81863L42.1398 9.83081C41.9409 10.0486 41.968 10.2746 42.2223 10.51L42.4916 10.7549L43.0923 10.1001L42.8204 9.85111C42.5795 9.63192 42.3644 9.58457 42.1506 9.81863ZM40.0955 10.7522L41.5797 10.3788C41.3659 10.0676 41.3497 9.70363 41.6622 9.36403L41.673 9.3505C42.1046 8.87967 42.6485 8.98791 43.1586 9.45739L43.946 10.1772L41.9017 12.4069L41.3997 11.9469L42.1763 11.0985L41.949 10.8888L40.6353 11.246L40.0955 10.7522Z" fill="white"/>
<path d="M46.1324 16.601L46.1472 16.5929C46.3813 16.4576 46.4273 16.2397 46.2501 15.9326L46.0552 15.5957L45.3152 16.0219L45.5181 16.3737C45.6845 16.6646 45.8902 16.7403 46.1324 16.601ZM45.0797 16.6551L44.5264 15.6958L47.1471 14.1846L48.1307 15.892L47.668 16.1586L47.024 15.0424L46.4733 15.3549L46.6992 15.7473C47.051 16.3588 46.9983 16.858 46.4706 17.1625L46.4557 17.1706C45.9389 17.4682 45.4586 17.3113 45.0797 16.6551Z" fill="white"/>
<path d="M47.7624 19.7657L48.8529 18.9417L47.4864 19.0148L47.7624 19.7657ZM49.5443 19.2055L47.044 21.1687L46.7977 20.4976L47.3578 20.0714L46.979 19.0432L46.2782 19.0811L46.0549 18.4776L49.2371 18.368L49.5443 19.2055Z" fill="white"/>
<path d="M47.6923 22.2713C47.9088 21.9696 48.2606 21.7734 48.7219 21.6909L48.7544 21.6841C49.2049 21.6029 49.6162 21.6922 49.9315 21.9101C50.244 22.1238 50.4659 22.4661 50.5417 22.8869C50.6053 23.2401 50.5742 23.5729 50.4389 23.8381C50.3009 24.0992 50.0573 24.3021 49.6974 24.4023L49.573 23.7109C49.9261 23.5959 50.079 23.3659 50.0086 22.987C49.9234 22.5176 49.508 22.2835 48.8883 22.3944L48.8545 22.4012C48.2349 22.5135 47.9304 22.8558 48.0211 23.351C48.0887 23.7217 48.3215 23.945 48.7138 23.9301L48.8342 24.593C48.4608 24.6214 48.151 24.5227 47.9264 24.3224C47.6964 24.1235 47.5435 23.8232 47.4772 23.4579C47.3893 22.9708 47.4704 22.5703 47.6923 22.2713Z" fill="white"/>
<path d="M50.8553 26.6401L49.5524 26.6374L50.8581 27.6968L50.8567 28.4247L49.4239 27.2246L47.8274 28.4788L47.8301 27.6792L49.1885 26.6374L47.8315 26.6347V25.9487L50.8567 25.9555L50.8553 26.6401Z" fill="white"/>
<path d="M50.3429 32.0194L49.8179 31.9301L50.0331 30.6583L49.3376 30.5406L49.1644 31.5581L48.6733 31.4742L48.8451 30.4581L48.1024 30.3309L47.8764 31.6704L47.3501 31.5811L47.691 29.5719L50.6717 30.0779L50.3429 32.0194Z" fill="white"/>
<path d="M49.4703 33.3333L49.9763 33.5038L49.2362 35.7051L48.7315 35.5346L48.9913 34.7607L46.6304 33.9678L46.8496 33.313L49.2105 34.1072L49.4703 33.3333Z" fill="white"/>
<path d="M46.0036 37.6195L46.0198 37.6276C46.258 37.7534 46.4663 37.6763 46.6314 37.3624L46.8127 37.0174L46.0564 36.621L45.867 36.9795C45.7114 37.2758 45.756 37.4896 46.0036 37.6195ZM45.3948 36.7603L45.9103 35.7794L48.5878 37.1865L47.6705 38.9319L47.1983 38.6829L47.799 37.541L47.2389 37.242L47.0292 37.6425C46.7004 38.2675 46.2485 38.4894 45.71 38.2067L45.6951 38.1985C45.1675 37.9212 45.043 37.4301 45.3948 36.7603Z" fill="white"/>
<path d="M43.6018 40.8316C43.6505 41.0453 43.7966 41.2686 44.0374 41.4566L44.0631 41.4769C44.2931 41.6569 44.5394 41.7475 44.7626 41.7448C44.9899 41.7354 45.1969 41.6339 45.362 41.4242C45.5257 41.2145 45.5744 40.9953 45.5325 40.7734C45.4865 40.5515 45.3376 40.3364 45.0968 40.1483L45.0711 40.1294C44.8276 39.9372 44.5773 39.8547 44.35 39.871C44.1213 39.8791 43.9143 39.986 43.7614 40.1821C43.6058 40.3824 43.5571 40.6083 43.6018 40.8316ZM44.3811 39.2175C44.7626 39.1715 45.1631 39.2919 45.5081 39.5625L45.5352 39.5841C45.891 39.8628 46.0953 40.2268 46.1345 40.6164C46.1778 40.9993 46.0669 41.4012 45.7882 41.7584C45.5068 42.1169 45.1469 42.3307 44.7667 42.3834C44.3878 42.4281 43.9887 42.3266 43.6302 42.0452L43.6031 42.0235C43.2473 41.7462 43.0362 41.3822 42.9875 40.9993C42.9375 40.6178 43.047 40.2092 43.3393 39.8358C43.6315 39.4624 44.0009 39.2581 44.3811 39.2175Z" fill="white"/>
<path d="M41.5993 41.8381C41.6588 41.7853 41.7008 41.7609 41.7427 41.7393L41.8076 41.7177L42.1757 42.1371C42.1689 42.1371 42.1635 42.1425 42.1513 42.1479C42.131 42.1587 42.1039 42.1777 42.0755 42.202C41.9064 42.3508 41.9916 42.6011 42.2717 42.9922C42.5518 43.3818 42.9414 43.8391 43.3893 44.3519L41.7901 45.7536L39.7971 43.4779L40.3113 43.0273L41.9484 44.8944L42.5694 44.3519C42.2974 44.0218 41.9714 43.6375 41.7197 43.279C41.3246 42.7256 41.1528 42.2277 41.5993 41.8381Z" fill="white"/>
<path d="M37.9211 46.0851L38.9304 47.0051L38.607 45.6765L37.9211 46.0851ZM38.7978 47.7344L36.4084 45.6359L37.0227 45.2706L37.5449 45.7428L38.4866 45.1827L38.3202 44.4994L38.8736 44.1707L39.5649 47.2771L38.7978 47.7344Z" fill="white"/>
<path d="M31.5995 48.3676L31.4561 47.802L32.0108 47.1499L32.5926 47.0038L33.3353 49.9357L32.671 50.1035L32.0947 47.8277L31.5995 48.3676Z" fill="white"/>
<path d="M29.6213 48.6287C29.5861 48.2756 29.3574 48.0862 29.0517 48.1173C28.7486 48.147 28.5754 48.3811 28.6079 48.7004C28.6404 49.0211 28.8568 49.2159 29.1585 49.1861C29.4657 49.155 29.651 48.9277 29.6213 48.6287ZM28.0992 49.9803L28.7351 49.9167C28.8027 50.1183 28.934 50.2374 29.2194 50.209C29.6104 50.1684 29.7863 49.8356 29.7349 49.2172C29.6186 49.45 29.4197 49.6177 29.053 49.6556C28.7621 49.684 28.5051 49.6204 28.3075 49.4716C28.11 49.3201 27.9801 49.0874 27.9503 48.7843C27.9192 48.4772 28.0004 48.2012 28.1844 47.9955C28.3684 47.7939 28.6525 47.66 29.0097 47.6248C29.4264 47.5828 29.7471 47.6897 29.9744 47.917C30.203 48.1497 30.3383 48.492 30.3816 48.9264L30.3952 49.0603C30.4953 50.0534 30.1043 50.6419 29.2925 50.7231C28.6349 50.7894 28.2223 50.5161 28.0992 49.9803Z" fill="white"/>
<path d="M26.0073 48.7654C26.0303 48.4123 25.8382 48.1863 25.5297 48.1674C25.2266 48.1457 25.0182 48.3473 24.9966 48.668C24.975 48.99 25.1535 49.2173 25.458 49.2376C25.7664 49.2579 25.987 49.0657 26.0073 48.7654ZM24.2822 49.8451L24.9181 49.8884C24.9506 50.0981 25.0602 50.2374 25.3484 50.2577C25.7407 50.2821 25.968 49.9844 26.0222 49.3648C25.8679 49.5745 25.642 49.7084 25.2767 49.6827C24.9844 49.6638 24.7422 49.5582 24.5718 49.3783C24.4013 49.197 24.312 48.9453 24.3323 48.6409C24.3539 48.3324 24.4811 48.074 24.6962 47.9022C24.9114 47.7344 25.2131 47.6492 25.5716 47.6735C25.9897 47.7006 26.2887 47.8602 26.474 48.1241C26.6608 48.3906 26.7365 48.7505 26.7081 49.1862L26.6986 49.3215C26.6323 50.3172 26.148 50.8314 25.3335 50.7773C24.6746 50.7326 24.312 50.3944 24.2822 49.8451Z" fill="white"/>
<path d="M21.5803 48.1755L21.7048 47.6059L22.4936 47.2731L23.0794 47.4016L22.4313 50.3538L21.7616 50.2063L22.2649 47.9144L21.5803 48.1755Z" fill="white"/>
</svg>
