<svg width="50" height="50" viewBox="0 0 50 50" fill="none" xmlns="http://www.w3.org/2000/svg">
<path d="M31.1714 1C26.443 1 21.9082 2.87836 18.5647 6.22187C15.2212 9.56537 13.3429 14.1001 13.3429 18.8286C13.3429 23.2446 14.9611 27.304 17.6217 30.4309L16.8811 31.1714H14.7143L1 44.8857L5.11428 49L18.8286 35.2857V33.1189L19.5691 32.3783C22.696 35.0389 26.7554 36.6571 31.1714 36.6571C35.8999 36.6571 40.4346 34.7788 43.7781 31.4353C47.1216 28.0918 49 23.557 49 18.8286C49 14.1001 47.1216 9.56537 43.7781 6.22187C40.4346 2.87836 35.8999 1 31.1714 1ZM31.1714 6.48571C38.0286 6.48571 43.5143 11.9714 43.5143 18.8286C43.5143 25.6857 38.0286 31.1714 31.1714 31.1714C24.3143 31.1714 18.8286 25.6857 18.8286 18.8286C18.8286 11.9714 24.3143 6.48571 31.1714 6.48571Z" fill="white"/>
</svg>
