<svg width="30" height="30" viewBox="0 0 30 30" fill="none" xmlns="http://www.w3.org/2000/svg">
<path d="M23.7707 19.2733C22.0452 19.2733 20.5066 20.0955 19.5224 21.3663L11.2811 16.7629C11.4742 16.2085 11.5801 15.6105 11.5801 14.9938C11.5801 14.3708 11.4742 13.7791 11.2749 13.2184L19.51 8.62126C20.4879 9.89826 22.0328 10.7267 23.7645 10.7267C26.7172 10.7267 29.1279 8.32226 29.1279 5.36337C29.1279 2.40448 26.7234 0 23.7645 0C20.8056 0 18.4011 2.40448 18.4011 5.36337C18.4011 5.9863 18.507 6.5843 18.7064 7.1387L10.4776 11.7359C9.49957 10.4527 7.95472 9.6304 6.22299 9.6304C3.27033 9.6304 0.859619 12.0349 0.859619 14.9938C0.859619 17.9527 3.27033 20.3571 6.22922 20.3571C7.96095 20.3571 9.5058 19.5287 10.49 18.2454L18.7251 22.8488C18.5257 23.4095 18.4136 24.0137 18.4136 24.6366C18.4136 27.5893 20.8181 30 23.777 30C26.7359 30 29.1403 27.5955 29.1403 24.6366C29.1403 21.6777 26.7296 19.2733 23.7707 19.2733ZM23.7707 1.68812C25.8015 1.68812 27.4522 3.33887 27.4522 5.3696C27.4522 7.40033 25.8015 9.05108 23.7707 9.05108C21.74 9.05108 20.0893 7.40033 20.0893 5.3696C20.0893 3.33887 21.7462 1.68812 23.7707 1.68812ZM6.22922 18.6752C4.19849 18.6752 2.54774 17.0245 2.54774 14.9938C2.54774 12.963 4.19849 11.3123 6.22922 11.3123C8.25995 11.3123 9.9107 12.963 9.9107 14.9938C9.9107 17.0245 8.25372 18.6752 6.22922 18.6752ZM23.7707 28.3119C21.74 28.3119 20.0893 26.6611 20.0893 24.6304C20.0893 22.5997 21.74 20.9489 23.7707 20.9489C25.8015 20.9489 27.4522 22.5997 27.4522 24.6304C27.4522 26.6611 25.8015 28.3119 23.7707 28.3119Z" fill="white"/>
</svg>
