<svg width="80" height="80" viewBox="0 0 80 80" fill="none" xmlns="http://www.w3.org/2000/svg">
<rect x="0.5" y="0.5" width="79" height="79" rx="39.5" fill="#FF0000" stroke="white"/>
<path fill-rule="evenodd" clip-rule="evenodd" d="M61.4164 40.2818C60.9012 38.3683 59.3925 36.8596 57.479 36.3444C53.9832 35.3877 40 35.3877 40 35.3877C40 35.3877 26.0167 35.3877 22.5209 36.3076C20.6442 36.8228 19.0987 38.3683 18.5835 40.2818C17.6636 43.7776 17.6636 51.0269 17.6636 51.0269C17.6636 51.0269 17.6636 58.3129 18.5835 61.7719C19.0987 63.6854 20.6074 65.1941 22.5209 65.7093C26.0535 66.666 40 66.666 40 66.666C40 66.666 53.9832 66.666 57.479 65.7461C59.3925 65.2309 60.9012 63.7222 61.4164 61.8087C62.3364 58.3129 62.3364 51.0637 62.3364 51.0637C62.3364 51.0637 62.3732 43.7776 61.4164 40.2818ZM52.2938 54.5673V55.2175C52.2938 56.0363 52.3179 56.6625 52.3661 57.0719C52.4142 57.4813 52.5105 57.7944 52.6791 57.963C52.8236 58.1556 53.0645 58.252 53.4016 58.252C53.8351 58.252 54.1241 58.0834 54.2927 57.7462C54.4613 57.4091 54.5335 56.8551 54.5576 56.0604L57.0382 56.2049C57.0622 56.3253 57.0622 56.4698 57.0622 56.6625C57.0622 57.8426 56.7492 58.7336 56.0989 59.3116C55.4487 59.8896 54.5335 60.1786 53.3534 60.1786C51.9325 60.1786 50.9451 59.721 50.3672 58.83C49.7892 57.9389 49.5002 56.5661 49.5002 54.6877V52.448C49.5002 50.5213 49.7892 49.1245 50.3912 48.2334C50.9933 47.3423 52.0048 46.9089 53.4257 46.9089C54.4131 46.9089 55.1838 47.1015 55.7136 47.4628C56.2434 47.824 56.6047 48.402 56.8214 49.1486C57.0382 49.9192 57.1345 50.9789 57.1345 52.3275V54.5191H52.2938V54.5673ZM52.655 49.1727C52.5105 49.3653 52.4142 49.6543 52.3661 50.0637C52.3179 50.4731 52.2938 51.0993 52.2938 51.9422V52.8574H54.4131V51.9422C54.4131 51.1234 54.389 50.4972 54.3409 50.0637C54.2927 49.6302 54.1723 49.3412 54.0278 49.1727C53.8833 49.0041 53.6424 48.9077 53.3534 48.9077C53.0163 48.8837 52.7995 48.98 52.655 49.1727ZM38.3737 60.0332V47.1969H35.4837V57.3841C35.3874 57.6249 35.2188 57.8176 34.978 57.9621C34.7372 58.1306 34.4963 58.2029 34.2555 58.2029C33.9665 58.2029 33.7498 58.0825 33.6293 57.8416C33.5089 57.6008 33.4367 57.1914 33.4367 56.6134V47.1969H30.5467V56.782C30.5467 57.9861 30.7394 58.8531 31.1488 59.407C31.5582 59.9609 32.1844 60.2499 33.0273 60.2499C34.2555 60.2499 35.1947 59.6479 35.7968 58.4678H35.8691L36.1099 60.0332H38.3737ZM31.4139 44.7902H28.548V60.0106H25.7303V44.7902H22.8644V42.4541H31.4139V44.7902ZM47.0922 47.4867C47.4775 47.8479 47.7665 48.4259 47.9351 49.2447C48.1036 50.0395 48.1759 51.1714 48.2 52.6404V54.6634C48.2 56.566 47.9591 57.9869 47.5016 58.8779C47.044 59.769 46.3456 60.2266 45.3582 60.2266C44.8043 60.2266 44.3226 60.0821 43.865 59.8412C43.4074 59.5763 43.0703 59.2392 42.8535 58.8057H42.7813L42.4923 60.0098H40.1081V41.8031H42.9017V48.5704H42.9258C43.1666 48.0887 43.5279 47.6793 43.9854 47.3903C44.443 47.0772 44.9488 46.9327 45.4786 46.9327C46.1529 46.9327 46.7068 47.1254 47.0922 47.4867ZM45.1655 56.6623C45.2378 56.1325 45.2859 55.41 45.2859 54.4707H45.31V52.7849C45.31 51.7975 45.2859 51.0269 45.2137 50.4729C45.1414 49.9431 45.0451 49.5578 44.8765 49.317C44.732 49.1002 44.4912 48.9798 44.2022 48.9798C43.9373 48.9798 43.6724 49.1002 43.4315 49.317C43.1907 49.5578 43.0221 49.8468 42.9258 50.184V57.457C43.0462 57.6738 43.2148 57.8424 43.4075 57.9628C43.6001 58.0832 43.8169 58.1314 44.0577 58.1314C44.3467 58.1314 44.5875 58.0109 44.7802 57.7942C44.9488 57.5774 45.0933 57.1921 45.1655 56.6623Z" fill="white"/>
<path d="M37.2909 30.5294C36.7129 30.1441 36.3035 29.542 36.0627 28.6991C35.8218 27.8803 35.7014 26.7725 35.7014 25.4238V23.5694C35.7014 22.1967 35.8459 21.0889 36.1108 20.2459C36.3998 19.403 36.8333 18.801 37.4113 18.4156C38.0134 18.0303 38.784 17.8376 39.7474 17.8376C40.6866 17.8376 41.4573 18.0303 42.0353 18.4156C42.6132 18.801 43.0227 19.4271 43.2876 20.2459C43.5525 21.0648 43.697 22.1726 43.697 23.5694V25.4238C43.697 26.7965 43.5766 27.8803 43.3117 28.7232C43.0467 29.542 42.6373 30.1682 42.0593 30.5535C41.4813 30.9388 40.6866 31.1315 39.6992 31.1315C38.6877 31.1074 37.8689 30.9147 37.2909 30.5294ZM40.5421 28.5064C40.7107 28.097 40.7829 27.3986 40.7829 26.4594V22.4616C40.7829 21.5464 40.7107 20.8721 40.5421 20.4386C40.3735 20.0051 40.1086 19.8125 39.6992 19.8125C39.3139 19.8125 39.0249 20.0292 38.8804 20.4386C38.7118 20.8721 38.6395 21.5464 38.6395 22.4616V26.4594C38.6395 27.3986 38.7118 28.097 38.8804 28.5064C39.0249 28.9158 39.3139 29.1326 39.7233 29.1326C40.1086 29.1326 40.3735 28.9399 40.5421 28.5064Z" fill="white"/>
<path d="M30.2586 25.2067L26.9833 13.3337H29.8492L31.0051 18.7043C31.2941 20.0288 31.5109 21.1607 31.6554 22.1H31.7276C31.824 21.4256 32.0407 20.3178 32.3779 18.7283L33.582 13.3337H36.4479L33.1244 25.2067V30.8903H30.2827V25.2067H30.2586Z" fill="white"/>
<path d="M53.0173 18.0786V30.9149H50.7535L50.5127 29.3495H50.4404C49.8383 30.5295 48.8991 31.1316 47.6709 31.1316C46.828 31.1316 46.2018 30.8426 45.7924 30.2887C45.383 29.7348 45.1903 28.8678 45.1903 27.6637V18.0786H48.0803V27.4951C48.0803 28.0731 48.1525 28.4825 48.2729 28.7233C48.3933 28.9641 48.6101 29.0846 48.8991 29.0846C49.1399 29.0846 49.3808 29.0123 49.6216 28.8437C49.8624 28.6992 50.031 28.5066 50.1273 28.2657V18.0786H53.0173Z" fill="white"/>
</svg>
