<svg width="80" height="80" viewBox="0 0 80 80" fill="none" xmlns="http://www.w3.org/2000/svg">
<rect x="0.5" y="0.5" width="79" height="79" rx="39.5" fill="#5181B8" stroke="white"/>
<path fill-rule="evenodd" clip-rule="evenodd" d="M64.5042 26.1442C64.8751 24.9081 64.5042 23.9995 62.7396 23.9995H56.9049C55.4212 23.9995 54.7378 24.7843 54.3668 25.6499C54.3668 25.6499 51.3995 32.882 47.196 37.5798C45.8361 38.9397 45.218 39.3719 44.4762 39.3719C44.1053 39.3719 43.5685 38.9397 43.5685 37.7035V26.1442C43.5685 24.6605 43.138 23.9995 41.9014 23.9995H32.7326C31.8057 23.9995 31.2481 24.688 31.2481 25.3407C31.2481 26.7472 33.3494 27.0715 33.5661 31.0274V39.6198C33.5661 41.5036 33.2261 41.8453 32.4842 41.8453C30.5063 41.8453 25.6951 34.5803 22.8411 26.268C22.2818 24.6522 21.7209 23.9995 20.2297 23.9995H14.395C12.7279 23.9995 12.3945 24.7843 12.3945 25.6499C12.3945 27.1953 14.3729 34.8604 21.605 44.9977C26.427 51.9202 33.2194 55.6736 39.4008 55.6736C43.11 55.6736 43.5685 54.84 43.5685 53.4043V48.1718C43.5685 46.5048 43.9198 46.1722 45.0938 46.1722C45.9599 46.1722 47.4431 46.6048 50.9052 49.9427C54.8611 53.8982 55.5129 55.6736 57.7385 55.6736H63.5731C65.2402 55.6736 66.0737 54.84 65.5928 53.1951C65.0668 51.5555 63.1781 49.1775 60.6716 46.3576C59.3117 44.7502 57.2717 43.0194 56.654 42.1542C55.7884 41.0414 56.0356 40.5471 56.654 39.5586C56.654 39.5586 63.7624 29.5446 64.5042 26.1446V26.1442Z" fill="white"/>
</svg>
