<svg width="50" height="50" viewBox="0 0 50 50" fill="none" xmlns="http://www.w3.org/2000/svg">
<path d="M49 25C49 38.2548 38.2548 49 25 49C11.7452 49 1 38.2548 1 25C1 11.7452 11.7452 1 25 1C38.2548 1 49 11.7452 49 25Z" stroke="white" stroke-width="2"/>
<g clip-path="url(#clip0)">
<path fill-rule="evenodd" clip-rule="evenodd" d="M21.0768 18.1243C20.7834 17.4718 20.4744 17.4588 20.1952 17.4473C19.9668 17.4375 19.7054 17.4381 19.4444 17.4381C19.1832 17.4381 18.7587 17.5363 18.3997 17.9284C18.0406 18.3204 17.0283 19.2681 17.0283 21.1957C17.0283 23.1234 18.4324 24.986 18.6281 25.2476C18.824 25.5089 21.3385 29.5909 25.3207 31.1612C28.6302 32.4663 29.3037 32.2067 30.022 32.1414C30.7404 32.0761 32.3399 31.1939 32.6665 30.279C32.993 29.3643 32.993 28.5802 32.895 28.4164C32.7971 28.2531 32.5359 28.1551 32.144 27.9592C31.7522 27.7633 29.8261 26.8154 29.4669 26.6847C29.1078 26.5541 28.8465 26.4888 28.5853 26.8811C28.3241 27.2729 27.5737 28.1551 27.3451 28.4164C27.1165 28.6782 26.888 28.7108 26.4961 28.5149C26.1043 28.3184 24.8425 27.9051 23.3456 26.5704C22.1809 25.5321 21.3946 24.2496 21.166 23.8574C20.9374 23.4656 21.1415 23.2533 21.338 23.058C21.514 22.8825 21.7299 22.6007 21.9258 22.3719C22.1213 22.1431 22.1866 21.9799 22.3172 21.7186C22.4478 21.457 22.3825 21.2283 22.2846 21.0323C22.1866 20.8364 21.4252 18.8989 21.0768 18.1243Z" fill="white"/>
<path d="M36.0869 13.5999C33.1264 10.6373 29.1897 9.00485 24.9955 9.00299C16.3525 9.00299 9.31894 16.0343 9.31547 24.6769C9.31445 27.4395 10.0363 30.1362 11.4083 32.5133L9.18384 40.6356L17.496 38.4561C19.7861 39.705 22.3647 40.3632 24.9887 40.3642H24.9954H24.9955C33.637 40.3642 40.6716 33.3316 40.6753 24.6895C40.6767 20.501 39.0471 16.5627 36.0869 13.5999ZM24.9955 37.7169H24.9904C22.6514 37.7157 20.3578 37.0877 18.3572 35.9006L17.8811 35.6184L12.9485 36.9116L14.2654 32.1041L13.9552 31.6113C12.6505 29.5368 11.9618 27.1395 11.9628 24.6779C11.9656 17.4945 17.8117 11.6505 25.0004 11.6505C28.4816 11.652 31.7534 13.0089 34.2141 15.4713C36.6747 17.9337 38.0288 21.2071 38.0278 24.6885C38.0247 31.8721 32.1784 37.7169 24.9955 37.7169Z" fill="white"/>
</g>
<defs>
<clipPath id="clip0">
<rect width="31.8592" height="32" fill="white" transform="translate(9 9)"/>
</clipPath>
</defs>
</svg>
