<svg width="80" height="80" viewBox="0 0 80 80" fill="none" xmlns="http://www.w3.org/2000/svg">
<rect x="0.5" y="0.5" width="79" height="79" rx="39.5" fill="#1DA1F2" stroke="white"/>
<path d="M59.6042 31.3542C59.6042 31.7917 59.6042 32.2292 59.6042 32.6042C59.6042 45.5417 49.7292 60.4792 31.7292 60.4792C26.1667 60.4792 21.0417 58.8542 16.6667 56.1042C17.4167 56.1667 18.2292 56.2292 18.9792 56.2292C23.5417 56.2292 27.7917 54.6667 31.1667 52.0417C26.8542 51.9792 23.2292 49.1042 22.0417 45.2292C22.6667 45.3542 23.2292 45.4167 23.9167 45.4167C24.7917 45.4167 25.6667 45.2917 26.4792 45.0417C21.9792 44.1667 18.6042 40.2292 18.6042 35.4792C18.6042 35.4167 18.6042 35.4167 18.6042 35.3542C19.9167 36.1042 21.4167 36.5417 23.0417 36.6042C20.4167 34.8542 18.6667 31.8542 18.6667 28.4167C18.6667 26.6042 19.1667 24.9167 19.9792 23.4792C24.7917 29.4167 32.0417 33.2917 40.1667 33.7292C39.9792 33.0417 39.9167 32.2292 39.9167 31.4792C39.9167 26.0417 44.2917 21.6667 49.7292 21.6667C52.5417 21.6667 55.1042 22.8542 56.8542 24.7292C59.1042 24.2917 61.1667 23.4792 63.1042 22.3542C62.3542 24.6667 60.7917 26.5417 58.7917 27.7917C60.7917 27.5417 62.6667 27.0417 64.4167 26.2292C63.1667 28.2292 61.5417 29.9792 59.6042 31.3542Z" fill="white"/>
</svg>
