<svg width="50" height="50" viewBox="0 0 50 50" fill="none" xmlns="http://www.w3.org/2000/svg">
<circle cx="25" cy="25" r="24" stroke="white" stroke-width="2"/>
<path d="M23.5762 21L15 30L22.805 25.7556L26.883 30L35.4108 21L27.6924 25.1702L23.5762 21Z" fill="white"/>
<path d="M36.2155 13.6503C33.2206 10.6532 29.2382 9.00183 24.9952 9C16.2519 9 9.13667 16.113 9.13317 24.8559C9.13215 27.6506 9.86237 30.3786 11.2503 32.7833L9 41L17.4087 38.7951C19.7254 40.0586 22.3339 40.7244 24.9884 40.7255H24.9951H24.9952C33.7371 40.7255 40.8534 33.6112 40.8571 24.8687C40.8586 20.6315 39.2101 16.6475 36.2155 13.6503ZM24.9952 38.0473H24.9901C22.624 38.0461 20.3037 37.4109 18.2799 36.2099L17.7982 35.9244L12.8084 37.2327L14.1406 32.3694L13.8268 31.8708C12.507 29.7722 11.8102 27.3471 11.8112 24.8569C11.8141 17.5901 17.728 11.6782 25.0002 11.6782C28.5218 11.6797 31.8316 13.0523 34.3209 15.5434C36.8101 18.0344 38.1799 21.3458 38.1789 24.8676C38.1758 32.1347 32.2616 38.0473 24.9952 38.0473Z" fill="white"/>
</svg>
