<svg width="50" height="50" viewBox="0 0 50 50" fill="none" xmlns="http://www.w3.org/2000/svg">
<g clip-path="url(#clip0)">
<path d="M49 24.999C49 38.2538 38.2548 48.999 25 48.999C11.7452 48.999 1 38.2538 1 24.999C1 11.7442 11.7452 0.998993 25 0.998993C38.2548 0.998993 49 11.7442 49 24.999Z" stroke="white" stroke-width="2"/>
<path d="M39.9372 27.0112V37.3182H33.9615V27.702C33.9615 25.2875 33.0988 23.6386 30.9351 23.6386C29.284 23.6386 28.3031 24.7487 27.87 25.8236C27.7126 26.2077 27.6721 26.7412 27.6721 27.2799V37.3177H21.6959C21.6959 37.3177 21.7762 21.0311 21.6959 19.3452H27.6725V21.8921C27.6605 21.9121 27.6436 21.9317 27.6329 21.9509H27.6725V21.8921C28.4667 20.6701 29.883 18.9231 33.0582 18.9231C36.9897 18.9231 39.9372 21.4919 39.9372 27.0112ZM15.4444 10.6818C13.4002 10.6818 12.0628 12.0236 12.0628 13.7866C12.0628 15.5121 13.3614 16.8928 15.366 16.8928H15.4047C17.489 16.8928 18.785 15.5121 18.785 13.7866C18.7453 12.0236 17.489 10.6818 15.4444 10.6818ZM12.418 37.3182H18.3919V19.3452H12.418V37.3182Z" fill="white"/>
</g>
<defs>
<clipPath id="clip0">
<rect width="50" height="50" fill="white"/>
</clipPath>
</defs>
</svg>
