<svg width="50" height="50" viewBox="0 0 50 50" fill="none" xmlns="http://www.w3.org/2000/svg">
<circle cx="25" cy="25" r="24" stroke="white" stroke-width="2"/>
<path d="M32.486 28.9884C30.7777 28.9884 29.2543 29.7558 28.2799 30.9419L20.1204 26.6453C20.3116 26.1279 20.4164 25.5698 20.4164 24.9942C20.4164 24.4128 20.3116 23.8605 20.1142 23.3372L28.2675 19.0465C29.2358 20.2384 30.7653 21.0116 32.4799 21.0116C35.4032 21.0116 37.79 18.7674 37.79 16.0058C37.79 13.2442 35.4094 11 32.4799 11C29.5504 11 27.1697 13.2442 27.1697 16.0058C27.1697 16.5872 27.2746 17.1453 27.4719 17.6628L19.3248 21.9535C18.3565 20.7558 16.827 19.9884 15.1125 19.9884C12.1891 19.9884 9.80233 22.2326 9.80233 24.9942C9.80233 27.7558 12.1891 30 15.1186 30C16.8332 30 18.3627 29.2267 19.3371 28.0291L27.4904 32.3256C27.2931 32.8488 27.1821 33.4128 27.1821 33.9942C27.1821 36.75 29.5627 39 32.4922 39C35.4217 39 37.8023 36.7558 37.8023 33.9942C37.8023 31.2326 35.4156 28.9884 32.486 28.9884ZM32.486 12.5756C34.4966 12.5756 36.131 14.1163 36.131 16.0116C36.131 17.907 34.4966 19.4477 32.486 19.4477C30.4755 19.4477 28.8411 17.907 28.8411 16.0116C28.8411 14.1163 30.4816 12.5756 32.486 12.5756ZM15.1186 28.4302C13.1081 28.4302 11.4737 26.8895 11.4737 24.9942C11.4737 23.0988 13.1081 21.5581 15.1186 21.5581C17.1292 21.5581 18.7636 23.0988 18.7636 24.9942C18.7636 26.8895 17.123 28.4302 15.1186 28.4302ZM32.486 37.4244C30.4755 37.4244 28.8411 35.8837 28.8411 33.9884C28.8411 32.093 30.4755 30.5523 32.486 30.5523C34.4966 30.5523 36.131 32.093 36.131 33.9884C36.131 35.8837 34.4966 37.4244 32.486 37.4244Z" fill="white" stroke="white"/>
</svg>
