<svg width="80" height="80" viewBox="0 0 80 80" fill="none" xmlns="http://www.w3.org/2000/svg">
<rect x="0.5" y="0.5" width="79" height="79" rx="39.5" fill="#0077B5" stroke="white"/>
<path d="M62.208 58.8741C59.583 58.8116 57.0205 58.8116 54.3955 58.8741C53.833 58.8741 53.708 58.7491 53.708 58.1866C53.708 53.5616 53.708 48.8741 53.708 44.2491C53.708 43.1866 53.6455 42.1241 53.333 41.1241C52.3955 37.8741 48.6455 36.6866 45.958 38.8741C44.5205 39.9991 43.958 41.5616 43.958 43.4366C43.958 47.8116 43.958 52.1866 43.958 56.5616C43.958 57.1241 43.8955 57.6866 43.958 58.3116C44.0205 58.8116 43.7705 58.9366 43.333 58.8741C40.6455 58.8741 38.0205 58.8741 35.333 58.8741C34.833 58.8741 34.708 58.7491 34.708 58.2491C34.7705 54.3116 34.7705 50.3741 34.7705 46.3741C34.7705 41.4991 34.7705 36.6241 34.708 31.8116C34.708 31.2491 34.833 31.1241 35.333 31.1241C38.0205 31.1241 40.6455 31.1241 43.333 31.1241C43.833 31.1241 43.958 31.2491 43.958 31.7491C43.958 32.7491 43.958 33.7491 43.958 34.9366C44.1455 34.7491 44.208 34.6866 44.2705 34.6241C46.708 31.0616 50.1455 30.0616 54.208 30.6866C58.8955 31.4366 61.8955 34.6866 62.6455 39.6866C62.833 40.8741 62.8955 42.0616 62.8955 43.2491C62.8955 48.2491 62.8955 53.1866 62.8955 58.1866C62.8955 58.6866 62.7705 58.8741 62.208 58.8741Z" fill="white"/>
<path d="M29.7085 44.9995C29.7085 49.3745 29.7085 53.7495 29.7085 58.1245C29.7085 58.687 29.5835 58.8745 29.021 58.8745C26.396 58.812 23.771 58.8745 21.146 58.8745C20.646 58.8745 20.521 58.7495 20.521 58.2495C20.521 49.437 20.521 40.562 20.521 31.7495C20.521 31.312 20.646 31.1245 21.146 31.1245C23.8335 31.1245 26.521 31.1245 29.2085 31.1245C29.771 31.1245 29.8335 31.312 29.8335 31.812C29.7085 36.187 29.7085 40.562 29.7085 44.9995Z" fill="white"/>
<path d="M30.1457 23.8743C29.5207 26.3743 26.9582 27.8118 24.0207 27.3118C20.8957 26.8118 19.1457 23.7493 20.2707 20.7493C21.0207 18.8743 22.8332 17.7493 25.1457 17.8118C28.6457 17.7493 30.9582 20.5618 30.1457 23.8743Z" fill="white"/>
</svg>
