<svg width="50" height="50" viewBox="0 0 50 50" fill="none" xmlns="http://www.w3.org/2000/svg">
<path d="M32.4512 13.3025H17.5489C15.1702 13.3025 13.235 15.2377 13.235 17.6163V32.5186C13.235 34.8972 15.1702 36.833 17.5489 36.833H32.4512C34.8298 36.833 36.7655 34.8978 36.7655 32.5186V17.6163C36.7655 15.2377 34.8303 13.3025 32.4512 13.3025ZM25 32.8138C20.7291 32.8138 17.2542 29.3389 17.2542 25.0675C17.2542 20.7965 20.7291 17.3216 25 17.3216C29.2715 17.3216 32.7464 20.7965 32.7464 25.0675C32.7464 29.3384 29.2709 32.8138 25 32.8138ZM32.9954 18.9232C31.9844 18.9232 31.1621 18.1009 31.1621 17.0905C31.1621 16.08 31.9844 15.2577 32.9954 15.2577C34.0059 15.2577 34.8281 16.08 34.8281 17.0905C34.8281 18.1009 34.0059 18.9232 32.9954 18.9232Z" fill="#146EB4"/>
<path d="M25 20.5947C22.5345 20.5947 20.5269 22.6012 20.5269 25.0667C20.5269 27.5334 22.5345 29.5404 25 29.5404C27.4666 29.5404 29.4726 27.5334 29.4726 25.0667C29.4726 22.6018 27.4661 20.5947 25 20.5947Z" fill="#146EB4"/>
<path d="M1 25C1 11.7457 11.7457 1 25 1C38.2543 1 49 11.7457 49 25C49 38.2543 38.2543 49 25 49C11.7457 49 1 38.2543 1 25ZM32.4511 41.1056C37.1875 41.1056 41.0382 37.2549 41.0382 32.5185V17.6163C41.0382 12.8805 37.1875 9.02919 32.4511 9.02919H17.5489C12.8131 9.02919 8.96179 12.8805 8.96179 17.6163V32.5185C8.96179 37.2549 12.8131 41.1056 17.5489 41.1056H32.4511Z" stroke="#146EB4" stroke-width="2"/>
</svg>
