<svg width="50" height="50" viewBox="0 0 50 50" fill="none" xmlns="http://www.w3.org/2000/svg">
<path d="M25 14.0625C25 13.0625 24.9999 13.0625 24.9998 13.0625H24.9994H24.998L24.9924 13.0625L24.9708 13.0625L24.8874 13.0627C24.8144 13.0628 24.7074 13.0631 24.5704 13.0638C24.2965 13.065 23.903 13.0676 23.4232 13.0726C22.4642 13.0827 21.1588 13.1029 19.7755 13.1434C18.3937 13.1838 16.9263 13.2446 15.6456 13.3366C14.3925 13.4265 13.2347 13.5512 12.5212 13.739L12.5212 13.7389L12.5112 13.7417C10.8552 14.196 9.50827 15.5461 9.05631 17.2256L9.05491 17.2309C8.70377 18.5649 8.54047 20.5385 8.46018 22.1085C8.41929 22.9081 8.39888 23.629 8.38868 24.1501C8.38357 24.4108 8.38101 24.622 8.37973 24.7686C8.37909 24.8419 8.37876 24.8991 8.3786 24.9383L8.37846 24.9834L8.37844 24.9953L8.37843 24.9986V24.9995V24.9998C8.37843 24.9999 8.37843 25 9.37843 25C8.37843 25 8.37843 25.0001 8.37843 25.0002V25.0005V25.0014L8.37844 25.0047L8.37846 25.0167L8.3786 25.062C8.37876 25.1013 8.37909 25.1588 8.37973 25.2324C8.38101 25.3796 8.38357 25.5918 8.38868 25.8535C8.39888 26.3765 8.41929 27.0999 8.46018 27.9012C8.54041 29.4734 8.70365 31.4488 9.05558 32.7717L9.05639 32.7747C9.50951 34.4567 10.8333 35.7813 12.5159 36.2341C13.2378 36.4293 14.3997 36.5589 15.6537 36.6525C16.9363 36.7481 18.4034 36.8114 19.7839 36.8534C21.1659 36.8955 22.4692 36.9165 23.4264 36.927C23.9052 36.9322 24.2979 36.9349 24.5713 36.9362C24.7079 36.9368 24.8148 36.9372 24.8876 36.9373L24.9708 36.9375L24.9924 36.9375L24.998 36.9375H24.9994H24.9998C24.9999 36.9375 25 36.9375 25 35.9375C25 36.9375 25.0001 36.9375 25.0002 36.9375H25.0006H25.002L25.0076 36.9375L25.0292 36.9375L25.1126 36.9373C25.1856 36.9372 25.2926 36.9369 25.4296 36.9362C25.7035 36.935 26.097 36.9324 26.5768 36.9274C27.5358 36.9173 28.8412 36.8971 30.2245 36.8566C31.6063 36.8162 33.0737 36.7554 34.3544 36.6634C35.6075 36.5735 36.7653 36.4488 37.4788 36.261L37.4841 36.2596C39.1665 35.8069 40.4904 34.4828 40.9436 32.8006L40.9451 32.7949C41.296 31.461 41.4592 29.4873 41.5395 27.9173C41.5804 27.1176 41.6007 26.3966 41.6109 25.8755C41.616 25.6148 41.6186 25.4036 41.6199 25.2569C41.6202 25.2176 41.6205 25.1828 41.6207 25.153C41.6208 25.1274 41.6209 25.1054 41.621 25.0873L41.6212 25.0422L41.6212 25.0305L41.6212 25.0302L41.6212 25.0292L41.6212 25.027V25.026L41.6212 25.0259L41.6212 25.0138L41.6213 24.9684C41.6213 24.953 41.6213 24.9347 41.6213 24.9137C41.6213 24.8813 41.6212 24.8425 41.621 24.7977C41.6204 24.6502 41.6187 24.4378 41.6147 24.1757C41.6065 23.6518 41.5886 22.927 41.5493 22.1235C41.4724 20.5482 41.3095 18.5637 40.9431 17.2234M25 14.0625L40.9436 17.2253C40.9434 17.2247 40.9433 17.224 40.9431 17.2234M25 14.0625C25 13.0625 25.0001 13.0625 25.0002 13.0625H25.0006H25.0021L25.0076 13.0625L25.0292 13.0625L25.1127 13.0627C25.1857 13.0628 25.2928 13.0632 25.4298 13.0638C25.7037 13.0651 26.0974 13.0678 26.5772 13.073C27.5364 13.0835 28.842 13.1045 30.2257 13.1466C31.6077 13.1886 33.0757 13.2519 34.3572 13.3475C35.609 13.441 36.769 13.5706 37.4861 13.7665C39.1671 14.2197 40.4897 15.5429 40.9431 17.2234M25 14.0625L40.9431 17.2234M1 25C1 11.7473 11.7473 1 25 1C38.2527 1 49 11.7473 49 25C49 38.2527 38.2527 49 25 49C11.7473 49 1 38.2527 1 25Z" stroke="#146EB4" stroke-width="2"/>
<path d="M21 31L33 25L21 19V31Z" fill="#146EB4"/>
</svg>
