<svg width="50" height="50" viewBox="0 0 50 50" fill="none" xmlns="http://www.w3.org/2000/svg">
<path d="M49 25C49 38.2548 38.2548 49 25 49C11.7452 49 1 38.2548 1 25C1 11.7452 11.7452 1 25 1C38.2548 1 49 11.7452 49 25Z" fill="white" stroke="#146EB4" stroke-width="2"/>
<path fill-rule="evenodd" clip-rule="evenodd" d="M25 27.8845L39.4231 15.3845H10.5769L25 27.8845ZM21.1043 26.5008L25 29.6984L28.8346 26.5008L39.4231 35.5768H10.5769L21.1043 26.5008ZM9.61536 34.6153V16.3461L20.1923 25.4807L9.61536 34.6153ZM40.3846 34.6153V16.3461L29.8077 25.4807L40.3846 34.6153Z" fill="#146EB4"/>
</svg>
