<svg width="50" height="50" viewBox="0 0 50 50" fill="none" xmlns="http://www.w3.org/2000/svg">
<path d="M49 25C49 38.2548 38.2548 49 25 49C11.7452 49 1 38.2548 1 25C1 11.7452 11.7452 1 25 1C38.2548 1 49 11.7452 49 25Z" stroke="white" stroke-width="2"/>
<path fill-rule="evenodd" clip-rule="evenodd" d="M25 27.8846L39.4231 15.3846H10.5769L25 27.8846ZM21.1043 26.5009L25 29.6985L28.8346 26.5009L39.4231 35.5769H10.5769L21.1043 26.5009ZM9.61536 34.6154V16.3462L20.1923 25.4808L9.61536 34.6154ZM40.3846 34.6154V16.3462L29.8077 25.4808L40.3846 34.6154Z" fill="white"/>
</svg>
