<svg width="50" height="50" viewBox="0 0 50 50" fill="none" xmlns="http://www.w3.org/2000/svg">
<path d="M49 25C49 38.2548 38.2548 49 25 49C11.7452 49 1 38.2548 1 25C1 11.7452 11.7452 1 25 1C38.2548 1 49 11.7452 49 25Z" stroke="#FF9900" stroke-width="2"/>
<g clip-path="url(#clip0)">
<path fill-rule="evenodd" clip-rule="evenodd" d="M21.0768 18.1244C20.7834 17.4719 20.4744 17.4588 20.1952 17.4474C19.9668 17.4376 19.7054 17.4382 19.4444 17.4382C19.1832 17.4382 18.7587 17.5364 18.3997 17.9284C18.0406 18.3205 17.0283 19.2682 17.0283 21.1957C17.0283 23.1235 18.4324 24.9861 18.6281 25.2477C18.824 25.509 21.3385 29.5909 25.3207 31.1613C28.6302 32.4664 29.3037 32.2068 30.022 32.1415C30.7404 32.0762 32.3399 31.194 32.6665 30.2791C32.993 29.3644 32.993 28.5803 32.895 28.4164C32.7971 28.2532 32.5359 28.1552 32.144 27.9593C31.7522 27.7634 29.8261 26.8154 29.4669 26.6848C29.1078 26.5542 28.8465 26.4889 28.5853 26.8812C28.3241 27.273 27.5737 28.1552 27.3451 28.4164C27.1165 28.6783 26.888 28.7109 26.4961 28.515C26.1043 28.3185 24.8425 27.9052 23.3456 26.5705C22.1809 25.5322 21.3946 24.2497 21.166 23.8575C20.9374 23.4657 21.1415 23.2534 21.338 23.0581C21.514 22.8826 21.7299 22.6008 21.9258 22.372C22.1213 22.1432 22.1866 21.98 22.3172 21.7187C22.4478 21.4571 22.3825 21.2283 22.2846 21.0324C22.1866 20.8365 21.4252 18.899 21.0768 18.1244Z" fill="#FF9900"/>
<path d="M36.0869 13.5998C33.1264 10.6372 29.1897 9.00478 24.9955 9.00293C16.3525 9.00293 9.31894 16.0343 9.31547 24.6768C9.31445 27.4394 10.0363 30.1361 11.4083 32.5132L9.18384 40.6356L17.496 38.456C19.7861 39.7049 22.3647 40.3631 24.9887 40.3641H24.9954H24.9955C33.637 40.3641 40.6716 33.3316 40.6753 24.6894C40.6767 20.5009 39.0471 16.5626 36.0869 13.5998ZM24.9955 37.7168H24.9904C22.6514 37.7156 20.3578 37.0877 18.3572 35.9005L17.8811 35.6183L12.9485 36.9116L14.2654 32.1041L13.9552 31.6112C12.6505 29.5368 11.9618 27.1394 11.9628 24.6778C11.9656 17.4945 17.8117 11.6505 25.0004 11.6505C28.4816 11.6519 31.7534 13.0088 34.2141 15.4712C36.6747 17.9337 38.0288 21.2071 38.0278 24.6885C38.0247 31.872 32.1784 37.7168 24.9955 37.7168Z" fill="#FF9900"/>
</g>
<defs>
<clipPath id="clip0">
<rect width="31.8592" height="32" fill="white" transform="translate(9 9)"/>
</clipPath>
</defs>
</svg>
