<svg width="50" height="50" viewBox="0 0 50 50" fill="none" xmlns="http://www.w3.org/2000/svg">
<path d="M49.0006 24.9998C49.0006 38.2545 38.2555 48.9996 25.0008 48.9996C11.7461 48.9996 1.00101 38.2545 1.00101 24.9998C1.00101 11.7451 11.7461 1 25.0008 1C38.2555 1 49.0006 11.7451 49.0006 24.9998Z" fill="white" stroke="#146EB4" stroke-width="2"/>
<path d="M40.3135 17.9665C39.2422 18.4416 38.0897 18.7629 36.8811 18.9064C38.1151 18.1671 39.0621 16.9972 39.5091 15.601C38.3544 16.286 37.075 16.7829 35.7144 17.0507C34.6244 15.8898 33.0713 15.1643 31.3516 15.1643C28.052 15.1643 25.3759 17.8404 25.3759 21.14C25.3759 21.6083 25.429 22.0642 25.5315 22.5018C20.5652 22.2527 16.1618 19.8739 13.2143 16.2575C12.7 17.1398 12.405 18.1671 12.405 19.262C12.405 21.3347 13.4607 23.1645 15.0633 24.2358C14.0842 24.2051 13.1621 23.9364 12.3569 23.4876C12.3564 23.513 12.3564 23.5384 12.3564 23.5634C12.3564 26.4587 14.4171 28.8737 17.1502 29.4223C16.6493 29.5595 16.1203 29.6322 15.5762 29.6322C15.1903 29.6322 14.8164 29.5952 14.4518 29.5257C15.2121 31.8992 17.4185 33.6269 20.034 33.6755C17.9885 35.2785 15.4122 36.2335 12.6118 36.2335C12.1305 36.2335 11.6536 36.2054 11.187 36.1497C13.8302 37.8458 16.972 38.8347 20.3464 38.8347C31.3378 38.8347 37.3486 29.7293 37.3486 21.832C37.3486 21.5731 37.3428 21.3151 37.3312 21.0593C38.4997 20.217 39.5127 19.1649 40.3135 17.9665Z" fill="#146EB4"/>
</svg>
