<svg width="50" height="50" viewBox="0 0 50 50" fill="none" xmlns="http://www.w3.org/2000/svg">
<path d="M19.4189 36.3917L19.3477 37.4583H20.4167C20.8866 37.4583 21.2824 37.3492 21.6306 37.1477C21.9281 36.9755 22.1601 36.7491 22.3121 36.6006C22.3203 36.5926 22.3283 36.5849 22.336 36.5773L22.3375 36.5759L22.3619 36.5521L22.3638 36.5503L24.758 34.2222L30.3224 38.3333L30.3756 38.3726L30.4335 38.4045C31.125 38.786 31.9775 39.0236 32.7844 38.6598C33.596 38.2938 33.9896 37.4881 34.1611 36.6675C34.1612 36.6669 34.1613 36.6663 34.1614 36.6657L38.2583 17.3597C38.5128 16.3212 38.3718 15.296 37.6779 14.6249C36.9743 13.9444 35.9841 13.9012 35.1581 14.2647L11.101 23.541L11.1009 23.5409L11.0885 23.5459C10.6123 23.7369 10.1934 23.9702 9.87055 24.2556C9.55413 24.5352 9.25129 24.938 9.19902 25.4611C9.14301 26.0216 9.39621 26.4839 9.72738 26.7964C10.0409 27.0923 10.4484 27.2864 10.8659 27.4145C10.8667 27.4147 10.8676 27.415 10.8684 27.4152L17.043 29.3424L17.4839 29.48L17.8745 29.2336L25.9132 24.162L20.172 29.3433L19.8712 29.6148L19.8442 30.0191L19.4189 36.3917ZM25 49C11.7452 49 1 38.2548 1 25C1 11.7452 11.7452 1 25 1C38.2548 1 49 11.7452 49 25C49 38.2548 38.2548 49 25 49Z" stroke="#FF9900" stroke-width="2"/>
</svg>
