<svg width="50" height="50" viewBox="0 0 50 50" fill="none" xmlns="http://www.w3.org/2000/svg">
<path d="M32.4512 13.3024H17.5489C15.1702 13.3024 13.235 15.2376 13.235 17.6163V32.5185C13.235 34.8972 15.1702 36.8329 17.5489 36.8329H32.4512C34.8298 36.8329 36.7655 34.8977 36.7655 32.5185V17.6163C36.7655 15.2376 34.8303 13.3024 32.4512 13.3024ZM25 32.8138C20.7291 32.8138 17.2542 29.3389 17.2542 25.0674C17.2542 20.7965 20.7291 17.3216 25 17.3216C29.2715 17.3216 32.7464 20.7965 32.7464 25.0674C32.7464 29.3383 29.2709 32.8138 25 32.8138ZM32.9954 18.9231C31.9844 18.9231 31.1621 18.1009 31.1621 17.0904C31.1621 16.0799 31.9844 15.2577 32.9954 15.2577C34.0059 15.2577 34.8281 16.0799 34.8281 17.0904C34.8281 18.1009 34.0059 18.9231 32.9954 18.9231Z" fill="white"/>
<path d="M25 20.5948C22.5345 20.5948 20.5269 22.6013 20.5269 25.0668C20.5269 27.5335 22.5345 29.5405 25 29.5405C27.4666 29.5405 29.4726 27.5335 29.4726 25.0668C29.4726 22.6019 27.4661 20.5948 25 20.5948Z" fill="white"/>
<path d="M1 25C1 11.7457 11.7457 1 25 1C38.2543 1 49 11.7457 49 25C49 38.2543 38.2543 49 25 49C11.7457 49 1 38.2543 1 25ZM32.4511 41.1056C37.1875 41.1056 41.0382 37.2549 41.0382 32.5185V17.6163C41.0382 12.8805 37.1875 9.02919 32.4511 9.02919H17.5489C12.8131 9.02919 8.96179 12.8805 8.96179 17.6163V32.5185C8.96179 37.2549 12.8131 41.1056 17.5489 41.1056H32.4511Z" stroke="white" stroke-width="2"/>
</svg>
