<svg width="80" height="80" viewBox="0 0 80 80" fill="none" xmlns="http://www.w3.org/2000/svg">
<rect x="0.5" y="0.5" width="79" height="79" rx="39.5" fill="#262626" stroke="white"/>
<path d="M31.6689 40C31.6689 35.3978 35.3987 31.666 40.0009 31.666C44.6031 31.666 48.3349 35.3978 48.3349 40C48.3349 44.6022 44.6031 48.334 40.0009 48.334C35.3987 48.334 31.6689 44.6022 31.6689 40ZM27.1637 40C27.1637 47.09 32.9109 52.8372 40.0009 52.8372C47.0909 52.8372 52.8381 47.09 52.8381 40C52.8381 32.91 47.0909 27.1628 40.0009 27.1628C32.9109 27.1628 27.1637 32.91 27.1637 40ZM50.3463 26.6538C50.346 27.2471 50.5217 27.8272 50.8512 28.3207C51.1806 28.8142 51.649 29.1989 52.1971 29.4262C52.7452 29.6535 53.3484 29.7131 53.9303 29.5976C54.5123 29.4821 55.047 29.1966 55.4667 28.7772C55.8864 28.3578 56.1724 27.8233 56.2884 27.2414C56.4044 26.6596 56.3452 26.0563 56.1183 25.5081C55.8915 24.9598 55.5072 24.4911 55.014 24.1613C54.5207 23.8314 53.9408 23.6552 53.3475 23.655H53.3462C52.5509 23.6554 51.7883 23.9714 51.2258 24.5337C50.6633 25.0959 50.3469 25.8585 50.3463 26.6538ZM29.9009 60.3494C27.4635 60.2384 26.1387 59.8324 25.2583 59.4894C24.0911 59.035 23.2583 58.4938 22.3827 57.6194C21.5071 56.745 20.9651 55.913 20.5127 54.7458C20.1695 53.8658 19.7635 52.5406 19.6527 50.1032C19.5315 47.468 19.5073 46.6764 19.5073 40.0002C19.5073 33.324 19.5335 32.5346 19.6527 29.8972C19.7637 27.4598 20.1727 26.1372 20.5127 25.2546C20.9671 24.0874 21.5083 23.2546 22.3827 22.379C23.2571 21.5034 24.0891 20.9614 25.2583 20.509C26.1383 20.1658 27.4635 19.7598 29.9009 19.649C32.5361 19.5278 33.3277 19.5036 40.0009 19.5036C46.6741 19.5036 47.4664 19.5298 50.1039 19.649C52.5413 19.76 53.8638 20.169 54.7465 20.509C55.9137 20.9614 56.7465 21.5046 57.6221 22.379C58.4977 23.2534 59.0377 24.0874 59.4921 25.2546C59.8353 26.1346 60.2412 27.4598 60.3521 29.8972C60.4733 32.5346 60.4975 33.324 60.4975 40.0002C60.4975 46.6764 60.4733 47.4658 60.3521 50.1032C60.2411 52.5406 59.833 53.8654 59.4921 54.7458C59.0377 55.913 58.4965 56.7458 57.6221 57.6194C56.7477 58.493 55.9137 59.035 54.7465 59.4894C53.8665 59.8326 52.5413 60.2386 50.1039 60.3494C47.4687 60.4706 46.6771 60.4948 40.0009 60.4948C33.3247 60.4948 32.5353 60.4706 29.9009 60.3494ZM29.6939 15.1514C27.0325 15.2726 25.2139 15.6946 23.6257 16.3126C21.9809 16.9508 20.5885 17.807 19.1971 19.1962C17.8057 20.5854 16.9517 21.98 16.3135 23.6248C15.6955 25.214 15.2735 27.0316 15.1523 29.693C15.0291 32.3586 15.0009 33.2108 15.0009 40C15.0009 46.7892 15.0291 47.6414 15.1523 50.307C15.2735 52.9686 15.6955 54.786 16.3135 56.3752C16.9517 58.019 17.8059 59.4152 19.1971 60.8038C20.5883 62.1924 21.9809 63.0474 23.6257 63.6874C25.2169 64.3054 27.0325 64.7274 29.6939 64.8486C32.3609 64.9698 33.2117 65 40.0009 65C46.7901 65 47.6423 64.9718 50.3078 64.8486C52.9694 64.7274 54.7868 64.3054 56.376 63.6874C58.0198 63.0474 59.4132 62.193 60.8046 60.8038C62.196 59.4146 63.0483 58.019 63.6883 56.3752C64.3063 54.786 64.7302 52.9684 64.8494 50.307C64.9706 47.6394 64.9988 46.7892 64.9988 40C64.9988 33.2108 64.9706 32.3586 64.8494 29.693C64.7282 27.0314 64.3063 25.213 63.6883 23.6248C63.0483 21.981 62.1938 20.5876 60.8046 19.1962C59.4154 17.8048 58.0199 16.9508 56.3781 16.3126C54.7869 15.6946 52.9692 15.2706 50.3098 15.1514C47.6442 15.0302 46.792 15 40.0029 15C33.2137 15 32.3609 15.0282 29.6939 15.1514Z" fill="white"/>
</svg>
