<svg width="50" height="50" viewBox="0 0 50 50" fill="none" xmlns="http://www.w3.org/2000/svg">
<circle cx="25" cy="25" r="24" stroke="#146EB4" stroke-width="2"/>
<path d="M40.2681 36.8361H35.1787C34.972 36.8361 34.8043 36.6722 34.8043 36.4703V31.0196H15.2377V36.4703C15.2377 36.6722 15.0701 36.8361 14.8632 36.8361H9.73168C8.77673 36.8361 8 36.0775 8 35.1448V22.743C8 21.8102 8.77673 21.0515 9.73168 21.0515H40.2683C41.2233 21.0515 42 21.8102 42 22.743V35.1448C41.9998 36.0774 41.2233 36.8361 40.2681 36.8361ZM35.5531 36.1046H40.2681C40.8101 36.1046 41.251 35.6741 41.251 35.1448V22.743C41.251 22.2136 40.8101 21.783 40.2681 21.783H9.73168C9.18971 21.783 8.74883 22.2136 8.74883 22.743V35.1448C8.74883 35.6743 9.18971 36.1046 9.73168 36.1046H14.489V30.6538C14.489 30.4519 14.6567 30.2881 14.8634 30.2881H35.1789C35.3856 30.2881 35.5533 30.4519 35.5533 30.6538V36.1046H35.5531Z" fill="#146EB4" stroke="#146EB4"/>
<path d="M14.8209 21.7831H11.3432C11.1365 21.7831 10.9688 21.6192 10.9688 21.4174V18.1562C10.9688 17.4975 11.5173 16.9619 12.1914 16.9619H14.8209C15.0278 16.9619 15.1953 17.1258 15.1953 17.3276V21.4174C15.1953 21.6194 15.0278 21.7831 14.8209 21.7831ZM11.7176 21.0516H14.4465V17.6934H12.1914C11.9301 17.6934 11.7176 17.9013 11.7176 18.1562V21.0516Z" fill="#146EB4" stroke="#146EB4"/>
<path d="M38.6566 21.7831H35.1789C34.9722 21.7831 34.8044 21.6192 34.8044 21.4174V17.3276C34.8044 17.1258 34.9722 16.9619 35.1789 16.9619H37.8084C38.4825 16.9619 39.031 17.4977 39.031 18.1562V21.4174C39.031 21.6194 38.8635 21.7831 38.6566 21.7831ZM35.5531 21.0516H38.282V18.1562C38.282 17.9011 38.0695 17.6934 37.8082 17.6934H35.5531V21.0516Z" fill="#146EB4" stroke="#146EB4"/>
<path d="M35.1787 21.7829H14.8209C14.6143 21.7829 14.4465 21.6191 14.4465 21.4172V6.36573C14.4465 6.16385 14.6143 6 14.8209 6H31.404C31.5124 6 31.6154 6.0459 31.6865 6.12581L35.4612 10.3631C35.5206 10.4295 35.5531 10.5149 35.5531 10.6032V21.4175C35.5531 21.6192 35.3856 21.7829 35.1787 21.7829ZM15.1954 21.0514H34.8043V10.7398L31.2335 6.73145H15.1954V21.0514Z" fill="#146EB4" stroke="#146EB4"/>
<path d="M36.8751 31.0195H13.1244C12.9176 31.0195 12.75 30.8557 12.75 30.6538C12.75 30.4519 12.9176 30.2881 13.1244 30.2881H36.8751C37.0818 30.2881 37.2496 30.4519 37.2496 30.6538C37.2496 30.8557 37.0818 31.0195 36.8751 31.0195Z" fill="#146EB4" stroke="#146EB4"/>
<path d="M35.1787 43.9999H14.8634C14.6566 43.9999 14.489 43.836 14.489 43.6342V30.6538C14.489 30.4519 14.6566 30.2881 14.8634 30.2881H35.1787C35.3856 30.2881 35.5531 30.4519 35.5531 30.6538V43.6342C35.5531 43.836 35.3856 43.9999 35.1787 43.9999ZM15.2378 43.2684H34.8045V31.0197H15.2378V43.2684Z" fill="#146EB4" stroke="#146EB4"/>
<path d="M31.7434 36.8359H18.2564C18.0497 36.8359 17.882 36.6721 17.882 36.4702C17.882 36.2683 18.0497 36.1045 18.2564 36.1045H31.7434C31.9501 36.1045 32.1178 36.2683 32.1178 36.4702C32.1178 36.6721 31.9501 36.8359 31.7434 36.8359Z" fill="#146EB4" stroke="#146EB4"/>
<path d="M31.7434 33.522H18.2564C18.0497 33.522 17.882 33.3581 17.882 33.1563C17.882 32.9544 18.0497 32.7905 18.2564 32.7905H31.7434C31.9501 32.7905 32.1178 32.9544 32.1178 33.1563C32.1178 33.3581 31.9501 33.522 31.7434 33.522Z" fill="#146EB4" stroke="#146EB4"/>
<path d="M31.7434 40.1504H18.2564C18.0497 40.1504 17.882 39.9866 17.882 39.7847C17.882 39.5828 18.0497 39.4189 18.2564 39.4189H31.7434C31.9501 39.4189 32.1178 39.5828 32.1178 39.7847C32.1178 39.9866 31.9501 40.1504 31.7434 40.1504Z" fill="#146EB4" stroke="#146EB4"/>
<path d="M13.8242 25.8827H12.3399C11.5839 25.8827 10.9688 25.282 10.9688 24.5434C10.9688 23.8048 11.5839 23.2041 12.3399 23.2041H13.8242C14.5804 23.2041 15.1953 23.8048 15.1953 24.5434C15.1953 25.282 14.5804 25.8827 13.8242 25.8827ZM12.3399 23.9356C11.9967 23.9356 11.7176 24.2082 11.7176 24.5434C11.7176 24.8786 11.9967 25.1512 12.3399 25.1512H13.8242C14.1674 25.1512 14.4465 24.8786 14.4465 24.5434C14.4465 24.2082 14.1674 23.9356 13.8242 23.9356H12.3399Z" fill="#146EB4" stroke="#146EB4"/>
<path d="M17.6837 25.8827C16.9278 25.8827 16.3126 25.282 16.3126 24.5434C16.3126 23.8048 16.9278 23.2041 17.6837 23.2041C18.4399 23.2041 19.0548 23.8048 19.0548 24.5434C19.0548 25.282 18.4399 25.8827 17.6837 25.8827ZM17.6837 23.9356C17.3406 23.9356 17.0615 24.2082 17.0615 24.5434C17.0615 24.8786 17.3406 25.1512 17.6837 25.1512C18.0269 25.1512 18.306 24.8786 18.306 24.5434C18.306 24.2082 18.0269 23.9356 17.6837 23.9356Z" fill="#146EB4" stroke="#146EB4"/>
</svg>
