<svg width="50" height="50" viewBox="0 0 50 50" fill="none" xmlns="http://www.w3.org/2000/svg">
<circle cx="25" cy="25" r="25" fill="#146EB4"/>
<path d="M32.4512 13.3025H17.5489C15.1702 13.3025 13.235 15.2377 13.235 17.6163V32.5186C13.235 34.8972 15.1702 36.833 17.5489 36.833H32.4512C34.8298 36.833 36.7655 34.8978 36.7655 32.5186V17.6163C36.7655 15.2377 34.8303 13.3025 32.4512 13.3025ZM25 32.8138C20.7291 32.8138 17.2542 29.3389 17.2542 25.0675C17.2542 20.7965 20.7291 17.3216 25 17.3216C29.2715 17.3216 32.7464 20.7965 32.7464 25.0675C32.7464 29.3384 29.2709 32.8138 25 32.8138ZM32.9954 18.9232C31.9844 18.9232 31.1621 18.1009 31.1621 17.0905C31.1621 16.08 31.9844 15.2577 32.9954 15.2577C34.0059 15.2577 34.8281 16.08 34.8281 17.0905C34.8281 18.1009 34.0059 18.9232 32.9954 18.9232Z" fill="white"/>
<path d="M25 20.5947C22.5345 20.5947 20.5269 22.6012 20.5269 25.0667C20.5269 27.5334 22.5345 29.5404 25 29.5404C27.4666 29.5404 29.4726 27.5334 29.4726 25.0667C29.4726 22.6018 27.4661 20.5947 25 20.5947Z" fill="white"/>
<path d="M25 0C11.1934 0 0 11.1934 0 25C0 38.8066 11.1934 50 25 50C38.8066 50 50 38.8066 50 25C50 11.1934 38.8066 0 25 0ZM40.0382 32.5185C40.0382 36.7026 36.6352 40.1056 32.4511 40.1056H17.5489C13.3654 40.1056 9.96179 36.7026 9.96179 32.5185V17.6163C9.96179 13.4328 13.3654 10.0292 17.5489 10.0292H32.4511C36.6352 10.0292 40.0382 13.4328 40.0382 17.6163V32.5185Z" fill="white"/>
<path d="M50 25C50 38.8071 38.8071 50 25 50C11.1929 50 0 38.8071 0 25C0 11.1929 11.1929 0 25 0C38.8071 0 50 11.1929 50 25ZM1.63202 25C1.63202 37.9058 12.0942 48.368 25 48.368C37.9058 48.368 48.368 37.9058 48.368 25C48.368 12.0942 37.9058 1.63202 25 1.63202C12.0942 1.63202 1.63202 12.0942 1.63202 25Z" fill="#146EB4"/>
</svg>
