<svg width="50" height="50" viewBox="0 0 50 50" fill="none" xmlns="http://www.w3.org/2000/svg">
<g clip-path="url(#clip0)">
<path d="M49 24.999C49 38.2539 38.2548 48.999 25 48.999C11.7452 48.999 1 38.2539 1 24.999C1 11.7442 11.7452 0.999023 25 0.999023C38.2548 0.999023 49 11.7442 49 24.999Z" stroke="#146EB4" stroke-width="2"/>
<path d="M39.9372 27.0113V37.3183H33.9615V27.7021C33.9615 25.2876 33.0988 23.6387 30.9351 23.6387C29.284 23.6387 28.3031 24.7488 27.87 25.8237C27.7126 26.2078 27.6721 26.7413 27.6721 27.2801V37.3179H21.6959C21.6959 37.3179 21.7762 21.0312 21.6959 19.3453H27.6725V21.8922C27.6605 21.9122 27.6436 21.9318 27.6329 21.951H27.6725V21.8922C28.4667 20.6702 29.883 18.9233 33.0582 18.9233C36.9897 18.9233 39.9372 21.492 39.9372 27.0113ZM15.4444 10.6819C13.4002 10.6819 12.0628 12.0237 12.0628 13.7867C12.0628 15.5123 13.3614 16.8929 15.366 16.8929H15.4047C17.489 16.8929 18.785 15.5123 18.785 13.7867C18.7453 12.0237 17.489 10.6819 15.4444 10.6819ZM12.418 37.3183H18.3919V19.3453H12.418V37.3183Z" fill="#146EB4"/>
</g>
<defs>
<clipPath id="clip0">
<rect width="50" height="50" fill="white"/>
</clipPath>
</defs>
</svg>
