<svg width="310" height="332" viewBox="0 0 310 332" fill="none" xmlns="http://www.w3.org/2000/svg">
<path d="M308.765 32.1179C299.457 31.4218 292.969 29.0036 289.457 24.9073C283.616 18.3416 282.279 7.30586 281.985 1.31168C281.985 0.571572 281.39 0 280.648 0H279.56C279.164 0 278.818 0.175867 278.517 0.425015C278.319 0.666833 278.172 1.01124 278.172 1.38496C278.223 6.14806 275.946 18.4662 270.104 25.2811C266.438 29.7217 260.002 32.4623 251.494 33.2024C251.141 33.2024 250.847 33.2537 250.598 33.327C250.252 33.4003 249.907 33.6714 249.709 34.0452C249.51 34.3602 249.51 34.756 249.657 35.1297C249.804 35.4961 249.804 35.7232 249.907 36.0676C249.907 36.5806 250.252 37.0276 250.745 37.1741C250.95 37.2474 251.391 37.2987 251.494 37.2987C274.314 37.3207 278.223 57.9412 278.517 70.1787C278.517 71.0727 279.311 71.9081 280.89 71.9081C281.14 71.9081 281.485 71.8861 281.735 71.8348C282.279 71.6883 282.727 71.19 282.778 70.5744C283.271 63.9354 284.358 50.1371 290.096 44.905C295.004 40.0613 300.941 37.2767 308.361 36.434C308.956 36.3608 309.456 35.9137 309.603 35.2982C309.603 35.0271 309.654 34.8292 309.801 34.5361C310 34.0891 310 33.796 310 33.4956C310 32.7848 309.456 32.2132 308.765 32.1179Z" fill="#EEF0F2"/>
<path d="M131.853 119.159C137.342 112.344 142.492 105.632 145.806 97.7545C149.273 89.7305 151.801 81.4574 152.793 72.8985C153.924 64.2809 153.527 55.6634 152.043 47.1484C151.749 45.2945 151.206 44.3126 149.178 44.4591C141.353 45.104 133.484 46.782 125.814 49.0976C118.283 51.3473 111.009 54.5789 103.927 58.4333C97.0495 62.2584 89.7244 65.8124 83.538 71.0665C82.0539 72.2756 83.3911 73.983 84.7797 75.2873C95.8593 86.3744 95.0732 87.1438 106.212 98.2235C117.247 109.281 114.969 107.706 126.056 118.807C127.592 120.288 130.465 120.837 131.853 119.159Z" fill="#EEF0F2"/>
<path d="M158.876 149.736C160.36 151.29 160.36 150.652 161.947 149.121C171.102 140.034 207.088 102.911 216.25 93.7001C225.449 84.5476 237.432 72.3467 235.948 71.0937C229.563 65.5905 222.929 59.8381 215.751 55.9617C208.425 52.012 199.565 51.2719 191.644 49.0442C183.68 46.7286 175.605 44.9553 167.34 44.457C165.062 44.2591 163.431 45.4682 163.923 47.7179C165.261 57.2221 164.967 68.2065 163.923 77.828C162.439 91.2599 160.411 95.1583 156.451 104.047C152.543 112.738 145.805 120.732 139.42 128.265C138.083 129.87 150.706 141.617 158.876 149.736Z" fill="#EEF0F2"/>
<path d="M199.813 191.776C210.9 202.79 209.563 202.761 220.598 213.796C231.693 224.803 233.419 223.623 244.411 234.681C245.946 236.212 248.025 236.454 249.363 234.776C254.557 228.709 257.775 222.238 261.588 215.401C265.394 208.388 269.758 201.434 272.036 193.923C274.306 186.295 274.953 176.029 275.599 168.129C275.695 166.18 274.409 165.66 272.477 165.213C263.866 163.96 254.954 163.483 246.343 164.524C237.783 165.638 230.01 168.027 221.987 171.463C209.115 176.893 205.999 181.21 199.166 186.764C197.433 188.076 198.329 190.252 199.813 191.776Z" fill="#EEF0F2"/>
<path d="M187.14 177.707C188.521 179.092 189.858 177.018 191.445 175.779C198.969 169.411 224.758 146.556 274.505 151.935C276.834 152.184 273.374 134.758 271.089 126.807C268.819 118.908 266.387 111.309 262.383 104.018C258.474 96.8366 253.764 90.3954 248.32 84.0275C247.034 82.5473 245.653 80.6933 244.316 82.0783C235.154 91.2088 229.313 96.1477 220.158 105.33C210.012 115.625 178.478 147.736 169.271 156.874C169.271 156.874 178.97 169.609 187.14 177.707Z" fill="#EEF0F2"/>
<path d="M119.627 128.435C112.493 120.734 112.596 120.587 105.418 112.834C98.2396 105.155 97.8428 105.485 90.716 97.827C83.5378 90.0521 83.1925 90.3013 76.0657 82.5704C74.5816 80.9949 72.4509 80.1522 71.0108 81.735C66.3086 86.8132 62.7452 92.6902 59.0863 98.296C55.4201 104.048 53.2453 110.489 50.6664 116.689C48.0949 122.983 45.6189 129.124 44.1348 135.697C42.6507 142.314 40.9681 148.924 40.6155 155.666C40.2702 162.4 40.9681 169.193 41.8131 175.883C42.4008 180.866 44.4287 189.557 45.7659 194.371C46.1626 196.049 -1.35173 249.887 0.0295438 251.316C1.86634 253.192 59.0349 192.539 65.9633 186.171C72.7962 179.804 85.3232 165.859 92.2516 159.439C99.18 153.072 98.8347 152.705 105.712 146.359C112.64 139.991 112.148 139.5 119.032 133.081C120.612 131.623 121.06 130.018 119.627 128.435Z" fill="#EEF0F2"/>
<path d="M179.072 185.107C171.498 177.633 170.315 177.017 162.74 169.514C161.3 168.077 161.946 168.524 160.609 167.411C159.72 166.648 159.522 167.044 158.78 167.535C149.963 173.83 99.0762 224.905 96.6589 222.237C94.1756 219.57 153.827 161.189 152.292 159.738C151.351 158.8 149.72 157.218 148.28 155.811C140.757 148.278 140.265 148.798 132.741 141.301C131.257 139.763 130.162 139.25 128.729 140.752C121.603 147.735 120.963 147.098 113.932 154.111C106.798 161.116 106.798 161.116 99.8182 168.18C92.6915 175.185 63.7876 202.936 56.7049 209.993C55.3677 211.348 55.4705 213.349 56.3596 215.173C59.0339 219.819 62.8471 225.249 66.1607 229.639C69.3788 233.962 73.3904 237.838 77.2991 241.737C81.2078 245.613 85.763 248.625 90.0171 251.813C92.2506 253.439 95.3217 255.711 99.179 257.785C99.179 257.785 86.6521 273.437 72.2001 290.218C55.3236 309.871 36.4119 331.1 37.154 331.935C39.8798 335.05 143.233 225.572 150.264 218.537C157.295 211.48 157.295 211.422 164.371 204.416C171.402 197.403 170.851 196.883 177.882 189.826C179.418 188.346 180.505 186.595 179.072 185.107Z" fill="#EEF0F2"/>
<path d="M185.407 198.737C178.927 205.523 178.28 204.959 171.895 211.796C165.364 218.581 138.429 244.705 131.897 251.512C125.468 258.327 88.2915 297.751 90.5691 300.147C91.6051 301.225 124.322 271.114 125.116 271.364C130.81 273.283 135.909 275.306 141.853 276.149C148.583 277.035 155.415 277.922 162.19 277.68C168.978 277.387 175.51 274.918 182.189 273.503C188.772 272.126 195.803 271.554 202.085 269.019C208.279 266.469 214.465 263.266 220.255 259.661C225.897 256.078 231.444 251.959 236.543 247.314C238.123 245.936 237.036 244.258 235.603 242.924C227.925 235.64 228.77 236.432 220.997 229.221C213.326 221.937 213.084 220.53 205.354 213.254C197.684 206.043 197.831 205.845 190.109 198.635C188.581 197.111 186.847 197.155 185.407 198.737Z" fill="#EEF0F2"/>
</svg>
