<svg width="180" height="180" viewBox="0 0 180 180" fill="none" xmlns="http://www.w3.org/2000/svg">
<path d="M165.484 0H14.5161C6.51194 0 0 6.51194 0 14.5161V113.226C0 121.23 6.51194 127.742 14.5161 127.742H50.2606C57.2545 144.221 60.9677 162.029 60.9677 180L66.7742 179.954C66.7742 174.809 66.4374 169.679 65.8684 164.578L65.9236 164.633L69.6774 160.879L75.7336 166.935L67.6248 175.044L71.73 179.149L79.8387 171.041L87.9474 179.149L90 177.097L92.0526 179.149L100.161 171.041L108.27 179.149L112.375 175.044L104.266 166.935L115.392 155.81C113.986 163.78 113.226 171.874 113.226 180L119.032 179.954C119.032 162.02 122.745 144.218 129.739 127.742H165.484C173.488 127.742 180 121.23 180 113.226V14.5161C180 6.51194 173.488 0 165.484 0ZM130.645 98.7097H49.3548V46.4516H130.645V98.7097ZM136.452 104.516V110.323H43.5484V104.516H136.452ZM106.217 116.129L100.161 122.185L94.1052 116.129H106.217ZM110.323 120.234L116.379 126.29L110.323 132.346L104.266 126.29L110.323 120.234ZM96.0561 126.29L90 132.346L83.9439 126.29L90 120.234L96.0561 126.29ZM85.8948 116.129L79.8387 122.185L73.7826 116.129H85.8948ZM65.5723 116.129L59.5161 122.185L53.46 116.129H65.5723ZM65.5723 136.452L61.11 140.914C59.7571 136.28 58.1865 131.714 56.3603 127.243L65.5723 136.452ZM63.6213 126.29L69.6774 120.234L75.7336 126.29L69.6774 132.346L63.6213 126.29ZM79.8387 130.395L85.8948 136.452L79.8387 142.508L73.7826 136.452L79.8387 130.395ZM90 140.557L96.0561 146.613L90 152.669L83.9439 146.613L90 140.557ZM94.1052 136.452L100.161 130.395L106.217 136.452L100.161 142.508L94.1052 136.452ZM110.323 140.557L116.379 146.613L110.323 152.669L104.266 146.613L110.323 140.557ZM114.428 136.452L120.484 130.395L121.886 131.798C120.78 134.803 119.787 137.842 118.89 140.914L114.428 136.452ZM114.428 116.129H128.775C127.126 119.331 125.602 122.595 124.209 125.91L114.428 116.129ZM64.8726 157.474C64.3181 154.086 63.6561 150.718 62.8519 147.382L69.6774 140.557L75.7336 146.613L64.8726 157.474ZM73.7826 156.774L79.8387 150.718L85.8948 156.774L79.8387 162.83L73.7826 156.774ZM90 172.992L83.9439 166.935L90 160.879L96.0561 166.935L90 172.992ZM94.1052 156.774L100.161 150.718L106.217 156.774L100.161 162.83L94.1052 156.774ZM174.194 113.226C174.194 118.028 170.286 121.935 165.484 121.935H132.344C133.284 119.982 134.239 118.036 135.276 116.129H139.355C140.96 116.129 142.258 114.831 142.258 113.226V101.613C142.258 100.007 140.96 98.7097 139.355 98.7097H136.452V43.5484C136.452 41.9429 135.154 40.6452 133.548 40.6452H46.4516C44.8461 40.6452 43.5484 41.9429 43.5484 43.5484V98.7097H40.6452C39.0397 98.7097 37.7419 100.007 37.7419 101.613V113.226C37.7419 114.831 39.0397 116.129 40.6452 116.129H44.7242C45.7606 118.036 46.7158 119.982 47.6565 121.935H14.5161C9.71419 121.935 5.80645 118.028 5.80645 113.226V14.5161C5.80645 9.71419 9.71419 5.80645 14.5161 5.80645H165.484C170.286 5.80645 174.194 9.71419 174.194 14.5161V113.226Z" fill="#EEF0F2"/>
<path d="M165.585 11.5066H14.413C12.8054 11.5066 11.5059 12.8027 11.5059 14.4062V112.99C11.5059 114.594 12.8054 115.89 14.413 115.89H31.8559V110.091H17.3202V17.3057H162.678V110.091H148.142V115.89H165.585C167.193 115.89 168.492 114.594 168.492 112.99V14.4062C168.492 12.8027 167.193 11.5066 165.585 11.5066Z" fill="#EEF0F2"/>
</svg>
