<svg width="150" height="150" viewBox="0 0 150 150" fill="none" xmlns="http://www.w3.org/2000/svg">
<path d="M137.903 0H12.0968C5.42661 0 0 5.42661 0 12.0968V94.3548C0 101.025 5.42661 106.452 12.0968 106.452H41.8839C47.7121 120.184 50.8065 135.024 50.8065 150L55.6452 149.961C55.6452 145.674 55.3645 141.399 54.8903 137.148L54.9363 137.194L58.0645 134.066L63.1113 139.113L56.354 145.87L59.775 149.291L66.5323 142.534L73.2895 149.291L75 147.581L76.7105 149.291L83.4677 142.534L90.225 149.291L93.646 145.87L86.8887 139.113L96.1597 129.842C94.9887 136.483 94.3548 143.228 94.3548 150L99.1936 149.961C99.1936 135.017 102.288 120.181 108.116 106.452H137.903C144.573 106.452 150 101.025 150 94.3548V12.0968C150 5.42661 144.573 0 137.903 0ZM108.871 82.2581H41.129V38.7097H108.871V82.2581ZM113.71 87.0968V91.9355H36.2903V87.0968H113.71ZM88.5145 96.7742L83.4677 101.821L78.421 96.7742H88.5145ZM91.9355 100.195L96.9823 105.242L91.9355 110.289L86.8887 105.242L91.9355 100.195ZM80.0468 105.242L75 110.289L69.9532 105.242L75 100.195L80.0468 105.242ZM71.579 96.7742L66.5323 101.821L61.4855 96.7742H71.579ZM54.6436 96.7742L49.5968 101.821L44.55 96.7742H54.6436ZM54.6436 113.71L50.925 117.428C49.7976 113.567 48.4887 109.761 46.9669 106.035L54.6436 113.71ZM53.0177 105.242L58.0645 100.195L63.1113 105.242L58.0645 110.289L53.0177 105.242ZM66.5323 108.663L71.579 113.71L66.5323 118.756L61.4855 113.71L66.5323 108.663ZM75 117.131L80.0468 122.177L75 127.224L69.9532 122.177L75 117.131ZM78.421 113.71L83.4677 108.663L88.5145 113.71L83.4677 118.756L78.421 113.71ZM91.9355 117.131L96.9823 122.177L91.9355 127.224L86.8887 122.177L91.9355 117.131ZM95.3565 113.71L100.403 108.663L101.572 109.831C100.65 112.335 99.8226 114.869 99.075 117.428L95.3565 113.71ZM95.3565 96.7742H107.313C105.939 99.4427 104.669 102.162 103.507 104.925L95.3565 96.7742ZM54.0605 131.228C53.5984 128.405 53.0468 125.598 52.3766 122.819L58.0645 117.131L63.1113 122.177L54.0605 131.228ZM61.4855 130.645L66.5323 125.598L71.579 130.645L66.5323 135.692L61.4855 130.645ZM75 144.16L69.9532 139.113L75 134.066L80.0468 139.113L75 144.16ZM78.421 130.645L83.4677 125.598L88.5145 130.645L83.4677 135.692L78.421 130.645ZM145.161 94.3548C145.161 98.3565 141.905 101.613 137.903 101.613H110.286C111.07 99.9847 111.866 98.3637 112.73 96.7742H116.129C117.467 96.7742 118.548 95.6927 118.548 94.3548V84.6774C118.548 83.3395 117.467 82.2581 116.129 82.2581H113.71V36.2903C113.71 34.9524 112.628 33.871 111.29 33.871H38.7097C37.3718 33.871 36.2903 34.9524 36.2903 36.2903V82.2581H33.871C32.5331 82.2581 31.4516 83.3395 31.4516 84.6774V94.3548C31.4516 95.6927 32.5331 96.7742 33.871 96.7742H37.2702C38.1339 98.3637 38.9298 99.9847 39.7137 101.613H12.0968C8.09516 101.613 4.83871 98.3565 4.83871 94.3548V12.0968C4.83871 8.09516 8.09516 4.83871 12.0968 4.83871H137.903C141.905 4.83871 145.161 8.09516 145.161 12.0968V94.3548Z" fill="#EEF0F2"/>
<path d="M137.988 9.58887H12.0113C10.6715 9.58887 9.58862 10.6689 9.58862 12.0051V94.1587C9.58862 95.4949 10.6715 96.575 12.0113 96.575H26.547V91.7424H14.4339V14.4214H135.565V91.7424H123.452V96.575H137.988C139.328 96.575 140.411 95.4949 140.411 94.1587V12.0051C140.411 10.6689 139.328 9.58887 137.988 9.58887Z" fill="#EEF0F2"/>
</svg>
