<svg width="19" height="18" viewBox="0 0 19 18" fill="none" xmlns="http://www.w3.org/2000/svg">
<path d="M9.5 0C4.52944 0 0.5 4.02944 0.5 9C0.5 13.9706 4.52944 18 9.5 18C14.4706 18 18.5 13.9706 18.5 9C18.4941 4.03188 14.4681 0.00588916 9.5 0ZM12.5251 6.42825C12.3836 4.65703 11.932 2.92445 11.1909 1.3095C12.487 1.59653 13.6892 2.2075 14.6851 3.08531C14.0962 4.13238 13.7409 5.29447 13.6434 6.49181C13.2727 6.46875 12.9009 6.44287 12.5251 6.42825ZM15.5103 3.92344C16.2583 4.80863 16.8009 5.84846 17.0994 6.96825C16.3484 6.81356 15.5666 6.6915 14.7622 6.60037C14.8395 5.66868 15.0934 4.76021 15.5103 3.92344ZM9.75481 1.13794C10.5142 2.06437 11.1223 4.03144 11.3934 6.40013C10.9025 6.40013 10.4111 6.41006 9.91906 6.42994C9.48097 4.48071 8.30819 2.77545 6.64475 1.66894C7.55416 1.31084 8.52263 1.12634 9.5 1.125C9.58606 1.125 9.66875 1.13512 9.75481 1.13794ZM5.4725 2.24494C7.1036 3.15692 8.29609 4.6903 8.77831 6.49575C8.30581 6.53288 7.835 6.57956 7.37206 6.63806C5.41448 6.85306 3.49796 7.34824 1.68125 8.10844C1.96293 5.67018 3.36459 3.50238 5.4725 2.24494ZM1.64356 9.37069C3.49723 8.51408 5.47908 7.96792 7.50987 7.75406C7.97506 7.69781 8.44869 7.65112 8.92625 7.61569C8.93629 7.8873 8.92727 8.15928 8.89925 8.42962C8.618 11.043 6.62281 13.2519 3.6635 14.2684C2.44184 12.9199 1.72766 11.1883 1.64356 9.37069ZM4.56856 15.1307C7.64769 13.8932 9.707 11.4396 10.0175 8.54944C10.0526 8.21805 10.0637 7.88455 10.0507 7.55156C10.5311 7.53356 11.012 7.52644 11.4935 7.53019C11.6966 10.4411 11.4164 14.2403 10.3162 16.6039C10.2757 16.6888 10.2324 16.7608 10.1908 16.8396C9.96294 16.8593 9.73344 16.8744 9.5 16.8744C7.70501 16.8756 5.96408 16.2602 4.56856 15.1312V15.1307ZM11.5436 16.5971C12.5487 14.0659 12.8131 10.3866 12.6247 7.56225C12.9521 7.57631 13.2761 7.59994 13.5989 7.62469C13.6445 10.1295 14.6036 12.3182 16.0655 13.3414C15.0036 14.9405 13.3954 16.0979 11.5419 16.5971H11.5436ZM16.6156 12.3548C15.5311 11.5307 14.7926 9.74869 14.7267 7.73269C15.6025 7.83156 16.4723 7.97765 17.3323 8.17031C17.361 8.44594 17.3753 8.72288 17.375 9C17.3738 10.1609 17.1138 11.307 16.6139 12.3548H16.6156Z" fill="#146EB4"/>
</svg>
