<svg width="77" height="180" viewBox="0 0 77 180" fill="none" xmlns="http://www.w3.org/2000/svg">
<path fill-rule="evenodd" clip-rule="evenodd" d="M65.958 179.687C66.9415 177.848 68.688 171.894 65.4124 165.616C66.3958 162.153 63.7735 161.394 62.6823 153.71C63.7745 151.437 64.5386 148.73 64.4298 145.699C64.2114 142.994 62.2454 141.695 61.1532 139.639C59.4056 132.711 58.4231 125.352 55.8008 118.857C54.928 115.717 52.7436 113.011 51.2135 110.09C49.6844 102.296 48.9204 93.9625 46.5175 86.6023C46.9703 86.2609 47.3743 85.8602 47.7184 85.4112C46.0796 78.8091 43.6767 69.1754 40.1816 66.2525C41.0544 63.0054 42.3661 59.2175 42.803 56.2946C44.3311 54.2385 46.0786 51.965 49.465 50.4497C51.2126 55.2122 51.9776 61.1658 52.9601 65.9273C55.1445 70.6898 58.2028 74.9106 59.0765 79.2411C53.5067 81.4059 49.6835 86.4936 49.6835 92.4452C49.6835 100.131 55.9096 106.3 63.5541 106.3C69.2346 106.3 74.1491 102.727 76.3336 97.8572V166.913C76.3345 173.083 71.9657 178.28 65.958 179.687Z" fill="#CC2229"/>
<path fill-rule="evenodd" clip-rule="evenodd" d="M59.4205 179.892C57.2361 174.697 58.5468 170.367 58.9837 164.414C58.438 161.708 58.0002 159.002 57.5633 156.405C54.506 151.75 53.4138 147.529 52.6488 142.55C46.8605 137.464 40.0878 133.025 35.5015 127.506C27.3093 119.82 21.3026 111.919 17.1522 103.043C15.7328 102.936 14.3134 102.826 12.7833 102.826C10.162 95.7915 4.15531 87.2402 4.70093 81.7205C4.91937 76.8493 6.44848 72.412 8.30476 67.433C6.66595 67.1078 5.13782 67.6495 3.39027 66.6749C0.660212 64.9431 1.0971 61.9124 0.98739 59.2059C2.18834 53.794 5.13781 49.248 7.10381 44.3778C9.0698 40.156 10.9271 35.9352 12.7833 31.8221C15.4047 28.8992 17.0435 26.8431 20.3192 25.4356C23.1589 25.1104 25.9997 25.5433 29.0569 24.8948C30.3676 24.4619 32.0064 24.1367 32.553 23.2708C33.8636 21.4303 33.5355 19.482 34.0821 17.2094C32.3345 16.2358 32.553 11.2568 34.519 9.525C34.519 6.06137 35.9383 1.40664 38.8878 0.216497L13.5484 2.04333e-05C11.812 -0.00302183 10.092 0.333681 8.48723 0.990817C6.88242 1.64795 5.42431 2.61259 4.19653 3.82941C2.96874 5.04623 1.99545 6.49128 1.33246 8.08169C0.66947 9.6721 0.329833 11.3766 0.33303 13.0973V166.903C0.329833 168.623 0.66947 170.328 1.33246 171.918C1.99545 173.509 2.96874 174.954 4.19653 176.171C5.42431 177.387 6.88242 178.352 8.48723 179.009C10.092 179.666 11.812 180.003 13.5484 180L59.4205 179.892ZM8.74068 147.855H14.5299L18.7891 161.383V147.855H24.0317V170.476H18.1337L13.7649 156.947V170.476H8.74068V147.855ZM24.9055 147.855H31.6772C40.5237 147.855 38.2306 158.46 34.9539 158.677C39.8684 158.137 40.5237 170.476 32.551 170.476H24.9055V147.855ZM30.1481 151.534V156.62H31.4598C33.6442 156.62 33.6442 151.534 31.4598 151.534H30.1481ZM30.1481 160.518V166.796H31.4598C33.9714 166.796 33.6442 160.518 31.4598 160.518H30.1481ZM42.5994 147.855H49.5896L53.6303 170.476H48.279L47.8411 166.472H44.1285L43.4722 170.476H38.2306L42.5994 147.855ZM44.6751 162.466H47.4052L45.9848 151.209L44.6751 162.466Z" fill="#33348E"/>
<path fill-rule="evenodd" clip-rule="evenodd" d="M47.9054 0.564888C51.6189 4.02852 53.9131 9.00748 50.418 15.0688C52.6024 16.4754 48.7792 18.9654 47.9054 20.9137C46.8142 23.9444 43.1006 25.6762 43.5375 26.7586C48.3423 29.6815 52.1655 32.6034 56.9713 36.3913C59.4839 39.5307 60.4664 52.0854 61.8858 61.6104C63.9615 67.564 66.91 72.6507 68.0022 79.3615C71.8255 80.7681 74.774 83.691 76.3031 87.1546V13.1196C76.3063 11.3988 75.9666 9.69442 75.3036 8.10407C74.6406 6.51372 73.6673 5.06873 72.4395 3.85198C71.2117 2.63524 69.7536 1.67069 68.1488 1.01366C66.544 0.356631 64.8241 0.0200465 63.0877 0.0232155L47.9054 0.564888Z" fill="#CC2229"/>
</svg>
