<svg width="50" height="50" viewBox="0 0 50 50" fill="none" xmlns="http://www.w3.org/2000/svg">
<path d="M47.9808 4.83701C46.5795 4.73217 45.6029 4.36799 45.0742 3.75109C44.1949 2.76227 43.9936 1.10027 43.9494 0.197542C43.9494 0.0860797 43.8598 0 43.7481 0H43.5844C43.5246 0 43.4727 0.0264859 43.4273 0.064008C43.3975 0.100426 43.3753 0.152295 43.3753 0.208578C43.3831 0.925908 43.0402 2.78103 42.1609 3.80737C41.609 4.47614 40.6401 4.88888 39.3593 5.00034C39.3062 5.00034 39.262 5.00807 39.2244 5.01911C39.1724 5.03014 39.1204 5.07097 39.0906 5.12726C39.0607 5.17471 39.0607 5.23431 39.0828 5.29059C39.1049 5.34577 39.1049 5.37998 39.1204 5.43185C39.1204 5.5091 39.1724 5.57642 39.2465 5.59849C39.2775 5.60952 39.3439 5.61725 39.3593 5.61725C42.7947 5.62056 43.3831 8.72605 43.4273 10.569C43.4273 10.7037 43.5468 10.8295 43.7846 10.8295C43.8222 10.8295 43.8742 10.8262 43.9118 10.8184C43.9936 10.7964 44.0611 10.7213 44.0688 10.6286C44.1429 9.62878 44.3066 7.55073 45.1704 6.76277C45.9092 6.0333 46.8029 5.61394 47.92 5.48703C48.0096 5.47599 48.0848 5.40867 48.1069 5.31597C48.1069 5.27514 48.1147 5.24534 48.1368 5.2012C48.1667 5.13388 48.1667 5.08974 48.1667 5.04449C48.1667 4.93744 48.0848 4.85136 47.9808 4.83701Z" fill="white"/>
<path d="M21.3488 17.9454C22.175 16.9191 22.9503 15.9082 23.4491 14.7219C23.9712 13.5134 24.3517 12.2675 24.501 10.9785C24.6713 9.68068 24.6116 8.38286 24.3882 7.10049C24.3439 6.82129 24.2621 6.67341 23.9568 6.69548C22.7789 6.79259 21.5943 7.04531 20.4396 7.39405C19.306 7.73285 18.211 8.21953 17.1448 8.80002C16.1095 9.37609 15.0068 9.91133 14.0755 10.7026C13.8521 10.8847 14.0534 11.1418 14.2625 11.3383C15.9304 13.008 15.812 13.1239 17.4887 14.7925C19.15 16.4578 18.8071 16.2205 20.4761 17.8925C20.7073 18.1154 21.1398 18.1981 21.3488 17.9454Z" fill="white"/>
<path d="M25.4168 22.5506C25.6403 22.7846 25.6403 22.6886 25.8792 22.4579C27.2573 21.0895 32.6746 15.4987 34.0538 14.1115C35.4386 12.7331 37.2425 10.8957 37.0191 10.707C36.058 9.87816 35.0592 9.01185 33.9786 8.42805C32.8759 7.83322 31.542 7.72176 30.3497 7.38627C29.1508 7.03753 27.9353 6.77046 26.691 6.69542C26.3481 6.66562 26.1026 6.84772 26.1767 7.18652C26.378 8.61787 26.3337 10.2721 26.1767 11.7211C25.9533 13.744 25.648 14.3311 25.0518 15.6698C24.4634 16.9786 23.4492 18.1826 22.4881 19.3171C22.2868 19.5588 24.1869 21.3279 25.4168 22.5506Z" fill="white"/>
<path d="M31.5796 28.8819C33.2486 30.5406 33.0473 30.5362 34.7086 32.1982C36.3787 33.8558 36.6386 33.6781 38.2932 35.3434C38.5244 35.5741 38.8374 35.6105 39.0387 35.3578C39.8207 34.444 40.3051 33.4695 40.8791 32.4399C41.4521 31.3838 42.109 30.3365 42.4519 29.2053C42.7937 28.0564 42.891 26.5103 42.9883 25.3207C43.0027 25.0271 42.8092 24.9487 42.5183 24.8814C41.222 24.6927 39.8804 24.621 38.5841 24.7777C37.2956 24.9454 36.1254 25.3052 34.9176 25.8228C32.9799 26.6405 32.5109 27.2906 31.4823 28.1271C31.2213 28.3246 31.3562 28.6524 31.5796 28.8819Z" fill="white"/>
<path d="M29.6718 26.7631C29.8797 26.9717 30.081 26.6594 30.3199 26.4729C31.4525 25.5138 35.3346 22.0718 42.8236 22.8818C43.1742 22.9193 42.6532 20.295 42.3093 19.0976C41.9675 17.9079 41.6014 16.7635 40.9986 15.6655C40.4102 14.5839 39.7012 13.6139 38.8817 12.6549C38.6881 12.4319 38.4802 12.1527 38.2789 12.3613C36.8997 13.7364 36.0204 14.4802 34.6423 15.863C33.1148 17.4135 28.3678 22.2494 26.9819 23.6256C26.9819 23.6256 28.4419 25.5436 29.6718 26.7631Z" fill="white"/>
<path d="M19.5084 19.3425C18.4345 18.1827 18.4499 18.1606 17.3694 16.993C16.2888 15.8364 16.229 15.8861 15.1562 14.7328C14.0756 13.5619 14.0236 13.5995 12.9508 12.4352C12.7273 12.1979 12.4066 12.071 12.1898 12.3094C11.4819 13.0742 10.9455 13.9592 10.3947 14.8035C9.84281 15.6698 9.51543 16.6398 9.12721 17.5735C8.7401 18.5215 8.36737 19.4463 8.14395 20.4362C7.92053 21.4327 7.66725 22.4281 7.61416 23.4434C7.56218 24.4576 7.66725 25.4807 7.79444 26.4882C7.88293 27.2387 8.18819 28.5475 8.38949 29.2726C8.44921 29.5253 1.29651 37.6333 1.50445 37.8485C1.78095 38.1311 10.387 28.9967 11.43 28.0377C12.4586 27.0787 14.3444 24.9785 15.3873 24.0118C16.4303 23.0528 16.3783 22.9976 17.4136 22.0419C18.4566 21.0829 18.3825 21.0089 19.4188 20.0422C19.6566 19.8226 19.7241 19.5809 19.5084 19.3425Z" fill="white"/>
<path d="M28.4572 27.8776C27.3168 26.752 27.1388 26.6593 25.9985 25.5292C25.7817 25.3129 25.879 25.3802 25.6777 25.2125C25.5439 25.0977 25.514 25.1573 25.4023 25.2312C24.0751 26.1792 16.4147 33.8712 16.0508 33.4695C15.677 33.0678 24.6568 24.2755 24.4257 24.057C24.2841 23.9158 24.0386 23.6774 23.8218 23.4655C22.6892 22.331 22.6151 22.4094 21.4825 21.2804C21.2591 21.0487 21.0943 20.9714 20.8786 21.1976C19.8058 22.2494 19.7096 22.1533 18.6511 23.2095C17.5771 24.2645 17.5771 24.2645 16.5264 25.3284C15.4536 26.3834 11.1024 30.5627 10.0362 31.6254C9.83492 31.8296 9.8504 32.1309 9.98423 32.4057C10.3868 33.1053 10.9609 33.9231 11.4597 34.5841C11.9441 35.2352 12.548 35.819 13.1364 36.4061C13.7248 36.9899 14.4106 37.4435 15.051 37.9236C15.3872 38.1686 15.8495 38.5107 16.4302 38.823C16.4302 38.823 14.5444 41.1803 12.3688 43.7075C9.82828 46.6673 6.98136 49.8644 7.09307 49.9902C7.50341 50.4592 23.0619 33.9716 24.1204 32.9122C25.1789 31.8494 25.1789 31.8406 26.244 30.7856C27.3025 29.7295 27.2195 29.6511 28.278 28.5883C28.5091 28.3654 28.6728 28.1017 28.4572 27.8776Z" fill="white"/>
<path d="M29.4106 29.9304C28.4351 30.9523 28.3378 30.8673 27.3767 31.8969C26.3934 32.9189 22.3387 36.8531 21.3554 37.8784C20.3876 38.9047 14.7911 44.842 15.134 45.2029C15.29 45.3651 20.2151 40.8305 20.3346 40.868C21.1917 41.1571 21.9593 41.4617 22.8541 41.5886C23.8672 41.7222 24.8958 41.8557 25.9156 41.8193C26.9376 41.7751 27.9208 41.4032 28.9262 41.1902C29.9172 40.9828 30.9757 40.8967 31.9213 40.5148C32.8537 40.1308 33.785 39.6485 34.6566 39.1056C35.506 38.5659 36.341 37.9457 37.1086 37.246C37.3464 37.0386 37.1827 36.7858 36.967 36.585C35.8112 35.488 35.9384 35.6072 34.7683 34.5213C33.6136 33.4243 33.5771 33.2124 32.4135 32.1166C31.2588 31.0306 31.2809 31.0008 30.1185 29.9149C29.8885 29.6854 29.6274 29.692 29.4106 29.9304Z" fill="white"/>
</svg>
