<svg width="50" height="50" viewBox="0 0 50 50" fill="none" xmlns="http://www.w3.org/2000/svg">
<path d="M16.343 15.1708C17.3352 16.4786 17.9925 17.9708 18.258 19.558C18.2783 19.6747 18.2923 19.7907 18.3079 19.9075C16.0635 20.1581 13.8307 20.5208 11.6183 20.998C12.7054 18.6955 14.3354 16.6973 16.343 15.1708ZM24.8962 12.0012V19.4941C23.436 19.5144 21.9766 19.5813 20.5196 19.6957C20.4993 19.5276 20.4767 19.3595 20.4487 19.1905C20.1302 17.2959 19.3654 15.5141 18.2082 13.9503C20.2104 12.8348 22.4805 12.1436 24.8962 12.0012ZM27.118 12.0276C29.5704 12.2269 31.8646 12.989 33.8707 14.1885C32.7493 15.729 32.0243 17.4967 31.7501 19.3883C31.733 19.5066 31.7213 19.6249 31.7081 19.7432C30.1809 19.6093 28.6507 19.5299 27.118 19.5004V12.0276ZM33.9486 19.7059C34.1713 18.163 34.7679 16.7191 35.6923 15.4604C37.5348 16.9495 39.0332 18.8442 40.0534 21.0089C38.0231 20.5683 35.9757 20.2227 33.9167 19.9728C33.9276 19.8841 33.9354 19.7954 33.9486 19.7059ZM10.1557 26.7263C10.2227 25.6116 10.4073 24.5289 10.6962 23.4881C13.2179 22.8841 15.7714 22.4326 18.3414 22.136C18.2175 23.3589 17.8624 24.5538 17.3142 25.6809C18.1474 25.5961 18.9807 25.5229 19.814 25.463C20.24 24.3195 20.504 23.1293 20.5834 21.9181C22.0187 21.8021 23.4571 21.7344 24.8962 21.7141V25.2466C25.6368 25.238 26.3774 25.238 27.118 25.2481V21.7204C28.6366 21.7507 30.1545 21.8301 31.6676 21.9671C31.7603 23.1635 32.0313 24.3459 32.4612 25.4871C33.296 25.5517 34.1308 25.6311 34.9641 25.7206C34.4174 24.595 34.0584 23.4103 33.9182 22.2069C36.2896 22.5042 38.6446 22.9401 40.9739 23.4998C41.2558 24.5226 41.4396 25.586 41.5096 26.6788C42.2573 26.8182 43.0041 26.9669 43.7494 27.1272C43.4589 17.4967 35.5365 9.75 25.8331 9.75C16.1125 9.75 8.17924 17.5247 7.91602 27.1794C8.66129 27.0167 9.40813 26.868 10.1557 26.7263Z" fill="white"/>
<path d="M24.7084 27.9064C23.2186 27.929 21.7296 27.9897 20.2429 28.0901C19.9018 28.4505 19.5599 28.814 19.2188 29.1791V33.5779C17.5811 33.7071 16.1972 33.8433 14.5673 34.0667C14.8866 33.7032 15.2066 33.3412 15.5259 32.9808C16.3748 32.8742 16.9736 32.8205 17.8233 32.7395C17.9744 32.7255 18.1254 32.7115 18.2757 32.6975V28.8304C18.7983 28.2676 19.3209 27.7095 19.845 27.156C21.5964 27.0307 23.3502 26.9591 25.1047 26.9412C24.9731 27.2627 24.84 27.5849 24.7084 27.9064ZM21.4204 36.5055V29.8742C22.1267 29.8369 22.8331 29.8081 23.5402 29.7878V36.4183C22.8331 36.4385 22.1267 36.4673 21.4204 36.5055ZM24.9381 37.7704C23.3852 37.7899 21.8324 37.8506 20.2811 37.9541C20.5163 37.6209 20.7499 37.2893 20.9851 36.9593C21.9819 36.9009 22.9772 36.8604 23.9748 36.8371V29.3472C24.2956 29.0195 24.6172 28.6941 24.9381 28.3696V37.7704ZM19.8473 39.4105C19.3232 38.9232 18.7991 38.4414 18.2757 37.9634V35.0662C18.5904 34.7268 18.9042 34.389 19.2188 34.0543V37.4917C19.5607 37.8 19.9026 38.1106 20.2445 38.4227C20.1121 38.752 19.9797 39.0805 19.8473 39.4105ZM13.7737 39.0984C13.4614 39.465 13.1484 39.8332 12.8361 40.2029V27.9484C13.7324 27.8068 14.6296 27.6799 15.5283 27.5662C15.2082 27.9243 14.8873 28.2839 14.5673 28.6459C14.3025 28.6817 14.0377 28.7191 13.7737 28.758V39.0984ZM25.3088 26.5092C23.4218 26.5247 21.5364 26.6018 19.6534 26.7411C19.0428 27.3926 18.4331 28.0512 17.8233 28.7159V32.3099C17.1193 32.3768 16.666 32.4126 15.9628 32.4975V27.0836C14.7682 27.2284 13.5759 27.3973 12.3867 27.5919V40.705C13.5759 40.5104 14.7682 40.3407 15.9628 40.1967V35.7434C16.666 35.6586 17.1193 35.6228 17.8233 35.5558V38.1892C18.4331 38.738 19.0428 39.293 19.6534 39.855C21.5364 39.7149 23.4218 39.6378 25.3088 39.623C25.9186 39.012 26.5314 38.4064 27.1436 37.8085V28.3345C26.5314 27.7196 25.9186 27.1116 25.3088 26.5092Z" fill="white"/>
<path d="M8.04543 29.7589C7.2215 29.938 6.40068 30.1287 5.58141 30.331V30.3318C5.1235 30.4447 4.66637 30.5622 4.21001 30.6829C3.8767 31.1095 3.54338 31.5384 3.21085 31.9688C2.88766 35.0093 2.56603 38.0521 2.24362 41.0964C1.94614 41.1829 1.64787 41.2716 1.35194 41.3611V41.8266C1.04666 42.2392 0.742164 42.6533 0.439224 43.0697C0.437667 42.2773 0.436109 41.4864 0.43533 40.6932C0.752288 40.5936 1.06925 40.4963 1.3862 40.3998V40.3943C1.68759 37.5282 1.98741 34.6652 2.28879 31.8022C2.79888 31.139 3.30975 30.4805 3.8214 29.8259C5.7948 29.2927 7.78065 28.8318 9.77818 28.4426C9.46123 28.8217 9.14583 29.2031 8.82965 29.5861C8.5672 29.6406 8.30632 29.6951 8.04543 29.7519V29.7589ZM4.66403 39.0508C4.88909 36.7786 5.11571 34.5072 5.34078 32.2374C5.6663 32.1595 5.99182 32.0825 6.31657 32.0085C6.43572 31.9797 6.55409 31.9525 6.67247 31.9245V38.5549C6.00195 38.7122 5.33221 38.8764 4.66403 39.0508ZM8.04543 37.3251V39.6268C6.62107 39.9351 5.20138 40.2807 3.78947 40.6629C4.01999 40.283 4.2505 39.9047 4.48102 39.5272C5.35168 39.2991 6.22468 39.0858 7.09923 38.8865V31.3874C7.41463 30.9981 7.73003 30.6113 8.04543 30.226V37.3251ZM9.0882 39.4128C9.32027 39.0461 9.55312 38.6795 9.78597 38.3136C10.1909 38.235 10.4432 38.1829 10.849 38.1097L10.0492 39.2228C9.72834 39.2843 9.40827 39.3481 9.0882 39.4128ZM10.219 37.7952V36.6502C10.2182 36.651 10.2174 36.651 10.2166 36.651V27.9281C8.00883 28.3469 5.81271 28.8536 3.6345 29.4476C3.03952 30.2158 2.4461 30.9919 1.85346 31.7734C1.5513 34.5485 1.24992 37.3251 0.946979 40.104C0.631579 40.2013 0.316179 40.3001 0 40.4021V43.6387C0.808359 43.3795 1.61905 43.132 2.43286 42.8985C2.48894 42.8821 2.54345 42.8658 2.59952 42.8502C2.69842 42.8214 2.79733 42.7934 2.89623 42.7661C3.37439 42.6307 3.85411 42.4999 4.33461 42.373C5.78234 41.9916 7.23785 41.6483 8.69881 41.3432C9.0477 41.2716 9.39737 41.2008 9.74703 41.1323C10.2127 41.0412 10.5266 40.9781 10.9931 40.8948C11.0912 40.8777 11.1877 40.8606 11.2843 40.8435V37.5975C10.8778 37.6683 10.6247 37.7182 10.219 37.7952Z" fill="white"/>
<path d="M36.0848 32.9785C34.6238 32.7925 32.7634 32.6002 31.2985 32.4897C31.5368 32.1892 31.7759 31.8887 32.0142 31.5906C33.3762 31.7042 35.1331 31.8957 36.4905 32.0748C36.355 32.3768 36.2187 32.6773 36.0848 32.9785ZM36.2328 38.3752C34.697 38.1752 32.7634 37.9735 31.2222 37.8568C31.4605 37.5594 31.6972 37.2629 31.9347 36.9671C32.9238 37.0496 34.3076 37.1936 35.2943 37.3111C35.3091 36.3101 35.3247 35.3091 35.3387 34.3088C35.6604 34.0278 35.9828 33.7491 36.3044 33.472C36.2803 35.1074 36.2561 36.7413 36.2328 38.3752ZM29.2098 39.3054C29.269 35.2429 29.2293 31.0231 29.2893 26.9614C31.9955 27.1031 35.0919 27.416 37.7786 27.8145C37.4546 28.0854 37.1299 28.3579 36.8044 28.6334C34.7461 28.3509 32.2844 28.101 30.2152 27.971C30.1638 31.396 30.2137 34.9782 30.1638 38.404C29.8453 38.7029 29.5276 39.0034 29.2098 39.3054ZM32.409 34.4294C33.1083 34.4917 34.2033 34.6061 34.9011 34.6855C34.8909 35.4009 34.8808 36.1178 34.8691 36.8347C34.1714 36.7546 33.0616 36.6067 32.3623 36.5444L32.409 34.4294ZM36.6985 31.6739C35.4189 31.5019 33.7407 31.315 32.4573 31.1998L32.4659 29.991C34.2687 30.1521 36.3729 30.4059 38.1664 30.6806C38.1828 29.6041 38.1984 28.5276 38.2139 27.4526C35.2336 26.9949 31.8405 26.6516 28.836 26.5115C28.7722 30.8589 28.8088 35.3628 28.7441 39.7094C29.3531 39.7382 31.7813 39.8051 36.4695 40.357C37.0816 39.8355 37.7957 39.233 38.4071 38.7239C38.4312 37.0651 38.4561 35.4071 38.4803 33.7476C37.8861 33.0501 37.2927 32.3589 36.6985 31.6739Z" fill="white"/>
<path d="M47.8957 30.8582C47.6395 30.785 47.3825 30.7134 47.1255 30.6433C47.1255 30.6464 47.1255 30.648 47.1255 30.6511C46.3141 30.43 45.8546 30.3094 45.0377 30.1124V30.1132C44.5829 30.0027 44.1265 29.896 43.6701 29.7933C43.3267 30.0541 42.9856 30.3187 42.643 30.5842C42.0324 33.5623 41.4226 36.546 40.8121 39.5343C40.4429 39.7585 40.0723 39.985 39.7023 40.2139C40.376 36.7912 41.0488 33.3747 41.7225 29.9661C42.2505 29.5559 42.7753 29.1511 43.301 28.7494C43.8874 28.8787 44.4746 29.0141 45.0587 29.1558C45.3032 29.2142 45.547 29.2749 45.7907 29.3356C46.9308 29.6228 47.7151 29.8431 48.845 30.1778C48.5289 30.4028 48.2119 30.6293 47.8957 30.8582ZM47.5383 40.9541L46.5835 41.6609L46.1591 31.8133L47.1154 31.1158L47.5383 40.9541ZM43.1227 28.2816C42.5113 28.7549 41.8985 29.2359 41.2856 29.7232C40.5746 33.3498 39.8628 36.9827 39.1494 40.6225C40.4165 40.8405 41.3938 41.039 42.6515 41.3145C43.259 38.1526 43.8648 34.9962 44.4692 31.8452L45.7284 32.141L46.1513 41.9801L50 42.9577L49.2843 29.8781C49.2843 29.8781 45.3095 28.7564 43.1227 28.2816Z" fill="white"/>
</svg>
