<svg width="180" height="180" viewBox="0 0 180 180" fill="none" xmlns="http://www.w3.org/2000/svg">
<path d="M91.5241 89.0231H104.86L113.891 54.2822L111.717 49.6135C99.9118 57.0951 89.589 66.7407 81.3213 77.9599L84.4523 94.4111L91.5241 89.0231Z" fill="#F9A50D"/>
<path d="M109.827 45.5551L102.097 28.9529C101.832 28.4564 101.458 28.1172 101.065 28.0181C100.573 27.8943 100.037 28.158 99.6701 28.4069L75.2471 46.0429L80.2079 72.1088C88.4756 61.6658 98.5013 52.6553 109.827 45.5551Z" fill="#F9A50D"/>
<path d="M96.708 114.122L101.741 93.4602H93.0224L85.3799 99.2828L87.9228 112.645L96.708 114.122Z" fill="#F9A50D"/>
<path d="M104.05 137.598L97.9624 118.833L87.6766 117.103L86.2207 132.675C91.995 134.856 97.9562 136.501 104.05 137.598Z" fill="#F9A50D"/>
<path d="M77.7094 99.5481L84.4518 94.4114L81.3208 77.9602C78.9053 81.2373 76.6645 84.6481 74.6143 88.1791L77.7094 99.5481Z" fill="#F2581A"/>
<path d="M73.0058 82.2698C75.2256 78.7525 77.6324 75.3627 80.2088 72.1091L75.2467 46.0432L65.1318 53.3477L73.0058 82.2698Z" fill="#F2581A"/>
<path d="M82.5678 111.744L87.9224 112.645L85.3794 99.283L80.6191 102.91L82.5678 111.744Z" fill="#F2581A"/>
<path d="M78.5684 129.423C81.0791 130.614 83.632 131.699 86.222 132.675L87.6779 117.103L82.3172 116.201L78.5684 129.423Z" fill="#F2581A"/>
<path d="M95.3859 146.588C99.2275 146.588 102.979 146.2 106.605 145.471L107.462 148.109L105.595 142.356C98.8239 141.293 92.2028 139.582 85.7947 137.245L85.0098 145.636C88.3735 146.26 91.8401 146.588 95.3859 146.588Z" fill="#F9A50D"/>
<path d="M107.462 148.109C107.119 148.212 106.776 148.313 106.431 148.41C106.776 148.313 107.119 148.212 107.462 148.109Z" fill="#2A3C90"/>
<path d="M106.604 145.471C102.978 146.201 99.2265 146.587 95.3849 146.587C91.8391 146.587 88.3725 146.259 85.0088 145.635L85.7937 137.245C82.9313 136.203 80.1123 135.035 77.3415 133.745L74.7961 142.723L73.2139 148.306C73.771 148.467 74.3318 148.618 74.8951 148.763C75.009 148.791 75.1242 148.82 75.2381 148.848C75.7246 148.971 76.2137 149.086 76.7039 149.197C76.7547 149.208 76.8054 149.222 76.8574 149.233C76.9441 149.253 77.032 149.271 77.1199 149.29C77.2561 149.32 77.391 149.349 77.5285 149.378C77.703 149.415 77.8776 149.451 78.0534 149.487C78.1636 149.508 78.2738 149.529 78.384 149.55C78.5932 149.591 78.8012 149.632 79.0104 149.67C79.0476 149.676 79.0847 149.685 79.1218 149.691C79.1813 149.702 79.2407 149.713 79.3001 149.725C79.4363 149.748 79.5725 149.769 79.7087 149.793C79.9885 149.84 80.2683 149.888 80.5493 149.931C80.5988 149.94 80.6484 149.949 80.6979 149.956C80.7536 149.965 80.8081 149.972 80.8638 149.981C80.9504 149.995 81.0371 150.006 81.1238 150.018C81.4023 150.059 81.6834 150.1 81.9644 150.137C82.004 150.142 82.0449 150.148 82.0857 150.153C82.9053 150.259 83.7299 150.355 84.5606 150.429V150.423C86.3558 150.584 88.1732 150.667 90.0105 150.667C92.3801 150.667 94.7175 150.531 97.0166 150.267C97.0513 150.262 97.0859 150.258 97.1194 150.255C97.6183 150.195 98.1148 150.131 98.61 150.06C98.6533 150.054 98.6966 150.048 98.74 150.043C98.7759 150.037 98.813 150.033 98.8489 150.027C99.3095 149.96 99.7663 149.886 100.223 149.808C100.434 149.772 100.643 149.735 100.853 149.696C101.095 149.653 101.336 149.607 101.578 149.56H101.579C102.089 149.461 102.596 149.356 103.103 149.244C103.167 149.229 103.232 149.216 103.296 149.202C103.297 149.202 103.298 149.201 103.3 149.201C104.353 148.964 105.397 148.701 106.429 148.41C106.774 148.313 107.118 148.212 107.461 148.109L106.604 145.471Z" fill="#F2581A"/>
<path d="M52.3724 53.236C60.2675 44.0076 71.0806 37.353 83.3818 34.6962L90.7878 29.3478C90.5279 29.3441 90.2703 29.3367 90.0104 29.3367C86.8744 29.3367 83.7929 29.5744 80.7856 30.0337C80.7535 30.0386 80.7213 30.0436 80.6891 30.0485C80.2397 30.1179 79.7927 30.1922 79.347 30.2714C79.1972 30.2986 79.0499 30.3271 78.9013 30.3543C78.5757 30.415 78.2514 30.4757 77.9282 30.5413C77.6781 30.5921 77.4293 30.6465 77.1817 30.6998C76.9638 30.7468 76.7459 30.7926 76.5292 30.8421C76.1912 30.9189 75.8545 31.0006 75.519 31.0823C75.3964 31.1133 75.2726 31.1417 75.15 31.1727C74.7328 31.2779 74.3156 31.3881 73.9009 31.5033C73.865 31.5132 73.8291 31.5218 73.7919 31.5317C63.9618 34.2629 55.1283 39.4119 47.9736 46.2942C49.2352 48.7369 50.7122 51.057 52.3724 53.236Z" fill="#2B378C"/>
<path d="M38.7994 90.0026C38.7994 77.6084 42.7872 66.1466 49.5445 56.8253C47.7518 54.5758 46.1386 52.1789 44.7384 49.6558C38.5518 56.5901 33.9327 64.9506 31.4355 74.1729C31.3885 74.3474 31.3402 74.5208 31.2944 74.6953C31.2424 74.8959 31.1941 75.0964 31.1433 75.297C31.0703 75.5917 30.9973 75.8838 30.9292 76.1785C30.8982 76.3085 30.8697 76.4385 30.8413 76.5685C30.7558 76.9411 30.6741 77.3138 30.5961 77.6902C30.5813 77.7632 30.5664 77.8375 30.5516 77.9118C30.4624 78.3513 30.3782 78.7908 30.299 79.234C30.294 79.2551 30.2916 79.2773 30.2879 79.2984C29.6688 82.7724 29.3457 86.3491 29.3457 90.0026C29.3457 93.0964 29.5785 96.1383 30.0254 99.1084C33.0215 97.9471 36.0485 96.8774 39.104 95.8944C38.9034 93.9569 38.7994 91.9921 38.7994 90.0026Z" fill="#2B378C"/>
<path d="M50.2484 124.131C45.0449 117.259 41.3753 109.164 39.746 100.351C36.7574 101.329 33.7947 102.39 30.8643 103.544C30.8692 103.568 30.8742 103.591 30.8791 103.616C31.0215 104.234 31.1738 104.849 31.3347 105.46C31.3582 105.547 31.383 105.635 31.4065 105.723C31.5638 106.309 31.7272 106.891 31.9017 107.469C31.9129 107.505 31.9228 107.541 31.9339 107.578C34.7158 116.752 39.616 125.015 46.0638 131.793C47.2313 129.095 48.6352 126.534 50.2484 124.131Z" fill="#2B378C"/>
<path d="M68.9951 146.919L70.6937 140.93C64.0305 137.693 58.1003 133.187 53.2125 127.726C51.7553 130.048 50.5048 132.522 49.4971 135.124C55.1438 140.2 61.7451 144.234 68.9951 146.919Z" fill="#2B378C"/>
<path d="M131.821 46.7102C131.898 46.5666 131.977 46.4242 132.053 46.2794C131.987 46.2162 131.922 46.1518 131.856 46.0899C131.57 45.8176 131.281 45.5477 130.989 45.2815C130.887 45.1862 130.784 45.0921 130.68 44.998C130.301 44.6563 129.918 44.3183 129.531 43.9852C129.51 43.9679 129.489 43.9493 129.468 43.9308C123.784 39.0677 117.235 35.2719 110.196 32.7797C110.05 32.7277 109.902 32.6794 109.756 32.6286C109.385 32.5011 109.015 32.3748 108.644 32.2547C108.599 32.2399 108.555 32.2275 108.509 32.2126L109.952 35.3127C118.114 37.4818 125.549 41.4262 131.821 46.7102Z" fill="#2B378C"/>
<path d="M130.517 135.126C130.441 134.931 130.36 134.738 130.28 134.544C124.603 138.998 118.053 142.389 110.93 144.421L111.661 146.676C118.659 143.993 125.037 140.051 130.517 135.126Z" fill="#2B378C"/>
<path d="M52.373 53.2361C55.4459 57.2696 59.1526 60.8092 63.3471 63.684L60.0428 51.5486L83.3825 34.6963C71.0812 37.3531 60.2681 44.0077 52.373 53.2361Z" fill="#2B378C"/>
<path d="M118.586 53.855L115.897 64.2014C122.57 59.8199 128.08 53.7782 131.821 46.7102C125.549 41.4262 118.113 37.4806 109.952 35.3127L118.586 53.855Z" fill="#2B378C"/>
<path d="M70.6941 140.929L78.4381 113.616L77.4737 109.246C67.2957 112.305 58.7371 118.921 53.2129 127.727C58.1007 133.187 64.031 137.692 70.6941 140.929Z" fill="#3D4EA9"/>
<path d="M74.7222 105.466L71.4451 93.4294C60.6468 94.6663 50.033 96.9876 39.7461 100.351C41.3754 109.164 45.0449 117.259 50.2485 124.131C56.0685 115.461 64.6247 108.858 74.7222 105.466Z" fill="#2B378C"/>
<path d="M39.1034 95.8943C49.2282 92.6345 59.6587 90.3553 70.2651 89.0974L65.0504 69.9448C59.0583 66.6343 53.7854 62.1463 49.5439 56.8252C42.7866 66.1465 38.7988 77.6083 38.7988 90.0024C38.7988 91.992 38.9028 93.958 39.1034 95.8943Z" fill="#3D4EA9"/>
<path d="M102.468 109.224L101.2 114.429L110.93 144.421C118.054 142.39 124.603 138.998 130.281 134.544C125.35 122.417 115.007 112.984 102.468 109.224Z" fill="#3D4EA9"/>
<path d="M106.372 93.1943L103.519 104.909C110.561 106.979 117.09 110.676 122.514 115.691C127.334 120.148 131.185 125.561 133.822 131.523C133.863 131.615 133.907 131.705 133.946 131.798C134.975 130.716 135.96 129.592 136.909 128.437C142.761 121.309 147.027 112.832 149.152 103.546C135.45 98.1515 121.077 94.6738 106.372 93.1943Z" fill="#2B378C"/>
<path d="M31.9015 107.469C31.7281 106.891 31.5635 106.309 31.4062 105.723C31.5622 106.309 31.7281 106.891 31.9015 107.469Z" fill="white"/>
<path d="M31.3345 105.46C31.1736 104.849 31.0213 104.234 30.8789 103.616C31.0213 104.235 31.1748 104.848 31.3345 105.46Z" fill="white"/>
<path d="M80.8642 149.981C80.8084 149.973 80.7527 149.965 80.6982 149.956C80.7527 149.965 80.8084 149.973 80.8642 149.981Z" fill="white"/>
<path d="M98.8493 150.027C98.7701 150.038 98.6896 150.049 98.6104 150.06C98.6896 150.049 98.7701 150.038 98.8493 150.027Z" fill="white"/>
<path d="M100.855 149.696C100.646 149.735 100.435 149.772 100.225 149.808C100.435 149.772 100.646 149.735 100.855 149.696Z" fill="white"/>
<path d="M97.1194 150.255C97.0847 150.258 97.0513 150.262 97.0166 150.267C97.0513 150.262 97.0847 150.258 97.1194 150.255Z" fill="white"/>
<path d="M103.104 149.244C102.598 149.356 102.09 149.461 101.579 149.56C102.09 149.461 102.598 149.356 103.104 149.244Z" fill="white"/>
<path d="M79.3013 149.725C79.2419 149.713 79.1825 149.702 79.123 149.691C79.1825 149.702 79.2419 149.715 79.3013 149.725Z" fill="white"/>
<path d="M78.055 149.486C77.8619 149.447 77.6687 149.408 77.4756 149.367C77.6687 149.408 77.8619 149.449 78.055 149.486Z" fill="white"/>
<path d="M80.6895 30.0485C80.7216 30.0436 80.7538 30.0386 80.786 30.0337C80.7538 30.0386 80.7216 30.0436 80.6895 30.0485Z" fill="white"/>
<path d="M78.9023 30.3544C79.0509 30.3272 79.1982 30.2987 79.348 30.2715C79.1982 30.2975 79.0509 30.3272 78.9023 30.3544Z" fill="white"/>
<path d="M108.644 32.2549C109.015 32.375 109.385 32.5013 109.755 32.6288C109.385 32.5025 109.016 32.375 108.644 32.2549Z" fill="white"/>
<path d="M130.989 45.2815C131.281 45.5477 131.57 45.8176 131.856 46.0899C131.57 45.8176 131.28 45.5477 130.989 45.2815Z" fill="white"/>
<path d="M129.531 43.9856C129.919 44.3186 130.301 44.6566 130.68 44.9983C130.301 44.6566 129.919 44.3186 129.531 43.9856Z" fill="white"/>
<path d="M77.1807 30.7C77.4295 30.6467 77.6784 30.5923 77.9284 30.5415C77.6784 30.5923 77.4295 30.6467 77.1807 30.7Z" fill="white"/>
<path d="M75.5195 31.0825C75.855 31.0008 76.1918 30.919 76.5298 30.8423C76.1918 30.919 75.855 31.0008 75.5195 31.0825Z" fill="white"/>
<path d="M73.9014 31.5022C74.3161 31.3883 74.7333 31.2781 75.1506 31.1729C74.7333 31.2781 74.3174 31.3895 73.9014 31.5022Z" fill="white"/>
<path d="M150.62 92.605C150.616 92.6954 150.612 92.7857 150.607 92.8761C150.612 92.7857 150.616 92.6954 150.62 92.605Z" fill="white"/>
<path d="M150.358 96.2151C150.337 96.4206 150.317 96.6249 150.294 96.8292C150.317 96.6249 150.337 96.4206 150.358 96.2151Z" fill="white"/>
<path d="M150.467 95.0525C150.454 95.2196 150.44 95.3868 150.424 95.5527C150.44 95.3868 150.454 95.2196 150.467 95.0525Z" fill="white"/>
<path d="M150.554 93.8416C150.547 93.9753 150.537 94.109 150.528 94.2427C150.537 94.109 150.547 93.9753 150.554 93.8416Z" fill="white"/>
<path d="M112.074 78.9146L109.436 89.0629C123.355 90.6872 136.966 94.0535 149.995 99.1072C150.092 98.4634 150.179 97.8147 150.255 97.1635C150.268 97.0521 150.283 96.9406 150.295 96.8292C150.318 96.6249 150.338 96.4194 150.359 96.2151C150.382 95.9948 150.404 95.7744 150.425 95.5528C150.44 95.3869 150.453 95.2197 150.467 95.0526C150.489 94.7827 150.51 94.5141 150.529 94.2429C150.538 94.1092 150.547 93.9755 150.555 93.8418C150.575 93.5199 150.593 93.1993 150.608 92.8774C150.613 92.7857 150.617 92.6954 150.62 92.605C150.639 92.1927 150.653 91.7804 150.661 91.3657C150.661 91.3607 150.663 91.3558 150.663 91.3508C150.671 90.9014 150.679 90.4533 150.679 90.0026C150.679 81.2459 148.864 72.8197 145.36 65.0732C136.107 72.66 124.64 77.6469 112.074 78.9146Z" fill="#2B378C"/>
<path d="M137.362 52.0723C136.693 51.2379 136.001 50.4245 135.29 49.6296C135.289 49.6309 135.288 49.6334 135.287 49.6358C135.257 49.6878 135.226 49.7386 135.196 49.7918C130.364 58.447 123.082 65.619 114.312 70.2989L112.073 78.9145C124.639 77.6467 136.106 72.6598 145.359 65.0731C143.281 60.4762 140.607 56.117 137.362 52.0723Z" fill="#3D4EA9"/>
<path fill-rule="evenodd" clip-rule="evenodd" d="M90 155.445C53.8564 155.445 24.5555 126.144 24.5555 90C24.5555 53.8551 53.8564 24.5542 90 24.5542C126.145 24.5542 155.446 53.8551 155.446 90C155.446 126.144 126.145 155.445 90 155.445ZM90 0C40.2948 0 0 40.2936 0 90C0 139.705 40.2948 180 90 180C139.706 180 180 139.705 180 90C180 40.2936 139.706 0 90 0Z" fill="#2B378C"/>
<path fill-rule="evenodd" clip-rule="evenodd" d="M31.0588 133.163L30.9672 133.157L26.3233 141.38L26.3184 141.47L27.4537 142.85L27.5453 142.86L36.5001 139.856L36.51 139.765L35.288 138.289L35.1989 138.279L28.9566 140.452L32.2697 134.733L32.2771 134.644L31.0588 133.163Z" fill="white"/>
<path fill-rule="evenodd" clip-rule="evenodd" d="M37.8318 141.039L37.7401 141.041L36.5987 142.248L36.6011 142.339L38.5053 144.136L33.6348 149.293L33.6372 149.381L34.8443 150.522L34.9347 150.521L39.8052 145.366L41.7118 147.164L41.7997 147.161L42.9412 145.955L42.9387 145.864L37.8318 141.039Z" fill="white"/>
<path fill-rule="evenodd" clip-rule="evenodd" d="M43.0465 152.498L43.8587 153.12C44.365 153.508 44.5668 153.983 44.1409 154.541C43.715 155.097 43.2037 155.029 42.6974 154.641L41.8852 154.025L43.0465 152.498ZM45.1376 149.756L45.6476 150.143C46.206 150.568 46.2642 151.017 45.9559 151.423C45.6439 151.831 45.197 151.889 44.6374 151.462L44.131 151.074L45.1376 149.756ZM44.8503 147.285L44.7612 147.3L39.4141 154.311L39.4289 154.397L41.7131 156.142C43.0329 157.152 44.6312 157.164 45.7145 155.741C46.2976 154.977 46.383 153.917 45.9646 153.2C46.5291 153.307 47.1816 153.082 47.6458 152.471C48.5744 151.251 48.0495 149.73 46.7309 148.72L44.8503 147.285Z" fill="white"/>
<path fill-rule="evenodd" clip-rule="evenodd" d="M53.7395 153.353L53.6541 153.382L51.4379 157.773C50.2544 160.111 51.1606 162.286 53.1006 163.264C55.0407 164.244 57.3286 163.681 58.5084 161.342L60.7246 156.951L60.6986 156.864L59.2129 156.117L59.1287 156.144L57.0277 160.31C56.2502 161.847 55.0171 162.158 53.9363 161.611C52.8518 161.065 52.3714 159.89 53.1489 158.349L55.2511 154.186L55.2202 154.102L53.7395 153.353Z" fill="white"/>
<path fill-rule="evenodd" clip-rule="evenodd" d="M62.7399 157.693L62.6594 157.735L59.8564 166.093L59.8948 166.174L61.4709 166.702L61.5513 166.663L63.3985 161.151L65.7941 168.084L65.8907 168.184L67.5274 168.734L67.6091 168.693L70.4121 160.334L70.3737 160.253L68.7964 159.723L68.7184 159.767L66.8688 165.278L64.4769 158.342L64.3753 158.24L62.7399 157.693Z" fill="white"/>
<path fill-rule="evenodd" clip-rule="evenodd" d="M72.8796 160.851L72.8004 160.897L70.8232 169.488L70.8715 169.568L72.4897 169.942L72.5652 169.893L74.5461 161.299L74.4965 161.225L72.8796 160.851Z" fill="white"/>
<path fill-rule="evenodd" clip-rule="evenodd" d="M76.7354 161.72L76.6648 161.774L76.4531 163.421L76.5076 163.494L79.1038 163.828L78.1913 170.862L78.2495 170.935L79.8949 171.148L79.9655 171.093L80.8779 164.06L83.4741 164.395L83.5484 164.341L83.7601 162.693L83.7056 162.623L76.7354 161.72Z" fill="white"/>
<path fill-rule="evenodd" clip-rule="evenodd" d="M85.7819 162.747L85.7163 162.808L85.5615 171.626L85.6247 171.687L91.7592 171.795L91.8211 171.732L91.8508 170.073L91.7889 170.008L87.3802 169.932L87.4161 167.949L90.5434 168.005L90.6091 167.941L90.6388 166.281L90.5781 166.216L87.4471 166.16L87.4756 164.564L91.7543 164.637L91.8174 164.574L91.8471 162.914L91.784 162.848L85.7819 162.747Z" fill="white"/>
<path fill-rule="evenodd" clip-rule="evenodd" d="M96.1737 164.368L97.4464 164.263C99.1029 164.129 100.338 165.12 100.464 166.712C100.594 168.303 99.5313 169.479 97.8785 169.615L96.6045 169.714L96.1737 164.368ZM94.3079 162.722L94.251 162.79L94.9591 171.58L95.0297 171.637L98.0208 171.397C100.758 171.175 102.573 169.018 102.374 166.558C102.177 164.101 100.041 162.26 97.3015 162.481L94.3079 162.722Z" fill="white"/>
<path fill-rule="evenodd" clip-rule="evenodd" d="M106.454 160.937L106.408 161.015L108.626 169.545L108.706 169.592L113.652 168.307L113.699 168.229L113.278 166.62L113.201 166.573L109.924 167.428L108.138 160.564L108.061 160.519L106.454 160.937Z" fill="white"/>
<path fill-rule="evenodd" clip-rule="evenodd" d="M113.277 159.01L113.241 159.092L116.437 167.311L116.518 167.347L122.237 165.125L122.273 165.041L121.67 163.493L121.588 163.458L117.478 165.054L116.76 163.207L119.679 162.074L119.716 161.992L119.112 160.442L119.03 160.406L116.113 161.542L115.534 160.051L119.526 158.501L119.56 158.417L118.959 156.872L118.878 156.835L113.277 159.01Z" fill="white"/>
<path fill-rule="evenodd" clip-rule="evenodd" d="M124.854 156.467L127.424 158.474L125.541 159.483L124.854 156.467ZM122.783 154.987L122.758 155.072L124.423 164.11L124.518 164.132L126.341 163.155L126.364 163.071L125.983 161.26L128.923 159.688L130.483 160.867L130.575 160.89L132.4 159.914L132.424 159.829L124.521 154.127L124.427 154.106L122.783 154.987Z" fill="white"/>
<path fill-rule="evenodd" clip-rule="evenodd" d="M135.724 149.237L134.415 147.753C133.402 148.051 132.549 148.633 131.64 149.438C129.581 151.255 129.398 154.231 131.092 156.145C132.826 158.109 135.807 158.203 137.867 156.382C138.725 155.622 139.325 154.754 139.701 153.735L136.615 150.242L136.524 150.234L134.226 152.267L134.22 152.357L135.323 153.601L135.409 153.606L136.418 152.717L137.517 153.962C137.361 154.27 136.972 154.697 136.638 154.997C135.297 156.18 133.589 155.983 132.574 154.833C131.56 153.685 131.574 151.967 132.865 150.824C133.68 150.104 134.621 149.531 135.719 149.324L135.724 149.237Z" fill="white"/>
<path fill-rule="evenodd" clip-rule="evenodd" d="M136.643 145.825L136.638 145.914L139.98 149.525C141.757 151.451 144.113 151.361 145.706 149.888C147.304 148.411 147.575 146.07 145.797 144.151L142.457 140.536L142.366 140.532L141.147 141.663L141.144 141.753L144.309 145.174C145.481 146.443 145.342 147.703 144.451 148.525C143.558 149.351 142.291 149.393 141.118 148.124L137.955 144.703L137.863 144.7L136.643 145.825Z" fill="white"/>
<path fill-rule="evenodd" clip-rule="evenodd" d="M144.45 138.32L144.458 138.41L151.335 143.928L151.424 143.921L155.265 139.138L155.253 139.048L153.96 138.008L153.868 138.019L151.107 141.453L149.566 140.215L151.527 137.774L151.516 137.684L150.221 136.644L150.13 136.651L148.169 139.092L146.925 138.093L149.604 134.757L149.597 134.665L148.299 133.626L148.211 133.638L144.45 138.32Z" fill="white"/>
<path fill-rule="evenodd" clip-rule="evenodd" d="M23.1025 42.7165L23.1137 42.8081L30.1223 48.1564L30.2114 48.1465L33.933 43.2699L33.9218 43.182L32.6009 42.173L32.5117 42.1841L29.8375 45.6878L28.2627 44.4869L30.1631 41.9996L30.1483 41.9092L28.8285 40.9002L28.7406 40.9126L26.839 43.4011L25.5712 42.4329L28.1662 39.0308L28.1563 38.9392L26.8353 37.9314L26.7474 37.945L23.1025 42.7165Z" fill="white"/>
<path fill-rule="evenodd" clip-rule="evenodd" d="M33.644 33.1029L35.7264 31.1208L39.4232 35.0095L36.9706 37.3444C36.7948 37.0671 36.7094 36.9767 36.6227 36.8455L33.644 33.1029ZM31.3003 32.8639L31.2979 32.9518L35.1222 37.8669C35.324 38.2086 35.4589 38.4265 35.5444 38.7001L34.7471 39.4553V39.5469L37.477 42.4204H37.5636L38.767 41.2765L38.7707 41.1849L37.2306 39.5655L41.3966 35.6013L42.938 37.2219L43.0271 37.2244L44.233 36.0829L44.2355 35.9913L41.5043 33.1177L41.4152 33.1153L40.7206 33.7751L35.8341 28.6385L35.7437 28.6348L31.3003 32.8639Z" fill="white"/>
<path fill-rule="evenodd" clip-rule="evenodd" d="M40.3877 24.8277L40.3691 24.9143L45.3709 32.1767L45.4588 32.1928L46.8825 31.2148L46.9506 31.091L47.3332 23.7667L50.6338 28.5554L50.7217 28.5703L52.0885 27.6269L52.1034 27.5415L47.1066 20.2791L47.015 20.2593L45.595 21.2398L45.5269 21.3649L45.1406 28.6892L41.8424 23.8991L41.7545 23.8855L40.3877 24.8277Z" fill="white"/>
<path fill-rule="evenodd" clip-rule="evenodd" d="M51.5427 17.7226L51.5117 17.8081L55.2779 25.7798L55.362 25.8108L56.8626 25.1026L56.8947 25.0147L55.3125 21.6658L59.0081 19.9177L60.5916 23.2691L60.6782 23.2988L62.1787 22.5906L62.2085 22.504L58.4435 14.5334L58.3594 14.5012L56.8539 15.2131L56.8254 15.2973L58.2455 18.2996L54.5462 20.0477L53.1274 17.0417L53.0432 17.0132L51.5427 17.7226Z" fill="white"/>
<path fill-rule="evenodd" clip-rule="evenodd" d="M67.5675 13.7312L69.3664 16.3447L67.3991 16.9006L67.5675 13.7312ZM66.0806 11.7615L66.0385 11.8407L65.1719 21.2449L65.2523 21.2907L67.1565 20.7522L67.201 20.6717L67.3323 18.7787L70.4064 17.9121L71.507 19.4584L71.5837 19.503L73.4916 18.9657L73.5337 18.8852L67.8844 11.3195L67.804 11.2737L66.0806 11.7615Z" fill="white"/>
<path fill-rule="evenodd" clip-rule="evenodd" d="M80.3227 10.6273L80.5505 12.4002L79.9166 12.4819C79.2183 12.5723 78.8073 12.3668 78.7268 11.7341C78.6451 11.1027 78.9918 10.7994 79.69 10.709L80.3227 10.6273ZM81.8034 8.63159L79.3322 8.95101C77.5606 9.17881 76.6358 10.5209 76.8239 11.9793C76.9577 12.9945 77.4256 13.642 78.2997 13.9144L75.7803 18.3639L75.8521 18.4171L77.8775 18.1559L77.9332 18.0853L80.1469 14.2585L80.7795 14.1756L81.2289 17.6632L81.3007 17.7164L82.9461 17.5047L83.0018 17.4329L81.8764 8.6873L81.8034 8.63159Z" fill="white"/>
<path fill-rule="evenodd" clip-rule="evenodd" d="M93.9804 8.31104L93.8467 8.36551L92.3362 14.3837C92.0676 15.1946 91.4622 15.5227 90.6958 15.4546L90.6277 15.5103L90.4854 17.0789L90.5398 17.1718C92.1939 17.3216 93.3972 16.7917 93.9457 14.9804L95.2172 10.2226L98.0177 10.4789L97.3714 17.5395L97.4271 17.6088L99.0811 17.7586L99.1542 17.7016L99.9527 8.92016L99.897 8.85206L93.9804 8.31104Z" fill="white"/>
<path fill-rule="evenodd" clip-rule="evenodd" d="M104.851 9.58252L104.778 9.6308L102.783 18.2204L102.831 18.2971L104.512 18.6847L104.65 18.6512L110.322 13.9986L109.008 19.6627L109.056 19.7395L110.672 20.1158L110.749 20.0676L112.743 11.478L112.695 11.4012L111.013 11.0137L110.876 11.0471L105.205 15.6972L106.518 10.0332L106.47 9.95889L104.851 9.58252Z" fill="white"/>
<path fill-rule="evenodd" clip-rule="evenodd" d="M117.921 13.1702L117.837 13.2085L114.48 21.3599L114.515 21.444L116.05 22.0742L116.135 22.0395L118.835 15.4841L122.676 17.0638L122.758 17.0292L123.391 15.494L123.356 15.4123L117.921 13.1702Z" fill="white"/>
<path fill-rule="evenodd" clip-rule="evenodd" d="M127.787 20.2101L127.246 23.3349L125.452 22.3544L127.787 20.2101ZM128.1 17.7612L128.016 17.7872L120.824 23.9081L120.848 23.9936L122.587 24.9407L122.675 24.9159L124.089 23.6519L126.896 25.1809L126.601 27.0553L126.623 27.1432L128.363 28.0928L128.451 28.0655L129.7 18.7021L129.671 18.6192L128.1 17.7612Z" fill="white"/>
<path fill-rule="evenodd" clip-rule="evenodd" d="M137.053 29.8381L137.846 30.4806C138.342 30.883 138.529 31.3634 138.086 31.9094C137.643 32.4566 137.135 32.3724 136.637 31.9688L135.845 31.3262L137.053 29.8381ZM139.226 27.159L139.723 27.5613C140.266 28.0021 140.314 28.4515 139.99 28.8477C139.669 29.2463 139.219 29.2934 138.676 28.8501L138.18 28.4478L139.226 27.159ZM139.012 24.6829L138.924 24.6928L133.37 31.5392L133.379 31.6283L135.611 33.4408C136.903 34.4857 138.498 34.5476 139.625 33.1561C140.229 32.412 140.348 31.3535 139.95 30.623C140.51 30.7481 141.167 30.5425 141.651 29.9458C142.617 28.756 142.138 27.2171 140.845 26.1685L139.012 24.6829Z" fill="white"/>
<path fill-rule="evenodd" clip-rule="evenodd" d="M146.131 30.5958L146.042 30.592L144.842 31.7447L144.841 31.8363L146.657 33.7255L141.543 38.6381V38.7297L142.693 39.9269L142.782 39.9282L147.897 35.0119L149.709 36.9011L149.801 36.9024L150.999 35.7522V35.6619L146.131 30.5958Z" fill="white"/>
<path fill-rule="evenodd" clip-rule="evenodd" d="M150.925 43.8134L151.569 44.6887C152.023 45.304 152.084 45.8153 151.516 46.2338C150.9 46.6869 150.431 46.4814 149.973 45.8611L149.329 44.9883L150.925 43.8134ZM154.064 39.3539L153.975 39.3416L146.881 44.5723L146.868 44.6627L148.613 47.0286C149.636 48.4152 151.217 48.8386 152.659 47.7776C154.097 46.7154 154.108 45.1183 153.084 43.7267L152.363 42.7511L153.649 41.8028L155.809 44.7345L155.901 44.7481L157.236 43.7602L157.249 43.6723L154.064 39.3539Z" fill="white"/>
<path d="M132.054 79.3318V79.3553C132.289 79.4395 132.513 79.5906 132.631 79.6859C132.997 79.9867 133.157 80.3842 133.157 80.8992C133.157 81.746 132.706 82.3564 131.967 82.5507C131.742 82.6151 131.507 82.6362 131.067 82.6362H128.825V76.4373H130.809C131.216 76.4373 131.494 76.4583 131.742 76.5239C132.459 76.7171 132.932 77.2098 132.932 77.9935C132.932 78.4095 132.783 78.7636 132.536 79.0013C132.429 79.1077 132.278 79.2365 132.054 79.3318ZM130.069 79.9867V81.6173H130.926C131.184 81.6173 131.42 81.595 131.591 81.434C131.763 81.2743 131.837 81.07 131.837 80.8014C131.837 80.5983 131.784 80.4052 131.678 80.2653C131.494 80.04 131.269 79.9867 130.885 79.9867H130.069ZM130.058 78.9146H130.754C130.969 78.9146 131.076 78.9146 131.184 78.8824C131.475 78.797 131.655 78.5395 131.655 78.1854C131.655 77.7669 131.463 77.5849 131.184 77.4995C131.067 77.4673 130.948 77.4574 130.713 77.4574H130.058V78.9146ZM135.023 82.6362V77.4785H133.233V76.4373H138.208L137.854 77.4785H136.267V82.6362H135.023ZM138.595 82.6362V76.4373H142.626L142.272 77.4785H139.826V78.8502H140.826C141.629 78.8502 142.048 79.0433 142.337 79.2897C142.563 79.4829 142.948 79.9125 142.948 80.7593C142.948 81.595 142.551 82.0568 142.218 82.292C141.832 82.5619 141.425 82.6362 140.6 82.6362H138.595ZM139.826 81.595H140.761C141.115 81.595 141.329 81.5095 141.478 81.3164C141.555 81.2211 141.661 81.049 141.661 80.7271C141.661 80.4052 141.555 80.1799 141.341 80.0189C141.211 79.9236 141.04 79.8691 140.75 79.8691H139.826V81.595Z" fill="white"/>
<path d="M127.792 74.8882H122.581L122.206 75.9207H127.416L127.792 74.8882Z" fill="white"/>
<path d="M127.229 76.4373H122.018L121.641 77.4698H126.853L127.229 76.4373Z" fill="white"/>
<path d="M126.666 77.9858H121.455L121.077 79.0209H126.289L126.666 77.9858Z" fill="white"/>
<path d="M133.947 131.796C131.306 125.726 127.407 120.216 122.514 115.691C117.09 110.675 110.561 106.978 103.519 104.908L106.371 93.194C121.077 94.6735 135.451 98.1512 149.152 103.545C146.684 114.336 141.329 124.04 133.947 131.796ZM73.2153 148.307L77.3429 133.745C86.3188 137.926 95.801 140.817 105.595 142.356L107.462 148.109C101.932 149.774 96.0734 150.673 90.0082 150.673C84.1844 150.673 78.55 149.845 73.2153 148.307ZM30.8628 103.544C43.8772 98.4199 57.5081 95.0251 71.4461 93.4293L74.7232 105.466C61.8264 109.798 51.4442 119.366 46.0648 131.791C38.6848 124.035 33.3327 114.334 30.8628 103.544ZM44.7389 49.6556C49.4484 58.1473 56.5251 65.2352 65.0516 69.9447L70.2662 89.0973C56.4583 90.734 42.9487 94.0966 30.021 99.1094C29.5716 96.1381 29.3376 93.0975 29.3376 90.0023C29.3376 74.5243 35.1663 60.3857 44.7389 49.6556ZM90.7968 29.3429L60.0437 51.5485L63.3468 63.6839C56.8879 59.2566 51.5729 53.257 47.9752 46.2942C58.8873 35.7968 73.7068 29.3317 90.0082 29.3317C90.2706 29.3317 90.5343 29.3392 90.7968 29.3429ZM101.068 28.0182C101.459 28.1172 101.834 28.4564 102.098 28.9541L109.828 45.5551C94.974 54.8665 82.3521 67.4637 73.006 82.2695L65.132 53.3474L99.6711 28.4069C100.039 28.1581 100.574 27.8944 101.068 28.0182ZM108.508 32.209C117.294 35.028 125.379 39.8675 132.056 46.2757C128.312 53.5319 122.71 59.7296 115.898 64.2026L118.587 53.855L108.508 32.209ZM91.5248 89.0231L77.7106 99.5477L74.6155 88.1787C83.683 72.5595 96.4633 59.2814 111.717 49.6135L113.891 54.2821L104.861 89.0231H91.5248ZM96.7085 114.122L82.5687 111.744L80.62 102.91L93.0228 93.4602H101.741L96.7085 114.122ZM101.2 114.429L102.468 109.224C115.209 113.045 125.684 122.718 130.517 135.127C125.038 140.051 118.659 143.992 111.662 146.674L101.2 114.429ZM82.3174 116.201L97.9639 118.833L104.053 137.598C95.2241 136.01 86.6766 133.27 78.5686 129.423L82.3174 116.201ZM77.4742 109.245L78.4374 113.616L68.996 146.919C61.746 144.234 55.1447 140.2 49.498 135.124C54.3301 122.656 64.6121 113.112 77.4742 109.245ZM150.679 90.0023C150.679 93.0962 150.445 96.1357 149.995 99.107C136.966 94.0533 123.354 90.6858 109.436 89.0627L114.314 70.2988C123.137 65.5893 130.459 58.359 135.291 49.6296C136.002 50.4244 136.694 51.2378 137.362 52.0722C146.074 62.9324 150.679 76.0483 150.679 90.0023ZM140.824 49.2953C131.973 38.2593 119.645 30.3308 106.017 26.8804C105.152 25.2499 103.784 24.1257 102.15 23.7147C100.502 23.3012 98.7228 23.6738 97.1381 24.7633L96.5042 25.2214C94.3549 25.0085 92.1748 24.8946 90.0082 24.8946C54.1072 24.8946 24.9004 54.1014 24.9004 90.0023C24.9004 125.902 54.1072 155.11 90.0082 155.11C125.909 155.11 155.116 125.902 155.116 90.0023C155.116 75.2423 150.04 60.7856 140.824 49.2953Z" fill="white"/>
</svg>
