<svg width="168" height="180" viewBox="0 0 168 180" fill="none" xmlns="http://www.w3.org/2000/svg">
<path d="M166.67 17.4132C161.665 17.0358 158.177 15.7247 156.289 13.5039C153.149 9.94416 152.43 3.96098 152.272 0.711149C152.272 0.309886 151.952 0 151.553 0H150.968C150.755 0 150.569 0.095349 150.407 0.230428C150.301 0.361533 150.222 0.548261 150.222 0.750877C150.249 3.33326 149.025 10.0117 145.884 13.7065C143.913 16.1141 140.453 17.5999 135.879 18.0012C135.689 18.0012 135.531 18.029 135.397 18.0687C135.211 18.1085 135.025 18.2555 134.919 18.4581C134.812 18.6289 134.812 18.8434 134.891 19.0461C134.97 19.2447 134.97 19.3679 135.025 19.5546C135.025 19.8327 135.211 20.075 135.476 20.1545C135.586 20.1942 135.823 20.222 135.879 20.222C148.148 20.234 150.249 31.4137 150.407 38.0484C150.407 38.5331 150.834 38.986 151.683 38.986C151.817 38.986 152.003 38.9741 152.137 38.9463C152.43 38.8668 152.671 38.5967 152.698 38.263C152.963 34.6635 153.548 27.1826 156.633 24.3459C159.271 21.7198 162.463 20.2101 166.453 19.7532C166.773 19.7135 167.041 19.4712 167.12 19.1374C167.12 18.9904 167.148 18.8832 167.227 18.7243C167.334 18.4819 167.334 18.323 167.334 18.1601C167.334 17.7747 167.041 17.4649 166.67 17.4132Z" fill="#00AB96"/>
<path d="M71.5527 64.6037C74.5035 60.9089 77.2725 57.2697 79.0541 52.9988C80.9185 48.6485 82.2774 44.1631 82.8106 39.5228C83.4189 34.8507 83.2056 30.1785 82.4077 25.562C82.2497 24.5569 81.9574 24.0245 80.8672 24.104C76.6603 24.4536 72.4297 25.3634 68.3057 26.6188C64.2569 27.8385 60.3462 29.5905 56.5383 31.6803C52.841 33.7541 48.9027 35.681 45.5767 38.5296C44.7787 39.1851 45.4977 40.1108 46.2442 40.8179C52.201 46.8289 51.7784 47.2461 57.7668 53.2531C63.6999 59.2482 62.4753 58.394 68.4361 64.413C69.2617 65.2155 70.8062 65.5135 71.5527 64.6037Z" fill="#00AB96"/>
<path d="M86.0801 81.1823C86.8781 82.0245 86.8781 81.6789 87.7313 80.8486C92.6532 75.9222 112.001 55.7955 116.927 50.8015C121.872 45.8394 128.315 39.2245 127.517 38.5451C124.084 35.5615 120.517 32.4428 116.658 30.3411C112.72 28.1997 107.956 27.7985 103.698 26.5907C99.4158 25.3353 95.0746 24.3738 90.6307 24.1037C89.4061 23.9964 88.5292 24.6519 88.7939 25.8716C89.5128 31.0245 89.3548 36.9798 88.7939 42.1962C87.9959 49.4786 86.9057 51.5921 84.7766 56.4113C82.6751 61.1231 79.0528 65.4576 75.6202 69.5417C74.9012 70.4118 81.6876 76.7803 86.0801 81.1823Z" fill="#00AB96"/>
<path d="M108.095 103.975C114.055 109.946 113.336 109.931 119.269 115.914C125.234 121.881 126.162 121.241 132.072 127.237C132.897 128.067 134.015 128.198 134.734 127.288C137.527 123.999 139.257 120.491 141.307 116.784C143.353 112.982 145.7 109.211 146.924 105.139C148.145 101.003 148.493 95.4375 148.84 91.1547C148.892 90.0979 148.2 89.8158 147.161 89.5735C142.532 88.8941 137.74 88.6359 133.111 89.2C128.509 89.8039 124.33 91.0991 120.016 92.9623C113.095 95.9063 111.421 98.2463 107.747 101.258C106.815 101.969 107.297 103.149 108.095 103.975Z" fill="#00AB96"/>
<path d="M101.28 96.3467C102.022 97.0975 102.741 95.9732 103.594 95.3018C107.639 91.8493 121.504 79.4579 148.251 82.374C149.503 82.5091 147.642 73.0615 146.414 68.7509C145.193 64.4681 143.886 60.3482 141.733 56.3952C139.631 52.5018 137.099 49.0096 134.172 45.5572C133.481 44.7546 132.738 43.7495 132.02 44.5004C127.094 49.4506 123.953 52.1283 119.031 57.1064C113.576 62.6883 96.6224 80.0975 91.6729 85.0517C91.6729 85.0517 96.887 91.9566 101.28 96.3467Z" fill="#00AB96"/>
<path d="M64.9831 69.6333C61.1476 65.4578 61.2029 65.3783 57.3436 61.175C53.4843 57.0114 53.271 57.1902 49.4394 53.0385C45.5801 48.8233 45.3944 48.9583 41.5628 44.7669C40.7649 43.9128 39.6193 43.4559 38.8451 44.314C36.317 47.0672 34.4012 50.2535 32.434 53.2928C30.4629 56.4115 29.2937 59.9037 27.9072 63.2647C26.5246 66.6775 25.1935 70.0067 24.3955 73.5704C23.5976 77.158 22.693 80.7415 22.5034 84.3966C22.3178 88.0477 22.693 91.7305 23.1473 95.3578C23.4633 98.0594 24.5535 102.771 25.2725 105.381C25.4858 106.291 -0.0597489 135.48 0.682876 136.255C1.67041 137.272 32.4064 104.388 36.1314 100.936C39.805 97.4833 46.54 89.9229 50.2649 86.4426C53.9899 82.9902 53.8043 82.7915 57.5016 79.351C61.2266 75.8985 60.9619 75.6324 64.6632 72.1521C65.5125 71.3615 65.7534 70.4914 64.9831 69.6333Z" fill="#00AB96"/>
<path d="M96.942 100.36C92.8694 96.3074 92.2335 95.9737 88.1609 91.9054C87.3867 91.1267 87.7343 91.3691 87.0153 90.7652C86.5374 90.352 86.4307 90.5666 86.0318 90.8327C81.2916 94.2455 53.933 121.937 52.6334 120.49C51.2982 119.044 83.3694 87.3922 82.5438 86.6056C82.0382 86.097 81.1612 85.2389 80.387 84.4761C76.3421 80.392 76.0774 80.674 72.0325 76.6098C71.2346 75.7755 70.646 75.4974 69.8757 76.3118C66.0441 80.098 65.7004 79.7523 61.9201 83.5544C58.0846 87.3525 58.0846 87.3525 54.3319 91.1824C50.5003 94.9804 34.9605 110.026 31.1526 113.852C30.4336 114.587 30.4889 115.671 30.9669 116.661C32.4048 119.179 34.4549 122.123 36.2364 124.503C37.9665 126.847 40.1233 128.949 42.2248 131.062C44.3263 133.164 46.7753 134.797 49.0625 136.525C50.2633 137.407 51.9145 138.639 53.9883 139.763C53.9883 139.763 47.2533 148.249 39.4834 157.347C30.4099 168.002 20.2423 179.512 20.6413 179.965C22.1068 181.653 77.6733 122.298 81.4535 118.484C85.2338 114.658 85.2338 114.626 89.0378 110.828C92.8181 107.026 92.5218 106.744 96.3021 102.918C97.1277 102.116 97.7123 101.166 96.942 100.36Z" fill="#00AB96"/>
<path d="M100.347 107.749C96.8629 111.428 96.5153 111.122 93.0827 114.829C89.571 118.508 75.0898 132.671 71.5781 136.362C68.1218 140.057 48.1341 161.431 49.3586 162.73C49.9156 163.314 67.5056 146.989 67.9322 147.124C70.9935 148.165 73.7349 149.262 76.9306 149.719C80.5489 150.199 84.2225 150.68 87.8645 150.549C91.5145 150.39 95.0261 149.051 98.6168 148.284C102.156 147.538 105.936 147.228 109.314 145.853C112.644 144.47 115.97 142.734 119.082 140.78C122.116 138.837 125.098 136.604 127.84 134.085C128.689 133.338 128.105 132.429 127.334 131.706C123.206 127.756 123.661 128.186 119.481 124.276C115.357 120.327 115.227 119.564 111.072 115.619C106.948 111.71 107.027 111.603 102.875 107.693C102.053 106.867 101.121 106.891 100.347 107.749Z" fill="#00AB96"/>
</svg>
