<svg width="120" height="120" viewBox="0 0 120 120" fill="none" xmlns="http://www.w3.org/2000/svg">
<g clip-path="url(#clip0)">
<path d="M119.996 22.8989C119.876 12.7142 114.664 7.10487 105.32 7.10487C101.703 7.10487 98.2175 7.94675 95.9392 8.64917C96.166 4.4862 96.1695 1.91651 96.1695 1.78878L96.1698 0.0065918H23.8321V1.78855C23.8321 1.84948 23.8382 4.45972 24.0676 8.65128C21.7895 7.94839 18.301 7.10487 14.6806 7.10487C5.33612 7.10487 0.123853 12.7139 0.00432181 22.8989C-0.113334 32.9185 2.17182 41.8374 6.79581 49.4084C11.3357 56.8416 17.1383 61.3207 21.2068 63.7688C27.7231 67.6904 34.2357 68.5135 38.552 68.5135C39.616 68.5135 40.6412 68.4633 41.6 68.3644C41.6635 68.3578 41.7224 68.3503 41.7845 68.3436C43.8713 70.591 46.1211 72.3912 48.5251 73.729C50.2972 74.715 51.5298 76.4346 51.9521 78.4111C49.5627 79.1548 47.8229 81.3872 47.8229 84.0181C47.8229 86.708 49.6424 88.9798 52.1143 89.6712V97.1501H42.4717V104.955H32.956V119.994H87.0453V104.955H77.5297V97.1501H67.887V89.6712C70.3592 88.9796 72.1787 86.708 72.1787 84.0181C72.1787 81.387 70.4389 79.1548 68.0495 78.4111C68.4718 76.4346 69.7042 74.7153 71.4765 73.729C73.8746 72.3947 76.1399 70.5846 78.2216 68.3445C78.9592 68.4263 80.0652 68.5132 81.448 68.5132C81.4473 68.5132 81.4484 68.5132 81.448 68.5132C85.7638 68.5132 92.277 67.6896 98.7929 63.7686C102.861 61.3203 108.664 56.8414 113.204 49.4082C117.829 41.8374 120.114 32.9182 119.996 22.8989ZM92.5763 3.5705C92.5604 4.2223 92.5351 5.04167 92.4962 6.00073H27.5127C27.4724 5.0419 27.4454 4.22136 27.4281 3.5705H92.5763ZM95.0003 19.9329C97.4148 19.1292 100.544 18.3188 103.348 18.3188C105.698 18.3188 107.39 18.893 108.378 20.0255C109.513 21.3272 109.879 23.5139 109.465 26.5257C107.741 39.0708 102.302 48.8635 94.1474 54.0992C91.307 55.9231 88.2479 56.6766 85.6843 56.9443C91.107 45.5464 93.7316 31.2457 95.0003 19.9329ZM26.8349 32.3461C28.5878 41.7481 31.0079 49.8218 34.0285 56.3428C34.1221 56.5454 34.2172 56.7448 34.3119 56.9443C31.7492 56.6759 28.6921 55.9226 25.8528 54.0996C17.6987 48.8637 12.2589 39.0713 10.5355 26.5261C10.1218 23.5142 10.4874 21.3272 11.6225 20.026C12.6099 18.8935 14.3026 18.3195 16.6529 18.3195C19.4586 18.3195 22.5908 19.1311 25.0063 19.9353C25.4378 23.7935 26.0277 28.0168 26.8349 32.3461ZM38.552 64.9496C34.6876 64.9496 28.8599 64.2148 23.0448 60.7153C17.0975 57.1364 3.29401 46.291 3.56823 22.9409C3.66526 14.6832 7.30018 10.669 14.6806 10.669C18.6278 10.669 22.5261 11.8589 24.3081 12.4866C24.3969 13.6821 24.4965 14.8812 24.6067 16.0753C22.1844 15.3638 19.3304 14.7549 16.6529 14.7549C13.2268 14.7549 10.6306 15.74 8.93612 17.6829C7.09416 19.7953 6.44424 22.9336 7.0044 27.0106C7.96393 33.9952 9.96924 40.1686 12.9648 45.3591C15.8244 50.3143 19.5128 54.2639 23.927 57.098C28.2385 59.8667 32.9019 60.5649 36.2284 60.6317C36.2396 60.6514 36.2511 60.6701 36.2624 60.6896C36.4447 61.009 36.6289 61.3231 36.815 61.6332C36.8729 61.73 36.9313 61.826 36.9896 61.9219C37.1671 62.2135 37.3459 62.5022 37.5266 62.7851C37.5946 62.8915 37.6635 62.9953 37.7319 63.1008C37.8549 63.29 37.9787 63.4775 38.1034 63.6628C38.2239 63.8421 38.3448 64.0196 38.4664 64.1951C38.5857 64.3669 38.7053 64.5378 38.8257 64.7063C38.8822 64.7855 38.9378 64.8678 38.9942 64.946C38.8508 64.9484 38.7034 64.9496 38.552 64.9496ZM83.4817 108.519V116.43H36.5204V108.519H83.4817ZM73.9658 100.714V104.955H46.036V100.714H73.9658ZM55.6785 97.1503V89.8889H64.3234V97.1503H55.6785ZM68.615 84.0181C68.615 85.29 67.58 86.3248 66.3083 86.3248H53.6938C52.4218 86.3248 51.3871 85.29 51.3871 84.0181C51.3871 82.7461 52.4218 81.7114 53.6938 81.7114H66.3083C67.5803 81.7114 68.615 82.7461 68.615 84.0181ZM77.5292 63.6453C77.5095 63.6708 77.4899 63.6964 77.4702 63.7219C77.2949 63.9488 77.1181 64.17 76.9405 64.3882C76.8969 64.4414 76.854 64.4956 76.8102 64.5486C76.6149 64.7857 76.4181 65.0178 76.2203 65.2442C76.2106 65.255 76.2017 65.2662 76.1921 65.277C74.2049 67.5441 72.0355 69.3396 69.744 70.6146C66.9195 72.1859 64.9991 74.9766 64.4708 78.1472H55.5313C55.0028 74.9764 53.0823 72.1859 50.2578 70.6146C48.0463 69.3844 46.0489 67.7398 44.2445 65.7746L43.8085 65.2772C42.0367 63.2564 40.3665 60.8082 38.8447 58.0011L38.3785 57.1407C30.7152 42.3335 28.3972 20.9325 27.6983 9.56464H92.3167C92.2869 10.0592 92.2543 10.5699 92.2182 11.1003C92.2166 11.1249 92.2147 11.1502 92.2131 11.1748C92.1737 11.7495 92.1315 12.3258 92.0867 12.9026C92.0856 12.9195 92.0842 12.9364 92.083 12.9535C91.9405 14.7816 91.7717 16.6165 91.5793 18.4296L91.4628 19.526C90.1679 31.1342 87.433 45.9225 81.6657 57.0619L81.1564 58.0008C80.0232 60.0905 78.8077 61.981 77.5292 63.6453ZM96.9556 60.7153C91.1401 64.215 85.3135 64.9496 81.4494 64.9496C81.4496 64.9496 81.4492 64.9496 81.4494 64.9496C81.2978 64.9496 81.1494 64.9484 81.0057 64.946C81.0081 64.9428 81.0104 64.9392 81.0127 64.936C81.2441 64.6168 81.4719 64.2928 81.6962 63.9645C81.7236 63.9244 81.7506 63.8834 81.778 63.8433C81.9676 63.5639 82.1544 63.2808 82.3391 62.9949C82.3867 62.9215 82.4342 62.8479 82.4813 62.7741C82.6857 62.4532 82.888 62.1303 83.0863 61.8017C83.1174 61.7503 83.1477 61.6976 83.1786 61.6458C83.341 61.3744 83.5016 61.1004 83.66 60.8239C83.697 60.7592 83.7353 60.6973 83.7725 60.6321C87.099 60.5653 91.7624 59.8671 96.0739 57.0985C100.488 54.2639 104.177 50.3143 107.036 45.3596C110.031 40.1691 112.037 33.9957 112.997 27.011C113.556 22.9339 112.907 19.7956 111.065 17.6834C109.37 15.7402 106.774 14.7551 103.348 14.7551C100.671 14.7551 97.8163 15.3635 95.3942 16.0753C95.5065 14.8578 95.6028 13.6899 95.6853 12.5799C95.6877 12.5489 95.6903 12.5178 95.6926 12.4871C97.475 11.8592 101.373 10.6695 105.32 10.6695C112.7 10.6695 116.335 14.6836 116.433 22.9409C116.706 46.291 102.903 57.1362 96.9556 60.7153Z" fill="white"/>
<path d="M81.428 14.0776C80.1307 13.9805 79.2266 13.6434 78.7372 13.0724C77.9232 12.157 77.7369 10.6185 77.6959 9.78286C77.6959 9.67968 77.613 9.6 77.5096 9.6H77.358C77.3027 9.6 77.2546 9.62452 77.2126 9.65925C77.185 9.69296 77.1645 9.74098 77.1645 9.79308C77.1717 10.4571 76.8543 12.1744 76.0403 13.1245C75.5294 13.7435 74.6324 14.1256 73.4468 14.2288C73.3976 14.2288 73.3567 14.2359 73.3219 14.2462C73.2738 14.2564 73.2256 14.2942 73.198 14.3463C73.1703 14.3902 73.1703 14.4454 73.1908 14.4975C73.2113 14.5485 73.2113 14.5802 73.2256 14.6282C73.2256 14.6997 73.2738 14.7621 73.3424 14.7825C73.371 14.7927 73.4325 14.7999 73.4468 14.7999C76.627 14.8029 77.1717 17.6777 77.2126 19.3837C77.2126 19.5083 77.3232 19.6248 77.5434 19.6248C77.5782 19.6248 77.6263 19.6217 77.6611 19.6146C77.7369 19.5941 77.7993 19.5247 77.8065 19.4389C77.8751 18.5133 78.0266 16.5897 78.8263 15.8603C79.5102 15.185 80.3375 14.7968 81.3717 14.6793C81.4546 14.6691 81.5242 14.6068 81.5447 14.521C81.5447 14.4832 81.5519 14.4556 81.5723 14.4147C81.6 14.3524 81.6 14.3115 81.6 14.2697C81.6 14.1706 81.5242 14.0909 81.428 14.0776Z" fill="white"/>
<path d="M56.7711 26.2114C57.5359 25.2614 58.2537 24.3256 58.7155 23.2274C59.1987 22.1088 59.551 20.9554 59.6892 19.7622C59.8469 18.5608 59.7916 17.3595 59.5848 16.1724C59.5438 15.9139 59.468 15.777 59.1854 15.7975C58.095 15.8874 56.9984 16.1213 55.9294 16.4441C54.8799 16.7577 53.8663 17.2083 52.8792 17.7456C51.9208 18.2789 50.9 18.7743 50.0379 19.5068C49.8311 19.6754 50.0174 19.9134 50.2109 20.0952C51.755 21.6409 51.6454 21.7482 53.1977 23.2928C54.7356 24.8343 54.4181 24.6147 55.9632 26.1624C56.1772 26.3688 56.5776 26.4454 56.7711 26.2114Z" fill="white"/>
<path d="M60.5356 30.4757C60.7424 30.6922 60.7424 30.6034 60.9635 30.3898C62.2392 29.1231 67.2538 23.9477 68.5305 22.6635C69.8124 21.3875 71.4822 19.6866 71.2754 19.5119C70.3857 18.7447 69.4612 17.9427 68.4609 17.4023C67.4402 16.8517 66.2055 16.7485 65.1018 16.4379C63.992 16.1151 62.8668 15.8679 61.715 15.7984C61.3976 15.7708 61.1704 15.9394 61.2389 16.253C61.4253 17.578 61.3843 19.1094 61.2389 20.4507C61.0321 22.3233 60.7496 22.8668 60.1977 24.106C59.6531 25.3176 58.7142 26.4322 57.8245 27.4824C57.6382 27.7061 59.3971 29.3437 60.5356 30.4757Z" fill="white"/>
<path d="M66.2438 36.3366C67.7888 37.8721 67.6024 37.868 69.1402 39.4065C70.6862 40.941 70.9268 40.7765 72.4584 42.3181C72.6724 42.5316 72.9621 42.5653 73.1485 42.3314C73.8723 41.4855 74.3207 40.5834 74.8521 39.6303C75.3824 38.6526 75.9906 37.6831 76.308 36.6359C76.6243 35.5725 76.7144 34.1412 76.8045 33.0399C76.8178 32.7682 76.6387 32.6956 76.3694 32.6333C75.1695 32.4586 73.9276 32.3922 72.7277 32.5373C71.5349 32.6926 70.4517 33.0256 69.3337 33.5047C67.54 34.2617 67.1059 34.8635 66.1537 35.6378C65.9121 35.8207 66.037 36.1241 66.2438 36.3366Z" fill="white"/>
<path d="M64.4804 34.3733C64.6729 34.5664 64.8593 34.2773 65.0804 34.1047C66.1288 33.2169 69.7225 30.0306 76.655 30.7804C76.9795 30.8151 76.4973 28.3858 76.1789 27.2774C75.8625 26.1761 75.5236 25.1167 74.9656 24.1002C74.4209 23.0991 73.7647 22.2011 73.006 21.3133C72.8268 21.107 72.6343 20.8485 72.448 21.0416C71.1713 22.3145 70.3573 23.003 69.0816 24.2831C67.6677 25.7184 63.2733 30.195 61.9905 31.469C61.9905 31.469 63.3419 33.2445 64.4804 34.3733Z" fill="white"/>
<path d="M55.07 27.5035C54.0758 26.4298 54.0902 26.4094 53.0899 25.3285C52.0896 24.2579 52.0343 24.3039 51.0412 23.2363C50.0409 22.1524 49.9928 22.1872 48.9997 21.1094C48.7929 20.8897 48.496 20.7723 48.2953 20.9929C47.64 21.7009 47.1435 22.5202 46.6336 23.3017C46.1227 24.1037 45.8197 25.0016 45.4603 25.8659C45.102 26.7434 44.7569 27.5995 44.5501 28.5159C44.3433 29.4384 44.1089 30.3599 44.0597 31.2997C44.0116 32.2386 44.1089 33.1856 44.2266 34.1183C44.3085 34.813 44.5911 36.0246 44.7774 36.6958C44.8327 36.9297 38.2116 44.4353 38.4041 44.6345C38.66 44.8961 46.6265 36.4404 47.5919 35.5526C48.5441 34.6648 50.2897 32.7208 51.2552 31.8259C52.2207 30.9381 52.1725 30.887 53.1309 30.0023C54.0963 29.1146 54.0277 29.0461 54.9871 28.1512C55.2072 27.9479 55.2696 27.7242 55.07 27.5035Z" fill="white"/>
<path d="M63.3535 35.4067C62.2978 34.3646 62.133 34.2788 61.0774 33.2327C60.8767 33.0325 60.9668 33.0948 60.7804 32.9395C60.6566 32.8333 60.6289 32.8885 60.5255 32.9569C59.2968 33.8344 52.2055 40.9549 51.8686 40.583C51.5225 40.2112 59.8354 32.0722 59.6214 31.8699C59.4904 31.7392 59.2631 31.5185 59.0624 31.3224C58.0139 30.2722 57.9453 30.3447 56.8969 29.2996C56.6901 29.0851 56.5375 29.0136 56.3378 29.223C55.3447 30.1966 55.2556 30.1077 54.2757 31.0854C53.2816 32.062 53.2816 32.062 52.3089 33.0468C51.3157 34.0234 47.2878 37.8922 46.3008 38.876C46.1144 39.065 46.1287 39.3439 46.2526 39.5982C46.6253 40.2459 47.1567 41.0029 47.6185 41.6148C48.0669 42.2176 48.626 42.758 49.1707 43.3015C49.7154 43.8419 50.3502 44.2618 50.943 44.7062C51.2543 44.9329 51.6823 45.2496 52.2198 45.5388C52.2198 45.5388 50.4741 47.7209 48.4601 50.0603C46.1083 52.8002 43.4728 55.7597 43.5762 55.8762C43.9561 56.3104 58.359 41.0479 59.3388 40.0671C60.3187 39.0834 60.3187 39.0752 61.3047 38.0985C62.2845 37.1209 62.2077 37.0484 63.1876 36.0646C63.4016 35.8582 63.5531 35.614 63.3535 35.4067Z" fill="white"/>
<path d="M64.2372 37.307C63.3342 38.253 63.2441 38.1743 62.3544 39.1275C61.4442 40.0735 57.6908 43.7155 56.7806 44.6645C55.8848 45.6146 50.7042 51.1107 51.0216 51.4448C51.166 51.595 55.7251 47.3973 55.8357 47.432C56.6291 47.6997 57.3397 47.9816 58.1679 48.0991C59.1058 48.2227 60.0579 48.3463 61.0019 48.3126C61.9479 48.2717 62.8581 47.9275 63.7887 47.7303C64.7061 47.5382 65.6859 47.4586 66.5613 47.1051C67.4244 46.7496 68.2864 46.3031 69.0932 45.8005C69.8795 45.301 70.6525 44.7268 71.363 44.0791C71.5831 43.8871 71.4316 43.6531 71.232 43.4672C70.1621 42.4517 70.2798 42.5621 69.1966 41.5568C68.1277 40.5414 68.0939 40.3452 67.0169 39.3308C65.948 38.3255 65.9685 38.298 64.8924 37.2927C64.6795 37.0802 64.4379 37.0863 64.2372 37.307Z" fill="white"/>
<path d="M62.0554 72H58.3945V57.6656L54.8238 59.0449V56.0027L61.6687 53.2055H62.0554V72Z" fill="white"/>
<path d="M43.1451 112.055C43.1142 112.022 43.0733 112.002 43.0291 111.996L41.6093 111.79L40.978 110.5C40.9193 110.402 40.7926 110.371 40.6949 110.43C40.666 110.447 40.6417 110.471 40.6243 110.5L39.9906 111.785L38.5709 111.991C38.4633 112.005 38.3875 112.104 38.4016 112.212C38.4075 112.256 38.4282 112.297 38.4603 112.328L39.4871 113.327L39.2414 114.74C39.2238 114.848 39.2975 114.95 39.406 114.968C39.4479 114.975 39.491 114.968 39.5288 114.948L40.8012 114.285L42.0711 114.953C42.1688 115.004 42.2888 114.965 42.339 114.867C42.3585 114.83 42.3653 114.787 42.3585 114.745L42.1129 113.332L43.1396 112.332C43.2179 112.257 43.2203 112.133 43.1451 112.055ZM41.7641 113.119C41.718 113.164 41.6969 113.229 41.7076 113.293L41.8992 114.413L40.8921 113.885C40.8344 113.855 40.7656 113.855 40.7079 113.885L39.7008 114.413L39.8924 113.293C39.903 113.229 39.8819 113.164 39.8359 113.119L39.0228 112.325L40.1478 112.163C40.2125 112.154 40.2685 112.113 40.2976 112.055L40.7889 111.036L41.2802 112.055C41.3093 112.113 41.3653 112.154 41.43 112.163L42.555 112.325L41.7641 113.119Z" fill="white"/>
<path d="M50.3451 112.055C50.3142 112.022 50.2733 112.002 50.2291 111.996L48.8093 111.79L48.178 110.5C48.1193 110.402 47.9926 110.371 47.8949 110.43C47.866 110.447 47.8417 110.471 47.8243 110.5L47.1906 111.785L45.7709 111.991C45.6633 112.005 45.5875 112.104 45.6017 112.212C45.6075 112.256 45.6281 112.297 45.6603 112.328L46.6871 113.327L46.4414 114.74C46.4238 114.848 46.4975 114.95 46.606 114.968C46.6479 114.975 46.691 114.968 46.7288 114.948L48.0012 114.285L49.2711 114.953C49.3688 115.004 49.4888 114.965 49.539 114.867C49.5585 114.83 49.5653 114.787 49.5585 114.745L49.3129 113.332L50.3396 112.332C50.4179 112.257 50.4203 112.133 50.3451 112.055ZM48.9641 113.119C48.918 113.164 48.8969 113.229 48.9076 113.293L49.0992 114.413L48.0921 113.885C48.0344 113.855 47.9656 113.855 47.9078 113.885L46.9008 114.413L47.0924 113.293C47.103 113.229 47.0819 113.164 47.0359 113.119L46.2228 112.325L47.3478 112.163C47.4125 112.154 47.4685 112.113 47.4976 112.055L47.9889 111.036L48.4802 112.055C48.5093 112.113 48.5653 112.154 48.63 112.163L49.755 112.325L48.9641 113.119Z" fill="white"/>
<path d="M57.5451 112.055C57.5142 112.022 57.4733 112.002 57.4291 111.996L56.0093 111.79L55.378 110.5C55.3193 110.402 55.1926 110.371 55.0949 110.43C55.066 110.447 55.0417 110.471 55.0243 110.5L54.3906 111.785L52.9709 111.991C52.8633 112.005 52.7875 112.104 52.8017 112.212C52.8075 112.256 52.8281 112.297 52.8603 112.328L53.8871 113.327L53.6414 114.74C53.6238 114.848 53.6975 114.95 53.806 114.968C53.8479 114.975 53.891 114.968 53.9288 114.948L55.2012 114.285L56.4711 114.953C56.5688 115.004 56.6888 114.965 56.739 114.867C56.7585 114.83 56.7653 114.787 56.7585 114.745L56.5129 113.332L57.5396 112.332C57.6179 112.257 57.6203 112.133 57.5451 112.055ZM56.1641 113.119C56.118 113.164 56.0969 113.229 56.1076 113.293L56.2992 114.413L55.2921 113.885C55.2344 113.855 55.1656 113.855 55.1078 113.885L54.1008 114.413L54.2924 113.293C54.303 113.229 54.2819 113.164 54.2359 113.119L53.4228 112.325L54.5478 112.163C54.6125 112.154 54.6685 112.113 54.6976 112.055L55.1889 111.036L55.6802 112.055C55.7093 112.113 55.7653 112.154 55.83 112.163L56.955 112.325L56.1641 113.119Z" fill="white"/>
</g>
<defs>
<clipPath id="clip0">
<rect width="120" height="120" fill="white"/>
</clipPath>
</defs>
</svg>
