<svg width="98" height="200" viewBox="0 0 98 200" fill="none" xmlns="http://www.w3.org/2000/svg">
<path fill-rule="evenodd" clip-rule="evenodd" d="M37.7849 1.31098C35.5189 2.80346 33.8331 4.41296 33.8331 5.08419C33.8331 5.34402 33.6567 5.63375 33.4415 5.72861C32.914 5.95957 31.2703 11.3588 31.2703 12.86C31.2703 14.1458 32.6347 19.2584 33.3595 20.6885C34.2882 22.5197 34.7219 27.7096 34.321 32.1927C33.6245 39.9799 33.7454 45.6126 34.6578 47.9062C35.1109 49.0461 35.6317 49.9787 35.8146 49.9787C35.9976 49.9787 36.0632 51.0376 35.9607 52.3316C35.7091 55.5171 36.7398 62.464 38.0059 66.113C38.846 68.5349 38.9372 69.4046 38.4882 70.7012C38.1832 71.5807 37.9336 73.2521 37.9336 74.4152C37.9336 77.2774 36.5625 83.6907 35.9028 83.9119C35.6101 84.0098 35.3708 84.3037 35.3708 84.565C35.3708 84.8264 34.7941 86.2426 34.0894 87.7119C33.3846 89.1812 32.8079 90.5953 32.8079 90.8536C32.8079 91.1118 32.4968 92.0548 32.117 92.9482C31.7367 93.8416 31.0124 95.8486 30.5076 97.4081C30.0027 98.9676 29.3907 100.464 29.1482 100.733C28.9058 101.002 28.7074 101.63 28.7074 102.128C28.7074 102.625 28.1882 103.565 27.5531 104.216C24.2645 107.587 23.0098 112.408 24.1159 117.423C24.5023 119.175 24.9765 120.607 25.1697 120.607C25.3629 120.607 25.6659 121.187 25.8427 121.896C26.0195 122.605 26.3906 123.185 26.6669 123.185C26.9437 123.185 27.1697 123.429 27.1697 123.728C27.1697 124.027 27.8607 125.014 28.7049 125.919C29.5496 126.826 30.2415 127.835 30.2426 128.162C30.2441 128.49 29.222 129.361 27.9719 130.098C25.2128 131.724 23.8457 133.566 22.7079 137.192C22.2332 138.704 21.3542 140.752 20.754 141.744C20.1537 142.737 19.5028 143.984 19.307 144.516C18.6222 146.377 14.6027 151.447 13.5868 151.73C11.6682 152.264 8.71739 155.652 8.71739 157.32C8.71739 158.915 7.33757 162.366 6.69943 162.366C6.49953 162.366 5.81013 163.425 5.16737 164.72C3.48103 168.116 3.96284 171.057 6.42315 172.389C8.11205 173.304 8.2935 173.309 10.1269 172.477C12.415 171.439 13.8374 169.189 13.8579 166.577C13.8702 165.002 14.3413 164.188 16.677 161.709C19.2157 159.014 19.4813 158.514 19.4813 156.425C19.4813 155.155 19.6935 154.117 19.9528 154.117C20.2117 154.117 20.7965 152.99 21.2517 151.611C21.8842 149.696 22.4977 148.878 23.8555 148.143C24.8324 147.614 25.632 147.002 25.632 146.783C25.632 146.564 26.0021 146.384 26.4547 146.384C27.1323 146.384 27.22 146.771 26.9509 148.575C26.0821 154.407 26.0554 155.193 26.6997 155.973C27.4178 156.843 27.2815 157.003 24.5546 158.492C22.5356 159.594 20.0825 162.654 18.615 165.9C17.8918 167.501 17.0983 168.887 16.8528 168.982C16.6068 169.077 16.4059 169.482 16.4059 169.884C16.4059 170.286 16.1906 170.614 15.9276 170.614C15.6647 170.614 15.3126 171.049 15.145 171.581C14.9768 172.113 14.0107 173.407 12.9968 174.456C11.2438 176.272 11.0362 176.348 8.72867 176.029C6.22274 175.683 2.77677 176.675 1.95154 177.981C1.73472 178.324 1.55379 180.955 1.54917 183.827C1.54405 187.285 1.28213 189.673 0.772638 190.899C0.00225291 192.754 -0.268894 197.655 0.314918 199.184C0.532245 199.755 1.29494 200 2.84853 200C5.53129 200 6.09614 199.335 7.763 194.222C8.62411 191.581 9.48265 190.092 10.9993 188.611C12.1347 187.503 13.2392 186.596 13.4535 186.596C13.6677 186.596 13.843 185.358 13.843 183.845C13.843 181.119 13.8738 181.065 17.3054 177.788C19.2096 175.969 22.3383 173.089 24.2579 171.388C26.1774 169.686 28.5014 167.598 29.4219 166.748C30.3425 165.897 31.9725 164.454 33.0437 163.54C35.1288 161.761 36.3959 159.743 36.3959 158.203C36.3959 157.68 36.7624 156.952 37.2099 156.586C39.3862 154.81 41.009 152.976 41.009 152.295C41.009 151.879 41.2396 151.54 41.5215 151.54C41.8035 151.54 42.0341 151.298 42.0341 151.003C42.0341 150.707 42.9567 148.573 44.0844 146.259C45.212 143.945 46.1346 141.77 46.1346 141.425C46.1346 141.081 46.3079 140.722 46.5191 140.627C47.5934 140.147 50.2239 133.328 50.5427 130.196C50.883 126.858 50.9174 126.794 52.39 126.794C53.2152 126.794 54.3172 126.564 54.8385 126.283C55.8898 125.717 56.8939 121.885 56.9062 118.391C56.9134 116.295 58.3711 110.705 59.102 109.97C59.2999 109.772 59.4613 109.287 59.4613 108.893C59.4613 108.499 60.1533 106.774 60.999 105.059C61.8447 103.345 62.5367 101.618 62.5367 101.222C62.5367 100.826 62.7197 100.501 62.9432 100.501C63.1666 100.501 63.7899 99.1676 64.3286 97.537C64.8668 95.9069 65.4747 94.2247 65.6792 93.7993C66.3625 92.3775 67.6624 87.6892 67.6624 86.6473C67.6624 86.0812 67.9022 84.9837 68.1949 84.2088L68.7275 82.7993L69.8607 84.3042C70.484 85.1316 72.155 86.9685 73.5738 88.3862C81.3074 96.1141 83.8358 96.709 86.2321 91.365C89.5796 83.9005 90.2096 82.4024 90.514 81.1826C90.6924 80.466 91.0445 79.8798 91.2957 79.8798C91.5474 79.8798 91.7529 79.4839 91.7529 78.9998C91.7529 78.5163 92.7073 76.7516 93.8739 75.0787C96.0436 71.9679 98.6659 65.3247 97.8463 65.0154C97.5962 64.9205 97.3911 64.3292 97.3911 63.7002C97.3911 63.0718 97.1031 61.933 96.7504 61.1695C95.4834 58.4258 91.7529 59.9378 91.7529 63.196C91.7529 64.041 91.4141 65.1824 91.0005 65.733C90.2844 66.6852 90.2465 66.6589 90.2234 65.187C90.2106 64.3364 89.9881 63.3043 89.7298 62.8939C89.3587 62.3036 89.2055 62.4114 88.9968 63.4095C88.3433 66.5357 88.086 68.5607 87.8518 72.4046C87.7134 74.6729 87.3238 77.1088 86.9861 77.8177C86.2275 79.4071 83.5539 83.5175 82.7102 84.3908C82.0239 85.1012 80.9896 85.2559 80.9885 84.6486C80.988 84.4362 80.3858 83.5659 79.6497 82.7153C78.9137 81.8647 77.703 80.3629 76.9593 79.3777C72.9531 74.0718 69.8654 71.8586 63.5618 69.7733C62.0113 69.2603 60.4777 68.6478 60.1533 68.4117C59.2086 67.723 59.9139 63.7853 61.1799 62.681C62.1302 61.8526 62.3045 61.0617 62.4578 56.8884C62.6085 52.7894 62.4711 51.714 61.5531 49.8075C60.3716 47.352 58.8221 46.3699 56.1296 46.3699C52.4387 46.3699 50.4853 48.4187 49.904 52.9008C49.7262 54.2705 49.3566 55.679 49.0819 56.0296C48.4202 56.8756 48.9286 58.7598 50.1839 60.1152C51.004 61.0009 51.0804 61.3705 50.5842 62.0531C50.0414 62.8001 49.6754 62.6145 47.3853 60.4333C45.1889 58.3407 44.6933 57.5035 44.0941 54.8763C43.7061 53.175 42.8747 50.6231 42.2463 49.2054C41.3734 47.236 41.0341 45.2461 40.8091 40.7733C40.5169 34.9745 39.8439 30.0934 38.9049 26.9626C38.582 25.8861 38.603 24.9339 38.9674 24.1271C39.4769 23.0001 39.7604 22.9259 42.9121 23.0898C45.6118 23.2301 46.7635 23.0378 48.5298 22.1505C52.3643 20.224 55.3454 15.597 55.3454 11.5712C55.3454 7.8186 52.7606 3.39942 49.3551 1.33108C47.4678 0.184013 46.5401 -0.0237489 43.4226 0.00202798C40.3842 0.0267738 39.3826 0.259281 37.7849 1.31098Z" fill="#146EB4"/>
</svg>
