<svg width="120" height="120" viewBox="0 0 120 120" fill="none" xmlns="http://www.w3.org/2000/svg">
<path d="M84.9983 44.5421C84.9485 40.2981 82.7768 37.9606 78.8831 37.9606C77.3761 37.9606 75.924 38.3114 74.9747 38.6041C75.0692 36.8694 75.0706 35.7986 75.0706 35.7453L75.0707 35.0027H44.93V35.7452C44.93 35.7706 44.9326 36.8583 45.0282 38.605C44.0789 38.3121 42.6254 37.9606 41.1169 37.9606C37.2234 37.9606 35.0516 40.298 35.0018 44.5421C34.9528 48.7174 35.9049 52.434 37.8316 55.5889C39.7232 58.6864 42.141 60.5529 43.8362 61.573C46.5513 63.2072 49.2649 63.5502 51.0633 63.5502C51.5067 63.5502 51.9338 63.5293 52.3333 63.4881C52.3598 63.4853 52.3843 63.4822 52.4102 63.4794C53.2797 64.4159 54.2171 65.1661 55.2188 65.7235C55.9572 66.1344 56.4707 66.851 56.6467 67.6746C55.6511 67.9845 54.9262 68.9148 54.9262 70.0111C54.9262 71.132 55.6843 72.0787 56.7143 72.3668V75.4833H52.6965V78.7357H48.7317V85.0027H71.2689V78.7357H67.304V75.4833H63.2863V72.3668C64.3164 72.0786 65.0745 71.132 65.0745 70.0111C65.0745 68.9147 64.3496 67.9845 63.3539 67.6746C63.5299 66.851 64.0434 66.1345 64.7819 65.7235C65.7811 65.1675 66.7249 64.4132 67.5923 63.4798C67.8997 63.5138 68.3605 63.5501 68.9367 63.5501C68.9364 63.5501 68.9369 63.5501 68.9367 63.5501C70.7349 63.5501 73.4488 63.2069 76.1637 61.5729C77.8588 60.5527 80.2767 58.6863 82.1683 55.5888C84.0953 52.434 85.0473 48.7173 84.9983 44.5421ZM73.5735 36.4878C73.5668 36.7594 73.5563 37.1009 73.5401 37.5005H46.4636C46.4468 37.1009 46.4356 36.759 46.4284 36.4878H73.5735ZM74.5834 43.3062C75.5895 42.9713 76.8934 42.6336 78.0615 42.6336C79.0409 42.6336 79.746 42.8728 80.1575 43.3448C80.6303 43.8872 80.7828 44.7984 80.6103 46.0534C79.8922 51.2811 77.6257 55.3618 74.2281 57.5436C73.0446 58.3036 71.77 58.6176 70.7018 58.7292C72.9613 53.9796 74.0548 48.0203 74.5834 43.3062ZM46.1812 48.4789C46.9116 52.3968 47.92 55.7612 49.1786 58.4786C49.2175 58.5629 49.2572 58.6461 49.2966 58.7292C48.2289 58.6173 46.955 58.3034 45.772 57.5438C42.3745 55.3619 40.1079 51.2813 39.3898 46.0536C39.2174 44.7985 39.3698 43.8872 39.8427 43.345C40.2541 42.873 40.9594 42.6338 41.9387 42.6338C43.1078 42.6338 44.4128 42.9721 45.4193 43.3072C45.5991 44.9149 45.8449 46.6748 46.1812 48.4789ZM51.0633 62.0651C49.4532 62.0651 47.0249 61.7589 44.602 60.3006C42.124 58.8092 36.3725 54.2898 36.4868 44.5596C36.5272 41.1186 38.0417 39.4458 41.1169 39.4458C42.7616 39.4458 44.3859 39.9417 45.1284 40.2032C45.1654 40.7014 45.2069 41.2011 45.2528 41.6987C44.2435 41.4022 43.0543 41.1484 41.9387 41.1484C40.5112 41.1484 39.4294 41.5589 38.7234 42.3686C37.9559 43.2489 37.6851 44.5566 37.9185 46.2555C38.3183 49.1661 39.1539 51.7386 40.402 53.9015C41.5935 55.9664 43.1303 57.6123 44.9696 58.7932C46.7661 59.947 48.7091 60.2379 50.0952 60.2657C50.0998 60.274 50.1046 60.2818 50.1093 60.2899C50.1853 60.423 50.2621 60.5539 50.3396 60.6831C50.3637 60.7234 50.388 60.7635 50.4123 60.8034C50.4863 60.9249 50.5608 61.0452 50.6361 61.1631C50.6644 61.2074 50.6931 61.2507 50.7216 61.2947C50.7729 61.3735 50.8245 61.4516 50.8764 61.5289C50.9266 61.6036 50.977 61.6775 51.0277 61.7507C51.0774 61.8223 51.1272 61.8935 51.1774 61.9637C51.2009 61.9967 51.2241 62.031 51.2476 62.0636C51.1878 62.0646 51.1264 62.0651 51.0633 62.0651ZM69.784 80.221V83.5176H50.2168V80.221H69.784ZM65.8191 76.9687V78.7358H54.1817V76.9687H65.8191ZM58.1994 75.4834V72.4575H61.8014V75.4834H58.1994ZM63.5896 70.0111C63.5896 70.5411 63.1583 70.9723 62.6285 70.9723H57.3724C56.8424 70.9723 56.4113 70.5411 56.4113 70.0111C56.4113 69.4811 56.8424 69.0499 57.3724 69.0499H62.6285C63.1584 69.0499 63.5896 69.4811 63.5896 70.0111ZM67.3038 61.5215C67.2956 61.5322 67.2874 61.5428 67.2792 61.5535C67.2062 61.648 67.1326 61.7402 67.0585 61.8311C67.0404 61.8533 67.0225 61.8759 67.0042 61.898C66.9229 61.9968 66.8409 62.0935 66.7584 62.1878C66.7544 62.1923 66.7507 62.197 66.7467 62.2015C65.9187 63.1462 65.0148 63.8944 64.06 64.4258C62.8831 65.0805 62.083 66.2434 61.8628 67.5646H58.138C57.9178 66.2433 57.1176 65.0805 55.9408 64.4258C55.0193 63.9131 54.1871 63.2278 53.4352 62.4088L53.2536 62.2016C52.5153 61.3595 51.8194 60.3393 51.1853 59.1695L50.9911 58.811C47.798 52.6407 46.8322 43.7227 46.541 38.9856H73.4653C73.4529 39.1917 73.4393 39.4045 73.4243 39.6255C73.4236 39.6358 73.4228 39.6463 73.4221 39.6566C73.4057 39.8961 73.3881 40.1362 73.3695 40.3766C73.369 40.3836 73.3684 40.3906 73.3679 40.3978C73.3085 41.1596 73.2382 41.9242 73.1581 42.6798L73.1095 43.1366C72.57 47.9739 71.4304 54.1363 69.0274 58.7782L68.8152 59.1694C68.343 60.0402 67.8366 60.828 67.3038 61.5215ZM75.3982 60.3006C72.975 61.759 70.5473 62.0651 68.9372 62.0651C68.9373 62.0651 68.9371 62.0651 68.9372 62.0651C68.8741 62.0651 68.8122 62.0646 68.7524 62.0636C68.7534 62.0622 68.7543 62.0608 68.7553 62.0594C68.8517 61.9264 68.9466 61.7914 69.0401 61.6546C69.0515 61.6379 69.0627 61.6208 69.0742 61.6041C69.1532 61.4877 69.231 61.3697 69.3079 61.2505C69.3278 61.2199 69.3476 61.1893 69.3672 61.1585C69.4524 61.0248 69.5367 60.8902 69.6193 60.7533C69.6323 60.7319 69.6449 60.7099 69.6578 60.6884C69.7254 60.5753 69.7923 60.4611 69.8583 60.3458C69.8738 60.3189 69.8897 60.2931 69.9052 60.2659C71.2913 60.2381 73.2343 59.9472 75.0308 58.7934C76.8701 57.6123 78.4069 55.9664 79.5984 53.9017C80.8464 51.7388 81.682 49.1663 82.0819 46.2557C82.3151 44.5567 82.0444 43.249 81.277 42.3688C80.571 41.559 79.4892 41.1485 78.0617 41.1485C76.9461 41.1485 75.7568 41.4021 74.7476 41.6987C74.7944 41.1913 74.8345 40.7046 74.8689 40.2421C74.8699 40.2292 74.8709 40.2162 74.8719 40.2034C75.6146 39.9418 77.2388 39.446 78.8833 39.446C81.9585 39.446 83.4731 41.1187 83.5136 44.5596C83.6275 54.2898 77.8762 58.8092 75.3982 60.3006Z" fill="white"/>
<path d="M60.8564 65.003H59.331V59.0298L57.8432 59.6045V58.3368L60.6953 57.1712H60.8564V65.003Z" fill="white"/>
<path d="M52.9771 81.6942C52.9643 81.6808 52.9472 81.6722 52.9288 81.6698L52.3372 81.5838L52.0742 81.0464C52.0497 81.0057 51.9969 80.9925 51.9562 81.017C51.9442 81.0242 51.9341 81.0343 51.9268 81.0464L51.6628 81.5817L51.0712 81.6677C51.0264 81.6736 50.9948 81.7147 51.0007 81.7596C51.0031 81.778 51.0117 81.7951 51.0251 81.8079L51.4529 82.2245L51.3506 82.8131C51.3433 82.8583 51.374 82.9009 51.4192 82.9082C51.4366 82.911 51.4546 82.9082 51.4703 82.9001L52.0005 82.6237L52.5296 82.9021C52.5704 82.9231 52.6203 82.907 52.6413 82.8663C52.6494 82.8506 52.6522 82.8326 52.6494 82.8151L52.547 82.2266L52.9748 81.81C53.0074 81.7786 53.0085 81.7268 52.9771 81.6942ZM52.4017 82.1375C52.3825 82.1565 52.3737 82.1836 52.3782 82.2102L52.458 82.6769L52.0384 82.4569C52.0143 82.4443 51.9857 82.4443 51.9616 82.4569L51.542 82.6769L51.6218 82.2102C51.6263 82.1836 51.6175 82.1565 51.5983 82.1375L51.2595 81.8069L51.7283 81.7394C51.7552 81.7355 51.7785 81.7187 51.7907 81.6943L51.9954 81.2695L52.2001 81.6943C52.2122 81.7187 52.2356 81.7355 52.2625 81.7394L52.7313 81.8069L52.4017 82.1375Z" fill="white"/>
<path d="M55.9771 81.6942C55.9643 81.6808 55.9472 81.6722 55.9288 81.6698L55.3372 81.5838L55.0742 81.0464C55.0497 81.0057 54.9969 80.9925 54.9562 81.017C54.9442 81.0242 54.9341 81.0343 54.9268 81.0464L54.6628 81.5817L54.0712 81.6677C54.0264 81.6736 53.9948 81.7147 54.0007 81.7596C54.0031 81.778 54.0117 81.7951 54.0251 81.8079L54.4529 82.2245L54.3506 82.8131C54.3433 82.8583 54.374 82.9009 54.4192 82.9082C54.4366 82.911 54.4546 82.9082 54.4703 82.9001L55.0005 82.6237L55.5296 82.9021C55.5704 82.9231 55.6203 82.907 55.6413 82.8663C55.6494 82.8506 55.6522 82.8326 55.6494 82.8151L55.547 82.2266L55.9748 81.81C56.0074 81.7786 56.0085 81.7268 55.9771 81.6942ZM55.4017 82.1375C55.3825 82.1565 55.3737 82.1836 55.3782 82.2102L55.458 82.6769L55.0384 82.4569C55.0143 82.4443 54.9857 82.4443 54.9616 82.4569L54.542 82.6769L54.6218 82.2102C54.6263 82.1836 54.6175 82.1565 54.5983 82.1375L54.2595 81.8069L54.7283 81.7394C54.7552 81.7355 54.7785 81.7187 54.7907 81.6943L54.9954 81.2695L55.2001 81.6943C55.2122 81.7187 55.2356 81.7355 55.2625 81.7394L55.7313 81.8069L55.4017 82.1375Z" fill="white"/>
<path d="M58.9771 81.6942C58.9643 81.6808 58.9472 81.6722 58.9288 81.6698L58.3372 81.5838L58.0742 81.0464C58.0497 81.0057 57.9969 80.9925 57.9562 81.017C57.9442 81.0242 57.9341 81.0343 57.9268 81.0464L57.6628 81.5817L57.0712 81.6677C57.0264 81.6736 56.9948 81.7147 57.0007 81.7596C57.0031 81.778 57.0117 81.7951 57.0251 81.8079L57.4529 82.2245L57.3506 82.8131C57.3433 82.8583 57.374 82.9009 57.4192 82.9082C57.4366 82.911 57.4546 82.9082 57.4703 82.9001L58.0005 82.6237L58.5296 82.9021C58.5704 82.9231 58.6203 82.907 58.6413 82.8663C58.6494 82.8506 58.6522 82.8326 58.6494 82.8151L58.547 82.2266L58.9748 81.81C59.0074 81.7786 59.0085 81.7268 58.9771 81.6942ZM58.4017 82.1375C58.3825 82.1565 58.3737 82.1836 58.3782 82.2102L58.458 82.6769L58.0384 82.4569C58.0143 82.4443 57.9857 82.4443 57.9616 82.4569L57.542 82.6769L57.6218 82.2102C57.6263 82.1836 57.6175 82.1565 57.5983 82.1375L57.2595 81.8069L57.7283 81.7394C57.7552 81.7355 57.7785 81.7187 57.7907 81.6943L57.9954 81.2695L58.2001 81.6943C58.2122 81.7187 58.2356 81.7355 58.2625 81.7394L58.7313 81.8069L58.4017 82.1375Z" fill="white"/>
<path d="M56.5373 42.2401C56.9342 42.7804 57.1971 43.3969 57.3033 44.0527C57.3114 44.1009 57.317 44.1489 57.3233 44.1971C56.4255 44.3007 55.5324 44.4505 54.6474 44.6477C55.0823 43.6964 55.7343 42.8708 56.5373 42.2401ZM59.9586 40.9305V44.0263C59.3745 44.0347 58.7908 44.0623 58.2079 44.1096C58.1998 44.0402 58.1908 43.9707 58.1796 43.9009C58.0522 43.1181 57.7463 42.382 57.2834 41.7358C58.0843 41.275 58.9923 40.9894 59.9586 40.9305ZM60.8473 40.9415C61.8283 41.0238 62.746 41.3387 63.5484 41.8343C63.0998 42.4707 62.8098 43.2011 62.7002 43.9826C62.6933 44.0315 62.6886 44.0804 62.6833 44.1292C62.0725 44.0739 61.4604 44.0411 60.8473 44.0289V40.9415ZM63.5796 44.1138C63.6686 43.4764 63.9073 42.8798 64.277 42.3598C65.014 42.975 65.6134 43.7578 66.0215 44.6522C65.2094 44.4701 64.3904 44.3273 63.5668 44.2241C63.5711 44.1874 63.5743 44.1508 63.5796 44.1138ZM54.0624 47.0144C54.0892 46.5538 54.163 46.1065 54.2786 45.6765C55.2873 45.4269 56.3087 45.2404 57.3367 45.1179C57.2871 45.6231 57.1451 46.1168 56.9258 46.5825C57.2591 46.5474 57.5924 46.5172 57.9257 46.4924C58.0961 46.02 58.2017 45.5282 58.2335 45.0278C58.8076 44.9799 59.3829 44.9519 59.9586 44.9435V46.403C60.2548 46.3995 60.5511 46.3995 60.8473 46.4036V44.9461C61.4548 44.9587 62.0619 44.9915 62.6672 45.0481C62.7042 45.5424 62.8126 46.0309 62.9846 46.5024C63.3185 46.5291 63.6524 46.5619 63.9858 46.5989C63.7671 46.1338 63.6235 45.6443 63.5674 45.1471C64.5159 45.27 65.4579 45.4501 66.3897 45.6813C66.5024 46.1039 66.5759 46.5432 66.604 46.9948C66.903 47.0523 67.2018 47.1137 67.4999 47.18C67.3837 43.2011 64.2147 40.0005 60.3333 40.0005C56.4451 40.0005 53.2718 43.2127 53.1665 47.2015C53.4646 47.1343 53.7634 47.0729 54.0624 47.0144Z" fill="white"/>
<path d="M59.8831 47.5019C59.2872 47.5112 58.6916 47.5363 58.0969 47.5778C57.9605 47.7267 57.8237 47.8769 57.6873 48.0277V49.8451C57.0322 49.8985 56.4786 49.9548 55.8267 50.0471C55.9544 49.8969 56.0824 49.7473 56.2101 49.5984C56.5497 49.5544 56.7892 49.5322 57.1291 49.4987C57.1895 49.4929 57.2499 49.4872 57.3101 49.4814V47.8836C57.5191 47.6511 57.7281 47.4205 57.9377 47.1918C58.6383 47.1401 59.3398 47.1105 60.0417 47.1031C59.989 47.2359 59.9357 47.3691 59.8831 47.5019ZM58.5679 51.0547V48.3149C58.8505 48.2995 59.133 48.2876 59.4158 48.2792V51.0186C59.133 51.027 58.8505 51.0389 58.5679 51.0547ZM59.975 51.5773C59.3539 51.5853 58.7327 51.6104 58.1122 51.6532C58.2063 51.5155 58.2997 51.3785 58.3938 51.2422C58.7925 51.218 59.1906 51.2013 59.5897 51.1917V48.0972C59.718 47.9618 59.8467 47.8273 59.975 47.6932V51.5773ZM57.9387 52.2549C57.729 52.0536 57.5194 51.8545 57.3101 51.657V50.46C57.4359 50.3198 57.5614 50.1802 57.6873 50.0419V51.4621C57.824 51.5895 57.9608 51.7178 58.0975 51.8468C58.0446 51.9828 57.9916 52.1185 57.9387 52.2549ZM55.5092 52.1259C55.3843 52.2774 55.2591 52.4295 55.1342 52.5823V47.5192C55.4927 47.4607 55.8516 47.4083 56.2111 47.3613C56.083 47.5093 55.9547 47.6579 55.8267 47.8074C55.7208 47.8222 55.6148 47.8376 55.5092 47.8537V52.1259ZM60.1233 46.9246C59.3685 46.931 58.6143 46.9629 57.8611 47.0204C57.6169 47.2896 57.373 47.5617 57.1291 47.8363V49.3212C56.8475 49.3489 56.6662 49.3637 56.3849 49.3987V47.1619C55.907 47.2218 55.4301 47.2915 54.9544 47.3719V52.7897C55.4301 52.7093 55.907 52.6392 56.3849 52.5797V50.7398C56.6662 50.7048 56.8475 50.69 57.1291 50.6623V51.7503C57.373 51.977 57.6169 52.2063 57.8611 52.4385C58.6143 52.3806 59.3685 52.3488 60.1233 52.3427C60.3672 52.0902 60.6123 51.84 60.8572 51.593V47.6788C60.6123 47.4247 60.3672 47.1735 60.1233 46.9246Z" fill="white"/>
<path d="M53.2182 48.2674C52.8886 48.3413 52.5603 48.4201 52.2325 48.5038C52.0494 48.5504 51.8665 48.5993 51.684 48.6491C51.5507 48.8254 51.4173 49.0026 51.2843 49.1804C51.155 50.4366 51.0264 51.6938 50.8974 52.9516C50.7784 52.9873 50.6591 53.0239 50.5408 53.0609V53.2532C50.4186 53.4237 50.2968 53.5948 50.1757 53.7668C50.175 53.4394 50.1744 53.1127 50.1741 52.785C50.3009 52.7438 50.4277 52.7036 50.5545 52.6637V52.6615C50.675 51.4773 50.7949 50.2945 50.9155 49.1116C51.1195 48.8376 51.3239 48.5655 51.5285 48.295C52.3179 48.0747 53.1122 47.8843 53.9113 47.7235C53.7845 47.8802 53.6583 48.0377 53.5318 48.196C53.4269 48.2185 53.3225 48.241 53.2182 48.2645V48.2674ZM51.8656 52.1064C51.9556 51.1676 52.0463 50.2292 52.1363 49.2914C52.2665 49.2592 52.3967 49.2274 52.5266 49.1968C52.5743 49.1849 52.6216 49.1737 52.669 49.1621V51.9015C52.4008 51.9665 52.1329 52.0343 51.8656 52.1064ZM53.2182 52.3444C52.6484 52.4717 52.0805 52.6145 51.5158 52.7724C51.608 52.6155 51.7002 52.4592 51.7924 52.3032C52.1407 52.209 52.4899 52.1209 52.8397 52.0385V48.9402C52.9658 48.7794 53.092 48.6195 53.2182 48.4603V52.3444ZM53.6353 52.2559C53.7281 52.1045 53.8212 51.953 53.9144 51.8018C54.0764 51.7693 54.1773 51.7478 54.3396 51.7176L54.0197 52.1775C53.8913 52.2029 53.7633 52.2292 53.6353 52.2559ZM54.0876 51.5876V51.1146C54.0873 51.1149 54.0869 51.1149 54.0866 51.1149V47.511C53.2035 47.684 52.3251 47.8933 51.4538 48.1387C51.2158 48.4562 50.9784 48.7768 50.7414 49.0997C50.6205 50.2462 50.4999 51.3934 50.3788 52.5415C50.2526 52.5817 50.1265 52.6226 50 52.6647V54.0019C50.3233 53.8948 50.6476 53.7926 50.9731 53.6961C50.9956 53.6893 51.0174 53.6826 51.0398 53.6762C51.0794 53.6643 51.1189 53.6527 51.1585 53.6414C51.3497 53.5855 51.5416 53.5314 51.7338 53.479C52.3129 53.3214 52.8951 53.1796 53.4795 53.0535C53.6191 53.0239 53.7589 52.9947 53.8988 52.9664C54.0851 52.9287 54.2106 52.9027 54.3972 52.8683C54.4365 52.8612 54.4751 52.8541 54.5137 52.847V51.5059C54.3511 51.5352 54.2499 51.5558 54.0876 51.5876Z" fill="white"/>
<path d="M64.4339 49.5975C63.8495 49.5206 63.1053 49.4412 62.5194 49.3955C62.6147 49.2714 62.7104 49.1473 62.8057 49.0241C63.3505 49.071 64.0533 49.1502 64.5962 49.2241C64.542 49.3489 64.4875 49.473 64.4339 49.5975ZM64.4931 51.8272C63.8788 51.7445 63.1053 51.6613 62.4889 51.613C62.5842 51.4902 62.6789 51.3676 62.7739 51.2454C63.1695 51.2795 63.7231 51.339 64.1177 51.3876C64.1237 50.974 64.1299 50.5604 64.1355 50.1471C64.2642 50.031 64.3931 49.9159 64.5218 49.8014C64.5121 50.4771 64.5025 51.1521 64.4931 51.8272ZM61.6839 52.2115C61.7076 50.5331 61.6917 48.7896 61.7157 47.1115C62.7982 47.17 64.0367 47.2993 65.1114 47.464C64.9819 47.5759 64.852 47.6885 64.7218 47.8023C63.8984 47.6856 62.9138 47.5823 62.0861 47.5286C62.0655 48.9437 62.0855 50.4237 62.0655 51.8391C61.9381 51.9626 61.811 52.0867 61.6839 52.2115ZM62.9636 50.197C63.2433 50.2227 63.6813 50.27 63.9604 50.3028C63.9564 50.5983 63.9523 50.8945 63.9477 51.1907C63.6685 51.1576 63.2247 51.0965 62.9449 51.0708L62.9636 50.197ZM64.6794 49.0585C64.1676 48.9874 63.4963 48.9102 62.9829 48.8626L62.9864 48.3632C63.7075 48.4298 64.5492 48.5346 65.2666 48.6481C65.2731 48.2033 65.2794 47.7586 65.2856 47.3144C64.0934 47.1253 62.7362 46.9835 61.5344 46.9256C61.5089 48.7218 61.5235 50.5826 61.4977 52.3784C61.7413 52.3903 62.7125 52.418 64.5878 52.646C64.8326 52.4305 65.1183 52.1816 65.3628 51.9713C65.3725 51.2859 65.3825 50.6009 65.3921 49.9153C65.1544 49.6271 64.9171 49.3415 64.6794 49.0585Z" fill="white"/>
<path d="M69.1583 48.7214C69.0558 48.6912 68.953 48.6616 68.8502 48.6327C68.8502 48.6339 68.8502 48.6346 68.8502 48.6359C68.5256 48.5445 68.3418 48.4947 68.0151 48.4133C67.8332 48.3676 67.6506 48.3239 67.4681 48.2815C67.3307 48.3892 67.1943 48.4985 67.0572 48.6082C66.813 49.8387 66.5691 51.0714 66.3248 52.306C66.1772 52.3987 66.0289 52.4923 65.8809 52.5868C66.1504 51.1727 66.4195 49.7612 66.689 48.3529C66.9002 48.1834 67.1101 48.0161 67.3204 47.8502C67.555 47.9036 67.7899 47.9595 68.0235 48.0181C68.1213 48.0422 68.2188 48.0673 68.3163 48.0924C68.7723 48.211 69.086 48.302 69.538 48.4403C69.4116 48.5333 69.2848 48.6269 69.1583 48.7214ZM69.0153 52.8927L68.6334 53.1847L68.4636 49.116L68.8462 48.8279L69.0153 52.8927ZM67.2491 47.6569C67.0045 47.8524 66.7594 48.0512 66.5142 48.2525C66.2298 49.7509 65.9451 51.2518 65.6598 52.7556C66.1666 52.8457 66.5575 52.9277 67.0606 53.0416C67.3036 51.7352 67.5459 50.4311 67.7877 49.1292L68.2914 49.2514L68.4605 53.3165L70 53.7205L69.7137 48.3165C69.7137 48.3165 68.1238 47.8531 67.2491 47.6569Z" fill="white"/>
</svg>
