<svg width="50" height="50" viewBox="0 0 50 50" fill="none" xmlns="http://www.w3.org/2000/svg">
<path d="M25.4497 24.7119H29.3858L32.051 14.4585L31.4093 13.0806C27.9253 15.2887 24.8786 18.1355 22.4385 21.4467L23.3626 26.3021L25.4497 24.7119Z" fill="white"/>
<path d="M30.8514 11.8827L28.5699 6.9827C28.4917 6.83617 28.3813 6.73605 28.2655 6.70682C28.12 6.67028 27.9618 6.74811 27.8537 6.82156L20.6455 12.0266L22.1096 19.7197C24.5498 16.6376 27.5087 13.9782 30.8514 11.8827Z" fill="white"/>
<path d="M26.9801 32.1193L28.4654 26.0212H25.8923L23.6367 27.7397L24.3872 31.6834L26.9801 32.1193Z" fill="white"/>
<path d="M29.1468 39.0482L27.3502 33.5098L24.3145 32.9994L23.8848 37.5953C25.589 38.2388 27.3484 38.7244 29.1468 39.0482Z" fill="white"/>
<path d="M21.3725 27.8181L23.3624 26.302L22.4383 21.4467C21.7254 22.4139 21.0641 23.4205 20.459 24.4626L21.3725 27.8181Z" fill="white"/>
<path d="M19.9841 22.7185C20.6392 21.6804 21.3496 20.6799 22.11 19.7197L20.6454 12.0266L17.6602 14.1825L19.9841 22.7185Z" fill="white"/>
<path d="M22.8066 31.4175L24.3869 31.6835L23.6364 27.7397L22.2314 28.8104L22.8066 31.4175Z" fill="white"/>
<path d="M21.626 36.6352C22.367 36.9867 23.1204 37.3068 23.8849 37.5951L24.3146 32.9992L22.7324 32.7328L21.626 36.6352Z" fill="white"/>
<path d="M26.5897 41.7011C27.7236 41.7011 28.8307 41.5868 29.901 41.3715L30.1538 42.1502L29.6028 40.4522C27.6044 40.1383 25.6503 39.6333 23.759 38.9438L23.5273 41.4201C24.5201 41.6043 25.5432 41.7011 26.5897 41.7011Z" fill="white"/>
<path d="M30.153 42.1501C30.0518 42.1805 29.9506 42.2104 29.8486 42.2389C29.9506 42.2104 30.0518 42.1805 30.153 42.1501Z" fill="white"/>
<path d="M29.9006 41.3716C28.8304 41.5871 27.7232 41.7011 26.5894 41.7011C25.5429 41.7011 24.5198 41.6043 23.527 41.4202L23.7587 38.9439C22.9139 38.6362 22.0819 38.2916 21.2641 37.9109L20.5129 40.5607L20.0459 42.2083C20.2103 42.2558 20.3759 42.3004 20.5421 42.3431C20.5757 42.3516 20.6097 42.36 20.6433 42.3684C20.7869 42.4045 20.9313 42.4385 21.076 42.4714C21.0909 42.4747 21.1059 42.4787 21.1213 42.482C21.1468 42.4878 21.1728 42.4933 21.1987 42.4988C21.2389 42.5076 21.2787 42.5163 21.3193 42.5247C21.3708 42.5357 21.4223 42.5463 21.4742 42.5569C21.5068 42.5631 21.5393 42.5693 21.5718 42.5755C21.6335 42.5876 21.6949 42.5997 21.7567 42.611C21.7676 42.6128 21.7786 42.6154 21.7896 42.6172C21.8071 42.6205 21.8246 42.6238 21.8422 42.6271C21.8824 42.634 21.9226 42.6402 21.9628 42.6472C22.0453 42.661 22.1279 42.6753 22.2109 42.6881C22.2255 42.6906 22.2401 42.6932 22.2547 42.6954C22.2712 42.6979 22.2872 42.7001 22.3037 42.7027C22.3293 42.7067 22.3548 42.71 22.3804 42.7137C22.4626 42.7257 22.5456 42.7378 22.6285 42.7487C22.6402 42.7502 22.6523 42.752 22.6643 42.7535C22.9062 42.7849 23.1496 42.813 23.3948 42.835V42.8331C23.9246 42.8806 24.461 42.9051 25.0032 42.9051C25.7026 42.9051 26.3925 42.8649 27.071 42.7871C27.0812 42.7856 27.0915 42.7845 27.1013 42.7834C27.2486 42.7659 27.3951 42.7469 27.5413 42.7261C27.5541 42.7243 27.5669 42.7224 27.5796 42.721C27.5902 42.7191 27.6012 42.718 27.6118 42.7162C27.7477 42.6965 27.8826 42.6746 28.0174 42.6515C28.0795 42.6409 28.1413 42.63 28.2034 42.6187C28.2746 42.6059 28.3459 42.5923 28.4171 42.5785H28.4175C28.568 42.5492 28.7179 42.5182 28.8673 42.4853C28.8863 42.4809 28.9053 42.4769 28.9243 42.4729C28.9247 42.4729 28.925 42.4725 28.9254 42.4725C29.2363 42.4027 29.5444 42.3249 29.8491 42.239C29.9507 42.2105 30.0523 42.1805 30.1535 42.1502L29.9006 41.3716Z" fill="white"/>
<path d="M13.8949 14.1493C16.2251 11.4257 19.4164 9.46165 23.047 8.6775L25.2328 7.09899C25.1561 7.0979 25.0801 7.0957 25.0033 7.0957C24.0778 7.0957 23.1683 7.16586 22.2808 7.30142C22.2713 7.30288 22.2618 7.30434 22.2523 7.30581C22.1196 7.32627 21.9877 7.34819 21.8562 7.37158C21.812 7.37962 21.7685 7.38802 21.7246 7.39606C21.6285 7.41396 21.5328 7.43187 21.4374 7.45123C21.3636 7.46622 21.2902 7.48229 21.2171 7.498C21.1528 7.51189 21.0885 7.52541 21.0245 7.54003C20.9248 7.56268 20.8254 7.5868 20.7264 7.61091C20.6902 7.62005 20.6537 7.62845 20.6175 7.63759C20.4944 7.66864 20.3712 7.70117 20.2488 7.73515C20.2382 7.73807 20.2276 7.74063 20.2167 7.74355C17.3154 8.54962 14.7083 10.0693 12.5967 12.1005C12.969 12.8215 13.4049 13.5062 13.8949 14.1493Z" fill="white"/>
<path d="M9.8888 25.0007C9.8888 21.3427 11.0657 17.9599 13.0601 15.2088C12.531 14.5449 12.0549 13.8375 11.6416 13.0928C9.81572 15.1394 8.45243 17.6069 7.71542 20.3287C7.70154 20.3802 7.68729 20.4314 7.67377 20.4829C7.65842 20.5421 7.64417 20.6013 7.62919 20.6605C7.60763 20.7475 7.58607 20.8337 7.56597 20.9207C7.55684 20.959 7.54844 20.9974 7.54003 21.0358C7.51482 21.1458 7.4907 21.2557 7.46768 21.3668C7.4633 21.3884 7.45891 21.4103 7.45453 21.4322C7.42822 21.5619 7.40337 21.6917 7.37999 21.8225C7.37853 21.8287 7.3778 21.8353 7.3767 21.8415C7.194 22.8668 7.09863 23.9224 7.09863 25.0007C7.09863 25.9138 7.16733 26.8116 7.29924 27.6882C8.18349 27.3454 9.07689 27.0297 9.97869 26.7396C9.91949 26.1678 9.8888 25.5879 9.8888 25.0007Z" fill="white"/>
<path d="M13.2679 35.0734C11.7321 33.0454 10.6491 30.6561 10.1682 28.0552C9.28616 28.3438 8.41177 28.657 7.54688 28.9975C7.54834 29.0045 7.5498 29.0114 7.55126 29.0187C7.59328 29.2011 7.63822 29.3827 7.68573 29.5628C7.69267 29.5887 7.69998 29.6147 7.70692 29.6406C7.75332 29.8135 7.80156 29.9852 7.85308 30.1558C7.85637 30.1664 7.85929 30.177 7.86258 30.188C8.68362 32.8956 10.1299 35.3343 12.0328 37.3348C12.3774 36.5386 12.7918 35.7826 13.2679 35.0734Z" fill="white"/>
<path d="M18.8005 41.799L19.3019 40.0312C17.3353 39.0761 15.585 37.746 14.1425 36.1343C13.7124 36.8198 13.3433 37.5498 13.0459 38.3179C14.7125 39.816 16.6608 41.0065 18.8005 41.799Z" fill="white"/>
<path d="M37.3433 12.2232C37.366 12.1809 37.3893 12.1388 37.4116 12.0961C37.3923 12.0775 37.3729 12.0585 37.3535 12.0402C37.2691 11.9598 37.184 11.8801 37.0978 11.8016C37.0674 11.7734 37.0371 11.7457 37.0064 11.7179C36.8946 11.6171 36.7817 11.5173 36.6673 11.419C36.6611 11.4139 36.6549 11.4084 36.6487 11.4029C34.9711 9.96766 33.0382 8.84735 30.9609 8.11181C30.9178 8.09646 30.874 8.08221 30.8308 8.06723C30.7216 8.0296 30.6123 7.99232 30.5027 7.95688C30.4896 7.9525 30.4764 7.94884 30.4629 7.94446L30.8889 8.85941C33.2976 9.49958 35.4922 10.6637 37.3433 12.2232Z" fill="white"/>
<path d="M36.9577 38.3187C36.9354 38.2613 36.9113 38.2043 36.8879 38.147C35.2122 39.4617 33.2793 40.4625 31.1768 41.0621L31.3927 41.7275C33.4579 40.9357 35.3405 39.7723 36.9577 38.3187Z" fill="white"/>
<path d="M13.8955 14.1495C14.8024 15.34 15.8964 16.3847 17.1344 17.2331L16.1591 13.6515L23.0476 8.67773C19.417 9.46188 16.2256 11.4259 13.8955 14.1495Z" fill="white"/>
<path d="M33.437 14.3322L32.6433 17.3858C34.6128 16.0926 36.2388 14.3095 37.3431 12.2235C35.4919 10.6639 33.2974 9.49943 30.8887 8.85962L33.437 14.3322Z" fill="white"/>
<path d="M19.302 40.0309L21.5875 31.9699L21.3029 30.6801C18.299 31.5829 15.773 33.5356 14.1426 36.1347C15.5852 37.7461 17.3354 39.0758 19.302 40.0309Z" fill="white"/>
<path d="M20.4908 29.5645L19.5236 26.0121C16.3366 26.3771 13.204 27.0622 10.168 28.055C10.6488 30.6559 11.7319 33.0452 13.2676 35.0732C14.9854 32.5143 17.5106 30.5657 20.4908 29.5645Z" fill="white"/>
<path d="M9.97856 26.7397C12.9668 25.7776 16.0452 25.1049 19.1756 24.7336L17.6365 19.081C15.868 18.1039 14.3118 16.7793 13.0599 15.2089C11.0656 17.9599 9.88867 21.3428 9.88867 25.0008C9.88867 25.5879 9.91937 26.1682 9.97856 26.7397Z" fill="white"/>
<path d="M28.6798 30.674L28.3057 32.2101L31.1773 41.0618C33.2798 40.4626 35.2128 39.4614 36.8885 38.1467C35.4331 34.5676 32.3806 31.7837 28.6798 30.674Z" fill="white"/>
<path d="M29.8325 25.943L28.9902 29.4004C31.0686 30.0113 32.9957 31.1024 34.5965 32.5826C36.019 33.898 37.1558 35.4956 37.9341 37.2553C37.9461 37.2823 37.9589 37.309 37.9706 37.3364C38.2742 37.0171 38.5651 36.6853 38.845 36.3444C40.5722 34.2408 41.8314 31.7389 42.4584 28.9981C38.4146 27.406 34.1723 26.3796 29.8325 25.943Z" fill="white"/>
<path d="M7.85319 30.1558C7.80203 29.9852 7.75344 29.8135 7.70703 29.6406C7.75307 29.8135 7.80203 29.9852 7.85319 30.1558Z" fill="#2B378C"/>
<path d="M7.68524 29.5625C7.63774 29.3824 7.5928 29.2008 7.55078 29.0184C7.5928 29.2011 7.63811 29.382 7.68524 29.5625Z" fill="#2B378C"/>
<path d="M22.3039 42.7025C22.2874 42.7003 22.271 42.6977 22.2549 42.6952C22.271 42.6977 22.2874 42.7003 22.3039 42.7025Z" fill="#2B378C"/>
<path d="M27.6116 42.7162C27.5882 42.7195 27.5644 42.7228 27.541 42.726C27.5644 42.7228 27.5882 42.7195 27.6116 42.7162Z" fill="#2B378C"/>
<path d="M28.2036 42.6189C28.1418 42.6302 28.0797 42.6412 28.0176 42.6518C28.0797 42.6412 28.1418 42.6302 28.2036 42.6189Z" fill="#2B378C"/>
<path d="M27.1016 42.7833C27.0914 42.7844 27.0815 42.7855 27.0713 42.787C27.0815 42.7855 27.0914 42.7844 27.1016 42.7833Z" fill="#2B378C"/>
<path d="M28.8681 42.4855C28.7187 42.5184 28.5689 42.5494 28.418 42.5786C28.5689 42.5494 28.7187 42.5184 28.8681 42.4855Z" fill="#2B378C"/>
<path d="M21.8417 42.6269C21.8241 42.6236 21.8066 42.6204 21.7891 42.6171C21.8066 42.6204 21.8241 42.624 21.8417 42.6269Z" fill="#2B378C"/>
<path d="M21.4747 42.5568C21.4177 42.5455 21.3607 42.5338 21.3037 42.5217C21.3607 42.5338 21.4177 42.5458 21.4747 42.5568Z" fill="#2B378C"/>
<path d="M22.252 7.30614C22.2615 7.30468 22.271 7.30322 22.2805 7.30176C22.271 7.30322 22.2615 7.30468 22.252 7.30614Z" fill="#2B378C"/>
<path d="M21.7246 7.39643C21.7685 7.38839 21.8119 7.37999 21.8562 7.37195C21.8119 7.37962 21.7685 7.38839 21.7246 7.39643Z" fill="#2B378C"/>
<path d="M30.502 7.95703C30.6116 7.99247 30.7208 8.02974 30.8301 8.06738C30.7208 8.03011 30.6119 7.99247 30.502 7.95703Z" fill="#2B378C"/>
<path d="M37.0977 11.8019C37.1839 11.8804 37.269 11.9601 37.3534 12.0405C37.269 11.9601 37.1835 11.8804 37.0977 11.8019Z" fill="#2B378C"/>
<path d="M36.667 11.4193C36.7814 11.5176 36.8943 11.6174 37.0061 11.7182C36.8943 11.6174 36.7814 11.5176 36.667 11.4193Z" fill="#2B378C"/>
<path d="M21.2168 7.49843C21.2902 7.48272 21.3637 7.46664 21.4375 7.45166C21.3637 7.46664 21.2902 7.48272 21.2168 7.49843Z" fill="#2B378C"/>
<path d="M20.7266 7.61105C20.8256 7.58693 20.925 7.56281 21.0247 7.54016C20.925 7.56281 20.8256 7.58693 20.7266 7.61105Z" fill="#2B378C"/>
<path d="M20.249 7.73501C20.3714 7.7014 20.4946 7.66888 20.6177 7.63782C20.4946 7.66888 20.3718 7.70176 20.249 7.73501Z" fill="#2B378C"/>
<path d="M42.8914 25.7687C42.8903 25.7954 42.8892 25.822 42.8877 25.8487C42.8892 25.822 42.8903 25.7954 42.8914 25.7687Z" fill="#2B378C"/>
<path d="M42.8139 26.8345C42.8077 26.8951 42.8019 26.9554 42.7949 27.0157C42.8019 26.9554 42.8077 26.8951 42.8139 26.8345Z" fill="#2B378C"/>
<path d="M42.8458 26.4912C42.8418 26.5405 42.8378 26.5899 42.833 26.6388C42.8378 26.5899 42.8418 26.5405 42.8458 26.4912Z" fill="#2B378C"/>
<path d="M42.8719 26.1338C42.8697 26.1733 42.8668 26.2127 42.8643 26.2522C42.8668 26.2127 42.8697 26.1733 42.8719 26.1338Z" fill="#2B378C"/>
<path d="M31.515 21.7281L30.7363 24.7232C34.8445 25.2026 38.8617 26.1961 42.7071 27.6877C42.7356 27.4977 42.7612 27.3062 42.7838 27.114C42.7875 27.0811 42.7919 27.0483 42.7955 27.0154C42.8025 26.9551 42.8083 26.8944 42.8145 26.8341C42.8211 26.7691 42.8277 26.7041 42.8339 26.6386C42.8383 26.5897 42.8423 26.5404 42.8463 26.491C42.8529 26.4114 42.8591 26.3321 42.8646 26.2521C42.8671 26.2126 42.8701 26.1731 42.8723 26.1337C42.8781 26.0387 42.8836 25.944 42.888 25.849C42.8894 25.822 42.8905 25.7953 42.8916 25.7686C42.8971 25.647 42.9011 25.5253 42.9037 25.4029C42.9037 25.4014 42.904 25.3999 42.904 25.3985C42.9066 25.2658 42.9088 25.1336 42.9088 25.0006C42.9088 22.4161 42.3731 19.9292 41.339 17.6429C38.6081 19.8821 35.2238 21.3539 31.515 21.7281Z" fill="white"/>
<path d="M38.9782 13.8061C38.7809 13.5599 38.5767 13.3198 38.3669 13.0852C38.3666 13.0856 38.3662 13.0863 38.3658 13.087C38.3571 13.1024 38.3479 13.1174 38.3392 13.1331C36.913 15.6876 34.7638 17.8043 32.1753 19.1855L31.5146 21.7283C35.2234 21.3541 38.6077 19.8823 41.3387 17.6432C40.7252 16.2864 39.9359 14.9999 38.9782 13.8061Z" fill="white"/>
<path fill-rule="evenodd" clip-rule="evenodd" d="M25 43.179C14.9601 43.179 6.82096 35.0399 6.82096 25C6.82096 14.9598 14.9601 6.82062 25 6.82062C35.0402 6.82062 43.1794 14.9598 43.1794 25C43.1794 35.0399 35.0402 43.179 25 43.179ZM25 0C11.193 0 0 11.1927 0 25C0 38.807 11.193 50 25 50C38.8073 50 50 38.807 50 25C50 11.1927 38.8073 0 25 0Z" fill="white"/>
<path d="M37.9709 37.3359C37.1915 35.5444 36.0408 33.918 34.5968 32.5825C32.996 31.1023 31.0689 30.0112 28.9905 29.4003L29.8324 25.9429C34.1726 26.3795 38.4148 27.4059 42.4587 28.998C41.7301 32.1828 40.1497 35.0467 37.9709 37.3359ZM20.0467 42.2089L21.2649 37.9111C23.9141 39.145 26.7126 39.9982 29.6033 40.4524L30.1543 42.1504C28.5221 42.6419 26.793 42.9071 25.0029 42.9071C23.2841 42.9071 21.6212 42.6627 20.0467 42.2089ZM7.54686 28.9976C11.3879 27.4852 15.4109 26.4833 19.5246 26.0123L20.4918 29.5647C16.6854 30.8432 13.6212 33.6674 12.0336 37.3345C9.85543 35.0453 8.27583 32.182 7.54686 28.9976ZM11.6422 13.093C13.0322 15.5992 15.1208 17.6911 17.6373 19.0811L19.1763 24.7338C15.1011 25.2168 11.1139 26.2093 7.29839 27.6887C7.16575 26.8118 7.09669 25.9144 7.09669 25.0009C7.09669 20.4327 8.81698 16.2599 11.6422 13.093ZM25.2357 7.09792L16.1593 13.6517L17.1341 17.2333C15.2279 15.9266 13.6592 14.1559 12.5974 12.1009C15.818 9.00273 20.1918 7.09463 25.0029 7.09463C25.0804 7.09463 25.1582 7.09683 25.2357 7.09792ZM28.267 6.70695C28.3825 6.73618 28.4932 6.8363 28.571 6.98319L30.8526 11.8828C26.4686 14.6309 22.7433 18.3488 19.985 22.7186L17.661 14.1826L27.8549 6.82168C27.9634 6.74824 28.1212 6.67041 28.267 6.70695ZM30.4631 7.94381C33.0559 8.77582 35.4423 10.2042 37.4129 12.0954C36.308 14.237 34.6545 16.0662 32.6441 17.3864L33.4378 14.3324L30.4631 7.94381ZM25.4506 24.7119L21.3735 27.8181L20.46 24.4627C23.1361 19.8528 26.9081 15.9339 31.4102 13.0806L32.0518 14.4585L29.3866 24.7119H25.4506ZM26.9805 32.1195L22.8073 31.4176L22.2321 28.8105L25.8927 26.0214H28.4658L26.9805 32.1195ZM28.3061 32.2102L28.6803 30.674C32.4406 31.8016 35.5322 34.6565 36.9587 38.3189C35.3415 39.772 33.459 40.9355 31.3937 41.7269L28.3061 32.2102ZM22.7331 32.733L27.351 33.5099L29.148 39.0482C26.5424 38.5794 24.0197 37.7708 21.6267 36.6355L22.7331 32.733ZM21.3037 30.6802L21.588 31.9701L18.8014 41.7993C16.6617 41.0067 14.7134 39.8163 13.0468 38.3181C14.4729 34.6382 17.5076 31.8214 21.3037 30.6802ZM42.9092 25.0009C42.9092 25.914 42.8401 26.8111 42.7075 27.688C38.8621 26.1965 34.8445 25.2026 30.7367 24.7236L32.1764 19.1856C34.7806 17.7956 36.9415 15.6617 38.3677 13.0853C38.5774 13.3199 38.7817 13.56 38.979 13.8062C41.5503 17.0115 42.9092 20.8825 42.9092 25.0009ZM40.0006 12.9867C37.3884 9.72951 33.7498 7.38951 29.7279 6.37115C29.4725 5.88992 29.0687 5.55814 28.5864 5.43683C28.1 5.31479 27.575 5.42477 27.1073 5.74632L26.9202 5.88152C26.2859 5.81867 25.6424 5.78505 25.0029 5.78505C14.4072 5.78505 5.78711 14.4051 5.78711 25.0009C5.78711 35.5963 14.4072 44.2167 25.0029 44.2167C35.5987 44.2167 44.2188 35.5963 44.2188 25.0009C44.2188 20.6446 42.7207 16.3779 40.0006 12.9867Z" fill="#2B378C"/>
</svg>
