<svg width="131" height="180" viewBox="0 0 131 180" fill="none" xmlns="http://www.w3.org/2000/svg">
<path d="M25.6994 27.7719C35.4137 21.5508 47.803 24.3083 58.1251 27.2304C63.7374 28.8202 69.537 30.2879 75.409 30.54C78.5204 30.6621 81.4416 30.2534 84.4031 29.5156C84.553 29.4837 84.9627 29.367 85.3536 29.2661C85.8811 29.1201 86.0632 28.6265 85.7713 28.1594C78.3624 16.3781 65.9758 6.53686 51.6132 5.66633C51.0616 5.62917 50.1887 5.75657 49.6773 5.96624C44.4265 7.92227 39.5506 10.8683 35.3736 14.6025C33.1351 16.5798 31.1001 18.7853 29.3062 21.1606C28.4252 22.3258 27.6032 23.544 26.8347 24.7887C26.4358 25.4416 26.0555 26.1131 25.6807 26.7872C25.5281 27.0792 24.8131 28.3425 25.6994 27.7719Z" fill="#95569E"/>
<path d="M89.7742 26.644C90.0634 27.1005 90.6953 27.3128 91.1933 27.0686C94.1414 25.6699 97.6972 23.5892 99.8982 21.8747C100.388 21.5243 101.028 21.1501 100.892 20.4521C100.771 19.778 99.9437 19.0932 99.5099 18.5863C98.4657 17.3973 97.3572 16.2507 96.187 15.1838C95.1696 14.3319 92.832 12.4103 92.832 12.4103C87.94 8.69202 82.2609 5.99816 76.2711 4.54109C73.2695 3.7953 70.201 3.37596 67.1057 3.25122C65.5741 3.2008 64.0264 3.21141 62.4734 3.31492C62.053 3.34411 58.3098 3.50336 58.291 3.87227C60.2376 4.25445 62.1146 4.77464 63.9059 5.39569C74.7261 9.16178 83.7416 17.0682 89.7742 26.644Z" fill="#95569E"/>
<path d="M96.447 28.6692C95.7803 29.0806 95.1082 29.4681 94.4335 29.8529C94.0158 30.0971 93.5686 30.3121 93.1349 30.543C92.6475 30.7898 92.4842 31.4453 92.7252 31.9416C93.3196 33.1466 93.8685 34.394 94.396 35.6493L94.471 35.8484H94.4737C96.9879 42.1942 98.4874 48.8744 98.6694 55.7033C98.6748 56.2421 99.0738 56.4756 99.553 56.2208C102.199 54.8195 104.785 53.2881 107.227 51.5869C107.763 51.2153 108.285 50.8384 108.767 50.4271C109.364 49.944 110.095 49.469 110.446 48.7683C110.818 48.0888 110.697 47.2661 110.67 46.5097C110.63 45.5436 110.574 44.5855 110.467 43.6141C109.886 37.7036 108.111 31.9868 105.23 26.7795C104.806 26.0045 104.402 25.057 103.821 24.3962C103.302 23.8043 102.841 24.29 102.399 24.6563C101.749 25.1897 101.05 25.6622 100.37 26.1399C99.0952 27.029 97.7778 27.8836 96.447 28.6692Z" fill="#95569E"/>
<path d="M93.6015 63.4952C91.9039 64.4932 90.2089 65.4592 88.589 66.5739C86.4094 68.0682 84.337 69.7083 82.3288 71.3937C76.7487 76.0701 71.7255 81.349 65.2591 84.9028C60.5037 87.5011 55.1538 89.2209 49.6862 89.1147C49.1426 89.1147 48.5964 89.0882 48.0635 89.0298C47.9993 89.0324 46.797 88.9342 48.8722 89.7384C50.6207 90.4179 52.3772 91.0017 54.1819 91.4689C57.7672 92.3845 61.481 92.8835 65.1814 92.9286C70.0279 92.9817 74.8663 92.2704 79.4745 90.8027C79.9993 90.6434 80.7838 90.2241 81.2015 89.8764C89.0442 83.5572 93.2721 73.8062 94.3619 63.9756C94.4235 63.4368 94.0807 63.2272 93.6015 63.4952Z" fill="#95569E"/>
<path d="M103.21 73.095C105.162 70.1066 106.635 66.8368 107.915 63.5192C108.616 61.7437 109.155 59.8912 109.588 58.036C109.787 57.1442 109.969 56.2365 110.111 55.3342C110.167 54.9493 110.606 53.1048 109.679 53.8612C106.919 56.1463 102.605 58.7552 99.3948 60.5547C98.9155 60.8254 98.4817 61.4783 98.4308 62.017C97.5793 70.8232 94.3984 79.5205 88.6389 86.3493C88.2881 86.7634 88.3791 86.8801 88.8477 86.5935C94.5001 83.2149 99.6304 78.5916 103.21 73.095Z" fill="#95569E"/>
<path d="M1.83424 56.9691C2.03506 57.8422 2.69643 58.3306 3.47561 58.673C5.67659 59.6443 8.27119 59.8513 10.6382 60.069C13.6076 60.3317 16.6012 60.4114 19.584 60.3423C19.8571 60.3397 20.1303 60.3238 20.3927 60.3264C35.6737 59.8328 50.8021 57.4654 65.5021 53.3197C70.1692 52.006 74.8068 50.5569 79.3694 48.8769C81.6507 48.0435 83.9186 47.1544 86.1544 46.2016C87.2683 45.7371 88.3635 45.2568 89.4452 44.7631C90.1574 44.4367 90.9339 44.15 91.6462 43.7811C92.1389 43.5422 92.3906 42.8575 92.2326 42.3373C91.3276 39.3488 90.1762 36.4188 88.7999 33.6055C88.5589 33.1118 87.9484 32.8836 87.4263 33.0694C84.7005 34.0567 81.7819 34.76 78.9223 35.0944C74.9433 35.5509 70.9136 35.2351 66.9909 34.5795C58.9501 33.2445 51.1904 30.5799 42.9755 30.3622C38.1853 30.2295 33.1755 30.8002 28.8994 33.08C26.8189 34.1973 24.9794 35.7208 23.5629 37.6104C22.018 39.6912 21.1397 42.0241 20.5614 44.5163C20.1249 47.2977 20.24 50.1614 20.5453 52.9455C20.6685 54.1372 20.8398 55.0502 22.1947 55.2068C23.1185 55.3262 24.0503 55.3766 24.966 55.4271C27.1509 55.5332 29.3385 55.573 31.5208 55.5757C32.4633 55.5863 33.4085 55.589 34.3537 55.581C34.7365 55.581 35.1328 55.5757 35.5398 55.5783C35.6684 55.5704 36.3993 55.727 34.2599 56.0534C33.3174 56.202 32.3883 56.3188 31.4351 56.4197C29.617 56.624 27.7962 56.7727 25.9781 56.8788C22.3045 57.0911 18.6121 57.2265 14.9411 57.1893C13.123 57.1655 11.3076 57.1044 9.50824 56.9054C8.68354 56.8231 7.86151 56.6904 7.0743 56.4674C6.52807 56.3082 5.62572 56.0985 5.37938 55.5014C4.95364 54.4689 7.06359 53.3941 7.74905 53.0251C8.48004 52.6323 9.23244 52.2926 10.0036 52.0086C10.7158 51.7485 10.7239 51.4035 10.3892 51.4407C10.1241 51.4778 9.58053 51.6158 9.31545 51.6636C8.5443 51.8547 7.78119 52.0803 7.03681 52.3457C5.79173 52.7942 4.55468 53.3197 3.47561 54.0974C2.58665 54.7582 1.56381 55.7615 1.83424 56.9691Z" fill="#95569E"/>
<path d="M92.6424 47.9534C85.2737 51.401 77.8193 54.6443 70.0864 57.2558C58.1175 61.2847 45.7015 63.9547 33.1757 65.5604C28.9504 66.0938 24.7493 66.484 20.5214 66.7759C18.5881 66.9086 16.6469 67.0493 14.7056 67.1395C13.731 67.1952 12.7456 67.2165 11.7629 67.2377C10.8499 67.2483 9.94217 67.2589 9.03982 67.251C8.61943 67.251 8.20976 67.2457 7.80009 67.251C7.24047 67.2589 7.30741 67.4739 7.75992 67.5695C8.839 67.7977 10.6089 68.0207 11.2087 68.1056C13.5917 68.4957 15.9882 68.8009 18.3846 69.0345C19.8466 69.1911 21.3112 69.3211 22.7759 69.4061C24.0879 69.4963 25.1188 69.422 25.7561 70.7092C26.139 71.4868 26.5781 72.23 27.0922 72.9386C27.3171 73.2518 28.0186 73.8649 27.8981 74.3134C27.7589 74.7991 26.5808 74.6664 26.2086 74.6823C24.9903 74.6876 23.7639 74.6797 22.5376 74.6584C21.9003 74.6372 21.2497 74.6213 20.6017 74.5974C19.785 74.5708 19.785 74.7752 20.5883 74.9106C23.0062 75.3166 28.0106 75.9377 30.4793 76.1261C31.9708 76.1659 33.4622 76.1898 34.9616 76.1659C35.7006 76.1633 36.4504 76.158 37.1894 76.1447C37.6178 76.1288 38.0221 76.1182 38.4372 76.1102C38.488 76.1128 40.4346 76.4446 33.331 77.0232C32.9963 77.0497 31.1086 77.0311 31.4004 77.692C31.537 78.0184 33.015 79.1013 33.4059 79.3932C36.2281 81.4209 39.4948 82.7692 42.898 83.4619C49.6831 84.8367 56.6502 83.4699 62.7738 80.4204C70.3836 76.6251 76.2743 70.3084 83.1102 65.3693C84.9577 64.0369 86.891 62.8187 88.8536 61.6483C89.8336 61.0617 90.8431 60.4938 91.8418 59.9417C92.3211 59.687 92.8031 59.4242 93.2743 59.1668C93.4966 59.0473 93.7643 58.9491 94.008 58.8297C94.4096 58.6227 94.6694 57.9379 94.6587 57.3939C94.5944 54.416 94.2865 51.4382 93.7349 48.5028C93.6278 47.9614 93.1458 47.7199 92.6424 47.9534Z" fill="#95569E"/>
<path d="M119.555 0C119.311 0 119.065 0.345026 118.893 1.03242C117.967 4.21993 117.305 5.69823 116.518 6.83151C115.731 7.96213 114.818 8.75039 112.491 10.2632C112.068 10.51 112.068 10.9373 112.491 11.1841C114.738 12.6439 115.694 13.5064 116.481 14.5707C117.319 15.7146 117.935 17.1133 118.893 20.4149C119.065 21.105 119.308 21.45 119.552 21.45C119.796 21.45 120.037 21.1103 120.205 20.4361C121.167 17.1611 121.798 15.7995 122.653 14.6503C123.434 13.5914 124.374 12.689 126.61 11.1974C127.03 10.9426 127.028 10.5047 126.61 10.2499C124.315 8.72119 123.397 7.85597 122.612 6.75189C121.796 5.61065 121.142 4.21197 120.205 1.01385C120.037 0.339717 119.798 0 119.555 0ZM119.563 5.07453C120.023 6.2025 120.492 7.06241 121.051 7.84801C121.788 8.88043 122.631 9.72177 123.978 10.7276C122.698 11.6884 121.855 12.5271 121.11 13.5277C120.524 14.3186 120.045 15.1838 119.565 16.3516C119.083 15.1201 118.609 14.2496 118.023 13.4534C117.308 12.482 116.489 11.6831 115.187 10.7276C116.601 9.7085 117.378 8.93086 118.09 7.90905C118.631 7.13142 119.099 6.24497 119.563 5.07453Z" fill="#95569E"/>
<path d="M7.40666 21.8721C7.22994 21.8721 7.05322 22.1189 6.93005 22.6125C6.26065 24.9056 5.78671 25.9726 5.22174 26.7847C4.65409 27.5968 3.99808 28.1648 2.32458 29.253C2.02201 29.4308 2.02201 29.736 2.32458 29.9138C3.93917 30.9648 4.62731 31.5832 5.19229 32.3476C5.79742 33.173 6.23655 34.1789 6.93005 36.5516C7.05054 37.0479 7.22726 37.2974 7.40398 37.2974C7.57802 37.2974 7.75207 37.0532 7.87524 36.5675C8.56338 34.2134 9.01857 33.2314 9.63174 32.406C10.194 31.6443 10.8688 30.9993 12.478 29.9244C12.7833 29.7413 12.7806 29.4255 12.478 29.2424C10.8286 28.1436 10.1673 27.5199 9.60229 26.729C9.01589 25.9062 8.54731 24.9003 7.87524 22.5993C7.75207 22.1136 7.5807 21.8721 7.40666 21.8721ZM7.41469 26.2725C7.66906 26.8086 7.93682 27.2624 8.23939 27.6844C8.72939 28.3718 9.2783 28.9451 10.1003 29.5874C9.32114 30.2005 8.77223 30.7631 8.28491 31.4266C7.9636 31.8592 7.68245 32.3184 7.42005 32.8784C7.14961 32.2865 6.87114 31.8141 6.54179 31.3709C6.07054 30.7313 5.54305 30.1925 4.76119 29.59C5.60999 28.9451 6.12141 28.4143 6.59802 27.7242C6.89524 27.3022 7.15764 26.8325 7.41469 26.2725Z" fill="#95569E"/>
<path d="M38.5446 92.5652C38.4321 92.5652 38.3197 92.7244 38.242 93.0429C37.8136 94.5106 37.5084 95.1927 37.1469 95.7102C36.7854 96.2331 36.365 96.5914 35.294 97.2867C35.1012 97.4035 35.1012 97.5999 35.294 97.714C36.3276 98.3855 36.7667 98.781 37.1308 99.2667C37.5164 99.7948 37.7976 100.44 38.242 101.958C38.3197 102.274 38.4321 102.433 38.5419 102.433C38.6544 102.433 38.7668 102.276 38.8445 101.966C39.2836 100.464 39.5755 99.8373 39.9691 99.3065C40.3279 98.8181 40.7617 98.4041 41.7872 97.7167C41.9853 97.6026 41.9826 97.4009 41.7872 97.2814C40.7349 96.5808 40.3118 96.1773 39.9503 95.6731C39.5755 95.1502 39.2756 94.5053 38.8445 93.0323C38.7668 92.7244 38.6544 92.5652 38.5446 92.5652Z" fill="#95569E"/>
<path d="M63.4789 174.119V159.413C63.4307 159.588 63.3798 159.763 63.3236 159.943C61.784 164.949 60.2497 169.952 58.7047 174.957C56.4797 175.345 54.2653 175.727 52.0402 176.122V155.649C51.8126 153.791 51.5877 151.949 51.3574 150.091C51.3574 150.091 55.8772 149.306 58.0461 148.924V163.587C58.0996 163.415 58.1532 163.234 58.2094 163.062C59.7383 158.072 61.2752 153.075 62.8068 148.09C65.0694 147.692 67.3453 147.297 69.6079 146.899V173.041C67.5729 173.397 65.5273 173.752 63.4789 174.119Z" fill="#202A25"/>
<path d="M95.3682 157.876C94.8943 154.657 94.415 151.419 93.9437 148.194C93.7242 148.226 93.5126 148.268 93.3065 148.3C92.8191 151.7 92.3372 155.094 91.8499 158.476C93.0173 158.277 94.1928 158.078 95.3682 157.876ZM96.1581 163.134C94.4712 163.431 92.7602 163.728 91.06 164.025C90.7949 165.822 90.5512 167.627 90.2968 169.413C88.3476 169.763 86.3929 170.09 84.4463 170.44C85.927 161.472 87.4211 152.494 88.9018 143.526C92.0882 142.968 95.2558 142.421 98.4234 141.869C99.88 150.336 101.342 158.792 102.809 167.258C100.849 167.598 98.8893 167.937 96.9105 168.269C96.6561 166.56 96.4045 164.848 96.1581 163.134Z" fill="#202A25"/>
<path d="M0.666992 148.069V117.322L4.18268 113.028L20.192 110.233L23.7613 113.219V124.488C20.7597 125.016 17.7608 125.542 14.7699 126.067V118.8C14.7699 118.8 9.03181 119.78 7.7894 119.976C6.18284 120.231 6.18284 120.231 8.63284 121.173C9.36918 121.457 9.70388 121.757 9.70388 122.487V142.493L14.9091 141.572V133.167C17.9348 132.633 20.9551 132.102 23.9835 131.577V143.977L20.4143 148.213L4.18268 151.055L0.666992 148.069Z" fill="#202A25"/>
<path d="M51.1774 104.787C49.3834 116.112 45.6508 140.213 45.6508 140.213L42.1325 144.404L30.6349 146.416L29.5478 139.09C29.5478 139.09 35.3582 138.085 37.7734 137.665C37.7734 137.665 38.25 134.387 38.4187 133.278C36.9192 133.541 33.0206 134.22 33.0206 134.22L29.8155 131.489C29.8155 131.489 27.1647 116.361 25.9062 109.195C28.8543 108.683 32.062 108.12 35.0288 107.605C35.9124 113.686 36.796 119.774 37.6743 125.863C38.2553 125.759 38.839 125.65 39.4201 125.552C40.2849 119.161 41.1498 112.77 42.0173 106.379C44.9841 105.862 48.1999 105.307 51.1774 104.787Z" fill="#202A25"/>
<path d="M53.0518 104.46C53.3731 107.157 53.7024 109.838 54.0318 112.526V142.323C57.0494 141.795 60.0751 141.275 63.0954 140.744V118.046H63.1008V113.789C63.1008 113.065 62.7688 112.765 62.0271 112.481C60.2224 111.786 59.7484 111.605 60.2679 111.451C62.6911 111.042 66.8119 110.331 68.1855 110.092V139.857C71.2219 139.327 74.2583 138.79 77.292 138.268V100.24C69.2592 101.634 53.0437 104.46 53.0518 104.46Z" fill="#202A25"/>
<path d="M91.8976 127.909V120.05C94.8082 119.53 99.976 118.609 99.976 118.609L99.9733 110.814C99.9733 110.814 95.0519 111.685 91.8976 112.229V108.327C91.8976 107.6 91.5629 107.298 90.8239 107.014C88.9068 106.276 88.4891 106.117 89.1719 105.96C93.1026 105.286 99.4083 104.187 102.447 103.662V95.8455C95.6302 97.0398 81.7656 99.4629 81.7656 99.4629C82.0976 102.144 82.427 104.84 82.751 107.521V137.323C89.3968 136.155 96.0479 135.009 102.712 133.846V126.025C99.1084 126.662 95.499 127.285 91.8976 127.909Z" fill="#202A25"/>
<path d="M121.475 114.275C121.475 114.275 117.755 114.939 116.376 115.172V108.075H116.382V103.818C116.382 103.094 116.05 102.794 115.311 102.51C113.49 101.809 113.024 101.629 113.562 101.477C116.43 100.984 121.475 100.116 121.475 100.116V114.275ZM127.049 91.5381C127.049 91.5381 113.187 93.9665 106.341 95.1555C106.625 97.8494 106.911 100.551 107.19 103.253V133.037C110.25 132.506 113.316 131.967 116.376 131.436V122.829C119.855 122.224 127.017 120.971 127.017 120.971L130.667 116.661V94.5212L127.049 91.5381Z" fill="#202A25"/>
<path d="M78.2372 151.347C80.5747 150.938 83.9512 150.352 85.2578 150.126C85.5925 148.085 85.9272 146.036 86.278 143.977C81.9885 144.736 73.1846 146.272 73.1846 146.256C73.4068 148.112 73.6317 149.967 73.8566 151.811V172.282C75.9157 171.934 77.9775 171.56 80.0419 171.212V154.205C80.0419 154.2 80.0419 154.197 80.0419 154.192V152.926C80.0419 152.443 79.817 152.239 79.3243 152.053C78.0364 151.557 77.7659 151.45 78.2372 151.347Z" fill="#202A25"/>
<path d="M31.4291 153.597C31.7182 155.442 31.994 157.273 32.2805 159.126L32.0342 174.089C31.4264 174.201 30.0983 174.426 29.4932 174.538C29.6619 176.356 29.8359 178.174 30.0046 180C31.8066 179.673 35.4053 179.05 35.4053 179.05L37.941 175.878L38.2462 159.994C38.2462 159.508 38.0213 159.306 37.5286 159.118C36.1818 158.6 35.9489 158.51 36.5111 158.396C36.6022 158.38 40.7578 157.653 41.3763 157.544V178.004C43.4622 177.64 45.5614 177.264 47.6473 176.9V150.763C42.1582 151.726 31.4291 153.597 31.4291 153.597Z" fill="#202A25"/>
</svg>
