<svg width="120" height="120" viewBox="0 0 120 120" fill="none" xmlns="http://www.w3.org/2000/svg">
<path d="M84.9983 44.5414C84.9485 40.2978 82.7768 37.9605 78.8831 37.9605C77.3761 37.9605 75.924 38.3113 74.9747 38.604C75.0692 36.8694 75.0706 35.7987 75.0706 35.7455L75.0707 35.0029H44.93V35.7454C44.93 35.7708 44.9326 36.8584 45.0282 38.6049C44.0789 38.312 42.6254 37.9605 41.1169 37.9605C37.2234 37.9605 35.0516 40.2977 35.0018 44.5414C34.9528 48.7162 35.9049 52.4324 37.8316 55.587C39.7232 58.6842 42.141 60.5505 43.8362 61.5705C46.5513 63.2045 49.2649 63.5475 51.0633 63.5475C51.5067 63.5475 51.9338 63.5266 52.3333 63.4854C52.3598 63.4826 52.3843 63.4795 52.4102 63.4767C53.2797 64.4131 54.2171 65.1632 55.2188 65.7206C55.9572 66.1314 56.4707 66.848 56.6467 67.6715C55.6511 67.9813 54.9262 68.9115 54.9262 70.0077C54.9262 71.1285 55.6843 72.0751 56.7143 72.3632V75.4794H52.6965V78.7314H48.7317V84.9978H71.2689V78.7314H67.304V75.4794H63.2863V72.3632C64.3164 72.075 65.0745 71.1285 65.0745 70.0077C65.0745 68.9114 64.3496 67.9813 63.3539 67.6715C63.5299 66.848 64.0434 66.1315 64.7819 65.7206C65.7811 65.1646 66.7249 64.4104 67.5923 63.4771C67.8997 63.5111 68.3605 63.5474 68.9367 63.5474C68.9369 63.5474 68.9368 63.5474 68.9371 63.5474C70.7353 63.5474 73.4488 63.2042 76.1637 61.5704C77.8588 60.5503 80.2767 58.6841 82.1683 55.5869C84.0953 52.4324 85.0473 48.7161 84.9983 44.5414ZM73.5735 36.4879C73.5668 36.7595 73.5563 37.1009 73.5401 37.5005H46.4636C46.4468 37.101 46.4356 36.7591 46.4284 36.4879H73.5735ZM74.5834 43.3056C75.5895 42.9707 76.8934 42.633 78.0615 42.633C79.0409 42.633 79.746 42.8723 80.1575 43.3441C80.6303 43.8865 80.7828 44.7977 80.6103 46.0525C79.8922 51.2797 77.6257 55.36 74.2281 57.5415C73.0446 58.3015 71.77 58.6154 70.7018 58.727C72.9613 53.9778 74.0548 48.0192 74.5834 43.3056ZM46.1812 48.4777C46.9116 52.3952 47.92 55.7593 49.1786 58.4764C49.2175 58.5607 49.2572 58.6439 49.2966 58.727C48.2289 58.6151 46.955 58.3013 45.772 57.5417C42.3745 55.3601 40.1079 51.2799 39.3898 46.0527C39.2174 44.7978 39.3698 43.8865 39.8427 43.3443C40.2541 42.8725 40.9594 42.6333 41.9387 42.6333C43.1078 42.6333 44.4128 42.9715 45.4193 43.3065C45.5991 44.9142 45.8449 46.6738 46.1812 48.4777ZM51.0633 62.0625C49.4532 62.0625 47.0249 61.7563 44.602 60.2982C42.124 58.807 36.3725 54.2881 36.4868 44.5589C36.5272 41.1182 38.0417 39.4456 41.1169 39.4456C42.7616 39.4456 44.3859 39.9414 45.1284 40.2029C45.1654 40.7011 45.2069 41.2007 45.2528 41.6982C44.2435 41.4018 43.0543 41.148 41.9387 41.148C40.5112 41.148 39.4294 41.5585 38.7234 42.3681C37.9559 43.2482 37.6851 44.5559 37.9185 46.2546C38.3183 49.1648 39.1539 51.7371 40.402 53.8998C41.5935 55.9645 43.1303 57.6102 44.9696 58.791C46.7661 59.9446 48.7091 60.2355 50.0952 60.2634C50.0998 60.2716 50.1046 60.2794 50.1093 60.2875C50.1853 60.4206 50.2621 60.5515 50.3396 60.6807C50.3637 60.721 50.388 60.761 50.4123 60.801C50.4863 60.9225 50.5608 61.0428 50.6361 61.1606C50.6644 61.205 50.6931 61.2482 50.7216 61.2922C50.7729 61.371 50.8245 61.4491 50.8764 61.5264C50.9266 61.6011 50.977 61.675 51.0277 61.7481C51.0774 61.8197 51.1272 61.8909 51.1774 61.9611C51.2009 61.9941 51.2241 62.0284 51.2476 62.061C51.1878 62.062 51.1264 62.0625 51.0633 62.0625ZM69.784 80.2166V83.5128H50.2168V80.2166H52.6966H67.3041H69.784ZM63.2865 76.9646H65.8191V78.7315H54.1817V76.9646H56.7144H63.2865ZM58.1994 75.4795V72.4539H61.8014V75.4795H58.1994ZM63.5896 70.0077C63.5896 70.5377 63.1583 70.9688 62.6285 70.9688H57.3724C56.8424 70.9688 56.4113 70.5377 56.4113 70.0077C56.4113 69.4777 56.8424 69.0466 57.3724 69.0466H62.6285C63.1584 69.0466 63.5896 69.4777 63.5896 70.0077ZM67.3038 61.519C67.2956 61.5297 67.2874 61.5403 67.2792 61.551C67.2062 61.6455 67.1326 61.7377 67.0585 61.8286C67.0404 61.8508 67.0225 61.8733 67.0042 61.8954C66.9229 61.9942 66.8409 62.0909 66.7584 62.1853C66.7544 62.1897 66.7507 62.1944 66.7467 62.1989C65.9187 63.1436 65.0148 63.8917 64.06 64.423C62.8831 65.0776 62.083 66.2404 61.8628 67.5615H58.138C57.9178 66.2403 57.1176 65.0776 55.9408 64.423C55.0193 63.9104 54.1871 63.2251 53.4352 62.4062L53.2536 62.199C52.5153 61.357 51.8194 60.3369 51.1853 59.1673L50.9911 58.8088C47.798 52.6392 46.8322 43.7221 46.541 38.9854H73.4653C73.4529 39.1915 73.4393 39.4043 73.4243 39.6253C73.4236 39.6355 73.4228 39.6461 73.4221 39.6563C73.4057 39.8958 73.3881 40.1359 73.3695 40.3763C73.369 40.3833 73.3684 40.3903 73.3679 40.3975C73.3085 41.1592 73.2382 41.9237 73.1581 42.6792L73.1095 43.136C72.57 47.9728 71.4304 54.1346 69.0274 58.776L68.8152 59.1672C68.343 60.0379 67.8366 60.8256 67.3038 61.519ZM75.3982 60.2982C72.975 61.7564 70.5473 62.0625 68.9372 62.0625C68.9371 62.0625 68.937 62.0625 68.9369 62.0625C68.8737 62.0625 68.8122 62.062 68.7524 62.061C68.7534 62.0597 68.7543 62.0582 68.7553 62.0568C68.8517 61.9238 68.9466 61.7889 69.0401 61.6521C69.0515 61.6354 69.0627 61.6183 69.0742 61.6016C69.1532 61.4852 69.231 61.3672 69.3079 61.248C69.3278 61.2175 69.3476 61.1868 69.3672 61.1561C69.4524 61.0224 69.5367 60.8878 69.6193 60.7509C69.6323 60.7295 69.6449 60.7075 69.6578 60.6859C69.7254 60.5729 69.7923 60.4587 69.8583 60.3435C69.8738 60.3165 69.8897 60.2907 69.9052 60.2636C71.2913 60.2357 73.2343 59.9448 75.0308 58.7912C76.8701 57.6102 78.4069 55.9645 79.5984 53.9C80.8464 51.7373 81.682 49.165 82.0819 46.2548C82.3151 44.556 82.0444 43.2483 81.277 42.3683C80.571 41.5586 79.4892 41.1481 78.0617 41.1481C76.9461 41.1481 75.7568 41.4017 74.7476 41.6982C74.7944 41.1909 74.8345 40.7043 74.8689 40.2418C74.8699 40.2289 74.8709 40.2159 74.8719 40.2031C75.6146 39.9415 77.2388 39.4458 78.8833 39.4458C81.9585 39.4458 83.4731 41.1184 83.5136 44.5589C83.6275 54.2881 77.8762 58.8069 75.3982 60.2982Z" fill="white"/>
<path d="M60.1443 47.9078H61.4038L62.2567 44.6267L62.0513 44.1858C60.9364 44.8924 59.9615 45.8034 59.1807 46.863L59.4764 48.4167L60.1443 47.9078Z" fill="white"/>
<path d="M61.8733 43.8026L61.1432 42.2346C61.1182 42.1877 61.0829 42.1556 61.0458 42.1463C60.9993 42.1346 60.9486 42.1595 60.914 42.183L58.6074 43.8486L59.0759 46.3104C59.8568 45.3241 60.8037 44.4731 61.8733 43.8026Z" fill="white"/>
<path d="M60.6334 50.2783L61.1087 48.3269H60.2853L59.5635 48.8768L59.8036 50.1388L60.6334 50.2783Z" fill="white"/>
<path d="M61.3274 52.4954L60.7525 50.7232L59.7811 50.5598L59.6436 52.0305C60.1889 52.2364 60.7519 52.3918 61.3274 52.4954Z" fill="white"/>
<path d="M58.8392 48.9019L59.476 48.4168L59.1803 46.863C58.9521 47.1725 58.7405 47.4947 58.5469 47.8282L58.8392 48.9019Z" fill="white"/>
<path d="M58.395 47.27C58.6047 46.9378 58.832 46.6177 59.0753 46.3104L58.6067 43.8486L57.6514 44.5385L58.395 47.27Z" fill="white"/>
<path d="M59.2983 50.0536L59.804 50.1387L59.5638 48.8767L59.1143 49.2193L59.2983 50.0536Z" fill="white"/>
<path d="M58.9209 51.7234C59.158 51.8359 59.3991 51.9383 59.6437 52.0306L59.7812 50.5598L59.275 50.4746L58.9209 51.7234Z" fill="white"/>
<path d="M60.5093 53.3445C60.8721 53.3445 61.2264 53.3079 61.5689 53.239L61.6498 53.4882L61.4734 52.9448C60.834 52.8444 60.2086 52.6828 59.6034 52.4622L59.5293 53.2546C59.847 53.3135 60.1744 53.3445 60.5093 53.3445Z" fill="white"/>
<path d="M61.6492 53.488C61.6168 53.4977 61.5844 53.5073 61.5518 53.5165C61.5844 53.5073 61.6168 53.4977 61.6492 53.488Z" fill="white"/>
<path d="M61.5686 53.239C61.2261 53.308 60.8718 53.3445 60.509 53.3445C60.1741 53.3445 59.8467 53.3135 59.529 53.2546L59.6031 52.4621C59.3328 52.3637 59.0666 52.2534 58.8049 52.1316L58.5645 52.9795L58.415 53.5068C58.4677 53.522 58.5206 53.5362 58.5738 53.5499C58.5846 53.5526 58.5955 53.5553 58.6062 53.558C58.6522 53.5696 58.6984 53.5804 58.7447 53.591C58.7494 53.592 58.7542 53.5933 58.7592 53.5943C58.7673 53.5962 58.7756 53.598 58.7839 53.5997C58.7968 53.6025 58.8096 53.6053 58.8225 53.608C58.839 53.6115 58.8555 53.6149 58.8721 53.6183C58.8825 53.6203 58.8929 53.6223 58.9033 53.6243C58.9231 53.6281 58.9427 53.632 58.9625 53.6356C58.966 53.6362 58.9695 53.637 58.973 53.6376C58.9786 53.6387 58.9842 53.6397 58.9899 53.6408C59.0027 53.643 59.0156 53.645 59.0284 53.6472C59.0549 53.6516 59.0813 53.6562 59.1078 53.6603C59.1125 53.6611 59.1172 53.6619 59.1219 53.6626C59.1271 53.6635 59.1323 53.6642 59.1375 53.665C59.1457 53.6663 59.1539 53.6673 59.1621 53.6685C59.1884 53.6723 59.2149 53.6762 59.2415 53.6797C59.2452 53.6802 59.2491 53.6808 59.2529 53.6812C59.3303 53.6913 59.4082 53.7003 59.4867 53.7073V53.7067C59.6562 53.7219 59.8279 53.7297 60.0014 53.7297C60.2252 53.7297 60.4459 53.7169 60.6631 53.692C60.6663 53.6915 60.6696 53.6912 60.6728 53.6908C60.7199 53.6852 60.7668 53.6791 60.8136 53.6725C60.8177 53.6719 60.8217 53.6713 60.8258 53.6708C60.8292 53.6702 60.8327 53.6699 60.8361 53.6693C60.8796 53.663 60.9228 53.656 60.9659 53.6486C60.9858 53.6452 61.0056 53.6417 61.0254 53.6381C61.0482 53.634 61.071 53.6297 61.0938 53.6252H61.094C61.1421 53.6159 61.1901 53.6059 61.2379 53.5954C61.244 53.594 61.25 53.5927 61.2561 53.5914C61.2562 53.5914 61.2564 53.5913 61.2565 53.5913C61.356 53.569 61.4546 53.5441 61.5521 53.5166C61.5846 53.5075 61.6171 53.4979 61.6495 53.4882L61.5686 53.239Z" fill="white"/>
<path d="M56.4467 44.5279C57.1923 43.6563 58.2136 43.0279 59.3754 42.7769L60.0748 42.2718C60.0503 42.2715 60.0259 42.2708 60.0014 42.2708C59.7052 42.2708 59.4142 42.2932 59.1302 42.3366C59.1271 42.337 59.1241 42.3375 59.121 42.338C59.0786 42.3445 59.0364 42.3515 58.9943 42.359C58.9801 42.3616 58.9662 42.3643 58.9522 42.3669C58.9214 42.3726 58.8908 42.3783 58.8603 42.3845C58.8367 42.3893 58.8132 42.3945 58.7898 42.3995C58.7692 42.4039 58.7486 42.4083 58.7282 42.4129C58.6962 42.4202 58.6644 42.4279 58.6328 42.4356C58.6212 42.4385 58.6095 42.4412 58.5979 42.4442C58.5585 42.4541 58.5191 42.4645 58.4799 42.4754C58.4765 42.4763 58.4732 42.4771 58.4696 42.4781C57.5412 42.736 56.707 43.2223 56.0312 43.8723C56.1504 44.103 56.2899 44.3221 56.4467 44.5279Z" fill="white"/>
<path d="M55.1643 48.0002C55.1643 46.8297 55.541 45.7472 56.1791 44.8668C56.0098 44.6544 55.8575 44.428 55.7252 44.1897C55.141 44.8446 54.7047 45.6342 54.4689 46.5052C54.4644 46.5217 54.4599 46.5381 54.4555 46.5545C54.4506 46.5735 54.4461 46.5924 54.4413 46.6114C54.4344 46.6392 54.4275 46.6668 54.421 46.6946C54.4181 46.7069 54.4154 46.7192 54.4127 46.7315C54.4047 46.7666 54.3969 46.8018 54.3896 46.8374C54.3882 46.8443 54.3868 46.8513 54.3854 46.8583C54.377 46.8998 54.369 46.9413 54.3615 46.9832C54.3611 46.9852 54.3608 46.9873 54.3605 46.9893C54.302 47.3174 54.2715 47.6552 54.2715 48.0002C54.2715 48.2924 54.2935 48.5797 54.3357 48.8602C54.6186 48.7505 54.9045 48.6495 55.1931 48.5567C55.1742 48.3737 55.1643 48.1881 55.1643 48.0002Z" fill="white"/>
<path d="M56.2458 51.2236C55.7543 50.5747 55.4077 49.8101 55.2539 48.9778C54.9716 49.0702 54.6918 49.1704 54.415 49.2793C54.4155 49.2816 54.416 49.2838 54.4164 49.2861C54.4299 49.3445 54.4443 49.4026 54.4595 49.4602C54.4617 49.4685 54.464 49.4768 54.4663 49.4851C54.4811 49.5404 54.4965 49.5954 54.513 49.65C54.5141 49.6534 54.515 49.6568 54.5161 49.6603C54.7788 50.5267 55.2416 51.3071 55.8506 51.9473C55.9608 51.6925 56.0934 51.4506 56.2458 51.2236Z" fill="white"/>
<path d="M58.0163 53.3757L58.1767 52.81C57.5474 52.5044 56.9873 52.0788 56.5257 51.563C56.3881 51.7823 56.27 52.016 56.1748 52.2617C56.7081 52.7411 57.3316 53.1221 58.0163 53.3757Z" fill="white"/>
<path d="M63.9498 43.9114C63.957 43.8979 63.9645 43.8844 63.9716 43.8708C63.9654 43.8648 63.9592 43.8587 63.9531 43.8529C63.926 43.8271 63.8988 43.8017 63.8712 43.7765C63.8615 43.7675 63.8518 43.7586 63.842 43.7497C63.8062 43.7175 63.7701 43.6855 63.7335 43.6541C63.7315 43.6525 63.7295 43.6507 63.7275 43.6489C63.1907 43.1897 62.5721 42.8312 61.9074 42.5958C61.8936 42.5909 61.8796 42.5863 61.8658 42.5815C61.8308 42.5695 61.7959 42.5576 61.7608 42.5462C61.7566 42.5448 61.7524 42.5436 61.748 42.5422L61.8844 42.835C62.6552 43.0399 63.3574 43.4124 63.9498 43.9114Z" fill="white"/>
<path d="M63.8265 52.262C63.8193 52.2436 63.8116 52.2254 63.8041 52.207C63.2679 52.6277 62.6494 52.948 61.9766 53.1399L62.0457 53.3528C62.7065 53.0994 63.3089 52.7271 63.8265 52.262Z" fill="white"/>
<path d="M56.4463 44.5278C56.7365 44.9088 57.0866 45.2431 57.4827 45.5146L57.1707 44.3685L59.375 42.7769C58.2132 43.0278 57.1919 43.6563 56.4463 44.5278Z" fill="white"/>
<path d="M62.7002 44.5864L62.4462 45.5636C63.0765 45.1498 63.5968 44.5792 63.9502 43.9116C63.3578 43.4126 62.6555 43.0399 61.8848 42.8352L62.7002 44.5864Z" fill="white"/>
<path d="M58.1764 52.8099L58.9078 50.2304L58.8167 49.8176C57.8554 50.1066 57.0471 50.7314 56.5254 51.5631C56.987 52.0788 57.5471 52.5043 58.1764 52.8099Z" fill="white"/>
<path d="M58.5572 49.4607L58.2477 48.324C57.2279 48.4408 56.2255 48.66 55.2539 48.9777C55.4078 49.81 55.7544 50.5746 56.2458 51.2235C56.7955 50.4047 57.6036 49.7811 58.5572 49.4607Z" fill="white"/>
<path d="M55.1938 48.5568C56.15 48.2489 57.1351 48.0337 58.1369 47.9149L57.6444 46.106C57.0784 45.7934 56.5804 45.3695 56.1798 44.8669C55.5417 45.7473 55.165 46.8298 55.165 48.0003C55.165 48.1883 55.1749 48.3739 55.1938 48.5568Z" fill="white"/>
<path d="M61.1774 49.8157L61.0576 50.3072L61.9765 53.1398C62.6493 52.948 63.2679 52.6276 63.8041 52.2069C63.3384 51.0616 62.3616 50.1708 61.1774 49.8157Z" fill="white"/>
<path d="M61.5469 48.3018L61.2773 49.4081C61.9424 49.6036 62.5591 49.9528 63.0714 50.4264C63.5266 50.8474 63.8903 51.3586 64.1394 51.9217C64.1432 51.9303 64.1473 51.9389 64.1511 51.9477C64.2482 51.8455 64.3413 51.7393 64.4309 51.6302C64.9836 50.957 65.3865 50.1565 65.5872 49.2794C64.2931 48.7699 62.9356 48.4415 61.5469 48.3018Z" fill="white"/>
<path d="M54.5136 49.65C54.4972 49.5954 54.4816 49.5404 54.4668 49.4851C54.4815 49.5404 54.4972 49.5954 54.5136 49.65Z" fill="#2B378C"/>
<path d="M54.46 49.46C54.4448 49.4023 54.4304 49.3442 54.417 49.2859C54.4304 49.3444 54.4449 49.4022 54.46 49.46Z" fill="#2B378C"/>
<path d="M59.1377 53.6649C59.1325 53.6642 59.1272 53.6634 59.1221 53.6626C59.1272 53.6634 59.1325 53.6642 59.1377 53.6649Z" fill="#2B378C"/>
<path d="M60.836 53.6692C60.8286 53.6702 60.821 53.6713 60.8135 53.6723C60.821 53.6713 60.8286 53.6702 60.836 53.6692Z" fill="#2B378C"/>
<path d="M61.0253 53.6382C61.0056 53.6418 60.9857 53.6453 60.9658 53.6487C60.9857 53.6453 61.0056 53.6418 61.0253 53.6382Z" fill="#2B378C"/>
<path d="M60.6728 53.6907C60.6695 53.691 60.6664 53.6914 60.6631 53.6918C60.6664 53.6914 60.6695 53.691 60.6728 53.6907Z" fill="#2B378C"/>
<path d="M61.2378 53.5955C61.19 53.606 61.142 53.6159 61.0938 53.6253C61.142 53.6159 61.19 53.606 61.2378 53.5955Z" fill="#2B378C"/>
<path d="M58.9895 53.6406C58.9839 53.6396 58.9783 53.6385 58.9727 53.6375C58.9783 53.6385 58.9839 53.6397 58.9895 53.6406Z" fill="#2B378C"/>
<path d="M58.8721 53.6182C58.8539 53.6145 58.8356 53.6108 58.8174 53.6069C58.8356 53.6108 58.8539 53.6147 58.8721 53.6182Z" fill="#2B378C"/>
<path d="M59.1211 42.3381C59.1241 42.3376 59.1272 42.3371 59.1302 42.3367C59.1272 42.3371 59.1241 42.3376 59.1211 42.3381Z" fill="#2B378C"/>
<path d="M58.9521 42.367C58.9662 42.3644 58.9801 42.3617 58.9942 42.3591C58.9801 42.3616 58.9662 42.3644 58.9521 42.367Z" fill="#2B378C"/>
<path d="M61.7607 42.5464C61.7958 42.5577 61.8308 42.5697 61.8657 42.5817C61.8308 42.5698 61.7959 42.5577 61.7607 42.5464Z" fill="#2B378C"/>
<path d="M63.8711 43.7766C63.8987 43.8018 63.9259 43.8272 63.9529 43.853C63.9259 43.8272 63.8986 43.8018 63.8711 43.7766Z" fill="#2B378C"/>
<path d="M63.7334 43.6543C63.77 43.6858 63.8061 43.7177 63.8419 43.7499C63.8061 43.7177 63.77 43.6858 63.7334 43.6543Z" fill="#2B378C"/>
<path d="M58.79 42.3995C58.8135 42.3945 58.837 42.3893 58.8607 42.3845C58.837 42.3893 58.8135 42.3945 58.79 42.3995Z" fill="#2B378C"/>
<path d="M58.6328 42.4355C58.6645 42.4278 58.6963 42.4201 58.7282 42.4128C58.6963 42.4201 58.6645 42.4278 58.6328 42.4355Z" fill="#2B378C"/>
<path d="M58.4795 42.4752C58.5187 42.4644 58.5581 42.454 58.5975 42.4441C58.5581 42.454 58.5188 42.4646 58.4795 42.4752Z" fill="#2B378C"/>
<path d="M65.7258 48.2461C65.7254 48.2546 65.7251 48.2632 65.7246 48.2717C65.7251 48.2632 65.7254 48.2546 65.7258 48.2461Z" fill="#2B378C"/>
<path d="M65.7004 48.5872C65.6984 48.6066 65.6966 48.6259 65.6943 48.6452C65.6966 48.6259 65.6984 48.6066 65.7004 48.5872Z" fill="#2B378C"/>
<path d="M65.7111 48.4773C65.7098 48.4931 65.7086 48.5089 65.707 48.5245C65.7086 48.5089 65.7098 48.4931 65.7111 48.4773Z" fill="#2B378C"/>
<path d="M65.7193 48.3628C65.7186 48.3754 65.7176 48.3881 65.7168 48.4007C65.7176 48.3881 65.7186 48.3754 65.7193 48.3628Z" fill="#2B378C"/>
<path d="M62.0851 46.953L61.8359 47.9114C63.1505 48.0649 64.436 48.3828 65.6666 48.8601C65.6757 48.7993 65.6839 48.738 65.6911 48.6765C65.6923 48.666 65.6937 48.6555 65.6949 48.6449C65.6971 48.6256 65.699 48.6062 65.701 48.5869C65.7031 48.5661 65.7052 48.5453 65.7072 48.5244C65.7086 48.5087 65.7098 48.4929 65.7111 48.4771C65.7132 48.4516 65.7152 48.4263 65.717 48.4007C65.7178 48.388 65.7187 48.3754 65.7194 48.3628C65.7213 48.3324 65.7231 48.3021 65.7245 48.2717C65.7249 48.263 65.7253 48.2545 65.7256 48.246C65.7274 48.207 65.7287 48.1681 65.7295 48.1289C65.7295 48.1285 65.7296 48.128 65.7296 48.1275C65.7304 48.0851 65.7311 48.0428 65.7311 48.0002C65.7311 47.1732 65.5597 46.3774 65.2288 45.6458C64.3549 46.3623 63.2719 46.8333 62.0851 46.953Z" fill="white"/>
<path d="M64.4733 44.418C64.4102 44.3391 64.3448 44.2623 64.2777 44.1873C64.2776 44.1874 64.2775 44.1876 64.2773 44.1878C64.2745 44.1928 64.2716 44.1975 64.2688 44.2026C63.8124 45.02 63.1247 45.6974 62.2964 46.1393L62.085 46.953C63.2718 46.8333 64.3547 46.3623 65.2287 45.6458C65.0323 45.2117 64.7798 44.8 64.4733 44.418Z" fill="white"/>
<path fill-rule="evenodd" clip-rule="evenodd" d="M60 53.8173C56.7872 53.8173 54.1827 51.2128 54.1827 48C54.1827 44.7871 56.7872 42.1826 60 42.1826C63.2129 42.1826 65.8174 44.7871 65.8174 48C65.8174 51.2128 63.2129 53.8173 60 53.8173ZM60 40C55.5818 40 52 43.5816 52 48C52 52.4182 55.5818 56 60 56C64.4184 56 68 52.4182 68 48C68 43.5816 64.4184 40 60 40Z" fill="white"/>
<path d="M64.1504 51.9476C63.901 51.3743 63.5328 50.8539 63.0707 50.4265C62.5584 49.9528 61.9417 49.6037 61.2767 49.4082L61.5461 48.3018C62.9349 48.4416 64.2924 48.77 65.5865 49.2795C65.3533 50.2986 64.8476 51.2151 64.1504 51.9476ZM58.4146 53.5069L58.8045 52.1317C59.6522 52.5265 60.5477 52.7995 61.4727 52.9449L61.6491 53.4882C61.1268 53.6455 60.5735 53.7304 60.0006 53.7304C59.4506 53.7304 58.9185 53.6522 58.4146 53.5069ZM54.4147 49.2793C55.6438 48.7954 56.9312 48.4748 58.2475 48.324L58.5571 49.4608C57.339 49.8699 56.3585 50.7737 55.8504 51.9471C55.1534 51.2146 54.648 50.2984 54.4147 49.2793ZM55.7252 44.1899C56.17 44.9919 56.8383 45.6613 57.6436 46.1061L58.1361 47.9149C56.832 48.0695 55.5561 48.3871 54.3352 48.8605C54.2927 48.5799 54.2706 48.2927 54.2706 48.0004C54.2706 46.5386 54.8211 45.2033 55.7252 44.1899ZM60.0751 42.2714L57.1706 44.3686L57.4826 45.5148C56.8726 45.0966 56.3706 44.53 56.0308 43.8724C57.0614 42.881 58.4611 42.2704 60.0006 42.2704C60.0254 42.2704 60.0503 42.2711 60.0751 42.2714ZM61.0451 42.1463C61.0821 42.1557 61.1175 42.1877 61.1424 42.2347L61.8725 43.8026C60.4696 44.682 59.2776 45.8717 58.3949 47.2701L57.6512 44.5385L60.9132 42.183C60.948 42.1595 60.9985 42.1346 61.0451 42.1463ZM61.7479 42.5421C62.5776 42.8084 63.3412 43.2654 63.9718 43.8707C63.6182 44.556 63.0891 45.1413 62.4458 45.5638L62.6998 44.5865L61.7479 42.5421ZM60.1439 47.9079L58.8392 48.9019L58.5469 47.8282C59.4033 46.353 60.6103 45.099 62.0509 44.1859L62.2563 44.6268L61.4034 47.9079H60.1439ZM60.6334 50.2784L59.298 50.0537L59.114 49.2195L60.2853 48.327H61.1087L60.6334 50.2784ZM61.0576 50.3074L61.1774 49.8158C62.3807 50.1766 63.37 51.0902 63.8265 52.2621C63.309 52.7272 62.7066 53.0995 62.0457 53.3527L61.0576 50.3074ZM59.2743 50.4747L60.752 50.7233L61.327 52.4955C60.4932 52.3455 59.686 52.0868 58.9202 51.7235L59.2743 50.4747ZM58.8169 49.8178L58.9078 50.2305L58.0161 53.3759C57.3314 53.1223 56.708 52.7413 56.1747 52.2619C56.631 51.0843 57.6021 50.1829 58.8169 49.8178ZM65.7306 48.0004C65.7306 48.2926 65.7085 48.5796 65.6661 48.8603C64.4356 48.383 63.1499 48.0649 61.8354 47.9116L62.2961 46.1395C63.1295 45.6947 63.821 45.0119 64.2773 44.1874C64.3445 44.2625 64.4098 44.3393 64.473 44.4181C65.2958 45.4438 65.7306 46.6825 65.7306 48.0004ZM64.7999 44.1558C63.964 43.1135 62.7996 42.3647 61.5126 42.0389C61.4309 41.8849 61.3017 41.7787 61.1473 41.7399C60.9917 41.7008 60.8237 41.736 60.674 41.8389L60.6141 41.8822C60.4112 41.8621 60.2053 41.8513 60.0006 41.8513C56.61 41.8513 53.8516 44.6097 53.8516 48.0004C53.8516 51.3909 56.61 54.1495 60.0006 54.1495C63.3913 54.1495 66.1497 51.3909 66.1497 48.0004C66.1497 46.6064 65.6703 45.241 64.7999 44.1558Z" fill="#2B378C"/>
<path d="M60.8564 65H59.3311V59.0273L57.8433 59.6021V58.3345L60.6953 57.1689H60.8564V65Z" fill="white"/>
<path d="M52.9772 81.6894C52.9643 81.676 52.9472 81.6674 52.9288 81.665L52.3372 81.579L52.0742 81.0417C52.0497 81.001 51.9969 80.9878 51.9562 81.0123C51.9442 81.0195 51.9341 81.0296 51.9268 81.0417L51.6628 81.577L51.0712 81.6629C51.0264 81.6688 50.9948 81.71 51.0007 81.7548C51.0031 81.7732 51.0117 81.7903 51.0252 81.8032L51.453 82.2197L51.3506 82.8082C51.3433 82.8534 51.374 82.896 51.4192 82.9033C51.4367 82.9061 51.4546 82.9033 51.4704 82.8952L52.0005 82.6189L52.5296 82.8972C52.5704 82.9182 52.6203 82.9022 52.6413 82.8614C52.6494 82.8457 52.6522 82.8277 52.6494 82.8102L52.547 82.2218L52.9749 81.8052C53.0075 81.7739 53.0085 81.722 52.9772 81.6894ZM52.4017 82.1327C52.3825 82.1517 52.3737 82.1788 52.3782 82.2054L52.458 82.6721L52.0384 82.452C52.0143 82.4395 51.9857 82.4395 51.9616 82.452L51.542 82.6721L51.6218 82.2054C51.6263 82.1788 51.6175 82.1517 51.5983 82.1327L51.2595 81.8021L51.7283 81.7346C51.7552 81.7307 51.7786 81.7139 51.7907 81.6896L51.9954 81.2648L52.2001 81.6896C52.2122 81.7139 52.2356 81.7307 52.2625 81.7346L52.7313 81.8021L52.4017 82.1327Z" fill="white"/>
<path d="M55.9772 81.6894C55.9643 81.676 55.9472 81.6674 55.9288 81.665L55.3372 81.579L55.0742 81.0417C55.0497 81.001 54.9969 80.9878 54.9562 81.0123C54.9442 81.0195 54.9341 81.0296 54.9268 81.0417L54.6628 81.577L54.0712 81.6629C54.0264 81.6688 53.9948 81.71 54.0007 81.7548C54.0031 81.7732 54.0117 81.7903 54.0252 81.8032L54.453 82.2197L54.3506 82.8082C54.3433 82.8534 54.374 82.896 54.4192 82.9033C54.4367 82.9061 54.4546 82.9033 54.4704 82.8952L55.0005 82.6189L55.5296 82.8972C55.5704 82.9182 55.6203 82.9022 55.6413 82.8614C55.6494 82.8457 55.6522 82.8277 55.6494 82.8102L55.547 82.2218L55.9749 81.8052C56.0075 81.7739 56.0085 81.722 55.9772 81.6894ZM55.4017 82.1327C55.3825 82.1517 55.3737 82.1788 55.3782 82.2054L55.458 82.6721L55.0384 82.452C55.0143 82.4395 54.9857 82.4395 54.9616 82.452L54.542 82.6721L54.6218 82.2054C54.6263 82.1788 54.6175 82.1517 54.5983 82.1327L54.2595 81.8021L54.7283 81.7346C54.7552 81.7307 54.7786 81.7139 54.7907 81.6896L54.9954 81.2648L55.2001 81.6896C55.2122 81.7139 55.2356 81.7307 55.2625 81.7346L55.7313 81.8021L55.4017 82.1327Z" fill="white"/>
<path d="M58.9772 81.6894C58.9643 81.676 58.9472 81.6674 58.9288 81.665L58.3372 81.579L58.0742 81.0417C58.0497 81.001 57.9969 80.9878 57.9562 81.0123C57.9442 81.0195 57.9341 81.0296 57.9268 81.0417L57.6628 81.577L57.0712 81.6629C57.0264 81.6688 56.9948 81.71 57.0007 81.7548C57.0031 81.7732 57.0118 81.7903 57.0252 81.8032L57.453 82.2197L57.3506 82.8082C57.3433 82.8534 57.374 82.896 57.4192 82.9033C57.4367 82.9061 57.4546 82.9033 57.4704 82.8952L58.0005 82.6189L58.5296 82.8972C58.5704 82.9182 58.6203 82.9022 58.6413 82.8614C58.6494 82.8457 58.6522 82.8277 58.6494 82.8102L58.547 82.2218L58.9749 81.8052C59.0075 81.7739 59.0085 81.722 58.9772 81.6894ZM58.4017 82.1327C58.3825 82.1517 58.3737 82.1788 58.3782 82.2054L58.458 82.6721L58.0384 82.452C58.0143 82.4395 57.9857 82.4395 57.9616 82.452L57.542 82.6721L57.6218 82.2054C57.6263 82.1788 57.6175 82.1517 57.5983 82.1327L57.2595 81.8021L57.7283 81.7346C57.7552 81.7307 57.7786 81.7139 57.7907 81.6896L57.9954 81.2648L58.2001 81.6896C58.2122 81.7139 58.2356 81.7307 58.2625 81.7346L58.7313 81.8021L58.4017 82.1327Z" fill="white"/>
</svg>
