<svg width="180" height="122" viewBox="0 0 180 122" fill="none" xmlns="http://www.w3.org/2000/svg">
<path d="M58.8364 19.5151C62.4081 24.2229 64.7743 29.5949 65.7304 35.3087C65.8032 35.729 65.8537 36.1466 65.9098 36.5669C57.8299 37.4693 49.7921 38.7751 41.8272 40.4929C45.7409 32.2038 51.6088 25.0103 58.8364 19.5151ZM89.6279 8.10419V35.0789C84.3713 35.1518 79.1174 35.3928 73.8719 35.8047C73.799 35.1994 73.7177 34.5941 73.6168 33.986C72.4701 27.1653 69.717 20.7509 65.5509 15.1211C72.7589 11.1054 80.9313 8.61701 89.6279 8.10419ZM97.6265 8.19947C106.455 8.91685 114.714 11.6603 121.936 15.9786C117.899 21.5243 115.289 27.8883 114.302 34.6978C114.24 35.1238 114.198 35.5497 114.151 35.9757C108.653 35.4937 103.144 35.2078 97.6265 35.1013V8.19947ZM122.217 35.8411C123.018 30.287 125.166 25.0888 128.494 20.5575C135.127 25.9183 140.521 32.739 144.194 40.5322C136.885 38.9461 129.514 37.7019 122.102 36.8023C122.141 36.4829 122.169 36.1634 122.217 35.8411ZM36.5621 61.1149C36.8032 57.102 37.4676 53.2041 38.5077 49.4574C47.5857 47.2828 56.7786 45.6575 66.0303 44.5899C65.5846 48.9922 64.3061 53.2937 62.3324 57.3514C65.3322 57.046 68.3321 56.7826 71.3319 56.5668C72.8654 52.4502 73.8158 48.1656 74.1018 43.8052C79.2688 43.3877 84.4469 43.1439 89.6279 43.071V55.7878C92.2941 55.7569 94.9603 55.7569 97.6265 55.7934V43.0934C103.093 43.2027 108.558 43.4886 114.005 43.9818C114.339 48.2889 115.314 52.5455 116.862 56.6537C119.867 56.8862 122.873 57.1721 125.872 57.4943C123.904 53.4422 122.612 49.1772 122.107 44.8449C130.644 45.9153 139.122 47.4846 147.508 49.4994C148.522 53.1816 149.184 57.0096 149.436 60.944C152.128 61.4456 154.816 61.9808 157.499 62.5581C156.454 27.8883 127.933 0 93.0006 0C58.0065 0 29.4466 27.9892 28.499 62.7458C31.182 62.1601 33.8707 61.6249 36.5621 61.1149Z" fill="#E94E0F"/>
<path d="M88.9498 65.3629C83.5866 65.4441 78.2261 65.6627 72.8741 66.0242C71.6462 67.3216 70.4154 68.6303 69.1875 69.9446V85.7802C63.2916 86.2454 58.3096 86.7358 52.4418 87.5401C53.5912 86.2314 54.7435 84.9284 55.893 83.6309C58.9488 83.247 61.1048 83.0536 64.1635 82.7622C64.7074 82.7118 65.2513 82.6613 65.7923 82.6109V68.6892C67.6735 66.6631 69.5547 64.6539 71.4415 62.6615C77.7467 62.2103 84.0604 61.9525 90.3768 61.888C89.903 63.0454 89.4236 64.2055 88.9498 65.3629ZM77.1131 96.3196V72.447C79.656 72.3125 82.1988 72.2088 84.7444 72.136V96.0058C82.1988 96.0786 79.656 96.1823 77.1131 96.3196ZM89.7768 100.873C84.1865 100.943 78.5962 101.162 73.0115 101.535C73.8582 100.335 74.6993 99.1415 75.5459 97.9533C79.1345 97.7432 82.7175 97.5975 86.3088 97.5134V70.5499C87.4639 69.3701 88.6218 68.1988 89.7768 67.0302V100.873ZM71.4499 106.778C69.5631 105.023 67.6763 103.289 65.7923 101.568V91.1382C66.925 89.9164 68.0548 88.7002 69.1875 87.4952V99.8701C70.4182 100.98 71.649 102.098 72.8797 103.222C72.4031 104.407 71.9265 105.59 71.4499 106.778ZM49.5849 105.654C48.4607 106.974 47.3337 108.299 46.2095 109.63V65.5142C49.4364 65.0042 52.6661 64.5474 55.9014 64.1383C54.7491 65.4273 53.594 66.722 52.4418 68.025C51.4886 68.1539 50.5354 68.2884 49.5849 68.4285V105.654ZM91.1113 60.3328C84.3183 60.3888 77.5309 60.6662 70.7518 61.1678C68.5539 63.5133 66.3587 65.8841 64.1635 68.2772V81.2153C61.629 81.4563 59.9974 81.5852 57.4658 81.8907V62.4008C53.1651 62.9221 48.8728 63.5302 44.5918 64.2307V111.438C48.8728 110.737 53.1651 110.126 57.4658 109.608V93.5762C59.9974 93.2707 61.629 93.1418 64.1635 92.9008V102.381C66.3587 104.357 68.5539 106.355 70.7518 108.378C77.5309 107.873 84.3183 107.596 91.1113 107.543C93.3065 105.343 95.5129 103.163 97.7165 101.011V66.9041C95.5129 64.6903 93.3065 62.5017 91.1113 60.3328Z" fill="#202A25"/>
<path d="M28.9636 72.0324C25.9974 72.6769 23.0425 73.3634 20.0931 74.092V74.0948C18.4446 74.5012 16.799 74.9243 15.1561 75.3587C13.9561 76.8943 12.7562 78.4384 11.5591 79.988C10.3956 90.9337 9.23774 101.888 8.07707 112.848C7.0061 113.159 5.93234 113.478 4.86699 113.8V115.476C3.76799 116.961 2.6718 118.452 1.58121 119.951C1.5756 117.099 1.57 114.251 1.56719 111.396C2.70824 111.037 3.84929 110.687 4.99034 110.34V110.32C6.07532 100.002 7.1547 89.6951 8.23967 79.3883C10.076 77.0008 11.9151 74.6301 13.7571 72.2734C20.8613 70.3538 28.0104 68.6949 35.2015 67.2937C34.0605 68.6584 32.9251 70.0315 31.7868 71.4103C30.842 71.6064 29.9028 71.8026 28.9636 72.0071V72.0324ZM16.7905 105.483C17.6008 97.3033 18.4166 89.1263 19.2268 80.9548C20.3987 80.6746 21.5706 80.3972 22.7397 80.131C23.1686 80.0273 23.5948 79.9292 24.0209 79.8283V103.698C21.6071 104.264 19.196 104.855 16.7905 105.483ZM28.9636 99.2705V107.557C23.8359 108.667 18.725 109.911 13.6421 111.287C14.472 109.919 15.3019 108.557 16.1317 107.198C19.2661 106.377 22.4089 105.609 25.5573 104.892V77.8947C26.6927 76.4936 27.8282 75.1009 28.9636 73.7137V99.2705ZM32.7176 106.786C33.5531 105.466 34.3913 104.146 35.2296 102.829C36.6874 102.546 37.5958 102.359 39.0564 102.095L36.1772 106.102C35.0221 106.324 33.8699 106.554 32.7176 106.786ZM36.7884 100.963V96.8409C36.7856 96.8437 36.7828 96.8437 36.7799 96.8437V65.4414C28.8318 66.949 20.9258 68.7733 13.0842 70.9115C10.9423 73.6773 8.80599 76.4712 6.67248 79.2847C5.5847 89.2748 4.49972 99.2705 3.40913 109.275C2.27369 109.625 1.13825 109.981 0 110.348V122C2.9101 121.067 5.82861 120.176 8.75833 119.335C8.96019 119.276 9.15644 119.217 9.3583 119.161C9.71435 119.057 10.0704 118.957 10.4265 118.858C12.1478 118.371 13.8748 117.9 15.6046 117.443C20.8165 116.07 26.0563 114.834 31.3158 113.736C32.5718 113.478 33.8306 113.223 35.0894 112.976C36.7659 112.649 37.8958 112.422 39.5751 112.122C39.9284 112.06 40.276 111.998 40.6236 111.937V100.251C39.1602 100.506 38.249 100.686 36.7884 100.963Z" fill="#202A25"/>
<path d="M129.906 83.6226C124.646 82.9529 117.949 82.2607 112.675 81.8628C113.533 80.7811 114.394 79.6994 115.252 78.6262C120.155 79.0353 126.48 79.7247 131.367 80.3692C130.879 81.4565 130.388 82.5382 129.906 83.6226ZM130.439 103.051C124.91 102.331 117.949 101.605 112.4 101.185C113.258 100.114 114.111 99.0464 114.966 97.9815C118.526 98.2786 123.508 98.797 127.06 99.2201C127.114 95.6164 127.17 92.0127 127.22 88.4117C128.378 87.4001 129.539 86.3969 130.696 85.3993C130.61 91.2869 130.523 97.1689 130.439 103.051ZM105.156 106.4C105.369 91.7745 105.226 76.5833 105.442 61.961C115.184 62.471 126.331 63.5976 136.004 65.0323C134.837 66.0075 133.668 66.9883 132.496 67.9803C125.087 66.9631 116.224 66.0636 108.775 65.5956C108.59 77.9256 108.77 90.8217 108.59 103.155C107.444 104.231 106.3 105.312 105.156 106.4ZM116.673 88.8461C119.191 89.0703 123.132 89.4822 125.644 89.768C125.608 92.3433 125.572 94.9242 125.53 97.5051C123.018 97.2165 119.022 96.6841 116.505 96.4599L116.673 88.8461ZM132.115 78.926C127.509 78.3067 121.467 77.6342 116.847 77.2194L116.878 72.8675C123.368 73.4476 130.943 74.3611 137.4 75.3503C137.459 71.4748 137.515 67.5992 137.571 63.7293C126.842 62.0815 114.626 60.8457 103.81 60.3413C103.58 75.992 103.712 92.206 103.479 107.854C105.672 107.958 114.413 108.199 131.291 110.185C133.494 108.308 136.065 106.139 138.266 104.306C138.353 98.3346 138.443 92.3657 138.53 86.3913C136.391 83.8804 134.254 81.392 132.115 78.926Z" fill="#202A25"/>
<path d="M172.424 75.9894C171.502 75.726 170.577 75.4682 169.652 75.216C169.652 75.2272 169.652 75.2328 169.652 75.244C166.73 74.4482 165.076 74.0138 162.135 73.3048V73.3076C160.498 72.9097 158.855 72.5258 157.212 72.1559C155.976 73.0947 154.748 74.0474 153.514 75.003C151.316 85.7245 149.121 96.4657 146.923 107.224C145.594 108.031 144.26 108.846 142.928 109.67C145.353 97.3484 147.775 85.0492 150.2 72.778C152.101 71.3012 153.991 69.844 155.883 68.398C157.994 68.8632 160.108 69.3508 162.211 69.8608C163.091 70.071 163.969 70.2896 164.846 70.5082C168.951 71.5422 171.774 72.3352 175.842 73.5402C174.704 74.3501 173.563 75.1655 172.424 75.9894ZM171.137 112.335L167.7 114.879L166.172 79.4278L169.615 76.917L171.137 112.335ZM155.241 66.7139C153.04 68.4177 150.834 70.1495 148.628 71.9037C146.068 84.9595 143.506 98.0377 140.938 111.141C145.499 111.926 149.017 112.64 153.545 113.632C155.732 102.25 157.913 90.8863 160.089 79.5427L164.622 80.6076L166.144 116.028L180 119.548L177.423 72.4613C177.423 72.4613 163.114 68.4233 155.241 66.7139Z" fill="#202A25"/>
</svg>
