<svg width="168" height="168" viewBox="0 0 168 168" fill="none" xmlns="http://www.w3.org/2000/svg">
<path d="M167.069 80.429C166.701 78.7899 165.279 78.3949 164.187 78.2896C161.159 77.9342 158.296 77.5326 155.578 77.1245C146.982 75.6631 133.339 72.6022 118.458 66.5988C102.175 60.0293 82.8839 49.2995 73.8342 38.4645C70.313 34.1396 68.2069 29.8477 68.2267 25.8389C68.2267 25.8389 65.6862 5.4721 101.602 16.5112C101.786 16.8799 114.291 52.5974 157.006 57.3172C159.639 57.6134 162.212 57.3567 162.482 55.9941C150.977 23.7456 120.182 0.666748 83.9896 0.666748C61.2107 0.666748 40.5707 9.81008 25.5251 24.6277C25.1566 25.0292 24.788 25.4373 24.4326 25.8389C22.4252 28.1297 16.9954 34.5741 16.9756 41.9993C16.9559 50.9189 27.3548 58.7522 40.0508 64.9926H40.1232C40.1232 64.9926 68.536 78.8623 88.4586 83.2661C89.6104 83.4702 89.6827 83.7137 89.6827 84.0363C89.6762 84.4971 89.3537 84.5234 88.8403 84.688C70.03 88.6573 40.189 102.948 40.1166 102.981C40.0968 102.994 16.9822 113.237 16.9822 126.001C16.9822 133.433 22.4318 139.871 24.4392 142.161C24.7946 142.569 25.1566 142.971 25.5317 143.372C40.5707 158.19 61.2107 167.333 83.9896 167.333C120.182 167.333 150.977 144.255 162.482 112.006C162.212 110.643 159.639 110.393 157.006 110.676C114.291 115.409 101.786 151.12 101.602 151.489C65.6862 162.535 68.2267 142.161 68.2267 142.161C68.1477 127.607 96.0077 108.906 118.49 99.5121C121.439 98.2812 140.447 91.0073 165.075 88.1175C166.655 87.9859 167.208 86.6364 167.273 85.3133C167.379 83.3912 167.359 82.1141 167.069 80.429Z" fill="#E9540D"/>
<path d="M48.8181 84.6886C48.7918 84.6886 49.7 84.5043 49.7 84.037C49.7 83.5696 48.6075 83.2668 48.6075 83.2668C43.2895 81.3973 35.6944 78.3364 29.2575 75.2557C17.6212 69.2128 8.45304 61.7941 8.45304 53.4144C8.45304 52.6837 7.74223 52.5718 7.38682 52.5718C6.77473 52.5718 6.40616 53.5526 6.40616 53.5526C2.70071 62.979 0.666992 73.2545 0.666992 84.004C0.666992 94.7536 2.70071 105.023 6.40616 114.455C6.40616 114.455 6.77473 115.43 7.38682 115.43C7.74223 115.43 8.45304 115.324 8.45304 114.587C8.45304 106.096 17.8713 98.5847 29.7314 92.5023C36.0037 89.4677 42.6511 86.4989 48.8181 84.6886Z" fill="#E9540D"/>
</svg>
