<svg width="54" height="54" viewBox="0 0 54 54" fill="none" xmlns="http://www.w3.org/2000/svg">
<path d="M27.4572 26.7072H31.4581L34.1672 16.2849L33.5149 14.8843C29.9735 17.1287 26.8766 20.0224 24.3963 23.3882L25.3356 28.3236L27.4572 26.7072Z" fill="#F9A50D"/>
<path d="M32.9482 13.6666L30.629 8.68588C30.5496 8.53694 30.4374 8.43517 30.3197 8.40546C30.1718 8.36832 30.011 8.44743 29.9011 8.52209L22.5742 13.8129L24.0624 21.6327C26.5427 18.4998 29.5505 15.7966 32.9482 13.6666Z" fill="#F9A50D"/>
<path d="M29.0124 34.2366L30.5222 28.0381H27.9067L25.6139 29.7849L26.3768 33.7935L29.0124 34.2366Z" fill="#F9A50D"/>
<path d="M31.2152 41.2792L29.3889 35.6497L26.3032 35.1309L25.8664 39.8025C27.5987 40.4566 29.387 40.9502 31.2152 41.2792Z" fill="#F9A50D"/>
<path d="M23.3129 29.8645L25.3356 28.3235L24.3963 23.3882C23.6716 24.3713 22.9994 25.3946 22.3843 26.4538L23.3129 29.8645Z" fill="#F2581A"/>
<path d="M21.9017 24.681C22.5676 23.6258 23.2897 22.6088 24.0626 21.6328L22.574 13.813L19.5395 16.0043L21.9017 24.681Z" fill="#F2581A"/>
<path d="M24.7704 33.523L26.3768 33.7933L25.6139 29.7847L24.1858 30.8729L24.7704 33.523Z" fill="#F2581A"/>
<path d="M23.5704 38.8271C24.3237 39.1844 25.0895 39.5097 25.8665 39.8028L26.3033 35.1311L24.6951 34.8604L23.5704 38.8271Z" fill="#F2581A"/>
<path d="M28.6156 43.9765C29.7681 43.9765 30.8935 43.8603 31.9813 43.6415L32.2384 44.433L31.6783 42.707C29.647 42.388 27.6607 41.8747 25.7382 41.1738L25.5028 43.6909C26.5119 43.8781 27.5519 43.9765 28.6156 43.9765Z" fill="#F9A50D"/>
<path d="M32.2384 44.4326C32.1356 44.4634 32.0327 44.4939 31.9291 44.5229C32.0327 44.4939 32.1356 44.4634 32.2384 44.4326Z" fill="#2A3C90"/>
<path d="M31.9813 43.6412C30.8934 43.8603 29.7681 43.9762 28.6156 43.9762C27.5518 43.9762 26.5119 43.8778 25.5027 43.6906L25.7382 41.1735C24.8795 40.8608 24.0338 40.5105 23.2026 40.1235L22.4389 42.817L21.9643 44.4917C22.1314 44.54 22.2996 44.5853 22.4686 44.6288C22.5028 44.6373 22.5373 44.6459 22.5715 44.6544C22.7175 44.6912 22.8642 44.7257 23.0113 44.7592C23.0265 44.7625 23.0417 44.7666 23.0573 44.7699C23.0833 44.7759 23.1097 44.7814 23.1361 44.787C23.1769 44.7959 23.2174 44.8048 23.2586 44.8134C23.311 44.8245 23.3634 44.8353 23.4161 44.8461C23.4492 44.8524 23.4822 44.8587 23.5153 44.865C23.5781 44.8773 23.6405 44.8895 23.7032 44.901C23.7144 44.9029 23.7255 44.9055 23.7366 44.9074C23.7545 44.9107 23.7723 44.914 23.7901 44.9174C23.831 44.9244 23.8718 44.9308 23.9127 44.9378C23.9966 44.9519 24.0806 44.9664 24.1649 44.9794C24.1797 44.982 24.1946 44.9846 24.2095 44.9868C24.2262 44.9894 24.2425 44.9917 24.2592 44.9943C24.2852 44.9984 24.3112 45.0017 24.3372 45.0054C24.4208 45.0177 24.5051 45.0299 24.5894 45.0411C24.6013 45.0426 24.6136 45.0444 24.6258 45.0459C24.8717 45.0778 25.1191 45.1064 25.3683 45.1287V45.1269C25.9068 45.1751 26.4521 45.2 27.0032 45.2C27.7141 45.2 28.4154 45.1592 29.1051 45.0801C29.1155 45.0786 29.1259 45.0775 29.1359 45.0764C29.2856 45.0585 29.4345 45.0392 29.5831 45.018C29.5961 45.0162 29.6091 45.0143 29.6221 45.0128C29.6329 45.011 29.644 45.0099 29.6548 45.008C29.7929 44.988 29.93 44.9657 30.067 44.9423C30.1302 44.9315 30.193 44.9204 30.2561 44.9088C30.3285 44.8958 30.4009 44.8821 30.4734 44.868H30.4737C30.6268 44.8383 30.779 44.8067 30.931 44.7733C30.9503 44.7688 30.9696 44.7647 30.9889 44.7606C30.9893 44.7606 30.9896 44.7603 30.99 44.7603C31.3061 44.6893 31.6192 44.6102 31.9289 44.5229C32.0322 44.494 32.1355 44.4635 32.2383 44.4327L31.9813 43.6412Z" fill="#F2581A"/>
<path d="M15.7118 15.9706C18.0804 13.202 21.3243 11.2057 25.0147 10.4086L27.2365 8.80412C27.1585 8.80301 27.0812 8.80078 27.0032 8.80078C26.0624 8.80078 25.138 8.87209 24.2358 9.00989C24.2262 9.01137 24.2165 9.01286 24.2068 9.01434C24.072 9.03514 23.9379 9.05743 23.8042 9.0812C23.7593 9.08937 23.7151 9.09791 23.6705 9.10608C23.5728 9.12428 23.4755 9.14248 23.3786 9.16217C23.3036 9.1774 23.2289 9.19374 23.1546 9.20971C23.0893 9.22382 23.0239 9.23757 22.9589 9.25242C22.8575 9.27545 22.7565 9.29996 22.6558 9.32448C22.619 9.33376 22.5819 9.3423 22.5451 9.35159C22.42 9.38316 22.2948 9.41622 22.1704 9.45076C22.1596 9.45373 22.1488 9.45633 22.1377 9.4593C19.1887 10.2786 16.5386 11.8234 14.3922 13.8881C14.7707 14.6209 15.2138 15.3169 15.7118 15.9706Z" fill="#2B378C"/>
<path d="M11.6397 27.0005C11.6397 23.2823 12.836 19.8437 14.8632 17.0473C14.3254 16.3725 13.8415 15.6534 13.4214 14.8965C11.5654 16.9768 10.1797 19.4849 9.43054 22.2516C9.41642 22.304 9.40194 22.356 9.3882 22.4084C9.3726 22.4685 9.35811 22.5287 9.34288 22.5889C9.32097 22.6773 9.29906 22.7649 9.27863 22.8533C9.26934 22.8923 9.2608 22.9313 9.25226 22.9703C9.22663 23.0821 9.20212 23.1939 9.17872 23.3068C9.17426 23.3287 9.1698 23.351 9.16535 23.3733C9.1386 23.5051 9.11335 23.637 9.08958 23.77C9.08809 23.7763 9.08735 23.783 9.08624 23.7893C8.90053 24.8315 8.80359 25.9045 8.80359 27.0005C8.80359 27.9287 8.87341 28.8413 9.0075 29.7323C9.90632 29.3839 10.8144 29.063 11.7311 28.7681C11.6709 28.1868 11.6397 27.5974 11.6397 27.0005Z" fill="#2B378C"/>
<path d="M15.0746 37.2392C13.5135 35.1779 12.4126 32.7492 11.9239 30.1055C11.0273 30.3989 10.1385 30.7172 9.25933 31.0633C9.26081 31.0704 9.2623 31.0775 9.26378 31.0849C9.3065 31.2702 9.35218 31.4548 9.40046 31.6379C9.40752 31.6643 9.41495 31.6907 9.42201 31.717C9.46918 31.8927 9.5182 32.0673 9.57057 32.2407C9.57392 32.2515 9.57689 32.2623 9.58023 32.2734C10.4148 35.0256 11.8849 37.5044 13.8192 39.5379C14.1694 38.7286 14.5906 37.9602 15.0746 37.2392Z" fill="#2B378C"/>
<path d="M20.6986 44.0759L21.2082 42.279C19.2092 41.3081 17.4302 39.9562 15.9638 38.3179C15.5267 39.0146 15.1515 39.7567 14.8492 40.5374C16.5432 42.0602 18.5236 43.2703 20.6986 44.0759Z" fill="#2B378C"/>
<path d="M39.5463 14.0133C39.5693 13.9702 39.5931 13.9275 39.6157 13.8841C39.596 13.8651 39.5763 13.8458 39.5567 13.8272C39.4709 13.7455 39.3843 13.6646 39.2967 13.5847C39.2658 13.5561 39.235 13.5279 39.2038 13.4997C39.0902 13.3971 38.9754 13.2958 38.8591 13.1958C38.8528 13.1906 38.8465 13.1851 38.8402 13.1795C37.135 11.7206 35.1703 10.5818 33.0588 9.83417C33.0149 9.81857 32.9704 9.80409 32.9265 9.78886C32.8155 9.7506 32.7044 9.71272 32.593 9.67669C32.5796 9.67223 32.5663 9.66852 32.5525 9.66406L32.9856 10.5941C35.434 11.2448 37.6647 12.4281 39.5463 14.0133Z" fill="#2B378C"/>
<path d="M39.155 40.5378C39.1323 40.4795 39.1078 40.4216 39.0841 40.3633C37.3807 41.6996 35.416 42.7169 33.2788 43.3264L33.4983 44.0028C35.5976 43.1979 37.5111 42.0153 39.155 40.5378Z" fill="#2B378C"/>
<path d="M15.712 15.9706C16.6339 17.1807 17.7459 18.2426 19.0042 19.105L18.0129 15.4644L25.0148 10.4087C21.3245 11.2057 18.0805 13.2021 15.712 15.9706Z" fill="#2B378C"/>
<path d="M35.576 16.1564L34.7693 19.2603C36.7712 17.9459 38.424 16.1334 39.5464 14.013C37.6648 12.4278 35.4341 11.2441 32.9857 10.5938L35.576 16.1564Z" fill="#2B378C"/>
<path d="M21.2081 42.2783L23.5313 34.0845L23.242 32.7734C20.1886 33.6912 17.621 35.676 15.9637 38.3179C17.4301 39.9559 19.2091 41.3074 21.2081 42.2783Z" fill="#3D4EA9"/>
<path d="M22.4169 31.6397L21.4338 28.0288C18.1943 28.3999 15.0102 29.0963 11.9241 30.1054C12.4129 32.7491 13.5137 35.1778 15.0748 37.2392C16.8208 34.6381 19.3877 32.6574 22.4169 31.6397Z" fill="#2B378C"/>
<path d="M11.7313 28.7681C14.7687 27.7902 17.8979 27.1064 21.0798 26.729L19.5154 20.9832C17.7177 19.9901 16.1359 18.6437 14.8634 17.0474C12.8362 19.8437 11.6399 23.2823 11.6399 27.0005C11.6399 27.5974 11.6711 28.1872 11.7313 28.7681Z" fill="#3D4EA9"/>
<path d="M30.7403 32.7676L30.36 34.329L33.279 43.3265C35.4161 42.7174 37.3809 41.6997 39.0842 40.3634C37.6048 36.7254 34.502 33.8956 30.7403 32.7676Z" fill="#3D4EA9"/>
<path d="M31.9116 27.9585L31.0555 31.4728C33.1681 32.0938 35.1269 33.2029 36.7541 34.7075C38.2 36.0446 39.3555 37.6684 40.1466 39.4571C40.1589 39.4846 40.1719 39.5117 40.1837 39.5396C40.4924 39.215 40.788 38.8777 41.0725 38.5312C42.8282 36.393 44.1081 33.8499 44.7455 31.0639C40.635 29.4456 36.3229 28.4023 31.9116 27.9585Z" fill="#2B378C"/>
<path d="M9.57059 32.2405C9.51859 32.067 9.46919 31.8925 9.42202 31.7168C9.46882 31.8925 9.51859 32.067 9.57059 32.2405Z" fill="white"/>
<path d="M9.4005 31.638C9.35221 31.4549 9.30653 31.2703 9.26382 31.085C9.30653 31.2707 9.35258 31.4545 9.4005 31.638Z" fill="white"/>
<path d="M24.2593 44.9942C24.2426 44.992 24.2259 44.9894 24.2095 44.9868C24.2259 44.9894 24.2426 44.992 24.2593 44.9942Z" fill="white"/>
<path d="M29.6548 45.0078C29.6311 45.0112 29.6069 45.0145 29.5831 45.0178C29.6069 45.0145 29.6311 45.0112 29.6548 45.0078Z" fill="white"/>
<path d="M30.2562 44.9087C30.1934 44.9202 30.1303 44.9313 30.0671 44.9421C30.1303 44.9313 30.1934 44.9202 30.2562 44.9087Z" fill="white"/>
<path d="M29.136 45.0762C29.1256 45.0773 29.1155 45.0784 29.1051 45.0799C29.1155 45.0784 29.1256 45.0773 29.136 45.0762Z" fill="white"/>
<path d="M30.9312 44.7734C30.7792 44.8069 30.627 44.8384 30.4736 44.8681C30.627 44.8384 30.7792 44.8069 30.9312 44.7734Z" fill="white"/>
<path d="M23.7902 44.9173C23.7724 44.9139 23.7546 44.9106 23.7367 44.9072C23.7546 44.9106 23.7724 44.9143 23.7902 44.9173Z" fill="white"/>
<path d="M23.4163 44.8457C23.3584 44.8342 23.3004 44.8223 23.2425 44.8101C23.3004 44.8223 23.3584 44.8346 23.4163 44.8457Z" fill="white"/>
<path d="M24.2069 9.01471C24.2165 9.01322 24.2262 9.01174 24.2358 9.01025C24.2262 9.01174 24.2165 9.01322 24.2069 9.01471Z" fill="white"/>
<path d="M23.6707 9.10643C23.7152 9.09826 23.7594 9.08971 23.8044 9.08154C23.7594 9.08934 23.7152 9.09826 23.6707 9.10643Z" fill="white"/>
<path d="M32.5931 9.67627C32.7045 9.7123 32.8156 9.75018 32.9266 9.78844C32.8156 9.75055 32.7049 9.7123 32.5931 9.67627Z" fill="white"/>
<path d="M39.2969 13.5845C39.3845 13.6643 39.471 13.7453 39.5568 13.827C39.471 13.7453 39.3841 13.6643 39.2969 13.5845Z" fill="white"/>
<path d="M38.8591 13.1958C38.9754 13.2957 39.0902 13.3971 39.2038 13.4996C39.0902 13.3971 38.9754 13.2957 38.8591 13.1958Z" fill="white"/>
<path d="M23.1543 9.21014C23.2289 9.19417 23.3036 9.17783 23.3786 9.1626C23.3036 9.17783 23.2289 9.19417 23.1543 9.21014Z" fill="white"/>
<path d="M22.6559 9.32498C22.7565 9.30047 22.8576 9.27596 22.959 9.25293C22.8576 9.27596 22.7565 9.30047 22.6559 9.32498Z" fill="white"/>
<path d="M22.1706 9.45085C22.295 9.41668 22.4201 9.38362 22.5453 9.35205C22.4201 9.38362 22.2954 9.41705 22.1706 9.45085Z" fill="white"/>
<path d="M45.1859 27.7812C45.1848 27.8084 45.1837 27.8355 45.1822 27.8626C45.1837 27.8355 45.1848 27.8084 45.1859 27.7812Z" fill="white"/>
<path d="M45.1076 28.8643C45.1013 28.9259 45.0953 28.9872 45.0883 29.0485C45.0953 28.9872 45.1013 28.9259 45.1076 28.8643Z" fill="white"/>
<path d="M45.1401 28.5156C45.136 28.5658 45.1319 28.6159 45.1271 28.6657C45.1319 28.6159 45.136 28.5658 45.1401 28.5156Z" fill="white"/>
<path d="M45.1663 28.1523C45.164 28.1925 45.1611 28.2326 45.1585 28.2727C45.1611 28.2326 45.164 28.1925 45.1663 28.1523Z" fill="white"/>
<path d="M33.6221 23.6744L32.8306 26.7189C37.0064 27.2062 41.0897 28.2161 44.9985 29.7322C45.0275 29.539 45.0535 29.3444 45.0765 29.149C45.0802 29.1156 45.0847 29.0822 45.0884 29.0488C45.0955 28.9875 45.1014 28.9258 45.1077 28.8645C45.1144 28.7984 45.1211 28.7323 45.1274 28.6658C45.1319 28.6161 45.1359 28.5659 45.14 28.5158C45.1467 28.4348 45.153 28.3542 45.1586 28.2729C45.1612 28.2328 45.1642 28.1927 45.1664 28.1525C45.1723 28.056 45.1779 27.9598 45.1824 27.8632C45.1839 27.8357 45.185 27.8086 45.1861 27.7815C45.1917 27.6578 45.1957 27.5341 45.1983 27.4097C45.1983 27.4082 45.1987 27.4067 45.1987 27.4053C45.2013 27.2704 45.2035 27.136 45.2035 27.0008C45.2035 24.3738 44.659 21.8459 43.6079 19.522C40.832 21.798 37.3919 23.2941 33.6221 23.6744Z" fill="#2B378C"/>
<path d="M41.2085 15.6215C41.008 15.3711 40.8004 15.1271 40.5872 14.8887C40.5868 14.889 40.5864 14.8898 40.586 14.8905C40.5771 14.9061 40.5679 14.9214 40.5589 14.9373C39.1093 17.5339 36.9246 19.6855 34.2935 21.0894L33.622 23.6741C37.3919 23.2938 40.8319 21.7977 43.6079 19.5217C42.9843 18.1426 42.182 16.8349 41.2085 15.6215Z" fill="#3D4EA9"/>
<path fill-rule="evenodd" clip-rule="evenodd" d="M27 46.6334C16.1569 46.6334 7.36664 37.8431 7.36664 27C7.36664 16.1565 16.1569 7.36627 27 7.36627C37.8435 7.36627 46.6337 16.1565 46.6337 27C46.6337 37.8431 37.8435 46.6334 27 46.6334ZM27 0C12.0884 0 0 12.0881 0 27C0 41.9116 12.0884 54 27 54C41.9119 54 54 41.9116 54 27C54 12.0881 41.9119 0 27 0Z" fill="#2B378C"/>
<path fill-rule="evenodd" clip-rule="evenodd" d="M9.3177 39.9491L9.29022 39.9473L7.89704 42.4142L7.89556 42.4409L8.23614 42.8551L8.26363 42.858L10.9501 41.957L10.953 41.9295L10.5865 41.4868L10.5597 41.4838L8.68704 42.1356L9.68095 40.4201L9.68318 40.3933L9.3177 39.9491Z" fill="white"/>
<path fill-rule="evenodd" clip-rule="evenodd" d="M11.3496 42.3115L11.3221 42.3123L10.9797 42.6744L10.9804 42.7015L11.5517 43.2408L10.0905 44.7877L10.0913 44.8141L10.4534 45.1566L10.4805 45.1562L11.9417 43.6096L12.5136 44.1493L12.54 44.1482L12.8825 43.7864L12.8817 43.7593L11.3496 42.3115Z" fill="white"/>
<path fill-rule="evenodd" clip-rule="evenodd" d="M12.9142 45.7496L13.1578 45.936C13.3097 46.0526 13.3703 46.1949 13.2425 46.3624C13.1148 46.5292 12.9614 46.5087 12.8095 46.3925L12.5658 46.2075L12.9142 45.7496ZM13.5415 44.9269L13.6945 45.0431C13.862 45.1705 13.8795 45.3054 13.787 45.4272C13.6934 45.5494 13.5593 45.5668 13.3915 45.4387L13.2396 45.3224L13.5415 44.9269ZM13.4553 44.1855L13.4286 44.19L11.8245 46.2933L11.8289 46.3193L12.5142 46.8426C12.9101 47.1457 13.3896 47.1494 13.7146 46.7223C13.8895 46.4931 13.9152 46.1752 13.7896 45.9602C13.959 45.9921 14.1547 45.9249 14.294 45.7414C14.5726 45.3756 14.4151 44.9191 14.0195 44.616L13.4553 44.1855Z" fill="white"/>
<path fill-rule="evenodd" clip-rule="evenodd" d="M16.1216 46.0059L16.096 46.0144L15.4312 47.3318C15.0761 48.033 15.348 48.6856 15.93 48.979C16.512 49.2732 17.1984 49.1042 17.5523 48.4026L18.2172 47.0852L18.2094 47.0592L17.7637 46.8349L17.7384 46.843L17.1081 48.0928C16.8749 48.5541 16.5049 48.6474 16.1807 48.4832C15.8553 48.3194 15.7112 47.9669 15.9445 47.5045L16.5751 46.2558L16.5659 46.2306L16.1216 46.0059Z" fill="white"/>
<path fill-rule="evenodd" clip-rule="evenodd" d="M18.8221 47.3076L18.7979 47.3202L17.9571 49.8277L17.9686 49.8518L18.4414 50.0104L18.4655 49.9985L19.0197 48.345L19.7384 50.4249L19.7673 50.455L20.2583 50.6199L20.2829 50.6076L21.1237 48.0998L21.1122 48.0757L20.639 47.9167L20.6156 47.9297L20.0607 49.5833L19.3432 47.5022L19.3127 47.4718L18.8221 47.3076Z" fill="white"/>
<path fill-rule="evenodd" clip-rule="evenodd" d="M21.8638 48.2554L21.84 48.2691L21.2469 50.8464L21.2614 50.8705L21.7468 50.9827L21.7695 50.9678L22.3637 48.3898L22.3489 48.3675L21.8638 48.2554Z" fill="white"/>
<path fill-rule="evenodd" clip-rule="evenodd" d="M23.0207 48.5161L22.9995 48.5325L22.936 49.0264L22.9523 49.0484L23.7312 49.1486L23.4574 51.2586L23.4749 51.2806L23.9685 51.3444L23.9897 51.3281L24.2634 49.2181L25.0423 49.3187L25.0646 49.3024L25.1281 48.808L25.1117 48.7869L23.0207 48.5161Z" fill="white"/>
<path fill-rule="evenodd" clip-rule="evenodd" d="M25.7346 48.8237L25.7149 48.8423L25.6685 51.4875L25.6874 51.5057L27.5278 51.5384L27.5463 51.5195L27.5552 51.0218L27.5367 51.0021L26.2141 50.9794L26.2248 50.3844L27.163 50.4011L27.1827 50.3822L27.1916 49.8841L27.1734 49.8644L26.2341 49.8477L26.2427 49.369L27.5263 49.3909L27.5452 49.3719L27.5541 48.8739L27.5352 48.8542L25.7346 48.8237Z" fill="white"/>
<path fill-rule="evenodd" clip-rule="evenodd" d="M28.8522 49.3107L29.234 49.2792C29.7309 49.239 30.1016 49.5362 30.1391 50.0138C30.1781 50.4911 29.8595 50.8439 29.3636 50.8848L28.9814 50.9145L28.8522 49.3107ZM28.2925 48.8167L28.2754 48.8372L28.4878 51.4742L28.509 51.4913L29.4063 51.4192C30.2275 51.3528 30.772 50.7058 30.7122 49.9678C30.6532 49.2305 30.0125 48.6782 29.1905 48.7447L28.2925 48.8167Z" fill="white"/>
<path fill-rule="evenodd" clip-rule="evenodd" d="M31.9361 48.2809L31.9224 48.3043L32.5876 50.8634L32.6117 50.8775L34.0955 50.492L34.1096 50.4686L33.9833 49.9861L33.9603 49.972L32.9772 50.2283L32.4412 48.1691L32.4182 48.1558L31.9361 48.2809Z" fill="white"/>
<path fill-rule="evenodd" clip-rule="evenodd" d="M33.9831 47.7029L33.9723 47.7274L34.9309 50.1932L34.9554 50.204L36.671 49.5373L36.6818 49.512L36.5009 49.0478L36.4764 49.0374L35.2433 49.5161L35.0279 48.962L35.9036 48.6221L35.9148 48.5976L35.7335 48.1326L35.709 48.1218L34.834 48.4624L34.6602 48.0152L35.8576 47.5502L35.868 47.525L35.6875 47.0614L35.6633 47.0503L33.9831 47.7029Z" fill="white"/>
<path fill-rule="evenodd" clip-rule="evenodd" d="M37.4561 46.9402L38.2271 47.5423L37.6622 47.845L37.4561 46.9402ZM36.8347 46.496L36.8273 46.5216L37.3268 49.233L37.3554 49.2397L37.9021 48.9466L37.9092 48.9213L37.7948 48.378L38.6769 47.9063L39.1449 48.2602L39.1724 48.2669L39.7198 47.9742L39.7273 47.9486L37.3562 46.2382L37.3279 46.2319L36.8347 46.496Z" fill="white"/>
<path fill-rule="evenodd" clip-rule="evenodd" d="M40.7172 44.771L40.3243 44.3257C40.0205 44.4152 39.7646 44.5898 39.4919 44.8312C38.8743 45.3764 38.8193 46.2693 39.3274 46.8435C39.8478 47.4326 40.7421 47.4608 41.3602 46.9144C41.6175 46.6864 41.7973 46.426 41.9102 46.1204L40.9843 45.0726L40.9572 45.07L40.2678 45.6799L40.266 45.707L40.5969 46.0802L40.6225 46.0817L40.9252 45.8151L41.255 46.1883C41.2082 46.2808 41.0916 46.4089 40.9913 46.4988C40.5891 46.8539 40.0766 46.7948 39.772 46.4498C39.4678 46.1055 39.4723 45.59 39.8593 45.2472C40.104 45.031 40.3863 44.859 40.7158 44.797L40.7172 44.771Z" fill="white"/>
<path fill-rule="evenodd" clip-rule="evenodd" d="M40.9929 43.7475L40.9914 43.7742L41.9943 44.8576C42.5272 45.4352 43.234 45.4084 43.7121 44.9664C44.1912 44.5234 44.2725 43.821 43.7392 43.2453L42.7371 42.1608L42.71 42.1597L42.3441 42.4988L42.3434 42.5259L43.2927 43.5521C43.6445 43.9328 43.6029 44.3109 43.3354 44.5575C43.0676 44.8053 42.6873 44.8179 42.3356 44.4372L41.3866 43.411L41.3591 43.4099L40.9929 43.7475Z" fill="white"/>
<path fill-rule="evenodd" clip-rule="evenodd" d="M43.3351 41.4959L43.3373 41.523L45.4005 43.1784L45.4273 43.1762L46.5794 41.7414L46.5761 41.7143L46.1879 41.4023L46.1605 41.4057L45.3322 42.436L44.8698 42.0646L45.4581 41.3321L45.4548 41.305L45.0663 40.993L45.0392 40.9953L44.4508 41.7277L44.0776 41.428L44.8813 40.427L44.8791 40.3995L44.4898 40.0879L44.4635 40.0912L43.3351 41.4959Z" fill="white"/>
<path fill-rule="evenodd" clip-rule="evenodd" d="M6.93091 12.8149L6.93425 12.8424L9.03683 14.4469L9.06357 14.4439L10.18 12.9809L10.1767 12.9546L9.7804 12.6519L9.75366 12.6552L8.9514 13.7063L8.47897 13.346L9.04909 12.5999L9.04463 12.5728L8.6487 12.27L8.62233 12.2738L8.05184 13.0203L7.67151 12.7299L8.44999 11.7092L8.44702 11.6817L8.05072 11.3794L8.02435 11.3835L6.93091 12.8149Z" fill="white"/>
<path fill-rule="evenodd" clip-rule="evenodd" d="M10.0932 9.93077L10.7179 9.33613L11.8269 10.5027L11.0912 11.2032C11.0384 11.12 11.0128 11.0929 10.9868 11.0536L10.0932 9.93077ZM9.3901 9.85909L9.38935 9.88546L10.5367 11.36C10.5972 11.4625 10.6377 11.5279 10.6633 11.6099L10.4241 11.8365V11.864L11.2431 12.726H11.2691L11.6301 12.3828L11.6312 12.3554L11.1692 11.8696L12.419 10.6803L12.8814 11.1665L12.9081 11.1672L13.2699 10.8248L13.2706 10.7973L12.4513 9.93523L12.4246 9.93448L12.2162 10.1324L10.7502 8.59145L10.7231 8.59033L9.3901 9.85909Z" fill="white"/>
<path fill-rule="evenodd" clip-rule="evenodd" d="M12.1162 7.44816L12.1106 7.47416L13.6112 9.65287L13.6375 9.6577L14.0647 9.36429L14.0851 9.32714L14.1999 7.12985L15.19 8.56649L15.2164 8.57094L15.6265 8.28793L15.6309 8.2623L14.1319 6.08358L14.1044 6.07764L13.6784 6.3718L13.658 6.40931L13.5421 8.6066L12.5526 7.1696L12.5263 7.16551L12.1162 7.44816Z" fill="white"/>
<path fill-rule="evenodd" clip-rule="evenodd" d="M15.4627 5.31701L15.4534 5.34263L16.5832 7.73417L16.6085 7.74346L17.0586 7.53101L17.0683 7.50464L16.5936 6.49996L17.7023 5.97553L18.1773 6.98094L18.2033 6.98986L18.6535 6.77741L18.6624 6.75141L17.5329 4.36024L17.5077 4.35059L17.056 4.56415L17.0475 4.58941L17.4735 5.49009L16.3637 6.01452L15.9381 5.11273L15.9128 5.10419L15.4627 5.31701Z" fill="white"/>
<path fill-rule="evenodd" clip-rule="evenodd" d="M20.2704 4.11958L20.81 4.90364L20.2198 5.07041L20.2704 4.11958ZM19.8243 3.52866L19.8117 3.55243L19.5517 6.3737L19.5758 6.38744L20.147 6.22588L20.1604 6.20173L20.1998 5.63384L21.122 5.37385L21.4522 5.83775L21.4752 5.85112L22.0476 5.68992L22.0602 5.66578L20.3654 3.39607L20.3413 3.38232L19.8243 3.52866Z" fill="white"/>
<path fill-rule="evenodd" clip-rule="evenodd" d="M24.0967 3.18808L24.165 3.71994L23.9749 3.74446C23.7654 3.77157 23.6421 3.70991 23.618 3.52012C23.5934 3.3307 23.6974 3.2397 23.9069 3.21259L24.0967 3.18808ZM24.5409 2.58936L23.7996 2.68518C23.2681 2.75352 22.9906 3.15613 23.0471 3.59366C23.0872 3.89822 23.2276 4.09247 23.4898 4.17418L22.734 5.50905L22.7555 5.52502L23.3632 5.44665L23.3799 5.42548L24.044 4.27744L24.2338 4.25255L24.3686 5.29883L24.3901 5.3148L24.8837 5.25129L24.9004 5.22974L24.5628 2.60607L24.5409 2.58936Z" fill="white"/>
<path fill-rule="evenodd" clip-rule="evenodd" d="M28.1941 2.49316L28.154 2.50951L27.7009 4.31495C27.6203 4.55823 27.4387 4.65666 27.2088 4.63623L27.1883 4.65294L27.1456 5.12352L27.162 5.15138C27.6582 5.19632 28.0192 5.03736 28.1837 4.49398L28.5652 3.06663L29.4053 3.14351L29.2114 5.26169L29.2282 5.28249L29.7244 5.32743L29.7463 5.31035L29.9858 2.6759L29.9691 2.65547L28.1941 2.49316Z" fill="white"/>
<path fill-rule="evenodd" clip-rule="evenodd" d="M31.4551 2.87451L31.4332 2.889L30.8348 5.46587L30.8493 5.4889L31.3533 5.60515L31.3949 5.59512L33.0964 4.19935L32.7023 5.89857L32.7168 5.9216L33.2015 6.03451L33.2245 6.02002L33.8229 3.44315L33.8084 3.42012L33.3036 3.30387L33.2628 3.3139L31.5613 4.70893L31.9554 3.00971L31.9409 2.98742L31.4551 2.87451Z" fill="white"/>
<path fill-rule="evenodd" clip-rule="evenodd" d="M35.3762 3.95117L35.351 3.96269L34.3441 6.40808L34.3545 6.43334L34.815 6.62239L34.8403 6.61199L35.6503 4.64535L36.8028 5.11927L36.8274 5.10887L37.0171 4.64832L37.0067 4.6238L35.3762 3.95117Z" fill="white"/>
<path fill-rule="evenodd" clip-rule="evenodd" d="M38.336 6.06278L38.1737 7.00023L37.6355 6.70607L38.336 6.06278ZM38.43 5.32812L38.4047 5.33592L36.2472 7.1722L36.2542 7.19783L36.7761 7.48196L36.8024 7.47453L37.2266 7.09532L38.0686 7.55401L37.9802 8.11634L37.9869 8.14271L38.5087 8.42758L38.5351 8.41941L38.9098 5.6104L38.9013 5.58552L38.43 5.32812Z" fill="white"/>
<path fill-rule="evenodd" clip-rule="evenodd" d="M41.1159 8.95136L41.3536 9.14412C41.5026 9.26483 41.5587 9.40894 41.4257 9.57273C41.2927 9.7369 41.1405 9.71164 40.9911 9.59056L40.7534 9.3978L41.1159 8.95136ZM41.7678 8.14761L41.9167 8.26832C42.0798 8.40055 42.0942 8.53537 41.9969 8.65422C41.9007 8.77382 41.7655 8.78793 41.6029 8.65497L41.4539 8.53426L41.7678 8.14761ZM41.7035 7.40479L41.6772 7.40776L40.011 9.46168L40.0136 9.48842L40.6832 10.0322C41.071 10.3456 41.5494 10.3642 41.8874 9.94675C42.0686 9.72353 42.1043 9.40597 41.9851 9.18683C42.1529 9.22435 42.3502 9.16269 42.4954 8.98367C42.7851 8.62674 42.6413 8.16507 42.2536 7.85048L41.7035 7.40479Z" fill="white"/>
<path fill-rule="evenodd" clip-rule="evenodd" d="M43.8392 9.17885L43.8124 9.17773L43.4525 9.52352L43.4522 9.55101L43.997 10.1178L42.4627 11.5916V11.619L42.8078 11.9782L42.8345 11.9786L44.3688 10.5037L44.9126 11.0705L44.9401 11.0708L45.2996 10.7258V10.6987L43.8392 9.17885Z" fill="white"/>
<path fill-rule="evenodd" clip-rule="evenodd" d="M45.2777 13.1438L45.4708 13.4064C45.6071 13.591 45.6253 13.7444 45.4549 13.8699C45.2703 14.0059 45.1295 13.9442 44.9921 13.7581L44.7989 13.4963L45.2777 13.1438ZM46.2192 11.806L46.1925 11.8022L44.0643 13.3715L44.0606 13.3986L44.5839 14.1084C44.8911 14.5243 45.3653 14.6514 45.7977 14.3331C46.2293 14.0144 46.2326 13.5353 45.9254 13.1178L45.7089 12.8251L46.0948 12.5406L46.7429 13.4201L46.7704 13.4242L47.1708 13.1278L47.1749 13.1015L46.2192 11.806Z" fill="white"/>
<path d="M39.6162 23.7995V23.8066C39.6868 23.8318 39.754 23.8771 39.7893 23.9057C39.8993 23.996 39.9472 24.1152 39.9472 24.2697C39.9472 24.5238 39.812 24.7069 39.5902 24.7652C39.5227 24.7845 39.4521 24.7908 39.3202 24.7908H38.6476V22.9312H39.2426C39.3648 22.9312 39.4484 22.9375 39.5227 22.9572C39.7377 23.0151 39.8796 23.1629 39.8796 23.398C39.8796 23.5228 39.835 23.629 39.7607 23.7004C39.7288 23.7323 39.6835 23.7709 39.6162 23.7995ZM39.0209 23.996V24.4852H39.2779C39.3551 24.4852 39.4261 24.4785 39.4773 24.4302C39.529 24.3823 39.5513 24.321 39.5513 24.2404C39.5513 24.1795 39.5353 24.1215 39.5033 24.0796C39.4484 24.012 39.3808 23.996 39.2656 23.996H39.0209ZM39.0175 23.6744H39.2263C39.2909 23.6744 39.3228 23.6744 39.3551 23.6647C39.4424 23.6391 39.4967 23.5618 39.4967 23.4556C39.4967 23.3301 39.4391 23.2755 39.3551 23.2498C39.3202 23.2402 39.2846 23.2372 39.214 23.2372H39.0175V23.6744ZM40.5069 24.7908V23.2435H39.9698V22.9312H41.4626L41.3563 23.2435H40.8802V24.7908H40.5069ZM41.5784 24.7908V22.9312H42.7878L42.6815 23.2435H41.948V23.655H42.2477C42.4888 23.655 42.6143 23.713 42.7012 23.7869C42.7688 23.8448 42.8843 23.9737 42.8843 24.2278C42.8843 24.4785 42.7655 24.617 42.6656 24.6876C42.5497 24.7685 42.4275 24.7908 42.1801 24.7908H41.5784ZM41.948 24.4785H42.2284C42.3346 24.4785 42.3989 24.4528 42.4435 24.3949C42.4665 24.3663 42.4984 24.3147 42.4984 24.2181C42.4984 24.1215 42.4665 24.0539 42.4022 24.0057C42.3632 23.9771 42.312 23.9607 42.2251 23.9607H41.948V24.4785Z" fill="white"/>
<path d="M38.3376 22.4663H36.7743L36.6618 22.7761H38.2247L38.3376 22.4663Z" fill="white"/>
<path d="M38.1686 22.9312H36.6053L36.492 23.2409H38.0556L38.1686 22.9312Z" fill="white"/>
<path d="M37.9996 23.396H36.4363L36.323 23.7065H37.8867L37.9996 23.396Z" fill="white"/>
<path d="M40.1839 39.5388C39.3917 37.7177 38.2221 36.0646 36.7542 34.707C35.1271 33.2024 33.1682 32.0934 31.0556 31.4724L31.9114 27.9581C36.323 28.4019 40.6352 29.4452 44.7456 31.0635C44.005 34.3007 42.3986 37.2119 40.1839 39.5388ZM21.9645 44.492L23.2028 40.1234C25.8956 41.3777 28.7402 42.2449 31.6785 42.7066L32.2386 44.4325C30.5795 44.9321 28.8219 45.2017 27.0024 45.2017C25.2552 45.2017 23.5649 44.9533 21.9645 44.492ZM9.25878 31.0631C13.1631 29.5258 17.2524 28.5074 21.4338 28.0286L22.4169 31.6395C18.5479 32.9391 15.4332 35.8098 13.8194 39.5373C11.6054 37.2104 9.99975 34.3 9.25878 31.0631ZM13.4216 14.8965C14.8345 17.4441 16.9575 19.5704 19.5154 20.9833L21.0798 26.7291C16.9374 27.2201 12.8845 28.2288 9.00621 29.7327C8.87139 28.8413 8.80119 27.9291 8.80119 27.0006C8.80119 22.3571 10.5498 18.1156 13.4216 14.8965ZM27.239 8.80272L18.013 15.4644L19.004 19.105C17.0663 17.7768 15.4718 15.977 14.3925 13.8881C17.6661 10.7389 22.112 8.79937 27.0024 8.79937C27.0811 8.79937 27.1602 8.8016 27.239 8.80272ZM30.3202 8.4053C30.4376 8.43501 30.5501 8.53678 30.6292 8.68609L32.9484 13.6664C28.4921 16.4598 24.7055 20.2389 21.9017 24.6807L19.5395 16.0041L29.9013 8.52193C30.0116 8.44727 30.172 8.36816 30.3202 8.4053ZM32.5524 9.66254C35.188 10.5083 37.6137 11.9601 39.6167 13.8826C38.4936 16.0594 36.8129 17.9187 34.7694 19.2606L35.5761 16.1564L32.5524 9.66254ZM27.4574 26.7068L23.3131 29.8642L22.3846 26.4535C25.1048 21.7677 28.9389 17.7843 33.5151 14.8839L34.1673 16.2845L31.4582 26.7068H27.4574ZM29.0125 34.2365L24.7705 33.523L24.1859 30.8729L27.9068 28.0379H30.5223L29.0125 34.2365ZM30.36 34.3286L30.7403 32.7671C34.5625 33.9133 37.7051 36.8152 39.1551 40.5379C37.5112 42.015 35.5977 43.1976 33.4984 44.0021L30.36 34.3286ZM24.6952 34.8601L29.3891 35.6497L31.2157 41.2792C28.5672 40.8027 26.0029 39.9808 23.5705 38.8268L24.6952 34.8601ZM23.2422 32.7735L23.5311 34.0846L20.6987 44.0756C18.5237 43.27 16.5433 42.0599 14.8493 40.5371C16.2989 36.7966 19.3835 33.9334 23.2422 32.7735ZM45.2036 27.0006C45.2036 27.9287 45.1334 28.8405 44.9985 29.7319C41.0898 28.2158 37.0061 27.2056 32.8306 26.7187L34.294 21.0895C36.9411 19.6766 39.1376 17.5076 40.5872 14.8887C40.8004 15.1272 41.0081 15.3712 41.2086 15.6215C43.8223 18.8796 45.2036 22.8143 45.2036 27.0006ZM42.2471 14.7884C39.5919 11.4776 35.8933 9.0991 31.8051 8.06397C31.5455 7.57482 31.1351 7.23757 30.6448 7.11426C30.1505 6.99021 29.6168 7.10201 29.1414 7.42885L28.9512 7.56628C28.3064 7.50239 27.6524 7.46822 27.0024 7.46822C16.2321 7.46822 7.47004 16.2303 7.47004 27.0006C7.47004 37.7705 16.2321 46.5329 27.0024 46.5329C37.7727 46.5329 46.5347 37.7705 46.5347 27.0006C46.5347 22.5725 45.0119 18.2355 42.2471 14.7884Z" fill="white"/>
</svg>
