<svg width="168" height="180" viewBox="0 0 168 180" fill="none" xmlns="http://www.w3.org/2000/svg">
<path d="M166.67 17.4132C161.665 17.0358 158.177 15.7247 156.289 13.5039C153.149 9.94416 152.43 3.96098 152.272 0.711149C152.272 0.309886 151.952 0 151.553 0H150.968C150.755 0 150.569 0.095349 150.407 0.230428C150.301 0.361533 150.222 0.548261 150.222 0.750877C150.249 3.33326 149.025 10.0117 145.884 13.7065C143.913 16.1141 140.453 17.5999 135.879 18.0012C135.689 18.0012 135.531 18.029 135.397 18.0687C135.211 18.1085 135.025 18.2555 134.919 18.4581C134.812 18.6289 134.812 18.8434 134.891 19.0461C134.97 19.2447 134.97 19.3679 135.025 19.5546C135.025 19.8327 135.211 20.075 135.476 20.1545C135.586 20.1942 135.823 20.222 135.879 20.222C148.148 20.234 150.249 31.4137 150.407 38.0484C150.407 38.5331 150.834 38.986 151.683 38.986C151.817 38.986 152.003 38.9741 152.137 38.9463C152.43 38.8668 152.671 38.5967 152.698 38.263C152.963 34.6635 153.548 27.1826 156.633 24.3459C159.271 21.7198 162.463 20.2101 166.453 19.7532C166.773 19.7135 167.041 19.4712 167.12 19.1374C167.12 18.9904 167.148 18.8832 167.227 18.7243C167.334 18.4819 167.334 18.323 167.334 18.1601C167.334 17.7747 167.041 17.4649 166.67 17.4132Z" fill="#00AB96"/>
<path d="M71.5525 64.6037C74.5033 60.9089 77.2723 57.2697 79.0538 52.9989C80.9183 48.6486 82.2771 44.1632 82.8104 39.5228C83.4187 34.8507 83.2054 30.1786 82.4075 25.5621C82.2495 24.5569 81.9572 24.0245 80.8669 24.104C76.66 24.4536 72.4294 25.3634 68.3055 26.6188C64.2566 27.8385 60.346 29.5906 56.538 31.6803C52.8407 33.7542 48.9024 35.681 45.5764 38.5296C44.7785 39.1851 45.4974 40.1108 46.244 40.818C52.2008 46.829 51.7781 47.2461 57.7665 53.2531C63.6996 59.2482 62.4751 58.3941 68.4359 64.413C69.2614 65.2155 70.8059 65.5135 71.5525 64.6037Z" fill="#00AB96"/>
<path d="M86.0801 81.1822C86.8781 82.0245 86.8781 81.6789 87.7313 80.8485C92.6532 75.9221 112.001 55.7954 116.927 50.8015C121.872 45.8394 128.315 39.2245 127.517 38.5451C124.084 35.5615 120.517 32.4427 116.658 30.3411C112.72 28.1997 107.956 27.7984 103.698 26.5907C99.4158 25.3352 95.0746 24.3738 90.6307 24.1036C89.4061 23.9964 88.5292 24.6519 88.7939 25.8716C89.5128 31.0244 89.3548 36.9798 88.7939 42.1962C87.9959 49.4785 86.9057 51.5921 84.7766 56.4112C82.6751 61.1231 79.0528 65.4575 75.6202 69.5417C74.9012 70.4117 81.6876 76.7803 86.0801 81.1822Z" fill="#00AB96"/>
<path d="M108.094 103.975C114.055 109.947 113.336 109.931 119.269 115.914C125.234 121.881 126.162 121.241 132.071 127.237C132.897 128.067 134.015 128.198 134.734 127.288C137.527 123.999 139.257 120.491 141.307 116.784C143.353 112.982 145.699 109.212 146.924 105.139C148.144 101.004 148.492 95.4375 148.84 91.1547C148.891 90.0979 148.2 89.8158 147.161 89.5735C142.531 88.8941 137.74 88.6359 133.11 89.2C128.508 89.8039 124.329 91.0991 120.016 92.9624C113.095 95.9063 111.42 98.2463 107.746 101.258C106.814 101.969 107.296 103.149 108.094 103.975Z" fill="#00AB96"/>
<path d="M101.279 96.3467C102.022 97.0975 102.741 95.9732 103.594 95.3018C107.639 91.8493 121.504 79.4579 148.25 82.374C149.503 82.5091 147.642 73.0615 146.414 68.7509C145.193 64.4681 143.885 60.3482 141.733 56.3952C139.631 52.5018 137.099 49.0096 134.172 45.5572C133.481 44.7546 132.738 43.7495 132.019 44.5004C127.093 49.4506 123.953 52.1283 119.031 57.1064C113.576 62.6883 96.6221 80.0975 91.6726 85.0517C91.6726 85.0517 96.8868 91.9566 101.279 96.3467Z" fill="#00AB96"/>
<path d="M64.9829 69.6333C61.1473 65.4578 61.2026 65.3783 57.3433 61.175C53.4841 57.0114 53.2708 57.1902 49.4391 53.0385C45.5798 48.8233 45.3942 48.9583 41.5626 44.7669C40.7646 43.9128 39.6191 43.4559 38.8449 44.314C36.3168 47.0672 34.401 50.2535 32.4338 53.2928C30.4627 56.4115 29.2934 59.9037 27.9069 63.2647C26.5244 66.6775 25.1932 70.0067 24.3953 73.5704C23.5974 77.158 22.6928 80.7415 22.5032 84.3966C22.3175 88.0477 22.6928 91.7305 23.147 95.3578C23.463 98.0594 24.5533 102.771 25.2722 105.381C25.4855 106.291 -0.0599931 135.48 0.682632 136.255C1.67016 137.272 32.4062 104.388 36.1311 100.936C39.8048 97.4833 46.5397 89.9229 50.2647 86.4426C53.9897 82.9902 53.804 82.7915 57.5013 79.351C61.2263 75.8985 60.9617 75.6324 64.6629 72.1521C65.5122 71.3615 65.7532 70.4914 64.9829 69.6333Z" fill="#00AB96"/>
<path d="M96.9415 100.36C92.8689 96.3074 92.233 95.9737 88.1604 91.9054C87.3862 91.1267 87.7338 91.3691 87.0149 90.7652C86.5369 90.352 86.4302 90.5666 86.0313 90.8327C81.2911 94.2455 53.9325 121.937 52.6329 120.49C51.2978 119.044 83.3689 87.3922 82.5433 86.6056C82.0377 86.097 81.1608 85.2389 80.3865 84.4761C76.3416 80.392 76.0769 80.674 72.032 76.6098C71.2341 75.7755 70.6455 75.4974 69.8752 76.3118C66.0436 80.098 65.6999 79.7523 61.9197 83.5544C58.0841 87.3525 58.0841 87.3525 54.3315 91.1824C50.4998 94.9804 34.96 110.026 31.1521 113.852C30.4332 114.587 30.4885 115.671 30.9664 116.661C32.4043 119.179 34.4544 122.123 36.2359 124.503C37.9661 126.847 40.1228 128.949 42.2243 131.062C44.3258 133.164 46.7748 134.797 49.062 136.525C50.2628 137.407 51.914 138.639 53.9878 139.763C53.9878 139.763 47.2528 148.249 39.4829 157.347C30.4094 168.002 20.2418 179.512 20.6408 179.965C22.1063 181.653 77.6728 122.298 81.4531 118.484C85.2333 114.658 85.2333 114.626 89.0373 110.828C92.8176 107.026 92.5213 106.744 96.3016 102.918C97.1272 102.116 97.7118 101.166 96.9415 100.36Z" fill="#00AB96"/>
<path d="M100.347 107.749C96.8627 111.428 96.5151 111.122 93.0824 114.829C89.5708 118.508 75.0896 132.671 71.5779 136.362C68.1215 140.057 48.1339 161.431 49.3584 162.73C49.9154 163.314 67.5053 146.989 67.9319 147.124C70.9933 148.165 73.7347 149.262 76.9303 149.719C80.5487 150.199 84.2223 150.68 87.8643 150.549C91.5142 150.39 95.0259 149.051 98.6166 148.284C102.156 147.537 105.936 147.228 109.314 145.853C112.643 144.47 115.969 142.734 119.082 140.78C122.116 138.837 125.098 136.604 127.84 134.085C128.689 133.338 128.104 132.429 127.334 131.705C123.206 127.756 123.66 128.186 119.481 124.276C115.357 120.327 115.227 119.564 111.071 115.619C106.947 111.71 107.026 111.603 102.875 107.693C102.053 106.867 101.121 106.891 100.347 107.749Z" fill="#00AB96"/>
</svg>
