<svg width="56" height="48" viewBox="0 0 56 48" fill="none" xmlns="http://www.w3.org/2000/svg">
<path d="M29.4609 13.5771L25.793 13.8551L25.1816 19.2055L29.4609 19.6919L33.6722 19.8309L38.2232 20.0394H41.8232L45.2194 19.6919L48.9552 18.9971L52.4194 18.0938L55.0005 17.1904L54.7967 14.9669L54.3213 12.7433L53.3024 10.5197L52.1477 8.85205L48.2081 9.06051L45.2194 9.6164L41.8232 10.3808L38.2232 11.4231L33.6722 12.7433L29.4609 13.5771Z" fill="#BA3426" stroke="#BA3426"/>
<path d="M29.1889 23.0272L24.9775 22.7492V27.4048L29.1889 29.0725L32.653 31.0181L35.7775 32.9637L38.2907 34.6314L42.0266 37.3414L45.6945 33.1722L48.0719 30.2538L50.9247 26.71L52.7587 24.2084L53.8455 22.4018L54.253 21.0815L52.0115 21.8459L49.1587 22.4018L45.3549 23.0272L40.9398 23.4441H36.6606L32.653 23.2356L29.1889 23.0272Z" fill="#BA3426" stroke="#BA3426"/>
<path d="M26.2002 42.4135L26.8794 46.7912L28.1021 46.9996H29.5285L31.1587 46.3742L33.7398 44.915L36.4568 42.8304L39.5134 39.773L36.7285 37.6884L33.7398 35.7428L30.4794 33.6582L27.4228 32.06L24.9775 30.9482L25.1813 35.1869L25.6568 39.0782L26.2002 42.4135Z" fill="#BA3426" stroke="#BA3426"/>
<path d="M22.3966 37.6194L23.0758 44.3596L20.223 41.9276L17.9135 39.4955L15.2645 36.5771L12.3437 33.2418L9.89844 30.3233L10.9852 30.1149L13.5664 29.8369H17.0984L21.5815 30.1149L21.8532 33.2418L22.3966 37.6194Z" fill="#BA3426" stroke="#BA3426"/>
<path d="M5.34752 15.9393L3.37771 14.4106L3.03809 15.9393V17.885L3.37771 19.9001L3.78526 21.7762L4.66827 23.7218L6.02677 25.598L7.5211 27.5436L10.1702 26.9182L13.0909 26.4318H15.74H18.6607H21.6494V22.1931L19.7475 21.7762L17.1664 21.2203L14.7211 20.456L12.2758 19.6221L10.1702 18.7188L7.5211 17.3291L5.34752 15.9393Z" fill="#BA3426" stroke="#BA3426"/>
<path d="M15.5362 4.19616C15.7039 3.6582 16.0796 3.15387 16.3513 3.01489C16.623 2.87592 19.34 3.01489 19.34 3.01489C19.34 3.01489 21.0988 3.10739 22.1928 3.36232C23.7489 3.72497 25.9966 4.89103 25.9966 4.89103C24.6798 6.91984 24.0865 8.07851 23.2116 10.172C23.2116 10.172 21.1254 9.84772 19.8833 9.33816C18.5701 8.79942 17.7401 8.50473 16.7588 7.46203C16.177 6.84384 15.5362 5.65538 15.5362 5.65538C15.5362 5.65538 15.3669 4.73907 15.5362 4.19616Z" fill="#BA3426" stroke="#BA3426"/>
<path d="M28.7815 6.53594C27.6286 7.74223 26.9475 10.4272 26.9475 10.4272L30.9551 9.75511L35.0985 8.64332L40.6004 6.97564L45.2192 5.79437L48.8872 5.51643L47.5287 4.6131L45.2192 3.57081L42.9777 2.87594L40.6004 2.66748H38.4947L36.457 2.87594L35.3702 3.0844L33.9438 3.57081L32.7211 4.1267L31.2268 4.89105C31.2268 4.89105 29.672 5.60418 28.7815 6.53594Z" fill="#BA3426" stroke="#BA3426"/>
<path d="M12.344 3.91716C12.2081 3.84765 4.87239 9.33711 4.60057 10.7268C4.32876 12.1166 14.4534 18.7315 21.7855 18.6483L22.5327 13.3674C10.7138 10.7269 12.4798 3.98666 12.344 3.91716Z" fill="#BA3426" stroke="#BA3426"/>
<path d="M28.5097 12.7436L24.8418 13.0216L24.2305 18.372L28.5097 18.8585L32.721 18.9974L37.272 19.2059H40.872L44.2682 18.8585L48.0041 18.1636L51.4682 17.2603L54.0493 16.3569L53.8456 14.1334L53.3701 11.9098L52.3512 9.68623L51.1965 8.01855L47.2569 8.22701L44.2682 8.78291L40.872 9.54726L37.272 10.5896L32.721 11.9098L28.5097 12.7436Z" fill="#EF3F37" stroke="#EF3F37"/>
<path d="M28.2377 22.1937L24.0264 21.9157V26.5713L28.2377 28.239L31.7018 30.1846L34.8264 32.1302L37.3396 33.7979L41.0754 36.5079L44.7433 32.3387L47.1207 29.4203L49.9735 25.8765L51.8075 23.3749L52.8943 21.5683L53.3018 20.248L51.0603 21.0124L48.2075 21.5683L44.4037 22.1937L39.9886 22.6106H35.7094L31.7018 22.4021L28.2377 22.1937Z" fill="#EF3F37" stroke="#EF3F37"/>
<path d="M25.249 41.5805L25.9283 45.9582L27.1509 46.1666H28.5773L30.2075 45.5412L32.7886 44.082L35.5056 41.9974L38.5622 38.94L35.7773 36.8554L32.7886 34.9098L29.5283 32.8252L26.4717 31.227L24.0264 30.1152L24.2301 34.3539L24.7056 38.2452L25.249 41.5805Z" fill="#EF3F37" stroke="#EF3F37"/>
<path d="M21.4454 36.7859L22.1246 43.5261L19.2718 41.0941L16.9624 38.662L14.3133 35.7436L11.3925 32.4083L8.94727 29.4898L10.0341 29.2814L12.6152 29.0034H16.1473L20.6303 29.2814L20.902 32.4083L21.4454 36.7859Z" fill="#EF3F37" stroke="#EF3F37"/>
<path d="M4.39635 15.1059L2.42654 13.5771L2.08691 15.1059V17.0515L2.42654 19.0666L2.83408 20.9427L3.7171 22.8883L5.07559 24.7645L6.56993 26.7101L9.21899 26.0847L12.1397 25.5983H14.7888H17.7096H20.6982V21.3596L18.7963 20.9427L16.2152 20.3868L13.7699 19.6225L11.3246 18.7886L9.21899 17.8853L6.56993 16.4956L4.39635 15.1059Z" fill="#EF3F37" stroke="#EF3F37"/>
<path d="M14.585 3.36218C14.7527 2.82422 15.1284 2.31988 15.4001 2.18091C15.6718 2.04193 18.3888 2.18091 18.3888 2.18091C18.3888 2.18091 20.1477 2.2734 21.2416 2.52834C22.7977 2.89098 25.0454 4.05704 25.0454 4.05704C23.7286 6.08586 23.1353 7.24452 22.2605 9.33802C22.2605 9.33802 20.1742 9.01373 18.9322 8.50418C17.619 7.96543 16.789 7.67074 15.8076 6.62804C15.2259 6.00986 14.585 4.82139 14.585 4.82139C14.585 4.82139 14.4157 3.90508 14.585 3.36218Z" fill="#EF3F37" stroke="#EF3F37"/>
<path d="M27.8303 5.70196C26.6774 6.90824 25.9964 9.5932 25.9964 9.5932L30.0039 8.92112L34.1473 7.80934L39.6492 6.14166L44.2681 4.96039L47.936 4.68244L46.5775 3.77912L44.2681 2.73682L42.0266 2.04196L39.6492 1.8335H37.5435L35.5058 2.04196L34.419 2.25042L32.9926 2.73682L31.7699 3.29271L30.2756 4.05706C30.2756 4.05706 28.7208 4.7702 27.8303 5.70196Z" fill="#EF3F37" stroke="#EF3F37"/>
<path d="M11.3928 3.08513C11.2569 3.01562 3.92122 8.50508 3.6494 9.89481C3.37759 11.2845 13.5022 17.8995 20.8343 17.8163L21.5815 12.5353C9.76262 9.89482 11.5286 3.15463 11.3928 3.08513Z" fill="#EF3F37" stroke="#EF3F37"/>
<path d="M27.4228 11.9092L23.7549 12.1871L23.1436 17.5376L27.4228 18.024L31.6341 18.163L36.1851 18.3714H39.7851L43.1813 18.024L46.9171 17.3291L50.3813 16.4258L52.9624 15.5225L52.7586 13.2989L52.2832 11.0753L51.2643 8.85176L50.1096 7.18408L46.17 7.39254L43.1813 7.94843L39.7851 8.71279L36.1851 9.75508L31.6341 11.0753L27.4228 11.9092Z" fill="#F58632" stroke="#F58632"/>
<path d="M27.1508 21.3597L22.9395 21.0817V25.7373L27.1508 27.405L30.6149 29.3506L33.7395 31.2963L36.2527 32.9639L39.9885 35.6739L43.6564 31.5047L46.0338 28.5863L48.8866 25.0425L50.7206 22.541L51.8074 20.7343L52.2149 19.4141L49.9734 20.1784L47.1206 20.7343L43.3168 21.3597L38.9017 21.7766H34.6225L30.6149 21.5681L27.1508 21.3597Z" fill="#F58632" stroke="#F58632"/>
<path d="M24.1621 40.746L24.8413 45.1237L26.064 45.3321H27.4904L29.1206 44.7068L31.7017 43.2476L34.4187 41.163L37.4753 38.1055L34.6904 36.021L31.7017 34.0753L28.4413 31.9907L25.3847 30.3925L22.9395 29.2808L23.1432 33.5194L23.6187 37.4107L24.1621 40.746Z" fill="#F58632" stroke="#F58632"/>
<path d="M20.3585 35.9519L21.0377 42.6921L18.1849 40.2601L15.8754 37.8281L13.2264 34.9096L10.3056 31.5743L7.86035 28.6558L8.94714 28.4474L11.5283 28.1694H15.0604L19.5434 28.4474L19.8151 31.5743L20.3585 35.9519Z" fill="#F58632" stroke="#F58632"/>
<path d="M3.30943 14.2719L1.33962 12.7432L1 14.2719V16.2175L1.33962 18.2326L1.74717 20.1087L2.63019 22.0544L3.98868 23.9305L5.48302 25.8761L8.13208 25.2507L11.0528 24.7643H13.7019H16.6226H19.6113V20.5257L17.7094 20.1087L15.1283 19.5528L12.683 18.7885L10.2377 17.9547L8.13208 17.0513L5.48302 15.6616L3.30943 14.2719Z" fill="#F58632" stroke="#F58632"/>
<path d="M13.4981 2.52868C13.6658 1.99072 14.0415 1.48638 14.3132 1.34741C14.5849 1.20844 17.3019 1.34741 17.3019 1.34741C17.3019 1.34741 19.0608 1.43991 20.1547 1.69484C21.7108 2.05749 23.9585 3.22355 23.9585 3.22355C22.6417 5.25236 22.0484 6.41103 21.1736 8.50452C21.1736 8.50452 19.0873 8.18024 17.8453 7.67068C16.5321 7.13193 15.702 6.83725 14.7207 5.79455C14.1389 5.17636 13.4981 3.9879 13.4981 3.9879C13.4981 3.9879 13.3288 3.07159 13.4981 2.52868Z" fill="#F58632" stroke="#F58632"/>
<path d="M26.7434 4.86846C25.5905 6.07475 24.9094 8.75971 24.9094 8.75971L28.917 8.08762L33.0604 6.97584L38.5623 5.30816L43.1812 4.12689L46.8491 3.84895L45.4906 2.94562L43.1812 1.90332L40.9396 1.20846L38.5623 1H36.4566L34.4189 1.20846L33.3321 1.41692L31.9057 1.90332L30.683 2.45922L29.1887 3.22357C29.1887 3.22357 27.6339 3.9367 26.7434 4.86846Z" fill="#F58632" stroke="#F58632"/>
<path d="M10.3059 2.24968C10.17 2.18017 2.83431 7.66963 2.56249 9.05936C2.29067 10.4491 12.4153 17.064 19.7474 16.9809L20.4946 11.6999C8.6757 9.05937 10.4417 2.31918 10.3059 2.24968Z" fill="#F58632" stroke="#F58632"/>
</svg>
