<svg width="77" height="180" viewBox="0 0 77 180" fill="none" xmlns="http://www.w3.org/2000/svg">
<path fill-rule="evenodd" clip-rule="evenodd" d="M65.9577 179.687C66.9412 177.848 68.6878 171.894 65.4121 165.616C66.3956 162.153 63.7733 161.394 62.6821 153.71C63.7743 151.437 64.5383 148.73 64.4296 145.699C64.2112 142.994 62.2452 141.695 61.153 139.639C59.4054 132.711 58.4229 125.352 55.8006 118.857C54.9278 115.717 52.7434 113.011 51.2133 110.09C49.6842 102.296 48.9201 93.9625 46.5172 86.6023C46.9701 86.2609 47.3741 85.8602 47.7182 85.4112C46.0794 78.8091 43.6765 69.1754 40.1814 66.2525C41.0542 63.0054 42.3658 59.2175 42.8027 56.2946C44.3309 54.2385 46.0784 51.965 49.4648 50.4497C51.2123 55.2122 51.9773 61.1658 52.9599 65.9273C55.1443 70.6898 58.2025 74.9106 59.0763 79.2411C53.5065 81.4059 49.6832 86.4936 49.6832 92.4452C49.6832 100.131 55.9093 106.3 63.5539 106.3C69.2344 106.3 74.1489 102.727 76.3333 97.8572V166.913C76.3343 173.083 71.9654 178.28 65.9577 179.687Z" fill="#CC2229"/>
<path fill-rule="evenodd" clip-rule="evenodd" d="M59.4205 179.892C57.2361 174.697 58.5468 170.367 58.9837 164.414C58.438 161.708 58.0002 159.002 57.5633 156.405C54.506 151.75 53.4138 147.529 52.6488 142.55C46.8605 137.464 40.0878 133.025 35.5015 127.506C27.3093 119.82 21.3026 111.919 17.1522 103.043C15.7328 102.936 14.3134 102.826 12.7833 102.826C10.162 95.7915 4.15531 87.2402 4.70093 81.7205C4.91937 76.8493 6.44848 72.412 8.30476 67.433C6.66595 67.1078 5.13782 67.6495 3.39027 66.6749C0.660212 64.9431 1.0971 61.9124 0.98739 59.2059C2.18834 53.794 5.13781 49.248 7.10381 44.3778C9.0698 40.156 10.9271 35.9352 12.7833 31.8221C15.4047 28.8992 17.0435 26.8431 20.3192 25.4356C23.1589 25.1104 25.9997 25.5433 29.0569 24.8948C30.3676 24.4619 32.0064 24.1367 32.553 23.2708C33.8636 21.4303 33.5355 19.482 34.0821 17.2094C32.3345 16.2358 32.553 11.2568 34.519 9.525C34.519 6.06137 35.9383 1.40664 38.8878 0.216497L13.5484 2.04333e-05C11.812 -0.00302183 10.092 0.333681 8.48723 0.990817C6.88242 1.64795 5.42431 2.61259 4.19653 3.82941C2.96874 5.04623 1.99545 6.49128 1.33246 8.08169C0.66947 9.6721 0.329833 11.3766 0.33303 13.0973V166.903C0.329833 168.623 0.66947 170.328 1.33246 171.918C1.99545 173.509 2.96874 174.954 4.19653 176.171C5.42431 177.387 6.88242 178.352 8.48723 179.009C10.092 179.666 11.812 180.003 13.5484 180L59.4205 179.892ZM8.74068 147.855H14.5299L18.7891 161.383V147.855H24.0317V170.476H18.1337L13.7649 156.947V170.476H8.74068V147.855ZM24.9055 147.855H31.6772C40.5237 147.855 38.2306 158.46 34.9539 158.677C39.8684 158.137 40.5237 170.476 32.551 170.476H24.9055V147.855ZM30.1481 151.534V156.62H31.4598C33.6442 156.62 33.6442 151.534 31.4598 151.534H30.1481ZM30.1481 160.518V166.796H31.4598C33.9714 166.796 33.6442 160.518 31.4598 160.518H30.1481ZM42.5994 147.855H49.5896L53.6303 170.476H48.279L47.8411 166.472H44.1285L43.4722 170.476H38.2306L42.5994 147.855ZM44.6751 162.466H47.4052L45.9848 151.209L44.6751 162.466Z" fill="#33348E"/>
<path fill-rule="evenodd" clip-rule="evenodd" d="M47.9054 0.564843C51.6189 4.02847 53.9131 9.00744 50.418 15.0688C52.6024 16.4754 48.7792 18.9654 47.9054 20.9137C46.8142 23.9443 43.1006 25.6761 43.5375 26.7585C48.3423 29.6814 52.1655 32.6034 56.9713 36.3913C59.4839 39.5307 60.4664 52.0854 61.8858 61.6103C63.9615 67.5639 66.91 72.6506 68.0022 79.3614C71.8255 80.768 74.774 83.6909 76.3031 87.1546V13.1195C76.3063 11.3988 75.9666 9.69438 75.3036 8.10402C74.6406 6.51367 73.6673 5.06868 72.4395 3.85194C71.2117 2.6352 69.7536 1.67065 68.1488 1.01362C66.544 0.356585 64.8241 0.0200007 63.0877 0.0231698L47.9054 0.564843Z" fill="#CC2229"/>
</svg>
