<svg width="131" height="180" viewBox="0 0 131 180" fill="none" xmlns="http://www.w3.org/2000/svg">
<path d="M25.6992 27.7719C35.4135 21.5508 47.8027 24.3084 58.1249 27.2305C63.7371 28.8203 69.5368 30.2879 75.4088 30.5401C78.5201 30.6622 81.4414 30.2534 84.4028 29.5156C84.5528 29.4838 84.9624 29.367 85.3534 29.2661C85.8809 29.1202 86.0629 28.6265 85.7711 28.1594C78.3622 16.3781 65.9756 6.5369 51.613 5.66637C51.0614 5.62922 50.1885 5.75661 49.6771 5.96628C44.4263 7.92231 39.5504 10.8683 35.3733 14.6025C33.1349 16.5798 31.0999 18.7853 29.3059 21.1607C28.425 22.3258 27.603 23.544 26.8345 24.7888C26.4355 25.4417 26.0553 26.1131 25.6804 26.7873C25.5278 27.0792 24.8129 28.3425 25.6992 27.7719Z" fill="#95569E"/>
<path d="M89.774 26.6439C90.0631 27.1004 90.695 27.3127 91.1931 27.0686C94.1411 25.6699 97.697 23.5891 99.8979 21.8746C100.388 21.5243 101.028 21.1501 100.891 20.452C100.771 19.7779 99.9435 19.0932 99.5097 18.5862C98.4654 17.3972 97.3569 16.2507 96.1868 15.1838C95.1693 14.3318 92.8318 12.4103 92.8318 12.4103C87.9398 8.69197 82.2606 5.99811 76.2708 4.54104C73.2692 3.79526 70.2007 3.37592 67.1054 3.25118C65.5738 3.20075 64.0262 3.21137 62.4732 3.31487C62.0528 3.34407 58.3095 3.50331 58.2908 3.87222C60.2374 4.25441 62.1144 4.7746 63.9057 5.39564C74.7259 9.16173 83.7413 17.0681 89.774 26.6439Z" fill="#95569E"/>
<path d="M96.4469 28.6692C95.7802 29.0805 95.1081 29.468 94.4334 29.8529C94.0157 30.097 93.5685 30.312 93.1347 30.5429C92.6474 30.7898 92.4841 31.4453 92.7251 31.9416C93.3195 33.1465 93.8684 34.3939 94.3959 35.6493L94.4709 35.8484H94.4735C96.9878 42.1942 98.4872 48.8744 98.6693 55.7033C98.6747 56.242 99.0736 56.4756 99.5529 56.2208C102.198 54.8195 104.785 53.2881 107.227 51.5868C107.762 51.2153 108.285 50.8384 108.767 50.427C109.364 49.944 110.095 49.4689 110.445 48.7683C110.818 48.0888 110.697 47.2661 110.67 46.5097C110.63 45.5436 110.574 44.5855 110.467 43.6141C109.886 37.7035 108.111 31.9867 105.229 26.7795C104.806 26.0045 104.402 25.057 103.821 24.3962C103.302 23.8043 102.841 24.29 102.399 24.6563C101.749 25.1897 101.05 25.6621 100.37 26.1399C99.0951 27.029 97.7777 27.8836 96.4469 28.6692Z" fill="#95569E"/>
<path d="M93.6013 63.4952C91.9037 64.4932 90.2088 65.4592 88.5889 66.5739C86.4093 68.0682 84.3368 69.7083 82.3286 71.3937C76.7485 76.0701 71.7254 81.349 65.259 84.9028C60.5035 87.5011 55.1537 89.2209 49.6861 89.1147C49.1425 89.1147 48.5963 89.0882 48.0634 89.0298C47.9992 89.0324 46.7969 88.9342 48.8721 89.7384C50.6205 90.4179 52.377 91.0017 54.1817 91.4689C57.767 92.3845 61.4809 92.8835 65.1813 92.9286C70.0278 92.9817 74.8662 92.2704 79.4743 90.8027C79.9991 90.6434 80.7837 90.2241 81.2014 89.8764C89.0441 83.5572 93.272 73.8062 94.3618 63.9756C94.4234 63.4368 94.0806 63.2272 93.6013 63.4952Z" fill="#95569E"/>
<path d="M103.21 73.095C105.162 70.1065 106.635 66.8368 107.915 63.5192C108.616 61.7436 109.154 59.8911 109.588 58.0359C109.786 57.1442 109.968 56.2365 110.11 55.3341C110.167 54.9493 110.606 53.1047 109.679 53.8611C106.919 56.1463 102.605 58.7552 99.3946 60.5546C98.9153 60.8253 98.4816 61.4782 98.4307 62.017C97.5792 70.8231 94.3982 79.5204 88.6387 86.3493C88.288 86.7633 88.379 86.8801 88.8476 86.5935C94.5 83.2149 99.6303 78.5915 103.21 73.095Z" fill="#95569E"/>
<path d="M1.83412 56.9691C2.03494 57.8422 2.69631 58.3306 3.47549 58.673C5.67647 59.6443 8.27106 59.8513 10.6381 60.069C13.6075 60.3317 16.6011 60.4114 19.5839 60.3423C19.857 60.3397 20.1301 60.3238 20.3925 60.3264C35.6736 59.8328 50.802 57.4654 65.502 53.3197C70.1691 52.006 74.8067 50.5569 79.3693 48.8769C81.6506 48.0435 83.9185 47.1544 86.1543 46.2016C87.2682 45.7371 88.3633 45.2568 89.4451 44.7631C90.1573 44.4367 90.9338 44.15 91.6461 43.7811C92.1387 43.5422 92.3904 42.8575 92.2325 42.3373C91.3274 39.3488 90.1761 36.4188 88.7998 33.6055C88.5588 33.1118 87.9483 32.8836 87.4262 33.0694C84.7004 34.0567 81.7818 34.76 78.9221 35.0944C74.9432 35.5509 70.9134 35.2351 66.9908 34.5795C58.9499 33.2445 51.1903 30.5799 42.9754 30.3622C38.1852 30.2295 33.1754 30.8002 28.8993 33.08C26.8188 34.1973 24.9793 35.7208 23.5628 37.6104C22.0178 39.6912 21.1396 42.0241 20.5612 44.5163C20.1248 47.2977 20.2399 50.1614 20.5452 52.9455C20.6683 54.1372 20.8397 55.0502 22.1946 55.2068C23.1183 55.3262 24.0501 55.3766 24.9659 55.4271C27.1508 55.5332 29.3384 55.573 31.5206 55.5757C32.4631 55.5863 33.4083 55.589 34.3535 55.581C34.7364 55.581 35.1327 55.5757 35.5397 55.5783C35.6682 55.5704 36.3992 55.727 34.2598 56.0534C33.3173 56.202 32.3882 56.3188 31.435 56.4197C29.6169 56.624 27.7961 56.7727 25.978 56.8788C22.3043 57.0911 18.6119 57.2265 14.941 57.1893C13.1229 57.1655 11.3075 57.1044 9.50811 56.9054C8.68341 56.8231 7.86139 56.6904 7.07418 56.4674C6.52795 56.3082 5.6256 56.0985 5.37926 55.5014C4.95352 54.4689 7.06347 53.3941 7.74893 53.0251C8.47992 52.6323 9.23232 52.2926 10.0035 52.0086C10.7157 51.7485 10.7237 51.4035 10.389 51.4407C10.124 51.4778 9.58041 51.6158 9.31533 51.6636C8.54418 51.8547 7.78106 52.0803 7.03669 52.3457C5.79161 52.7942 4.55456 53.3197 3.47549 54.0974C2.58653 54.7582 1.56368 55.7615 1.83412 56.9691Z" fill="#95569E"/>
<path d="M92.6423 47.9534C85.2736 51.4011 77.8191 54.6443 70.0862 57.2559C58.1174 61.2847 45.7014 63.9547 33.1756 65.5604C28.9503 66.0938 24.7492 66.484 20.5212 66.7759C18.588 66.9086 16.6467 67.0493 14.7055 67.1395C13.7308 67.1953 12.7455 67.2165 11.7628 67.2377C10.8497 67.2484 9.94204 67.259 9.03969 67.251C8.61931 67.251 8.20964 67.2457 7.79997 67.251C7.24035 67.259 7.30729 67.474 7.7598 67.5695C8.83887 67.7977 10.6088 68.0207 11.2085 68.1056C13.5916 68.4958 15.9881 68.801 18.3845 69.0345C19.8465 69.1911 21.3111 69.3212 22.7758 69.4061C24.0878 69.4963 25.1187 69.422 25.7559 70.7092C26.1388 71.4869 26.578 72.23 27.0921 72.9386C27.317 73.2518 28.0185 73.8649 27.898 74.3134C27.7588 74.7991 26.5806 74.6664 26.2084 74.6823C24.9901 74.6877 23.7638 74.6797 22.5375 74.6585C21.9002 74.6372 21.2495 74.6213 20.6016 74.5974C19.7849 74.5709 19.7849 74.7752 20.5882 74.9106C23.006 75.3167 28.0105 75.9377 30.4792 76.1261C31.9706 76.166 33.4621 76.1898 34.9615 76.166C35.7005 76.1633 36.4503 76.158 37.1893 76.1447C37.6177 76.1288 38.022 76.1182 38.437 76.1102C38.4879 76.1129 40.4345 76.4446 33.3309 77.0232C32.9962 77.0498 31.1084 77.0312 31.4003 77.692C31.5369 78.0185 33.0149 79.1013 33.4058 79.3933C36.228 81.421 39.4947 82.7692 42.8979 83.4619C49.6829 84.8367 56.6501 83.4699 62.7737 80.4204C70.3834 76.6251 76.2742 70.3085 83.1101 65.3693C84.9576 64.037 86.8908 62.8188 88.8535 61.6483C89.8335 61.0618 90.843 60.4938 91.8417 59.9418C92.321 59.687 92.803 59.4242 93.2742 59.1668C93.4965 59.0474 93.7642 58.9492 94.0079 58.8297C94.4095 58.6227 94.6693 57.938 94.6585 57.3939C94.5943 54.416 94.2864 51.4382 93.7348 48.5028C93.6277 47.9614 93.1457 47.7199 92.6423 47.9534Z" fill="#95569E"/>
<path d="M119.555 0C119.311 0 119.065 0.345026 118.893 1.03242C117.967 4.21993 117.305 5.69823 116.518 6.83151C115.731 7.96213 114.818 8.75039 112.491 10.2632C112.068 10.51 112.068 10.9373 112.491 11.1841C114.738 12.6439 115.694 13.5064 116.481 14.5707C117.319 15.7146 117.935 17.1133 118.893 20.4149C119.065 21.105 119.308 21.45 119.552 21.45C119.796 21.45 120.037 21.1103 120.205 20.4361C121.167 17.1611 121.798 15.7995 122.653 14.6503C123.434 13.5914 124.374 12.689 126.61 11.1974C127.03 10.9426 127.028 10.5047 126.61 10.2499C124.315 8.72119 123.397 7.85597 122.612 6.75189C121.796 5.61065 121.142 4.21197 120.205 1.01385C120.037 0.339717 119.798 0 119.555 0ZM119.563 5.07453C120.023 6.2025 120.492 7.06241 121.051 7.84801C121.788 8.88043 122.631 9.72177 123.978 10.7276C122.698 11.6884 121.855 12.5271 121.11 13.5277C120.524 14.3186 120.045 15.1838 119.565 16.3516C119.083 15.1201 118.609 14.2496 118.023 13.4534C117.308 12.482 116.489 11.6831 115.187 10.7276C116.601 9.7085 117.378 8.93086 118.09 7.90905C118.631 7.13142 119.099 6.24497 119.563 5.07453Z" fill="#95569E"/>
<path d="M7.40654 21.8721C7.22981 21.8721 7.05309 22.1189 6.92992 22.6126C6.26053 24.9057 5.78659 25.9726 5.22162 26.7847C4.65397 27.5969 3.99796 28.1648 2.32446 29.253C2.02189 29.4308 2.02189 29.736 2.32446 29.9139C3.93905 30.9649 4.62719 31.5833 5.19216 32.3476C5.7973 33.173 6.23643 34.1789 6.92992 36.5516C7.05042 37.0479 7.22714 37.2974 7.40386 37.2974C7.5779 37.2974 7.75195 37.0532 7.87512 36.5676C8.56326 34.2134 9.01845 33.2314 9.63162 32.406C10.1939 31.6443 10.8687 30.9994 12.4779 29.9245C12.7831 29.7413 12.7805 29.4255 12.4779 29.2424C10.8285 28.1436 10.1671 27.5199 9.60216 26.729C9.01577 25.9063 8.54719 24.9004 7.87512 22.5993C7.75195 22.1136 7.58058 21.8721 7.40654 21.8721ZM7.41457 26.2725C7.66894 26.8086 7.9367 27.2625 8.23927 27.6845C8.72927 28.3719 9.27818 28.9451 10.1002 29.5874C9.32102 30.2005 8.77211 30.7632 8.28479 31.4267C7.96348 31.8593 7.68233 32.3184 7.41992 32.8784C7.14949 32.2866 6.87102 31.8142 6.54167 31.3709C6.07042 30.7313 5.54293 30.1925 4.76107 29.5901C5.60987 28.9451 6.12129 28.4143 6.5979 27.7243C6.89512 27.3023 7.15752 26.8325 7.41457 26.2725Z" fill="#95569E"/>
<path d="M38.5445 92.5651C38.432 92.5651 38.3196 92.7244 38.2419 93.0429C37.8135 94.5105 37.5083 95.1926 37.1468 95.7102C36.7853 96.233 36.3649 96.5913 35.2939 97.2867C35.1011 97.4035 35.1011 97.5999 35.2939 97.714C36.3274 98.3854 36.7666 98.7809 37.1307 99.2666C37.5163 99.7947 37.7974 100.44 38.2419 101.958C38.3196 102.274 38.432 102.433 38.5418 102.433C38.6543 102.433 38.7667 102.276 38.8444 101.966C39.2835 100.464 39.5754 99.8372 39.969 99.3064C40.3278 98.8181 40.7615 98.404 41.7871 97.7166C41.9852 97.6025 41.9825 97.4008 41.7871 97.2814C40.7348 96.5807 40.3117 96.1773 39.9502 95.673C39.5754 95.1502 39.2755 94.5052 38.8444 93.0322C38.7667 92.7244 38.6543 92.5651 38.5445 92.5651Z" fill="#95569E"/>
<path d="M63.4787 174.119V159.412C63.4305 159.588 63.3796 159.763 63.3233 159.943C61.7837 164.949 60.2495 169.952 58.7045 174.957C56.4794 175.345 54.265 175.727 52.04 176.122V155.649C51.8124 153.791 51.5875 151.949 51.3572 150.091C51.3572 150.091 55.877 149.306 58.0458 148.924V163.587C58.0994 163.415 58.1529 163.234 58.2091 163.062C59.7381 158.072 61.275 153.075 62.8066 148.09C65.0691 147.692 67.3451 147.297 69.6077 146.899V173.041C67.5727 173.397 65.527 173.752 63.4787 174.119Z" fill="#202A25"/>
<path d="M95.3681 157.876C94.8942 154.657 94.4149 151.419 93.9436 148.194C93.7241 148.226 93.5125 148.268 93.3063 148.3C92.819 151.7 92.3371 155.094 91.8497 158.476C93.0172 158.277 94.1926 158.078 95.3681 157.876ZM96.158 163.134C94.4711 163.431 92.7601 163.728 91.0598 164.025C90.7948 165.822 90.5511 167.627 90.2967 169.413C88.3474 169.763 86.3928 170.09 84.4462 170.44C85.9269 161.472 87.421 152.493 88.9017 143.525C92.088 142.968 95.2556 142.421 98.4232 141.869C99.8799 150.336 101.342 158.792 102.809 167.258C100.849 167.598 98.8891 167.937 96.9104 168.269C96.656 166.56 96.4043 164.848 96.158 163.134Z" fill="#202A25"/>
<path d="M0.66687 148.069V117.322L4.18255 113.028L20.1919 110.233L23.7611 113.219V124.488C20.7596 125.016 17.7606 125.542 14.7698 126.067V118.8C14.7698 118.8 9.03168 119.78 7.78928 119.976C6.18272 120.231 6.18272 120.231 8.63272 121.173C9.36906 121.457 9.70376 121.757 9.70376 122.487V142.493L14.909 141.572V133.167C17.9347 132.633 20.955 132.102 23.9834 131.577V143.977L20.4141 148.213L4.18255 151.055L0.66687 148.069Z" fill="#202A25"/>
<path d="M51.1773 104.787C49.3833 116.112 45.6507 140.213 45.6507 140.213L42.1324 144.404L30.6348 146.416L29.5477 139.09C29.5477 139.09 35.358 138.084 37.7732 137.665C37.7732 137.665 38.2498 134.387 38.4185 133.278C36.9191 133.541 33.0205 134.22 33.0205 134.22L29.8154 131.489C29.8154 131.489 27.1646 116.361 25.9061 109.195C28.8542 108.683 32.0619 108.12 35.0287 107.605C35.9123 113.686 36.7959 119.774 37.6742 125.863C38.2552 125.759 38.8389 125.65 39.4199 125.552C40.2848 119.161 41.1497 112.77 42.0172 106.379C44.984 105.862 48.1998 105.307 51.1773 104.787Z" fill="#202A25"/>
<path d="M53.0515 104.46C53.3728 107.157 53.7022 109.838 54.0315 112.526V142.323C57.0492 141.795 60.0748 141.275 63.0952 140.744V118.046H63.1005V113.789C63.1005 113.065 62.7685 112.765 62.0268 112.481C60.2221 111.786 59.7482 111.605 60.2676 111.451C62.6909 111.042 66.8117 110.331 68.1853 110.092V139.857C71.2217 139.327 74.2581 138.79 77.2918 138.268V100.24C69.259 101.634 53.0435 104.46 53.0515 104.46Z" fill="#202A25"/>
<path d="M91.8975 127.909V120.05C94.8081 119.53 99.9758 118.609 99.9758 118.609L99.9732 110.814C99.9732 110.814 95.0517 111.685 91.8975 112.229V108.327C91.8975 107.6 91.5628 107.298 90.8238 107.014C88.9067 106.276 88.4889 106.117 89.1717 105.96C93.1024 105.286 99.4082 104.187 102.447 103.662V95.8455C95.6301 97.0398 81.7655 99.463 81.7655 99.463C82.0975 102.144 82.4269 104.84 82.7509 107.521V137.323C89.3966 136.155 96.0478 135.009 102.712 133.846V126.025C99.1083 126.662 95.4989 127.285 91.8975 127.909Z" fill="#202A25"/>
<path d="M121.474 114.275C121.474 114.275 117.755 114.939 116.376 115.172V108.075H116.382V103.818C116.382 103.094 116.05 102.794 115.311 102.51C113.49 101.809 113.024 101.629 113.562 101.477C116.43 100.984 121.474 100.116 121.474 100.116V114.275ZM127.049 91.5381C127.049 91.5381 113.187 93.9665 106.341 95.1555C106.625 97.8494 106.911 100.551 107.189 103.253V133.037C110.25 132.506 113.316 131.967 116.376 131.436V122.829C119.855 122.224 127.017 120.971 127.017 120.971L130.667 116.661V94.5212L127.049 91.5381Z" fill="#202A25"/>
<path d="M78.2372 151.347C80.5747 150.938 83.9512 150.352 85.2578 150.126C85.5925 148.085 85.9272 146.036 86.278 143.977C81.9885 144.736 73.1846 146.272 73.1846 146.256C73.4068 148.112 73.6317 149.967 73.8566 151.811V172.282C75.9157 171.934 77.9775 171.56 80.0419 171.212V154.205C80.0419 154.2 80.0419 154.197 80.0419 154.192V152.926C80.0419 152.443 79.817 152.239 79.3243 152.053C78.0364 151.557 77.7659 151.45 78.2372 151.347Z" fill="#202A25"/>
<path d="M31.4291 153.597C31.7182 155.442 31.994 157.273 32.2805 159.126L32.0342 174.089C31.4264 174.201 30.0983 174.426 29.4932 174.538C29.6619 176.356 29.8359 178.174 30.0046 180C31.8066 179.673 35.4053 179.05 35.4053 179.05L37.941 175.878L38.2462 159.994C38.2462 159.508 38.0213 159.306 37.5286 159.118C36.1818 158.6 35.9489 158.51 36.5111 158.396C36.6022 158.38 40.7578 157.653 41.3763 157.544V178.004C43.4622 177.64 45.5614 177.264 47.6473 176.9V150.763C42.1582 151.726 31.4291 153.597 31.4291 153.597Z" fill="#202A25"/>
</svg>
