<svg width="35" height="54" viewBox="0 0 35 54" fill="none" xmlns="http://www.w3.org/2000/svg">
<path d="M17.4324 9.12723C18.0881 8.77988 18.7403 8.4172 19.3823 8.03664C19.6973 7.85105 20.008 7.66034 20.317 7.46453C20.5181 7.33768 20.7432 7.21593 20.9444 7.07546C21.0839 6.98011 21.1318 6.76812 21.0599 6.61317C20.6645 5.73883 20.1929 4.89683 19.663 4.094C19.5697 3.95608 19.3729 3.91096 19.2248 3.98673C18.4365 4.40134 17.5831 4.73082 16.728 4.94962C15.5416 5.25015 14.3057 5.3174 13.0885 5.27824C10.5917 5.19821 8.13342 4.70272 5.62977 4.97175C4.48623 5.09264 3.32214 5.35061 2.29158 5.87504C1.96546 8.05112 1.52465 11.2131 1.11807 14.8084C5.34474 14.0174 9.4627 12.7498 13.4095 11.0411C14.7704 10.4528 16.1194 9.82109 17.4324 9.12723Z" fill="#D24351"/>
<path d="M19.6711 1.93769C19.7755 2.06625 19.9818 2.10201 20.1213 2.00836C20.8831 1.51286 21.7665 0.824967 22.3682 0.246043C20.931 0.108122 19.3826 0.0136217 17.7777 0C18.4582 0.593397 19.0933 1.24384 19.6711 1.93769Z" fill="#D24351"/>
<path d="M10.0966 3.40308C11.8649 3.65849 13.683 3.86792 15.4728 3.70361C16.422 3.61763 17.2959 3.37243 18.1613 3.02848C18.2041 3.01231 18.3214 2.95952 18.4386 2.91525C18.5918 2.8497 18.6304 2.6905 18.5234 2.56279C17.7539 1.63736 16.8671 0.777491 15.8973 0.0214844C9.35531 0.226662 3.99793 1.68249 3.75656 1.74889L2.91088 1.98302L2.76451 2.848C2.75253 2.93654 2.70888 3.18599 2.64639 3.5725C4.98998 2.78585 7.70761 3.05828 10.0966 3.40308Z" fill="#D24351"/>
<path d="M22.3544 12.9959C21.8802 13.3697 21.4 13.7349 20.9541 14.1368C20.3583 14.6808 19.7977 15.264 19.2559 15.8608C17.7563 17.5099 16.4501 19.3207 14.6363 20.6624C13.3019 21.6492 11.7518 22.3856 10.0887 22.5814C9.92091 22.6001 9.75571 22.6138 9.59051 22.6206C9.57083 22.624 9.3654 22.6333 9.44158 22.6785C9.55884 22.7525 9.73688 22.7687 9.86784 22.8028C10.4191 22.9407 10.9823 23.0403 11.5455 23.1109C12.6762 23.248 13.8197 23.248 14.9453 23.1075C16.4167 22.9288 17.8564 22.5116 19.1934 21.8799C19.3449 21.8092 19.5649 21.6517 19.6804 21.53C21.7955 19.2866 22.6771 16.1485 22.6026 13.1143C22.5983 12.9432 22.4836 12.8955 22.3544 12.9959Z" fill="#D24351"/>
<path d="M21.8603 20.2214C23.437 18.9588 24.7996 17.3455 25.6599 15.527C26.1298 14.5377 26.4413 13.4837 26.6955 12.4238C26.8299 11.8517 26.9207 11.2702 26.9737 10.6862C26.9968 10.4026 27.014 10.1217 27.0217 9.8399C27.0217 9.72156 27.0782 9.14179 26.8299 9.41167C26.0861 10.2145 24.8844 11.1902 23.9831 11.8687C23.8512 11.9683 23.7477 12.1828 23.7545 12.3489C23.8581 15.0672 23.2521 17.841 21.7884 20.1524C21.6994 20.2954 21.7302 20.3261 21.8603 20.2214Z" fill="#D24351"/>
<path d="M33.0716 23.0095C33.028 23.0316 32.9826 23.0503 32.939 23.0691C32.6616 23.1883 32.3886 23.3126 32.1061 23.4224C31.8305 23.5331 31.5523 23.6463 31.2767 23.7485C30.9977 23.8557 30.7255 23.9536 30.4524 24.049C29.9089 24.2397 29.3765 24.4134 28.8706 24.57C28.3631 24.7224 27.882 24.8663 27.4309 24.9855C26.9824 25.1123 26.5681 25.212 26.2018 25.3073C25.8329 25.395 25.5119 25.4682 25.2457 25.5304C24.7116 25.6504 24.4069 25.7143 24.4069 25.7143C24.4069 25.7143 24.721 25.7049 25.2645 25.6904C25.5402 25.6776 25.8714 25.6649 26.2497 25.6453C26.6332 25.6223 27.062 25.5993 27.5319 25.5593C28.001 25.5235 28.5111 25.475 29.0487 25.4163C29.5854 25.355 30.1554 25.2826 30.74 25.1932C31.0345 25.1498 31.3315 25.1021 31.6336 25.0476C31.9349 24.994 32.2397 24.9353 32.5486 24.8731C32.7626 24.8331 32.9723 24.7846 33.1863 24.7377C33.4251 28.6625 33.4996 32.5107 33.2557 35.7118L33.2317 36.0268C33.0905 37.7346 32.8534 39.2483 32.493 40.4717C29.9089 49.3395 19.3448 51.255 17.5191 51.8118L17.3847 51.8459L17.2503 51.8118C15.8722 51.3929 9.55191 50.39 5.39715 45.911L5.18915 45.6803C4.1894 44.5574 3.33174 43.2557 2.70947 41.7394C-0.281209 34.4177 7.98553 31.6533 17.2332 27.3131L17.2794 27.2901L18.8364 28.0955L18.5804 26.6729C23.6288 24.2414 28.8227 21.065 32.5221 16.8516C32.7284 18.8438 32.921 20.9245 33.0716 23.0095ZM32.5273 16.9086C32.5273 16.8848 32.5255 16.8635 32.5221 16.8559C32.5273 16.8771 32.5273 16.8899 32.5273 16.9086ZM32.5632 17.2092C32.57 17.2637 32.57 17.2534 32.5632 17.2092V17.2092ZM31.8896 1.98262L31.0465 1.74849C30.8693 1.70167 27.9651 0.912458 23.8728 0.410156C23.5569 0.711537 23.0108 1.21724 22.8619 1.35602C22.5127 1.67442 22.1532 1.98517 21.7791 2.28315C21.5942 2.43299 21.4051 2.58112 21.2185 2.7267C21.0986 2.81439 20.9711 2.89527 20.8487 2.98552C20.7126 3.08342 20.6912 3.28605 20.7845 3.42652C21.0148 3.77473 21.233 4.12974 21.4436 4.48817L21.477 4.54436V4.54691C22.4973 6.37733 23.2308 8.35249 23.5655 10.4196C23.5903 10.5839 23.7213 10.6401 23.8582 10.5413C24.596 10.0041 25.3202 9.43456 25.9929 8.81733C26.135 8.68196 26.2788 8.5483 26.4124 8.40357C26.5707 8.23159 26.7719 8.05792 26.8532 7.82805C26.9379 7.60925 26.866 7.3615 26.8275 7.13504C26.777 6.84217 26.7171 6.54931 26.6495 6.26325C26.2788 4.70867 25.6412 3.24348 24.7587 1.91366C24.7689 1.91621 24.7784 1.91876 24.7878 1.92132C27.9171 2.36573 30.146 2.93614 30.58 3.05022C30.6818 3.67171 31.305 7.51219 31.9281 12.6076C30.7974 16.7895 27.2058 22.1973 19.4304 25.5993L18.1174 25.412L17.4009 23.9656L16.6854 25.412L15.0796 25.6427L16.2728 26.787C12.267 28.0717 7.36668 28.8626 1.40073 28.8626C1.43924 27.5872 1.50087 26.2813 1.58304 24.9685C1.81501 25.0212 2.04782 25.0757 2.28064 25.1192C2.58707 25.1804 2.89093 25.2426 3.19308 25.2903C3.49009 25.3482 3.78968 25.395 4.08155 25.4401C4.66445 25.5304 5.23195 25.6044 5.76606 25.6649C6.30274 25.7236 6.81031 25.7713 7.27766 25.8088C7.7433 25.8505 8.17127 25.8692 8.55302 25.8964C8.93392 25.9143 9.26432 25.9296 9.53565 25.9399C10.0792 25.9577 10.3907 25.9663 10.3907 25.9663C10.3907 25.9663 10.0886 25.8998 9.55705 25.7807C9.29085 25.7194 8.97244 25.6427 8.60352 25.555C8.23889 25.4622 7.82461 25.3618 7.38123 25.2358C6.93015 25.114 6.45167 24.9736 5.94581 24.8186C5.43994 24.6611 4.91097 24.4874 4.37086 24.2967C4.09867 24.2014 3.82563 24.1035 3.55258 23.9945C3.2744 23.894 3.00135 23.7817 2.72317 23.6701C2.44498 23.5578 2.17022 23.4335 1.89461 23.3168C1.82956 23.2862 1.76194 23.2547 1.69774 23.2266C1.82271 21.5443 1.97079 19.862 2.13171 18.2265C2.31146 18.436 2.55026 18.6837 2.86953 18.9587C2.86953 18.9587 3.60479 19.7181 4.75005 20.2809C5.70614 20.7483 6.73414 21.0624 7.79551 21.1314C9.91141 21.277 11.9674 20.5789 13.6973 19.3997C15.8508 17.9354 17.3778 15.7695 19.2438 13.9944C19.7514 13.5126 20.2855 13.0622 20.835 12.6255C21.1106 12.4092 21.3905 12.1972 21.6713 11.9869C21.8057 11.8873 21.9392 11.7894 22.0753 11.6941C22.1386 11.6481 22.2105 11.6055 22.2816 11.5613C22.3945 11.4838 22.445 11.2607 22.4211 11.0956C22.2773 10.1914 22.0616 9.29664 21.774 8.42741C21.7209 8.26735 21.5634 8.21201 21.4188 8.30311C19.3277 9.65677 17.1998 10.9432 14.9641 12.0525C11.4975 13.768 7.84087 15.0808 4.10809 16.0794C3.04415 16.3629 1.97336 16.6132 0.894862 16.8422C-0.00559419 25.4384 -0.588494 35.7816 0.96505 41.1119C2.09062 44.9677 4.68842 48.1425 8.69425 50.5416C11.8304 52.4205 15.0317 53.3213 16.3969 53.7044C16.5861 53.7572 16.7427 53.7997 16.8668 53.838L17.4009 53.9998L17.9402 53.8355C18.0583 53.7997 18.2132 53.7572 18.4033 53.7044C19.7711 53.3213 22.9723 52.4205 26.1059 50.5416C30.1126 48.1425 32.7113 44.9677 33.8351 41.1119C36.7222 31.2098 32.2277 4.00119 32.0385 2.8476L31.8896 1.98262Z" fill="#D24351"/>
</svg>
