<svg width="120" height="245" viewBox="0 0 120 245" fill="none" xmlns="http://www.w3.org/2000/svg">
<path fill-rule="evenodd" clip-rule="evenodd" d="M46.2673 1.60528C43.4925 3.4328 41.4282 5.40363 41.4282 6.22554C41.4282 6.5437 41.2123 6.89848 40.9487 7.01463C40.3029 7.29744 38.2901 13.9087 38.2901 15.747C38.2901 17.3214 39.9608 23.5817 40.8483 25.3328C41.9856 27.5751 42.5166 33.9301 42.0258 39.4196C41.1728 48.9549 41.3209 55.8522 42.4381 58.6607C42.9929 60.0564 43.6306 61.1984 43.8547 61.1984C44.0787 61.1984 44.1591 62.495 44.0335 64.0795C43.7254 67.9801 44.9875 76.4865 46.5378 80.9546C47.5665 83.9203 47.6782 84.9853 47.1284 86.5729C46.755 87.6499 46.4493 89.6965 46.4493 91.1206C46.4493 94.6254 44.7704 102.478 43.9626 102.749C43.6042 102.869 43.3111 103.229 43.3111 103.549C43.3111 103.869 42.6051 105.603 41.7421 107.402C40.8791 109.201 40.173 110.933 40.173 111.249C40.173 111.566 39.792 112.72 39.3269 113.814C38.8612 114.908 37.9744 117.366 37.3562 119.275C36.738 121.185 35.9886 123.017 35.6917 123.347C35.3948 123.676 35.1519 124.445 35.1519 125.055C35.1519 125.664 34.5162 126.814 33.7385 127.611C29.7116 131.739 28.1752 137.643 29.5296 143.784C30.0029 145.928 30.5834 147.682 30.82 147.682C31.0567 147.682 31.4276 148.393 31.6441 149.261C31.8607 150.129 32.3151 150.839 32.6534 150.839C32.9923 150.839 33.2691 151.138 33.2691 151.504C33.2691 151.87 34.1151 153.078 35.1488 154.187C36.1831 155.297 37.0304 156.533 37.0317 156.934C37.0336 157.335 35.7821 158.401 34.2513 159.303C30.8728 161.294 29.1989 163.551 27.8055 167.99C27.2243 169.841 26.148 172.349 25.413 173.564C24.6781 174.78 23.881 176.307 23.6412 176.958C22.8027 179.238 17.8808 185.446 16.6368 185.792C14.2876 186.446 10.6744 190.595 10.6744 192.637C10.6744 194.59 8.98478 198.815 8.20338 198.815C7.9586 198.815 7.11444 200.113 6.32739 201.698C4.26249 205.856 4.85246 209.457 7.86509 211.089C9.93313 212.209 10.1553 212.215 12.4003 211.196C15.2021 209.926 16.9438 207.171 16.9689 203.972C16.9839 202.043 17.5607 201.047 20.4208 198.011C23.5295 194.711 23.8546 194.099 23.8546 191.541C23.8546 189.986 24.1144 188.715 24.432 188.715C24.749 188.715 25.4651 187.334 26.0224 185.646C26.7969 183.301 27.5482 182.3 29.2108 181.4C30.4071 180.751 31.3862 180.002 31.3862 179.734C31.3862 179.466 31.8393 179.246 32.3935 179.246C33.2232 179.246 33.3306 179.72 33.0011 181.929C31.9372 189.07 31.9046 190.032 32.6935 190.988C33.5728 192.053 33.4059 192.249 30.0669 194.072C27.5947 195.422 24.5908 199.169 22.7939 203.143C21.9083 205.103 20.9367 206.801 20.6361 206.916C20.3349 207.033 20.0888 207.529 20.0888 208.021C20.0888 208.513 19.8252 208.916 19.5032 208.916C19.1813 208.916 18.7501 209.448 18.5448 210.099C18.339 210.751 17.1559 212.335 15.9144 213.62C13.7679 215.843 13.5138 215.937 10.6882 215.546C7.61968 215.122 3.40012 216.337 2.38964 217.936C2.12415 218.356 1.9026 221.578 1.89695 225.094C1.89067 229.329 1.56995 232.252 0.946087 233.754C0.00275867 236.025 -0.329258 242.026 0.385614 243.899C0.651729 244.597 1.58564 244.898 3.48799 244.898C6.77301 244.898 7.46466 244.084 9.50571 237.823C10.5601 234.589 11.6114 232.766 13.4686 230.953C14.8588 229.595 16.2113 228.485 16.4737 228.485C16.736 228.485 16.9507 226.969 16.9507 225.116C16.9507 221.778 16.9883 221.712 21.1903 217.699C23.522 215.472 27.353 211.946 29.7035 209.862C32.054 207.779 34.8996 205.223 36.0269 204.181C37.1541 203.139 39.15 201.372 40.4617 200.253C43.0149 198.074 44.5664 195.604 44.5664 193.718C44.5664 193.077 45.0152 192.186 45.5631 191.738C48.228 189.563 50.2151 187.318 50.2151 186.484C50.2151 185.975 50.4975 185.559 50.8427 185.559C51.1879 185.559 51.4703 185.263 51.4703 184.901C51.4703 184.54 52.6001 181.926 53.9809 179.092C55.3616 176.259 56.4914 173.596 56.4914 173.174C56.4914 172.752 56.7035 172.313 56.9621 172.197C58.2776 171.609 61.4986 163.258 61.889 159.423C62.3058 155.336 62.3478 155.258 64.151 155.258C65.1615 155.258 66.5109 154.977 67.1492 154.633C68.4364 153.94 69.666 149.247 69.681 144.969C69.6898 142.402 71.4748 135.558 72.3698 134.657C72.6121 134.414 72.8098 133.82 72.8098 133.338C72.8098 132.856 73.6571 130.744 74.6927 128.644C75.7283 126.545 76.5756 124.43 76.5756 123.945C76.5756 123.46 76.7996 123.063 77.0733 123.063C77.3469 123.063 78.1101 121.43 78.7698 119.433C79.4288 117.437 80.1731 115.377 80.4236 114.856C81.2602 113.115 82.8519 107.375 82.8519 106.099C82.8519 105.406 83.1456 104.062 83.504 103.113L84.1561 101.387L85.5438 103.23C86.307 104.243 88.3531 106.492 90.0903 108.228C99.56 117.691 102.656 118.419 105.59 111.875C109.689 102.735 110.461 100.901 110.834 99.4073C111.052 98.5298 111.483 97.8121 111.791 97.8121C112.099 97.8121 112.351 97.3273 112.351 96.7345C112.351 96.1424 113.519 93.9815 114.948 91.9331C117.604 88.124 120.815 79.9894 119.812 79.6107C119.505 79.4945 119.254 78.7704 119.254 78.0003C119.254 77.2308 118.902 75.8363 118.47 74.9014C116.918 71.5418 112.351 73.3933 112.351 77.3829C112.351 78.4176 111.936 79.8152 111.429 80.4894C110.552 81.6553 110.506 81.6232 110.478 79.8209C110.462 78.7793 110.19 77.5155 109.873 77.013C109.419 76.2902 109.231 76.4221 108.976 77.6443C108.175 81.4723 107.86 83.9519 107.574 88.6587C107.404 91.4362 106.927 94.419 106.514 95.287C105.585 97.2332 102.311 102.266 101.278 103.336C100.437 104.206 99.1709 104.395 99.1696 103.651C99.169 103.391 98.4315 102.326 97.5303 101.284C96.629 100.242 95.1465 98.4036 94.2358 97.1972C89.3303 90.7002 85.5494 87.9901 77.8308 85.4367C75.9322 84.8085 74.0544 84.0586 73.6571 83.7695C72.5004 82.9261 73.364 78.1045 74.9142 76.7523C76.0778 75.7378 76.2912 74.7695 76.4789 69.6593C76.6634 64.6401 76.4952 63.3233 75.3711 60.9888C73.9244 57.9821 72.0271 56.7795 68.7302 56.7795C64.2106 56.7795 61.8187 59.2882 61.107 64.7765C60.8892 66.4537 60.4367 68.1784 60.1003 68.6076C59.29 69.6435 59.9126 71.9508 61.4497 73.6104C62.4539 74.695 62.5474 75.1476 61.9398 75.9834C61.2752 76.8981 60.8271 76.6708 58.0228 73.9999C55.3334 71.4376 54.7265 70.4124 53.9928 67.1955C53.5177 65.1123 52.4997 61.9875 51.7302 60.2515C50.6613 57.8401 50.2458 55.4034 49.9703 49.9265C49.6126 42.8259 48.7885 36.8491 47.6387 33.0154C47.2432 31.6973 47.269 30.5313 47.7152 29.5434C48.3391 28.1634 48.6862 28.0725 52.5455 28.2733C55.8512 28.445 57.2615 28.2095 59.4243 27.1231C64.1196 24.764 67.7699 19.0984 67.7699 14.1688C67.7699 9.5738 64.6048 4.16255 60.4348 1.6299C58.1238 0.225322 56.9878 -0.0290803 53.1706 0.00248324C49.45 0.0327842 48.2236 0.317487 46.2673 1.60528Z" fill="#EEF0F2"/>
</svg>
