<svg width="54" height="24" viewBox="0 0 54 24" fill="none" xmlns="http://www.w3.org/2000/svg">
<path d="M50.9522 11.2047L47.569 7.5556H48.778C49.2229 7.5556 49.5831 7.16737 49.5831 6.68774V0.868293C49.5831 0.389088 49.2229 0.000427099 48.778 0.000427099L23.0571 0C22.8418 0 22.6353 0.0931077 22.484 0.258182L18.9396 4.12621H14.9893L13.9524 0.605413C13.8463 0.244942 13.5352 0 13.1855 0H7.51493C7.1678 0 6.85988 0.240243 6.75057 0.59559L1.89111 16.445H0.804959C0.360004 16.445 0 16.8337 0 17.3129V23.1317C0 23.6113 0.360004 24 0.804959 24H46.8213C47.0381 24 47.2459 23.9058 47.3979 23.7384L50.9592 19.8063C51.1061 19.644 51.1883 19.4262 51.1883 19.1998V11.8187C51.1883 11.5885 51.1033 11.3675 50.9522 11.2047Z" fill="#161211"/>
<path d="M26.2507 18.4153H25.2616L24.457 17.5485V6.33752L25.2313 5.6185H26.2507V1.97021H23.4833L20.5415 5.18093V18.6072L23.4691 22.0287H26.2507V18.4153Z" fill="#F8A60F"/>
<path d="M30.3806 1.97021H27.6416V5.61828H28.6893L29.4388 6.33709V8.36112H33.3537V5.18777L30.3806 1.97021Z" fill="#F8A60F"/>
<path d="M29.4388 17.5533L28.6604 18.4154H27.6416V22.0289H30.1644L33.3537 18.6272V15.1626H29.4388V17.5533Z" fill="#F8A60F"/>
<path d="M8.9688 10.7992L10.2239 6.70483L11.4193 10.7992H15.0382L12.4376 1.97021H8.25355L5.54639 10.7992H8.9688Z" fill="#F8A60F"/>
<path d="M17.2815 18.4154L15.4795 12.2993H5.0867L3.21143 18.4154H1.82666V22.0289H7.95069V18.4154H6.60374L7.50534 15.5735H12.8052L13.6567 18.4154H12.3383V22.0289H18.7817V18.4154H17.2815Z" fill="#F8A60F"/>
<path d="M52.3587 18.6276C52.374 17.5308 52.1379 16.4242 51.6696 15.4064C51.8019 15.2766 51.929 15.1452 52.0518 15.012C52.3552 15.5016 52.7035 15.9085 53.0817 16.2053C53.0439 17.0962 52.7853 17.925 52.3587 18.6276ZM48.8694 20.8103C50.7955 19.173 51.0726 17.3657 50.7296 16.2365C50.9528 16.0586 51.168 15.8754 51.374 15.6866C51.8662 16.8007 52.0678 18.0211 51.9468 19.2027C51.1801 20.128 50.0904 20.7323 48.8694 20.8103ZM45.0139 18.8774C46.0278 18.6872 47.0503 18.354 48.0593 17.884C48.8987 17.4924 49.6888 17.0178 50.4048 16.4855C50.6718 17.5592 50.292 19.2714 48.2411 20.8047C46.9216 20.6905 45.7646 19.9582 45.0139 18.8774ZM44.1883 15.139C45.1208 14.8347 46.0293 14.6788 46.8903 14.6788C48.6595 14.6788 49.8472 15.3473 50.2021 15.9683C50.2242 16.008 50.2456 16.0503 50.2664 16.093C49.5512 16.6328 48.7565 17.1142 47.9094 17.5092C46.8741 17.9921 45.8224 18.3254 44.7788 18.5044C44.3604 17.7693 44.1153 16.9083 44.1153 15.9845C44.1153 15.6958 44.1432 15.4141 44.1883 15.139ZM46.427 11.7558C48.0349 11.9561 49.5593 12.9045 50.6256 14.3775C50.8409 14.6765 51.031 14.9898 51.1967 15.3139C50.9991 15.4978 50.792 15.6772 50.5765 15.851C50.5589 15.8177 50.5425 15.7852 50.5242 15.7541C50.013 14.8591 48.5846 14.2808 46.8856 14.2808C46.0383 14.2808 45.165 14.4164 44.2848 14.6823C44.6109 13.4283 45.3927 12.3778 46.427 11.7558ZM50.5413 11.6264C50.8484 12.1222 51.1062 12.692 51.3035 13.333C51.4498 13.8127 51.635 14.2552 51.8474 14.6562C51.732 14.7839 51.6114 14.9101 51.4864 15.0346C51.3205 14.7211 51.1334 14.4175 50.9235 14.1275C49.9244 12.7449 48.5395 11.7972 47.0466 11.4519C47.5323 11.2571 48.0553 11.1454 48.6034 11.1454C49.2979 11.1454 49.9537 11.3218 50.5413 11.6264ZM52.5734 13.7343C52.4324 13.9395 52.2827 14.1424 52.1185 14.341C51.9435 13.994 51.788 13.6156 51.6627 13.2053C51.5385 12.7994 51.3916 12.4178 51.2225 12.0629C51.7833 12.5002 52.248 13.0706 52.5734 13.7343ZM53.0773 15.6802C52.8025 15.4194 52.547 15.0908 52.3195 14.7092C52.4748 14.5259 52.6183 14.3397 52.7552 14.1516C52.9367 14.6278 53.0459 15.1429 53.0773 15.6802ZM48.6034 10.165C45.6276 10.165 43.2065 12.7755 43.2065 15.9845C43.2065 19.1937 45.6276 21.8048 48.6034 21.8048C51.5793 21.8048 54.0001 19.1937 54.0001 15.9845C54.0001 12.7755 51.5793 10.165 48.6034 10.165Z" fill="#161211"/>
<path d="M48.6032 11.1455C48.0551 11.1455 47.5321 11.2572 47.0464 11.452C48.5393 11.7973 49.9242 12.745 50.9233 14.1275C51.1332 14.4175 51.3203 14.7212 51.4862 15.0347C51.6112 14.9102 51.7318 14.7842 51.8472 14.6563C51.6348 14.2552 51.4496 13.8127 51.3033 13.3331C51.106 12.692 50.8482 12.1223 50.5411 11.6264C49.9535 11.3219 49.2977 11.1455 48.6032 11.1455Z" fill="#F8A60F"/>
<path d="M53.0772 15.68C53.0457 15.1427 52.9368 14.6276 52.755 14.1514C52.6182 14.3395 52.4746 14.5257 52.3193 14.7089C52.5469 15.0906 52.8023 15.4192 53.0772 15.68Z" fill="#F8A60F"/>
<path d="M51.2222 12.063C51.3913 12.4179 51.5382 12.7995 51.6624 13.2055C51.7877 13.6157 51.9432 13.9941 52.1182 14.3411C52.2824 14.1425 52.4321 13.9397 52.5731 13.7344C52.2477 13.0707 51.783 12.5003 51.2222 12.063Z" fill="#F8A60F"/>
<path d="M50.7294 16.2361C51.0723 17.3654 50.7955 19.1727 48.8691 20.8099C50.0901 20.732 51.1799 20.1277 51.9466 19.2023C52.0674 18.0208 51.866 16.8003 51.3739 15.686C51.1678 15.875 50.9525 16.0583 50.7294 16.2361Z" fill="#F8A60F"/>
<path d="M48.2408 20.8046C50.2917 19.2713 50.6716 17.5591 50.4046 16.4854C49.6886 17.0177 48.8985 17.4922 48.0592 17.8839C47.0501 18.3539 46.0275 18.687 45.0137 18.8773C45.7644 19.9581 46.9214 20.6904 48.2408 20.8046Z" fill="#F8A60F"/>
<path d="M53.0815 16.2055C52.7031 15.9085 52.355 15.5019 52.0518 15.0122C51.929 15.1455 51.8017 15.2768 51.6694 15.4066C52.1378 16.4244 52.3738 17.531 52.3586 18.6278C52.7851 17.9255 53.0437 17.0965 53.0815 16.2055Z" fill="#F8A60F"/>
<path d="M46.8855 14.2809C48.5845 14.2809 50.0128 14.8592 50.5241 15.7542C50.5424 15.7853 50.5588 15.8178 50.5764 15.8511C50.7919 15.6773 50.999 15.4979 51.1966 15.314C51.0309 14.9899 50.8408 14.6766 50.6253 14.3776C49.5592 12.9048 48.0348 11.9562 46.4269 11.7559C45.3926 12.3779 44.6108 13.4284 44.2847 14.6823C45.1649 14.4165 46.0382 14.2809 46.8855 14.2809Z" fill="#F8A60F"/>
<path d="M44.1152 15.9846C44.1152 16.9082 44.3602 17.7692 44.7788 18.5042C45.8224 18.3251 46.8741 17.9919 47.9095 17.5091C48.7567 17.114 49.5511 16.6325 50.2664 16.0928C50.2458 16.0503 50.2242 16.0078 50.202 15.9683C49.8472 15.3471 48.6596 14.6787 46.8901 14.6787C46.0295 14.6787 45.1208 14.8346 44.1883 15.1389C44.1434 15.414 44.1152 15.6956 44.1152 15.9846Z" fill="#F8A60F"/>
<path d="M47.5152 10.2844L46.3869 9.06738H42.0508V12.6497H44.1878C44.9651 11.4559 46.1451 10.5881 47.5152 10.2844Z" fill="#F8A60F"/>
<path d="M43.6918 18.3827H40.647L40.6602 5.61649H40.6777V5.58552H47.756V1.97119H35.3008V5.58552H36.7782V18.3827H35.3008V22.0291H46.3914L46.8767 21.4941C45.4589 20.9752 44.3058 19.8393 43.6918 18.3827Z" fill="#F8A60F"/>
<path d="M44.9422 18.8447C43.4606 16.6676 43.8958 13.6076 45.9143 12.01C47.9329 10.412 50.7708 10.8808 52.2526 13.0577C53.7345 15.2346 53.2991 18.2946 51.2801 19.8934C49.2622 21.4897 46.4246 21.0212 44.9422 18.8447Z" fill="#FBC709"/>
<path d="M48.3969 16.8123C47.6693 15.7428 47.882 14.2396 48.8743 13.4553C49.8656 12.6707 51.2593 12.9013 51.9858 13.9701C52.7143 15.0387 52.4997 16.5421 51.5094 17.3267C50.5177 18.1113 49.1244 17.8815 48.3969 16.8123Z" fill="#F4F01F"/>
<path d="M46.3013 18.0592C45.1467 16.3634 45.4865 13.9793 47.058 12.7348C48.6307 11.4904 50.8414 11.8554 51.9956 13.5514C53.1503 15.2465 52.8107 17.6315 51.2384 18.875C49.6661 20.1204 47.4556 19.7546 46.3013 18.0592ZM51.3402 19.947C53.3911 18.3234 53.8331 15.2149 52.3271 13.0034C50.8206 10.7912 47.9392 10.3148 45.8879 11.9376C43.8373 13.5618 43.3952 16.6709 44.9011 18.8822C46.4065 21.0939 49.2891 21.5706 51.3402 19.947Z" fill="#F58616"/>
<path d="M45.3579 18.6394C43.9868 16.6252 44.3896 13.7953 46.2566 12.3177C48.1229 10.8404 50.7477 11.2741 52.1184 13.2872C53.4891 15.3008 53.0861 18.1308 51.2192 19.6087C49.3524 21.0863 46.7276 20.6528 45.3579 18.6394ZM51.3012 19.9224C53.3348 18.3123 53.7723 15.2295 52.2792 13.0361C50.7867 10.8427 47.9277 10.3708 45.894 11.9801C43.8597 13.5905 43.4223 16.6729 44.9148 18.8662C46.4086 21.0592 49.2681 21.532 51.3012 19.9224Z" fill="#F25E1D"/>
<path d="M52.3587 18.6276C52.374 17.5308 52.1379 16.4242 51.6696 15.4064C51.8019 15.2766 51.929 15.1452 52.0518 15.012C52.3552 15.5016 52.7035 15.9085 53.0817 16.2053C53.0439 17.0962 52.7853 17.925 52.3587 18.6276ZM48.8694 20.8103C50.7955 19.173 51.0726 17.3657 50.7296 16.2365C50.9528 16.0586 51.168 15.8754 51.374 15.6866C51.8662 16.8007 52.0678 18.0211 51.9468 19.2027C51.1801 20.128 50.0904 20.7323 48.8694 20.8103ZM45.0139 18.8774C46.0278 18.6872 47.0503 18.354 48.0593 17.884C48.8987 17.4924 49.6888 17.0178 50.4048 16.4855C50.6718 17.5592 50.292 19.2714 48.2411 20.8047C46.9216 20.6905 45.7646 19.9582 45.0139 18.8774ZM44.1883 15.139C45.1208 14.8347 46.0293 14.6788 46.8903 14.6788C48.6595 14.6788 49.8472 15.3473 50.2021 15.9683C50.2242 16.008 50.2456 16.0503 50.2664 16.093C49.5512 16.6328 48.7565 17.1142 47.9094 17.5092C46.8741 17.9921 45.8224 18.3254 44.7788 18.5044C44.3604 17.7693 44.1153 16.9083 44.1153 15.9845C44.1153 15.6958 44.1432 15.4141 44.1883 15.139ZM46.427 11.7558C48.0349 11.9561 49.5593 12.9045 50.6256 14.3775C50.8409 14.6765 51.031 14.9898 51.1967 15.3139C50.9991 15.4978 50.792 15.6772 50.5765 15.851C50.5589 15.8177 50.5425 15.7852 50.5242 15.7541C50.013 14.8591 48.5846 14.2808 46.8856 14.2808C46.0383 14.2808 45.165 14.4164 44.2848 14.6823C44.6109 13.4283 45.3927 12.3778 46.427 11.7558ZM50.5413 11.6264C50.8484 12.1222 51.1062 12.692 51.3035 13.333C51.4498 13.8127 51.635 14.2552 51.8474 14.6562C51.732 14.7839 51.6114 14.9101 51.4864 15.0346C51.3205 14.7211 51.1334 14.4175 50.9235 14.1275C49.9244 12.7449 48.5395 11.7972 47.0466 11.4519C47.5323 11.2571 48.0553 11.1454 48.6034 11.1454C49.2979 11.1454 49.9537 11.3218 50.5413 11.6264ZM52.5734 13.7343C52.4324 13.9395 52.2827 14.1424 52.1185 14.341C51.9435 13.994 51.788 13.6156 51.6627 13.2053C51.5385 12.7994 51.3916 12.4178 51.2225 12.0629C51.7833 12.5002 52.248 13.0706 52.5734 13.7343ZM53.0773 15.6802C52.8025 15.4194 52.547 15.0908 52.3195 14.7092C52.4748 14.5259 52.6183 14.3397 52.7552 14.1516C52.9367 14.6278 53.0459 15.1429 53.0773 15.6802ZM48.6034 10.165C45.6276 10.165 43.2065 12.7755 43.2065 15.9845C43.2065 19.1937 45.6276 21.8048 48.6034 21.8048C51.5793 21.8048 54.0001 19.1937 54.0001 15.9845C54.0001 12.7755 51.5793 10.165 48.6034 10.165Z" fill="#161211"/>
</svg>
