<svg width="23" height="54" viewBox="0 0 23 54" fill="none" xmlns="http://www.w3.org/2000/svg">
<path fill-rule="evenodd" clip-rule="evenodd" d="M19.6872 53.906C19.9823 53.3542 20.5062 51.5681 19.5235 49.6847C19.8186 48.6457 19.0319 48.4179 18.7045 46.1129C19.0322 45.4308 19.2614 44.6189 19.2288 43.7097C19.1633 42.8981 18.5735 42.5084 18.2458 41.8916C17.7215 39.8131 17.4268 37.6053 16.6401 35.657C16.3782 34.7149 15.7229 33.9033 15.2639 33.0267C14.8052 30.6888 14.5759 28.1886 13.8551 25.9805C13.9909 25.8781 14.1121 25.7579 14.2154 25.6232C13.7237 23.6426 13.0029 20.7525 11.9543 19.8756C12.2162 18.9015 12.6097 17.7651 12.7407 16.8882C13.1992 16.2714 13.7234 15.5894 14.7393 15.1348C15.2636 16.5635 15.4931 18.3496 15.7879 19.778C16.4432 21.2068 17.3607 22.473 17.6228 23.7722C15.9518 24.4216 14.8049 25.9479 14.8049 27.7334C14.8049 30.039 16.6727 31.8898 18.9661 31.8898C20.6702 31.8898 22.1446 30.8181 22.7999 29.357V50.0738C22.8002 51.9248 21.4895 53.4838 19.6872 53.906Z" fill="#CC2229"/>
<path fill-rule="evenodd" clip-rule="evenodd" d="M17.7262 53.9677C17.0708 52.409 17.464 51.1102 17.5951 49.3241C17.4314 48.5124 17.3001 47.7005 17.169 46.9215C16.2518 45.5251 15.9242 44.2588 15.6946 42.7651C13.9582 41.2391 11.9264 39.9076 10.5504 38.2517C8.09281 35.9461 6.2908 33.5756 5.04567 30.9129C4.61985 30.8809 4.19403 30.8479 3.73501 30.8479C2.94861 28.7374 1.1466 26.1721 1.31029 24.5161C1.37582 23.0548 1.83455 21.7236 2.39143 20.2299C1.89979 20.1323 1.44135 20.2948 0.917087 20.0025C0.0980697 19.4829 0.229135 18.5737 0.196223 17.7618C0.556509 16.1382 1.44135 14.7744 2.03115 13.3133C2.62095 12.0468 3.17812 10.7805 3.73501 9.54663C4.5214 8.66976 5.01305 8.05294 5.99575 7.63067C6.84768 7.53311 7.6999 7.663 8.61708 7.46845C9.01027 7.33857 9.50192 7.24101 9.6659 6.98124C10.0591 6.42908 9.96065 5.84459 10.1246 5.16283C9.60036 4.87073 9.6659 3.37704 10.2557 2.8575C10.2557 1.81841 10.6815 0.421991 11.5664 0.0649491L3.96452 6.13e-06C3.4436 -0.000906549 2.92762 0.100104 2.44617 0.297245C1.96473 0.494386 1.5273 0.783778 1.15896 1.14882C0.79063 1.51387 0.498641 1.94739 0.299744 2.42451C0.100847 2.90163 -0.00104408 3.41297 -8.48424e-05 3.9292V50.0708C-0.00104408 50.587 0.100847 51.0984 0.299744 51.5755C0.498641 52.0526 0.79063 52.4861 1.15896 52.8512C1.5273 53.2162 1.96473 53.5056 2.44617 53.7028C2.92762 53.8999 3.4436 54.0009 3.96452 54L17.7262 53.9677ZM2.52221 44.3564H4.25898L5.53673 48.4149V44.3564H7.10953V51.1428H5.34013L4.02947 47.084V51.1428H2.52221V44.3564ZM7.37166 44.3564H9.40318C12.0571 44.3564 11.3692 47.538 10.3862 47.603C11.8605 47.441 12.0571 51.1428 9.66531 51.1428H7.37166V44.3564ZM8.94445 45.4601V46.9861H9.33794C9.99327 46.9861 9.99327 45.4601 9.33794 45.4601H8.94445ZM8.94445 48.1554V50.0388H9.33794C10.0914 50.0388 9.99327 48.1554 9.33794 48.1554H8.94445ZM12.6798 44.3564H14.7769L15.9891 51.1428H14.3837L14.2523 49.9415H13.1386L12.9417 51.1428H11.3692L12.6798 44.3564ZM13.3025 48.7399H14.1216L13.6955 45.3626L13.3025 48.7399Z" fill="#33348E"/>
<path fill-rule="evenodd" clip-rule="evenodd" d="M14.2716 0.169344C15.3857 1.20843 16.0739 2.70212 15.0254 4.52053C15.6807 4.94251 14.5338 5.6895 14.2716 6.27399C13.9442 7.18319 12.8302 7.70274 12.9612 8.02745C14.4027 8.90433 15.5497 9.78091 16.9914 10.9173C17.7452 11.8591 18.0399 15.6255 18.4657 18.483C19.0884 20.2691 19.973 21.7951 20.3007 23.8083C21.4476 24.2303 22.3322 25.1072 22.7909 26.1463V3.93575C22.7919 3.41953 22.69 2.90821 22.4911 2.4311C22.2922 1.95399 22.0002 1.5205 21.6319 1.15547C21.2635 0.790451 20.8261 0.501086 20.3446 0.303977C19.8632 0.106867 19.3472 0.00589187 18.8263 0.00684259L14.2716 0.169344Z" fill="#CC2229"/>
</svg>
