<svg width="50" height="50" viewBox="0 0 50 50" fill="none" xmlns="http://www.w3.org/2000/svg">
<path d="M49.9208 23.9287C49.8102 23.4369 49.3837 23.3185 49.0559 23.2869C48.1477 23.1802 47.2888 23.0598 46.4733 22.9373C43.8946 22.4989 39.8015 21.5806 35.3372 19.7796C30.4523 17.8088 24.6651 14.5898 21.9502 11.3393C20.8939 10.0419 20.262 8.7543 20.2679 7.55164C20.2679 7.55164 19.5058 1.4416 30.2806 4.75335C30.3358 4.86394 34.0874 15.5792 46.9018 16.9951C47.6916 17.084 48.4636 17.007 48.5445 16.5982C45.0931 6.92365 35.8545 0 24.9968 0C18.1631 0 11.9712 2.743 7.45749 7.18828C7.34692 7.30874 7.23635 7.43118 7.12972 7.55164C6.52751 8.23887 4.89856 10.1722 4.89263 12.3998C4.88671 15.0756 8.00639 17.4256 11.8152 19.2978H11.8369C11.8369 19.2978 20.3607 23.4587 26.3375 24.7798C26.6831 24.841 26.7048 24.9141 26.7048 25.0109C26.7028 25.1491 26.606 25.157 26.452 25.2064C20.809 26.3972 11.8566 30.6845 11.8349 30.6943C11.829 30.6983 4.89461 33.7711 4.89461 37.6002C4.89461 39.8298 6.52948 41.7611 7.1317 42.4484C7.23832 42.5708 7.34692 42.6913 7.45946 42.8117C11.9712 47.257 18.1631 50 24.9968 50C35.8545 50 45.0931 43.0763 48.5445 33.4018C48.4636 32.993 47.6916 32.918 46.9018 33.0029C34.0874 34.4228 30.3358 45.1361 30.2806 45.2467C19.5058 48.5604 20.2679 42.4484 20.2679 42.4484C20.2443 38.0821 28.6022 32.4717 35.3471 29.6536C36.2317 29.2843 41.934 27.1022 49.3225 26.2352C49.7964 26.1957 49.9622 25.7909 49.982 25.394C50.0136 24.8173 50.0076 24.4342 49.9208 23.9287Z" fill="#E9540D"/>
<path d="M14.4454 25.2063C14.4375 25.2063 14.71 25.1511 14.71 25.0108C14.71 24.8706 14.3822 24.7798 14.3822 24.7798C12.7868 24.2189 10.5083 23.3007 8.57721 22.3765C5.08632 20.5636 2.33586 18.338 2.33586 15.8241C2.33586 15.6049 2.12262 15.5713 2.01599 15.5713C1.83237 15.5713 1.7218 15.8655 1.7218 15.8655C0.610161 18.6935 4.57764e-05 21.7761 4.57764e-05 25.001C4.57764e-05 28.2258 0.610161 31.3065 1.7218 34.1364C1.7218 34.1364 1.83237 34.4287 2.01599 34.4287C2.12262 34.4287 2.33586 34.3971 2.33586 34.1759C2.33586 31.6284 5.16135 29.3752 8.71937 27.5504C10.6011 26.6401 12.5953 25.7494 14.4454 25.2063Z" fill="#E9540D"/>
</svg>
