<svg width="50" height="50" viewBox="0 0 50 50" fill="none" xmlns="http://www.w3.org/2000/svg">
<path d="M49.9982 9.53946C49.9484 5.29537 47.7767 2.95792 43.8831 2.95792C42.376 2.95792 40.9239 3.30874 39.9746 3.60145C40.0691 1.8667 40.0706 0.795883 40.0706 0.742655L40.0707 0H9.93001V0.742557C9.93001 0.767951 9.93255 1.85566 10.0282 3.60233C9.07893 3.30942 7.62542 2.95792 6.11693 2.95792C2.22338 2.95792 0.0516054 5.29527 0.00180075 9.53946C-0.0472226 13.7147 0.904924 17.4313 2.83158 20.5862C4.72318 23.6837 7.14095 25.5502 8.83616 26.5703C11.5513 28.2045 14.2649 28.5475 16.0633 28.5475C16.5067 28.5475 16.9338 28.5266 17.3333 28.4854C17.3598 28.4826 17.3843 28.4795 17.4102 28.4767C18.2797 29.4132 19.2171 30.1634 20.2188 30.7209C20.9571 31.1317 21.4707 31.8483 21.6467 32.6719C20.6511 32.9818 19.9262 33.9121 19.9262 35.0084C19.9262 36.1293 20.6843 37.076 21.7143 37.3641V40.4807H17.6965V43.733H13.7317V50H36.2688V43.733H32.304V40.4807H28.2862V37.3641C29.3163 37.0759 30.0744 36.1293 30.0744 35.0084C30.0744 33.912 29.3495 32.9818 28.3539 32.6719C28.5299 31.8483 29.0434 31.1318 29.7818 30.7209C30.781 30.1648 31.7249 29.4106 32.5923 28.4771C32.8996 28.5112 33.3604 28.5474 33.9366 28.5474C33.9363 28.5474 33.9368 28.5474 33.9366 28.5474C35.7348 28.5474 38.4487 28.2042 41.1636 26.5702C42.8588 25.55 45.2766 23.6836 47.1682 20.5861C49.0952 17.4313 50.0472 13.7146 49.9982 9.53946ZM38.5734 1.48511C38.5668 1.75672 38.5562 2.09817 38.54 2.49782H11.4636C11.4468 2.09826 11.4356 1.75633 11.4283 1.48511H38.5734ZM39.5834 8.3035C40.5894 7.9686 41.8933 7.63087 43.0614 7.63087C44.0408 7.63087 44.746 7.87015 45.1574 8.34207C45.6302 8.88451 45.7827 9.79574 45.6102 11.0508C44.8922 16.2784 42.6257 20.3591 39.228 22.5409C38.0445 23.3009 36.7699 23.6149 35.7017 23.7265C37.9612 18.9769 39.0548 13.0177 39.5834 8.3035ZM11.1812 13.4762C11.9115 17.3941 12.9199 20.7585 14.1785 23.4759C14.2175 23.5603 14.2571 23.6434 14.2966 23.7265C13.2288 23.6147 11.955 23.3008 10.772 22.5411C7.37444 20.3592 5.10785 16.2786 4.38978 11.0509C4.21742 9.79584 4.36976 8.88451 4.84271 8.34227C5.25414 7.87035 5.95941 7.63116 6.9387 7.63116C8.10775 7.63116 9.41282 7.96938 10.4193 8.30447C10.599 9.91226 10.8448 11.6721 11.1812 13.4762ZM16.0633 27.0624C14.4531 27.0624 12.0249 26.7562 9.60198 25.2979C7.12396 23.8066 1.3725 19.2872 1.48676 9.55695C1.52719 6.11587 3.04174 4.44314 6.11693 4.44314C7.76155 4.44314 9.38587 4.93899 10.1283 5.20054C10.1654 5.69873 10.2069 6.1984 10.2528 6.69601C9.24348 6.39949 8.05433 6.14575 6.9387 6.14575C5.51117 6.14575 4.42943 6.55625 3.72338 7.3659C2.9559 8.24617 2.6851 9.55392 2.9185 11.2528C3.3183 14.1634 4.15384 16.7359 5.40199 18.8988C6.59349 20.9637 8.1303 22.6096 9.96956 23.7906C11.766 24.9443 13.7091 25.2352 15.0951 25.2631C15.0998 25.2713 15.1046 25.2791 15.1093 25.2872C15.1853 25.4203 15.262 25.5512 15.3396 25.6804C15.3637 25.7207 15.388 25.7608 15.4123 25.8007C15.4862 25.9222 15.5608 26.0425 15.6361 26.1604C15.6644 26.2048 15.6931 26.248 15.7216 26.292C15.7729 26.3708 15.8244 26.4489 15.8764 26.5262C15.9266 26.6009 15.977 26.6748 16.0277 26.748C16.0774 26.8196 16.1272 26.8908 16.1774 26.961C16.2009 26.994 16.224 27.0283 16.2476 27.0609C16.1878 27.0619 16.1264 27.0624 16.0633 27.0624ZM34.784 45.2184V48.5149H15.2168V45.2184H34.784ZM30.819 41.966V43.7331H19.1817V41.966H30.819ZM23.1993 40.4808V37.4549H26.8014V40.4808H23.1993ZM28.5895 35.0084C28.5895 35.5384 28.1583 35.9696 27.6284 35.9696H22.3724C21.8424 35.9696 21.4112 35.5384 21.4112 35.0084C21.4112 34.4784 21.8424 34.0472 22.3724 34.0472H27.6284C28.1584 34.0472 28.5895 34.4784 28.5895 35.0084ZM32.3038 26.5189C32.2956 26.5295 32.2874 26.5401 32.2792 26.5508C32.2061 26.6453 32.1325 26.7375 32.0585 26.8285C32.0403 26.8506 32.0224 26.8732 32.0042 26.8953C31.9228 26.9941 31.8408 27.0908 31.7584 27.1851C31.7544 27.1896 31.7507 27.1943 31.7467 27.1988C30.9186 28.1435 30.0147 28.8918 29.06 29.4231C27.8831 30.0778 27.0829 31.2407 26.8628 32.562H23.138C22.9178 31.2406 22.1176 30.0778 20.9407 29.4231C20.0192 28.9104 19.187 28.2251 18.4352 27.4062L18.2535 27.1989C17.5152 26.3568 16.8194 25.3366 16.1853 24.1669L15.991 23.8083C12.798 17.6381 11.8322 8.72004 11.5409 3.98293H38.4652C38.4528 4.18901 38.4392 4.40182 38.4242 4.62284C38.4235 4.6331 38.4227 4.64365 38.422 4.6539C38.4056 4.89338 38.3881 5.13354 38.3694 5.3739C38.3689 5.38093 38.3683 5.38796 38.3678 5.39509C38.3085 6.15689 38.2382 6.92152 38.158 7.67706L38.1094 8.13395C37.5699 12.9712 36.4304 19.1336 34.0273 23.7755L33.8151 24.1668C33.343 25.0376 32.8365 25.8253 32.3038 26.5189ZM40.3981 25.2979C37.975 26.7563 35.5472 27.0624 33.9372 27.0624C33.9373 27.0624 33.9371 27.0624 33.9372 27.0624C33.874 27.0624 33.8122 27.0619 33.7523 27.0609C33.7533 27.0595 33.7543 27.0581 33.7553 27.0567C33.8516 26.9237 33.9466 26.7887 34.04 26.6519C34.0514 26.6352 34.0627 26.6181 34.0741 26.6014C34.1531 26.485 34.2309 26.367 34.3079 26.2478C34.3277 26.2173 34.3475 26.1866 34.3672 26.1558C34.4523 26.0221 34.5366 25.8875 34.6192 25.7506C34.6322 25.7292 34.6448 25.7072 34.6577 25.6857C34.7254 25.5726 34.7923 25.4584 34.8583 25.3432C34.8737 25.3162 34.8896 25.2904 34.9052 25.2633C36.2912 25.2354 38.2343 24.9445 40.0307 23.7907C41.87 22.6096 43.4068 20.9637 44.5983 18.899C45.8464 16.7361 46.6819 14.1636 47.0818 11.253C47.315 9.55402 47.0443 8.24626 46.2769 7.36609C45.571 6.55634 44.4891 6.14585 43.0616 6.14585C41.9461 6.14585 40.7567 6.39939 39.7475 6.69601C39.7943 6.18863 39.8344 5.70196 39.8688 5.23941C39.8698 5.22652 39.8709 5.21353 39.8719 5.20073C40.6145 4.93909 42.2387 4.44333 43.8833 4.44333C46.9585 4.44333 48.473 6.11606 48.5135 9.55695C48.6274 19.2872 42.8761 23.8065 40.3981 25.2979Z" fill="#146EB4"/>
<path d="M33.9283 5.86352C33.3877 5.82308 33.011 5.6826 32.8071 5.44463C32.468 5.0632 32.3903 4.42209 32.3732 4.07387C32.3732 4.03087 32.3387 3.99767 32.2956 3.99767H32.2325C32.2094 3.99767 32.1894 4.00788 32.1719 4.02236C32.1604 4.03641 32.1518 4.05641 32.1518 4.07812C32.1548 4.35483 32.0226 5.07044 31.6834 5.46634C31.4705 5.72432 31.0968 5.88353 30.6028 5.92653C30.5823 5.92653 30.5652 5.92951 30.5507 5.93377C30.5307 5.93802 30.5106 5.95377 30.4991 5.97548C30.4876 5.99379 30.4876 6.01678 30.4961 6.03849C30.5047 6.05977 30.5047 6.07297 30.5106 6.09298C30.5106 6.12278 30.5307 6.14875 30.5593 6.15726C30.5712 6.16152 30.5968 6.1645 30.6028 6.1645C31.9279 6.16577 32.1548 7.3637 32.1719 8.07463C32.1719 8.12656 32.218 8.17509 32.3097 8.17509C32.3242 8.17509 32.3442 8.17382 32.3587 8.17084C32.3903 8.16232 32.4163 8.13338 32.4193 8.09762C32.4479 7.71193 32.511 6.91033 32.8442 6.60638C33.1292 6.32499 33.4739 6.16322 33.9048 6.11426C33.9394 6.11001 33.9684 6.08404 33.9769 6.04828C33.9769 6.03253 33.9799 6.02103 33.9884 6.00401C33.9999 5.97804 33.9999 5.96101 33.9999 5.94356C33.9999 5.90226 33.9684 5.86906 33.9283 5.86352Z" fill="#146EB4"/>
<path d="M23.6546 10.9198C23.9733 10.5239 24.2723 10.134 24.4647 9.67634C24.6661 9.21019 24.8129 8.72958 24.8705 8.23236C24.9362 7.73173 24.9131 7.23111 24.8269 6.73644C24.8099 6.62874 24.7783 6.57169 24.6606 6.58021C24.2062 6.61767 23.7493 6.71516 23.3039 6.84968C22.8666 6.98037 22.4442 7.1681 22.033 7.39202C21.6336 7.61424 21.2083 7.8207 20.8491 8.12593C20.7629 8.19617 20.8406 8.29536 20.9212 8.37114C21.5645 9.01522 21.5189 9.05992 22.1657 9.70358C22.8064 10.346 22.6742 10.2544 23.318 10.8994C23.4071 10.9854 23.5739 11.0173 23.6546 10.9198Z" fill="#146EB4"/>
<path d="M25.2231 12.6968C25.3093 12.787 25.3093 12.75 25.4014 12.661C25.933 12.1331 28.0224 9.97648 28.5543 9.44136C29.0884 8.90965 29.7842 8.20084 29.698 8.12805C29.3273 7.80834 28.9421 7.47416 28.5253 7.24896C28.1 7.0195 27.5856 6.9765 27.1257 6.84709C26.6633 6.71256 26.1945 6.60954 25.7146 6.58059C25.5823 6.5691 25.4876 6.63934 25.5162 6.77003C25.5938 7.32218 25.5768 7.96032 25.5162 8.51927C25.43 9.2996 25.3123 9.52608 25.0823 10.0425C24.8554 10.5474 24.4642 11.0118 24.0935 11.4494C24.0159 11.5427 24.7488 12.2251 25.2231 12.6968Z" fill="#146EB4"/>
<path d="M27.6015 15.1391C28.2453 15.7789 28.1676 15.7772 28.8084 16.4183C29.4525 17.0578 29.5528 16.9892 30.191 17.6316C30.2801 17.7206 30.4008 17.7346 30.4785 17.6371C30.7801 17.2847 30.9669 16.9088 31.1883 16.5116C31.4093 16.1042 31.6627 15.7002 31.7949 15.2638C31.9268 14.8206 31.9643 14.2242 32.0018 13.7653C32.0074 13.6521 31.9327 13.6218 31.8205 13.5959C31.3206 13.5231 30.8031 13.4954 30.3031 13.5559C29.8062 13.6206 29.3548 13.7593 28.889 13.959C28.1416 14.2745 27.9607 14.5252 27.564 14.8479C27.4633 14.9241 27.5154 15.0505 27.6015 15.1391Z" fill="#146EB4"/>
<path d="M26.8668 14.321C26.947 14.4014 27.0247 14.2809 27.1168 14.209C27.5536 13.8391 29.051 12.5113 31.9395 12.8237C32.0747 12.8382 31.8738 11.8259 31.7411 11.364C31.6093 10.9051 31.4681 10.4636 31.2356 10.0401C31.0087 9.62286 30.7352 9.24866 30.4191 8.87872C30.3445 8.79273 30.2643 8.68502 30.1866 8.76548C29.6546 9.29591 29.3155 9.58284 28.784 10.1163C28.1948 10.7144 26.3638 12.5798 25.8293 13.1107C25.8293 13.1107 26.3924 13.8506 26.8668 14.321Z" fill="#146EB4"/>
<path d="M22.9458 11.4582C22.5316 11.0108 22.5375 11.0023 22.1208 10.5519C21.704 10.1058 21.6809 10.1249 21.2671 9.68006C20.8504 9.22839 20.8303 9.24286 20.4165 8.79374C20.3303 8.70221 20.2066 8.65326 20.123 8.74521C19.85 9.04022 19.6431 9.38164 19.4306 9.7073C19.2178 10.0415 19.0915 10.4157 18.9418 10.7758C18.7925 11.1415 18.6487 11.4983 18.5625 11.8801C18.4764 12.2645 18.3787 12.6485 18.3582 13.0402C18.3381 13.4314 18.3787 13.826 18.4277 14.2147C18.4618 14.5042 18.5796 15.009 18.6572 15.2887C18.6803 15.3862 15.9215 18.5139 16.0017 18.5969C16.1083 18.7059 19.4277 15.1823 19.8299 14.8124C20.2267 14.4424 20.954 13.6323 21.3563 13.2594C21.7586 12.8895 21.7385 12.8682 22.1378 12.4995C22.5401 12.1296 22.5115 12.1011 22.9112 11.7281C23.003 11.6434 23.029 11.5502 22.9458 11.4582Z" fill="#146EB4"/>
<path d="M26.3972 14.7516C25.9574 14.3173 25.8887 14.2816 25.4489 13.8457C25.3652 13.7622 25.4028 13.7882 25.3251 13.7235C25.2735 13.6792 25.262 13.7022 25.2189 13.7307C24.707 14.0964 21.7522 17.0636 21.6119 16.9086C21.4677 16.7536 24.9314 13.3621 24.8422 13.2778C24.7876 13.2233 24.6929 13.1313 24.6093 13.0496C24.1724 12.612 24.1438 12.6422 23.707 12.2067C23.6208 12.1173 23.5573 12.0875 23.4741 12.1748C23.0602 12.5805 23.0231 12.5434 22.6149 12.9508C22.2006 13.3578 22.2006 13.3578 21.7953 13.7682C21.3815 14.1752 19.7032 15.7873 19.2919 16.1973C19.2143 16.276 19.2203 16.3922 19.2719 16.4982C19.4272 16.7681 19.6486 17.0836 19.841 17.3386C20.0279 17.5897 20.2608 17.8149 20.4878 18.0414C20.7147 18.2666 20.9792 18.4416 21.2262 18.6267C21.3559 18.7213 21.5342 18.8532 21.7582 18.9737C21.7582 18.9737 21.0308 19.883 20.1917 20.8579C19.2117 21.9996 18.1136 23.2329 18.1567 23.2814C18.315 23.4623 24.3162 17.1023 24.7245 16.6936C25.1327 16.2837 25.1327 16.2803 25.5436 15.8733C25.9518 15.4659 25.9198 15.4357 26.3281 15.0257C26.4173 14.9397 26.4804 14.838 26.3972 14.7516Z" fill="#146EB4"/>
<path d="M26.7654 15.5434C26.3892 15.9377 26.3517 15.9049 25.9809 16.3021C25.6017 16.6963 24.0378 18.2139 23.6586 18.6094C23.2853 19.0053 21.1267 21.2956 21.259 21.4348C21.3191 21.4974 23.2187 19.7482 23.2648 19.7626C23.5954 19.8742 23.8915 19.9917 24.2366 20.0406C24.6274 20.0921 25.0241 20.1436 25.4174 20.1296C25.8116 20.1126 26.1908 19.9691 26.5786 19.8869C26.9608 19.8069 27.3691 19.7737 27.7338 19.6264C28.0934 19.4783 28.4526 19.2922 28.7888 19.0828C29.1164 18.8746 29.4385 18.6354 29.7345 18.3655C29.8263 18.2854 29.7631 18.1879 29.6799 18.1105C29.2341 17.6873 29.2832 17.7333 28.8319 17.3144C28.3865 16.8912 28.3724 16.8095 27.9237 16.3868C27.4783 15.9679 27.4868 15.9564 27.0385 15.5375C26.9497 15.4489 26.8491 15.4515 26.7654 15.5434Z" fill="#146EB4"/>
<path d="M25.8564 30.0004H24.331V24.0271L22.8432 24.6019V23.3341L25.6953 22.1685H25.8564V30.0004Z" fill="#146EB4"/>
<path d="M17.9771 46.6915C17.9642 46.6781 17.9472 46.6695 17.9287 46.6671L17.3372 46.5811L17.0742 46.0437C17.0497 46.003 16.9969 45.9899 16.9562 46.0143C16.9441 46.0216 16.934 46.0317 16.9268 46.0437L16.6627 46.579L16.0712 46.665C16.0263 46.6709 15.9948 46.712 16.0007 46.7569C16.0031 46.7753 16.0117 46.7924 16.0251 46.8053L16.4529 47.2218L16.3506 47.8104C16.3432 47.8556 16.3739 47.8982 16.4191 47.9055C16.4366 47.9084 16.4546 47.9055 16.4703 47.8974L17.0005 47.621L17.5296 47.8994C17.5703 47.9204 17.6203 47.9044 17.6412 47.8636C17.6493 47.8479 17.6522 47.8299 17.6493 47.8124L17.547 47.2239L17.9748 46.8073C18.0074 46.776 18.0084 46.7241 17.9771 46.6915ZM17.4017 47.1348C17.3825 47.1538 17.3737 47.1809 17.3781 47.2075L17.458 47.6743L17.0383 47.4542C17.0143 47.4416 16.9856 47.4416 16.9616 47.4542L16.542 47.6743L16.6218 47.2075C16.6262 47.1809 16.6175 47.1538 16.5982 47.1348L16.2595 46.8042L16.7282 46.7367C16.7552 46.7328 16.7785 46.716 16.7907 46.6916L16.9954 46.2669L17.2 46.6916C17.2122 46.716 17.2355 46.7328 17.2625 46.7367L17.7312 46.8042L17.4017 47.1348Z" fill="#146EB4"/>
<path d="M20.9771 46.6915C20.9642 46.6781 20.9472 46.6695 20.9287 46.6671L20.3372 46.5811L20.0742 46.0437C20.0497 46.003 19.9969 45.9899 19.9562 46.0143C19.9441 46.0216 19.934 46.0317 19.9268 46.0437L19.6627 46.579L19.0712 46.665C19.0263 46.6709 18.9948 46.712 19.0007 46.7569C19.0031 46.7753 19.0117 46.7924 19.0251 46.8053L19.4529 47.2218L19.3506 47.8104C19.3432 47.8556 19.3739 47.8982 19.4191 47.9055C19.4366 47.9084 19.4545 47.9055 19.4703 47.8974L20.0005 47.621L20.5296 47.8994C20.5703 47.9204 20.6203 47.9044 20.6412 47.8636C20.6493 47.8479 20.6522 47.8299 20.6493 47.8124L20.547 47.2239L20.9748 46.8073C21.0074 46.776 21.0084 46.7241 20.9771 46.6915ZM20.4017 47.1348C20.3825 47.1538 20.3737 47.1809 20.3781 47.2075L20.458 47.6743L20.0383 47.4542C20.0143 47.4416 19.9856 47.4416 19.9616 47.4542L19.542 47.6743L19.6218 47.2075C19.6262 47.1809 19.6174 47.1538 19.5982 47.1348L19.2595 46.8042L19.7282 46.7367C19.7552 46.7328 19.7785 46.716 19.7907 46.6916L19.9953 46.2669L20.2 46.6916C20.2122 46.716 20.2355 46.7328 20.2625 46.7367L20.7312 46.8042L20.4017 47.1348Z" fill="#146EB4"/>
<path d="M23.9771 46.6915C23.9642 46.6781 23.9472 46.6695 23.9287 46.6671L23.3372 46.5811L23.0741 46.0437C23.0497 46.003 22.9969 45.9899 22.9562 46.0143C22.9441 46.0216 22.934 46.0317 22.9268 46.0437L22.6627 46.579L22.0712 46.665C22.0263 46.6709 21.9948 46.712 22.0007 46.7569C22.0031 46.7753 22.0117 46.7924 22.0251 46.8053L22.4529 47.2218L22.3506 47.8104C22.3432 47.8556 22.3739 47.8982 22.4191 47.9055C22.4366 47.9084 22.4545 47.9055 22.4703 47.8974L23.0005 47.621L23.5296 47.8994C23.5703 47.9204 23.6203 47.9044 23.6412 47.8636C23.6493 47.8479 23.6522 47.8299 23.6493 47.8124L23.547 47.2239L23.9748 46.8073C24.0074 46.776 24.0084 46.7241 23.9771 46.6915ZM23.4017 47.1348C23.3825 47.1538 23.3737 47.1809 23.3781 47.2075L23.4579 47.6743L23.0383 47.4542C23.0143 47.4416 22.9856 47.4416 22.9616 47.4542L22.5419 47.6743L22.6218 47.2075C22.6262 47.1809 22.6174 47.1538 22.5982 47.1348L22.2595 46.8042L22.7282 46.7367C22.7552 46.7328 22.7785 46.716 22.7906 46.6916L22.9953 46.2669L23.2 46.6916C23.2122 46.716 23.2355 46.7328 23.2625 46.7367L23.7312 46.8042L23.4017 47.1348Z" fill="#146EB4"/>
</svg>
