<svg width="241" height="651" viewBox="0 0 241 651" fill="none" xmlns="http://www.w3.org/2000/svg">
<path d="M200.36 344.619C178.201 323.842 143.395 324.964 122.619 347.123C101.842 369.282 102.964 404.088 125.123 424.864C147.282 445.64 182.088 444.519 202.864 422.36C223.604 400.187 222.484 365.411 200.36 344.619ZM186.977 385.921C193.75 377.433 198.978 367.821 202.425 357.524C207.003 364.221 209.809 371.97 210.58 380.046C203.578 382.253 197.136 385.948 191.697 390.878C190.141 389.226 188.591 387.557 186.977 385.921ZM210.755 387.232C210.39 394.304 208.463 401.208 205.112 407.448C202.411 403.619 199.436 399.807 196.231 396.039C200.47 392.208 205.399 389.22 210.755 387.232ZM196.74 350.757C196.253 358.061 190.741 369.372 182.049 381.065C179.861 379.013 177.629 377.003 175.352 375.035C181.547 364.514 183.446 352.01 180.655 340.124C186.206 342.329 191.295 345.555 195.658 349.634C196.041 349.994 196.368 350.384 196.74 350.757ZM173.022 337.792C176.481 348.676 175.388 360.496 169.991 370.561C167.73 368.751 165.436 366.991 163.127 365.317C153.502 358.093 142.888 352.29 131.611 348.086C143.059 338.393 158.368 334.587 173.022 337.792ZM126.167 353.555C138.012 357.484 149.13 363.333 159.077 370.868C161.386 372.562 163.693 374.334 165.97 376.172C164.879 377.425 163.702 378.599 162.447 379.688C150.27 390.163 132.142 391.671 114.701 383.833C114.891 372.715 118.945 362.01 126.167 353.555ZM115.131 391.46C134.031 398.813 153.467 396.482 166.932 384.896C168.473 383.565 169.917 382.125 171.251 380.586C173.467 382.514 175.641 384.492 177.772 386.521C166.51 400.347 149.382 416.113 134.597 422.052C134.061 422.261 133.567 422.401 133.053 422.578C131.955 421.714 130.868 420.822 129.827 419.846C121.82 412.349 116.631 402.328 115.129 391.462L115.131 391.46ZM140.097 427.152C155.158 420.069 171.716 404.771 182.681 391.392C184.082 392.824 185.427 394.283 186.763 395.743C176.497 407.1 171.624 420.866 173.865 431.538C162.447 434.229 150.439 432.667 140.089 427.145L140.097 427.152ZM180.441 429.439C179.051 421.233 183.207 410.201 191.34 400.939C194.831 405.04 198.098 409.327 201.126 413.78C200.102 415.129 199.008 416.423 197.849 417.658C192.991 422.828 187.042 426.851 180.434 429.432L180.441 429.439Z" fill="#EEF0F2"/>
<path d="M144.897 541.238C131.409 507.969 93.5058 491.934 60.2375 505.422C26.9691 518.91 10.9339 556.813 24.4217 590.081C37.9095 623.35 75.8128 639.385 109.081 625.897C142.317 612.376 158.339 574.506 144.897 541.238ZM110.081 578.928C121.552 573.175 131.923 565.45 140.721 556.108C142.317 565.562 141.49 575.266 138.317 584.314C129.711 583.214 120.968 583.989 112.69 586.585C111.838 584.042 111.003 581.483 110.081 578.928ZM134.946 592.111C131.051 599.52 125.564 605.973 118.879 611.009C117.877 605.564 116.572 599.999 114.999 594.368C121.445 592.357 128.214 591.592 134.946 592.111ZM137.972 546.031C133.832 553.627 122.316 563.035 107.198 571.277C105.866 567.992 104.466 564.729 102.998 561.49C114.856 553.269 123.087 540.792 125.979 526.656C130.843 531.771 134.706 537.752 137.367 544.29C137.601 544.866 137.757 545.447 137.972 546.031ZM118.943 520.373C117.265 533.765 110.238 545.907 99.4621 554.034C97.9315 550.972 96.3414 547.948 94.6937 545.008C87.9428 532.489 79.4279 521.005 69.4101 510.909C86.4939 506.178 104.807 509.677 118.943 520.373ZM60.8595 514.082C71.6229 524.164 80.6562 535.947 87.5982 548.958C89.237 551.919 90.8347 554.963 92.3677 558.063C90.5771 558.867 88.7322 559.545 86.8467 560.091C68.592 565.3 48.3934 557.94 33.5601 540.891C39.2703 529.056 48.9224 519.577 60.8595 514.082ZM30.2445 549.289C46.8825 566.54 68.8929 573.665 89.0792 567.9C91.3925 567.236 93.6547 566.405 95.8481 565.415C97.2721 568.581 98.6248 571.781 99.9063 575.014C80.9742 584.272 54.7863 592.706 35.9808 591.756C35.3024 591.715 34.703 591.621 34.0629 591.556C33.313 590.084 32.5886 588.589 31.9551 587.027C27.0766 575.016 26.4714 561.694 30.2408 549.29L30.2445 549.289ZM39.3565 599.952C59.026 599.811 84.3693 591.597 102.761 582.672C103.555 584.901 104.277 587.134 104.987 589.362C88.3458 596.464 76.2992 608.822 73.4179 621.383C59.8334 618.615 47.7228 610.992 39.3519 599.941L39.3565 599.952ZM81.5143 622.388C84.0869 612.893 94.0099 603.115 107.325 597.204C109.039 603.333 110.421 609.551 111.466 615.83C109.699 616.77 107.884 617.617 106.028 618.367C98.2551 621.51 89.879 622.879 81.5097 622.377L81.5143 622.388Z" fill="#EEF0F2"/>
<path d="M90.9836 219.746C66.4117 216.02 43.4718 232.919 39.7461 257.491C36.0203 282.063 52.9194 305.003 77.4914 308.729C102.063 312.455 125.003 295.556 128.729 270.984C132.424 246.419 115.539 223.499 90.9836 219.746ZM101.12 253.792C101.748 244.93 100.814 236.026 98.3609 227.487C104.553 229.877 110.038 233.799 114.304 238.885C110.608 243.62 107.98 249.098 106.6 254.944C104.785 254.552 102.966 254.146 101.12 253.792ZM117.755 243.647C120.789 248.583 122.692 254.13 123.328 259.89C119.732 258.562 115.958 257.373 112.05 256.319C113.13 251.771 115.066 247.471 117.755 243.647ZM91.3903 225.562C94.4499 230.711 95.9814 240.891 95.5462 252.804C93.1196 252.436 90.6827 252.117 88.2356 251.847C87.531 241.882 83.0116 232.573 75.6177 225.856C80.3818 224.768 85.3077 224.582 90.1404 225.307C90.5658 225.372 90.967 225.484 91.3903 225.562ZM69.391 227.825C76.7707 233.556 81.5164 242.03 82.547 251.317C80.1833 251.146 77.8209 251.024 75.4885 250.966C65.6501 250.562 55.8046 251.573 46.2539 253.969C49.474 242.127 58.028 232.461 69.391 227.825ZM45.1214 260.181C54.9271 257.336 65.1337 256.121 75.3333 256.587C77.6751 256.657 80.0514 256.781 82.4388 256.964C82.2849 258.314 82.0364 259.652 81.6952 260.968C78.346 273.676 66.827 283.1 51.4358 285.907C46.4073 278.325 44.1747 269.229 45.1214 260.181ZM55.2636 290.848C71.4128 287.039 83.4322 276.453 87.1335 262.398C87.5554 260.786 87.8602 259.146 88.0455 257.49C90.4338 257.761 92.8166 258.086 95.1941 258.466C94.016 273.008 89.7835 291.579 82.5727 302.439C82.3088 302.829 82.0407 303.152 81.7759 303.51C80.635 303.437 79.4891 303.34 78.3351 303.165C69.4607 301.825 61.3157 297.478 55.2632 290.851L55.2636 290.848ZM88.6453 303.326C95.5118 291.566 99.5766 273.575 100.762 259.472C102.37 259.787 103.954 260.147 105.531 260.511C103.879 272.928 106.98 284.466 113.44 290.62C106.992 297.73 98.1741 302.246 88.6369 303.324L88.6453 303.326ZM116.899 286.155C112.155 281.269 109.84 271.906 111.026 261.89C115.281 263.036 119.471 264.41 123.578 266.007C123.514 267.391 123.377 268.771 123.168 270.14C122.292 275.879 120.147 281.349 116.891 286.154L116.899 286.155Z" fill="#EEF0F2"/>
<path d="M178.161 111.705C163.939 98.6132 141.797 99.5286 128.705 113.75C115.613 127.971 116.529 150.113 130.75 163.205C144.971 176.297 167.113 175.382 180.205 161.16C193.274 146.931 192.359 124.808 178.161 111.705ZM169.884 138.065C174.144 132.625 177.416 126.478 179.549 119.906C182.502 124.141 184.332 129.055 184.869 134.19C180.426 135.635 176.349 138.023 172.916 141.192C171.916 140.15 170.921 139.097 169.884 138.065ZM185.023 138.761C184.831 143.264 183.645 147.668 181.549 151.658C179.808 149.238 177.893 146.829 175.831 144.45C178.506 141.988 181.626 140.057 185.023 138.761ZM175.892 115.632C175.625 120.283 172.183 127.513 166.72 135.004C165.316 133.711 163.884 132.445 162.424 131.206C166.304 124.475 167.44 116.507 165.596 108.96C169.141 110.33 172.397 112.354 175.197 114.924C175.444 115.151 175.654 115.397 175.892 115.632ZM160.724 107.52C162.989 114.426 162.362 121.954 158.986 128.389C157.537 127.251 156.067 126.145 154.588 125.093C148.421 120.552 141.633 116.92 134.433 114.31C141.661 108.076 151.382 105.566 160.724 107.52ZM131.001 117.822C138.561 120.254 145.669 123.911 152.043 128.649C153.522 129.713 155 130.827 156.46 131.983C155.773 132.787 155.031 133.541 154.239 134.241C146.551 140.977 135.024 142.042 123.88 137.156C123.936 130.08 126.454 123.244 131.001 117.822ZM124.198 142.007C136.267 146.576 148.622 144.98 157.123 137.529C158.096 136.673 159.006 135.748 159.846 134.762C161.268 135.975 162.662 137.222 164.03 138.501C156.944 147.364 146.136 157.496 136.762 161.36C136.423 161.497 136.109 161.589 135.783 161.704C135.079 161.161 134.382 160.6 133.715 159.985C128.576 155.26 125.216 148.914 124.197 142.008L124.198 142.007ZM140.292 164.574C149.835 159.979 160.282 150.149 167.182 141.572C168.082 142.474 168.947 143.395 169.805 144.317C163.338 151.603 160.317 160.391 161.805 167.169C154.555 168.948 146.905 168.023 140.287 164.569L140.292 164.574ZM165.978 165.795C165.045 160.581 167.626 153.537 172.747 147.596C174.993 150.186 177.096 152.895 179.049 155.711C178.406 156.575 177.717 157.405 176.986 158.197C173.925 161.516 170.163 164.11 165.973 165.791L165.978 165.795Z" fill="#EEF0F2"/>
<path d="M64.3688 16.5457C53.9972 25.6597 52.9778 41.456 62.0918 51.8276C71.2059 62.1992 87.0022 63.2187 97.3738 54.1046C107.745 44.9905 108.765 29.1943 99.6508 18.8227C90.5289 8.46695 74.7461 7.44838 64.3688 16.5457ZM82.468 24.412C78.9249 20.9757 74.8057 18.1886 70.2981 16.1777C73.529 14.4 77.1578 13.4705 80.8454 13.476C81.5365 16.7406 82.9258 19.8171 84.9179 22.4942C84.1021 23.1258 83.2788 23.7536 82.468 24.412ZM84.104 13.7118C87.2878 14.1874 90.3268 15.362 93.0028 17.1514C91.1522 18.2056 89.2969 19.3845 87.4514 20.6693C85.9044 18.5835 84.7684 16.2223 84.104 13.7118ZM66.987 18.4529C70.2703 18.9936 75.1459 21.9831 80.0549 26.4285C79.0306 27.3286 78.0234 28.2504 77.0332 29.194C72.545 25.9301 66.9711 24.5223 61.4712 25.2635C62.7122 22.8488 64.3947 20.688 66.4316 18.8931C66.6112 18.7353 66.8023 18.6048 66.987 18.4529ZM60.0813 28.6148C65.157 27.527 70.4569 28.54 74.7736 31.4231C73.8558 32.3669 72.959 33.3276 72.1003 34.2985C68.4098 38.3366 65.3187 42.884 62.9219 47.8013C59.0388 42.1972 57.9886 35.1037 60.0813 28.6148ZM65.1577 50.5043C67.4549 45.3179 70.5888 40.5444 74.4341 36.3745C75.3016 35.4041 76.2043 34.4383 77.1358 33.4887C77.6548 34.037 78.1347 34.6211 78.5719 35.2365C82.777 41.2053 82.6641 49.4729 78.3529 57.02C73.3313 56.4464 68.6659 54.1427 65.1577 50.5043ZM81.8226 57.1598C85.9784 48.9317 85.7764 40.036 81.125 33.4361C80.5906 32.6803 80.0022 31.9641 79.3645 31.2931C80.3338 30.3747 81.3243 29.478 82.3359 28.6029C88.0971 34.3046 94.4787 42.7455 96.5169 49.6949C96.5881 49.9464 96.6298 50.176 96.6873 50.4167C96.248 50.8755 95.797 51.328 95.3099 51.756C91.5666 55.0497 86.8056 56.9578 81.8236 57.161L81.8226 57.1598ZM99.0656 47.4303C96.5217 40.3054 90.3269 32.1434 84.755 26.5957C85.4639 26.0247 86.1833 25.4799 86.9024 24.9396C91.5903 30.0826 97.6047 32.891 102.531 32.3453C103.248 37.6292 102.014 42.9931 99.062 47.4334L99.0656 47.4303ZM101.87 29.2779C98.0962 29.547 93.2876 27.1829 89.4537 23.097C91.4623 21.6975 93.5451 20.4075 95.6928 19.2326C96.2581 19.7551 96.7957 20.3068 97.3033 20.8855C99.4295 23.31 100.988 26.1781 101.867 29.281L101.87 29.2779Z" fill="#EEF0F2"/>
</svg>
