<svg width="39" height="54" viewBox="0 0 39 54" fill="none" xmlns="http://www.w3.org/2000/svg">
<path d="M7.50963 8.33183C10.4239 6.46551 14.1407 7.29277 17.2373 8.1694C18.921 8.64633 20.6609 9.08664 22.4225 9.16228C23.3559 9.19891 24.2323 9.07629 25.1207 8.85494C25.1657 8.84539 25.2886 8.81035 25.4059 8.7801C25.5641 8.73631 25.6188 8.58821 25.5312 8.44808C23.3085 4.91369 19.5926 1.96133 15.2838 1.70017C15.1183 1.68902 14.8564 1.72724 14.703 1.79014C13.1278 2.37695 11.665 3.26075 10.4119 4.38102C9.74034 4.9742 9.12985 5.63585 8.59165 6.34846C8.32737 6.698 8.08076 7.06346 7.85022 7.43689C7.73053 7.63275 7.61647 7.8342 7.50401 8.03643C7.45822 8.12402 7.24375 8.50302 7.50963 8.33183Z" fill="#95569E"/>
<path d="M26.7321 7.99341C26.8188 8.13036 27.0084 8.19406 27.1578 8.12081C28.0422 7.7012 29.109 7.07697 29.7693 6.56262C29.9163 6.45752 30.1082 6.34525 30.0673 6.13585C30.0311 5.93361 29.7829 5.72818 29.6528 5.57611C29.3395 5.2194 29.007 4.87544 28.6559 4.55536C28.3507 4.29978 27.6494 3.72332 27.6494 3.72332C26.1818 2.60782 24.4781 1.79967 22.6811 1.36255C21.7807 1.13881 20.8601 1.01301 19.9315 0.975586C19.472 0.960458 19.0077 0.963643 18.5418 0.994696C18.4157 1.00345 17.2927 1.05123 17.2871 1.1619C17.8711 1.27656 18.4342 1.43261 18.9716 1.61893C22.2176 2.74875 24.9223 5.12067 26.7321 7.99341Z" fill="#95569E"/>
<path d="M28.734 8.60086C28.534 8.72427 28.3324 8.84052 28.1299 8.95597C28.0046 9.02922 27.8705 9.09371 27.7404 9.16299C27.5942 9.23703 27.5452 9.4337 27.6175 9.58259C27.7958 9.94407 27.9605 10.3183 28.1187 10.6949L28.1412 10.7546H28.142C28.8963 12.6584 29.3461 14.6624 29.4007 16.7111C29.4023 16.8727 29.522 16.9428 29.6658 16.8664C30.4595 16.446 31.2354 15.9865 31.968 15.4762C32.1287 15.3647 32.2853 15.2516 32.4299 15.1282C32.609 14.9833 32.8283 14.8408 32.9336 14.6306C33.0452 14.4268 33.0091 14.1799 33.001 13.953C32.989 13.6632 32.9721 13.3758 32.94 13.0843C32.7657 11.3112 32.2331 9.59613 31.3688 8.03395C31.2418 7.80146 31.1206 7.51721 30.9462 7.31895C30.7904 7.1414 30.6522 7.28711 30.5197 7.39698C30.3245 7.55702 30.1148 7.69875 29.9108 7.84207C29.5285 8.1088 29.1332 8.36518 28.734 8.60086Z" fill="#95569E"/>
<path d="M27.8803 19.0486C27.3711 19.3479 26.8626 19.6378 26.3766 19.9722C25.7227 20.4204 25.101 20.9125 24.4985 21.4181C22.8245 22.821 21.3175 24.4047 19.3776 25.4708C17.951 26.2503 16.3461 26.7663 14.7058 26.7344C14.5427 26.7344 14.3788 26.7265 14.219 26.7089C14.1997 26.7097 13.839 26.6803 14.4616 26.9215C14.9861 27.1254 15.5131 27.3005 16.0545 27.4407C17.1301 27.7154 18.2442 27.865 19.3543 27.8786C20.8083 27.8945 22.2598 27.6811 23.6422 27.2408C23.7997 27.193 24.035 27.0672 24.1604 26.9629C26.5132 25.0671 27.7815 22.1419 28.1085 19.1927C28.1269 19.0311 28.0241 18.9682 27.8803 19.0486Z" fill="#95569E"/>
<path d="M30.763 21.9287C31.3486 21.0322 31.7904 20.0513 32.1744 19.056C32.3848 18.5233 32.5463 17.9676 32.6764 17.411C32.7359 17.1435 32.7905 16.8712 32.8331 16.6005C32.8499 16.485 32.9817 15.9316 32.7037 16.1586C31.8755 16.8441 30.5815 17.6268 29.6183 18.1666C29.4745 18.2478 29.3444 18.4437 29.3292 18.6053C29.0737 21.2472 28.1194 23.8564 26.3916 25.905C26.2863 26.0292 26.3136 26.0643 26.4542 25.9783C28.1499 24.9647 29.689 23.5777 30.763 21.9287Z" fill="#95569E"/>
<path d="M0.350175 17.091C0.410421 17.3529 0.608831 17.4994 0.842586 17.6021C1.50288 17.8935 2.28126 17.9556 2.99136 18.0209C3.88219 18.0998 4.78026 18.1236 5.67511 18.1029C5.75705 18.1022 5.83898 18.0974 5.9177 18.0982C10.502 17.9501 15.0405 17.2399 19.4505 15.9962C20.8507 15.602 22.2419 15.1673 23.6107 14.6633C24.2951 14.4133 24.9755 14.1466 25.6462 13.8607C25.9804 13.7214 26.3089 13.5773 26.6335 13.4292C26.8471 13.3312 27.0801 13.2452 27.2938 13.1346C27.4416 13.0629 27.5171 12.8575 27.4697 12.7014C27.1982 11.8049 26.8528 10.9259 26.4399 10.0819C26.3676 9.9338 26.1844 9.86532 26.0278 9.92106C25.2101 10.2172 24.3345 10.4282 23.4766 10.5286C22.2829 10.6655 21.074 10.5708 19.8972 10.3741C17.4849 9.97361 15.157 9.17421 12.6926 9.10892C11.2555 9.06911 9.75256 9.24029 8.46972 9.92424C7.84557 10.2594 7.29372 10.7165 6.86878 11.2834C6.40529 11.9076 6.14182 12.6075 5.96831 13.3551C5.83737 14.1896 5.87192 15.0487 5.96349 15.8839C6.00044 16.2414 6.05185 16.5153 6.45831 16.5623C6.73544 16.5981 7.01498 16.6132 7.2897 16.6284C7.94518 16.6602 8.60146 16.6722 9.25613 16.6729C9.53888 16.6761 9.82244 16.6769 10.106 16.6745C10.2209 16.6745 10.3398 16.6729 10.4619 16.6737C10.5004 16.6714 10.7197 16.7183 10.0779 16.8163C9.79513 16.8609 9.51639 16.8959 9.23042 16.9261C8.685 16.9875 8.13877 17.032 7.59334 17.0639C6.49124 17.1276 5.38352 17.1682 4.28223 17.157C3.7368 17.1499 3.19218 17.1316 2.65237 17.0719C2.40496 17.0472 2.15836 17.0074 1.92219 16.9405C1.75832 16.8927 1.48762 16.8298 1.41372 16.6507C1.286 16.3409 1.91898 16.0185 2.12462 15.9078C2.34391 15.7899 2.56964 15.688 2.80098 15.6028C3.01465 15.5248 3.01706 15.4213 2.91665 15.4324C2.83713 15.4436 2.67406 15.485 2.59454 15.4993C2.36319 15.5567 2.13426 15.6243 1.91095 15.704C1.53742 15.8385 1.16631 15.9962 0.842586 16.2295C0.575897 16.4277 0.269044 16.7287 0.350175 17.091Z" fill="#95569E"/>
<path d="M27.5926 14.386C25.382 15.4203 23.1457 16.3933 20.8258 17.1768C17.2351 18.3854 13.5103 19.1864 9.7526 19.6681C8.48503 19.8282 7.22469 19.9452 5.95631 20.0328C5.37634 20.0726 4.79396 20.1148 4.21159 20.1419C3.91919 20.1586 3.62359 20.165 3.32878 20.1713C3.05486 20.1745 2.78255 20.1777 2.51185 20.1753C2.38573 20.1753 2.26283 20.1737 2.13993 20.1753C1.97204 20.1777 1.99213 20.2422 2.12788 20.2709C2.4516 20.3393 2.98257 20.4062 3.1625 20.4317C3.87742 20.5487 4.59636 20.6403 5.31529 20.7104C5.75388 20.7574 6.19327 20.7964 6.63267 20.8218C7.02628 20.8489 7.33554 20.8266 7.52672 21.2128C7.64159 21.4461 7.77332 21.669 7.92755 21.8816C7.99503 21.9756 8.20549 22.1595 8.16934 22.294C8.12757 22.4398 7.77413 22.3999 7.66247 22.4047C7.29698 22.4063 6.92908 22.4039 6.56118 22.3976C6.37 22.3912 6.1748 22.3864 5.98041 22.3792C5.73541 22.3713 5.73541 22.4326 5.97639 22.4732C6.70175 22.595 8.20308 22.7813 8.9437 22.8379C9.39113 22.8498 9.83855 22.857 10.2884 22.8498C10.5101 22.849 10.735 22.8474 10.9567 22.8434C11.0852 22.8387 11.2065 22.8355 11.331 22.8331C11.3463 22.8339 11.9303 22.9334 9.79919 23.107C9.69878 23.1149 9.13247 23.1094 9.22003 23.3076C9.261 23.4056 9.70441 23.7304 9.82169 23.818C10.6683 24.4263 11.6483 24.8308 12.6693 25.0386C14.7048 25.451 16.795 25.041 18.6321 24.1261C20.915 22.9875 22.6822 21.0926 24.733 19.6108C25.2872 19.2111 25.8672 18.8456 26.456 18.4945C26.75 18.3185 27.0528 18.1482 27.3524 17.9825C27.4962 17.9061 27.6408 17.8273 27.7822 17.7501C27.8489 17.7142 27.9292 17.6848 28.0023 17.6489C28.1228 17.5868 28.2007 17.3814 28.1975 17.2182C28.1782 16.3248 28.0858 15.4315 27.9204 14.5509C27.8882 14.3884 27.7436 14.316 27.5926 14.386Z" fill="#95569E"/>
<path d="M35.6664 0C35.5933 0 35.5194 0.103508 35.468 0.309727C35.19 1.26598 34.9916 1.70947 34.7555 2.04945C34.5193 2.38864 34.2454 2.62512 33.5473 3.07896C33.4204 3.15301 33.4204 3.2812 33.5473 3.35524C34.2213 3.79316 34.5081 4.05193 34.7442 4.37121C34.9956 4.71438 35.1804 5.13398 35.468 6.12447C35.5194 6.33149 35.5925 6.435 35.6656 6.435C35.7387 6.435 35.811 6.33308 35.8616 6.13084C36.15 5.14832 36.3395 4.73986 36.5958 4.3951C36.8303 4.07741 37.1123 3.8067 37.783 3.35922C37.9091 3.28279 37.9083 3.15141 37.783 3.07498C37.0946 2.61636 36.8191 2.35679 36.5837 2.02557C36.3387 1.6832 36.1427 1.26359 35.8616 0.304154C35.811 0.101915 35.7395 0 35.6664 0ZM35.6688 1.52236C35.807 1.86075 35.9475 2.11872 36.1154 2.3544C36.3363 2.66413 36.5894 2.91653 36.9934 3.2183C36.6094 3.50652 36.3564 3.75813 36.1331 4.0583C35.9572 4.29557 35.8134 4.55514 35.6696 4.90547C35.525 4.53603 35.3828 4.27487 35.2069 4.03601C34.9924 3.74459 34.7466 3.50493 34.3562 3.2183C34.7804 2.91255 35.0133 2.67926 35.227 2.37272C35.3893 2.13943 35.5298 1.87349 35.6688 1.52236Z" fill="#95569E"/>
<path d="M2.0219 6.56152C1.96888 6.56152 1.91587 6.63557 1.87892 6.78367C1.6781 7.4716 1.53592 7.79167 1.36642 8.03531C1.19613 8.27896 0.999326 8.44935 0.497277 8.77579C0.406507 8.82914 0.406507 8.9207 0.497277 8.97405C0.981654 9.28935 1.1881 9.47487 1.35759 9.70418C1.53913 9.9518 1.67087 10.2536 1.87892 10.9654C1.91506 11.1143 1.96808 11.1891 2.0211 11.1891C2.07331 11.1891 2.12552 11.1159 2.16247 10.9702C2.36892 10.2639 2.50547 9.96932 2.68942 9.72169C2.85811 9.49318 3.06054 9.2997 3.54331 8.97724C3.63488 8.9223 3.63408 8.82755 3.54331 8.77261C3.04849 8.44298 2.85008 8.25587 2.68059 8.01859C2.50467 7.77177 2.3641 7.47 2.16247 6.77969C2.12552 6.63398 2.07411 6.56152 2.0219 6.56152ZM2.02431 7.88165C2.10062 8.04248 2.18095 8.17863 2.27172 8.30523C2.41872 8.51145 2.58339 8.68343 2.83 8.87612C2.59624 9.06004 2.43157 9.22884 2.28538 9.42789C2.18898 9.55767 2.10464 9.69542 2.02592 9.86342C1.94479 9.68587 1.86124 9.54414 1.76244 9.41117C1.62106 9.21928 1.46282 9.05765 1.22826 8.87691C1.4829 8.68343 1.63633 8.52419 1.77931 8.31717C1.86847 8.19058 1.9472 8.04965 2.02431 7.88165Z" fill="#95569E"/>
<path d="M11.3633 27.7695C11.3295 27.7695 11.2958 27.8173 11.2725 27.9128C11.144 28.3532 11.0524 28.5578 10.944 28.713C10.8355 28.8699 10.7094 28.9774 10.3881 29.186C10.3303 29.221 10.3303 29.2799 10.3881 29.3142C10.6982 29.5156 10.8299 29.6343 10.9392 29.78C11.0548 29.9384 11.1392 30.1319 11.2725 30.5873C11.2958 30.6821 11.3295 30.7299 11.3625 30.7299C11.3962 30.7299 11.43 30.6829 11.4533 30.5897C11.585 30.1391 11.6725 29.9512 11.7906 29.7919C11.8983 29.6454 12.0284 29.5212 12.3361 29.315C12.3955 29.2807 12.3947 29.2202 12.3361 29.1844C12.0204 28.9742 11.8934 28.8532 11.785 28.7019C11.6725 28.545 11.5826 28.3516 11.4533 27.9097C11.43 27.8173 11.3962 27.7695 11.3633 27.7695Z" fill="#95569E"/>
<path d="M18.8435 52.2353V47.8235C18.829 47.876 18.8138 47.9286 18.7969 47.9827C18.335 49.4844 17.8747 50.9852 17.4112 52.4869C16.7437 52.6032 16.0794 52.7178 15.4119 52.8364V46.6945C15.3436 46.1371 15.2761 45.5845 15.207 45.0272C15.207 45.0272 16.563 44.7915 17.2136 44.6768V49.0759C17.2297 49.0242 17.2458 48.97 17.2626 48.9183C17.7213 47.4214 18.1824 45.9221 18.6419 44.4268C19.3206 44.3074 20.0034 44.1888 20.6822 44.0693V51.912C20.0717 52.0187 19.458 52.1254 18.8435 52.2353Z" fill="#202A25"/>
<path d="M28.4104 47.3625C28.2682 46.3967 28.1244 45.4253 27.983 44.4579C27.9172 44.4675 27.8537 44.4802 27.7918 44.4898C27.6456 45.5097 27.5011 46.5281 27.3549 47.5425C27.7051 47.4827 28.0577 47.423 28.4104 47.3625ZM28.6473 48.9398C28.1413 49.029 27.628 49.1182 27.1179 49.2073C27.0384 49.7464 26.9653 50.2878 26.889 50.8237C26.3042 50.9288 25.7178 51.0267 25.1338 51.1318C25.578 48.4414 26.0262 45.7478 26.4704 43.0574C27.4264 42.8902 28.3766 42.7262 29.3269 42.5605C29.7639 45.1005 30.2025 47.6372 30.6427 50.1771C30.0547 50.279 29.4667 50.381 28.8731 50.4805C28.7967 49.9677 28.7212 49.4542 28.6473 48.9398Z" fill="#202A25"/>
<path d="M0 44.4206V35.1965L1.05471 33.9082L5.85751 33.0698L6.92828 33.9656V37.3463C6.02781 37.5047 5.12813 37.6624 4.23087 37.82V35.64C4.23087 35.64 2.50944 35.9338 2.13672 35.9927C1.65476 36.0692 1.65475 36.0692 2.38976 36.3518C2.61066 36.437 2.71107 36.527 2.71107 36.7459V42.7478L4.27264 42.4715V39.9499C5.18035 39.7899 6.08645 39.6306 6.99496 39.473V43.1929L5.92418 44.4636L1.05471 45.3164L0 44.4206Z" fill="#202A25"/>
<path d="M15.1531 31.436C14.6149 34.8335 13.4952 42.0639 13.4952 42.0639L12.4396 43.3211L8.99037 43.9246L8.66424 41.7271C8.66424 41.7271 10.4074 41.4253 11.1319 41.2995C11.1319 41.2995 11.2749 40.3162 11.3255 39.9834C10.8757 40.0622 9.70609 40.266 9.70609 40.266L8.74456 39.4467C8.74456 39.4467 7.94932 34.9083 7.57178 32.7585C8.45619 32.6049 9.41852 32.4361 10.3085 32.2816C10.5736 34.1057 10.8387 35.9323 11.1022 37.7588C11.2765 37.7277 11.4516 37.6951 11.6259 37.6656C11.8854 35.7483 12.1448 33.831 12.4051 31.9138C13.2951 31.7585 14.2599 31.5921 15.1531 31.436Z" fill="#202A25"/>
<path d="M15.7153 31.3382C15.8117 32.1472 15.9105 32.9514 16.0093 33.7579V42.697C16.9146 42.5386 17.8223 42.3825 18.7284 42.2233V35.4141H18.73V34.1369C18.73 33.9196 18.6304 33.8296 18.4079 33.7444C17.8665 33.5358 17.7243 33.4817 17.8802 33.4355C18.6071 33.3129 19.8434 33.0995 20.2555 33.0278V41.9573C21.1664 41.7981 22.0773 41.6373 22.9874 41.4804V30.0723C20.5776 30.4903 15.7129 31.3382 15.7153 31.3382Z" fill="#202A25"/>
<path d="M27.3692 38.373V36.0154C28.2424 35.8593 29.7927 35.583 29.7927 35.583L29.7919 33.2446C29.7919 33.2446 28.3155 33.5057 27.3692 33.6689V32.4985C27.3692 32.2803 27.2688 32.1896 27.0471 32.1044C26.4719 31.883 26.3466 31.8353 26.5515 31.7883C27.7307 31.586 29.6224 31.2564 30.5341 31.0988V28.7539C28.489 29.1122 24.3296 29.8391 24.3296 29.8391C24.4292 30.6433 24.528 31.4523 24.6252 32.2565V41.1971C26.6189 40.8468 28.6143 40.5028 30.6136 40.1541V37.8077C29.5324 37.9987 28.4496 38.1859 27.3692 38.373Z" fill="#202A25"/>
<path d="M36.2423 34.2826C36.2423 34.2826 35.1265 34.4816 34.7128 34.5517V32.4226H34.7144V31.1455C34.7144 30.9281 34.6148 30.8382 34.3931 30.753C33.8469 30.5428 33.7071 30.4886 33.8686 30.4432C34.7289 30.2951 36.2423 30.0348 36.2423 30.0348V34.2826ZM37.9147 27.4614C37.9147 27.4614 33.7561 28.19 31.7021 28.5467C31.7873 29.3548 31.8732 30.1654 31.9568 30.9759V39.911C32.8749 39.7518 33.7947 39.5901 34.7128 39.4309V36.8488C35.7563 36.6672 37.9051 36.2914 37.9051 36.2914L38.9999 34.9984V28.3564L37.9147 27.4614Z" fill="#202A25"/>
<path d="M23.2712 45.404C23.9724 45.2813 24.9854 45.1054 25.3774 45.0377C25.4778 44.4254 25.5782 43.8107 25.6834 43.1929C24.3966 43.4206 21.7554 43.8816 21.7554 43.8768C21.822 44.4334 21.8895 44.9899 21.957 45.5433V51.6845C22.5747 51.5802 23.1932 51.4679 23.8126 51.3636V46.2615C23.8126 46.2599 23.8126 46.2591 23.8126 46.2575V45.8777C23.8126 45.7328 23.7451 45.6715 23.5973 45.6157C23.2109 45.4669 23.1298 45.435 23.2712 45.404Z" fill="#202A25"/>
<path d="M9.22872 46.0794C9.31547 46.6327 9.39821 47.1821 9.48416 47.7379L9.41026 52.2269C9.22792 52.2604 8.82949 52.328 8.64795 52.3615C8.69856 52.9069 8.75077 53.4523 8.80138 54.0001C9.34198 53.9022 10.4216 53.7151 10.4216 53.7151L11.1823 52.7636L11.2739 47.9982C11.2739 47.8525 11.2064 47.792 11.0586 47.7355C10.6545 47.5802 10.5847 47.5532 10.7533 47.5189C10.7807 47.5141 12.0273 47.296 12.2129 47.2633V53.4013C12.8387 53.2923 13.4684 53.1792 14.0942 53.0701V45.229C12.4475 45.518 9.22872 46.0794 9.22872 46.0794Z" fill="#202A25"/>
</svg>
