<svg width="180" height="122" viewBox="0 0 180 122" fill="none" xmlns="http://www.w3.org/2000/svg">
<path d="M58.8364 19.5151C62.4081 24.223 64.7743 29.5949 65.7304 35.3088C65.8032 35.7291 65.8537 36.1466 65.9098 36.567C57.8299 37.4693 49.7921 38.7752 41.8272 40.493C45.7409 32.2038 51.6088 25.0104 58.8364 19.5151ZM89.6279 8.10425V35.079C84.3713 35.1518 79.1174 35.3928 73.8719 35.8048C73.799 35.1995 73.7177 34.5942 73.6168 33.9861C72.4701 27.1653 69.717 20.7509 65.5509 15.1212C72.7589 11.1055 80.9313 8.61707 89.6279 8.10425ZM97.6265 8.19953C106.455 8.91691 114.714 11.6603 121.936 15.9787C117.899 21.5244 115.289 27.8883 114.302 34.6979C114.24 35.1238 114.198 35.5498 114.151 35.9757C108.653 35.4937 103.144 35.2079 97.6265 35.1014V8.19953ZM122.217 35.8412C123.018 30.2871 125.166 25.0889 128.494 20.5576C135.127 25.9183 140.521 32.7391 144.194 40.5322C136.885 38.9461 129.514 37.7019 122.102 36.8024C122.141 36.4829 122.169 36.1635 122.217 35.8412ZM36.5621 61.115C36.8032 57.1021 37.4676 53.2041 38.5077 49.4575C47.5857 47.2829 56.7786 45.6576 66.0303 44.5899C65.5846 48.9923 64.3061 53.2938 62.3324 57.3515C65.3322 57.046 68.3321 56.7826 71.3319 56.5669C72.8654 52.4503 73.8158 48.1656 74.1018 43.8053C79.2688 43.3877 84.4469 43.1439 89.6279 43.0711V55.7878C92.2941 55.757 94.9603 55.757 97.6265 55.7934V43.0935C103.093 43.2028 108.558 43.4886 114.005 43.9818C114.339 48.2889 115.314 52.5456 116.862 56.6537C119.867 56.8863 122.873 57.1721 125.872 57.4944C123.904 53.4423 122.612 49.1772 122.107 44.8449C130.644 45.9154 139.122 47.4847 147.508 49.4995C148.522 53.1817 149.184 57.0096 149.436 60.944C152.128 61.4456 154.816 61.9809 157.499 62.5581C156.454 27.8883 127.933 6.10352e-05 93.0006 6.10352e-05C58.0065 6.10352e-05 29.4466 27.9892 28.499 62.7459C31.182 62.1602 33.8707 61.625 36.5621 61.115Z" fill="#E94E0F"/>
<path d="M88.9495 65.363C83.5863 65.4442 78.2259 65.6628 72.8739 66.0243C71.6459 67.3218 70.4152 68.6304 69.1872 69.9447V85.7804C63.2913 86.2455 58.3094 86.7359 52.4415 87.5402C53.591 86.2315 54.7433 84.9285 55.8927 83.631C58.9486 83.2471 61.1045 83.0538 64.1632 82.7623C64.7071 82.7119 65.251 82.6614 65.7921 82.611V68.6893C67.6733 66.6632 69.5545 64.654 71.4413 62.6616C77.7465 62.2104 84.0601 61.9526 90.3765 61.8881C89.9027 63.0455 89.4233 64.2056 88.9495 65.363ZM77.1129 96.3197V72.4471C79.6557 72.3126 82.1985 72.2089 84.7442 72.1361V96.0059C82.1985 96.0787 79.6557 96.1824 77.1129 96.3197ZM89.7766 100.873C84.1863 100.943 78.596 101.162 73.0113 101.535C73.8579 100.335 74.699 99.1416 75.5457 97.9535C79.1343 97.7433 82.7172 97.5976 86.3086 97.5135V70.55C87.4636 69.3702 88.6215 68.1989 89.7766 67.0303V100.873ZM71.4497 106.778C69.5629 105.024 67.6761 103.289 65.7921 101.568V91.1383C66.9247 89.9165 68.0546 88.7003 69.1872 87.4954V99.8702C70.418 100.98 71.6487 102.098 72.8795 103.222C72.4029 104.407 71.9263 105.59 71.4497 106.778ZM49.5847 105.654C48.4605 106.974 47.3334 108.299 46.2092 109.631V65.5143C49.4361 65.0043 52.6658 64.5475 55.9011 64.1384C54.7489 65.4274 53.5938 66.7221 52.4415 68.0251C51.4883 68.154 50.5351 68.2886 49.5847 68.4287V105.654ZM91.1111 60.3329C84.318 60.3889 77.5306 60.6664 70.7516 61.168C68.5536 63.5135 66.3584 65.8842 64.1632 68.2773V81.2155C61.6288 81.4565 59.9971 81.5854 57.4655 81.8908V62.401C53.1648 62.9222 48.8726 63.5303 44.5916 64.2309V111.438C48.8726 110.737 53.1648 110.127 57.4655 109.608V93.5763C59.9971 93.2709 61.6288 93.1419 64.1632 92.901V102.381C66.3584 104.357 68.5536 106.355 70.7516 108.378C77.5306 107.874 84.318 107.596 91.1111 107.543C93.3063 105.343 95.5127 103.163 97.7163 101.011V66.9042C95.5127 64.6904 93.3063 62.5018 91.1111 60.3329Z" fill="#202A25"/>
<path d="M28.9636 72.0325C25.9974 72.677 23.0425 73.3636 20.0931 74.0922V74.095C18.4446 74.5013 16.799 74.9244 15.1561 75.3588C13.9561 76.8944 12.7562 78.4385 11.5591 79.9882C10.3956 90.9339 9.23774 101.888 8.07707 112.848C7.0061 113.159 5.93234 113.478 4.86699 113.8V115.476C3.76799 116.961 2.6718 118.452 1.58121 119.951C1.5756 117.099 1.57 114.252 1.56719 111.396C2.70824 111.037 3.84929 110.687 4.99034 110.34V110.32C6.07532 100.002 7.1547 89.6953 8.23967 79.3885C10.076 77.0009 11.9151 74.6302 13.7571 72.2735C20.8613 70.3539 28.0104 68.695 35.2015 67.2938C34.0605 68.6585 32.9251 70.0317 31.7868 71.4104C30.842 71.6065 29.9028 71.8027 28.9636 72.0073V72.0325ZM16.7905 105.483C17.6008 97.3034 18.4166 89.1264 19.2268 80.9549C20.3987 80.6747 21.5706 80.3973 22.7397 80.1311C23.1686 80.0274 23.5948 79.9293 24.0209 79.8284V103.698C21.6071 104.264 19.196 104.856 16.7905 105.483ZM28.9636 99.2706V107.557C23.8359 108.667 18.725 109.911 13.6421 111.287C14.472 109.919 15.3019 108.557 16.1317 107.198C19.2661 106.377 22.4089 105.609 25.5573 104.892V77.8949C26.6927 76.4937 27.8282 75.101 28.9636 73.7139V99.2706ZM32.7176 106.786C33.5531 105.466 34.3913 104.147 35.2296 102.83C36.6874 102.547 37.5958 102.359 39.0564 102.095L36.1772 106.103C35.0221 106.324 33.8699 106.554 32.7176 106.786ZM36.7884 100.963V96.8411C36.7856 96.8439 36.7828 96.8439 36.7799 96.8439V65.4415C28.8318 66.9492 20.9258 68.7734 13.0842 70.9116C10.9423 73.6774 8.80599 76.4713 6.67248 79.2848C5.5847 89.2749 4.49972 99.2706 3.40913 109.275C2.27369 109.625 1.13825 109.981 0 110.348V122C2.9101 121.067 5.82861 120.176 8.75833 119.335C8.96019 119.276 9.15644 119.217 9.3583 119.161C9.71435 119.058 10.0704 118.957 10.4265 118.859C12.1478 118.371 13.8748 117.9 15.6046 117.443C20.8165 116.07 26.0563 114.834 31.3158 113.736C32.5718 113.478 33.8306 113.223 35.0894 112.977C36.7659 112.649 37.8958 112.422 39.5751 112.122C39.9284 112.06 40.276 111.999 40.6236 111.937V100.251C39.1602 100.506 38.249 100.686 36.7884 100.963Z" fill="#202A25"/>
<path d="M129.906 83.6228C124.647 82.953 117.949 82.2609 112.675 81.8629C113.533 80.7812 114.394 79.6996 115.252 78.6263C120.155 79.0354 126.48 79.7248 131.367 80.3693C130.879 81.4566 130.388 82.5383 129.906 83.6228ZM130.439 103.051C124.91 102.331 117.949 101.605 112.401 101.185C113.259 100.114 114.111 99.0465 114.966 97.9816C118.526 98.2787 123.508 98.7971 127.06 99.2202C127.114 95.6165 127.17 92.0128 127.22 88.4119C128.378 87.4002 129.539 86.397 130.697 85.3994C130.61 91.287 130.523 97.169 130.439 103.051ZM105.156 106.4C105.369 91.7746 105.226 76.5834 105.442 61.9611C115.185 62.4712 126.332 63.5977 136.004 65.0324C134.838 66.0076 133.668 66.9884 132.497 67.9804C125.087 66.9632 116.225 66.0637 108.776 65.5957C108.591 77.9257 108.77 90.8218 108.591 103.155C107.444 104.231 106.3 105.312 105.156 106.4ZM116.673 88.8462C119.191 89.0704 123.133 89.4823 125.645 89.7682C125.608 92.3435 125.572 94.9244 125.53 97.5052C123.018 97.2166 119.023 96.6842 116.505 96.46L116.673 88.8462ZM132.115 78.9261C127.509 78.3068 121.467 77.6343 116.847 77.2196L116.878 72.8676C123.368 73.4477 130.943 74.3612 137.4 75.3504C137.459 71.4749 137.515 67.5993 137.571 63.7294C126.842 62.0816 114.627 60.8458 103.811 60.3414C103.581 75.9922 103.712 92.2061 103.48 107.854C105.672 107.958 114.414 108.199 131.291 110.186C133.495 108.308 136.066 106.139 138.266 104.306C138.353 98.3347 138.443 92.3659 138.53 86.3914C136.391 83.8806 134.254 81.3921 132.115 78.9261Z" fill="#202A25"/>
<path d="M172.424 75.9895C171.502 75.7261 170.577 75.4682 169.652 75.216C169.652 75.2273 169.652 75.2329 169.652 75.2441C166.73 74.4482 165.076 74.0139 162.135 73.3049V73.3077C160.498 72.9098 158.855 72.5259 157.212 72.156C155.976 73.0947 154.748 74.0475 153.514 75.0031C151.316 85.7246 149.121 96.4657 146.923 107.224C145.594 108.031 144.26 108.846 142.928 109.67C145.353 97.3484 147.775 85.0492 150.2 72.7781C152.101 71.3013 153.991 69.8441 155.883 68.3981C157.994 68.8633 160.108 69.3509 162.211 69.8609C163.091 70.0711 163.969 70.2896 164.846 70.5082C168.951 71.5423 171.774 72.3353 175.842 73.5403C174.704 74.3501 173.563 75.1656 172.424 75.9895ZM171.137 112.335L167.7 114.879L166.172 79.4279L169.615 76.917L171.137 112.335ZM155.241 66.7139C153.04 68.4177 150.834 70.1495 148.628 71.9037C146.068 84.9596 143.506 98.0378 140.938 111.141C145.499 111.926 149.017 112.64 153.545 113.632C155.732 102.25 157.913 90.8864 160.089 79.5428L164.622 80.6076L166.144 116.028L180 119.548L177.423 72.4614C177.423 72.4614 163.114 68.4233 155.241 66.7139Z" fill="#202A25"/>
</svg>
