<svg width="168" height="168" viewBox="0 0 168 168" fill="none" xmlns="http://www.w3.org/2000/svg">
<path d="M167.069 80.4289C166.701 78.7898 165.279 78.3949 164.187 78.2896C161.159 77.9341 158.296 77.5326 155.578 77.1244C146.982 75.6631 133.338 72.6021 118.457 66.5987C102.175 60.0292 82.8838 49.2995 73.8341 38.4644C70.3129 34.1396 68.2068 29.8477 68.2266 25.8388C68.2266 25.8388 65.686 5.47205 101.602 16.5112C101.786 16.8798 114.291 52.5974 157.006 57.3172C159.639 57.6134 162.212 57.3567 162.482 55.9941C150.977 23.7456 120.182 0.666702 83.9895 0.666702C61.2105 0.666702 40.5706 9.81003 25.525 24.6276C25.1564 25.0292 24.7879 25.4373 24.4325 25.8388C22.4251 28.1296 16.9952 34.574 16.9755 41.9993C16.9557 50.9188 27.3547 58.7522 40.0506 64.9926H40.123C40.123 64.9926 68.5359 78.8623 88.4584 83.2661C89.6102 83.4701 89.6826 83.7137 89.6826 84.0362C89.676 84.497 89.3535 84.5234 88.8402 84.6879C70.0299 88.6573 40.1889 102.948 40.1165 102.981C40.0967 102.994 16.9821 113.237 16.9821 126.001C16.9821 133.433 22.4317 139.87 24.439 142.161C24.7945 142.569 25.1564 142.971 25.5316 143.372C40.5706 158.19 61.2105 167.333 83.9895 167.333C120.182 167.333 150.977 144.255 162.482 112.006C162.212 110.643 159.639 110.393 157.006 110.676C114.291 115.409 101.786 151.12 101.602 151.489C65.686 162.535 68.2266 142.161 68.2266 142.161C68.1476 127.607 96.0076 108.906 118.49 99.5121C121.439 98.2811 140.447 91.0073 165.075 88.1175C166.655 87.9858 167.208 86.6364 167.273 85.3133C167.379 83.3911 167.359 82.1141 167.069 80.4289Z" fill="#E9540D"/>
<path d="M48.818 84.6886C48.7916 84.6886 49.6999 84.5043 49.6999 84.0369C49.6999 83.5695 48.6074 83.2667 48.6074 83.2667C43.2894 81.3972 35.6942 78.3363 29.2574 75.2556C17.6211 69.2127 8.45292 61.794 8.45292 53.4143C8.45292 52.6836 7.74211 52.5717 7.3867 52.5717C6.77461 52.5717 6.40604 53.5525 6.40604 53.5525C2.70059 62.9789 0.66687 73.2545 0.66687 84.004C0.66687 94.7535 2.70059 105.022 6.40604 114.455C6.40604 114.455 6.77461 115.43 7.3867 115.43C7.74211 115.43 8.45292 115.324 8.45292 114.587C8.45292 106.095 17.8712 98.5846 29.7313 92.5022C36.0036 89.4676 42.651 86.4988 48.818 84.6886Z" fill="#E9540D"/>
</svg>
