<?xml version="1.0" standalone="no"?>
<!DOCTYPE svg PUBLIC "-//W3C//DTD SVG 20010904//EN"
 "http://www.w3.org/TR/2001/REC-SVG-20010904/DTD/svg10.dtd">
<svg version="1.0" xmlns="http://www.w3.org/2000/svg"
 width="700.000000pt" height="700.000000pt" viewBox="0 0 700.000000 700.000000"
 preserveAspectRatio="xMidYMid meet">
<metadata>
Created by potrace 1.11, written by Peter Selinger 2001-2013
</metadata>
<g transform="translate(0.000000,700.000000) scale(0.100000,-0.100000)"
fill="#000000" stroke="none">
<path d="M210 6989 c-91 -18 -180 -108 -199 -201 -8 -38 -11 -994 -9 -3318 l3
-3265 23 -47 c26 -53 87 -112 141 -136 33 -16 288 -17 3331 -17 l3295 0 47 23
c53 26 112 87 136 141 16 33 17 288 17 3331 0 3043 -1 3298 -17 3331 -24 54
-83 115 -136 141 l-47 23 -3270 1 c-1859 1 -3289 -2 -3315 -7z m4870 -1479
c456 -25 687 -85 862 -224 123 -98 222 -255 253 -401 21 -101 19 -245 -5 -340
-37 -144 -96 -217 -297 -367 -73 -54 -133 -100 -133 -103 0 -2 66 -49 148
-103 216 -146 319 -263 378 -430 67 -192 52 -393 -43 -591 -38 -79 -59 -108
-131 -181 -197 -198 -374 -264 -847 -317 -116 -13 -337 -16 -1292 -20 l-1153
-4 0 370 0 371 135 0 135 0 0 805 0 805 -435 0 -435 0 0 -1047 c0 -1092 -8
-1385 -39 -1538 -48 -237 -193 -450 -389 -572 -82 -51 -225 -103 -342 -124
-101 -19 -571 -17 -690 2 l-85 14 -3 379 -2 378 36 -7 c45 -8 162 -7 224 3
l44 7 20 85 c19 81 20 136 23 1253 l4 1167 -141 0 -140 0 0 370 0 370 2078 0
c1283 0 2148 -4 2262 -10z"/>
<path d="M4290 4560 l0 -280 193 0 c264 0 375 21 428 82 111 128 83 360 -52
428 -64 33 -196 50 -390 50 l-179 0 0 -280z"/>
<path d="M4290 3411 l0 -301 203 0 c265 0 355 14 438 70 30 19 56 48 74 82 26
47 29 63 30 143 0 104 -21 161 -84 221 -67 64 -130 77 -413 82 l-248 4 0 -301z"/>
</g>
</svg>
